  0
SECTION
  2
HEADER
  9
$ACADVER
  1
AC1014
  9
$HANDSEED
  5
FFFF
  9
$INSUNITS
 70
     0
  9
$MEASUREMENT
 70
     1
  0
ENDSEC
  0
SECTION
  2
TABLES
  0
TABLE
  2
VPORT
  5
8
330
0
100
AcDbSymbolTable
 70
     4
  0
VPORT
  5
2E
330
8
100
AcDbSymbolTableRecord
100
AcDbViewportTableRecord
  2
*ACTIVE
 70
     0
 10
0.0
 20
0.0
 11
1.0
 21
1.0
 12
210.0
 22
148.5
 13
0.0
 23
0.0
 14
10.0
 24
10.0
 15
10.0
 25
10.0
 16
0.0
 26
0.0
 36
1.0
 17
0.0
 27
0.0
 37
0.0
 40
341.0
 41
1.24
 42
50.0
 43
0.0
 44
0.0
 50
0.0
 51
0.0
 71
     0
 72
   100
 73
     1
 74
     3
 75
     0
 76
     0
 77
     0
 78
     0
  0
ENDTAB
  0
TABLE
  2
LTYPE
  5
5
330
0
100
AcDbSymbolTable
 70
     1
  0
LTYPE
  5
14
330
5
100
AcDbSymbolTableRecord
100
AcDbLinetypeTableRecord
  2
BYBLOCK
 70
     0
  3

 72
    65
 73
     0
 40
0.0
  0
LTYPE
  5
15
330
5
100
AcDbSymbolTableRecord
100
AcDbLinetypeTableRecord
  2
BYLAYER
 70
     0
  3

 72
    65
 73
     0
 40
0.0
  0
LTYPE
  5
16
330
5
100
AcDbSymbolTableRecord
100
AcDbLinetypeTableRecord
  2
CONTINUOUS
 70
     0
  3
Solid line
 72
    65
 73
     0
 40
0.0
  0
ENDTAB
  0
TABLE
  2
LAYER
  5
2
100
AcDbSymbolTable
 70
2
  0
LAYER
  5
50
100
AcDbSymbolTableRecord
100
AcDbLayerTableRecord
  2
0
 70
0
  6
CONTINUOUS
  0
LAYER
  5
51
100
AcDbSymbolTableRecord
100
AcDbLayerTableRecord
  2
Layer_1
 70
0
  6
CONTINUOUS
  0
ENDTAB
  0
TABLE
  2
STYLE
  5
3
330
0
100
AcDbSymbolTable
 70
     1
  0
STYLE
  5
11
330
3
100
AcDbSymbolTableRecord
100
AcDbTextStyleTableRecord
  2
STANDARD
 70
     0
 40
0.0
 41
1.0
 50
0.0
 71
     0
 42
2.5
  3
txt
  4

  0
ENDTAB
  0
TABLE
  2
VIEW
  5
6
330
0
100
AcDbSymbolTable
 70
     0
  0
ENDTAB
  0
TABLE
  2
UCS
  5
7
330
0
100
AcDbSymbolTable
 70
     0
  0
ENDTAB
  0
TABLE
  2
APPID
  5
9
330
0
100
AcDbSymbolTable
 70
     2
  0
APPID
  5
12
330
9
100
AcDbSymbolTableRecord
100
AcDbRegAppTableRecord
  2
ACAD
 70
     0
  0
ENDTAB
  0
TABLE
  2
DIMSTYLE
  5
A
330
0
100
AcDbSymbolTable
 70
     1
  0
DIMSTYLE
105
27
330
A
100
AcDbSymbolTableRecord
100
AcDbDimStyleTableRecord
  2
ISO-25
 70
     0
  3

  4

  5

  6

  7

 40
1.0
 41
2.5
 42
0.625
 43
3.75
 44
1.25
 45
0.0
 46
0.0
 47
0.0
 48
0.0
140
2.5
141
2.5
142
0.0
143
0.03937007874016
144
1.0
145
0.0
146
1.0
147
0.625
 71
     0
 72
     0
 73
     0
 74
     0
 75
     0
 76
     0
 77
     1
 78
     8
170
     0
171
     3
172
     1
173
     0
174
     0
175
     0
176
     0
177
     0
178
     0
270
     2
271
     2
272
     2
273
     2
274
     3
340
11
275
     0
280
     0
281
     0
282
     0
283
     0
284
     8
285
     0
286
     0
287
     3
288
     0
  0
ENDTAB
  0
TABLE
  2
BLOCK_RECORD
  5
1
330
0
100
AcDbSymbolTable
 70
     1
  0
BLOCK_RECORD
  5
1F
330
1
100
AcDbSymbolTableRecord
100
AcDbBlockTableRecord
  2
*MODEL_SPACE
  0
BLOCK_RECORD
  5
1B
330
1
100
AcDbSymbolTableRecord
100
AcDbBlockTableRecord
  2
*PAPER_SPACE
  0
ENDTAB
  0
ENDSEC
  0
SECTION
  2
BLOCKS
  0
BLOCK
  5
20
330
1F
100
AcDbEntity
  8
0
100
AcDbBlockBegin
  2
*MODEL_SPACE
 70
     0
 10
0.0
 20
0.0
 30
0.0
  3
*MODEL_SPACE
  1

  0
ENDBLK
  5
21
330
1F
100
AcDbEntity
  8
0
100
AcDbBlockEnd
  0
BLOCK
  5
1C
330
1B
100
AcDbEntity
 67
     1
  8
0
100
AcDbBlockBegin
  2
*PAPER_SPACE
  1

  0
ENDBLK
  5
1D
330
1B
100
AcDbEntity
 67
     1
  8
0
100
AcDbBlockEnd
  0
ENDSEC
  0
SECTION
  2
ENTITIES
  0
LINE
  5
100
100
AcDbEntity
  8
Layer_1
 62
6
100
AcDbLine
 10
269.765490
 20
193.145000
 30
0.0
 11
294.368320
 21
193.145000
 31
0.0
  0
SPLINE
  5
101
100
AcDbEntity
  8
Layer_1
 62
6
100
AcDbSpline
 70
8
 71
3
 72
8
 73
4
 74
0
 40
0
 40
0
 40
0
 40
0
 40
1
 40
1
 40
1
 40
1
 10
294.368320
 20
193.145000
 30
0.0
 10
295.070025
 20
193.145000
 30
0.0
 10
295.742989
 20
193.423755
 30
0.0
 10
296.239165
 20
193.919940
 30
0.0
  0
SPLINE
  5
102
100
AcDbEntity
  8
Layer_1
 62
6
100
AcDbSpline
 70
8
 71
3
 72
8
 73
4
 74
0
 40
0
 40
0
 40
0
 40
0
 40
1
 40
1
 40
1
 40
1
 10
296.239165
 20
193.919940
 30
0.0
 10
296.735341
 20
194.416125
 30
0.0
 10
297.014083
 20
195.089095
 30
0.0
 10
297.014070
 20
195.790800
 30
0.0
  0
LINE
  5
103
100
AcDbEntity
  8
Layer_1
 62
6
100
AcDbLine
 10
297.014070
 20
195.790800
 30
0.0
 11
297.013820
 21
203.730900
 31
0.0
  0
SPLINE
  5
104
100
AcDbEntity
  8
Layer_1
 62
6
100
AcDbSpline
 70
8
 71
3
 72
8
 73
4
 74
0
 40
0
 40
0
 40
0
 40
0
 40
1
 40
1
 40
1
 40
1
 10
297.013820
 20
203.730900
 30
0.0
 10
297.013750
 20
205.452824
 30
0.0
 10
296.482964
 20
207.132882
 30
0.0
 10
295.493740
 20
208.542300
 30
0.0
  0
LINE
  5
105
100
AcDbEntity
  8
Layer_1
 62
6
100
AcDbLine
 10
295.493740
 20
208.542300
 30
0.0
 11
291.477030
 21
214.265300
 31
0.0
  0
SPLINE
  5
106
100
AcDbEntity
  8
Layer_1
 62
6
100
AcDbSpline
 70
8
 71
3
 72
8
 73
4
 74
0
 40
0
 40
0
 40
0
 40
0
 40
1
 40
1
 40
1
 40
1
 10
291.477030
 20
214.265300
 30
0.0
 10
290.487801
 20
215.674721
 30
0.0
 10
289.956980
 20
217.354770
 30
0.0
 10
289.956840
 20
219.076700
 30
0.0
  0
LINE
  5
107
100
AcDbEntity
  8
Layer_1
 62
6
100
AcDbLine
 10
289.956840
 20
219.076700
 30
0.0
 11
289.952840
 21
270.929700
 31
0.0
  0
SPLINE
  5
108
100
AcDbEntity
  8
Layer_1
 62
6
100
AcDbSpline
 70
8
 71
3
 72
8
 73
4
 74
0
 40
0
 40
0
 40
0
 40
0
 40
1
 40
1
 40
1
 40
1
 10
289.952840
 20
270.929700
 30
0.0
 10
289.952800
 20
271.631394
 30
0.0
 10
290.231518
 20
272.304363
 30
0.0
 10
290.727676
 20
272.800551
 30
0.0
  0
SPLINE
  5
109
100
AcDbEntity
  8
Layer_1
 62
6
100
AcDbSpline
 70
8
 71
3
 72
8
 73
4
 74
0
 40
0
 40
0
 40
0
 40
0
 40
1
 40
1
 40
1
 40
1
 10
290.727676
 20
272.800551
 30
0.0
 10
291.223834
 20
273.296739
 30
0.0
 10
291.896786
 20
273.575498
 30
0.0
 10
292.598480
 20
273.575500
 30
0.0
  0
LINE
  5
10a
100
AcDbEntity
  8
Layer_1
 62
6
100
AcDbLine
 10
292.598480
 20
273.575500
 30
0.0
 11
294.361370
 21
273.575500
 31
0.0
  0
SPLINE
  5
10b
100
AcDbEntity
  8
Layer_1
 62
6
100
AcDbSpline
 70
8
 71
3
 72
8
 73
4
 74
0
 40
0
 40
0
 40
0
 40
0
 40
1
 40
1
 40
1
 40
1
 10
294.361370
 20
273.575500
 30
0.0
 10
295.063051
 20
273.575501
 30
0.0
 10
295.735988
 20
273.854264
 30
0.0
 10
296.232123
 20
274.350456
 30
0.0
  0
SPLINE
  5
10c
100
AcDbEntity
  8
Layer_1
 62
6
100
AcDbSpline
 70
8
 71
3
 72
8
 73
4
 74
0
 40
0
 40
0
 40
0
 40
0
 40
1
 40
1
 40
1
 40
1
 10
296.232123
 20
274.350456
 30
0.0
 10
296.728257
 20
274.846649
 30
0.0
 10
297.006942
 20
275.519619
 30
0.0
 10
297.006860
 20
276.221300
 30
0.0
  0
LINE
  5
10d
100
AcDbEntity
  8
Layer_1
 62
6
100
AcDbLine
 10
297.006860
 20
276.221300
 30
0.0
 11
297.004860
 21
294.221900
 31
0.0
  0
SPLINE
  5
10e
100
AcDbEntity
  8
Layer_1
 62
6
100
AcDbSpline
 70
8
 71
3
 72
8
 73
4
 74
0
 40
0
 40
0
 40
0
 40
0
 40
1
 40
1
 40
1
 40
1
 10
297.004860
 20
294.221900
 30
0.0
 10
297.004653
 20
295.683194
 30
0.0
 10
295.819984
 20
296.867698
 30
0.0
 10
294.358690
 20
296.867700
 30
0.0
  0
LINE
  5
10f
100
AcDbEntity
  8
Layer_1
 62
6
100
AcDbLine
 10
294.358690
 20
296.867700
 30
0.0
 11
266.592550
 21
296.867700
 31
0.0
  0
LINE
  5
110
100
AcDbEntity
  8
Layer_1
 62
6
100
AcDbLine
 10
266.592550
 20
296.867700
 30
0.0
 11
35.843640
 21
296.867700
 31
0.0
  0
LINE
  5
111
100
AcDbEntity
  8
Layer_1
 62
6
100
AcDbLine
 10
35.843640
 20
296.867700
 30
0.0
 11
2.785840
 21
296.867700
 31
0.0
  0
SPLINE
  5
112
100
AcDbEntity
  8
Layer_1
 62
6
100
AcDbSpline
 70
8
 71
3
 72
8
 73
4
 74
0
 40
0
 40
0
 40
0
 40
0
 40
1
 40
1
 40
1
 40
1
 10
2.785840
 20
296.867700
 30
0.0
 10
1.324613
 20
296.867682
 30
0.0
 10
0.140058
 20
295.683127
 30
0.0
 10
0.140040
 20
294.221900
 30
0.0
  0
LINE
  5
113
100
AcDbEntity
  8
Layer_1
 62
6
100
AcDbLine
 10
0.140040
 20
294.221900
 30
0.0
 11
0.140040
 21
276.221300
 31
0.0
  0
SPLINE
  5
114
100
AcDbEntity
  8
Layer_1
 62
6
100
AcDbSpline
 70
8
 71
3
 72
8
 73
4
 74
0
 40
0
 40
0
 40
0
 40
0
 40
1
 40
1
 40
1
 40
1
 10
0.140040
 20
276.221300
 30
0.0
 10
0.140058
 20
274.760073
 30
0.0
 10
1.324613
 20
273.575518
 30
0.0
 10
2.785840
 20
273.575500
 30
0.0
  0
LINE
  5
115
100
AcDbEntity
  8
Layer_1
 62
6
100
AcDbLine
 10
2.785840
 20
273.575500
 30
0.0
 11
4.548840
 21
273.575500
 31
0.0
  0
SPLINE
  5
116
100
AcDbEntity
  8
Layer_1
 62
6
100
AcDbSpline
 70
8
 71
3
 72
8
 73
4
 74
0
 40
0
 40
0
 40
0
 40
0
 40
1
 40
1
 40
1
 40
1
 10
4.548840
 20
273.575500
 30
0.0
 10
6.010070
 20
273.575487
 30
0.0
 10
7.194627
 20
272.390930
 30
0.0
 10
7.194640
 20
270.929700
 30
0.0
  0
LINE
  5
117
100
AcDbEntity
  8
Layer_1
 62
6
100
AcDbLine
 10
7.194640
 20
270.929700
 30
0.0
 11
7.194440
 21
219.076700
 31
0.0
  0
SPLINE
  5
118
100
AcDbEntity
  8
Layer_1
 62
6
100
AcDbSpline
 70
8
 71
3
 72
8
 73
4
 74
0
 40
0
 40
0
 40
0
 40
0
 40
1
 40
1
 40
1
 40
1
 10
7.194440
 20
219.076700
 30
0.0
 10
7.194439
 20
217.354747
 30
0.0
 10
6.663678
 20
215.674644
 30
0.0
 10
5.674440
 20
214.265200
 30
0.0
  0
LINE
  5
119
100
AcDbEntity
  8
Layer_1
 62
6
100
AcDbLine
 10
5.674440
 20
214.265200
 30
0.0
 11
1.657740
 21
208.542400
 31
0.0
  0
SPLINE
  5
11a
100
AcDbEntity
  8
Layer_1
 62
6
100
AcDbSpline
 70
8
 71
3
 72
8
 73
4
 74
0
 40
0
 40
0
 40
0
 40
0
 40
1
 40
1
 40
1
 40
1
 10
1.657740
 20
208.542400
 30
0.0
 10
0.668496
 20
207.132953
 30
0.0
 10
0.137703
 20
205.452859
 30
0.0
 10
0.137640
 20
203.730900
 30
0.0
  0
LINE
  5
11b
100
AcDbEntity
  8
Layer_1
 62
6
100
AcDbLine
 10
0.137640
 20
203.730900
 30
0.0
 11
0.137340
 21
195.790800
 31
0.0
  0
SPLINE
  5
11c
100
AcDbEntity
  8
Layer_1
 62
6
100
AcDbSpline
 70
8
 71
3
 72
8
 73
4
 74
0
 40
0
 40
0
 40
0
 40
0
 40
1
 40
1
 40
1
 40
1
 10
0.137340
 20
195.790800
 30
0.0
 10
0.137322
 20
195.089102
 30
0.0
 10
0.416056
 20
194.416137
 30
0.0
 10
0.912222
 20
193.919953
 30
0.0
  0
SPLINE
  5
11d
100
AcDbEntity
  8
Layer_1
 62
6
100
AcDbSpline
 70
8
 71
3
 72
8
 73
4
 74
0
 40
0
 40
0
 40
0
 40
0
 40
1
 40
1
 40
1
 40
1
 10
0.912222
 20
193.919953
 30
0.0
 10
1.408388
 20
193.423768
 30
0.0
 10
2.081342
 20
193.145009
 30
0.0
 10
2.783040
 20
193.145000
 30
0.0
  0
LINE
  5
11e
100
AcDbEntity
  8
Layer_1
 62
6
100
AcDbLine
 10
2.783040
 20
193.145000
 30
0.0
 11
27.385940
 21
193.145000
 31
0.0
  0
LINE
  5
11f
100
AcDbEntity
  8
Layer_1
 62
6
100
AcDbLine
 10
27.385940
 20
193.145000
 30
0.0
 11
264.473830
 21
193.145000
 31
0.0
  0
LINE
  5
120
100
AcDbEntity
  8
Layer_1
 62
6
100
AcDbLine
 10
264.473830
 20
193.145000
 30
0.0
 11
269.765490
 21
193.145000
 31
0.0
  0
SPLINE
  5
121
100
AcDbEntity
  8
Layer_1
 62
6
100
AcDbSpline
 70
8
 71
3
 72
8
 73
4
 74
0
 40
0
 40
0
 40
0
 40
0
 40
1
 40
1
 40
1
 40
1
 10
205.624380
 20
201.766600
 30
0.0
 10
206.008619
 20
201.766600
 30
0.0
 10
206.355024
 20
201.535140
 30
0.0
 10
206.502066
 20
201.180149
 30
0.0
  0
SPLINE
  5
122
100
AcDbEntity
  8
Layer_1
 62
6
100
AcDbSpline
 70
8
 71
3
 72
8
 73
4
 74
0
 40
0
 40
0
 40
0
 40
0
 40
1
 40
1
 40
1
 40
1
 10
206.502066
 20
201.180149
 30
0.0
 10
206.649107
 20
200.825159
 30
0.0
 10
206.567830
 20
200.416547
 30
0.0
 10
206.296131
 20
200.144849
 30
0.0
  0
SPLINE
  5
123
100
AcDbEntity
  8
Layer_1
 62
6
100
AcDbSpline
 70
8
 71
3
 72
8
 73
4
 74
0
 40
0
 40
0
 40
0
 40
0
 40
1
 40
1
 40
1
 40
1
 10
206.296131
 20
200.144849
 30
0.0
 10
206.024433
 20
199.873150
 30
0.0
 10
205.615821
 20
199.791873
 30
0.0
 10
205.260831
 20
199.938914
 30
0.0
  0
SPLINE
  5
124
100
AcDbEntity
  8
Layer_1
 62
6
100
AcDbSpline
 70
8
 71
3
 72
8
 73
4
 74
0
 40
0
 40
0
 40
0
 40
0
 40
1
 40
1
 40
1
 40
1
 10
205.260831
 20
199.938914
 30
0.0
 10
204.905840
 20
200.085956
 30
0.0
 10
204.674380
 20
200.432361
 30
0.0
 10
204.674380
 20
200.816600
 30
0.0
  0
SPLINE
  5
125
100
AcDbEntity
  8
Layer_1
 62
6
100
AcDbSpline
 70
8
 71
3
 72
8
 73
4
 74
0
 40
0
 40
0
 40
0
 40
0
 40
1
 40
1
 40
1
 40
1
 10
204.674380
 20
200.816600
 30
0.0
 10
204.674380
 20
201.068556
 30
0.0
 10
204.774469
 20
201.310192
 30
0.0
 10
204.952629
 20
201.488351
 30
0.0
  0
SPLINE
  5
126
100
AcDbEntity
  8
Layer_1
 62
6
100
AcDbSpline
 70
8
 71
3
 72
8
 73
4
 74
0
 40
0
 40
0
 40
0
 40
0
 40
1
 40
1
 40
1
 40
1
 10
204.952629
 20
201.488351
 30
0.0
 10
205.130788
 20
201.666511
 30
0.0
 10
205.372424
 20
201.766600
 30
0.0
 10
205.624380
 20
201.766600
 30
0.0
  0
LINE
  5
127
100
AcDbEntity
  8
Layer_1
 62
6
100
AcDbLine
 10
205.624380
 20
201.766600
 30
0.0
 11
205.624380
 21
201.766600
 31
0.0
  0
SPLINE
  5
128
100
AcDbEntity
  8
Layer_1
 62
6
100
AcDbSpline
 70
8
 71
3
 72
8
 73
4
 74
0
 40
0
 40
0
 40
0
 40
0
 40
1
 40
1
 40
1
 40
1
 10
290.918300
 20
201.769700
 30
0.0
 10
291.302539
 20
201.769700
 30
0.0
 10
291.648944
 20
201.538240
 30
0.0
 10
291.795986
 20
201.183249
 30
0.0
  0
SPLINE
  5
129
100
AcDbEntity
  8
Layer_1
 62
6
100
AcDbSpline
 70
8
 71
3
 72
8
 73
4
 74
0
 40
0
 40
0
 40
0
 40
0
 40
1
 40
1
 40
1
 40
1
 10
291.795986
 20
201.183249
 30
0.0
 10
291.943027
 20
200.828259
 30
0.0
 10
291.861750
 20
200.419647
 30
0.0
 10
291.590051
 20
200.147949
 30
0.0
  0
SPLINE
  5
12a
100
AcDbEntity
  8
Layer_1
 62
6
100
AcDbSpline
 70
8
 71
3
 72
8
 73
4
 74
0
 40
0
 40
0
 40
0
 40
0
 40
1
 40
1
 40
1
 40
1
 10
291.590051
 20
200.147949
 30
0.0
 10
291.318353
 20
199.876250
 30
0.0
 10
290.909741
 20
199.794973
 30
0.0
 10
290.554751
 20
199.942014
 30
0.0
  0
SPLINE
  5
12b
100
AcDbEntity
  8
Layer_1
 62
6
100
AcDbSpline
 70
8
 71
3
 72
8
 73
4
 74
0
 40
0
 40
0
 40
0
 40
0
 40
1
 40
1
 40
1
 40
1
 10
290.554751
 20
199.942014
 30
0.0
 10
290.199760
 20
200.089056
 30
0.0
 10
289.968300
 20
200.435461
 30
0.0
 10
289.968300
 20
200.819700
 30
0.0
  0
SPLINE
  5
12c
100
AcDbEntity
  8
Layer_1
 62
6
100
AcDbSpline
 70
8
 71
3
 72
8
 73
4
 74
0
 40
0
 40
0
 40
0
 40
0
 40
1
 40
1
 40
1
 40
1
 10
289.968300
 20
200.819700
 30
0.0
 10
289.968300
 20
201.071656
 30
0.0
 10
290.068389
 20
201.313292
 30
0.0
 10
290.246549
 20
201.491451
 30
0.0
  0
SPLINE
  5
12d
100
AcDbEntity
  8
Layer_1
 62
6
100
AcDbSpline
 70
8
 71
3
 72
8
 73
4
 74
0
 40
0
 40
0
 40
0
 40
0
 40
1
 40
1
 40
1
 40
1
 10
290.246549
 20
201.491451
 30
0.0
 10
290.424708
 20
201.669611
 30
0.0
 10
290.666344
 20
201.769700
 30
0.0
 10
290.918300
 20
201.769700
 30
0.0
  0
LINE
  5
12e
100
AcDbEntity
  8
Layer_1
 62
6
100
AcDbLine
 10
290.918300
 20
201.769700
 30
0.0
 11
290.918300
 21
201.769700
 31
0.0
  0
SPLINE
  5
12f
100
AcDbEntity
  8
Layer_1
 62
6
100
AcDbSpline
 70
8
 71
3
 72
8
 73
4
 74
0
 40
0
 40
0
 40
0
 40
0
 40
1
 40
1
 40
1
 40
1
 10
290.918300
 20
290.756900
 30
0.0
 10
291.551283
 20
290.756900
 30
0.0
 10
292.121939
 20
290.375600
 30
0.0
 10
292.364172
 20
289.790800
 30
0.0
  0
SPLINE
  5
130
100
AcDbEntity
  8
Layer_1
 62
6
100
AcDbSpline
 70
8
 71
3
 72
8
 73
4
 74
0
 40
0
 40
0
 40
0
 40
0
 40
1
 40
1
 40
1
 40
1
 10
292.364172
 20
289.790800
 30
0.0
 10
292.606404
 20
289.205999
 30
0.0
 10
292.472509
 20
288.532865
 30
0.0
 10
292.024922
 20
288.085278
 30
0.0
  0
SPLINE
  5
131
100
AcDbEntity
  8
Layer_1
 62
6
100
AcDbSpline
 70
8
 71
3
 72
8
 73
4
 74
0
 40
0
 40
0
 40
0
 40
0
 40
1
 40
1
 40
1
 40
1
 10
292.024922
 20
288.085278
 30
0.0
 10
291.577335
 20
287.637691
 30
0.0
 10
290.904201
 20
287.503796
 30
0.0
 10
290.319400
 20
287.746028
 30
0.0
  0
SPLINE
  5
132
100
AcDbEntity
  8
Layer_1
 62
6
100
AcDbSpline
 70
8
 71
3
 72
8
 73
4
 74
0
 40
0
 40
0
 40
0
 40
0
 40
1
 40
1
 40
1
 40
1
 10
290.319400
 20
287.746028
 30
0.0
 10
289.734600
 20
287.988261
 30
0.0
 10
289.353300
 20
288.558917
 30
0.0
 10
289.353300
 20
289.191900
 30
0.0
  0
SPLINE
  5
133
100
AcDbEntity
  8
Layer_1
 62
6
100
AcDbSpline
 70
8
 71
3
 72
8
 73
4
 74
0
 40
0
 40
0
 40
0
 40
0
 40
1
 40
1
 40
1
 40
1
 10
289.353300
 20
289.191900
 30
0.0
 10
289.353300
 20
289.606964
 30
0.0
 10
289.518183
 20
290.005028
 30
0.0
 10
289.811678
 20
290.298522
 30
0.0
  0
SPLINE
  5
134
100
AcDbEntity
  8
Layer_1
 62
6
100
AcDbSpline
 70
8
 71
3
 72
8
 73
4
 74
0
 40
0
 40
0
 40
0
 40
0
 40
1
 40
1
 40
1
 40
1
 10
289.811678
 20
290.298522
 30
0.0
 10
290.105172
 20
290.592017
 30
0.0
 10
290.503236
 20
290.756900
 30
0.0
 10
290.918300
 20
290.756900
 30
0.0
  0
LINE
  5
135
100
AcDbEntity
  8
Layer_1
 62
6
100
AcDbLine
 10
290.918300
 20
290.756900
 30
0.0
 11
290.918300
 21
290.756900
 31
0.0
  0
SPLINE
  5
136
100
AcDbEntity
  8
Layer_1
 62
6
100
AcDbSpline
 70
8
 71
3
 72
8
 73
4
 74
0
 40
0
 40
0
 40
0
 40
0
 40
1
 40
1
 40
1
 40
1
 10
205.625170
 20
290.756900
 30
0.0
 10
206.258153
 20
290.756900
 30
0.0
 10
206.828809
 20
290.375600
 30
0.0
 10
207.071042
 20
289.790800
 30
0.0
  0
SPLINE
  5
137
100
AcDbEntity
  8
Layer_1
 62
6
100
AcDbSpline
 70
8
 71
3
 72
8
 73
4
 74
0
 40
0
 40
0
 40
0
 40
0
 40
1
 40
1
 40
1
 40
1
 10
207.071042
 20
289.790800
 30
0.0
 10
207.313274
 20
289.205999
 30
0.0
 10
207.179379
 20
288.532865
 30
0.0
 10
206.731792
 20
288.085278
 30
0.0
  0
SPLINE
  5
138
100
AcDbEntity
  8
Layer_1
 62
6
100
AcDbSpline
 70
8
 71
3
 72
8
 73
4
 74
0
 40
0
 40
0
 40
0
 40
0
 40
1
 40
1
 40
1
 40
1
 10
206.731792
 20
288.085278
 30
0.0
 10
206.284205
 20
287.637691
 30
0.0
 10
205.611071
 20
287.503796
 30
0.0
 10
205.026270
 20
287.746028
 30
0.0
  0
SPLINE
  5
139
100
AcDbEntity
  8
Layer_1
 62
6
100
AcDbSpline
 70
8
 71
3
 72
8
 73
4
 74
0
 40
0
 40
0
 40
0
 40
0
 40
1
 40
1
 40
1
 40
1
 10
205.026270
 20
287.746028
 30
0.0
 10
204.441470
 20
287.988261
 30
0.0
 10
204.060170
 20
288.558917
 30
0.0
 10
204.060170
 20
289.191900
 30
0.0
  0
SPLINE
  5
13a
100
AcDbEntity
  8
Layer_1
 62
6
100
AcDbSpline
 70
8
 71
3
 72
8
 73
4
 74
0
 40
0
 40
0
 40
0
 40
0
 40
1
 40
1
 40
1
 40
1
 10
204.060170
 20
289.191900
 30
0.0
 10
204.060170
 20
289.606964
 30
0.0
 10
204.225053
 20
290.005028
 30
0.0
 10
204.518548
 20
290.298522
 30
0.0
  0
SPLINE
  5
13b
100
AcDbEntity
  8
Layer_1
 62
6
100
AcDbSpline
 70
8
 71
3
 72
8
 73
4
 74
0
 40
0
 40
0
 40
0
 40
0
 40
1
 40
1
 40
1
 40
1
 10
204.518548
 20
290.298522
 30
0.0
 10
204.812042
 20
290.592017
 30
0.0
 10
205.210106
 20
290.756900
 30
0.0
 10
205.625170
 20
290.756900
 30
0.0
  0
LINE
  5
13c
100
AcDbEntity
  8
Layer_1
 62
6
100
AcDbLine
 10
205.625170
 20
290.756900
 30
0.0
 11
205.625170
 21
290.756900
 31
0.0
  0
SPLINE
  5
13d
100
AcDbEntity
  8
Layer_1
 62
6
100
AcDbSpline
 70
8
 71
3
 72
8
 73
4
 74
0
 40
0
 40
0
 40
0
 40
0
 40
1
 40
1
 40
1
 40
1
 10
6.227710
 20
201.769700
 30
0.0
 10
6.611949
 20
201.769700
 30
0.0
 10
6.958354
 20
201.538240
 30
0.0
 10
7.105396
 20
201.183249
 30
0.0
  0
SPLINE
  5
13e
100
AcDbEntity
  8
Layer_1
 62
6
100
AcDbSpline
 70
8
 71
3
 72
8
 73
4
 74
0
 40
0
 40
0
 40
0
 40
0
 40
1
 40
1
 40
1
 40
1
 10
7.105396
 20
201.183249
 30
0.0
 10
7.252437
 20
200.828259
 30
0.0
 10
7.171160
 20
200.419647
 30
0.0
 10
6.899461
 20
200.147949
 30
0.0
  0
SPLINE
  5
13f
100
AcDbEntity
  8
Layer_1
 62
6
100
AcDbSpline
 70
8
 71
3
 72
8
 73
4
 74
0
 40
0
 40
0
 40
0
 40
0
 40
1
 40
1
 40
1
 40
1
 10
6.899461
 20
200.147949
 30
0.0
 10
6.627763
 20
199.876250
 30
0.0
 10
6.219151
 20
199.794973
 30
0.0
 10
5.864161
 20
199.942014
 30
0.0
  0
SPLINE
  5
140
100
AcDbEntity
  8
Layer_1
 62
6
100
AcDbSpline
 70
8
 71
3
 72
8
 73
4
 74
0
 40
0
 40
0
 40
0
 40
0
 40
1
 40
1
 40
1
 40
1
 10
5.864161
 20
199.942014
 30
0.0
 10
5.509170
 20
200.089056
 30
0.0
 10
5.277710
 20
200.435461
 30
0.0
 10
5.277710
 20
200.819700
 30
0.0
  0
SPLINE
  5
141
100
AcDbEntity
  8
Layer_1
 62
6
100
AcDbSpline
 70
8
 71
3
 72
8
 73
4
 74
0
 40
0
 40
0
 40
0
 40
0
 40
1
 40
1
 40
1
 40
1
 10
5.277710
 20
200.819700
 30
0.0
 10
5.277710
 20
201.344371
 30
0.0
 10
5.703039
 20
201.769700
 30
0.0
 10
6.227710
 20
201.769700
 30
0.0
  0
LINE
  5
142
100
AcDbEntity
  8
Layer_1
 62
6
100
AcDbLine
 10
6.227710
 20
201.769700
 30
0.0
 11
6.227710
 21
201.769700
 31
0.0
  0
SPLINE
  5
143
100
AcDbEntity
  8
Layer_1
 62
6
100
AcDbSpline
 70
8
 71
3
 72
8
 73
4
 74
0
 40
0
 40
0
 40
0
 40
0
 40
1
 40
1
 40
1
 40
1
 10
6.227710
 20
290.756900
 30
0.0
 10
6.860693
 20
290.756900
 30
0.0
 10
7.431349
 20
290.375600
 30
0.0
 10
7.673582
 20
289.790800
 30
0.0
  0
SPLINE
  5
144
100
AcDbEntity
  8
Layer_1
 62
6
100
AcDbSpline
 70
8
 71
3
 72
8
 73
4
 74
0
 40
0
 40
0
 40
0
 40
0
 40
1
 40
1
 40
1
 40
1
 10
7.673582
 20
289.790800
 30
0.0
 10
7.915814
 20
289.205999
 30
0.0
 10
7.781919
 20
288.532865
 30
0.0
 10
7.334332
 20
288.085278
 30
0.0
  0
SPLINE
  5
145
100
AcDbEntity
  8
Layer_1
 62
6
100
AcDbSpline
 70
8
 71
3
 72
8
 73
4
 74
0
 40
0
 40
0
 40
0
 40
0
 40
1
 40
1
 40
1
 40
1
 10
7.334332
 20
288.085278
 30
0.0
 10
6.886745
 20
287.637691
 30
0.0
 10
6.213611
 20
287.503796
 30
0.0
 10
5.628810
 20
287.746028
 30
0.0
  0
SPLINE
  5
146
100
AcDbEntity
  8
Layer_1
 62
6
100
AcDbSpline
 70
8
 71
3
 72
8
 73
4
 74
0
 40
0
 40
0
 40
0
 40
0
 40
1
 40
1
 40
1
 40
1
 10
5.628810
 20
287.746028
 30
0.0
 10
5.044010
 20
287.988261
 30
0.0
 10
4.662710
 20
288.558917
 30
0.0
 10
4.662710
 20
289.191900
 30
0.0
  0
SPLINE
  5
147
100
AcDbEntity
  8
Layer_1
 62
6
100
AcDbSpline
 70
8
 71
3
 72
8
 73
4
 74
0
 40
0
 40
0
 40
0
 40
0
 40
1
 40
1
 40
1
 40
1
 10
4.662710
 20
289.191900
 30
0.0
 10
4.662710
 20
289.606964
 30
0.0
 10
4.827593
 20
290.005028
 30
0.0
 10
5.121088
 20
290.298522
 30
0.0
  0
SPLINE
  5
148
100
AcDbEntity
  8
Layer_1
 62
6
100
AcDbSpline
 70
8
 71
3
 72
8
 73
4
 74
0
 40
0
 40
0
 40
0
 40
0
 40
1
 40
1
 40
1
 40
1
 10
5.121088
 20
290.298522
 30
0.0
 10
5.414582
 20
290.592017
 30
0.0
 10
5.812646
 20
290.756900
 30
0.0
 10
6.227710
 20
290.756900
 30
0.0
  0
LINE
  5
149
100
AcDbEntity
  8
Layer_1
 62
6
100
AcDbLine
 10
6.227710
 20
290.756900
 30
0.0
 11
6.227710
 21
290.756900
 31
0.0
  0
SPLINE
  5
14a
100
AcDbEntity
  8
Layer_1
 62
6
100
AcDbSpline
 70
8
 71
3
 72
8
 73
4
 74
0
 40
0
 40
0
 40
0
 40
0
 40
1
 40
1
 40
1
 40
1
 10
124.320910
 20
201.769700
 30
0.0
 10
124.705149
 20
201.769700
 30
0.0
 10
125.051554
 20
201.538240
 30
0.0
 10
125.198596
 20
201.183249
 30
0.0
  0
SPLINE
  5
14b
100
AcDbEntity
  8
Layer_1
 62
6
100
AcDbSpline
 70
8
 71
3
 72
8
 73
4
 74
0
 40
0
 40
0
 40
0
 40
0
 40
1
 40
1
 40
1
 40
1
 10
125.198596
 20
201.183249
 30
0.0
 10
125.345637
 20
200.828259
 30
0.0
 10
125.264360
 20
200.419647
 30
0.0
 10
124.992661
 20
200.147949
 30
0.0
  0
SPLINE
  5
14c
100
AcDbEntity
  8
Layer_1
 62
6
100
AcDbSpline
 70
8
 71
3
 72
8
 73
4
 74
0
 40
0
 40
0
 40
0
 40
0
 40
1
 40
1
 40
1
 40
1
 10
124.992661
 20
200.147949
 30
0.0
 10
124.720963
 20
199.876250
 30
0.0
 10
124.312351
 20
199.794973
 30
0.0
 10
123.957361
 20
199.942014
 30
0.0
  0
SPLINE
  5
14d
100
AcDbEntity
  8
Layer_1
 62
6
100
AcDbSpline
 70
8
 71
3
 72
8
 73
4
 74
0
 40
0
 40
0
 40
0
 40
0
 40
1
 40
1
 40
1
 40
1
 10
123.957361
 20
199.942014
 30
0.0
 10
123.602370
 20
200.089056
 30
0.0
 10
123.370910
 20
200.435461
 30
0.0
 10
123.370910
 20
200.819700
 30
0.0
  0
SPLINE
  5
14e
100
AcDbEntity
  8
Layer_1
 62
6
100
AcDbSpline
 70
8
 71
3
 72
8
 73
4
 74
0
 40
0
 40
0
 40
0
 40
0
 40
1
 40
1
 40
1
 40
1
 10
123.370910
 20
200.819700
 30
0.0
 10
123.370910
 20
201.071656
 30
0.0
 10
123.470999
 20
201.313292
 30
0.0
 10
123.649159
 20
201.491451
 30
0.0
  0
SPLINE
  5
14f
100
AcDbEntity
  8
Layer_1
 62
6
100
AcDbSpline
 70
8
 71
3
 72
8
 73
4
 74
0
 40
0
 40
0
 40
0
 40
0
 40
1
 40
1
 40
1
 40
1
 10
123.649159
 20
201.491451
 30
0.0
 10
123.827318
 20
201.669611
 30
0.0
 10
124.068954
 20
201.769700
 30
0.0
 10
124.320910
 20
201.769700
 30
0.0
  0
LINE
  5
150
100
AcDbEntity
  8
Layer_1
 62
6
100
AcDbLine
 10
124.320910
 20
201.769700
 30
0.0
 11
124.320910
 21
201.769700
 31
0.0
  0
SPLINE
  5
151
100
AcDbEntity
  8
Layer_1
 62
6
100
AcDbSpline
 70
8
 71
3
 72
8
 73
4
 74
0
 40
0
 40
0
 40
0
 40
0
 40
1
 40
1
 40
1
 40
1
 10
124.320300
 20
290.756900
 30
0.0
 10
124.953283
 20
290.756900
 30
0.0
 10
125.523939
 20
290.375600
 30
0.0
 10
125.766172
 20
289.790800
 30
0.0
  0
SPLINE
  5
152
100
AcDbEntity
  8
Layer_1
 62
6
100
AcDbSpline
 70
8
 71
3
 72
8
 73
4
 74
0
 40
0
 40
0
 40
0
 40
0
 40
1
 40
1
 40
1
 40
1
 10
125.766172
 20
289.790800
 30
0.0
 10
126.008404
 20
289.205999
 30
0.0
 10
125.874509
 20
288.532865
 30
0.0
 10
125.426922
 20
288.085278
 30
0.0
  0
SPLINE
  5
153
100
AcDbEntity
  8
Layer_1
 62
6
100
AcDbSpline
 70
8
 71
3
 72
8
 73
4
 74
0
 40
0
 40
0
 40
0
 40
0
 40
1
 40
1
 40
1
 40
1
 10
125.426922
 20
288.085278
 30
0.0
 10
124.979335
 20
287.637691
 30
0.0
 10
124.306201
 20
287.503796
 30
0.0
 10
123.721400
 20
287.746028
 30
0.0
  0
SPLINE
  5
154
100
AcDbEntity
  8
Layer_1
 62
6
100
AcDbSpline
 70
8
 71
3
 72
8
 73
4
 74
0
 40
0
 40
0
 40
0
 40
0
 40
1
 40
1
 40
1
 40
1
 10
123.721400
 20
287.746028
 30
0.0
 10
123.136600
 20
287.988261
 30
0.0
 10
122.755300
 20
288.558917
 30
0.0
 10
122.755300
 20
289.191900
 30
0.0
  0
SPLINE
  5
155
100
AcDbEntity
  8
Layer_1
 62
6
100
AcDbSpline
 70
8
 71
3
 72
8
 73
4
 74
0
 40
0
 40
0
 40
0
 40
0
 40
1
 40
1
 40
1
 40
1
 10
122.755300
 20
289.191900
 30
0.0
 10
122.755300
 20
289.606964
 30
0.0
 10
122.920183
 20
290.005028
 30
0.0
 10
123.213678
 20
290.298522
 30
0.0
  0
SPLINE
  5
156
100
AcDbEntity
  8
Layer_1
 62
6
100
AcDbSpline
 70
8
 71
3
 72
8
 73
4
 74
0
 40
0
 40
0
 40
0
 40
0
 40
1
 40
1
 40
1
 40
1
 10
123.213678
 20
290.298522
 30
0.0
 10
123.507172
 20
290.592017
 30
0.0
 10
123.905236
 20
290.756900
 30
0.0
 10
124.320300
 20
290.756900
 30
0.0
  0
LINE
  5
157
100
AcDbEntity
  8
Layer_1
 62
6
100
AcDbLine
 10
124.320300
 20
290.756900
 30
0.0
 11
124.320300
 21
290.756900
 31
0.0
  0
SPLINE
  5
158
100
AcDbEntity
  8
Layer_1
 62
6
100
AcDbSpline
 70
8
 71
3
 72
8
 73
4
 74
0
 40
0
 40
0
 40
0
 40
0
 40
1
 40
1
 40
1
 40
1
 10
39.084827
 20
290.757364
 30
0.0
 10
39.717810
 20
290.757364
 30
0.0
 10
40.288466
 20
290.376064
 30
0.0
 10
40.530699
 20
289.791263
 30
0.0
  0
SPLINE
  5
159
100
AcDbEntity
  8
Layer_1
 62
6
100
AcDbSpline
 70
8
 71
3
 72
8
 73
4
 74
0
 40
0
 40
0
 40
0
 40
0
 40
1
 40
1
 40
1
 40
1
 10
40.530699
 20
289.791263
 30
0.0
 10
40.772931
 20
289.206463
 30
0.0
 10
40.639036
 20
288.533328
 30
0.0
 10
40.191449
 20
288.085742
 30
0.0
  0
SPLINE
  5
15a
100
AcDbEntity
  8
Layer_1
 62
6
100
AcDbSpline
 70
8
 71
3
 72
8
 73
4
 74
0
 40
0
 40
0
 40
0
 40
0
 40
1
 40
1
 40
1
 40
1
 10
40.191449
 20
288.085742
 30
0.0
 10
39.743862
 20
287.638155
 30
0.0
 10
39.070728
 20
287.504260
 30
0.0
 10
38.485927
 20
287.746492
 30
0.0
  0
SPLINE
  5
15b
100
AcDbEntity
  8
Layer_1
 62
6
100
AcDbSpline
 70
8
 71
3
 72
8
 73
4
 74
0
 40
0
 40
0
 40
0
 40
0
 40
1
 40
1
 40
1
 40
1
 10
38.485927
 20
287.746492
 30
0.0
 10
37.901127
 20
287.988724
 30
0.0
 10
37.519827
 20
288.559380
 30
0.0
 10
37.519827
 20
289.192364
 30
0.0
  0
SPLINE
  5
15c
100
AcDbEntity
  8
Layer_1
 62
6
100
AcDbSpline
 70
8
 71
3
 72
8
 73
4
 74
0
 40
0
 40
0
 40
0
 40
0
 40
1
 40
1
 40
1
 40
1
 10
37.519827
 20
289.192364
 30
0.0
 10
37.519827
 20
289.607428
 30
0.0
 10
37.684710
 20
290.005491
 30
0.0
 10
37.978205
 20
290.298986
 30
0.0
  0
SPLINE
  5
15d
100
AcDbEntity
  8
Layer_1
 62
6
100
AcDbSpline
 70
8
 71
3
 72
8
 73
4
 74
0
 40
0
 40
0
 40
0
 40
0
 40
1
 40
1
 40
1
 40
1
 10
37.978205
 20
290.298986
 30
0.0
 10
38.271699
 20
290.592480
 30
0.0
 10
38.669763
 20
290.757364
 30
0.0
 10
39.084827
 20
290.757364
 30
0.0
  0
LINE
  5
15e
100
AcDbEntity
  8
Layer_1
 62
6
100
AcDbLine
 10
39.084827
 20
290.757364
 30
0.0
 11
39.084827
 21
290.757364
 31
0.0
  0
SPLINE
  5
15f
100
AcDbEntity
  8
Layer_1
 62
6
100
AcDbSpline
 70
8
 71
3
 72
8
 73
4
 74
0
 40
0
 40
0
 40
0
 40
0
 40
1
 40
1
 40
1
 40
1
 10
39.084827
 20
201.770175
 30
0.0
 10
39.469066
 20
201.770175
 30
0.0
 10
39.815471
 20
201.538715
 30
0.0
 10
39.962513
 20
201.183724
 30
0.0
  0
SPLINE
  5
160
100
AcDbEntity
  8
Layer_1
 62
6
100
AcDbSpline
 70
8
 71
3
 72
8
 73
4
 74
0
 40
0
 40
0
 40
0
 40
0
 40
1
 40
1
 40
1
 40
1
 10
39.962513
 20
201.183724
 30
0.0
 10
40.109554
 20
200.828734
 30
0.0
 10
40.028277
 20
200.420122
 30
0.0
 10
39.756578
 20
200.148424
 30
0.0
  0
SPLINE
  5
161
100
AcDbEntity
  8
Layer_1
 62
6
100
AcDbSpline
 70
8
 71
3
 72
8
 73
4
 74
0
 40
0
 40
0
 40
0
 40
0
 40
1
 40
1
 40
1
 40
1
 10
39.756578
 20
200.148424
 30
0.0
 10
39.484880
 20
199.876725
 30
0.0
 10
39.076268
 20
199.795448
 30
0.0
 10
38.721278
 20
199.942489
 30
0.0
  0
SPLINE
  5
162
100
AcDbEntity
  8
Layer_1
 62
6
100
AcDbSpline
 70
8
 71
3
 72
8
 73
4
 74
0
 40
0
 40
0
 40
0
 40
0
 40
1
 40
1
 40
1
 40
1
 10
38.721278
 20
199.942489
 30
0.0
 10
38.366287
 20
200.089531
 30
0.0
 10
38.134827
 20
200.435936
 30
0.0
 10
38.134827
 20
200.820175
 30
0.0
  0
SPLINE
  5
163
100
AcDbEntity
  8
Layer_1
 62
6
100
AcDbSpline
 70
8
 71
3
 72
8
 73
4
 74
0
 40
0
 40
0
 40
0
 40
0
 40
1
 40
1
 40
1
 40
1
 10
38.134827
 20
200.820175
 30
0.0
 10
38.134827
 20
201.344846
 30
0.0
 10
38.560156
 20
201.770175
 30
0.0
 10
39.084827
 20
201.770175
 30
0.0
  0
LINE
  5
164
100
AcDbEntity
  8
Layer_1
 62
6
100
AcDbLine
 10
39.084827
 20
201.770175
 30
0.0
 11
39.084827
 21
201.770175
 31
0.0
  0
SPLINE
  5
165
100
AcDbEntity
  8
Layer_1
 62
6
100
AcDbSpline
 70
8
 71
3
 72
8
 73
4
 74
0
 40
0
 40
0
 40
0
 40
0
 40
1
 40
1
 40
1
 40
1
 10
13.771596
 20
281.039336
 30
0.0
 10
13.387357
 20
281.039336
 30
0.0
 10
13.040952
 20
280.807876
 30
0.0
 10
12.893910
 20
280.452885
 30
0.0
  0
SPLINE
  5
166
100
AcDbEntity
  8
Layer_1
 62
6
100
AcDbSpline
 70
8
 71
3
 72
8
 73
4
 74
0
 40
0
 40
0
 40
0
 40
0
 40
1
 40
1
 40
1
 40
1
 10
12.893910
 20
280.452885
 30
0.0
 10
12.746869
 20
280.097895
 30
0.0
 10
12.828146
 20
279.689283
 30
0.0
 10
13.099845
 20
279.417585
 30
0.0
  0
SPLINE
  5
167
100
AcDbEntity
  8
Layer_1
 62
6
100
AcDbSpline
 70
8
 71
3
 72
8
 73
4
 74
0
 40
0
 40
0
 40
0
 40
0
 40
1
 40
1
 40
1
 40
1
 10
13.099845
 20
279.417585
 30
0.0
 10
13.371543
 20
279.145886
 30
0.0
 10
13.780155
 20
279.064609
 30
0.0
 10
14.135145
 20
279.211650
 30
0.0
  0
SPLINE
  5
168
100
AcDbEntity
  8
Layer_1
 62
6
100
AcDbSpline
 70
8
 71
3
 72
8
 73
4
 74
0
 40
0
 40
0
 40
0
 40
0
 40
1
 40
1
 40
1
 40
1
 10
14.135145
 20
279.211650
 30
0.0
 10
14.490136
 20
279.358692
 30
0.0
 10
14.721596
 20
279.705097
 30
0.0
 10
14.721596
 20
280.089336
 30
0.0
  0
SPLINE
  5
169
100
AcDbEntity
  8
Layer_1
 62
6
100
AcDbSpline
 70
8
 71
3
 72
8
 73
4
 74
0
 40
0
 40
0
 40
0
 40
0
 40
1
 40
1
 40
1
 40
1
 10
14.721596
 20
280.089336
 30
0.0
 10
14.721596
 20
280.341292
 30
0.0
 10
14.621507
 20
280.582928
 30
0.0
 10
14.443347
 20
280.761087
 30
0.0
  0
SPLINE
  5
16a
100
AcDbEntity
  8
Layer_1
 62
6
100
AcDbSpline
 70
8
 71
3
 72
8
 73
4
 74
0
 40
0
 40
0
 40
0
 40
0
 40
1
 40
1
 40
1
 40
1
 10
14.443347
 20
280.761087
 30
0.0
 10
14.265188
 20
280.939247
 30
0.0
 10
14.023552
 20
281.039336
 30
0.0
 10
13.771596
 20
281.039336
 30
0.0
  0
LINE
  5
16b
100
AcDbEntity
  8
Layer_1
 62
6
100
AcDbLine
 10
13.771596
 20
281.039336
 30
0.0
 11
13.771596
 21
281.039336
 31
0.0
  0
SPLINE
  5
16c
100
AcDbEntity
  8
Layer_1
 62
6
100
AcDbSpline
 70
8
 71
3
 72
8
 73
4
 74
0
 40
0
 40
0
 40
0
 40
0
 40
1
 40
1
 40
1
 40
1
 10
31.549000
 20
281.039336
 30
0.0
 10
31.164761
 20
281.039336
 30
0.0
 10
30.818356
 20
280.807876
 30
0.0
 10
30.671314
 20
280.452885
 30
0.0
  0
SPLINE
  5
16d
100
AcDbEntity
  8
Layer_1
 62
6
100
AcDbSpline
 70
8
 71
3
 72
8
 73
4
 74
0
 40
0
 40
0
 40
0
 40
0
 40
1
 40
1
 40
1
 40
1
 10
30.671314
 20
280.452885
 30
0.0
 10
30.524273
 20
280.097895
 30
0.0
 10
30.605550
 20
279.689283
 30
0.0
 10
30.877249
 20
279.417585
 30
0.0
  0
SPLINE
  5
16e
100
AcDbEntity
  8
Layer_1
 62
6
100
AcDbSpline
 70
8
 71
3
 72
8
 73
4
 74
0
 40
0
 40
0
 40
0
 40
0
 40
1
 40
1
 40
1
 40
1
 10
30.877249
 20
279.417585
 30
0.0
 10
31.148947
 20
279.145886
 30
0.0
 10
31.557559
 20
279.064609
 30
0.0
 10
31.912549
 20
279.211650
 30
0.0
  0
SPLINE
  5
16f
100
AcDbEntity
  8
Layer_1
 62
6
100
AcDbSpline
 70
8
 71
3
 72
8
 73
4
 74
0
 40
0
 40
0
 40
0
 40
0
 40
1
 40
1
 40
1
 40
1
 10
31.912549
 20
279.211650
 30
0.0
 10
32.267540
 20
279.358692
 30
0.0
 10
32.499000
 20
279.705097
 30
0.0
 10
32.499000
 20
280.089336
 30
0.0
  0
SPLINE
  5
170
100
AcDbEntity
  8
Layer_1
 62
6
100
AcDbSpline
 70
8
 71
3
 72
8
 73
4
 74
0
 40
0
 40
0
 40
0
 40
0
 40
1
 40
1
 40
1
 40
1
 10
32.499000
 20
280.089336
 30
0.0
 10
32.499000
 20
280.341292
 30
0.0
 10
32.398911
 20
280.582928
 30
0.0
 10
32.220751
 20
280.761087
 30
0.0
  0
SPLINE
  5
171
100
AcDbEntity
  8
Layer_1
 62
6
100
AcDbSpline
 70
8
 71
3
 72
8
 73
4
 74
0
 40
0
 40
0
 40
0
 40
0
 40
1
 40
1
 40
1
 40
1
 10
32.220751
 20
280.761087
 30
0.0
 10
32.042592
 20
280.939247
 30
0.0
 10
31.800956
 20
281.039336
 30
0.0
 10
31.549000
 20
281.039336
 30
0.0
  0
LINE
  5
172
100
AcDbEntity
  8
Layer_1
 62
6
100
AcDbLine
 10
31.549000
 20
281.039336
 30
0.0
 11
31.549000
 21
281.039336
 31
0.0
  0
SPLINE
  5
173
100
AcDbEntity
  8
Layer_1
 62
6
100
AcDbSpline
 70
8
 71
3
 72
8
 73
4
 74
0
 40
0
 40
0
 40
0
 40
0
 40
1
 40
1
 40
1
 40
1
 10
13.771596
 20
235.324249
 30
0.0
 10
13.387357
 20
235.324249
 30
0.0
 10
13.040952
 20
235.092789
 30
0.0
 10
12.893910
 20
234.737798
 30
0.0
  0
SPLINE
  5
174
100
AcDbEntity
  8
Layer_1
 62
6
100
AcDbSpline
 70
8
 71
3
 72
8
 73
4
 74
0
 40
0
 40
0
 40
0
 40
0
 40
1
 40
1
 40
1
 40
1
 10
12.893910
 20
234.737798
 30
0.0
 10
12.746869
 20
234.382808
 30
0.0
 10
12.828146
 20
233.974196
 30
0.0
 10
13.099845
 20
233.702498
 30
0.0
  0
SPLINE
  5
175
100
AcDbEntity
  8
Layer_1
 62
6
100
AcDbSpline
 70
8
 71
3
 72
8
 73
4
 74
0
 40
0
 40
0
 40
0
 40
0
 40
1
 40
1
 40
1
 40
1
 10
13.099845
 20
233.702498
 30
0.0
 10
13.371543
 20
233.430799
 30
0.0
 10
13.780155
 20
233.349522
 30
0.0
 10
14.135145
 20
233.496563
 30
0.0
  0
SPLINE
  5
176
100
AcDbEntity
  8
Layer_1
 62
6
100
AcDbSpline
 70
8
 71
3
 72
8
 73
4
 74
0
 40
0
 40
0
 40
0
 40
0
 40
1
 40
1
 40
1
 40
1
 10
14.135145
 20
233.496563
 30
0.0
 10
14.490136
 20
233.643605
 30
0.0
 10
14.721596
 20
233.990010
 30
0.0
 10
14.721596
 20
234.374249
 30
0.0
  0
SPLINE
  5
177
100
AcDbEntity
  8
Layer_1
 62
6
100
AcDbSpline
 70
8
 71
3
 72
8
 73
4
 74
0
 40
0
 40
0
 40
0
 40
0
 40
1
 40
1
 40
1
 40
1
 10
14.721596
 20
234.374249
 30
0.0
 10
14.721596
 20
234.626205
 30
0.0
 10
14.621507
 20
234.867841
 30
0.0
 10
14.443347
 20
235.046000
 30
0.0
  0
SPLINE
  5
178
100
AcDbEntity
  8
Layer_1
 62
6
100
AcDbSpline
 70
8
 71
3
 72
8
 73
4
 74
0
 40
0
 40
0
 40
0
 40
0
 40
1
 40
1
 40
1
 40
1
 10
14.443347
 20
235.046000
 30
0.0
 10
14.265188
 20
235.224160
 30
0.0
 10
14.023552
 20
235.324249
 30
0.0
 10
13.771596
 20
235.324249
 30
0.0
  0
LINE
  5
179
100
AcDbEntity
  8
Layer_1
 62
6
100
AcDbLine
 10
13.771596
 20
235.324249
 30
0.0
 11
13.771596
 21
235.324249
 31
0.0
  0
SPLINE
  5
17a
100
AcDbEntity
  8
Layer_1
 62
6
100
AcDbSpline
 70
8
 71
3
 72
8
 73
4
 74
0
 40
0
 40
0
 40
0
 40
0
 40
1
 40
1
 40
1
 40
1
 10
31.549000
 20
235.324249
 30
0.0
 10
31.164761
 20
235.324249
 30
0.0
 10
30.818356
 20
235.092789
 30
0.0
 10
30.671314
 20
234.737798
 30
0.0
  0
SPLINE
  5
17b
100
AcDbEntity
  8
Layer_1
 62
6
100
AcDbSpline
 70
8
 71
3
 72
8
 73
4
 74
0
 40
0
 40
0
 40
0
 40
0
 40
1
 40
1
 40
1
 40
1
 10
30.671314
 20
234.737798
 30
0.0
 10
30.524273
 20
234.382808
 30
0.0
 10
30.605550
 20
233.974196
 30
0.0
 10
30.877249
 20
233.702498
 30
0.0
  0
SPLINE
  5
17c
100
AcDbEntity
  8
Layer_1
 62
6
100
AcDbSpline
 70
8
 71
3
 72
8
 73
4
 74
0
 40
0
 40
0
 40
0
 40
0
 40
1
 40
1
 40
1
 40
1
 10
30.877249
 20
233.702498
 30
0.0
 10
31.148947
 20
233.430799
 30
0.0
 10
31.557559
 20
233.349522
 30
0.0
 10
31.912549
 20
233.496563
 30
0.0
  0
SPLINE
  5
17d
100
AcDbEntity
  8
Layer_1
 62
6
100
AcDbSpline
 70
8
 71
3
 72
8
 73
4
 74
0
 40
0
 40
0
 40
0
 40
0
 40
1
 40
1
 40
1
 40
1
 10
31.912549
 20
233.496563
 30
0.0
 10
32.267540
 20
233.643605
 30
0.0
 10
32.499000
 20
233.990010
 30
0.0
 10
32.499000
 20
234.374249
 30
0.0
  0
SPLINE
  5
17e
100
AcDbEntity
  8
Layer_1
 62
6
100
AcDbSpline
 70
8
 71
3
 72
8
 73
4
 74
0
 40
0
 40
0
 40
0
 40
0
 40
1
 40
1
 40
1
 40
1
 10
32.499000
 20
234.374249
 30
0.0
 10
32.499000
 20
234.626205
 30
0.0
 10
32.398911
 20
234.867841
 30
0.0
 10
32.220751
 20
235.046000
 30
0.0
  0
SPLINE
  5
17f
100
AcDbEntity
  8
Layer_1
 62
6
100
AcDbSpline
 70
8
 71
3
 72
8
 73
4
 74
0
 40
0
 40
0
 40
0
 40
0
 40
1
 40
1
 40
1
 40
1
 10
32.220751
 20
235.046000
 30
0.0
 10
32.042592
 20
235.224160
 30
0.0
 10
31.800956
 20
235.324249
 30
0.0
 10
31.549000
 20
235.324249
 30
0.0
  0
LINE
  5
180
100
AcDbEntity
  8
Layer_1
 62
6
100
AcDbLine
 10
31.549000
 20
235.324249
 30
0.0
 11
31.549000
 21
235.324249
 31
0.0
  0
ENDSEC
  0
SECTION
  2
OBJECTS
  0
DICTIONARY
  5
C
330
0
100
AcDbDictionary
  3
ACAD_GROUP
350
D
  3
ACAD_MLINESTYLE
350
17
  0
DICTIONARY
  5
D
330
C
100
AcDbDictionary
  0
DICTIONARY
  5
1A
330
C
100
AcDbDictionary
  0
DICTIONARY
  5
17
330
C
100
AcDbDictionary
  3
STANDARD
350
18
  0
DICTIONARY
  5
19
330
C
100
AcDbDictionary
  0
ENDSEC
  0
EOF
