  0
SECTION
  2
HEADER
  9
$ACADVER
  1
AC1014
  9
$HANDSEED
  5
FFFF
  9
$INSUNITS
 70
     0
  9
$MEASUREMENT
 70
     1
  0
ENDSEC
  0
SECTION
  2
TABLES
  0
TABLE
  2
VPORT
  5
8
330
0
100
AcDbSymbolTable
 70
     4
  0
VPORT
  5
2E
330
8
100
AcDbSymbolTableRecord
100
AcDbViewportTableRecord
  2
*ACTIVE
 70
     0
 10
0.0
 20
0.0
 11
1.0
 21
1.0
 12
210.0
 22
148.5
 13
0.0
 23
0.0
 14
10.0
 24
10.0
 15
10.0
 25
10.0
 16
0.0
 26
0.0
 36
1.0
 17
0.0
 27
0.0
 37
0.0
 40
341.0
 41
1.24
 42
50.0
 43
0.0
 44
0.0
 50
0.0
 51
0.0
 71
     0
 72
   100
 73
     1
 74
     3
 75
     0
 76
     0
 77
     0
 78
     0
  0
ENDTAB
  0
TABLE
  2
LTYPE
  5
5
330
0
100
AcDbSymbolTable
 70
     1
  0
LTYPE
  5
14
330
5
100
AcDbSymbolTableRecord
100
AcDbLinetypeTableRecord
  2
BYBLOCK
 70
     0
  3

 72
    65
 73
     0
 40
0.0
  0
LTYPE
  5
15
330
5
100
AcDbSymbolTableRecord
100
AcDbLinetypeTableRecord
  2
BYLAYER
 70
     0
  3

 72
    65
 73
     0
 40
0.0
  0
LTYPE
  5
16
330
5
100
AcDbSymbolTableRecord
100
AcDbLinetypeTableRecord
  2
CONTINUOUS
 70
     0
  3
Solid line
 72
    65
 73
     0
 40
0.0
  0
ENDTAB
  0
TABLE
  2
LAYER
  5
2
100
AcDbSymbolTable
 70
2
  0
LAYER
  5
50
100
AcDbSymbolTableRecord
100
AcDbLayerTableRecord
  2
0
 70
0
  6
CONTINUOUS
  0
LAYER
  5
51
100
AcDbSymbolTableRecord
100
AcDbLayerTableRecord
  2
Layer_1
 70
0
  6
CONTINUOUS
  0
ENDTAB
  0
TABLE
  2
STYLE
  5
3
330
0
100
AcDbSymbolTable
 70
     1
  0
STYLE
  5
11
330
3
100
AcDbSymbolTableRecord
100
AcDbTextStyleTableRecord
  2
STANDARD
 70
     0
 40
0.0
 41
1.0
 50
0.0
 71
     0
 42
2.5
  3
txt
  4

  0
ENDTAB
  0
TABLE
  2
VIEW
  5
6
330
0
100
AcDbSymbolTable
 70
     0
  0
ENDTAB
  0
TABLE
  2
UCS
  5
7
330
0
100
AcDbSymbolTable
 70
     0
  0
ENDTAB
  0
TABLE
  2
APPID
  5
9
330
0
100
AcDbSymbolTable
 70
     2
  0
APPID
  5
12
330
9
100
AcDbSymbolTableRecord
100
AcDbRegAppTableRecord
  2
ACAD
 70
     0
  0
ENDTAB
  0
TABLE
  2
DIMSTYLE
  5
A
330
0
100
AcDbSymbolTable
 70
     1
  0
DIMSTYLE
105
27
330
A
100
AcDbSymbolTableRecord
100
AcDbDimStyleTableRecord
  2
ISO-25
 70
     0
  3

  4

  5

  6

  7

 40
1.0
 41
2.5
 42
0.625
 43
3.75
 44
1.25
 45
0.0
 46
0.0
 47
0.0
 48
0.0
140
2.5
141
2.5
142
0.0
143
0.03937007874016
144
1.0
145
0.0
146
1.0
147
0.625
 71
     0
 72
     0
 73
     0
 74
     0
 75
     0
 76
     0
 77
     1
 78
     8
170
     0
171
     3
172
     1
173
     0
174
     0
175
     0
176
     0
177
     0
178
     0
270
     2
271
     2
272
     2
273
     2
274
     3
340
11
275
     0
280
     0
281
     0
282
     0
283
     0
284
     8
285
     0
286
     0
287
     3
288
     0
  0
ENDTAB
  0
TABLE
  2
BLOCK_RECORD
  5
1
330
0
100
AcDbSymbolTable
 70
     1
  0
BLOCK_RECORD
  5
1F
330
1
100
AcDbSymbolTableRecord
100
AcDbBlockTableRecord
  2
*MODEL_SPACE
  0
BLOCK_RECORD
  5
1B
330
1
100
AcDbSymbolTableRecord
100
AcDbBlockTableRecord
  2
*PAPER_SPACE
  0
ENDTAB
  0
ENDSEC
  0
SECTION
  2
BLOCKS
  0
BLOCK
  5
20
330
1F
100
AcDbEntity
  8
0
100
AcDbBlockBegin
  2
*MODEL_SPACE
 70
     0
 10
0.0
 20
0.0
 30
0.0
  3
*MODEL_SPACE
  1

  0
ENDBLK
  5
21
330
1F
100
AcDbEntity
  8
0
100
AcDbBlockEnd
  0
BLOCK
  5
1C
330
1B
100
AcDbEntity
 67
     1
  8
0
100
AcDbBlockBegin
  2
*PAPER_SPACE
  1

  0
ENDBLK
  5
1D
330
1B
100
AcDbEntity
 67
     1
  8
0
100
AcDbBlockEnd
  0
ENDSEC
  0
SECTION
  2
ENTITIES
  0
LINE
  5
100
100
AcDbEntity
  8
Layer_1
 62
1
100
AcDbLine
 10
4.369000
 20
196.319500
 30
0.0
 11
41.950450
 21
196.319500
 31
0.0
  0
SPLINE
  5
101
100
AcDbEntity
  8
Layer_1
 62
1
100
AcDbSpline
 70
8
 71
3
 72
8
 73
4
 74
0
 40
0
 40
0
 40
0
 40
0
 40
1
 40
1
 40
1
 40
1
 10
41.950450
 20
196.319500
 30
0.0
 10
42.628087
 20
196.319493
 30
0.0
 10
43.277975
 20
196.588662
 30
0.0
 10
43.757160
 20
197.067800
 30
0.0
  0
LINE
  5
102
100
AcDbEntity
  8
Layer_1
 62
1
100
AcDbLine
 10
43.757160
 20
197.067800
 30
0.0
 11
51.256700
 21
204.566900
 31
0.0
  0
SPLINE
  5
103
100
AcDbEntity
  8
Layer_1
 62
1
100
AcDbSpline
 70
8
 71
3
 72
8
 73
4
 74
0
 40
0
 40
0
 40
0
 40
0
 40
1
 40
1
 40
1
 40
1
 10
51.256700
 20
204.566900
 30
0.0
 10
51.382053
 20
204.692269
 30
0.0
 10
51.419549
 20
204.880801
 30
0.0
 10
51.351705
 20
205.044593
 30
0.0
  0
SPLINE
  5
104
100
AcDbEntity
  8
Layer_1
 62
1
100
AcDbSpline
 70
8
 71
3
 72
8
 73
4
 74
0
 40
0
 40
0
 40
0
 40
0
 40
1
 40
1
 40
1
 40
1
 10
51.351705
 20
205.044593
 30
0.0
 10
51.283862
 20
205.208386
 30
0.0
 10
51.124037
 20
205.315186
 30
0.0
 10
50.946750
 20
205.315200
 30
0.0
  0
LINE
  5
105
100
AcDbEntity
  8
Layer_1
 62
1
100
AcDbLine
 10
50.946750
 20
205.315200
 30
0.0
 11
45.124300
 21
205.315200
 31
0.0
  0
SPLINE
  5
106
100
AcDbEntity
  8
Layer_1
 62
1
100
AcDbSpline
 70
8
 71
3
 72
8
 73
4
 74
0
 40
0
 40
0
 40
0
 40
0
 40
1
 40
1
 40
1
 40
1
 10
45.124300
 20
205.315200
 30
0.0
 10
44.539813
 20
205.315202
 30
0.0
 10
44.065988
 20
205.789013
 30
0.0
 10
44.065970
 20
206.373500
 30
0.0
  0
LINE
  5
107
100
AcDbEntity
  8
Layer_1
 62
1
100
AcDbLine
 10
44.065970
 20
206.373500
 30
0.0
 11
44.065970
 21
283.634000
 31
0.0
  0
SPLINE
  5
108
100
AcDbEntity
  8
Layer_1
 62
1
100
AcDbSpline
 70
8
 71
3
 72
8
 73
4
 74
0
 40
0
 40
0
 40
0
 40
0
 40
1
 40
1
 40
1
 40
1
 10
44.065970
 20
283.634000
 30
0.0
 10
44.065988
 20
284.218487
 30
0.0
 10
44.539813
 20
284.692298
 30
0.0
 10
45.124300
 20
284.692300
 30
0.0
  0
LINE
  5
109
100
AcDbEntity
  8
Layer_1
 62
1
100
AcDbLine
 10
45.124300
 20
284.692300
 30
0.0
 11
130.325160
 21
284.692300
 31
0.0
  0
SPLINE
  5
10a
100
AcDbEntity
  8
Layer_1
 62
1
100
AcDbSpline
 70
8
 71
3
 72
8
 73
4
 74
0
 40
0
 40
0
 40
0
 40
0
 40
1
 40
1
 40
1
 40
1
 10
130.325160
 20
284.692300
 30
0.0
 10
131.002792
 20
284.692289
 30
0.0
 10
131.652675
 20
284.961459
 30
0.0
 10
132.131850
 20
285.440600
 30
0.0
  0
LINE
  5
10b
100
AcDbEntity
  8
Layer_1
 62
1
100
AcDbLine
 10
132.131850
 20
285.440600
 30
0.0
 11
139.634210
 21
292.942900
 31
0.0
  0
SPLINE
  5
10c
100
AcDbEntity
  8
Layer_1
 62
1
100
AcDbSpline
 70
8
 71
3
 72
8
 73
4
 74
0
 40
0
 40
0
 40
0
 40
0
 40
1
 40
1
 40
1
 40
1
 10
139.634210
 20
292.942900
 30
0.0
 10
139.759551
 20
293.068276
 30
0.0
 10
139.797036
 20
293.256806
 30
0.0
 10
139.729190
 20
293.420594
 30
0.0
  0
SPLINE
  5
10d
100
AcDbEntity
  8
Layer_1
 62
1
100
AcDbSpline
 70
8
 71
3
 72
8
 73
4
 74
0
 40
0
 40
0
 40
0
 40
0
 40
1
 40
1
 40
1
 40
1
 10
139.729190
 20
293.420594
 30
0.0
 10
139.661344
 20
293.584381
 30
0.0
 10
139.501524
 20
293.691180
 30
0.0
 10
139.324240
 20
293.691200
 30
0.0
  0
LINE
  5
10e
100
AcDbEntity
  8
Layer_1
 62
1
100
AcDbLine
 10
139.324240
 20
293.691200
 30
0.0
 11
7.484320
 21
293.691200
 31
0.0
  0
LINE
  5
10f
100
AcDbEntity
  8
Layer_1
 62
1
100
AcDbLine
 10
7.484320
 20
293.691200
 30
0.0
 11
4.379000
 21
293.691200
 31
0.0
  0
SPLINE
  5
110
100
AcDbEntity
  8
Layer_1
 62
1
100
AcDbSpline
 70
8
 71
3
 72
8
 73
4
 74
0
 40
0
 40
0
 40
0
 40
0
 40
1
 40
1
 40
1
 40
1
 10
4.379000
 20
293.691200
 30
0.0
 10
3.794495
 20
293.691199
 30
0.0
 10
3.320639
 20
293.217405
 30
0.0
 10
3.320560
 20
292.632900
 30
0.0
  0
LINE
  5
111
100
AcDbEntity
  8
Layer_1
 62
1
100
AcDbLine
 10
3.320560
 20
292.632900
 30
0.0
 11
3.320460
 21
291.649400
 31
0.0
  0
LINE
  5
112
100
AcDbEntity
  8
Layer_1
 62
1
100
AcDbLine
 10
3.320460
 20
291.649400
 30
0.0
 11
3.310460
 21
197.377800
 31
0.0
  0
SPLINE
  5
113
100
AcDbEntity
  8
Layer_1
 62
1
100
AcDbSpline
 70
8
 71
3
 72
8
 73
4
 74
0
 40
0
 40
0
 40
0
 40
0
 40
1
 40
1
 40
1
 40
1
 10
3.310460
 20
197.377800
 30
0.0
 10
3.310440
 20
197.097129
 30
0.0
 10
3.421922
 20
196.827947
 30
0.0
 10
3.620379
 20
196.629475
 30
0.0
  0
SPLINE
  5
114
100
AcDbEntity
  8
Layer_1
 62
1
100
AcDbSpline
 70
8
 71
3
 72
8
 73
4
 74
0
 40
0
 40
0
 40
0
 40
0
 40
1
 40
1
 40
1
 40
1
 10
3.620379
 20
196.629475
 30
0.0
 10
3.818835
 20
196.431003
 30
0.0
 10
4.088009
 20
196.319501
 30
0.0
 10
4.368680
 20
196.319500
 30
0.0
  0
LINE
  5
115
100
AcDbEntity
  8
Layer_1
 62
1
100
AcDbLine
 10
4.368680
 20
196.319500
 30
0.0
 11
4.369000
 21
196.319500
 31
0.0
  0
SPLINE
  5
116
100
AcDbEntity
  8
Layer_1
 62
1
100
AcDbSpline
 70
8
 71
3
 72
8
 73
4
 74
0
 40
0
 40
0
 40
0
 40
0
 40
1
 40
1
 40
1
 40
1
 10
7.285710
 20
201.769700
 30
0.0
 10
7.669949
 20
201.769700
 30
0.0
 10
8.016354
 20
201.538240
 30
0.0
 10
8.163396
 20
201.183249
 30
0.0
  0
SPLINE
  5
117
100
AcDbEntity
  8
Layer_1
 62
1
100
AcDbSpline
 70
8
 71
3
 72
8
 73
4
 74
0
 40
0
 40
0
 40
0
 40
0
 40
1
 40
1
 40
1
 40
1
 10
8.163396
 20
201.183249
 30
0.0
 10
8.310437
 20
200.828259
 30
0.0
 10
8.229160
 20
200.419647
 30
0.0
 10
7.957461
 20
200.147949
 30
0.0
  0
SPLINE
  5
118
100
AcDbEntity
  8
Layer_1
 62
1
100
AcDbSpline
 70
8
 71
3
 72
8
 73
4
 74
0
 40
0
 40
0
 40
0
 40
0
 40
1
 40
1
 40
1
 40
1
 10
7.957461
 20
200.147949
 30
0.0
 10
7.685763
 20
199.876250
 30
0.0
 10
7.277151
 20
199.794973
 30
0.0
 10
6.922161
 20
199.942014
 30
0.0
  0
SPLINE
  5
119
100
AcDbEntity
  8
Layer_1
 62
1
100
AcDbSpline
 70
8
 71
3
 72
8
 73
4
 74
0
 40
0
 40
0
 40
0
 40
0
 40
1
 40
1
 40
1
 40
1
 10
6.922161
 20
199.942014
 30
0.0
 10
6.567170
 20
200.089056
 30
0.0
 10
6.335710
 20
200.435461
 30
0.0
 10
6.335710
 20
200.819700
 30
0.0
  0
SPLINE
  5
11a
100
AcDbEntity
  8
Layer_1
 62
1
100
AcDbSpline
 70
8
 71
3
 72
8
 73
4
 74
0
 40
0
 40
0
 40
0
 40
0
 40
1
 40
1
 40
1
 40
1
 10
6.335710
 20
200.819700
 30
0.0
 10
6.335710
 20
201.344371
 30
0.0
 10
6.761039
 20
201.769700
 30
0.0
 10
7.285710
 20
201.769700
 30
0.0
  0
LINE
  5
11b
100
AcDbEntity
  8
Layer_1
 62
1
100
AcDbLine
 10
7.285710
 20
201.769700
 30
0.0
 11
7.285710
 21
201.769700
 31
0.0
  0
SPLINE
  5
11c
100
AcDbEntity
  8
Layer_1
 62
1
100
AcDbSpline
 70
8
 71
3
 72
8
 73
4
 74
0
 40
0
 40
0
 40
0
 40
0
 40
1
 40
1
 40
1
 40
1
 10
7.285710
 20
290.141900
 30
0.0
 10
7.669949
 20
290.141900
 30
0.0
 10
8.016354
 20
289.910440
 30
0.0
 10
8.163396
 20
289.555449
 30
0.0
  0
SPLINE
  5
11d
100
AcDbEntity
  8
Layer_1
 62
1
100
AcDbSpline
 70
8
 71
3
 72
8
 73
4
 74
0
 40
0
 40
0
 40
0
 40
0
 40
1
 40
1
 40
1
 40
1
 10
8.163396
 20
289.555449
 30
0.0
 10
8.310437
 20
289.200459
 30
0.0
 10
8.229160
 20
288.791847
 30
0.0
 10
7.957461
 20
288.520149
 30
0.0
  0
SPLINE
  5
11e
100
AcDbEntity
  8
Layer_1
 62
1
100
AcDbSpline
 70
8
 71
3
 72
8
 73
4
 74
0
 40
0
 40
0
 40
0
 40
0
 40
1
 40
1
 40
1
 40
1
 10
7.957461
 20
288.520149
 30
0.0
 10
7.685763
 20
288.248450
 30
0.0
 10
7.277151
 20
288.167173
 30
0.0
 10
6.922161
 20
288.314214
 30
0.0
  0
SPLINE
  5
11f
100
AcDbEntity
  8
Layer_1
 62
1
100
AcDbSpline
 70
8
 71
3
 72
8
 73
4
 74
0
 40
0
 40
0
 40
0
 40
0
 40
1
 40
1
 40
1
 40
1
 10
6.922161
 20
288.314214
 30
0.0
 10
6.567170
 20
288.461256
 30
0.0
 10
6.335710
 20
288.807661
 30
0.0
 10
6.335710
 20
289.191900
 30
0.0
  0
SPLINE
  5
120
100
AcDbEntity
  8
Layer_1
 62
1
100
AcDbSpline
 70
8
 71
3
 72
8
 73
4
 74
0
 40
0
 40
0
 40
0
 40
0
 40
1
 40
1
 40
1
 40
1
 10
6.335710
 20
289.191900
 30
0.0
 10
6.335710
 20
289.716571
 30
0.0
 10
6.761039
 20
290.141900
 30
0.0
 10
7.285710
 20
290.141900
 30
0.0
  0
LINE
  5
121
100
AcDbEntity
  8
Layer_1
 62
1
100
AcDbLine
 10
7.285710
 20
290.141900
 30
0.0
 11
7.285710
 21
290.141900
 31
0.0
  0
SPLINE
  5
122
100
AcDbEntity
  8
Layer_1
 62
1
100
AcDbSpline
 70
8
 71
3
 72
8
 73
4
 74
0
 40
0
 40
0
 40
0
 40
0
 40
1
 40
1
 40
1
 40
1
 10
40.142841
 20
290.142364
 30
0.0
 10
40.527080
 20
290.142364
 30
0.0
 10
40.873485
 20
289.910904
 30
0.0
 10
41.020527
 20
289.555913
 30
0.0
  0
SPLINE
  5
123
100
AcDbEntity
  8
Layer_1
 62
1
100
AcDbSpline
 70
8
 71
3
 72
8
 73
4
 74
0
 40
0
 40
0
 40
0
 40
0
 40
1
 40
1
 40
1
 40
1
 10
41.020527
 20
289.555913
 30
0.0
 10
41.167568
 20
289.200922
 30
0.0
 10
41.086291
 20
288.792310
 30
0.0
 10
40.814592
 20
288.520612
 30
0.0
  0
SPLINE
  5
124
100
AcDbEntity
  8
Layer_1
 62
1
100
AcDbSpline
 70
8
 71
3
 72
8
 73
4
 74
0
 40
0
 40
0
 40
0
 40
0
 40
1
 40
1
 40
1
 40
1
 10
40.814592
 20
288.520612
 30
0.0
 10
40.542894
 20
288.248914
 30
0.0
 10
40.134282
 20
288.167636
 30
0.0
 10
39.779292
 20
288.314678
 30
0.0
  0
SPLINE
  5
125
100
AcDbEntity
  8
Layer_1
 62
1
100
AcDbSpline
 70
8
 71
3
 72
8
 73
4
 74
0
 40
0
 40
0
 40
0
 40
0
 40
1
 40
1
 40
1
 40
1
 10
39.779292
 20
288.314678
 30
0.0
 10
39.424301
 20
288.461720
 30
0.0
 10
39.192841
 20
288.808125
 30
0.0
 10
39.192841
 20
289.192364
 30
0.0
  0
SPLINE
  5
126
100
AcDbEntity
  8
Layer_1
 62
1
100
AcDbSpline
 70
8
 71
3
 72
8
 73
4
 74
0
 40
0
 40
0
 40
0
 40
0
 40
1
 40
1
 40
1
 40
1
 10
39.192841
 20
289.192364
 30
0.0
 10
39.192841
 20
289.444319
 30
0.0
 10
39.292930
 20
289.685956
 30
0.0
 10
39.471090
 20
289.864115
 30
0.0
  0
SPLINE
  5
127
100
AcDbEntity
  8
Layer_1
 62
1
100
AcDbSpline
 70
8
 71
3
 72
8
 73
4
 74
0
 40
0
 40
0
 40
0
 40
0
 40
1
 40
1
 40
1
 40
1
 10
39.471090
 20
289.864115
 30
0.0
 10
39.649249
 20
290.042275
 30
0.0
 10
39.890885
 20
290.142364
 30
0.0
 10
40.142841
 20
290.142364
 30
0.0
  0
LINE
  5
128
100
AcDbEntity
  8
Layer_1
 62
1
100
AcDbLine
 10
40.142841
 20
290.142364
 30
0.0
 11
40.142841
 21
290.142364
 31
0.0
  0
SPLINE
  5
129
100
AcDbEntity
  8
Layer_1
 62
1
100
AcDbSpline
 70
8
 71
3
 72
8
 73
4
 74
0
 40
0
 40
0
 40
0
 40
0
 40
1
 40
1
 40
1
 40
1
 10
14.829610
 20
281.039336
 30
0.0
 10
14.445371
 20
281.039336
 30
0.0
 10
14.098966
 20
280.807876
 30
0.0
 10
13.951924
 20
280.452885
 30
0.0
  0
SPLINE
  5
12a
100
AcDbEntity
  8
Layer_1
 62
1
100
AcDbSpline
 70
8
 71
3
 72
8
 73
4
 74
0
 40
0
 40
0
 40
0
 40
0
 40
1
 40
1
 40
1
 40
1
 10
13.951924
 20
280.452885
 30
0.0
 10
13.804883
 20
280.097895
 30
0.0
 10
13.886160
 20
279.689283
 30
0.0
 10
14.157859
 20
279.417585
 30
0.0
  0
SPLINE
  5
12b
100
AcDbEntity
  8
Layer_1
 62
1
100
AcDbSpline
 70
8
 71
3
 72
8
 73
4
 74
0
 40
0
 40
0
 40
0
 40
0
 40
1
 40
1
 40
1
 40
1
 10
14.157859
 20
279.417585
 30
0.0
 10
14.429557
 20
279.145886
 30
0.0
 10
14.838169
 20
279.064609
 30
0.0
 10
15.193159
 20
279.211650
 30
0.0
  0
SPLINE
  5
12c
100
AcDbEntity
  8
Layer_1
 62
1
100
AcDbSpline
 70
8
 71
3
 72
8
 73
4
 74
0
 40
0
 40
0
 40
0
 40
0
 40
1
 40
1
 40
1
 40
1
 10
15.193159
 20
279.211650
 30
0.0
 10
15.548150
 20
279.358692
 30
0.0
 10
15.779610
 20
279.705097
 30
0.0
 10
15.779610
 20
280.089336
 30
0.0
  0
SPLINE
  5
12d
100
AcDbEntity
  8
Layer_1
 62
1
100
AcDbSpline
 70
8
 71
3
 72
8
 73
4
 74
0
 40
0
 40
0
 40
0
 40
0
 40
1
 40
1
 40
1
 40
1
 10
15.779610
 20
280.089336
 30
0.0
 10
15.779610
 20
280.341292
 30
0.0
 10
15.679521
 20
280.582928
 30
0.0
 10
15.501361
 20
280.761087
 30
0.0
  0
SPLINE
  5
12e
100
AcDbEntity
  8
Layer_1
 62
1
100
AcDbSpline
 70
8
 71
3
 72
8
 73
4
 74
0
 40
0
 40
0
 40
0
 40
0
 40
1
 40
1
 40
1
 40
1
 10
15.501361
 20
280.761087
 30
0.0
 10
15.323202
 20
280.939247
 30
0.0
 10
15.081566
 20
281.039336
 30
0.0
 10
14.829610
 20
281.039336
 30
0.0
  0
LINE
  5
12f
100
AcDbEntity
  8
Layer_1
 62
1
100
AcDbLine
 10
14.829610
 20
281.039336
 30
0.0
 11
14.829610
 21
281.039336
 31
0.0
  0
SPLINE
  5
130
100
AcDbEntity
  8
Layer_1
 62
1
100
AcDbSpline
 70
8
 71
3
 72
8
 73
4
 74
0
 40
0
 40
0
 40
0
 40
0
 40
1
 40
1
 40
1
 40
1
 10
32.607014
 20
281.039336
 30
0.0
 10
32.222775
 20
281.039336
 30
0.0
 10
31.876370
 20
280.807876
 30
0.0
 10
31.729328
 20
280.452885
 30
0.0
  0
SPLINE
  5
131
100
AcDbEntity
  8
Layer_1
 62
1
100
AcDbSpline
 70
8
 71
3
 72
8
 73
4
 74
0
 40
0
 40
0
 40
0
 40
0
 40
1
 40
1
 40
1
 40
1
 10
31.729328
 20
280.452885
 30
0.0
 10
31.582287
 20
280.097895
 30
0.0
 10
31.663564
 20
279.689283
 30
0.0
 10
31.935263
 20
279.417585
 30
0.0
  0
SPLINE
  5
132
100
AcDbEntity
  8
Layer_1
 62
1
100
AcDbSpline
 70
8
 71
3
 72
8
 73
4
 74
0
 40
0
 40
0
 40
0
 40
0
 40
1
 40
1
 40
1
 40
1
 10
31.935263
 20
279.417585
 30
0.0
 10
32.206961
 20
279.145886
 30
0.0
 10
32.615573
 20
279.064609
 30
0.0
 10
32.970563
 20
279.211650
 30
0.0
  0
SPLINE
  5
133
100
AcDbEntity
  8
Layer_1
 62
1
100
AcDbSpline
 70
8
 71
3
 72
8
 73
4
 74
0
 40
0
 40
0
 40
0
 40
0
 40
1
 40
1
 40
1
 40
1
 10
32.970563
 20
279.211650
 30
0.0
 10
33.325554
 20
279.358692
 30
0.0
 10
33.557014
 20
279.705097
 30
0.0
 10
33.557014
 20
280.089336
 30
0.0
  0
SPLINE
  5
134
100
AcDbEntity
  8
Layer_1
 62
1
100
AcDbSpline
 70
8
 71
3
 72
8
 73
4
 74
0
 40
0
 40
0
 40
0
 40
0
 40
1
 40
1
 40
1
 40
1
 10
33.557014
 20
280.089336
 30
0.0
 10
33.557014
 20
280.341292
 30
0.0
 10
33.456925
 20
280.582928
 30
0.0
 10
33.278765
 20
280.761087
 30
0.0
  0
SPLINE
  5
135
100
AcDbEntity
  8
Layer_1
 62
1
100
AcDbSpline
 70
8
 71
3
 72
8
 73
4
 74
0
 40
0
 40
0
 40
0
 40
0
 40
1
 40
1
 40
1
 40
1
 10
33.278765
 20
280.761087
 30
0.0
 10
33.100606
 20
280.939247
 30
0.0
 10
32.858970
 20
281.039336
 30
0.0
 10
32.607014
 20
281.039336
 30
0.0
  0
LINE
  5
136
100
AcDbEntity
  8
Layer_1
 62
1
100
AcDbLine
 10
32.607014
 20
281.039336
 30
0.0
 11
32.607014
 21
281.039336
 31
0.0
  0
SPLINE
  5
137
100
AcDbEntity
  8
Layer_1
 62
1
100
AcDbSpline
 70
8
 71
3
 72
8
 73
4
 74
0
 40
0
 40
0
 40
0
 40
0
 40
1
 40
1
 40
1
 40
1
 10
14.829610
 20
235.324249
 30
0.0
 10
14.445371
 20
235.324249
 30
0.0
 10
14.098966
 20
235.092789
 30
0.0
 10
13.951924
 20
234.737798
 30
0.0
  0
SPLINE
  5
138
100
AcDbEntity
  8
Layer_1
 62
1
100
AcDbSpline
 70
8
 71
3
 72
8
 73
4
 74
0
 40
0
 40
0
 40
0
 40
0
 40
1
 40
1
 40
1
 40
1
 10
13.951924
 20
234.737798
 30
0.0
 10
13.804883
 20
234.382808
 30
0.0
 10
13.886160
 20
233.974196
 30
0.0
 10
14.157859
 20
233.702498
 30
0.0
  0
SPLINE
  5
139
100
AcDbEntity
  8
Layer_1
 62
1
100
AcDbSpline
 70
8
 71
3
 72
8
 73
4
 74
0
 40
0
 40
0
 40
0
 40
0
 40
1
 40
1
 40
1
 40
1
 10
14.157859
 20
233.702498
 30
0.0
 10
14.429557
 20
233.430799
 30
0.0
 10
14.838169
 20
233.349522
 30
0.0
 10
15.193159
 20
233.496563
 30
0.0
  0
SPLINE
  5
13a
100
AcDbEntity
  8
Layer_1
 62
1
100
AcDbSpline
 70
8
 71
3
 72
8
 73
4
 74
0
 40
0
 40
0
 40
0
 40
0
 40
1
 40
1
 40
1
 40
1
 10
15.193159
 20
233.496563
 30
0.0
 10
15.548150
 20
233.643605
 30
0.0
 10
15.779610
 20
233.990010
 30
0.0
 10
15.779610
 20
234.374249
 30
0.0
  0
SPLINE
  5
13b
100
AcDbEntity
  8
Layer_1
 62
1
100
AcDbSpline
 70
8
 71
3
 72
8
 73
4
 74
0
 40
0
 40
0
 40
0
 40
0
 40
1
 40
1
 40
1
 40
1
 10
15.779610
 20
234.374249
 30
0.0
 10
15.779610
 20
234.626205
 30
0.0
 10
15.679521
 20
234.867841
 30
0.0
 10
15.501361
 20
235.046000
 30
0.0
  0
SPLINE
  5
13c
100
AcDbEntity
  8
Layer_1
 62
1
100
AcDbSpline
 70
8
 71
3
 72
8
 73
4
 74
0
 40
0
 40
0
 40
0
 40
0
 40
1
 40
1
 40
1
 40
1
 10
15.501361
 20
235.046000
 30
0.0
 10
15.323202
 20
235.224160
 30
0.0
 10
15.081566
 20
235.324249
 30
0.0
 10
14.829610
 20
235.324249
 30
0.0
  0
LINE
  5
13d
100
AcDbEntity
  8
Layer_1
 62
1
100
AcDbLine
 10
14.829610
 20
235.324249
 30
0.0
 11
14.829610
 21
235.324249
 31
0.0
  0
SPLINE
  5
13e
100
AcDbEntity
  8
Layer_1
 62
1
100
AcDbSpline
 70
8
 71
3
 72
8
 73
4
 74
0
 40
0
 40
0
 40
0
 40
0
 40
1
 40
1
 40
1
 40
1
 10
32.607014
 20
235.324249
 30
0.0
 10
32.222775
 20
235.324249
 30
0.0
 10
31.876370
 20
235.092789
 30
0.0
 10
31.729328
 20
234.737798
 30
0.0
  0
SPLINE
  5
13f
100
AcDbEntity
  8
Layer_1
 62
1
100
AcDbSpline
 70
8
 71
3
 72
8
 73
4
 74
0
 40
0
 40
0
 40
0
 40
0
 40
1
 40
1
 40
1
 40
1
 10
31.729328
 20
234.737798
 30
0.0
 10
31.582287
 20
234.382808
 30
0.0
 10
31.663564
 20
233.974196
 30
0.0
 10
31.935263
 20
233.702498
 30
0.0
  0
SPLINE
  5
140
100
AcDbEntity
  8
Layer_1
 62
1
100
AcDbSpline
 70
8
 71
3
 72
8
 73
4
 74
0
 40
0
 40
0
 40
0
 40
0
 40
1
 40
1
 40
1
 40
1
 10
31.935263
 20
233.702498
 30
0.0
 10
32.206961
 20
233.430799
 30
0.0
 10
32.615573
 20
233.349522
 30
0.0
 10
32.970563
 20
233.496563
 30
0.0
  0
SPLINE
  5
141
100
AcDbEntity
  8
Layer_1
 62
1
100
AcDbSpline
 70
8
 71
3
 72
8
 73
4
 74
0
 40
0
 40
0
 40
0
 40
0
 40
1
 40
1
 40
1
 40
1
 10
32.970563
 20
233.496563
 30
0.0
 10
33.325554
 20
233.643605
 30
0.0
 10
33.557014
 20
233.990010
 30
0.0
 10
33.557014
 20
234.374249
 30
0.0
  0
SPLINE
  5
142
100
AcDbEntity
  8
Layer_1
 62
1
100
AcDbSpline
 70
8
 71
3
 72
8
 73
4
 74
0
 40
0
 40
0
 40
0
 40
0
 40
1
 40
1
 40
1
 40
1
 10
33.557014
 20
234.374249
 30
0.0
 10
33.557014
 20
234.626205
 30
0.0
 10
33.456925
 20
234.867841
 30
0.0
 10
33.278765
 20
235.046000
 30
0.0
  0
SPLINE
  5
143
100
AcDbEntity
  8
Layer_1
 62
1
100
AcDbSpline
 70
8
 71
3
 72
8
 73
4
 74
0
 40
0
 40
0
 40
0
 40
0
 40
1
 40
1
 40
1
 40
1
 10
33.278765
 20
235.046000
 30
0.0
 10
33.100606
 20
235.224160
 30
0.0
 10
32.858970
 20
235.324249
 30
0.0
 10
32.607014
 20
235.324249
 30
0.0
  0
LINE
  5
144
100
AcDbEntity
  8
Layer_1
 62
1
100
AcDbLine
 10
32.607014
 20
235.324249
 30
0.0
 11
32.607014
 21
235.324249
 31
0.0
  0
SPLINE
  5
145
100
AcDbEntity
  8
Layer_1
 62
1
100
AcDbSpline
 70
8
 71
3
 72
8
 73
4
 74
0
 40
0
 40
0
 40
0
 40
0
 40
1
 40
1
 40
1
 40
1
 10
14.829610
 20
275.322665
 30
0.0
 10
14.445371
 20
275.322665
 30
0.0
 10
14.098966
 20
275.091205
 30
0.0
 10
13.951924
 20
274.736214
 30
0.0
  0
SPLINE
  5
146
100
AcDbEntity
  8
Layer_1
 62
1
100
AcDbSpline
 70
8
 71
3
 72
8
 73
4
 74
0
 40
0
 40
0
 40
0
 40
0
 40
1
 40
1
 40
1
 40
1
 10
13.951924
 20
274.736214
 30
0.0
 10
13.804883
 20
274.381224
 30
0.0
 10
13.886160
 20
273.972612
 30
0.0
 10
14.157859
 20
273.700914
 30
0.0
  0
SPLINE
  5
147
100
AcDbEntity
  8
Layer_1
 62
1
100
AcDbSpline
 70
8
 71
3
 72
8
 73
4
 74
0
 40
0
 40
0
 40
0
 40
0
 40
1
 40
1
 40
1
 40
1
 10
14.157859
 20
273.700914
 30
0.0
 10
14.429557
 20
273.429215
 30
0.0
 10
14.838169
 20
273.347938
 30
0.0
 10
15.193159
 20
273.494979
 30
0.0
  0
SPLINE
  5
148
100
AcDbEntity
  8
Layer_1
 62
1
100
AcDbSpline
 70
8
 71
3
 72
8
 73
4
 74
0
 40
0
 40
0
 40
0
 40
0
 40
1
 40
1
 40
1
 40
1
 10
15.193159
 20
273.494979
 30
0.0
 10
15.548150
 20
273.642021
 30
0.0
 10
15.779610
 20
273.988426
 30
0.0
 10
15.779610
 20
274.372665
 30
0.0
  0
SPLINE
  5
149
100
AcDbEntity
  8
Layer_1
 62
1
100
AcDbSpline
 70
8
 71
3
 72
8
 73
4
 74
0
 40
0
 40
0
 40
0
 40
0
 40
1
 40
1
 40
1
 40
1
 10
15.779610
 20
274.372665
 30
0.0
 10
15.779610
 20
274.624621
 30
0.0
 10
15.679521
 20
274.866257
 30
0.0
 10
15.501361
 20
275.044416
 30
0.0
  0
SPLINE
  5
14a
100
AcDbEntity
  8
Layer_1
 62
1
100
AcDbSpline
 70
8
 71
3
 72
8
 73
4
 74
0
 40
0
 40
0
 40
0
 40
0
 40
1
 40
1
 40
1
 40
1
 10
15.501361
 20
275.044416
 30
0.0
 10
15.323202
 20
275.222576
 30
0.0
 10
15.081566
 20
275.322665
 30
0.0
 10
14.829610
 20
275.322665
 30
0.0
  0
LINE
  5
14b
100
AcDbEntity
  8
Layer_1
 62
1
100
AcDbLine
 10
14.829610
 20
275.322665
 30
0.0
 11
14.829610
 21
275.322665
 31
0.0
  0
SPLINE
  5
14c
100
AcDbEntity
  8
Layer_1
 62
1
100
AcDbSpline
 70
8
 71
3
 72
8
 73
4
 74
0
 40
0
 40
0
 40
0
 40
0
 40
1
 40
1
 40
1
 40
1
 10
32.607014
 20
275.322665
 30
0.0
 10
32.222775
 20
275.322665
 30
0.0
 10
31.876370
 20
275.091205
 30
0.0
 10
31.729328
 20
274.736214
 30
0.0
  0
SPLINE
  5
14d
100
AcDbEntity
  8
Layer_1
 62
1
100
AcDbSpline
 70
8
 71
3
 72
8
 73
4
 74
0
 40
0
 40
0
 40
0
 40
0
 40
1
 40
1
 40
1
 40
1
 10
31.729328
 20
274.736214
 30
0.0
 10
31.582287
 20
274.381224
 30
0.0
 10
31.663564
 20
273.972612
 30
0.0
 10
31.935263
 20
273.700914
 30
0.0
  0
SPLINE
  5
14e
100
AcDbEntity
  8
Layer_1
 62
1
100
AcDbSpline
 70
8
 71
3
 72
8
 73
4
 74
0
 40
0
 40
0
 40
0
 40
0
 40
1
 40
1
 40
1
 40
1
 10
31.935263
 20
273.700914
 30
0.0
 10
32.206961
 20
273.429215
 30
0.0
 10
32.615573
 20
273.347938
 30
0.0
 10
32.970563
 20
273.494979
 30
0.0
  0
SPLINE
  5
14f
100
AcDbEntity
  8
Layer_1
 62
1
100
AcDbSpline
 70
8
 71
3
 72
8
 73
4
 74
0
 40
0
 40
0
 40
0
 40
0
 40
1
 40
1
 40
1
 40
1
 10
32.970563
 20
273.494979
 30
0.0
 10
33.325554
 20
273.642021
 30
0.0
 10
33.557014
 20
273.988426
 30
0.0
 10
33.557014
 20
274.372665
 30
0.0
  0
SPLINE
  5
150
100
AcDbEntity
  8
Layer_1
 62
1
100
AcDbSpline
 70
8
 71
3
 72
8
 73
4
 74
0
 40
0
 40
0
 40
0
 40
0
 40
1
 40
1
 40
1
 40
1
 10
33.557014
 20
274.372665
 30
0.0
 10
33.557014
 20
274.624621
 30
0.0
 10
33.456925
 20
274.866257
 30
0.0
 10
33.278765
 20
275.044416
 30
0.0
  0
SPLINE
  5
151
100
AcDbEntity
  8
Layer_1
 62
1
100
AcDbSpline
 70
8
 71
3
 72
8
 73
4
 74
0
 40
0
 40
0
 40
0
 40
0
 40
1
 40
1
 40
1
 40
1
 10
33.278765
 20
275.044416
 30
0.0
 10
33.100606
 20
275.222576
 30
0.0
 10
32.858970
 20
275.322665
 30
0.0
 10
32.607014
 20
275.322665
 30
0.0
  0
LINE
  5
152
100
AcDbEntity
  8
Layer_1
 62
1
100
AcDbLine
 10
32.607014
 20
275.322665
 30
0.0
 11
32.607014
 21
275.322665
 31
0.0
  0
SPLINE
  5
153
100
AcDbEntity
  8
Layer_1
 62
1
100
AcDbSpline
 70
8
 71
3
 72
8
 73
4
 74
0
 40
0
 40
0
 40
0
 40
0
 40
1
 40
1
 40
1
 40
1
 10
20.760447
 20
275.322665
 30
0.0
 10
20.376208
 20
275.322665
 30
0.0
 10
20.029803
 20
275.091205
 30
0.0
 10
19.882761
 20
274.736214
 30
0.0
  0
SPLINE
  5
154
100
AcDbEntity
  8
Layer_1
 62
1
100
AcDbSpline
 70
8
 71
3
 72
8
 73
4
 74
0
 40
0
 40
0
 40
0
 40
0
 40
1
 40
1
 40
1
 40
1
 10
19.882761
 20
274.736214
 30
0.0
 10
19.735720
 20
274.381224
 30
0.0
 10
19.816997
 20
273.972612
 30
0.0
 10
20.088696
 20
273.700914
 30
0.0
  0
SPLINE
  5
155
100
AcDbEntity
  8
Layer_1
 62
1
100
AcDbSpline
 70
8
 71
3
 72
8
 73
4
 74
0
 40
0
 40
0
 40
0
 40
0
 40
1
 40
1
 40
1
 40
1
 10
20.088696
 20
273.700914
 30
0.0
 10
20.360394
 20
273.429215
 30
0.0
 10
20.769006
 20
273.347938
 30
0.0
 10
21.123996
 20
273.494979
 30
0.0
  0
SPLINE
  5
156
100
AcDbEntity
  8
Layer_1
 62
1
100
AcDbSpline
 70
8
 71
3
 72
8
 73
4
 74
0
 40
0
 40
0
 40
0
 40
0
 40
1
 40
1
 40
1
 40
1
 10
21.123996
 20
273.494979
 30
0.0
 10
21.478987
 20
273.642021
 30
0.0
 10
21.710447
 20
273.988426
 30
0.0
 10
21.710447
 20
274.372665
 30
0.0
  0
SPLINE
  5
157
100
AcDbEntity
  8
Layer_1
 62
1
100
AcDbSpline
 70
8
 71
3
 72
8
 73
4
 74
0
 40
0
 40
0
 40
0
 40
0
 40
1
 40
1
 40
1
 40
1
 10
21.710447
 20
274.372665
 30
0.0
 10
21.710447
 20
274.624621
 30
0.0
 10
21.610358
 20
274.866257
 30
0.0
 10
21.432198
 20
275.044416
 30
0.0
  0
SPLINE
  5
158
100
AcDbEntity
  8
Layer_1
 62
1
100
AcDbSpline
 70
8
 71
3
 72
8
 73
4
 74
0
 40
0
 40
0
 40
0
 40
0
 40
1
 40
1
 40
1
 40
1
 10
21.432198
 20
275.044416
 30
0.0
 10
21.254039
 20
275.222576
 30
0.0
 10
21.012403
 20
275.322665
 30
0.0
 10
20.760447
 20
275.322665
 30
0.0
  0
LINE
  5
159
100
AcDbEntity
  8
Layer_1
 62
1
100
AcDbLine
 10
20.760447
 20
275.322665
 30
0.0
 11
20.760447
 21
275.322665
 31
0.0
  0
SPLINE
  5
15a
100
AcDbEntity
  8
Layer_1
 62
1
100
AcDbSpline
 70
8
 71
3
 72
8
 73
4
 74
0
 40
0
 40
0
 40
0
 40
0
 40
1
 40
1
 40
1
 40
1
 10
26.686176
 20
275.322665
 30
0.0
 10
26.301937
 20
275.322665
 30
0.0
 10
25.955532
 20
275.091205
 30
0.0
 10
25.808490
 20
274.736214
 30
0.0
  0
SPLINE
  5
15b
100
AcDbEntity
  8
Layer_1
 62
1
100
AcDbSpline
 70
8
 71
3
 72
8
 73
4
 74
0
 40
0
 40
0
 40
0
 40
0
 40
1
 40
1
 40
1
 40
1
 10
25.808490
 20
274.736214
 30
0.0
 10
25.661449
 20
274.381224
 30
0.0
 10
25.742726
 20
273.972612
 30
0.0
 10
26.014425
 20
273.700914
 30
0.0
  0
SPLINE
  5
15c
100
AcDbEntity
  8
Layer_1
 62
1
100
AcDbSpline
 70
8
 71
3
 72
8
 73
4
 74
0
 40
0
 40
0
 40
0
 40
0
 40
1
 40
1
 40
1
 40
1
 10
26.014425
 20
273.700914
 30
0.0
 10
26.286123
 20
273.429215
 30
0.0
 10
26.694735
 20
273.347938
 30
0.0
 10
27.049725
 20
273.494979
 30
0.0
  0
SPLINE
  5
15d
100
AcDbEntity
  8
Layer_1
 62
1
100
AcDbSpline
 70
8
 71
3
 72
8
 73
4
 74
0
 40
0
 40
0
 40
0
 40
0
 40
1
 40
1
 40
1
 40
1
 10
27.049725
 20
273.494979
 30
0.0
 10
27.404716
 20
273.642021
 30
0.0
 10
27.636176
 20
273.988426
 30
0.0
 10
27.636176
 20
274.372665
 30
0.0
  0
SPLINE
  5
15e
100
AcDbEntity
  8
Layer_1
 62
1
100
AcDbSpline
 70
8
 71
3
 72
8
 73
4
 74
0
 40
0
 40
0
 40
0
 40
0
 40
1
 40
1
 40
1
 40
1
 10
27.636176
 20
274.372665
 30
0.0
 10
27.636176
 20
274.624621
 30
0.0
 10
27.536087
 20
274.866257
 30
0.0
 10
27.357927
 20
275.044416
 30
0.0
  0
SPLINE
  5
15f
100
AcDbEntity
  8
Layer_1
 62
1
100
AcDbSpline
 70
8
 71
3
 72
8
 73
4
 74
0
 40
0
 40
0
 40
0
 40
0
 40
1
 40
1
 40
1
 40
1
 10
27.357927
 20
275.044416
 30
0.0
 10
27.179768
 20
275.222576
 30
0.0
 10
26.938132
 20
275.322665
 30
0.0
 10
26.686176
 20
275.322665
 30
0.0
  0
LINE
  5
160
100
AcDbEntity
  8
Layer_1
 62
1
100
AcDbLine
 10
26.686176
 20
275.322665
 30
0.0
 11
26.686176
 21
275.322665
 31
0.0
  0
SPLINE
  5
161
100
AcDbEntity
  8
Layer_1
 62
1
100
AcDbSpline
 70
8
 71
3
 72
8
 73
4
 74
0
 40
0
 40
0
 40
0
 40
0
 40
1
 40
1
 40
1
 40
1
 10
20.760447
 20
281.037666
 30
0.0
 10
20.376208
 20
281.037666
 30
0.0
 10
20.029803
 20
280.806206
 30
0.0
 10
19.882761
 20
280.451215
 30
0.0
  0
SPLINE
  5
162
100
AcDbEntity
  8
Layer_1
 62
1
100
AcDbSpline
 70
8
 71
3
 72
8
 73
4
 74
0
 40
0
 40
0
 40
0
 40
0
 40
1
 40
1
 40
1
 40
1
 10
19.882761
 20
280.451215
 30
0.0
 10
19.735720
 20
280.096225
 30
0.0
 10
19.816997
 20
279.687613
 30
0.0
 10
20.088696
 20
279.415915
 30
0.0
  0
SPLINE
  5
163
100
AcDbEntity
  8
Layer_1
 62
1
100
AcDbSpline
 70
8
 71
3
 72
8
 73
4
 74
0
 40
0
 40
0
 40
0
 40
0
 40
1
 40
1
 40
1
 40
1
 10
20.088696
 20
279.415915
 30
0.0
 10
20.360394
 20
279.144216
 30
0.0
 10
20.769006
 20
279.062939
 30
0.0
 10
21.123996
 20
279.209980
 30
0.0
  0
SPLINE
  5
164
100
AcDbEntity
  8
Layer_1
 62
1
100
AcDbSpline
 70
8
 71
3
 72
8
 73
4
 74
0
 40
0
 40
0
 40
0
 40
0
 40
1
 40
1
 40
1
 40
1
 10
21.123996
 20
279.209980
 30
0.0
 10
21.478987
 20
279.357022
 30
0.0
 10
21.710447
 20
279.703427
 30
0.0
 10
21.710447
 20
280.087666
 30
0.0
  0
SPLINE
  5
165
100
AcDbEntity
  8
Layer_1
 62
1
100
AcDbSpline
 70
8
 71
3
 72
8
 73
4
 74
0
 40
0
 40
0
 40
0
 40
0
 40
1
 40
1
 40
1
 40
1
 10
21.710447
 20
280.087666
 30
0.0
 10
21.710447
 20
280.339622
 30
0.0
 10
21.610358
 20
280.581258
 30
0.0
 10
21.432198
 20
280.759417
 30
0.0
  0
SPLINE
  5
166
100
AcDbEntity
  8
Layer_1
 62
1
100
AcDbSpline
 70
8
 71
3
 72
8
 73
4
 74
0
 40
0
 40
0
 40
0
 40
0
 40
1
 40
1
 40
1
 40
1
 10
21.432198
 20
280.759417
 30
0.0
 10
21.254039
 20
280.937577
 30
0.0
 10
21.012403
 20
281.037666
 30
0.0
 10
20.760447
 20
281.037666
 30
0.0
  0
LINE
  5
167
100
AcDbEntity
  8
Layer_1
 62
1
100
AcDbLine
 10
20.760447
 20
281.037666
 30
0.0
 11
20.760447
 21
281.037666
 31
0.0
  0
SPLINE
  5
168
100
AcDbEntity
  8
Layer_1
 62
1
100
AcDbSpline
 70
8
 71
3
 72
8
 73
4
 74
0
 40
0
 40
0
 40
0
 40
0
 40
1
 40
1
 40
1
 40
1
 10
26.686176
 20
281.037666
 30
0.0
 10
26.301937
 20
281.037666
 30
0.0
 10
25.955532
 20
280.806206
 30
0.0
 10
25.808490
 20
280.451215
 30
0.0
  0
SPLINE
  5
169
100
AcDbEntity
  8
Layer_1
 62
1
100
AcDbSpline
 70
8
 71
3
 72
8
 73
4
 74
0
 40
0
 40
0
 40
0
 40
0
 40
1
 40
1
 40
1
 40
1
 10
25.808490
 20
280.451215
 30
0.0
 10
25.661449
 20
280.096225
 30
0.0
 10
25.742726
 20
279.687613
 30
0.0
 10
26.014425
 20
279.415915
 30
0.0
  0
SPLINE
  5
16a
100
AcDbEntity
  8
Layer_1
 62
1
100
AcDbSpline
 70
8
 71
3
 72
8
 73
4
 74
0
 40
0
 40
0
 40
0
 40
0
 40
1
 40
1
 40
1
 40
1
 10
26.014425
 20
279.415915
 30
0.0
 10
26.286123
 20
279.144216
 30
0.0
 10
26.694735
 20
279.062939
 30
0.0
 10
27.049725
 20
279.209980
 30
0.0
  0
SPLINE
  5
16b
100
AcDbEntity
  8
Layer_1
 62
1
100
AcDbSpline
 70
8
 71
3
 72
8
 73
4
 74
0
 40
0
 40
0
 40
0
 40
0
 40
1
 40
1
 40
1
 40
1
 10
27.049725
 20
279.209980
 30
0.0
 10
27.404716
 20
279.357022
 30
0.0
 10
27.636176
 20
279.703427
 30
0.0
 10
27.636176
 20
280.087666
 30
0.0
  0
SPLINE
  5
16c
100
AcDbEntity
  8
Layer_1
 62
1
100
AcDbSpline
 70
8
 71
3
 72
8
 73
4
 74
0
 40
0
 40
0
 40
0
 40
0
 40
1
 40
1
 40
1
 40
1
 10
27.636176
 20
280.087666
 30
0.0
 10
27.636176
 20
280.339622
 30
0.0
 10
27.536087
 20
280.581258
 30
0.0
 10
27.357927
 20
280.759417
 30
0.0
  0
SPLINE
  5
16d
100
AcDbEntity
  8
Layer_1
 62
1
100
AcDbSpline
 70
8
 71
3
 72
8
 73
4
 74
0
 40
0
 40
0
 40
0
 40
0
 40
1
 40
1
 40
1
 40
1
 10
27.357927
 20
280.759417
 30
0.0
 10
27.179768
 20
280.937577
 30
0.0
 10
26.938132
 20
281.037666
 30
0.0
 10
26.686176
 20
281.037666
 30
0.0
  0
LINE
  5
16e
100
AcDbEntity
  8
Layer_1
 62
1
100
AcDbLine
 10
26.686176
 20
281.037666
 30
0.0
 11
26.686176
 21
281.037666
 31
0.0
  0
SPLINE
  5
16f
100
AcDbEntity
  8
Layer_1
 62
1
100
AcDbSpline
 70
8
 71
3
 72
8
 73
4
 74
0
 40
0
 40
0
 40
0
 40
0
 40
1
 40
1
 40
1
 40
1
 10
14.829610
 20
269.606826
 30
0.0
 10
14.445371
 20
269.606826
 30
0.0
 10
14.098966
 20
269.375366
 30
0.0
 10
13.951924
 20
269.020375
 30
0.0
  0
SPLINE
  5
170
100
AcDbEntity
  8
Layer_1
 62
1
100
AcDbSpline
 70
8
 71
3
 72
8
 73
4
 74
0
 40
0
 40
0
 40
0
 40
0
 40
1
 40
1
 40
1
 40
1
 10
13.951924
 20
269.020375
 30
0.0
 10
13.804883
 20
268.665385
 30
0.0
 10
13.886160
 20
268.256773
 30
0.0
 10
14.157859
 20
267.985075
 30
0.0
  0
SPLINE
  5
171
100
AcDbEntity
  8
Layer_1
 62
1
100
AcDbSpline
 70
8
 71
3
 72
8
 73
4
 74
0
 40
0
 40
0
 40
0
 40
0
 40
1
 40
1
 40
1
 40
1
 10
14.157859
 20
267.985075
 30
0.0
 10
14.429557
 20
267.713376
 30
0.0
 10
14.838169
 20
267.632099
 30
0.0
 10
15.193159
 20
267.779140
 30
0.0
  0
SPLINE
  5
172
100
AcDbEntity
  8
Layer_1
 62
1
100
AcDbSpline
 70
8
 71
3
 72
8
 73
4
 74
0
 40
0
 40
0
 40
0
 40
0
 40
1
 40
1
 40
1
 40
1
 10
15.193159
 20
267.779140
 30
0.0
 10
15.548150
 20
267.926182
 30
0.0
 10
15.779610
 20
268.272587
 30
0.0
 10
15.779610
 20
268.656826
 30
0.0
  0
SPLINE
  5
173
100
AcDbEntity
  8
Layer_1
 62
1
100
AcDbSpline
 70
8
 71
3
 72
8
 73
4
 74
0
 40
0
 40
0
 40
0
 40
0
 40
1
 40
1
 40
1
 40
1
 10
15.779610
 20
268.656826
 30
0.0
 10
15.779610
 20
268.908782
 30
0.0
 10
15.679521
 20
269.150418
 30
0.0
 10
15.501361
 20
269.328577
 30
0.0
  0
SPLINE
  5
174
100
AcDbEntity
  8
Layer_1
 62
1
100
AcDbSpline
 70
8
 71
3
 72
8
 73
4
 74
0
 40
0
 40
0
 40
0
 40
0
 40
1
 40
1
 40
1
 40
1
 10
15.501361
 20
269.328577
 30
0.0
 10
15.323202
 20
269.506737
 30
0.0
 10
15.081566
 20
269.606826
 30
0.0
 10
14.829610
 20
269.606826
 30
0.0
  0
LINE
  5
175
100
AcDbEntity
  8
Layer_1
 62
1
100
AcDbLine
 10
14.829610
 20
269.606826
 30
0.0
 11
14.829610
 21
269.606826
 31
0.0
  0
SPLINE
  5
176
100
AcDbEntity
  8
Layer_1
 62
1
100
AcDbSpline
 70
8
 71
3
 72
8
 73
4
 74
0
 40
0
 40
0
 40
0
 40
0
 40
1
 40
1
 40
1
 40
1
 10
32.607014
 20
269.606826
 30
0.0
 10
32.222775
 20
269.606826
 30
0.0
 10
31.876370
 20
269.375366
 30
0.0
 10
31.729328
 20
269.020375
 30
0.0
  0
SPLINE
  5
177
100
AcDbEntity
  8
Layer_1
 62
1
100
AcDbSpline
 70
8
 71
3
 72
8
 73
4
 74
0
 40
0
 40
0
 40
0
 40
0
 40
1
 40
1
 40
1
 40
1
 10
31.729328
 20
269.020375
 30
0.0
 10
31.582287
 20
268.665385
 30
0.0
 10
31.663564
 20
268.256773
 30
0.0
 10
31.935263
 20
267.985075
 30
0.0
  0
SPLINE
  5
178
100
AcDbEntity
  8
Layer_1
 62
1
100
AcDbSpline
 70
8
 71
3
 72
8
 73
4
 74
0
 40
0
 40
0
 40
0
 40
0
 40
1
 40
1
 40
1
 40
1
 10
31.935263
 20
267.985075
 30
0.0
 10
32.206961
 20
267.713376
 30
0.0
 10
32.615573
 20
267.632099
 30
0.0
 10
32.970563
 20
267.779140
 30
0.0
  0
SPLINE
  5
179
100
AcDbEntity
  8
Layer_1
 62
1
100
AcDbSpline
 70
8
 71
3
 72
8
 73
4
 74
0
 40
0
 40
0
 40
0
 40
0
 40
1
 40
1
 40
1
 40
1
 10
32.970563
 20
267.779140
 30
0.0
 10
33.325554
 20
267.926182
 30
0.0
 10
33.557014
 20
268.272587
 30
0.0
 10
33.557014
 20
268.656826
 30
0.0
  0
SPLINE
  5
17a
100
AcDbEntity
  8
Layer_1
 62
1
100
AcDbSpline
 70
8
 71
3
 72
8
 73
4
 74
0
 40
0
 40
0
 40
0
 40
0
 40
1
 40
1
 40
1
 40
1
 10
33.557014
 20
268.656826
 30
0.0
 10
33.557014
 20
268.908782
 30
0.0
 10
33.456925
 20
269.150418
 30
0.0
 10
33.278765
 20
269.328577
 30
0.0
  0
SPLINE
  5
17b
100
AcDbEntity
  8
Layer_1
 62
1
100
AcDbSpline
 70
8
 71
3
 72
8
 73
4
 74
0
 40
0
 40
0
 40
0
 40
0
 40
1
 40
1
 40
1
 40
1
 10
33.278765
 20
269.328577
 30
0.0
 10
33.100606
 20
269.506737
 30
0.0
 10
32.858970
 20
269.606826
 30
0.0
 10
32.607014
 20
269.606826
 30
0.0
  0
LINE
  5
17c
100
AcDbEntity
  8
Layer_1
 62
1
100
AcDbLine
 10
32.607014
 20
269.606826
 30
0.0
 11
32.607014
 21
269.606826
 31
0.0
  0
SPLINE
  5
17d
100
AcDbEntity
  8
Layer_1
 62
1
100
AcDbSpline
 70
8
 71
3
 72
8
 73
4
 74
0
 40
0
 40
0
 40
0
 40
0
 40
1
 40
1
 40
1
 40
1
 10
20.760447
 20
269.606826
 30
0.0
 10
20.376208
 20
269.606826
 30
0.0
 10
20.029803
 20
269.375366
 30
0.0
 10
19.882761
 20
269.020375
 30
0.0
  0
SPLINE
  5
17e
100
AcDbEntity
  8
Layer_1
 62
1
100
AcDbSpline
 70
8
 71
3
 72
8
 73
4
 74
0
 40
0
 40
0
 40
0
 40
0
 40
1
 40
1
 40
1
 40
1
 10
19.882761
 20
269.020375
 30
0.0
 10
19.735720
 20
268.665385
 30
0.0
 10
19.816997
 20
268.256773
 30
0.0
 10
20.088696
 20
267.985075
 30
0.0
  0
SPLINE
  5
17f
100
AcDbEntity
  8
Layer_1
 62
1
100
AcDbSpline
 70
8
 71
3
 72
8
 73
4
 74
0
 40
0
 40
0
 40
0
 40
0
 40
1
 40
1
 40
1
 40
1
 10
20.088696
 20
267.985075
 30
0.0
 10
20.360394
 20
267.713376
 30
0.0
 10
20.769006
 20
267.632099
 30
0.0
 10
21.123996
 20
267.779140
 30
0.0
  0
SPLINE
  5
180
100
AcDbEntity
  8
Layer_1
 62
1
100
AcDbSpline
 70
8
 71
3
 72
8
 73
4
 74
0
 40
0
 40
0
 40
0
 40
0
 40
1
 40
1
 40
1
 40
1
 10
21.123996
 20
267.779140
 30
0.0
 10
21.478987
 20
267.926182
 30
0.0
 10
21.710447
 20
268.272587
 30
0.0
 10
21.710447
 20
268.656826
 30
0.0
  0
SPLINE
  5
181
100
AcDbEntity
  8
Layer_1
 62
1
100
AcDbSpline
 70
8
 71
3
 72
8
 73
4
 74
0
 40
0
 40
0
 40
0
 40
0
 40
1
 40
1
 40
1
 40
1
 10
21.710447
 20
268.656826
 30
0.0
 10
21.710447
 20
268.908782
 30
0.0
 10
21.610358
 20
269.150418
 30
0.0
 10
21.432198
 20
269.328577
 30
0.0
  0
SPLINE
  5
182
100
AcDbEntity
  8
Layer_1
 62
1
100
AcDbSpline
 70
8
 71
3
 72
8
 73
4
 74
0
 40
0
 40
0
 40
0
 40
0
 40
1
 40
1
 40
1
 40
1
 10
21.432198
 20
269.328577
 30
0.0
 10
21.254039
 20
269.506737
 30
0.0
 10
21.012403
 20
269.606826
 30
0.0
 10
20.760447
 20
269.606826
 30
0.0
  0
LINE
  5
183
100
AcDbEntity
  8
Layer_1
 62
1
100
AcDbLine
 10
20.760447
 20
269.606826
 30
0.0
 11
20.760447
 21
269.606826
 31
0.0
  0
SPLINE
  5
184
100
AcDbEntity
  8
Layer_1
 62
1
100
AcDbSpline
 70
8
 71
3
 72
8
 73
4
 74
0
 40
0
 40
0
 40
0
 40
0
 40
1
 40
1
 40
1
 40
1
 10
26.686176
 20
269.606826
 30
0.0
 10
26.301937
 20
269.606826
 30
0.0
 10
25.955532
 20
269.375366
 30
0.0
 10
25.808490
 20
269.020375
 30
0.0
  0
SPLINE
  5
185
100
AcDbEntity
  8
Layer_1
 62
1
100
AcDbSpline
 70
8
 71
3
 72
8
 73
4
 74
0
 40
0
 40
0
 40
0
 40
0
 40
1
 40
1
 40
1
 40
1
 10
25.808490
 20
269.020375
 30
0.0
 10
25.661449
 20
268.665385
 30
0.0
 10
25.742726
 20
268.256773
 30
0.0
 10
26.014425
 20
267.985075
 30
0.0
  0
SPLINE
  5
186
100
AcDbEntity
  8
Layer_1
 62
1
100
AcDbSpline
 70
8
 71
3
 72
8
 73
4
 74
0
 40
0
 40
0
 40
0
 40
0
 40
1
 40
1
 40
1
 40
1
 10
26.014425
 20
267.985075
 30
0.0
 10
26.286123
 20
267.713376
 30
0.0
 10
26.694735
 20
267.632099
 30
0.0
 10
27.049725
 20
267.779140
 30
0.0
  0
SPLINE
  5
187
100
AcDbEntity
  8
Layer_1
 62
1
100
AcDbSpline
 70
8
 71
3
 72
8
 73
4
 74
0
 40
0
 40
0
 40
0
 40
0
 40
1
 40
1
 40
1
 40
1
 10
27.049725
 20
267.779140
 30
0.0
 10
27.404716
 20
267.926182
 30
0.0
 10
27.636176
 20
268.272587
 30
0.0
 10
27.636176
 20
268.656826
 30
0.0
  0
SPLINE
  5
188
100
AcDbEntity
  8
Layer_1
 62
1
100
AcDbSpline
 70
8
 71
3
 72
8
 73
4
 74
0
 40
0
 40
0
 40
0
 40
0
 40
1
 40
1
 40
1
 40
1
 10
27.636176
 20
268.656826
 30
0.0
 10
27.636176
 20
268.908782
 30
0.0
 10
27.536087
 20
269.150418
 30
0.0
 10
27.357927
 20
269.328577
 30
0.0
  0
SPLINE
  5
189
100
AcDbEntity
  8
Layer_1
 62
1
100
AcDbSpline
 70
8
 71
3
 72
8
 73
4
 74
0
 40
0
 40
0
 40
0
 40
0
 40
1
 40
1
 40
1
 40
1
 10
27.357927
 20
269.328577
 30
0.0
 10
27.179768
 20
269.506737
 30
0.0
 10
26.938132
 20
269.606826
 30
0.0
 10
26.686176
 20
269.606826
 30
0.0
  0
LINE
  5
18a
100
AcDbEntity
  8
Layer_1
 62
1
100
AcDbLine
 10
26.686176
 20
269.606826
 30
0.0
 11
26.686176
 21
269.606826
 31
0.0
  0
SPLINE
  5
18b
100
AcDbEntity
  8
Layer_1
 62
1
100
AcDbSpline
 70
8
 71
3
 72
8
 73
4
 74
0
 40
0
 40
0
 40
0
 40
0
 40
1
 40
1
 40
1
 40
1
 10
14.829610
 20
263.890987
 30
0.0
 10
14.445371
 20
263.890987
 30
0.0
 10
14.098966
 20
263.659527
 30
0.0
 10
13.951924
 20
263.304536
 30
0.0
  0
SPLINE
  5
18c
100
AcDbEntity
  8
Layer_1
 62
1
100
AcDbSpline
 70
8
 71
3
 72
8
 73
4
 74
0
 40
0
 40
0
 40
0
 40
0
 40
1
 40
1
 40
1
 40
1
 10
13.951924
 20
263.304536
 30
0.0
 10
13.804883
 20
262.949546
 30
0.0
 10
13.886160
 20
262.540934
 30
0.0
 10
14.157859
 20
262.269236
 30
0.0
  0
SPLINE
  5
18d
100
AcDbEntity
  8
Layer_1
 62
1
100
AcDbSpline
 70
8
 71
3
 72
8
 73
4
 74
0
 40
0
 40
0
 40
0
 40
0
 40
1
 40
1
 40
1
 40
1
 10
14.157859
 20
262.269236
 30
0.0
 10
14.429557
 20
261.997537
 30
0.0
 10
14.838169
 20
261.916260
 30
0.0
 10
15.193159
 20
262.063301
 30
0.0
  0
SPLINE
  5
18e
100
AcDbEntity
  8
Layer_1
 62
1
100
AcDbSpline
 70
8
 71
3
 72
8
 73
4
 74
0
 40
0
 40
0
 40
0
 40
0
 40
1
 40
1
 40
1
 40
1
 10
15.193159
 20
262.063301
 30
0.0
 10
15.548150
 20
262.210343
 30
0.0
 10
15.779610
 20
262.556748
 30
0.0
 10
15.779610
 20
262.940987
 30
0.0
  0
SPLINE
  5
18f
100
AcDbEntity
  8
Layer_1
 62
1
100
AcDbSpline
 70
8
 71
3
 72
8
 73
4
 74
0
 40
0
 40
0
 40
0
 40
0
 40
1
 40
1
 40
1
 40
1
 10
15.779610
 20
262.940987
 30
0.0
 10
15.779610
 20
263.192943
 30
0.0
 10
15.679521
 20
263.434579
 30
0.0
 10
15.501361
 20
263.612738
 30
0.0
  0
SPLINE
  5
190
100
AcDbEntity
  8
Layer_1
 62
1
100
AcDbSpline
 70
8
 71
3
 72
8
 73
4
 74
0
 40
0
 40
0
 40
0
 40
0
 40
1
 40
1
 40
1
 40
1
 10
15.501361
 20
263.612738
 30
0.0
 10
15.323202
 20
263.790898
 30
0.0
 10
15.081566
 20
263.890987
 30
0.0
 10
14.829610
 20
263.890987
 30
0.0
  0
LINE
  5
191
100
AcDbEntity
  8
Layer_1
 62
1
100
AcDbLine
 10
14.829610
 20
263.890987
 30
0.0
 11
14.829610
 21
263.890987
 31
0.0
  0
SPLINE
  5
192
100
AcDbEntity
  8
Layer_1
 62
1
100
AcDbSpline
 70
8
 71
3
 72
8
 73
4
 74
0
 40
0
 40
0
 40
0
 40
0
 40
1
 40
1
 40
1
 40
1
 10
32.607014
 20
263.890987
 30
0.0
 10
32.222775
 20
263.890987
 30
0.0
 10
31.876370
 20
263.659527
 30
0.0
 10
31.729328
 20
263.304536
 30
0.0
  0
SPLINE
  5
193
100
AcDbEntity
  8
Layer_1
 62
1
100
AcDbSpline
 70
8
 71
3
 72
8
 73
4
 74
0
 40
0
 40
0
 40
0
 40
0
 40
1
 40
1
 40
1
 40
1
 10
31.729328
 20
263.304536
 30
0.0
 10
31.582287
 20
262.949546
 30
0.0
 10
31.663564
 20
262.540934
 30
0.0
 10
31.935263
 20
262.269236
 30
0.0
  0
SPLINE
  5
194
100
AcDbEntity
  8
Layer_1
 62
1
100
AcDbSpline
 70
8
 71
3
 72
8
 73
4
 74
0
 40
0
 40
0
 40
0
 40
0
 40
1
 40
1
 40
1
 40
1
 10
31.935263
 20
262.269236
 30
0.0
 10
32.206961
 20
261.997537
 30
0.0
 10
32.615573
 20
261.916260
 30
0.0
 10
32.970563
 20
262.063301
 30
0.0
  0
SPLINE
  5
195
100
AcDbEntity
  8
Layer_1
 62
1
100
AcDbSpline
 70
8
 71
3
 72
8
 73
4
 74
0
 40
0
 40
0
 40
0
 40
0
 40
1
 40
1
 40
1
 40
1
 10
32.970563
 20
262.063301
 30
0.0
 10
33.325554
 20
262.210343
 30
0.0
 10
33.557014
 20
262.556748
 30
0.0
 10
33.557014
 20
262.940987
 30
0.0
  0
SPLINE
  5
196
100
AcDbEntity
  8
Layer_1
 62
1
100
AcDbSpline
 70
8
 71
3
 72
8
 73
4
 74
0
 40
0
 40
0
 40
0
 40
0
 40
1
 40
1
 40
1
 40
1
 10
33.557014
 20
262.940987
 30
0.0
 10
33.557014
 20
263.192943
 30
0.0
 10
33.456925
 20
263.434579
 30
0.0
 10
33.278765
 20
263.612738
 30
0.0
  0
SPLINE
  5
197
100
AcDbEntity
  8
Layer_1
 62
1
100
AcDbSpline
 70
8
 71
3
 72
8
 73
4
 74
0
 40
0
 40
0
 40
0
 40
0
 40
1
 40
1
 40
1
 40
1
 10
33.278765
 20
263.612738
 30
0.0
 10
33.100606
 20
263.790898
 30
0.0
 10
32.858970
 20
263.890987
 30
0.0
 10
32.607014
 20
263.890987
 30
0.0
  0
LINE
  5
198
100
AcDbEntity
  8
Layer_1
 62
1
100
AcDbLine
 10
32.607014
 20
263.890987
 30
0.0
 11
32.607014
 21
263.890987
 31
0.0
  0
SPLINE
  5
199
100
AcDbEntity
  8
Layer_1
 62
1
100
AcDbSpline
 70
8
 71
3
 72
8
 73
4
 74
0
 40
0
 40
0
 40
0
 40
0
 40
1
 40
1
 40
1
 40
1
 10
20.760447
 20
263.890987
 30
0.0
 10
20.376208
 20
263.890987
 30
0.0
 10
20.029803
 20
263.659527
 30
0.0
 10
19.882761
 20
263.304536
 30
0.0
  0
SPLINE
  5
19a
100
AcDbEntity
  8
Layer_1
 62
1
100
AcDbSpline
 70
8
 71
3
 72
8
 73
4
 74
0
 40
0
 40
0
 40
0
 40
0
 40
1
 40
1
 40
1
 40
1
 10
19.882761
 20
263.304536
 30
0.0
 10
19.735720
 20
262.949546
 30
0.0
 10
19.816997
 20
262.540934
 30
0.0
 10
20.088696
 20
262.269236
 30
0.0
  0
SPLINE
  5
19b
100
AcDbEntity
  8
Layer_1
 62
1
100
AcDbSpline
 70
8
 71
3
 72
8
 73
4
 74
0
 40
0
 40
0
 40
0
 40
0
 40
1
 40
1
 40
1
 40
1
 10
20.088696
 20
262.269236
 30
0.0
 10
20.360394
 20
261.997537
 30
0.0
 10
20.769006
 20
261.916260
 30
0.0
 10
21.123996
 20
262.063301
 30
0.0
  0
SPLINE
  5
19c
100
AcDbEntity
  8
Layer_1
 62
1
100
AcDbSpline
 70
8
 71
3
 72
8
 73
4
 74
0
 40
0
 40
0
 40
0
 40
0
 40
1
 40
1
 40
1
 40
1
 10
21.123996
 20
262.063301
 30
0.0
 10
21.478987
 20
262.210343
 30
0.0
 10
21.710447
 20
262.556748
 30
0.0
 10
21.710447
 20
262.940987
 30
0.0
  0
SPLINE
  5
19d
100
AcDbEntity
  8
Layer_1
 62
1
100
AcDbSpline
 70
8
 71
3
 72
8
 73
4
 74
0
 40
0
 40
0
 40
0
 40
0
 40
1
 40
1
 40
1
 40
1
 10
21.710447
 20
262.940987
 30
0.0
 10
21.710447
 20
263.192943
 30
0.0
 10
21.610358
 20
263.434579
 30
0.0
 10
21.432198
 20
263.612738
 30
0.0
  0
SPLINE
  5
19e
100
AcDbEntity
  8
Layer_1
 62
1
100
AcDbSpline
 70
8
 71
3
 72
8
 73
4
 74
0
 40
0
 40
0
 40
0
 40
0
 40
1
 40
1
 40
1
 40
1
 10
21.432198
 20
263.612738
 30
0.0
 10
21.254039
 20
263.790898
 30
0.0
 10
21.012403
 20
263.890987
 30
0.0
 10
20.760447
 20
263.890987
 30
0.0
  0
LINE
  5
19f
100
AcDbEntity
  8
Layer_1
 62
1
100
AcDbLine
 10
20.760447
 20
263.890987
 30
0.0
 11
20.760447
 21
263.890987
 31
0.0
  0
SPLINE
  5
1a0
100
AcDbEntity
  8
Layer_1
 62
1
100
AcDbSpline
 70
8
 71
3
 72
8
 73
4
 74
0
 40
0
 40
0
 40
0
 40
0
 40
1
 40
1
 40
1
 40
1
 10
26.686176
 20
263.890987
 30
0.0
 10
26.301937
 20
263.890987
 30
0.0
 10
25.955532
 20
263.659527
 30
0.0
 10
25.808490
 20
263.304536
 30
0.0
  0
SPLINE
  5
1a1
100
AcDbEntity
  8
Layer_1
 62
1
100
AcDbSpline
 70
8
 71
3
 72
8
 73
4
 74
0
 40
0
 40
0
 40
0
 40
0
 40
1
 40
1
 40
1
 40
1
 10
25.808490
 20
263.304536
 30
0.0
 10
25.661449
 20
262.949546
 30
0.0
 10
25.742726
 20
262.540934
 30
0.0
 10
26.014425
 20
262.269236
 30
0.0
  0
SPLINE
  5
1a2
100
AcDbEntity
  8
Layer_1
 62
1
100
AcDbSpline
 70
8
 71
3
 72
8
 73
4
 74
0
 40
0
 40
0
 40
0
 40
0
 40
1
 40
1
 40
1
 40
1
 10
26.014425
 20
262.269236
 30
0.0
 10
26.286123
 20
261.997537
 30
0.0
 10
26.694735
 20
261.916260
 30
0.0
 10
27.049725
 20
262.063301
 30
0.0
  0
SPLINE
  5
1a3
100
AcDbEntity
  8
Layer_1
 62
1
100
AcDbSpline
 70
8
 71
3
 72
8
 73
4
 74
0
 40
0
 40
0
 40
0
 40
0
 40
1
 40
1
 40
1
 40
1
 10
27.049725
 20
262.063301
 30
0.0
 10
27.404716
 20
262.210343
 30
0.0
 10
27.636176
 20
262.556748
 30
0.0
 10
27.636176
 20
262.940987
 30
0.0
  0
SPLINE
  5
1a4
100
AcDbEntity
  8
Layer_1
 62
1
100
AcDbSpline
 70
8
 71
3
 72
8
 73
4
 74
0
 40
0
 40
0
 40
0
 40
0
 40
1
 40
1
 40
1
 40
1
 10
27.636176
 20
262.940987
 30
0.0
 10
27.636176
 20
263.192943
 30
0.0
 10
27.536087
 20
263.434579
 30
0.0
 10
27.357927
 20
263.612738
 30
0.0
  0
SPLINE
  5
1a5
100
AcDbEntity
  8
Layer_1
 62
1
100
AcDbSpline
 70
8
 71
3
 72
8
 73
4
 74
0
 40
0
 40
0
 40
0
 40
0
 40
1
 40
1
 40
1
 40
1
 10
27.357927
 20
263.612738
 30
0.0
 10
27.179768
 20
263.790898
 30
0.0
 10
26.938132
 20
263.890987
 30
0.0
 10
26.686176
 20
263.890987
 30
0.0
  0
LINE
  5
1a6
100
AcDbEntity
  8
Layer_1
 62
1
100
AcDbLine
 10
26.686176
 20
263.890987
 30
0.0
 11
26.686176
 21
263.890987
 31
0.0
  0
SPLINE
  5
1a7
100
AcDbEntity
  8
Layer_1
 62
1
100
AcDbSpline
 70
8
 71
3
 72
8
 73
4
 74
0
 40
0
 40
0
 40
0
 40
0
 40
1
 40
1
 40
1
 40
1
 10
14.829610
 20
258.175151
 30
0.0
 10
14.445371
 20
258.175151
 30
0.0
 10
14.098966
 20
257.943691
 30
0.0
 10
13.951924
 20
257.588700
 30
0.0
  0
SPLINE
  5
1a8
100
AcDbEntity
  8
Layer_1
 62
1
100
AcDbSpline
 70
8
 71
3
 72
8
 73
4
 74
0
 40
0
 40
0
 40
0
 40
0
 40
1
 40
1
 40
1
 40
1
 10
13.951924
 20
257.588700
 30
0.0
 10
13.804883
 20
257.233710
 30
0.0
 10
13.886160
 20
256.825098
 30
0.0
 10
14.157859
 20
256.553400
 30
0.0
  0
SPLINE
  5
1a9
100
AcDbEntity
  8
Layer_1
 62
1
100
AcDbSpline
 70
8
 71
3
 72
8
 73
4
 74
0
 40
0
 40
0
 40
0
 40
0
 40
1
 40
1
 40
1
 40
1
 10
14.157859
 20
256.553400
 30
0.0
 10
14.429557
 20
256.281701
 30
0.0
 10
14.838169
 20
256.200424
 30
0.0
 10
15.193159
 20
256.347465
 30
0.0
  0
SPLINE
  5
1aa
100
AcDbEntity
  8
Layer_1
 62
1
100
AcDbSpline
 70
8
 71
3
 72
8
 73
4
 74
0
 40
0
 40
0
 40
0
 40
0
 40
1
 40
1
 40
1
 40
1
 10
15.193159
 20
256.347465
 30
0.0
 10
15.548150
 20
256.494507
 30
0.0
 10
15.779610
 20
256.840912
 30
0.0
 10
15.779610
 20
257.225151
 30
0.0
  0
SPLINE
  5
1ab
100
AcDbEntity
  8
Layer_1
 62
1
100
AcDbSpline
 70
8
 71
3
 72
8
 73
4
 74
0
 40
0
 40
0
 40
0
 40
0
 40
1
 40
1
 40
1
 40
1
 10
15.779610
 20
257.225151
 30
0.0
 10
15.779610
 20
257.477107
 30
0.0
 10
15.679521
 20
257.718743
 30
0.0
 10
15.501361
 20
257.896902
 30
0.0
  0
SPLINE
  5
1ac
100
AcDbEntity
  8
Layer_1
 62
1
100
AcDbSpline
 70
8
 71
3
 72
8
 73
4
 74
0
 40
0
 40
0
 40
0
 40
0
 40
1
 40
1
 40
1
 40
1
 10
15.501361
 20
257.896902
 30
0.0
 10
15.323202
 20
258.075062
 30
0.0
 10
15.081566
 20
258.175151
 30
0.0
 10
14.829610
 20
258.175151
 30
0.0
  0
LINE
  5
1ad
100
AcDbEntity
  8
Layer_1
 62
1
100
AcDbLine
 10
14.829610
 20
258.175151
 30
0.0
 11
14.829610
 21
258.175151
 31
0.0
  0
SPLINE
  5
1ae
100
AcDbEntity
  8
Layer_1
 62
1
100
AcDbSpline
 70
8
 71
3
 72
8
 73
4
 74
0
 40
0
 40
0
 40
0
 40
0
 40
1
 40
1
 40
1
 40
1
 10
32.607014
 20
258.175151
 30
0.0
 10
32.222775
 20
258.175151
 30
0.0
 10
31.876370
 20
257.943691
 30
0.0
 10
31.729328
 20
257.588700
 30
0.0
  0
SPLINE
  5
1af
100
AcDbEntity
  8
Layer_1
 62
1
100
AcDbSpline
 70
8
 71
3
 72
8
 73
4
 74
0
 40
0
 40
0
 40
0
 40
0
 40
1
 40
1
 40
1
 40
1
 10
31.729328
 20
257.588700
 30
0.0
 10
31.582287
 20
257.233710
 30
0.0
 10
31.663564
 20
256.825098
 30
0.0
 10
31.935263
 20
256.553400
 30
0.0
  0
SPLINE
  5
1b0
100
AcDbEntity
  8
Layer_1
 62
1
100
AcDbSpline
 70
8
 71
3
 72
8
 73
4
 74
0
 40
0
 40
0
 40
0
 40
0
 40
1
 40
1
 40
1
 40
1
 10
31.935263
 20
256.553400
 30
0.0
 10
32.206961
 20
256.281701
 30
0.0
 10
32.615573
 20
256.200424
 30
0.0
 10
32.970563
 20
256.347465
 30
0.0
  0
SPLINE
  5
1b1
100
AcDbEntity
  8
Layer_1
 62
1
100
AcDbSpline
 70
8
 71
3
 72
8
 73
4
 74
0
 40
0
 40
0
 40
0
 40
0
 40
1
 40
1
 40
1
 40
1
 10
32.970563
 20
256.347465
 30
0.0
 10
33.325554
 20
256.494507
 30
0.0
 10
33.557014
 20
256.840912
 30
0.0
 10
33.557014
 20
257.225151
 30
0.0
  0
SPLINE
  5
1b2
100
AcDbEntity
  8
Layer_1
 62
1
100
AcDbSpline
 70
8
 71
3
 72
8
 73
4
 74
0
 40
0
 40
0
 40
0
 40
0
 40
1
 40
1
 40
1
 40
1
 10
33.557014
 20
257.225151
 30
0.0
 10
33.557014
 20
257.477107
 30
0.0
 10
33.456925
 20
257.718743
 30
0.0
 10
33.278765
 20
257.896902
 30
0.0
  0
SPLINE
  5
1b3
100
AcDbEntity
  8
Layer_1
 62
1
100
AcDbSpline
 70
8
 71
3
 72
8
 73
4
 74
0
 40
0
 40
0
 40
0
 40
0
 40
1
 40
1
 40
1
 40
1
 10
33.278765
 20
257.896902
 30
0.0
 10
33.100606
 20
258.075062
 30
0.0
 10
32.858970
 20
258.175151
 30
0.0
 10
32.607014
 20
258.175151
 30
0.0
  0
LINE
  5
1b4
100
AcDbEntity
  8
Layer_1
 62
1
100
AcDbLine
 10
32.607014
 20
258.175151
 30
0.0
 11
32.607014
 21
258.175151
 31
0.0
  0
SPLINE
  5
1b5
100
AcDbEntity
  8
Layer_1
 62
1
100
AcDbSpline
 70
8
 71
3
 72
8
 73
4
 74
0
 40
0
 40
0
 40
0
 40
0
 40
1
 40
1
 40
1
 40
1
 10
20.760447
 20
258.175151
 30
0.0
 10
20.376208
 20
258.175151
 30
0.0
 10
20.029803
 20
257.943691
 30
0.0
 10
19.882761
 20
257.588700
 30
0.0
  0
SPLINE
  5
1b6
100
AcDbEntity
  8
Layer_1
 62
1
100
AcDbSpline
 70
8
 71
3
 72
8
 73
4
 74
0
 40
0
 40
0
 40
0
 40
0
 40
1
 40
1
 40
1
 40
1
 10
19.882761
 20
257.588700
 30
0.0
 10
19.735720
 20
257.233710
 30
0.0
 10
19.816997
 20
256.825098
 30
0.0
 10
20.088696
 20
256.553400
 30
0.0
  0
SPLINE
  5
1b7
100
AcDbEntity
  8
Layer_1
 62
1
100
AcDbSpline
 70
8
 71
3
 72
8
 73
4
 74
0
 40
0
 40
0
 40
0
 40
0
 40
1
 40
1
 40
1
 40
1
 10
20.088696
 20
256.553400
 30
0.0
 10
20.360394
 20
256.281701
 30
0.0
 10
20.769006
 20
256.200424
 30
0.0
 10
21.123996
 20
256.347465
 30
0.0
  0
SPLINE
  5
1b8
100
AcDbEntity
  8
Layer_1
 62
1
100
AcDbSpline
 70
8
 71
3
 72
8
 73
4
 74
0
 40
0
 40
0
 40
0
 40
0
 40
1
 40
1
 40
1
 40
1
 10
21.123996
 20
256.347465
 30
0.0
 10
21.478987
 20
256.494507
 30
0.0
 10
21.710447
 20
256.840912
 30
0.0
 10
21.710447
 20
257.225151
 30
0.0
  0
SPLINE
  5
1b9
100
AcDbEntity
  8
Layer_1
 62
1
100
AcDbSpline
 70
8
 71
3
 72
8
 73
4
 74
0
 40
0
 40
0
 40
0
 40
0
 40
1
 40
1
 40
1
 40
1
 10
21.710447
 20
257.225151
 30
0.0
 10
21.710447
 20
257.477107
 30
0.0
 10
21.610358
 20
257.718743
 30
0.0
 10
21.432198
 20
257.896902
 30
0.0
  0
SPLINE
  5
1ba
100
AcDbEntity
  8
Layer_1
 62
1
100
AcDbSpline
 70
8
 71
3
 72
8
 73
4
 74
0
 40
0
 40
0
 40
0
 40
0
 40
1
 40
1
 40
1
 40
1
 10
21.432198
 20
257.896902
 30
0.0
 10
21.254039
 20
258.075062
 30
0.0
 10
21.012403
 20
258.175151
 30
0.0
 10
20.760447
 20
258.175151
 30
0.0
  0
LINE
  5
1bb
100
AcDbEntity
  8
Layer_1
 62
1
100
AcDbLine
 10
20.760447
 20
258.175151
 30
0.0
 11
20.760447
 21
258.175151
 31
0.0
  0
SPLINE
  5
1bc
100
AcDbEntity
  8
Layer_1
 62
1
100
AcDbSpline
 70
8
 71
3
 72
8
 73
4
 74
0
 40
0
 40
0
 40
0
 40
0
 40
1
 40
1
 40
1
 40
1
 10
26.686176
 20
258.175151
 30
0.0
 10
26.301937
 20
258.175151
 30
0.0
 10
25.955532
 20
257.943691
 30
0.0
 10
25.808490
 20
257.588700
 30
0.0
  0
SPLINE
  5
1bd
100
AcDbEntity
  8
Layer_1
 62
1
100
AcDbSpline
 70
8
 71
3
 72
8
 73
4
 74
0
 40
0
 40
0
 40
0
 40
0
 40
1
 40
1
 40
1
 40
1
 10
25.808490
 20
257.588700
 30
0.0
 10
25.661449
 20
257.233710
 30
0.0
 10
25.742726
 20
256.825098
 30
0.0
 10
26.014425
 20
256.553400
 30
0.0
  0
SPLINE
  5
1be
100
AcDbEntity
  8
Layer_1
 62
1
100
AcDbSpline
 70
8
 71
3
 72
8
 73
4
 74
0
 40
0
 40
0
 40
0
 40
0
 40
1
 40
1
 40
1
 40
1
 10
26.014425
 20
256.553400
 30
0.0
 10
26.286123
 20
256.281701
 30
0.0
 10
26.694735
 20
256.200424
 30
0.0
 10
27.049725
 20
256.347465
 30
0.0
  0
SPLINE
  5
1bf
100
AcDbEntity
  8
Layer_1
 62
1
100
AcDbSpline
 70
8
 71
3
 72
8
 73
4
 74
0
 40
0
 40
0
 40
0
 40
0
 40
1
 40
1
 40
1
 40
1
 10
27.049725
 20
256.347465
 30
0.0
 10
27.404716
 20
256.494507
 30
0.0
 10
27.636176
 20
256.840912
 30
0.0
 10
27.636176
 20
257.225151
 30
0.0
  0
SPLINE
  5
1c0
100
AcDbEntity
  8
Layer_1
 62
1
100
AcDbSpline
 70
8
 71
3
 72
8
 73
4
 74
0
 40
0
 40
0
 40
0
 40
0
 40
1
 40
1
 40
1
 40
1
 10
27.636176
 20
257.225151
 30
0.0
 10
27.636176
 20
257.477107
 30
0.0
 10
27.536087
 20
257.718743
 30
0.0
 10
27.357927
 20
257.896902
 30
0.0
  0
SPLINE
  5
1c1
100
AcDbEntity
  8
Layer_1
 62
1
100
AcDbSpline
 70
8
 71
3
 72
8
 73
4
 74
0
 40
0
 40
0
 40
0
 40
0
 40
1
 40
1
 40
1
 40
1
 10
27.357927
 20
257.896902
 30
0.0
 10
27.179768
 20
258.075062
 30
0.0
 10
26.938132
 20
258.175151
 30
0.0
 10
26.686176
 20
258.175151
 30
0.0
  0
LINE
  5
1c2
100
AcDbEntity
  8
Layer_1
 62
1
100
AcDbLine
 10
26.686176
 20
258.175151
 30
0.0
 11
26.686176
 21
258.175151
 31
0.0
  0
SPLINE
  5
1c3
100
AcDbEntity
  8
Layer_1
 62
1
100
AcDbSpline
 70
8
 71
3
 72
8
 73
4
 74
0
 40
0
 40
0
 40
0
 40
0
 40
1
 40
1
 40
1
 40
1
 10
14.829610
 20
252.459315
 30
0.0
 10
14.445371
 20
252.459315
 30
0.0
 10
14.098966
 20
252.227855
 30
0.0
 10
13.951924
 20
251.872864
 30
0.0
  0
SPLINE
  5
1c4
100
AcDbEntity
  8
Layer_1
 62
1
100
AcDbSpline
 70
8
 71
3
 72
8
 73
4
 74
0
 40
0
 40
0
 40
0
 40
0
 40
1
 40
1
 40
1
 40
1
 10
13.951924
 20
251.872864
 30
0.0
 10
13.804883
 20
251.517874
 30
0.0
 10
13.886160
 20
251.109262
 30
0.0
 10
14.157859
 20
250.837564
 30
0.0
  0
SPLINE
  5
1c5
100
AcDbEntity
  8
Layer_1
 62
1
100
AcDbSpline
 70
8
 71
3
 72
8
 73
4
 74
0
 40
0
 40
0
 40
0
 40
0
 40
1
 40
1
 40
1
 40
1
 10
14.157859
 20
250.837564
 30
0.0
 10
14.429557
 20
250.565865
 30
0.0
 10
14.838169
 20
250.484588
 30
0.0
 10
15.193159
 20
250.631629
 30
0.0
  0
SPLINE
  5
1c6
100
AcDbEntity
  8
Layer_1
 62
1
100
AcDbSpline
 70
8
 71
3
 72
8
 73
4
 74
0
 40
0
 40
0
 40
0
 40
0
 40
1
 40
1
 40
1
 40
1
 10
15.193159
 20
250.631629
 30
0.0
 10
15.548150
 20
250.778671
 30
0.0
 10
15.779610
 20
251.125076
 30
0.0
 10
15.779610
 20
251.509315
 30
0.0
  0
SPLINE
  5
1c7
100
AcDbEntity
  8
Layer_1
 62
1
100
AcDbSpline
 70
8
 71
3
 72
8
 73
4
 74
0
 40
0
 40
0
 40
0
 40
0
 40
1
 40
1
 40
1
 40
1
 10
15.779610
 20
251.509315
 30
0.0
 10
15.779610
 20
251.761271
 30
0.0
 10
15.679521
 20
252.002907
 30
0.0
 10
15.501361
 20
252.181066
 30
0.0
  0
SPLINE
  5
1c8
100
AcDbEntity
  8
Layer_1
 62
1
100
AcDbSpline
 70
8
 71
3
 72
8
 73
4
 74
0
 40
0
 40
0
 40
0
 40
0
 40
1
 40
1
 40
1
 40
1
 10
15.501361
 20
252.181066
 30
0.0
 10
15.323202
 20
252.359226
 30
0.0
 10
15.081566
 20
252.459315
 30
0.0
 10
14.829610
 20
252.459315
 30
0.0
  0
LINE
  5
1c9
100
AcDbEntity
  8
Layer_1
 62
1
100
AcDbLine
 10
14.829610
 20
252.459315
 30
0.0
 11
14.829610
 21
252.459315
 31
0.0
  0
SPLINE
  5
1ca
100
AcDbEntity
  8
Layer_1
 62
1
100
AcDbSpline
 70
8
 71
3
 72
8
 73
4
 74
0
 40
0
 40
0
 40
0
 40
0
 40
1
 40
1
 40
1
 40
1
 10
32.607014
 20
252.459315
 30
0.0
 10
32.222775
 20
252.459315
 30
0.0
 10
31.876370
 20
252.227855
 30
0.0
 10
31.729328
 20
251.872864
 30
0.0
  0
SPLINE
  5
1cb
100
AcDbEntity
  8
Layer_1
 62
1
100
AcDbSpline
 70
8
 71
3
 72
8
 73
4
 74
0
 40
0
 40
0
 40
0
 40
0
 40
1
 40
1
 40
1
 40
1
 10
31.729328
 20
251.872864
 30
0.0
 10
31.582287
 20
251.517874
 30
0.0
 10
31.663564
 20
251.109262
 30
0.0
 10
31.935263
 20
250.837564
 30
0.0
  0
SPLINE
  5
1cc
100
AcDbEntity
  8
Layer_1
 62
1
100
AcDbSpline
 70
8
 71
3
 72
8
 73
4
 74
0
 40
0
 40
0
 40
0
 40
0
 40
1
 40
1
 40
1
 40
1
 10
31.935263
 20
250.837564
 30
0.0
 10
32.206961
 20
250.565865
 30
0.0
 10
32.615573
 20
250.484588
 30
0.0
 10
32.970563
 20
250.631629
 30
0.0
  0
SPLINE
  5
1cd
100
AcDbEntity
  8
Layer_1
 62
1
100
AcDbSpline
 70
8
 71
3
 72
8
 73
4
 74
0
 40
0
 40
0
 40
0
 40
0
 40
1
 40
1
 40
1
 40
1
 10
32.970563
 20
250.631629
 30
0.0
 10
33.325554
 20
250.778671
 30
0.0
 10
33.557014
 20
251.125076
 30
0.0
 10
33.557014
 20
251.509315
 30
0.0
  0
SPLINE
  5
1ce
100
AcDbEntity
  8
Layer_1
 62
1
100
AcDbSpline
 70
8
 71
3
 72
8
 73
4
 74
0
 40
0
 40
0
 40
0
 40
0
 40
1
 40
1
 40
1
 40
1
 10
33.557014
 20
251.509315
 30
0.0
 10
33.557014
 20
251.761271
 30
0.0
 10
33.456925
 20
252.002907
 30
0.0
 10
33.278765
 20
252.181066
 30
0.0
  0
SPLINE
  5
1cf
100
AcDbEntity
  8
Layer_1
 62
1
100
AcDbSpline
 70
8
 71
3
 72
8
 73
4
 74
0
 40
0
 40
0
 40
0
 40
0
 40
1
 40
1
 40
1
 40
1
 10
33.278765
 20
252.181066
 30
0.0
 10
33.100606
 20
252.359226
 30
0.0
 10
32.858970
 20
252.459315
 30
0.0
 10
32.607014
 20
252.459315
 30
0.0
  0
LINE
  5
1d0
100
AcDbEntity
  8
Layer_1
 62
1
100
AcDbLine
 10
32.607014
 20
252.459315
 30
0.0
 11
32.607014
 21
252.459315
 31
0.0
  0
SPLINE
  5
1d1
100
AcDbEntity
  8
Layer_1
 62
1
100
AcDbSpline
 70
8
 71
3
 72
8
 73
4
 74
0
 40
0
 40
0
 40
0
 40
0
 40
1
 40
1
 40
1
 40
1
 10
20.760447
 20
252.459315
 30
0.0
 10
20.376208
 20
252.459315
 30
0.0
 10
20.029803
 20
252.227855
 30
0.0
 10
19.882761
 20
251.872864
 30
0.0
  0
SPLINE
  5
1d2
100
AcDbEntity
  8
Layer_1
 62
1
100
AcDbSpline
 70
8
 71
3
 72
8
 73
4
 74
0
 40
0
 40
0
 40
0
 40
0
 40
1
 40
1
 40
1
 40
1
 10
19.882761
 20
251.872864
 30
0.0
 10
19.735720
 20
251.517874
 30
0.0
 10
19.816997
 20
251.109262
 30
0.0
 10
20.088696
 20
250.837564
 30
0.0
  0
SPLINE
  5
1d3
100
AcDbEntity
  8
Layer_1
 62
1
100
AcDbSpline
 70
8
 71
3
 72
8
 73
4
 74
0
 40
0
 40
0
 40
0
 40
0
 40
1
 40
1
 40
1
 40
1
 10
20.088696
 20
250.837564
 30
0.0
 10
20.360394
 20
250.565865
 30
0.0
 10
20.769006
 20
250.484588
 30
0.0
 10
21.123996
 20
250.631629
 30
0.0
  0
SPLINE
  5
1d4
100
AcDbEntity
  8
Layer_1
 62
1
100
AcDbSpline
 70
8
 71
3
 72
8
 73
4
 74
0
 40
0
 40
0
 40
0
 40
0
 40
1
 40
1
 40
1
 40
1
 10
21.123996
 20
250.631629
 30
0.0
 10
21.478987
 20
250.778671
 30
0.0
 10
21.710447
 20
251.125076
 30
0.0
 10
21.710447
 20
251.509315
 30
0.0
  0
SPLINE
  5
1d5
100
AcDbEntity
  8
Layer_1
 62
1
100
AcDbSpline
 70
8
 71
3
 72
8
 73
4
 74
0
 40
0
 40
0
 40
0
 40
0
 40
1
 40
1
 40
1
 40
1
 10
21.710447
 20
251.509315
 30
0.0
 10
21.710447
 20
251.761271
 30
0.0
 10
21.610358
 20
252.002907
 30
0.0
 10
21.432198
 20
252.181066
 30
0.0
  0
SPLINE
  5
1d6
100
AcDbEntity
  8
Layer_1
 62
1
100
AcDbSpline
 70
8
 71
3
 72
8
 73
4
 74
0
 40
0
 40
0
 40
0
 40
0
 40
1
 40
1
 40
1
 40
1
 10
21.432198
 20
252.181066
 30
0.0
 10
21.254039
 20
252.359226
 30
0.0
 10
21.012403
 20
252.459315
 30
0.0
 10
20.760447
 20
252.459315
 30
0.0
  0
LINE
  5
1d7
100
AcDbEntity
  8
Layer_1
 62
1
100
AcDbLine
 10
20.760447
 20
252.459315
 30
0.0
 11
20.760447
 21
252.459315
 31
0.0
  0
SPLINE
  5
1d8
100
AcDbEntity
  8
Layer_1
 62
1
100
AcDbSpline
 70
8
 71
3
 72
8
 73
4
 74
0
 40
0
 40
0
 40
0
 40
0
 40
1
 40
1
 40
1
 40
1
 10
26.686176
 20
252.459315
 30
0.0
 10
26.301937
 20
252.459315
 30
0.0
 10
25.955532
 20
252.227855
 30
0.0
 10
25.808490
 20
251.872864
 30
0.0
  0
SPLINE
  5
1d9
100
AcDbEntity
  8
Layer_1
 62
1
100
AcDbSpline
 70
8
 71
3
 72
8
 73
4
 74
0
 40
0
 40
0
 40
0
 40
0
 40
1
 40
1
 40
1
 40
1
 10
25.808490
 20
251.872864
 30
0.0
 10
25.661449
 20
251.517874
 30
0.0
 10
25.742726
 20
251.109262
 30
0.0
 10
26.014425
 20
250.837564
 30
0.0
  0
SPLINE
  5
1da
100
AcDbEntity
  8
Layer_1
 62
1
100
AcDbSpline
 70
8
 71
3
 72
8
 73
4
 74
0
 40
0
 40
0
 40
0
 40
0
 40
1
 40
1
 40
1
 40
1
 10
26.014425
 20
250.837564
 30
0.0
 10
26.286123
 20
250.565865
 30
0.0
 10
26.694735
 20
250.484588
 30
0.0
 10
27.049725
 20
250.631629
 30
0.0
  0
SPLINE
  5
1db
100
AcDbEntity
  8
Layer_1
 62
1
100
AcDbSpline
 70
8
 71
3
 72
8
 73
4
 74
0
 40
0
 40
0
 40
0
 40
0
 40
1
 40
1
 40
1
 40
1
 10
27.049725
 20
250.631629
 30
0.0
 10
27.404716
 20
250.778671
 30
0.0
 10
27.636176
 20
251.125076
 30
0.0
 10
27.636176
 20
251.509315
 30
0.0
  0
SPLINE
  5
1dc
100
AcDbEntity
  8
Layer_1
 62
1
100
AcDbSpline
 70
8
 71
3
 72
8
 73
4
 74
0
 40
0
 40
0
 40
0
 40
0
 40
1
 40
1
 40
1
 40
1
 10
27.636176
 20
251.509315
 30
0.0
 10
27.636176
 20
251.761271
 30
0.0
 10
27.536087
 20
252.002907
 30
0.0
 10
27.357927
 20
252.181066
 30
0.0
  0
SPLINE
  5
1dd
100
AcDbEntity
  8
Layer_1
 62
1
100
AcDbSpline
 70
8
 71
3
 72
8
 73
4
 74
0
 40
0
 40
0
 40
0
 40
0
 40
1
 40
1
 40
1
 40
1
 10
27.357927
 20
252.181066
 30
0.0
 10
27.179768
 20
252.359226
 30
0.0
 10
26.938132
 20
252.459315
 30
0.0
 10
26.686176
 20
252.459315
 30
0.0
  0
LINE
  5
1de
100
AcDbEntity
  8
Layer_1
 62
1
100
AcDbLine
 10
26.686176
 20
252.459315
 30
0.0
 11
26.686176
 21
252.459315
 31
0.0
  0
SPLINE
  5
1df
100
AcDbEntity
  8
Layer_1
 62
1
100
AcDbSpline
 70
8
 71
3
 72
8
 73
4
 74
0
 40
0
 40
0
 40
0
 40
0
 40
1
 40
1
 40
1
 40
1
 10
14.829610
 20
246.743480
 30
0.0
 10
14.445371
 20
246.743480
 30
0.0
 10
14.098966
 20
246.512020
 30
0.0
 10
13.951924
 20
246.157029
 30
0.0
  0
SPLINE
  5
1e0
100
AcDbEntity
  8
Layer_1
 62
1
100
AcDbSpline
 70
8
 71
3
 72
8
 73
4
 74
0
 40
0
 40
0
 40
0
 40
0
 40
1
 40
1
 40
1
 40
1
 10
13.951924
 20
246.157029
 30
0.0
 10
13.804883
 20
245.802039
 30
0.0
 10
13.886160
 20
245.393427
 30
0.0
 10
14.157859
 20
245.121729
 30
0.0
  0
SPLINE
  5
1e1
100
AcDbEntity
  8
Layer_1
 62
1
100
AcDbSpline
 70
8
 71
3
 72
8
 73
4
 74
0
 40
0
 40
0
 40
0
 40
0
 40
1
 40
1
 40
1
 40
1
 10
14.157859
 20
245.121729
 30
0.0
 10
14.429557
 20
244.850030
 30
0.0
 10
14.838169
 20
244.768753
 30
0.0
 10
15.193159
 20
244.915794
 30
0.0
  0
SPLINE
  5
1e2
100
AcDbEntity
  8
Layer_1
 62
1
100
AcDbSpline
 70
8
 71
3
 72
8
 73
4
 74
0
 40
0
 40
0
 40
0
 40
0
 40
1
 40
1
 40
1
 40
1
 10
15.193159
 20
244.915794
 30
0.0
 10
15.548150
 20
245.062836
 30
0.0
 10
15.779610
 20
245.409241
 30
0.0
 10
15.779610
 20
245.793480
 30
0.0
  0
SPLINE
  5
1e3
100
AcDbEntity
  8
Layer_1
 62
1
100
AcDbSpline
 70
8
 71
3
 72
8
 73
4
 74
0
 40
0
 40
0
 40
0
 40
0
 40
1
 40
1
 40
1
 40
1
 10
15.779610
 20
245.793480
 30
0.0
 10
15.779610
 20
246.045436
 30
0.0
 10
15.679521
 20
246.287072
 30
0.0
 10
15.501361
 20
246.465231
 30
0.0
  0
SPLINE
  5
1e4
100
AcDbEntity
  8
Layer_1
 62
1
100
AcDbSpline
 70
8
 71
3
 72
8
 73
4
 74
0
 40
0
 40
0
 40
0
 40
0
 40
1
 40
1
 40
1
 40
1
 10
15.501361
 20
246.465231
 30
0.0
 10
15.323202
 20
246.643391
 30
0.0
 10
15.081566
 20
246.743480
 30
0.0
 10
14.829610
 20
246.743480
 30
0.0
  0
LINE
  5
1e5
100
AcDbEntity
  8
Layer_1
 62
1
100
AcDbLine
 10
14.829610
 20
246.743480
 30
0.0
 11
14.829610
 21
246.743480
 31
0.0
  0
SPLINE
  5
1e6
100
AcDbEntity
  8
Layer_1
 62
1
100
AcDbSpline
 70
8
 71
3
 72
8
 73
4
 74
0
 40
0
 40
0
 40
0
 40
0
 40
1
 40
1
 40
1
 40
1
 10
32.607014
 20
246.743480
 30
0.0
 10
32.222775
 20
246.743480
 30
0.0
 10
31.876370
 20
246.512020
 30
0.0
 10
31.729328
 20
246.157029
 30
0.0
  0
SPLINE
  5
1e7
100
AcDbEntity
  8
Layer_1
 62
1
100
AcDbSpline
 70
8
 71
3
 72
8
 73
4
 74
0
 40
0
 40
0
 40
0
 40
0
 40
1
 40
1
 40
1
 40
1
 10
31.729328
 20
246.157029
 30
0.0
 10
31.582287
 20
245.802039
 30
0.0
 10
31.663564
 20
245.393427
 30
0.0
 10
31.935263
 20
245.121729
 30
0.0
  0
SPLINE
  5
1e8
100
AcDbEntity
  8
Layer_1
 62
1
100
AcDbSpline
 70
8
 71
3
 72
8
 73
4
 74
0
 40
0
 40
0
 40
0
 40
0
 40
1
 40
1
 40
1
 40
1
 10
31.935263
 20
245.121729
 30
0.0
 10
32.206961
 20
244.850030
 30
0.0
 10
32.615573
 20
244.768753
 30
0.0
 10
32.970563
 20
244.915794
 30
0.0
  0
SPLINE
  5
1e9
100
AcDbEntity
  8
Layer_1
 62
1
100
AcDbSpline
 70
8
 71
3
 72
8
 73
4
 74
0
 40
0
 40
0
 40
0
 40
0
 40
1
 40
1
 40
1
 40
1
 10
32.970563
 20
244.915794
 30
0.0
 10
33.325554
 20
245.062836
 30
0.0
 10
33.557014
 20
245.409241
 30
0.0
 10
33.557014
 20
245.793480
 30
0.0
  0
SPLINE
  5
1ea
100
AcDbEntity
  8
Layer_1
 62
1
100
AcDbSpline
 70
8
 71
3
 72
8
 73
4
 74
0
 40
0
 40
0
 40
0
 40
0
 40
1
 40
1
 40
1
 40
1
 10
33.557014
 20
245.793480
 30
0.0
 10
33.557014
 20
246.045436
 30
0.0
 10
33.456925
 20
246.287072
 30
0.0
 10
33.278765
 20
246.465231
 30
0.0
  0
SPLINE
  5
1eb
100
AcDbEntity
  8
Layer_1
 62
1
100
AcDbSpline
 70
8
 71
3
 72
8
 73
4
 74
0
 40
0
 40
0
 40
0
 40
0
 40
1
 40
1
 40
1
 40
1
 10
33.278765
 20
246.465231
 30
0.0
 10
33.100606
 20
246.643391
 30
0.0
 10
32.858970
 20
246.743480
 30
0.0
 10
32.607014
 20
246.743480
 30
0.0
  0
LINE
  5
1ec
100
AcDbEntity
  8
Layer_1
 62
1
100
AcDbLine
 10
32.607014
 20
246.743480
 30
0.0
 11
32.607014
 21
246.743480
 31
0.0
  0
SPLINE
  5
1ed
100
AcDbEntity
  8
Layer_1
 62
1
100
AcDbSpline
 70
8
 71
3
 72
8
 73
4
 74
0
 40
0
 40
0
 40
0
 40
0
 40
1
 40
1
 40
1
 40
1
 10
20.760447
 20
246.743480
 30
0.0
 10
20.376208
 20
246.743480
 30
0.0
 10
20.029803
 20
246.512020
 30
0.0
 10
19.882761
 20
246.157029
 30
0.0
  0
SPLINE
  5
1ee
100
AcDbEntity
  8
Layer_1
 62
1
100
AcDbSpline
 70
8
 71
3
 72
8
 73
4
 74
0
 40
0
 40
0
 40
0
 40
0
 40
1
 40
1
 40
1
 40
1
 10
19.882761
 20
246.157029
 30
0.0
 10
19.735720
 20
245.802039
 30
0.0
 10
19.816997
 20
245.393427
 30
0.0
 10
20.088696
 20
245.121729
 30
0.0
  0
SPLINE
  5
1ef
100
AcDbEntity
  8
Layer_1
 62
1
100
AcDbSpline
 70
8
 71
3
 72
8
 73
4
 74
0
 40
0
 40
0
 40
0
 40
0
 40
1
 40
1
 40
1
 40
1
 10
20.088696
 20
245.121729
 30
0.0
 10
20.360394
 20
244.850030
 30
0.0
 10
20.769006
 20
244.768753
 30
0.0
 10
21.123996
 20
244.915794
 30
0.0
  0
SPLINE
  5
1f0
100
AcDbEntity
  8
Layer_1
 62
1
100
AcDbSpline
 70
8
 71
3
 72
8
 73
4
 74
0
 40
0
 40
0
 40
0
 40
0
 40
1
 40
1
 40
1
 40
1
 10
21.123996
 20
244.915794
 30
0.0
 10
21.478987
 20
245.062836
 30
0.0
 10
21.710447
 20
245.409241
 30
0.0
 10
21.710447
 20
245.793480
 30
0.0
  0
SPLINE
  5
1f1
100
AcDbEntity
  8
Layer_1
 62
1
100
AcDbSpline
 70
8
 71
3
 72
8
 73
4
 74
0
 40
0
 40
0
 40
0
 40
0
 40
1
 40
1
 40
1
 40
1
 10
21.710447
 20
245.793480
 30
0.0
 10
21.710447
 20
246.045436
 30
0.0
 10
21.610358
 20
246.287072
 30
0.0
 10
21.432198
 20
246.465231
 30
0.0
  0
SPLINE
  5
1f2
100
AcDbEntity
  8
Layer_1
 62
1
100
AcDbSpline
 70
8
 71
3
 72
8
 73
4
 74
0
 40
0
 40
0
 40
0
 40
0
 40
1
 40
1
 40
1
 40
1
 10
21.432198
 20
246.465231
 30
0.0
 10
21.254039
 20
246.643391
 30
0.0
 10
21.012403
 20
246.743480
 30
0.0
 10
20.760447
 20
246.743480
 30
0.0
  0
LINE
  5
1f3
100
AcDbEntity
  8
Layer_1
 62
1
100
AcDbLine
 10
20.760447
 20
246.743480
 30
0.0
 11
20.760447
 21
246.743480
 31
0.0
  0
SPLINE
  5
1f4
100
AcDbEntity
  8
Layer_1
 62
1
100
AcDbSpline
 70
8
 71
3
 72
8
 73
4
 74
0
 40
0
 40
0
 40
0
 40
0
 40
1
 40
1
 40
1
 40
1
 10
26.686176
 20
246.743480
 30
0.0
 10
26.301937
 20
246.743480
 30
0.0
 10
25.955532
 20
246.512020
 30
0.0
 10
25.808490
 20
246.157029
 30
0.0
  0
SPLINE
  5
1f5
100
AcDbEntity
  8
Layer_1
 62
1
100
AcDbSpline
 70
8
 71
3
 72
8
 73
4
 74
0
 40
0
 40
0
 40
0
 40
0
 40
1
 40
1
 40
1
 40
1
 10
25.808490
 20
246.157029
 30
0.0
 10
25.661449
 20
245.802039
 30
0.0
 10
25.742726
 20
245.393427
 30
0.0
 10
26.014425
 20
245.121729
 30
0.0
  0
SPLINE
  5
1f6
100
AcDbEntity
  8
Layer_1
 62
1
100
AcDbSpline
 70
8
 71
3
 72
8
 73
4
 74
0
 40
0
 40
0
 40
0
 40
0
 40
1
 40
1
 40
1
 40
1
 10
26.014425
 20
245.121729
 30
0.0
 10
26.286123
 20
244.850030
 30
0.0
 10
26.694735
 20
244.768753
 30
0.0
 10
27.049725
 20
244.915794
 30
0.0
  0
SPLINE
  5
1f7
100
AcDbEntity
  8
Layer_1
 62
1
100
AcDbSpline
 70
8
 71
3
 72
8
 73
4
 74
0
 40
0
 40
0
 40
0
 40
0
 40
1
 40
1
 40
1
 40
1
 10
27.049725
 20
244.915794
 30
0.0
 10
27.404716
 20
245.062836
 30
0.0
 10
27.636176
 20
245.409241
 30
0.0
 10
27.636176
 20
245.793480
 30
0.0
  0
SPLINE
  5
1f8
100
AcDbEntity
  8
Layer_1
 62
1
100
AcDbSpline
 70
8
 71
3
 72
8
 73
4
 74
0
 40
0
 40
0
 40
0
 40
0
 40
1
 40
1
 40
1
 40
1
 10
27.636176
 20
245.793480
 30
0.0
 10
27.636176
 20
246.045436
 30
0.0
 10
27.536087
 20
246.287072
 30
0.0
 10
27.357927
 20
246.465231
 30
0.0
  0
SPLINE
  5
1f9
100
AcDbEntity
  8
Layer_1
 62
1
100
AcDbSpline
 70
8
 71
3
 72
8
 73
4
 74
0
 40
0
 40
0
 40
0
 40
0
 40
1
 40
1
 40
1
 40
1
 10
27.357927
 20
246.465231
 30
0.0
 10
27.179768
 20
246.643391
 30
0.0
 10
26.938132
 20
246.743480
 30
0.0
 10
26.686176
 20
246.743480
 30
0.0
  0
LINE
  5
1fa
100
AcDbEntity
  8
Layer_1
 62
1
100
AcDbLine
 10
26.686176
 20
246.743480
 30
0.0
 11
26.686176
 21
246.743480
 31
0.0
  0
SPLINE
  5
1fb
100
AcDbEntity
  8
Layer_1
 62
1
100
AcDbSpline
 70
8
 71
3
 72
8
 73
4
 74
0
 40
0
 40
0
 40
0
 40
0
 40
1
 40
1
 40
1
 40
1
 10
14.829610
 20
241.027644
 30
0.0
 10
14.445371
 20
241.027644
 30
0.0
 10
14.098966
 20
240.796184
 30
0.0
 10
13.951924
 20
240.441193
 30
0.0
  0
SPLINE
  5
1fc
100
AcDbEntity
  8
Layer_1
 62
1
100
AcDbSpline
 70
8
 71
3
 72
8
 73
4
 74
0
 40
0
 40
0
 40
0
 40
0
 40
1
 40
1
 40
1
 40
1
 10
13.951924
 20
240.441193
 30
0.0
 10
13.804883
 20
240.086203
 30
0.0
 10
13.886160
 20
239.677591
 30
0.0
 10
14.157859
 20
239.405893
 30
0.0
  0
SPLINE
  5
1fd
100
AcDbEntity
  8
Layer_1
 62
1
100
AcDbSpline
 70
8
 71
3
 72
8
 73
4
 74
0
 40
0
 40
0
 40
0
 40
0
 40
1
 40
1
 40
1
 40
1
 10
14.157859
 20
239.405893
 30
0.0
 10
14.429557
 20
239.134194
 30
0.0
 10
14.838169
 20
239.052917
 30
0.0
 10
15.193159
 20
239.199958
 30
0.0
  0
SPLINE
  5
1fe
100
AcDbEntity
  8
Layer_1
 62
1
100
AcDbSpline
 70
8
 71
3
 72
8
 73
4
 74
0
 40
0
 40
0
 40
0
 40
0
 40
1
 40
1
 40
1
 40
1
 10
15.193159
 20
239.199958
 30
0.0
 10
15.548150
 20
239.347000
 30
0.0
 10
15.779610
 20
239.693405
 30
0.0
 10
15.779610
 20
240.077644
 30
0.0
  0
SPLINE
  5
1ff
100
AcDbEntity
  8
Layer_1
 62
1
100
AcDbSpline
 70
8
 71
3
 72
8
 73
4
 74
0
 40
0
 40
0
 40
0
 40
0
 40
1
 40
1
 40
1
 40
1
 10
15.779610
 20
240.077644
 30
0.0
 10
15.779610
 20
240.329600
 30
0.0
 10
15.679521
 20
240.571236
 30
0.0
 10
15.501361
 20
240.749395
 30
0.0
  0
SPLINE
  5
200
100
AcDbEntity
  8
Layer_1
 62
1
100
AcDbSpline
 70
8
 71
3
 72
8
 73
4
 74
0
 40
0
 40
0
 40
0
 40
0
 40
1
 40
1
 40
1
 40
1
 10
15.501361
 20
240.749395
 30
0.0
 10
15.323202
 20
240.927555
 30
0.0
 10
15.081566
 20
241.027644
 30
0.0
 10
14.829610
 20
241.027644
 30
0.0
  0
LINE
  5
201
100
AcDbEntity
  8
Layer_1
 62
1
100
AcDbLine
 10
14.829610
 20
241.027644
 30
0.0
 11
14.829610
 21
241.027644
 31
0.0
  0
SPLINE
  5
202
100
AcDbEntity
  8
Layer_1
 62
1
100
AcDbSpline
 70
8
 71
3
 72
8
 73
4
 74
0
 40
0
 40
0
 40
0
 40
0
 40
1
 40
1
 40
1
 40
1
 10
32.607014
 20
241.027644
 30
0.0
 10
32.222775
 20
241.027644
 30
0.0
 10
31.876370
 20
240.796184
 30
0.0
 10
31.729328
 20
240.441193
 30
0.0
  0
SPLINE
  5
203
100
AcDbEntity
  8
Layer_1
 62
1
100
AcDbSpline
 70
8
 71
3
 72
8
 73
4
 74
0
 40
0
 40
0
 40
0
 40
0
 40
1
 40
1
 40
1
 40
1
 10
31.729328
 20
240.441193
 30
0.0
 10
31.582287
 20
240.086203
 30
0.0
 10
31.663564
 20
239.677591
 30
0.0
 10
31.935263
 20
239.405893
 30
0.0
  0
SPLINE
  5
204
100
AcDbEntity
  8
Layer_1
 62
1
100
AcDbSpline
 70
8
 71
3
 72
8
 73
4
 74
0
 40
0
 40
0
 40
0
 40
0
 40
1
 40
1
 40
1
 40
1
 10
31.935263
 20
239.405893
 30
0.0
 10
32.206961
 20
239.134194
 30
0.0
 10
32.615573
 20
239.052917
 30
0.0
 10
32.970563
 20
239.199958
 30
0.0
  0
SPLINE
  5
205
100
AcDbEntity
  8
Layer_1
 62
1
100
AcDbSpline
 70
8
 71
3
 72
8
 73
4
 74
0
 40
0
 40
0
 40
0
 40
0
 40
1
 40
1
 40
1
 40
1
 10
32.970563
 20
239.199958
 30
0.0
 10
33.325554
 20
239.347000
 30
0.0
 10
33.557014
 20
239.693405
 30
0.0
 10
33.557014
 20
240.077644
 30
0.0
  0
SPLINE
  5
206
100
AcDbEntity
  8
Layer_1
 62
1
100
AcDbSpline
 70
8
 71
3
 72
8
 73
4
 74
0
 40
0
 40
0
 40
0
 40
0
 40
1
 40
1
 40
1
 40
1
 10
33.557014
 20
240.077644
 30
0.0
 10
33.557014
 20
240.329600
 30
0.0
 10
33.456925
 20
240.571236
 30
0.0
 10
33.278765
 20
240.749395
 30
0.0
  0
SPLINE
  5
207
100
AcDbEntity
  8
Layer_1
 62
1
100
AcDbSpline
 70
8
 71
3
 72
8
 73
4
 74
0
 40
0
 40
0
 40
0
 40
0
 40
1
 40
1
 40
1
 40
1
 10
33.278765
 20
240.749395
 30
0.0
 10
33.100606
 20
240.927555
 30
0.0
 10
32.858970
 20
241.027644
 30
0.0
 10
32.607014
 20
241.027644
 30
0.0
  0
LINE
  5
208
100
AcDbEntity
  8
Layer_1
 62
1
100
AcDbLine
 10
32.607014
 20
241.027644
 30
0.0
 11
32.607014
 21
241.027644
 31
0.0
  0
SPLINE
  5
209
100
AcDbEntity
  8
Layer_1
 62
1
100
AcDbSpline
 70
8
 71
3
 72
8
 73
4
 74
0
 40
0
 40
0
 40
0
 40
0
 40
1
 40
1
 40
1
 40
1
 10
20.760447
 20
241.027644
 30
0.0
 10
20.376208
 20
241.027644
 30
0.0
 10
20.029803
 20
240.796184
 30
0.0
 10
19.882761
 20
240.441193
 30
0.0
  0
SPLINE
  5
20a
100
AcDbEntity
  8
Layer_1
 62
1
100
AcDbSpline
 70
8
 71
3
 72
8
 73
4
 74
0
 40
0
 40
0
 40
0
 40
0
 40
1
 40
1
 40
1
 40
1
 10
19.882761
 20
240.441193
 30
0.0
 10
19.735720
 20
240.086203
 30
0.0
 10
19.816997
 20
239.677591
 30
0.0
 10
20.088696
 20
239.405893
 30
0.0
  0
SPLINE
  5
20b
100
AcDbEntity
  8
Layer_1
 62
1
100
AcDbSpline
 70
8
 71
3
 72
8
 73
4
 74
0
 40
0
 40
0
 40
0
 40
0
 40
1
 40
1
 40
1
 40
1
 10
20.088696
 20
239.405893
 30
0.0
 10
20.360394
 20
239.134194
 30
0.0
 10
20.769006
 20
239.052917
 30
0.0
 10
21.123996
 20
239.199958
 30
0.0
  0
SPLINE
  5
20c
100
AcDbEntity
  8
Layer_1
 62
1
100
AcDbSpline
 70
8
 71
3
 72
8
 73
4
 74
0
 40
0
 40
0
 40
0
 40
0
 40
1
 40
1
 40
1
 40
1
 10
21.123996
 20
239.199958
 30
0.0
 10
21.478987
 20
239.347000
 30
0.0
 10
21.710447
 20
239.693405
 30
0.0
 10
21.710447
 20
240.077644
 30
0.0
  0
SPLINE
  5
20d
100
AcDbEntity
  8
Layer_1
 62
1
100
AcDbSpline
 70
8
 71
3
 72
8
 73
4
 74
0
 40
0
 40
0
 40
0
 40
0
 40
1
 40
1
 40
1
 40
1
 10
21.710447
 20
240.077644
 30
0.0
 10
21.710447
 20
240.329600
 30
0.0
 10
21.610358
 20
240.571236
 30
0.0
 10
21.432198
 20
240.749395
 30
0.0
  0
SPLINE
  5
20e
100
AcDbEntity
  8
Layer_1
 62
1
100
AcDbSpline
 70
8
 71
3
 72
8
 73
4
 74
0
 40
0
 40
0
 40
0
 40
0
 40
1
 40
1
 40
1
 40
1
 10
21.432198
 20
240.749395
 30
0.0
 10
21.254039
 20
240.927555
 30
0.0
 10
21.012403
 20
241.027644
 30
0.0
 10
20.760447
 20
241.027644
 30
0.0
  0
LINE
  5
20f
100
AcDbEntity
  8
Layer_1
 62
1
100
AcDbLine
 10
20.760447
 20
241.027644
 30
0.0
 11
20.760447
 21
241.027644
 31
0.0
  0
SPLINE
  5
210
100
AcDbEntity
  8
Layer_1
 62
1
100
AcDbSpline
 70
8
 71
3
 72
8
 73
4
 74
0
 40
0
 40
0
 40
0
 40
0
 40
1
 40
1
 40
1
 40
1
 10
26.686176
 20
241.027644
 30
0.0
 10
26.301937
 20
241.027644
 30
0.0
 10
25.955532
 20
240.796184
 30
0.0
 10
25.808490
 20
240.441193
 30
0.0
  0
SPLINE
  5
211
100
AcDbEntity
  8
Layer_1
 62
1
100
AcDbSpline
 70
8
 71
3
 72
8
 73
4
 74
0
 40
0
 40
0
 40
0
 40
0
 40
1
 40
1
 40
1
 40
1
 10
25.808490
 20
240.441193
 30
0.0
 10
25.661449
 20
240.086203
 30
0.0
 10
25.742726
 20
239.677591
 30
0.0
 10
26.014425
 20
239.405893
 30
0.0
  0
SPLINE
  5
212
100
AcDbEntity
  8
Layer_1
 62
1
100
AcDbSpline
 70
8
 71
3
 72
8
 73
4
 74
0
 40
0
 40
0
 40
0
 40
0
 40
1
 40
1
 40
1
 40
1
 10
26.014425
 20
239.405893
 30
0.0
 10
26.286123
 20
239.134194
 30
0.0
 10
26.694735
 20
239.052917
 30
0.0
 10
27.049725
 20
239.199958
 30
0.0
  0
SPLINE
  5
213
100
AcDbEntity
  8
Layer_1
 62
1
100
AcDbSpline
 70
8
 71
3
 72
8
 73
4
 74
0
 40
0
 40
0
 40
0
 40
0
 40
1
 40
1
 40
1
 40
1
 10
27.049725
 20
239.199958
 30
0.0
 10
27.404716
 20
239.347000
 30
0.0
 10
27.636176
 20
239.693405
 30
0.0
 10
27.636176
 20
240.077644
 30
0.0
  0
SPLINE
  5
214
100
AcDbEntity
  8
Layer_1
 62
1
100
AcDbSpline
 70
8
 71
3
 72
8
 73
4
 74
0
 40
0
 40
0
 40
0
 40
0
 40
1
 40
1
 40
1
 40
1
 10
27.636176
 20
240.077644
 30
0.0
 10
27.636176
 20
240.329600
 30
0.0
 10
27.536087
 20
240.571236
 30
0.0
 10
27.357927
 20
240.749395
 30
0.0
  0
SPLINE
  5
215
100
AcDbEntity
  8
Layer_1
 62
1
100
AcDbSpline
 70
8
 71
3
 72
8
 73
4
 74
0
 40
0
 40
0
 40
0
 40
0
 40
1
 40
1
 40
1
 40
1
 10
27.357927
 20
240.749395
 30
0.0
 10
27.179768
 20
240.927555
 30
0.0
 10
26.938132
 20
241.027644
 30
0.0
 10
26.686176
 20
241.027644
 30
0.0
  0
LINE
  5
216
100
AcDbEntity
  8
Layer_1
 62
1
100
AcDbLine
 10
26.686176
 20
241.027644
 30
0.0
 11
26.686176
 21
241.027644
 31
0.0
  0
SPLINE
  5
217
100
AcDbEntity
  8
Layer_1
 62
1
100
AcDbSpline
 70
8
 71
3
 72
8
 73
4
 74
0
 40
0
 40
0
 40
0
 40
0
 40
1
 40
1
 40
1
 40
1
 10
20.760447
 20
235.322639
 30
0.0
 10
20.376208
 20
235.322639
 30
0.0
 10
20.029803
 20
235.091179
 30
0.0
 10
19.882761
 20
234.736188
 30
0.0
  0
SPLINE
  5
218
100
AcDbEntity
  8
Layer_1
 62
1
100
AcDbSpline
 70
8
 71
3
 72
8
 73
4
 74
0
 40
0
 40
0
 40
0
 40
0
 40
1
 40
1
 40
1
 40
1
 10
19.882761
 20
234.736188
 30
0.0
 10
19.735720
 20
234.381198
 30
0.0
 10
19.816997
 20
233.972586
 30
0.0
 10
20.088696
 20
233.700888
 30
0.0
  0
SPLINE
  5
219
100
AcDbEntity
  8
Layer_1
 62
1
100
AcDbSpline
 70
8
 71
3
 72
8
 73
4
 74
0
 40
0
 40
0
 40
0
 40
0
 40
1
 40
1
 40
1
 40
1
 10
20.088696
 20
233.700888
 30
0.0
 10
20.360394
 20
233.429189
 30
0.0
 10
20.769006
 20
233.347912
 30
0.0
 10
21.123996
 20
233.494953
 30
0.0
  0
SPLINE
  5
21a
100
AcDbEntity
  8
Layer_1
 62
1
100
AcDbSpline
 70
8
 71
3
 72
8
 73
4
 74
0
 40
0
 40
0
 40
0
 40
0
 40
1
 40
1
 40
1
 40
1
 10
21.123996
 20
233.494953
 30
0.0
 10
21.478987
 20
233.641995
 30
0.0
 10
21.710447
 20
233.988400
 30
0.0
 10
21.710447
 20
234.372639
 30
0.0
  0
SPLINE
  5
21b
100
AcDbEntity
  8
Layer_1
 62
1
100
AcDbSpline
 70
8
 71
3
 72
8
 73
4
 74
0
 40
0
 40
0
 40
0
 40
0
 40
1
 40
1
 40
1
 40
1
 10
21.710447
 20
234.372639
 30
0.0
 10
21.710447
 20
234.624595
 30
0.0
 10
21.610358
 20
234.866231
 30
0.0
 10
21.432198
 20
235.044390
 30
0.0
  0
SPLINE
  5
21c
100
AcDbEntity
  8
Layer_1
 62
1
100
AcDbSpline
 70
8
 71
3
 72
8
 73
4
 74
0
 40
0
 40
0
 40
0
 40
0
 40
1
 40
1
 40
1
 40
1
 10
21.432198
 20
235.044390
 30
0.0
 10
21.254039
 20
235.222550
 30
0.0
 10
21.012403
 20
235.322639
 30
0.0
 10
20.760447
 20
235.322639
 30
0.0
  0
LINE
  5
21d
100
AcDbEntity
  8
Layer_1
 62
1
100
AcDbLine
 10
20.760447
 20
235.322639
 30
0.0
 11
20.760447
 21
235.322639
 31
0.0
  0
SPLINE
  5
21e
100
AcDbEntity
  8
Layer_1
 62
1
100
AcDbSpline
 70
8
 71
3
 72
8
 73
4
 74
0
 40
0
 40
0
 40
0
 40
0
 40
1
 40
1
 40
1
 40
1
 10
26.686176
 20
235.322639
 30
0.0
 10
26.301937
 20
235.322639
 30
0.0
 10
25.955532
 20
235.091179
 30
0.0
 10
25.808490
 20
234.736188
 30
0.0
  0
SPLINE
  5
21f
100
AcDbEntity
  8
Layer_1
 62
1
100
AcDbSpline
 70
8
 71
3
 72
8
 73
4
 74
0
 40
0
 40
0
 40
0
 40
0
 40
1
 40
1
 40
1
 40
1
 10
25.808490
 20
234.736188
 30
0.0
 10
25.661449
 20
234.381198
 30
0.0
 10
25.742726
 20
233.972586
 30
0.0
 10
26.014425
 20
233.700888
 30
0.0
  0
SPLINE
  5
220
100
AcDbEntity
  8
Layer_1
 62
1
100
AcDbSpline
 70
8
 71
3
 72
8
 73
4
 74
0
 40
0
 40
0
 40
0
 40
0
 40
1
 40
1
 40
1
 40
1
 10
26.014425
 20
233.700888
 30
0.0
 10
26.286123
 20
233.429189
 30
0.0
 10
26.694735
 20
233.347912
 30
0.0
 10
27.049725
 20
233.494953
 30
0.0
  0
SPLINE
  5
221
100
AcDbEntity
  8
Layer_1
 62
1
100
AcDbSpline
 70
8
 71
3
 72
8
 73
4
 74
0
 40
0
 40
0
 40
0
 40
0
 40
1
 40
1
 40
1
 40
1
 10
27.049725
 20
233.494953
 30
0.0
 10
27.404716
 20
233.641995
 30
0.0
 10
27.636176
 20
233.988400
 30
0.0
 10
27.636176
 20
234.372639
 30
0.0
  0
SPLINE
  5
222
100
AcDbEntity
  8
Layer_1
 62
1
100
AcDbSpline
 70
8
 71
3
 72
8
 73
4
 74
0
 40
0
 40
0
 40
0
 40
0
 40
1
 40
1
 40
1
 40
1
 10
27.636176
 20
234.372639
 30
0.0
 10
27.636176
 20
234.624595
 30
0.0
 10
27.536087
 20
234.866231
 30
0.0
 10
27.357927
 20
235.044390
 30
0.0
  0
SPLINE
  5
223
100
AcDbEntity
  8
Layer_1
 62
1
100
AcDbSpline
 70
8
 71
3
 72
8
 73
4
 74
0
 40
0
 40
0
 40
0
 40
0
 40
1
 40
1
 40
1
 40
1
 10
27.357927
 20
235.044390
 30
0.0
 10
27.179768
 20
235.222550
 30
0.0
 10
26.938132
 20
235.322639
 30
0.0
 10
26.686176
 20
235.322639
 30
0.0
  0
LINE
  5
224
100
AcDbEntity
  8
Layer_1
 62
1
100
AcDbLine
 10
26.686176
 20
235.322639
 30
0.0
 11
26.686176
 21
235.322639
 31
0.0
  0
SPLINE
  5
225
100
AcDbEntity
  8
Layer_1
 62
1
100
AcDbSpline
 70
8
 71
3
 72
8
 73
4
 74
0
 40
0
 40
0
 40
0
 40
0
 40
1
 40
1
 40
1
 40
1
 10
126.436910
 20
290.142356
 30
0.0
 10
126.821149
 20
290.142356
 30
0.0
 10
127.167554
 20
289.910896
 30
0.0
 10
127.314596
 20
289.555905
 30
0.0
  0
SPLINE
  5
226
100
AcDbEntity
  8
Layer_1
 62
1
100
AcDbSpline
 70
8
 71
3
 72
8
 73
4
 74
0
 40
0
 40
0
 40
0
 40
0
 40
1
 40
1
 40
1
 40
1
 10
127.314596
 20
289.555905
 30
0.0
 10
127.461637
 20
289.200914
 30
0.0
 10
127.380360
 20
288.792302
 30
0.0
 10
127.108661
 20
288.520604
 30
0.0
  0
SPLINE
  5
227
100
AcDbEntity
  8
Layer_1
 62
1
100
AcDbSpline
 70
8
 71
3
 72
8
 73
4
 74
0
 40
0
 40
0
 40
0
 40
0
 40
1
 40
1
 40
1
 40
1
 10
127.108661
 20
288.520604
 30
0.0
 10
126.836963
 20
288.248906
 30
0.0
 10
126.428351
 20
288.167628
 30
0.0
 10
126.073361
 20
288.314670
 30
0.0
  0
SPLINE
  5
228
100
AcDbEntity
  8
Layer_1
 62
1
100
AcDbSpline
 70
8
 71
3
 72
8
 73
4
 74
0
 40
0
 40
0
 40
0
 40
0
 40
1
 40
1
 40
1
 40
1
 10
126.073361
 20
288.314670
 30
0.0
 10
125.718370
 20
288.461712
 30
0.0
 10
125.486910
 20
288.808116
 30
0.0
 10
125.486910
 20
289.192356
 30
0.0
  0
SPLINE
  5
229
100
AcDbEntity
  8
Layer_1
 62
1
100
AcDbSpline
 70
8
 71
3
 72
8
 73
4
 74
0
 40
0
 40
0
 40
0
 40
0
 40
1
 40
1
 40
1
 40
1
 10
125.486910
 20
289.192356
 30
0.0
 10
125.486910
 20
289.717026
 30
0.0
 10
125.912239
 20
290.142356
 30
0.0
 10
126.436910
 20
290.142356
 30
0.0
  0
LINE
  5
22a
100
AcDbEntity
  8
Layer_1
 62
1
100
AcDbLine
 10
126.436910
 20
290.142356
 30
0.0
 11
126.436910
 21
290.142356
 31
0.0
  0
SPLINE
  5
22b
100
AcDbEntity
  8
Layer_1
 62
1
100
AcDbSpline
 70
8
 71
3
 72
8
 73
4
 74
0
 40
0
 40
0
 40
0
 40
0
 40
1
 40
1
 40
1
 40
1
 10
40.142841
 20
201.770175
 30
0.0
 10
40.527080
 20
201.770175
 30
0.0
 10
40.873485
 20
201.538715
 30
0.0
 10
41.020527
 20
201.183724
 30
0.0
  0
SPLINE
  5
22c
100
AcDbEntity
  8
Layer_1
 62
1
100
AcDbSpline
 70
8
 71
3
 72
8
 73
4
 74
0
 40
0
 40
0
 40
0
 40
0
 40
1
 40
1
 40
1
 40
1
 10
41.020527
 20
201.183724
 30
0.0
 10
41.167568
 20
200.828734
 30
0.0
 10
41.086291
 20
200.420122
 30
0.0
 10
40.814592
 20
200.148424
 30
0.0
  0
SPLINE
  5
22d
100
AcDbEntity
  8
Layer_1
 62
1
100
AcDbSpline
 70
8
 71
3
 72
8
 73
4
 74
0
 40
0
 40
0
 40
0
 40
0
 40
1
 40
1
 40
1
 40
1
 10
40.814592
 20
200.148424
 30
0.0
 10
40.542894
 20
199.876725
 30
0.0
 10
40.134282
 20
199.795448
 30
0.0
 10
39.779292
 20
199.942489
 30
0.0
  0
SPLINE
  5
22e
100
AcDbEntity
  8
Layer_1
 62
1
100
AcDbSpline
 70
8
 71
3
 72
8
 73
4
 74
0
 40
0
 40
0
 40
0
 40
0
 40
1
 40
1
 40
1
 40
1
 10
39.779292
 20
199.942489
 30
0.0
 10
39.424301
 20
200.089531
 30
0.0
 10
39.192841
 20
200.435936
 30
0.0
 10
39.192841
 20
200.820175
 30
0.0
  0
SPLINE
  5
22f
100
AcDbEntity
  8
Layer_1
 62
1
100
AcDbSpline
 70
8
 71
3
 72
8
 73
4
 74
0
 40
0
 40
0
 40
0
 40
0
 40
1
 40
1
 40
1
 40
1
 10
39.192841
 20
200.820175
 30
0.0
 10
39.192841
 20
201.072131
 30
0.0
 10
39.292930
 20
201.313767
 30
0.0
 10
39.471090
 20
201.491926
 30
0.0
  0
SPLINE
  5
230
100
AcDbEntity
  8
Layer_1
 62
1
100
AcDbSpline
 70
8
 71
3
 72
8
 73
4
 74
0
 40
0
 40
0
 40
0
 40
0
 40
1
 40
1
 40
1
 40
1
 10
39.471090
 20
201.491926
 30
0.0
 10
39.649249
 20
201.670086
 30
0.0
 10
39.890885
 20
201.770175
 30
0.0
 10
40.142841
 20
201.770175
 30
0.0
  0
LINE
  5
231
100
AcDbEntity
  8
Layer_1
 62
1
100
AcDbLine
 10
40.142841
 20
201.770175
 30
0.0
 11
40.142841
 21
201.770175
 31
0.0
  0
SPLINE
  5
232
100
AcDbEntity
  8
Layer_1
 62
1
100
AcDbSpline
 70
8
 71
3
 72
8
 73
4
 74
0
 40
0
 40
0
 40
0
 40
0
 40
1
 40
1
 40
1
 40
1
 10
23.717245
 20
224.429062
 30
0.0
 10
20.481547
 20
224.429062
 30
0.0
 10
17.564457
 20
222.479925
 30
0.0
 10
16.326209
 20
219.490529
 30
0.0
  0
SPLINE
  5
233
100
AcDbEntity
  8
Layer_1
 62
1
100
AcDbSpline
 70
8
 71
3
 72
8
 73
4
 74
0
 40
0
 40
0
 40
0
 40
0
 40
1
 40
1
 40
1
 40
1
 10
16.326209
 20
219.490529
 30
0.0
 10
15.087961
 20
216.501134
 30
0.0
 10
15.772407
 20
213.060192
 30
0.0
 10
18.060391
 20
210.772208
 30
0.0
  0
SPLINE
  5
234
100
AcDbEntity
  8
Layer_1
 62
1
100
AcDbSpline
 70
8
 71
3
 72
8
 73
4
 74
0
 40
0
 40
0
 40
0
 40
0
 40
1
 40
1
 40
1
 40
1
 10
18.060391
 20
210.772208
 30
0.0
 10
20.348375
 20
208.484224
 30
0.0
 10
23.789317
 20
207.799778
 30
0.0
 10
26.778712
 20
209.038026
 30
0.0
  0
SPLINE
  5
235
100
AcDbEntity
  8
Layer_1
 62
1
100
AcDbSpline
 70
8
 71
3
 72
8
 73
4
 74
0
 40
0
 40
0
 40
0
 40
0
 40
1
 40
1
 40
1
 40
1
 10
26.778712
 20
209.038026
 30
0.0
 10
29.768108
 20
210.276274
 30
0.0
 10
31.717245
 20
213.193364
 30
0.0
 10
31.717245
 20
216.429062
 30
0.0
  0
SPLINE
  5
236
100
AcDbEntity
  8
Layer_1
 62
1
100
AcDbSpline
 70
8
 71
3
 72
8
 73
4
 74
0
 40
0
 40
0
 40
0
 40
0
 40
1
 40
1
 40
1
 40
1
 10
31.717245
 20
216.429062
 30
0.0
 10
31.717245
 20
218.550794
 30
0.0
 10
30.874390
 20
220.585625
 30
0.0
 10
29.374099
 20
222.085916
 30
0.0
  0
SPLINE
  5
237
100
AcDbEntity
  8
Layer_1
 62
1
100
AcDbSpline
 70
8
 71
3
 72
8
 73
4
 74
0
 40
0
 40
0
 40
0
 40
0
 40
1
 40
1
 40
1
 40
1
 10
29.374099
 20
222.085916
 30
0.0
 10
27.873808
 20
223.586207
 30
0.0
 10
25.838977
 20
224.429062
 30
0.0
 10
23.717245
 20
224.429062
 30
0.0
  0
LINE
  5
238
100
AcDbEntity
  8
Layer_1
 62
1
100
AcDbLine
 10
23.717245
 20
224.429062
 30
0.0
 11
23.717245
 21
224.429062
 31
0.0
  0
ENDSEC
  0
SECTION
  2
OBJECTS
  0
DICTIONARY
  5
C
330
0
100
AcDbDictionary
  3
ACAD_GROUP
350
D
  3
ACAD_MLINESTYLE
350
17
  0
DICTIONARY
  5
D
330
C
100
AcDbDictionary
  0
DICTIONARY
  5
1A
330
C
100
AcDbDictionary
  0
DICTIONARY
  5
17
330
C
100
AcDbDictionary
  3
STANDARD
350
18
  0
DICTIONARY
  5
19
330
C
100
AcDbDictionary
  0
ENDSEC
  0
EOF
