  0
SECTION
  2
HEADER
  9
$ACADVER
  1
AC1014
  9
$HANDSEED
  5
FFFF
  9
$INSUNITS
 70
     0
  9
$MEASUREMENT
 70
     1
  0
ENDSEC
  0
SECTION
  2
TABLES
  0
TABLE
  2
VPORT
  5
8
330
0
100
AcDbSymbolTable
 70
     4
  0
VPORT
  5
2E
330
8
100
AcDbSymbolTableRecord
100
AcDbViewportTableRecord
  2
*ACTIVE
 70
     0
 10
0.0
 20
0.0
 11
1.0
 21
1.0
 12
210.0
 22
148.5
 13
0.0
 23
0.0
 14
10.0
 24
10.0
 15
10.0
 25
10.0
 16
0.0
 26
0.0
 36
1.0
 17
0.0
 27
0.0
 37
0.0
 40
341.0
 41
1.24
 42
50.0
 43
0.0
 44
0.0
 50
0.0
 51
0.0
 71
     0
 72
   100
 73
     1
 74
     3
 75
     0
 76
     0
 77
     0
 78
     0
  0
ENDTAB
  0
TABLE
  2
LTYPE
  5
5
330
0
100
AcDbSymbolTable
 70
     1
  0
LTYPE
  5
14
330
5
100
AcDbSymbolTableRecord
100
AcDbLinetypeTableRecord
  2
BYBLOCK
 70
     0
  3

 72
    65
 73
     0
 40
0.0
  0
LTYPE
  5
15
330
5
100
AcDbSymbolTableRecord
100
AcDbLinetypeTableRecord
  2
BYLAYER
 70
     0
  3

 72
    65
 73
     0
 40
0.0
  0
LTYPE
  5
16
330
5
100
AcDbSymbolTableRecord
100
AcDbLinetypeTableRecord
  2
CONTINUOUS
 70
     0
  3
Solid line
 72
    65
 73
     0
 40
0.0
  0
ENDTAB
  0
TABLE
  2
LAYER
  5
2
100
AcDbSymbolTable
 70
2
  0
LAYER
  5
50
100
AcDbSymbolTableRecord
100
AcDbLayerTableRecord
  2
0
 70
0
  6
CONTINUOUS
  0
LAYER
  5
51
100
AcDbSymbolTableRecord
100
AcDbLayerTableRecord
  2
Layer_1
 70
0
  6
CONTINUOUS
  0
ENDTAB
  0
TABLE
  2
STYLE
  5
3
330
0
100
AcDbSymbolTable
 70
     1
  0
STYLE
  5
11
330
3
100
AcDbSymbolTableRecord
100
AcDbTextStyleTableRecord
  2
STANDARD
 70
     0
 40
0.0
 41
1.0
 50
0.0
 71
     0
 42
2.5
  3
txt
  4

  0
ENDTAB
  0
TABLE
  2
VIEW
  5
6
330
0
100
AcDbSymbolTable
 70
     0
  0
ENDTAB
  0
TABLE
  2
UCS
  5
7
330
0
100
AcDbSymbolTable
 70
     0
  0
ENDTAB
  0
TABLE
  2
APPID
  5
9
330
0
100
AcDbSymbolTable
 70
     2
  0
APPID
  5
12
330
9
100
AcDbSymbolTableRecord
100
AcDbRegAppTableRecord
  2
ACAD
 70
     0
  0
ENDTAB
  0
TABLE
  2
DIMSTYLE
  5
A
330
0
100
AcDbSymbolTable
 70
     1
  0
DIMSTYLE
105
27
330
A
100
AcDbSymbolTableRecord
100
AcDbDimStyleTableRecord
  2
ISO-25
 70
     0
  3

  4

  5

  6

  7

 40
1.0
 41
2.5
 42
0.625
 43
3.75
 44
1.25
 45
0.0
 46
0.0
 47
0.0
 48
0.0
140
2.5
141
2.5
142
0.0
143
0.03937007874016
144
1.0
145
0.0
146
1.0
147
0.625
 71
     0
 72
     0
 73
     0
 74
     0
 75
     0
 76
     0
 77
     1
 78
     8
170
     0
171
     3
172
     1
173
     0
174
     0
175
     0
176
     0
177
     0
178
     0
270
     2
271
     2
272
     2
273
     2
274
     3
340
11
275
     0
280
     0
281
     0
282
     0
283
     0
284
     8
285
     0
286
     0
287
     3
288
     0
  0
ENDTAB
  0
TABLE
  2
BLOCK_RECORD
  5
1
330
0
100
AcDbSymbolTable
 70
     1
  0
BLOCK_RECORD
  5
1F
330
1
100
AcDbSymbolTableRecord
100
AcDbBlockTableRecord
  2
*MODEL_SPACE
  0
BLOCK_RECORD
  5
1B
330
1
100
AcDbSymbolTableRecord
100
AcDbBlockTableRecord
  2
*PAPER_SPACE
  0
ENDTAB
  0
ENDSEC
  0
SECTION
  2
BLOCKS
  0
BLOCK
  5
20
330
1F
100
AcDbEntity
  8
0
100
AcDbBlockBegin
  2
*MODEL_SPACE
 70
     0
 10
0.0
 20
0.0
 30
0.0
  3
*MODEL_SPACE
  1

  0
ENDBLK
  5
21
330
1F
100
AcDbEntity
  8
0
100
AcDbBlockEnd
  0
BLOCK
  5
1C
330
1B
100
AcDbEntity
 67
     1
  8
0
100
AcDbBlockBegin
  2
*PAPER_SPACE
  1

  0
ENDBLK
  5
1D
330
1B
100
AcDbEntity
 67
     1
  8
0
100
AcDbBlockEnd
  0
ENDSEC
  0
SECTION
  2
ENTITIES
  0
SPLINE
  5
100
100
AcDbEntity
  8
Layer_1
 62
3
100
AcDbSpline
 70
8
 71
3
 72
8
 73
4
 74
0
 40
0
 40
0
 40
0
 40
0
 40
1
 40
1
 40
1
 40
1
 10
207.741380
 20
202.381600
 30
0.0
 10
208.374363
 20
202.381600
 30
0.0
 10
208.945019
 20
202.000300
 30
0.0
 10
209.187252
 20
201.415500
 30
0.0
  0
SPLINE
  5
101
100
AcDbEntity
  8
Layer_1
 62
3
100
AcDbSpline
 70
8
 71
3
 72
8
 73
4
 74
0
 40
0
 40
0
 40
0
 40
0
 40
1
 40
1
 40
1
 40
1
 10
209.187252
 20
201.415500
 30
0.0
 10
209.429484
 20
200.830699
 30
0.0
 10
209.295589
 20
200.157565
 30
0.0
 10
208.848002
 20
199.709978
 30
0.0
  0
SPLINE
  5
102
100
AcDbEntity
  8
Layer_1
 62
3
100
AcDbSpline
 70
8
 71
3
 72
8
 73
4
 74
0
 40
0
 40
0
 40
0
 40
0
 40
1
 40
1
 40
1
 40
1
 10
208.848002
 20
199.709978
 30
0.0
 10
208.400415
 20
199.262391
 30
0.0
 10
207.727281
 20
199.128496
 30
0.0
 10
207.142480
 20
199.370728
 30
0.0
  0
SPLINE
  5
103
100
AcDbEntity
  8
Layer_1
 62
3
100
AcDbSpline
 70
8
 71
3
 72
8
 73
4
 74
0
 40
0
 40
0
 40
0
 40
0
 40
1
 40
1
 40
1
 40
1
 10
207.142480
 20
199.370728
 30
0.0
 10
206.557680
 20
199.612961
 30
0.0
 10
206.176380
 20
200.183617
 30
0.0
 10
206.176380
 20
200.816600
 30
0.0
  0
SPLINE
  5
104
100
AcDbEntity
  8
Layer_1
 62
3
100
AcDbSpline
 70
8
 71
3
 72
8
 73
4
 74
0
 40
0
 40
0
 40
0
 40
0
 40
1
 40
1
 40
1
 40
1
 10
206.176380
 20
200.816600
 30
0.0
 10
206.176380
 20
201.231664
 30
0.0
 10
206.341263
 20
201.629728
 30
0.0
 10
206.634758
 20
201.923222
 30
0.0
  0
SPLINE
  5
105
100
AcDbEntity
  8
Layer_1
 62
3
100
AcDbSpline
 70
8
 71
3
 72
8
 73
4
 74
0
 40
0
 40
0
 40
0
 40
0
 40
1
 40
1
 40
1
 40
1
 10
206.634758
 20
201.923222
 30
0.0
 10
206.928252
 20
202.216717
 30
0.0
 10
207.326316
 20
202.381600
 30
0.0
 10
207.741380
 20
202.381600
 30
0.0
  0
LINE
  5
106
100
AcDbEntity
  8
Layer_1
 62
3
100
AcDbLine
 10
207.741380
 20
202.381600
 30
0.0
 11
207.741380
 21
202.381600
 31
0.0
  0
SPLINE
  5
107
100
AcDbEntity
  8
Layer_1
 62
3
100
AcDbSpline
 70
8
 71
3
 72
8
 73
4
 74
0
 40
0
 40
0
 40
0
 40
0
 40
1
 40
1
 40
1
 40
1
 10
293.035300
 20
202.384700
 30
0.0
 10
293.668283
 20
202.384700
 30
0.0
 10
294.238939
 20
202.003400
 30
0.0
 10
294.481172
 20
201.418600
 30
0.0
  0
SPLINE
  5
108
100
AcDbEntity
  8
Layer_1
 62
3
100
AcDbSpline
 70
8
 71
3
 72
8
 73
4
 74
0
 40
0
 40
0
 40
0
 40
0
 40
1
 40
1
 40
1
 40
1
 10
294.481172
 20
201.418600
 30
0.0
 10
294.723404
 20
200.833799
 30
0.0
 10
294.589509
 20
200.160665
 30
0.0
 10
294.141922
 20
199.713078
 30
0.0
  0
SPLINE
  5
109
100
AcDbEntity
  8
Layer_1
 62
3
100
AcDbSpline
 70
8
 71
3
 72
8
 73
4
 74
0
 40
0
 40
0
 40
0
 40
0
 40
1
 40
1
 40
1
 40
1
 10
294.141922
 20
199.713078
 30
0.0
 10
293.694335
 20
199.265491
 30
0.0
 10
293.021201
 20
199.131596
 30
0.0
 10
292.436400
 20
199.373828
 30
0.0
  0
SPLINE
  5
10a
100
AcDbEntity
  8
Layer_1
 62
3
100
AcDbSpline
 70
8
 71
3
 72
8
 73
4
 74
0
 40
0
 40
0
 40
0
 40
0
 40
1
 40
1
 40
1
 40
1
 10
292.436400
 20
199.373828
 30
0.0
 10
291.851600
 20
199.616061
 30
0.0
 10
291.470300
 20
200.186717
 30
0.0
 10
291.470300
 20
200.819700
 30
0.0
  0
SPLINE
  5
10b
100
AcDbEntity
  8
Layer_1
 62
3
100
AcDbSpline
 70
8
 71
3
 72
8
 73
4
 74
0
 40
0
 40
0
 40
0
 40
0
 40
1
 40
1
 40
1
 40
1
 10
291.470300
 20
200.819700
 30
0.0
 10
291.470300
 20
201.234764
 30
0.0
 10
291.635183
 20
201.632828
 30
0.0
 10
291.928678
 20
201.926322
 30
0.0
  0
SPLINE
  5
10c
100
AcDbEntity
  8
Layer_1
 62
3
100
AcDbSpline
 70
8
 71
3
 72
8
 73
4
 74
0
 40
0
 40
0
 40
0
 40
0
 40
1
 40
1
 40
1
 40
1
 10
291.928678
 20
201.926322
 30
0.0
 10
292.222172
 20
202.219817
 30
0.0
 10
292.620236
 20
202.384700
 30
0.0
 10
293.035300
 20
202.384700
 30
0.0
  0
LINE
  5
10d
100
AcDbEntity
  8
Layer_1
 62
3
100
AcDbLine
 10
293.035300
 20
202.384700
 30
0.0
 11
293.035300
 21
202.384700
 31
0.0
  0
SPLINE
  5
10e
100
AcDbEntity
  8
Layer_1
 62
3
100
AcDbSpline
 70
8
 71
3
 72
8
 73
4
 74
0
 40
0
 40
0
 40
0
 40
0
 40
1
 40
1
 40
1
 40
1
 10
293.035300
 20
290.756900
 30
0.0
 10
293.668283
 20
290.756900
 30
0.0
 10
294.238939
 20
290.375600
 30
0.0
 10
294.481172
 20
289.790800
 30
0.0
  0
SPLINE
  5
10f
100
AcDbEntity
  8
Layer_1
 62
3
100
AcDbSpline
 70
8
 71
3
 72
8
 73
4
 74
0
 40
0
 40
0
 40
0
 40
0
 40
1
 40
1
 40
1
 40
1
 10
294.481172
 20
289.790800
 30
0.0
 10
294.723404
 20
289.205999
 30
0.0
 10
294.589509
 20
288.532865
 30
0.0
 10
294.141922
 20
288.085278
 30
0.0
  0
SPLINE
  5
110
100
AcDbEntity
  8
Layer_1
 62
3
100
AcDbSpline
 70
8
 71
3
 72
8
 73
4
 74
0
 40
0
 40
0
 40
0
 40
0
 40
1
 40
1
 40
1
 40
1
 10
294.141922
 20
288.085278
 30
0.0
 10
293.694335
 20
287.637691
 30
0.0
 10
293.021201
 20
287.503796
 30
0.0
 10
292.436400
 20
287.746028
 30
0.0
  0
SPLINE
  5
111
100
AcDbEntity
  8
Layer_1
 62
3
100
AcDbSpline
 70
8
 71
3
 72
8
 73
4
 74
0
 40
0
 40
0
 40
0
 40
0
 40
1
 40
1
 40
1
 40
1
 10
292.436400
 20
287.746028
 30
0.0
 10
291.851600
 20
287.988261
 30
0.0
 10
291.470300
 20
288.558917
 30
0.0
 10
291.470300
 20
289.191900
 30
0.0
  0
SPLINE
  5
112
100
AcDbEntity
  8
Layer_1
 62
3
100
AcDbSpline
 70
8
 71
3
 72
8
 73
4
 74
0
 40
0
 40
0
 40
0
 40
0
 40
1
 40
1
 40
1
 40
1
 10
291.470300
 20
289.191900
 30
0.0
 10
291.470300
 20
289.606964
 30
0.0
 10
291.635183
 20
290.005028
 30
0.0
 10
291.928678
 20
290.298522
 30
0.0
  0
SPLINE
  5
113
100
AcDbEntity
  8
Layer_1
 62
3
100
AcDbSpline
 70
8
 71
3
 72
8
 73
4
 74
0
 40
0
 40
0
 40
0
 40
0
 40
1
 40
1
 40
1
 40
1
 10
291.928678
 20
290.298522
 30
0.0
 10
292.222172
 20
290.592017
 30
0.0
 10
292.620236
 20
290.756900
 30
0.0
 10
293.035300
 20
290.756900
 30
0.0
  0
LINE
  5
114
100
AcDbEntity
  8
Layer_1
 62
3
100
AcDbLine
 10
293.035300
 20
290.756900
 30
0.0
 11
293.035300
 21
290.756900
 31
0.0
  0
SPLINE
  5
115
100
AcDbEntity
  8
Layer_1
 62
3
100
AcDbSpline
 70
8
 71
3
 72
8
 73
4
 74
0
 40
0
 40
0
 40
0
 40
0
 40
1
 40
1
 40
1
 40
1
 10
207.742170
 20
290.756900
 30
0.0
 10
208.375153
 20
290.756900
 30
0.0
 10
208.945809
 20
290.375600
 30
0.0
 10
209.188042
 20
289.790800
 30
0.0
  0
SPLINE
  5
116
100
AcDbEntity
  8
Layer_1
 62
3
100
AcDbSpline
 70
8
 71
3
 72
8
 73
4
 74
0
 40
0
 40
0
 40
0
 40
0
 40
1
 40
1
 40
1
 40
1
 10
209.188042
 20
289.790800
 30
0.0
 10
209.430274
 20
289.205999
 30
0.0
 10
209.296379
 20
288.532865
 30
0.0
 10
208.848792
 20
288.085278
 30
0.0
  0
SPLINE
  5
117
100
AcDbEntity
  8
Layer_1
 62
3
100
AcDbSpline
 70
8
 71
3
 72
8
 73
4
 74
0
 40
0
 40
0
 40
0
 40
0
 40
1
 40
1
 40
1
 40
1
 10
208.848792
 20
288.085278
 30
0.0
 10
208.401205
 20
287.637691
 30
0.0
 10
207.728071
 20
287.503796
 30
0.0
 10
207.143270
 20
287.746028
 30
0.0
  0
SPLINE
  5
118
100
AcDbEntity
  8
Layer_1
 62
3
100
AcDbSpline
 70
8
 71
3
 72
8
 73
4
 74
0
 40
0
 40
0
 40
0
 40
0
 40
1
 40
1
 40
1
 40
1
 10
207.143270
 20
287.746028
 30
0.0
 10
206.558470
 20
287.988261
 30
0.0
 10
206.177170
 20
288.558917
 30
0.0
 10
206.177170
 20
289.191900
 30
0.0
  0
SPLINE
  5
119
100
AcDbEntity
  8
Layer_1
 62
3
100
AcDbSpline
 70
8
 71
3
 72
8
 73
4
 74
0
 40
0
 40
0
 40
0
 40
0
 40
1
 40
1
 40
1
 40
1
 10
206.177170
 20
289.191900
 30
0.0
 10
206.177170
 20
289.606964
 30
0.0
 10
206.342053
 20
290.005028
 30
0.0
 10
206.635548
 20
290.298522
 30
0.0
  0
SPLINE
  5
11a
100
AcDbEntity
  8
Layer_1
 62
3
100
AcDbSpline
 70
8
 71
3
 72
8
 73
4
 74
0
 40
0
 40
0
 40
0
 40
0
 40
1
 40
1
 40
1
 40
1
 10
206.635548
 20
290.298522
 30
0.0
 10
206.929042
 20
290.592017
 30
0.0
 10
207.327106
 20
290.756900
 30
0.0
 10
207.742170
 20
290.756900
 30
0.0
  0
LINE
  5
11b
100
AcDbEntity
  8
Layer_1
 62
3
100
AcDbLine
 10
207.742170
 20
290.756900
 30
0.0
 11
207.742170
 21
290.756900
 31
0.0
  0
SPLINE
  5
11c
100
AcDbEntity
  8
Layer_1
 62
3
100
AcDbSpline
 70
8
 71
3
 72
8
 73
4
 74
0
 40
0
 40
0
 40
0
 40
0
 40
1
 40
1
 40
1
 40
1
 10
7.286360
 20
202.384700
 30
0.0
 10
7.919343
 20
202.384700
 30
0.0
 10
8.489999
 20
202.003400
 30
0.0
 10
8.732232
 20
201.418600
 30
0.0
  0
SPLINE
  5
11d
100
AcDbEntity
  8
Layer_1
 62
3
100
AcDbSpline
 70
8
 71
3
 72
8
 73
4
 74
0
 40
0
 40
0
 40
0
 40
0
 40
1
 40
1
 40
1
 40
1
 10
8.732232
 20
201.418600
 30
0.0
 10
8.974464
 20
200.833799
 30
0.0
 10
8.840569
 20
200.160665
 30
0.0
 10
8.392982
 20
199.713078
 30
0.0
  0
SPLINE
  5
11e
100
AcDbEntity
  8
Layer_1
 62
3
100
AcDbSpline
 70
8
 71
3
 72
8
 73
4
 74
0
 40
0
 40
0
 40
0
 40
0
 40
1
 40
1
 40
1
 40
1
 10
8.392982
 20
199.713078
 30
0.0
 10
7.945395
 20
199.265491
 30
0.0
 10
7.272261
 20
199.131596
 30
0.0
 10
6.687460
 20
199.373828
 30
0.0
  0
SPLINE
  5
11f
100
AcDbEntity
  8
Layer_1
 62
3
100
AcDbSpline
 70
8
 71
3
 72
8
 73
4
 74
0
 40
0
 40
0
 40
0
 40
0
 40
1
 40
1
 40
1
 40
1
 10
6.687460
 20
199.373828
 30
0.0
 10
6.102660
 20
199.616061
 30
0.0
 10
5.721360
 20
200.186717
 30
0.0
 10
5.721360
 20
200.819700
 30
0.0
  0
SPLINE
  5
120
100
AcDbEntity
  8
Layer_1
 62
3
100
AcDbSpline
 70
8
 71
3
 72
8
 73
4
 74
0
 40
0
 40
0
 40
0
 40
0
 40
1
 40
1
 40
1
 40
1
 10
5.721360
 20
200.819700
 30
0.0
 10
5.721360
 20
201.234764
 30
0.0
 10
5.886243
 20
201.632828
 30
0.0
 10
6.179738
 20
201.926322
 30
0.0
  0
SPLINE
  5
121
100
AcDbEntity
  8
Layer_1
 62
3
100
AcDbSpline
 70
8
 71
3
 72
8
 73
4
 74
0
 40
0
 40
0
 40
0
 40
0
 40
1
 40
1
 40
1
 40
1
 10
6.179738
 20
201.926322
 30
0.0
 10
6.473232
 20
202.219817
 30
0.0
 10
6.871296
 20
202.384700
 30
0.0
 10
7.286360
 20
202.384700
 30
0.0
  0
LINE
  5
122
100
AcDbEntity
  8
Layer_1
 62
3
100
AcDbLine
 10
7.286360
 20
202.384700
 30
0.0
 11
7.286360
 21
202.384700
 31
0.0
  0
SPLINE
  5
123
100
AcDbEntity
  8
Layer_1
 62
3
100
AcDbSpline
 70
8
 71
3
 72
8
 73
4
 74
0
 40
0
 40
0
 40
0
 40
0
 40
1
 40
1
 40
1
 40
1
 10
7.286360
 20
290.756900
 30
0.0
 10
7.919343
 20
290.756900
 30
0.0
 10
8.489999
 20
290.375600
 30
0.0
 10
8.732232
 20
289.790800
 30
0.0
  0
SPLINE
  5
124
100
AcDbEntity
  8
Layer_1
 62
3
100
AcDbSpline
 70
8
 71
3
 72
8
 73
4
 74
0
 40
0
 40
0
 40
0
 40
0
 40
1
 40
1
 40
1
 40
1
 10
8.732232
 20
289.790800
 30
0.0
 10
8.974464
 20
289.205999
 30
0.0
 10
8.840569
 20
288.532865
 30
0.0
 10
8.392982
 20
288.085278
 30
0.0
  0
SPLINE
  5
125
100
AcDbEntity
  8
Layer_1
 62
3
100
AcDbSpline
 70
8
 71
3
 72
8
 73
4
 74
0
 40
0
 40
0
 40
0
 40
0
 40
1
 40
1
 40
1
 40
1
 10
8.392982
 20
288.085278
 30
0.0
 10
7.945395
 20
287.637691
 30
0.0
 10
7.272261
 20
287.503796
 30
0.0
 10
6.687460
 20
287.746028
 30
0.0
  0
SPLINE
  5
126
100
AcDbEntity
  8
Layer_1
 62
3
100
AcDbSpline
 70
8
 71
3
 72
8
 73
4
 74
0
 40
0
 40
0
 40
0
 40
0
 40
1
 40
1
 40
1
 40
1
 10
6.687460
 20
287.746028
 30
0.0
 10
6.102660
 20
287.988261
 30
0.0
 10
5.721360
 20
288.558917
 30
0.0
 10
5.721360
 20
289.191900
 30
0.0
  0
SPLINE
  5
127
100
AcDbEntity
  8
Layer_1
 62
3
100
AcDbSpline
 70
8
 71
3
 72
8
 73
4
 74
0
 40
0
 40
0
 40
0
 40
0
 40
1
 40
1
 40
1
 40
1
 10
5.721360
 20
289.191900
 30
0.0
 10
5.721360
 20
289.606964
 30
0.0
 10
5.886243
 20
290.005028
 30
0.0
 10
6.179738
 20
290.298522
 30
0.0
  0
SPLINE
  5
128
100
AcDbEntity
  8
Layer_1
 62
3
100
AcDbSpline
 70
8
 71
3
 72
8
 73
4
 74
0
 40
0
 40
0
 40
0
 40
0
 40
1
 40
1
 40
1
 40
1
 10
6.179738
 20
290.298522
 30
0.0
 10
6.473232
 20
290.592017
 30
0.0
 10
6.871296
 20
290.756900
 30
0.0
 10
7.286360
 20
290.756900
 30
0.0
  0
LINE
  5
129
100
AcDbEntity
  8
Layer_1
 62
3
100
AcDbLine
 10
7.286360
 20
290.756900
 30
0.0
 11
7.286360
 21
290.756900
 31
0.0
  0
SPLINE
  5
12a
100
AcDbEntity
  8
Layer_1
 62
3
100
AcDbSpline
 70
8
 71
3
 72
8
 73
4
 74
0
 40
0
 40
0
 40
0
 40
0
 40
1
 40
1
 40
1
 40
1
 10
126.437910
 20
202.384700
 30
0.0
 10
127.070893
 20
202.384700
 30
0.0
 10
127.641549
 20
202.003400
 30
0.0
 10
127.883782
 20
201.418600
 30
0.0
  0
SPLINE
  5
12b
100
AcDbEntity
  8
Layer_1
 62
3
100
AcDbSpline
 70
8
 71
3
 72
8
 73
4
 74
0
 40
0
 40
0
 40
0
 40
0
 40
1
 40
1
 40
1
 40
1
 10
127.883782
 20
201.418600
 30
0.0
 10
128.126014
 20
200.833799
 30
0.0
 10
127.992119
 20
200.160665
 30
0.0
 10
127.544532
 20
199.713078
 30
0.0
  0
SPLINE
  5
12c
100
AcDbEntity
  8
Layer_1
 62
3
100
AcDbSpline
 70
8
 71
3
 72
8
 73
4
 74
0
 40
0
 40
0
 40
0
 40
0
 40
1
 40
1
 40
1
 40
1
 10
127.544532
 20
199.713078
 30
0.0
 10
127.096945
 20
199.265491
 30
0.0
 10
126.423811
 20
199.131596
 30
0.0
 10
125.839010
 20
199.373828
 30
0.0
  0
SPLINE
  5
12d
100
AcDbEntity
  8
Layer_1
 62
3
100
AcDbSpline
 70
8
 71
3
 72
8
 73
4
 74
0
 40
0
 40
0
 40
0
 40
0
 40
1
 40
1
 40
1
 40
1
 10
125.839010
 20
199.373828
 30
0.0
 10
125.254210
 20
199.616061
 30
0.0
 10
124.872910
 20
200.186717
 30
0.0
 10
124.872910
 20
200.819700
 30
0.0
  0
SPLINE
  5
12e
100
AcDbEntity
  8
Layer_1
 62
3
100
AcDbSpline
 70
8
 71
3
 72
8
 73
4
 74
0
 40
0
 40
0
 40
0
 40
0
 40
1
 40
1
 40
1
 40
1
 10
124.872910
 20
200.819700
 30
0.0
 10
124.872910
 20
201.234764
 30
0.0
 10
125.037793
 20
201.632828
 30
0.0
 10
125.331288
 20
201.926322
 30
0.0
  0
SPLINE
  5
12f
100
AcDbEntity
  8
Layer_1
 62
3
100
AcDbSpline
 70
8
 71
3
 72
8
 73
4
 74
0
 40
0
 40
0
 40
0
 40
0
 40
1
 40
1
 40
1
 40
1
 10
125.331288
 20
201.926322
 30
0.0
 10
125.624782
 20
202.219817
 30
0.0
 10
126.022846
 20
202.384700
 30
0.0
 10
126.437910
 20
202.384700
 30
0.0
  0
LINE
  5
130
100
AcDbEntity
  8
Layer_1
 62
3
100
AcDbLine
 10
126.437910
 20
202.384700
 30
0.0
 11
126.437910
 21
202.384700
 31
0.0
  0
SPLINE
  5
131
100
AcDbEntity
  8
Layer_1
 62
3
100
AcDbSpline
 70
8
 71
3
 72
8
 73
4
 74
0
 40
0
 40
0
 40
0
 40
0
 40
1
 40
1
 40
1
 40
1
 10
126.437300
 20
290.756900
 30
0.0
 10
127.070283
 20
290.756900
 30
0.0
 10
127.640939
 20
290.375600
 30
0.0
 10
127.883172
 20
289.790800
 30
0.0
  0
SPLINE
  5
132
100
AcDbEntity
  8
Layer_1
 62
3
100
AcDbSpline
 70
8
 71
3
 72
8
 73
4
 74
0
 40
0
 40
0
 40
0
 40
0
 40
1
 40
1
 40
1
 40
1
 10
127.883172
 20
289.790800
 30
0.0
 10
128.125404
 20
289.205999
 30
0.0
 10
127.991509
 20
288.532865
 30
0.0
 10
127.543922
 20
288.085278
 30
0.0
  0
SPLINE
  5
133
100
AcDbEntity
  8
Layer_1
 62
3
100
AcDbSpline
 70
8
 71
3
 72
8
 73
4
 74
0
 40
0
 40
0
 40
0
 40
0
 40
1
 40
1
 40
1
 40
1
 10
127.543922
 20
288.085278
 30
0.0
 10
127.096335
 20
287.637691
 30
0.0
 10
126.423201
 20
287.503796
 30
0.0
 10
125.838400
 20
287.746028
 30
0.0
  0
SPLINE
  5
134
100
AcDbEntity
  8
Layer_1
 62
3
100
AcDbSpline
 70
8
 71
3
 72
8
 73
4
 74
0
 40
0
 40
0
 40
0
 40
0
 40
1
 40
1
 40
1
 40
1
 10
125.838400
 20
287.746028
 30
0.0
 10
125.253600
 20
287.988261
 30
0.0
 10
124.872300
 20
288.558917
 30
0.0
 10
124.872300
 20
289.191900
 30
0.0
  0
SPLINE
  5
135
100
AcDbEntity
  8
Layer_1
 62
3
100
AcDbSpline
 70
8
 71
3
 72
8
 73
4
 74
0
 40
0
 40
0
 40
0
 40
0
 40
1
 40
1
 40
1
 40
1
 10
124.872300
 20
289.191900
 30
0.0
 10
124.872300
 20
289.606964
 30
0.0
 10
125.037183
 20
290.005028
 30
0.0
 10
125.330678
 20
290.298522
 30
0.0
  0
SPLINE
  5
136
100
AcDbEntity
  8
Layer_1
 62
3
100
AcDbSpline
 70
8
 71
3
 72
8
 73
4
 74
0
 40
0
 40
0
 40
0
 40
0
 40
1
 40
1
 40
1
 40
1
 10
125.330678
 20
290.298522
 30
0.0
 10
125.624172
 20
290.592017
 30
0.0
 10
126.022236
 20
290.756900
 30
0.0
 10
126.437300
 20
290.756900
 30
0.0
  0
LINE
  5
137
100
AcDbEntity
  8
Layer_1
 62
3
100
AcDbLine
 10
126.437300
 20
290.756900
 30
0.0
 11
126.437300
 21
290.756900
 31
0.0
  0
SPLINE
  5
138
100
AcDbEntity
  8
Layer_1
 62
3
100
AcDbSpline
 70
8
 71
3
 72
8
 73
4
 74
0
 40
0
 40
0
 40
0
 40
0
 40
1
 40
1
 40
1
 40
1
 10
40.143162
 20
290.757364
 30
0.0
 10
40.776145
 20
290.757364
 30
0.0
 10
41.346801
 20
290.376064
 30
0.0
 10
41.589034
 20
289.791263
 30
0.0
  0
SPLINE
  5
139
100
AcDbEntity
  8
Layer_1
 62
3
100
AcDbSpline
 70
8
 71
3
 72
8
 73
4
 74
0
 40
0
 40
0
 40
0
 40
0
 40
1
 40
1
 40
1
 40
1
 10
41.589034
 20
289.791263
 30
0.0
 10
41.831266
 20
289.206463
 30
0.0
 10
41.697371
 20
288.533328
 30
0.0
 10
41.249784
 20
288.085742
 30
0.0
  0
SPLINE
  5
13a
100
AcDbEntity
  8
Layer_1
 62
3
100
AcDbSpline
 70
8
 71
3
 72
8
 73
4
 74
0
 40
0
 40
0
 40
0
 40
0
 40
1
 40
1
 40
1
 40
1
 10
41.249784
 20
288.085742
 30
0.0
 10
40.802197
 20
287.638155
 30
0.0
 10
40.129063
 20
287.504260
 30
0.0
 10
39.544262
 20
287.746492
 30
0.0
  0
SPLINE
  5
13b
100
AcDbEntity
  8
Layer_1
 62
3
100
AcDbSpline
 70
8
 71
3
 72
8
 73
4
 74
0
 40
0
 40
0
 40
0
 40
0
 40
1
 40
1
 40
1
 40
1
 10
39.544262
 20
287.746492
 30
0.0
 10
38.959462
 20
287.988724
 30
0.0
 10
38.578162
 20
288.559380
 30
0.0
 10
38.578162
 20
289.192364
 30
0.0
  0
SPLINE
  5
13c
100
AcDbEntity
  8
Layer_1
 62
3
100
AcDbSpline
 70
8
 71
3
 72
8
 73
4
 74
0
 40
0
 40
0
 40
0
 40
0
 40
1
 40
1
 40
1
 40
1
 10
38.578162
 20
289.192364
 30
0.0
 10
38.578162
 20
289.607428
 30
0.0
 10
38.743045
 20
290.005491
 30
0.0
 10
39.036540
 20
290.298986
 30
0.0
  0
SPLINE
  5
13d
100
AcDbEntity
  8
Layer_1
 62
3
100
AcDbSpline
 70
8
 71
3
 72
8
 73
4
 74
0
 40
0
 40
0
 40
0
 40
0
 40
1
 40
1
 40
1
 40
1
 10
39.036540
 20
290.298986
 30
0.0
 10
39.330034
 20
290.592480
 30
0.0
 10
39.728098
 20
290.757364
 30
0.0
 10
40.143162
 20
290.757364
 30
0.0
  0
LINE
  5
13e
100
AcDbEntity
  8
Layer_1
 62
3
100
AcDbLine
 10
40.143162
 20
290.757364
 30
0.0
 11
40.143162
 21
290.757364
 31
0.0
  0
SPLINE
  5
13f
100
AcDbEntity
  8
Layer_1
 62
3
100
AcDbSpline
 70
8
 71
3
 72
8
 73
4
 74
0
 40
0
 40
0
 40
0
 40
0
 40
1
 40
1
 40
1
 40
1
 10
40.143162
 20
202.385175
 30
0.0
 10
40.776145
 20
202.385175
 30
0.0
 10
41.346801
 20
202.003875
 30
0.0
 10
41.589034
 20
201.419075
 30
0.0
  0
SPLINE
  5
140
100
AcDbEntity
  8
Layer_1
 62
3
100
AcDbSpline
 70
8
 71
3
 72
8
 73
4
 74
0
 40
0
 40
0
 40
0
 40
0
 40
1
 40
1
 40
1
 40
1
 10
41.589034
 20
201.419075
 30
0.0
 10
41.831266
 20
200.834274
 30
0.0
 10
41.697371
 20
200.161140
 30
0.0
 10
41.249784
 20
199.713553
 30
0.0
  0
SPLINE
  5
141
100
AcDbEntity
  8
Layer_1
 62
3
100
AcDbSpline
 70
8
 71
3
 72
8
 73
4
 74
0
 40
0
 40
0
 40
0
 40
0
 40
1
 40
1
 40
1
 40
1
 10
41.249784
 20
199.713553
 30
0.0
 10
40.802197
 20
199.265966
 30
0.0
 10
40.129063
 20
199.132071
 30
0.0
 10
39.544262
 20
199.374303
 30
0.0
  0
SPLINE
  5
142
100
AcDbEntity
  8
Layer_1
 62
3
100
AcDbSpline
 70
8
 71
3
 72
8
 73
4
 74
0
 40
0
 40
0
 40
0
 40
0
 40
1
 40
1
 40
1
 40
1
 10
39.544262
 20
199.374303
 30
0.0
 10
38.959462
 20
199.616536
 30
0.0
 10
38.578162
 20
200.187192
 30
0.0
 10
38.578162
 20
200.820175
 30
0.0
  0
SPLINE
  5
143
100
AcDbEntity
  8
Layer_1
 62
3
100
AcDbSpline
 70
8
 71
3
 72
8
 73
4
 74
0
 40
0
 40
0
 40
0
 40
0
 40
1
 40
1
 40
1
 40
1
 10
38.578162
 20
200.820175
 30
0.0
 10
38.578162
 20
201.235239
 30
0.0
 10
38.743045
 20
201.633303
 30
0.0
 10
39.036540
 20
201.926797
 30
0.0
  0
SPLINE
  5
144
100
AcDbEntity
  8
Layer_1
 62
3
100
AcDbSpline
 70
8
 71
3
 72
8
 73
4
 74
0
 40
0
 40
0
 40
0
 40
0
 40
1
 40
1
 40
1
 40
1
 10
39.036540
 20
201.926797
 30
0.0
 10
39.330034
 20
202.220292
 30
0.0
 10
39.728098
 20
202.385175
 30
0.0
 10
40.143162
 20
202.385175
 30
0.0
  0
LINE
  5
145
100
AcDbEntity
  8
Layer_1
 62
3
100
AcDbLine
 10
40.143162
 20
202.385175
 30
0.0
 11
40.143162
 21
202.385175
 31
0.0
  0
LINE
  5
146
100
AcDbEntity
  8
Layer_1
 62
3
100
AcDbLine
 10
84.705340
 20
206.376400
 30
0.0
 11
145.284610
 21
206.376400
 31
0.0
  0
LINE
  5
147
100
AcDbEntity
  8
Layer_1
 62
3
100
AcDbLine
 10
145.284610
 20
206.376400
 30
0.0
 11
186.335320
 21
206.376400
 31
0.0
  0
LINE
  5
148
100
AcDbEntity
  8
Layer_1
 62
3
100
AcDbLine
 10
186.335320
 20
206.376400
 30
0.0
 11
248.075130
 21
206.376400
 31
0.0
  0
LINE
  5
149
100
AcDbEntity
  8
Layer_1
 62
3
100
AcDbLine
 10
248.075130
 20
206.376400
 30
0.0
 11
288.544330
 21
206.376400
 31
0.0
  0
SPLINE
  5
14a
100
AcDbEntity
  8
Layer_1
 62
3
100
AcDbSpline
 70
8
 71
3
 72
8
 73
4
 74
0
 40
0
 40
0
 40
0
 40
0
 40
1
 40
1
 40
1
 40
1
 10
288.544330
 20
206.376400
 30
0.0
 10
288.684685
 20
206.376391
 30
0.0
 10
288.819295
 20
206.432143
 30
0.0
 10
288.918541
 20
206.531389
 30
0.0
  0
SPLINE
  5
14b
100
AcDbEntity
  8
Layer_1
 62
3
100
AcDbSpline
 70
8
 71
3
 72
8
 73
4
 74
0
 40
0
 40
0
 40
0
 40
0
 40
1
 40
1
 40
1
 40
1
 10
288.918541
 20
206.531389
 30
0.0
 10
289.017787
 20
206.630635
 30
0.0
 10
289.073539
 20
206.765245
 30
0.0
 10
289.073530
 20
206.905600
 30
0.0
  0
LINE
  5
14c
100
AcDbEntity
  8
Layer_1
 62
3
100
AcDbLine
 10
289.073530
 20
206.905600
 30
0.0
 11
289.073530
 21
283.105600
 31
0.0
  0
SPLINE
  5
14d
100
AcDbEntity
  8
Layer_1
 62
3
100
AcDbSpline
 70
8
 71
3
 72
8
 73
4
 74
0
 40
0
 40
0
 40
0
 40
0
 40
1
 40
1
 40
1
 40
1
 10
289.073530
 20
283.105600
 30
0.0
 10
289.073539
 20
283.245955
 30
0.0
 10
289.017787
 20
283.380565
 30
0.0
 10
288.918541
 20
283.479811
 30
0.0
  0
SPLINE
  5
14e
100
AcDbEntity
  8
Layer_1
 62
3
100
AcDbSpline
 70
8
 71
3
 72
8
 73
4
 74
0
 40
0
 40
0
 40
0
 40
0
 40
1
 40
1
 40
1
 40
1
 10
288.918541
 20
283.479811
 30
0.0
 10
288.819295
 20
283.579057
 30
0.0
 10
288.684685
 20
283.634809
 30
0.0
 10
288.544330
 20
283.634800
 30
0.0
  0
LINE
  5
14f
100
AcDbEntity
  8
Layer_1
 62
3
100
AcDbLine
 10
288.544330
 20
283.634800
 30
0.0
 11
249.137330
 21
283.634800
 31
0.0
  0
LINE
  5
150
100
AcDbEntity
  8
Layer_1
 62
3
100
AcDbLine
 10
249.137330
 20
283.634800
 30
0.0
 11
187.401770
 21
283.634800
 31
0.0
  0
LINE
  5
151
100
AcDbEntity
  8
Layer_1
 62
3
100
AcDbLine
 10
187.401770
 20
283.634800
 30
0.0
 11
146.350170
 21
283.634800
 31
0.0
  0
LINE
  5
152
100
AcDbEntity
  8
Layer_1
 62
3
100
AcDbLine
 10
146.350170
 20
283.634800
 30
0.0
 11
84.705070
 21
283.634800
 31
0.0
  0
SPLINE
  5
153
100
AcDbEntity
  8
Layer_1
 62
3
100
AcDbSpline
 70
8
 71
3
 72
8
 73
4
 74
0
 40
0
 40
0
 40
0
 40
0
 40
1
 40
1
 40
1
 40
1
 10
84.705070
 20
283.634800
 30
0.0
 10
84.352290
 20
283.634795
 30
0.0
 10
83.999510
 20
283.634795
 30
0.0
 10
83.646730
 20
283.634800
 30
0.0
  0
LINE
  5
154
100
AcDbEntity
  8
Layer_1
 62
3
100
AcDbLine
 10
83.646730
 20
283.634800
 30
0.0
 11
45.660120
 21
283.635800
 31
0.0
  0
SPLINE
  5
155
100
AcDbEntity
  8
Layer_1
 62
3
100
AcDbSpline
 70
8
 71
3
 72
8
 73
4
 74
0
 40
0
 40
0
 40
0
 40
0
 40
1
 40
1
 40
1
 40
1
 10
45.660120
 20
283.635800
 30
0.0
 10
45.307340
 20
283.635805
 30
0.0
 10
44.954560
 20
283.635805
 30
0.0
 10
44.601780
 20
283.635800
 30
0.0
  0
LINE
  5
156
100
AcDbEntity
  8
Layer_1
 62
3
100
AcDbLine
 10
44.601780
 20
283.635800
 30
0.0
 11
11.793440
 21
283.635800
 31
0.0
  0
SPLINE
  5
157
100
AcDbEntity
  8
Layer_1
 62
3
100
AcDbSpline
 70
8
 71
3
 72
8
 73
4
 74
0
 40
0
 40
0
 40
0
 40
0
 40
1
 40
1
 40
1
 40
1
 10
11.793440
 20
283.635800
 30
0.0
 10
11.501168
 20
283.635799
 30
0.0
 10
11.264232
 20
283.398872
 30
0.0
 10
11.264220
 20
283.106600
 30
0.0
  0
LINE
  5
158
100
AcDbEntity
  8
Layer_1
 62
3
100
AcDbLine
 10
11.264220
 20
283.106600
 30
0.0
 11
11.256220
 21
206.907700
 31
0.0
  0
SPLINE
  5
159
100
AcDbEntity
  8
Layer_1
 62
3
100
AcDbSpline
 70
8
 71
3
 72
8
 73
4
 74
0
 40
0
 40
0
 40
0
 40
0
 40
1
 40
1
 40
1
 40
1
 10
11.256220
 20
206.907700
 30
0.0
 10
11.256197
 20
206.767354
 30
0.0
 10
11.311933
 20
206.632749
 30
0.0
 10
11.411165
 20
206.533502
 30
0.0
  0
SPLINE
  5
15a
100
AcDbEntity
  8
Layer_1
 62
3
100
AcDbSpline
 70
8
 71
3
 72
8
 73
4
 74
0
 40
0
 40
0
 40
0
 40
0
 40
1
 40
1
 40
1
 40
1
 10
11.411165
 20
206.533502
 30
0.0
 10
11.510397
 20
206.434255
 30
0.0
 10
11.644994
 20
206.378498
 30
0.0
 10
11.785340
 20
206.378500
 30
0.0
  0
LINE
  5
15b
100
AcDbEntity
  8
Layer_1
 62
3
100
AcDbLine
 10
11.785340
 20
206.378500
 30
0.0
 11
44.593630
 21
206.378500
 31
0.0
  0
SPLINE
  5
15c
100
AcDbEntity
  8
Layer_1
 62
3
100
AcDbSpline
 70
8
 71
3
 72
8
 73
4
 74
0
 40
0
 40
0
 40
0
 40
0
 40
1
 40
1
 40
1
 40
1
 10
44.593630
 20
206.378500
 30
0.0
 10
44.946410
 20
206.378509
 30
0.0
 10
45.299190
 20
206.378509
 30
0.0
 10
45.651970
 20
206.378500
 30
0.0
  0
LINE
  5
15d
100
AcDbEntity
  8
Layer_1
 62
3
100
AcDbLine
 10
45.651970
 20
206.378500
 30
0.0
 11
83.646900
 21
206.378500
 31
0.0
  0
SPLINE
  5
15e
100
AcDbEntity
  8
Layer_1
 62
3
100
AcDbSpline
 70
8
 71
3
 72
8
 73
4
 74
0
 40
0
 40
0
 40
0
 40
0
 40
1
 40
1
 40
1
 40
1
 10
83.646900
 20
206.378500
 30
0.0
 10
83.999680
 20
206.378491
 30
0.0
 10
84.352460
 20
206.378491
 30
0.0
 10
84.705240
 20
206.378500
 30
0.0
  0
LINE
  5
15f
100
AcDbEntity
  8
Layer_1
 62
3
100
AcDbLine
 10
84.705240
 20
206.378500
 30
0.0
 11
84.705340
 21
206.376400
 31
0.0
  0
LINE
  5
160
100
AcDbEntity
  8
Layer_1
 62
3
100
AcDbLine
 10
249.215610
 20
193.144000
 30
0.0
 11
296.493450
 21
193.144000
 31
0.0
  0
SPLINE
  5
161
100
AcDbEntity
  8
Layer_1
 62
3
100
AcDbSpline
 70
8
 71
3
 72
8
 73
4
 74
0
 40
0
 40
0
 40
0
 40
0
 40
1
 40
1
 40
1
 40
1
 10
296.493450
 20
193.144000
 30
0.0
 10
297.195145
 20
193.144001
 30
0.0
 10
297.868097
 20
193.422760
 30
0.0
 10
298.364255
 20
193.918948
 30
0.0
  0
SPLINE
  5
162
100
AcDbEntity
  8
Layer_1
 62
3
100
AcDbSpline
 70
8
 71
3
 72
8
 73
4
 74
0
 40
0
 40
0
 40
0
 40
0
 40
1
 40
1
 40
1
 40
1
 10
298.364255
 20
193.918948
 30
0.0
 10
298.860413
 20
194.415136
 30
0.0
 10
299.139131
 20
195.088105
 30
0.0
 10
299.139090
 20
195.789800
 30
0.0
  0
LINE
  5
163
100
AcDbEntity
  8
Layer_1
 62
3
100
AcDbLine
 10
299.139090
 20
195.789800
 30
0.0
 11
299.138530
 21
203.734400
 31
0.0
  0
SPLINE
  5
164
100
AcDbEntity
  8
Layer_1
 62
3
100
AcDbSpline
 70
8
 71
3
 72
8
 73
4
 74
0
 40
0
 40
0
 40
0
 40
0
 40
1
 40
1
 40
1
 40
1
 10
299.138530
 20
203.734400
 30
0.0
 10
299.138465
 20
204.435669
 30
0.0
 10
298.859501
 20
205.108120
 30
0.0
 10
298.363139
 20
205.603502
 30
0.0
  0
SPLINE
  5
165
100
AcDbEntity
  8
Layer_1
 62
3
100
AcDbSpline
 70
8
 71
3
 72
8
 73
4
 74
0
 40
0
 40
0
 40
0
 40
0
 40
1
 40
1
 40
1
 40
1
 10
298.363139
 20
205.603502
 30
0.0
 10
297.866778
 20
206.098884
 30
0.0
 10
297.193777
 20
206.376520
 30
0.0
 10
296.492510
 20
206.375200
 30
0.0
  0
LINE
  5
166
100
AcDbEntity
  8
Layer_1
 62
3
100
AcDbLine
 10
296.492510
 20
206.375200
 30
0.0
 11
296.465910
 21
206.375200
 31
0.0
  0
SPLINE
  5
167
100
AcDbEntity
  8
Layer_1
 62
3
100
AcDbSpline
 70
8
 71
3
 72
8
 73
4
 74
0
 40
0
 40
0
 40
0
 40
0
 40
1
 40
1
 40
1
 40
1
 10
296.465910
 20
206.375200
 30
0.0
 10
295.764564
 20
206.373881
 30
0.0
 10
295.091475
 20
206.651489
 30
0.0
 10
294.594977
 20
207.146846
 30
0.0
  0
SPLINE
  5
168
100
AcDbEntity
  8
Layer_1
 62
3
100
AcDbSpline
 70
8
 71
3
 72
8
 73
4
 74
0
 40
0
 40
0
 40
0
 40
0
 40
1
 40
1
 40
1
 40
1
 10
294.594977
 20
207.146846
 30
0.0
 10
294.098479
 20
207.642204
 30
0.0
 10
293.819324
 20
208.314652
 30
0.0
 10
293.819030
 20
209.016000
 30
0.0
  0
LINE
  5
169
100
AcDbEntity
  8
Layer_1
 62
3
100
AcDbLine
 10
293.819030
 20
209.016000
 30
0.0
 11
293.797430
 21
263.428100
 31
0.0
  0
SPLINE
  5
16a
100
AcDbEntity
  8
Layer_1
 62
3
100
AcDbSpline
 70
8
 71
3
 72
8
 73
4
 74
0
 40
0
 40
0
 40
0
 40
0
 40
1
 40
1
 40
1
 40
1
 10
293.797430
 20
263.428100
 30
0.0
 10
293.796755
 20
265.191969
 30
0.0
 10
293.799088
 20
266.955839
 30
0.0
 10
293.804430
 20
268.719700
 30
0.0
  0
LINE
  5
16b
100
AcDbEntity
  8
Layer_1
 62
3
100
AcDbLine
 10
293.804430
 20
268.719700
 30
0.0
 11
293.811430
 21
270.926200
 31
0.0
  0
SPLINE
  5
16c
100
AcDbEntity
  8
Layer_1
 62
3
100
AcDbSpline
 70
8
 71
3
 72
8
 73
4
 74
0
 40
0
 40
0
 40
0
 40
0
 40
1
 40
1
 40
1
 40
1
 10
293.811430
 20
270.926200
 30
0.0
 10
293.815850
 20
272.388724
 30
0.0
 10
295.002700
 20
273.571996
 30
0.0
 10
296.465230
 20
273.572000
 30
0.0
  0
LINE
  5
16d
100
AcDbEntity
  8
Layer_1
 62
3
100
AcDbLine
 10
296.465230
 20
273.572000
 30
0.0
 11
296.486130
 21
273.572000
 31
0.0
  0
SPLINE
  5
16e
100
AcDbEntity
  8
Layer_1
 62
3
100
AcDbSpline
 70
8
 71
3
 72
8
 73
4
 74
0
 40
0
 40
0
 40
0
 40
0
 40
1
 40
1
 40
1
 40
1
 10
296.486130
 20
273.572000
 30
0.0
 10
297.187821
 20
273.572002
 30
0.0
 10
297.860769
 20
273.850762
 30
0.0
 10
298.356921
 20
274.346951
 30
0.0
  0
SPLINE
  5
16f
100
AcDbEntity
  8
Layer_1
 62
3
100
AcDbSpline
 70
8
 71
3
 72
8
 73
4
 74
0
 40
0
 40
0
 40
0
 40
0
 40
1
 40
1
 40
1
 40
1
 10
298.356921
 20
274.346951
 30
0.0
 10
298.853072
 20
274.843140
 30
0.0
 10
299.131781
 20
275.516109
 30
0.0
 10
299.131730
 20
276.217800
 30
0.0
  0
LINE
  5
170
100
AcDbEntity
  8
Layer_1
 62
3
100
AcDbLine
 10
299.131730
 20
276.217800
 30
0.0
 11
299.129730
 21
294.218400
 31
0.0
  0
SPLINE
  5
171
100
AcDbEntity
  8
Layer_1
 62
3
100
AcDbSpline
 70
8
 71
3
 72
8
 73
4
 74
0
 40
0
 40
0
 40
0
 40
0
 40
1
 40
1
 40
1
 40
1
 10
299.129730
 20
294.218400
 30
0.0
 10
299.129586
 20
295.679677
 30
0.0
 10
297.944947
 20
296.864200
 30
0.0
 10
296.483670
 20
296.864200
 30
0.0
  0
LINE
  5
172
100
AcDbEntity
  8
Layer_1
 62
3
100
AcDbLine
 10
296.483670
 20
296.864200
 30
0.0
 11
244.605340
 21
296.864200
 31
0.0
  0
LINE
  5
173
100
AcDbEntity
  8
Layer_1
 62
3
100
AcDbLine
 10
244.605340
 20
296.864200
 30
0.0
 11
59.435770
 21
296.864200
 31
0.0
  0
LINE
  5
174
100
AcDbEntity
  8
Layer_1
 62
3
100
AcDbLine
 10
59.435770
 20
296.864200
 30
0.0
 11
2.794890
 21
296.864200
 31
0.0
  0
SPLINE
  5
175
100
AcDbEntity
  8
Layer_1
 62
3
100
AcDbSpline
 70
8
 71
3
 72
8
 73
4
 74
0
 40
0
 40
0
 40
0
 40
0
 40
1
 40
1
 40
1
 40
1
 10
2.794890
 20
296.864200
 30
0.0
 10
1.333663
 20
296.864182
 30
0.0
 10
0.149108
 20
295.679627
 30
0.0
 10
0.149090
 20
294.218400
 30
0.0
  0
LINE
  5
176
100
AcDbEntity
  8
Layer_1
 62
3
100
AcDbLine
 10
0.149090
 20
294.218400
 30
0.0
 11
0.149090
 21
276.217800
 31
0.0
  0
SPLINE
  5
177
100
AcDbEntity
  8
Layer_1
 62
3
100
AcDbSpline
 70
8
 71
3
 72
8
 73
4
 74
0
 40
0
 40
0
 40
0
 40
0
 40
1
 40
1
 40
1
 40
1
 10
0.149090
 20
276.217800
 30
0.0
 10
0.149108
 20
274.756573
 30
0.0
 10
1.333663
 20
273.572018
 30
0.0
 10
2.794890
 20
273.572000
 30
0.0
  0
LINE
  5
178
100
AcDbEntity
  8
Layer_1
 62
3
100
AcDbLine
 10
2.794890
 20
273.572000
 30
0.0
 11
2.816890
 21
273.572000
 31
0.0
  0
SPLINE
  5
179
100
AcDbEntity
  8
Layer_1
 62
3
100
AcDbSpline
 70
8
 71
3
 72
8
 73
4
 74
0
 40
0
 40
0
 40
0
 40
0
 40
1
 40
1
 40
1
 40
1
 10
2.816890
 20
273.572000
 30
0.0
 10
4.278090
 20
273.572000
 30
0.0
 10
5.462690
 20
272.387400
 30
0.0
 10
5.462690
 20
270.926200
 30
0.0
  0
SPLINE
  5
17a
100
AcDbEntity
  8
Layer_1
 62
3
100
AcDbSpline
 70
8
 71
3
 72
8
 73
4
 74
0
 40
0
 40
0
 40
0
 40
0
 40
1
 40
1
 40
1
 40
1
 10
5.462690
 20
270.926200
 30
0.0
 10
5.462690
 20
197.325000
 30
0.0
 10
5.462690
 20
277.681200
 30
0.0
 10
5.463390
 20
209.020100
 30
0.0
  0
SPLINE
  5
17b
100
AcDbEntity
  8
Layer_1
 62
3
100
AcDbSpline
 70
8
 71
3
 72
8
 73
4
 74
0
 40
0
 40
0
 40
0
 40
0
 40
1
 40
1
 40
1
 40
1
 10
5.463390
 20
209.020100
 30
0.0
 10
5.463390
 20
207.558900
 30
0.0
 10
4.278790
 20
206.374400
 30
0.0
 10
2.817590
 20
206.374400
 30
0.0
  0
LINE
  5
17c
100
AcDbEntity
  8
Layer_1
 62
3
100
AcDbLine
 10
2.817590
 20
206.374400
 30
0.0
 11
2.788590
 21
206.374400
 31
0.0
  0
SPLINE
  5
17d
100
AcDbEntity
  8
Layer_1
 62
3
100
AcDbSpline
 70
8
 71
3
 72
8
 73
4
 74
0
 40
0
 40
0
 40
0
 40
0
 40
1
 40
1
 40
1
 40
1
 10
2.788590
 20
206.374400
 30
0.0
 10
1.327330
 20
206.374382
 30
0.0
 10
0.142719
 20
205.189860
 30
0.0
 10
0.142590
 20
203.728600
 30
0.0
  0
LINE
  5
17e
100
AcDbEntity
  8
Layer_1
 62
3
100
AcDbLine
 10
0.142590
 20
203.728600
 30
0.0
 11
0.141990
 21
195.786000
 31
0.0
  0
SPLINE
  5
17f
100
AcDbEntity
  8
Layer_1
 62
3
100
AcDbSpline
 70
8
 71
3
 72
8
 73
4
 74
0
 40
0
 40
0
 40
0
 40
0
 40
1
 40
1
 40
1
 40
1
 10
0.141990
 20
195.786000
 30
0.0
 10
0.141946
 20
195.084311
 30
0.0
 10
0.420657
 20
194.411346
 30
0.0
 10
0.916807
 20
193.915159
 30
0.0
  0
SPLINE
  5
180
100
AcDbEntity
  8
Layer_1
 62
3
100
AcDbSpline
 70
8
 71
3
 72
8
 73
4
 74
0
 40
0
 40
0
 40
0
 40
0
 40
1
 40
1
 40
1
 40
1
 10
0.916807
 20
193.915159
 30
0.0
 10
1.412957
 20
193.418971
 30
0.0
 10
2.085901
 20
193.140209
 30
0.0
 10
2.787590
 20
193.140200
 30
0.0
  0
LINE
  5
181
100
AcDbEntity
  8
Layer_1
 62
3
100
AcDbLine
 10
2.787590
 20
193.140200
 30
0.0
 11
52.182190
 21
193.140200
 31
0.0
  0
SPLINE
  5
182
100
AcDbEntity
  8
Layer_1
 62
3
100
AcDbSpline
 70
8
 71
3
 72
8
 73
4
 74
0
 40
0
 40
0
 40
0
 40
0
 40
1
 40
1
 40
1
 40
1
 10
52.182190
 20
193.140200
 30
0.0
 10
53.946073
 20
193.140216
 30
0.0
 10
55.709957
 20
193.140249
 30
0.0
 10
57.473840
 20
193.140300
 30
0.0
  0
LINE
  5
183
100
AcDbEntity
  8
Layer_1
 62
3
100
AcDbLine
 10
57.473840
 20
193.140300
 30
0.0
 11
243.924340
 21
193.140300
 31
0.0
  0
SPLINE
  5
184
100
AcDbEntity
  8
Layer_1
 62
3
100
AcDbSpline
 70
8
 71
3
 72
8
 73
4
 74
0
 40
0
 40
0
 40
0
 40
0
 40
1
 40
1
 40
1
 40
1
 10
243.924340
 20
193.140300
 30
0.0
 10
245.688227
 20
193.140351
 30
0.0
 10
247.452113
 20
193.140384
 30
0.0
 10
249.216000
 20
193.140400
 30
0.0
  0
LINE
  5
185
100
AcDbEntity
  8
Layer_1
 62
3
100
AcDbLine
 10
249.216000
 20
193.140400
 30
0.0
 11
249.215610
 21
193.144000
 31
0.0
  0
ENDSEC
  0
SECTION
  2
OBJECTS
  0
DICTIONARY
  5
C
330
0
100
AcDbDictionary
  3
ACAD_GROUP
350
D
  3
ACAD_MLINESTYLE
350
17
  0
DICTIONARY
  5
D
330
C
100
AcDbDictionary
  0
DICTIONARY
  5
1A
330
C
100
AcDbDictionary
  0
DICTIONARY
  5
17
330
C
100
AcDbDictionary
  3
STANDARD
350
18
  0
DICTIONARY
  5
19
330
C
100
AcDbDictionary
  0
ENDSEC
  0
EOF
