  0
SECTION
  2
HEADER
  9
$ACADVER
  1
AC1014
  9
$HANDSEED
  5
FFFF
  9
$INSUNITS
 70
     0
  9
$MEASUREMENT
 70
     1
  0
ENDSEC
  0
SECTION
  2
TABLES
  0
TABLE
  2
VPORT
  5
8
330
0
100
AcDbSymbolTable
 70
     4
  0
VPORT
  5
2E
330
8
100
AcDbSymbolTableRecord
100
AcDbViewportTableRecord
  2
*ACTIVE
 70
     0
 10
0.0
 20
0.0
 11
1.0
 21
1.0
 12
210.0
 22
148.5
 13
0.0
 23
0.0
 14
10.0
 24
10.0
 15
10.0
 25
10.0
 16
0.0
 26
0.0
 36
1.0
 17
0.0
 27
0.0
 37
0.0
 40
341.0
 41
1.24
 42
50.0
 43
0.0
 44
0.0
 50
0.0
 51
0.0
 71
     0
 72
   100
 73
     1
 74
     3
 75
     0
 76
     0
 77
     0
 78
     0
  0
ENDTAB
  0
TABLE
  2
LTYPE
  5
5
330
0
100
AcDbSymbolTable
 70
     1
  0
LTYPE
  5
14
330
5
100
AcDbSymbolTableRecord
100
AcDbLinetypeTableRecord
  2
BYBLOCK
 70
     0
  3

 72
    65
 73
     0
 40
0.0
  0
LTYPE
  5
15
330
5
100
AcDbSymbolTableRecord
100
AcDbLinetypeTableRecord
  2
BYLAYER
 70
     0
  3

 72
    65
 73
     0
 40
0.0
  0
LTYPE
  5
16
330
5
100
AcDbSymbolTableRecord
100
AcDbLinetypeTableRecord
  2
CONTINUOUS
 70
     0
  3
Solid line
 72
    65
 73
     0
 40
0.0
  0
ENDTAB
  0
TABLE
  2
LAYER
  5
2
100
AcDbSymbolTable
 70
2
  0
LAYER
  5
50
100
AcDbSymbolTableRecord
100
AcDbLayerTableRecord
  2
0
 70
0
  6
CONTINUOUS
  0
LAYER
  5
51
100
AcDbSymbolTableRecord
100
AcDbLayerTableRecord
  2
Layer_1
 70
0
  6
CONTINUOUS
  0
ENDTAB
  0
TABLE
  2
STYLE
  5
3
330
0
100
AcDbSymbolTable
 70
     1
  0
STYLE
  5
11
330
3
100
AcDbSymbolTableRecord
100
AcDbTextStyleTableRecord
  2
STANDARD
 70
     0
 40
0.0
 41
1.0
 50
0.0
 71
     0
 42
2.5
  3
txt
  4

  0
ENDTAB
  0
TABLE
  2
VIEW
  5
6
330
0
100
AcDbSymbolTable
 70
     0
  0
ENDTAB
  0
TABLE
  2
UCS
  5
7
330
0
100
AcDbSymbolTable
 70
     0
  0
ENDTAB
  0
TABLE
  2
APPID
  5
9
330
0
100
AcDbSymbolTable
 70
     2
  0
APPID
  5
12
330
9
100
AcDbSymbolTableRecord
100
AcDbRegAppTableRecord
  2
ACAD
 70
     0
  0
ENDTAB
  0
TABLE
  2
DIMSTYLE
  5
A
330
0
100
AcDbSymbolTable
 70
     1
  0
DIMSTYLE
105
27
330
A
100
AcDbSymbolTableRecord
100
AcDbDimStyleTableRecord
  2
ISO-25
 70
     0
  3

  4

  5

  6

  7

 40
1.0
 41
2.5
 42
0.625
 43
3.75
 44
1.25
 45
0.0
 46
0.0
 47
0.0
 48
0.0
140
2.5
141
2.5
142
0.0
143
0.03937007874016
144
1.0
145
0.0
146
1.0
147
0.625
 71
     0
 72
     0
 73
     0
 74
     0
 75
     0
 76
     0
 77
     1
 78
     8
170
     0
171
     3
172
     1
173
     0
174
     0
175
     0
176
     0
177
     0
178
     0
270
     2
271
     2
272
     2
273
     2
274
     3
340
11
275
     0
280
     0
281
     0
282
     0
283
     0
284
     8
285
     0
286
     0
287
     3
288
     0
  0
ENDTAB
  0
TABLE
  2
BLOCK_RECORD
  5
1
330
0
100
AcDbSymbolTable
 70
     1
  0
BLOCK_RECORD
  5
1F
330
1
100
AcDbSymbolTableRecord
100
AcDbBlockTableRecord
  2
*MODEL_SPACE
  0
BLOCK_RECORD
  5
1B
330
1
100
AcDbSymbolTableRecord
100
AcDbBlockTableRecord
  2
*PAPER_SPACE
  0
ENDTAB
  0
ENDSEC
  0
SECTION
  2
BLOCKS
  0
BLOCK
  5
20
330
1F
100
AcDbEntity
  8
0
100
AcDbBlockBegin
  2
*MODEL_SPACE
 70
     0
 10
0.0
 20
0.0
 30
0.0
  3
*MODEL_SPACE
  1

  0
ENDBLK
  5
21
330
1F
100
AcDbEntity
  8
0
100
AcDbBlockEnd
  0
BLOCK
  5
1C
330
1B
100
AcDbEntity
 67
     1
  8
0
100
AcDbBlockBegin
  2
*PAPER_SPACE
  1

  0
ENDBLK
  5
1D
330
1B
100
AcDbEntity
 67
     1
  8
0
100
AcDbBlockEnd
  0
ENDSEC
  0
SECTION
  2
ENTITIES
  0
LINE
  5
100
100
AcDbEntity
  8
Layer_1
 62
1
100
AcDbLine
 10
160.852860
 20
280.580609
 30
0.0
 11
173.852860
 21
280.580609
 31
0.0
  0
SPLINE
  5
101
100
AcDbEntity
  8
Layer_1
 62
1
100
AcDbSpline
 70
8
 71
3
 72
8
 73
4
 74
0
 40
0
 40
0
 40
0
 40
0
 40
1
 40
1
 40
1
 40
1
 10
173.852860
 20
280.580609
 30
0.0
 10
173.985468
 20
280.580609
 30
0.0
 10
174.112645
 20
280.527931
 30
0.0
 10
174.206413
 20
280.434162
 30
0.0
  0
SPLINE
  5
102
100
AcDbEntity
  8
Layer_1
 62
1
100
AcDbSpline
 70
8
 71
3
 72
8
 73
4
 74
0
 40
0
 40
0
 40
0
 40
0
 40
1
 40
1
 40
1
 40
1
 10
174.206413
 20
280.434162
 30
0.0
 10
174.300182
 20
280.340394
 30
0.0
 10
174.352860
 20
280.213217
 30
0.0
 10
174.352860
 20
280.080609
 30
0.0
  0
LINE
  5
103
100
AcDbEntity
  8
Layer_1
 62
1
100
AcDbLine
 10
174.352860
 20
280.080609
 30
0.0
 11
174.352860
 21
267.080609
 31
0.0
  0
SPLINE
  5
104
100
AcDbEntity
  8
Layer_1
 62
1
100
AcDbSpline
 70
8
 71
3
 72
8
 73
4
 74
0
 40
0
 40
0
 40
0
 40
0
 40
1
 40
1
 40
1
 40
1
 10
174.352860
 20
267.080609
 30
0.0
 10
174.352860
 20
266.948001
 30
0.0
 10
174.300182
 20
266.820824
 30
0.0
 10
174.206413
 20
266.727056
 30
0.0
  0
SPLINE
  5
105
100
AcDbEntity
  8
Layer_1
 62
1
100
AcDbSpline
 70
8
 71
3
 72
8
 73
4
 74
0
 40
0
 40
0
 40
0
 40
0
 40
1
 40
1
 40
1
 40
1
 10
174.206413
 20
266.727056
 30
0.0
 10
174.112645
 20
266.633287
 30
0.0
 10
173.985468
 20
266.580609
 30
0.0
 10
173.852860
 20
266.580609
 30
0.0
  0
LINE
  5
106
100
AcDbEntity
  8
Layer_1
 62
1
100
AcDbLine
 10
173.852860
 20
266.580609
 30
0.0
 11
160.852860
 21
266.580609
 31
0.0
  0
SPLINE
  5
107
100
AcDbEntity
  8
Layer_1
 62
1
100
AcDbSpline
 70
8
 71
3
 72
8
 73
4
 74
0
 40
0
 40
0
 40
0
 40
0
 40
1
 40
1
 40
1
 40
1
 10
160.852860
 20
266.580609
 30
0.0
 10
160.720252
 20
266.580609
 30
0.0
 10
160.593075
 20
266.633287
 30
0.0
 10
160.499307
 20
266.727056
 30
0.0
  0
SPLINE
  5
108
100
AcDbEntity
  8
Layer_1
 62
1
100
AcDbSpline
 70
8
 71
3
 72
8
 73
4
 74
0
 40
0
 40
0
 40
0
 40
0
 40
1
 40
1
 40
1
 40
1
 10
160.499307
 20
266.727056
 30
0.0
 10
160.405538
 20
266.820824
 30
0.0
 10
160.352860
 20
266.948001
 30
0.0
 10
160.352860
 20
267.080609
 30
0.0
  0
LINE
  5
109
100
AcDbEntity
  8
Layer_1
 62
1
100
AcDbLine
 10
160.352860
 20
267.080609
 30
0.0
 11
160.352860
 21
280.080609
 31
0.0
  0
SPLINE
  5
10a
100
AcDbEntity
  8
Layer_1
 62
1
100
AcDbSpline
 70
8
 71
3
 72
8
 73
4
 74
0
 40
0
 40
0
 40
0
 40
0
 40
1
 40
1
 40
1
 40
1
 10
160.352860
 20
280.080609
 30
0.0
 10
160.352860
 20
280.213217
 30
0.0
 10
160.405538
 20
280.340394
 30
0.0
 10
160.499307
 20
280.434162
 30
0.0
  0
SPLINE
  5
10b
100
AcDbEntity
  8
Layer_1
 62
1
100
AcDbSpline
 70
8
 71
3
 72
8
 73
4
 74
0
 40
0
 40
0
 40
0
 40
0
 40
1
 40
1
 40
1
 40
1
 10
160.499307
 20
280.434162
 30
0.0
 10
160.593075
 20
280.527931
 30
0.0
 10
160.720252
 20
280.580609
 30
0.0
 10
160.852860
 20
280.580609
 30
0.0
  0
LINE
  5
10c
100
AcDbEntity
  8
Layer_1
 62
1
100
AcDbLine
 10
160.852860
 20
280.580609
 30
0.0
 11
160.852860
 21
280.580609
 31
0.0
  0
LINE
  5
10d
100
AcDbEntity
  8
Layer_1
 62
1
100
AcDbLine
 10
98.940856
 20
242.480609
 30
0.0
 11
111.940860
 21
242.480609
 31
0.0
  0
SPLINE
  5
10e
100
AcDbEntity
  8
Layer_1
 62
1
100
AcDbSpline
 70
8
 71
3
 72
8
 73
4
 74
0
 40
0
 40
0
 40
0
 40
0
 40
1
 40
1
 40
1
 40
1
 10
111.940860
 20
242.480609
 30
0.0
 10
112.073468
 20
242.480609
 30
0.0
 10
112.200645
 20
242.427931
 30
0.0
 10
112.294413
 20
242.334162
 30
0.0
  0
SPLINE
  5
10f
100
AcDbEntity
  8
Layer_1
 62
1
100
AcDbSpline
 70
8
 71
3
 72
8
 73
4
 74
0
 40
0
 40
0
 40
0
 40
0
 40
1
 40
1
 40
1
 40
1
 10
112.294413
 20
242.334162
 30
0.0
 10
112.388182
 20
242.240394
 30
0.0
 10
112.440860
 20
242.113217
 30
0.0
 10
112.440860
 20
241.980609
 30
0.0
  0
LINE
  5
110
100
AcDbEntity
  8
Layer_1
 62
1
100
AcDbLine
 10
112.440860
 20
241.980609
 30
0.0
 11
112.440860
 21
228.980609
 31
0.0
  0
SPLINE
  5
111
100
AcDbEntity
  8
Layer_1
 62
1
100
AcDbSpline
 70
8
 71
3
 72
8
 73
4
 74
0
 40
0
 40
0
 40
0
 40
0
 40
1
 40
1
 40
1
 40
1
 10
112.440860
 20
228.980609
 30
0.0
 10
112.440860
 20
228.848001
 30
0.0
 10
112.388182
 20
228.720824
 30
0.0
 10
112.294413
 20
228.627056
 30
0.0
  0
SPLINE
  5
112
100
AcDbEntity
  8
Layer_1
 62
1
100
AcDbSpline
 70
8
 71
3
 72
8
 73
4
 74
0
 40
0
 40
0
 40
0
 40
0
 40
1
 40
1
 40
1
 40
1
 10
112.294413
 20
228.627056
 30
0.0
 10
112.200645
 20
228.533287
 30
0.0
 10
112.073468
 20
228.480609
 30
0.0
 10
111.940860
 20
228.480609
 30
0.0
  0
LINE
  5
113
100
AcDbEntity
  8
Layer_1
 62
1
100
AcDbLine
 10
111.940860
 20
228.480609
 30
0.0
 11
98.940856
 21
228.480609
 31
0.0
  0
SPLINE
  5
114
100
AcDbEntity
  8
Layer_1
 62
1
100
AcDbSpline
 70
8
 71
3
 72
8
 73
4
 74
0
 40
0
 40
0
 40
0
 40
0
 40
1
 40
1
 40
1
 40
1
 10
98.940856
 20
228.480609
 30
0.0
 10
98.808248
 20
228.480609
 30
0.0
 10
98.681071
 20
228.533287
 30
0.0
 10
98.587303
 20
228.627056
 30
0.0
  0
SPLINE
  5
115
100
AcDbEntity
  8
Layer_1
 62
1
100
AcDbSpline
 70
8
 71
3
 72
8
 73
4
 74
0
 40
0
 40
0
 40
0
 40
0
 40
1
 40
1
 40
1
 40
1
 10
98.587303
 20
228.627056
 30
0.0
 10
98.493534
 20
228.720824
 30
0.0
 10
98.440856
 20
228.848001
 30
0.0
 10
98.440856
 20
228.980609
 30
0.0
  0
LINE
  5
116
100
AcDbEntity
  8
Layer_1
 62
1
100
AcDbLine
 10
98.440856
 20
228.980609
 30
0.0
 11
98.440856
 21
241.980609
 31
0.0
  0
SPLINE
  5
117
100
AcDbEntity
  8
Layer_1
 62
1
100
AcDbSpline
 70
8
 71
3
 72
8
 73
4
 74
0
 40
0
 40
0
 40
0
 40
0
 40
1
 40
1
 40
1
 40
1
 10
98.440856
 20
241.980609
 30
0.0
 10
98.440856
 20
242.113217
 30
0.0
 10
98.493534
 20
242.240394
 30
0.0
 10
98.587303
 20
242.334162
 30
0.0
  0
SPLINE
  5
118
100
AcDbEntity
  8
Layer_1
 62
1
100
AcDbSpline
 70
8
 71
3
 72
8
 73
4
 74
0
 40
0
 40
0
 40
0
 40
0
 40
1
 40
1
 40
1
 40
1
 10
98.587303
 20
242.334162
 30
0.0
 10
98.681071
 20
242.427931
 30
0.0
 10
98.808248
 20
242.480609
 30
0.0
 10
98.940856
 20
242.480609
 30
0.0
  0
LINE
  5
119
100
AcDbEntity
  8
Layer_1
 62
1
100
AcDbLine
 10
98.940856
 20
242.480609
 30
0.0
 11
98.940856
 21
242.480609
 31
0.0
  0
LINE
  5
11a
100
AcDbEntity
  8
Layer_1
 62
1
100
AcDbLine
 10
263.246850
 20
280.580609
 30
0.0
 11
276.246850
 21
280.580609
 31
0.0
  0
SPLINE
  5
11b
100
AcDbEntity
  8
Layer_1
 62
1
100
AcDbSpline
 70
8
 71
3
 72
8
 73
4
 74
0
 40
0
 40
0
 40
0
 40
0
 40
1
 40
1
 40
1
 40
1
 10
276.246850
 20
280.580609
 30
0.0
 10
276.379458
 20
280.580609
 30
0.0
 10
276.506635
 20
280.527931
 30
0.0
 10
276.600403
 20
280.434162
 30
0.0
  0
SPLINE
  5
11c
100
AcDbEntity
  8
Layer_1
 62
1
100
AcDbSpline
 70
8
 71
3
 72
8
 73
4
 74
0
 40
0
 40
0
 40
0
 40
0
 40
1
 40
1
 40
1
 40
1
 10
276.600403
 20
280.434162
 30
0.0
 10
276.694172
 20
280.340394
 30
0.0
 10
276.746850
 20
280.213217
 30
0.0
 10
276.746850
 20
280.080609
 30
0.0
  0
LINE
  5
11d
100
AcDbEntity
  8
Layer_1
 62
1
100
AcDbLine
 10
276.746850
 20
280.080609
 30
0.0
 11
276.746850
 21
267.080609
 31
0.0
  0
SPLINE
  5
11e
100
AcDbEntity
  8
Layer_1
 62
1
100
AcDbSpline
 70
8
 71
3
 72
8
 73
4
 74
0
 40
0
 40
0
 40
0
 40
0
 40
1
 40
1
 40
1
 40
1
 10
276.746850
 20
267.080609
 30
0.0
 10
276.746850
 20
266.948001
 30
0.0
 10
276.694172
 20
266.820824
 30
0.0
 10
276.600403
 20
266.727056
 30
0.0
  0
SPLINE
  5
11f
100
AcDbEntity
  8
Layer_1
 62
1
100
AcDbSpline
 70
8
 71
3
 72
8
 73
4
 74
0
 40
0
 40
0
 40
0
 40
0
 40
1
 40
1
 40
1
 40
1
 10
276.600403
 20
266.727056
 30
0.0
 10
276.506635
 20
266.633287
 30
0.0
 10
276.379458
 20
266.580609
 30
0.0
 10
276.246850
 20
266.580609
 30
0.0
  0
LINE
  5
120
100
AcDbEntity
  8
Layer_1
 62
1
100
AcDbLine
 10
276.246850
 20
266.580609
 30
0.0
 11
263.246850
 21
266.580609
 31
0.0
  0
SPLINE
  5
121
100
AcDbEntity
  8
Layer_1
 62
1
100
AcDbSpline
 70
8
 71
3
 72
8
 73
4
 74
0
 40
0
 40
0
 40
0
 40
0
 40
1
 40
1
 40
1
 40
1
 10
263.246850
 20
266.580609
 30
0.0
 10
263.114242
 20
266.580609
 30
0.0
 10
262.987065
 20
266.633287
 30
0.0
 10
262.893297
 20
266.727056
 30
0.0
  0
SPLINE
  5
122
100
AcDbEntity
  8
Layer_1
 62
1
100
AcDbSpline
 70
8
 71
3
 72
8
 73
4
 74
0
 40
0
 40
0
 40
0
 40
0
 40
1
 40
1
 40
1
 40
1
 10
262.893297
 20
266.727056
 30
0.0
 10
262.799528
 20
266.820824
 30
0.0
 10
262.746850
 20
266.948001
 30
0.0
 10
262.746850
 20
267.080609
 30
0.0
  0
LINE
  5
123
100
AcDbEntity
  8
Layer_1
 62
1
100
AcDbLine
 10
262.746850
 20
267.080609
 30
0.0
 11
262.746850
 21
280.080609
 31
0.0
  0
SPLINE
  5
124
100
AcDbEntity
  8
Layer_1
 62
1
100
AcDbSpline
 70
8
 71
3
 72
8
 73
4
 74
0
 40
0
 40
0
 40
0
 40
0
 40
1
 40
1
 40
1
 40
1
 10
262.746850
 20
280.080609
 30
0.0
 10
262.746850
 20
280.213217
 30
0.0
 10
262.799528
 20
280.340394
 30
0.0
 10
262.893297
 20
280.434162
 30
0.0
  0
SPLINE
  5
125
100
AcDbEntity
  8
Layer_1
 62
1
100
AcDbSpline
 70
8
 71
3
 72
8
 73
4
 74
0
 40
0
 40
0
 40
0
 40
0
 40
1
 40
1
 40
1
 40
1
 10
262.893297
 20
280.434162
 30
0.0
 10
262.987065
 20
280.527931
 30
0.0
 10
263.114242
 20
280.580609
 30
0.0
 10
263.246850
 20
280.580609
 30
0.0
  0
LINE
  5
126
100
AcDbEntity
  8
Layer_1
 62
1
100
AcDbLine
 10
263.246850
 20
280.580609
 30
0.0
 11
263.246850
 21
280.580609
 31
0.0
  0
LINE
  5
127
100
AcDbEntity
  8
Layer_1
 62
1
100
AcDbLine
 10
237.052860
 20
280.580609
 30
0.0
 11
250.052850
 21
280.580609
 31
0.0
  0
SPLINE
  5
128
100
AcDbEntity
  8
Layer_1
 62
1
100
AcDbSpline
 70
8
 71
3
 72
8
 73
4
 74
0
 40
0
 40
0
 40
0
 40
0
 40
1
 40
1
 40
1
 40
1
 10
250.052850
 20
280.580609
 30
0.0
 10
250.185458
 20
280.580609
 30
0.0
 10
250.312635
 20
280.527931
 30
0.0
 10
250.406403
 20
280.434162
 30
0.0
  0
SPLINE
  5
129
100
AcDbEntity
  8
Layer_1
 62
1
100
AcDbSpline
 70
8
 71
3
 72
8
 73
4
 74
0
 40
0
 40
0
 40
0
 40
0
 40
1
 40
1
 40
1
 40
1
 10
250.406403
 20
280.434162
 30
0.0
 10
250.500172
 20
280.340394
 30
0.0
 10
250.552850
 20
280.213217
 30
0.0
 10
250.552850
 20
280.080609
 30
0.0
  0
LINE
  5
12a
100
AcDbEntity
  8
Layer_1
 62
1
100
AcDbLine
 10
250.552850
 20
280.080609
 30
0.0
 11
250.552850
 21
267.080609
 31
0.0
  0
SPLINE
  5
12b
100
AcDbEntity
  8
Layer_1
 62
1
100
AcDbSpline
 70
8
 71
3
 72
8
 73
4
 74
0
 40
0
 40
0
 40
0
 40
0
 40
1
 40
1
 40
1
 40
1
 10
250.552850
 20
267.080609
 30
0.0
 10
250.552850
 20
266.948001
 30
0.0
 10
250.500172
 20
266.820824
 30
0.0
 10
250.406403
 20
266.727056
 30
0.0
  0
SPLINE
  5
12c
100
AcDbEntity
  8
Layer_1
 62
1
100
AcDbSpline
 70
8
 71
3
 72
8
 73
4
 74
0
 40
0
 40
0
 40
0
 40
0
 40
1
 40
1
 40
1
 40
1
 10
250.406403
 20
266.727056
 30
0.0
 10
250.312635
 20
266.633287
 30
0.0
 10
250.185458
 20
266.580609
 30
0.0
 10
250.052850
 20
266.580609
 30
0.0
  0
LINE
  5
12d
100
AcDbEntity
  8
Layer_1
 62
1
100
AcDbLine
 10
250.052850
 20
266.580609
 30
0.0
 11
237.052860
 21
266.580609
 31
0.0
  0
SPLINE
  5
12e
100
AcDbEntity
  8
Layer_1
 62
1
100
AcDbSpline
 70
8
 71
3
 72
8
 73
4
 74
0
 40
0
 40
0
 40
0
 40
0
 40
1
 40
1
 40
1
 40
1
 10
237.052860
 20
266.580609
 30
0.0
 10
236.920252
 20
266.580609
 30
0.0
 10
236.793075
 20
266.633287
 30
0.0
 10
236.699307
 20
266.727056
 30
0.0
  0
SPLINE
  5
12f
100
AcDbEntity
  8
Layer_1
 62
1
100
AcDbSpline
 70
8
 71
3
 72
8
 73
4
 74
0
 40
0
 40
0
 40
0
 40
0
 40
1
 40
1
 40
1
 40
1
 10
236.699307
 20
266.727056
 30
0.0
 10
236.605538
 20
266.820824
 30
0.0
 10
236.552860
 20
266.948001
 30
0.0
 10
236.552860
 20
267.080609
 30
0.0
  0
LINE
  5
130
100
AcDbEntity
  8
Layer_1
 62
1
100
AcDbLine
 10
236.552860
 20
267.080609
 30
0.0
 11
236.552860
 21
280.080609
 31
0.0
  0
SPLINE
  5
131
100
AcDbEntity
  8
Layer_1
 62
1
100
AcDbSpline
 70
8
 71
3
 72
8
 73
4
 74
0
 40
0
 40
0
 40
0
 40
0
 40
1
 40
1
 40
1
 40
1
 10
236.552860
 20
280.080609
 30
0.0
 10
236.552860
 20
280.213217
 30
0.0
 10
236.605538
 20
280.340394
 30
0.0
 10
236.699307
 20
280.434162
 30
0.0
  0
SPLINE
  5
132
100
AcDbEntity
  8
Layer_1
 62
1
100
AcDbSpline
 70
8
 71
3
 72
8
 73
4
 74
0
 40
0
 40
0
 40
0
 40
0
 40
1
 40
1
 40
1
 40
1
 10
236.699307
 20
280.434162
 30
0.0
 10
236.793075
 20
280.527931
 30
0.0
 10
236.920252
 20
280.580609
 30
0.0
 10
237.052860
 20
280.580609
 30
0.0
  0
LINE
  5
133
100
AcDbEntity
  8
Layer_1
 62
1
100
AcDbLine
 10
237.052860
 20
280.580609
 30
0.0
 11
237.052860
 21
280.580609
 31
0.0
  0
LINE
  5
134
100
AcDbEntity
  8
Layer_1
 62
1
100
AcDbLine
 10
218.002860
 20
280.580609
 30
0.0
 11
231.002860
 21
280.580609
 31
0.0
  0
SPLINE
  5
135
100
AcDbEntity
  8
Layer_1
 62
1
100
AcDbSpline
 70
8
 71
3
 72
8
 73
4
 74
0
 40
0
 40
0
 40
0
 40
0
 40
1
 40
1
 40
1
 40
1
 10
231.002860
 20
280.580609
 30
0.0
 10
231.135468
 20
280.580609
 30
0.0
 10
231.262645
 20
280.527931
 30
0.0
 10
231.356413
 20
280.434162
 30
0.0
  0
SPLINE
  5
136
100
AcDbEntity
  8
Layer_1
 62
1
100
AcDbSpline
 70
8
 71
3
 72
8
 73
4
 74
0
 40
0
 40
0
 40
0
 40
0
 40
1
 40
1
 40
1
 40
1
 10
231.356413
 20
280.434162
 30
0.0
 10
231.450182
 20
280.340394
 30
0.0
 10
231.502860
 20
280.213217
 30
0.0
 10
231.502860
 20
280.080609
 30
0.0
  0
LINE
  5
137
100
AcDbEntity
  8
Layer_1
 62
1
100
AcDbLine
 10
231.502860
 20
280.080609
 30
0.0
 11
231.502860
 21
267.080609
 31
0.0
  0
SPLINE
  5
138
100
AcDbEntity
  8
Layer_1
 62
1
100
AcDbSpline
 70
8
 71
3
 72
8
 73
4
 74
0
 40
0
 40
0
 40
0
 40
0
 40
1
 40
1
 40
1
 40
1
 10
231.502860
 20
267.080609
 30
0.0
 10
231.502860
 20
266.948001
 30
0.0
 10
231.450182
 20
266.820824
 30
0.0
 10
231.356413
 20
266.727056
 30
0.0
  0
SPLINE
  5
139
100
AcDbEntity
  8
Layer_1
 62
1
100
AcDbSpline
 70
8
 71
3
 72
8
 73
4
 74
0
 40
0
 40
0
 40
0
 40
0
 40
1
 40
1
 40
1
 40
1
 10
231.356413
 20
266.727056
 30
0.0
 10
231.262645
 20
266.633287
 30
0.0
 10
231.135468
 20
266.580609
 30
0.0
 10
231.002860
 20
266.580609
 30
0.0
  0
LINE
  5
13a
100
AcDbEntity
  8
Layer_1
 62
1
100
AcDbLine
 10
231.002860
 20
266.580609
 30
0.0
 11
218.002860
 21
266.580609
 31
0.0
  0
SPLINE
  5
13b
100
AcDbEntity
  8
Layer_1
 62
1
100
AcDbSpline
 70
8
 71
3
 72
8
 73
4
 74
0
 40
0
 40
0
 40
0
 40
0
 40
1
 40
1
 40
1
 40
1
 10
218.002860
 20
266.580609
 30
0.0
 10
217.870252
 20
266.580609
 30
0.0
 10
217.743075
 20
266.633287
 30
0.0
 10
217.649307
 20
266.727056
 30
0.0
  0
SPLINE
  5
13c
100
AcDbEntity
  8
Layer_1
 62
1
100
AcDbSpline
 70
8
 71
3
 72
8
 73
4
 74
0
 40
0
 40
0
 40
0
 40
0
 40
1
 40
1
 40
1
 40
1
 10
217.649307
 20
266.727056
 30
0.0
 10
217.555538
 20
266.820824
 30
0.0
 10
217.502860
 20
266.948001
 30
0.0
 10
217.502860
 20
267.080609
 30
0.0
  0
LINE
  5
13d
100
AcDbEntity
  8
Layer_1
 62
1
100
AcDbLine
 10
217.502860
 20
267.080609
 30
0.0
 11
217.502860
 21
280.080609
 31
0.0
  0
SPLINE
  5
13e
100
AcDbEntity
  8
Layer_1
 62
1
100
AcDbSpline
 70
8
 71
3
 72
8
 73
4
 74
0
 40
0
 40
0
 40
0
 40
0
 40
1
 40
1
 40
1
 40
1
 10
217.502860
 20
280.080609
 30
0.0
 10
217.502860
 20
280.213217
 30
0.0
 10
217.555538
 20
280.340394
 30
0.0
 10
217.649307
 20
280.434162
 30
0.0
  0
SPLINE
  5
13f
100
AcDbEntity
  8
Layer_1
 62
1
100
AcDbSpline
 70
8
 71
3
 72
8
 73
4
 74
0
 40
0
 40
0
 40
0
 40
0
 40
1
 40
1
 40
1
 40
1
 10
217.649307
 20
280.434162
 30
0.0
 10
217.743075
 20
280.527931
 30
0.0
 10
217.870252
 20
280.580609
 30
0.0
 10
218.002860
 20
280.580609
 30
0.0
  0
LINE
  5
140
100
AcDbEntity
  8
Layer_1
 62
1
100
AcDbLine
 10
218.002860
 20
280.580609
 30
0.0
 11
218.002860
 21
280.580609
 31
0.0
  0
LINE
  5
141
100
AcDbEntity
  8
Layer_1
 62
1
100
AcDbLine
 10
198.952860
 20
280.580609
 30
0.0
 11
211.952860
 21
280.580609
 31
0.0
  0
SPLINE
  5
142
100
AcDbEntity
  8
Layer_1
 62
1
100
AcDbSpline
 70
8
 71
3
 72
8
 73
4
 74
0
 40
0
 40
0
 40
0
 40
0
 40
1
 40
1
 40
1
 40
1
 10
211.952860
 20
280.580609
 30
0.0
 10
212.085468
 20
280.580609
 30
0.0
 10
212.212645
 20
280.527931
 30
0.0
 10
212.306413
 20
280.434162
 30
0.0
  0
SPLINE
  5
143
100
AcDbEntity
  8
Layer_1
 62
1
100
AcDbSpline
 70
8
 71
3
 72
8
 73
4
 74
0
 40
0
 40
0
 40
0
 40
0
 40
1
 40
1
 40
1
 40
1
 10
212.306413
 20
280.434162
 30
0.0
 10
212.400182
 20
280.340394
 30
0.0
 10
212.452860
 20
280.213217
 30
0.0
 10
212.452860
 20
280.080609
 30
0.0
  0
LINE
  5
144
100
AcDbEntity
  8
Layer_1
 62
1
100
AcDbLine
 10
212.452860
 20
280.080609
 30
0.0
 11
212.452860
 21
267.080609
 31
0.0
  0
SPLINE
  5
145
100
AcDbEntity
  8
Layer_1
 62
1
100
AcDbSpline
 70
8
 71
3
 72
8
 73
4
 74
0
 40
0
 40
0
 40
0
 40
0
 40
1
 40
1
 40
1
 40
1
 10
212.452860
 20
267.080609
 30
0.0
 10
212.452860
 20
266.948001
 30
0.0
 10
212.400182
 20
266.820824
 30
0.0
 10
212.306413
 20
266.727056
 30
0.0
  0
SPLINE
  5
146
100
AcDbEntity
  8
Layer_1
 62
1
100
AcDbSpline
 70
8
 71
3
 72
8
 73
4
 74
0
 40
0
 40
0
 40
0
 40
0
 40
1
 40
1
 40
1
 40
1
 10
212.306413
 20
266.727056
 30
0.0
 10
212.212645
 20
266.633287
 30
0.0
 10
212.085468
 20
266.580609
 30
0.0
 10
211.952860
 20
266.580609
 30
0.0
  0
LINE
  5
147
100
AcDbEntity
  8
Layer_1
 62
1
100
AcDbLine
 10
211.952860
 20
266.580609
 30
0.0
 11
198.952860
 21
266.580609
 31
0.0
  0
SPLINE
  5
148
100
AcDbEntity
  8
Layer_1
 62
1
100
AcDbSpline
 70
8
 71
3
 72
8
 73
4
 74
0
 40
0
 40
0
 40
0
 40
0
 40
1
 40
1
 40
1
 40
1
 10
198.952860
 20
266.580609
 30
0.0
 10
198.820252
 20
266.580609
 30
0.0
 10
198.693075
 20
266.633287
 30
0.0
 10
198.599307
 20
266.727056
 30
0.0
  0
SPLINE
  5
149
100
AcDbEntity
  8
Layer_1
 62
1
100
AcDbSpline
 70
8
 71
3
 72
8
 73
4
 74
0
 40
0
 40
0
 40
0
 40
0
 40
1
 40
1
 40
1
 40
1
 10
198.599307
 20
266.727056
 30
0.0
 10
198.505538
 20
266.820824
 30
0.0
 10
198.452860
 20
266.948001
 30
0.0
 10
198.452860
 20
267.080609
 30
0.0
  0
LINE
  5
14a
100
AcDbEntity
  8
Layer_1
 62
1
100
AcDbLine
 10
198.452860
 20
267.080609
 30
0.0
 11
198.452860
 21
280.080609
 31
0.0
  0
SPLINE
  5
14b
100
AcDbEntity
  8
Layer_1
 62
1
100
AcDbSpline
 70
8
 71
3
 72
8
 73
4
 74
0
 40
0
 40
0
 40
0
 40
0
 40
1
 40
1
 40
1
 40
1
 10
198.452860
 20
280.080609
 30
0.0
 10
198.452860
 20
280.213217
 30
0.0
 10
198.505538
 20
280.340394
 30
0.0
 10
198.599307
 20
280.434162
 30
0.0
  0
SPLINE
  5
14c
100
AcDbEntity
  8
Layer_1
 62
1
100
AcDbSpline
 70
8
 71
3
 72
8
 73
4
 74
0
 40
0
 40
0
 40
0
 40
0
 40
1
 40
1
 40
1
 40
1
 10
198.599307
 20
280.434162
 30
0.0
 10
198.693075
 20
280.527931
 30
0.0
 10
198.820252
 20
280.580609
 30
0.0
 10
198.952860
 20
280.580609
 30
0.0
  0
LINE
  5
14d
100
AcDbEntity
  8
Layer_1
 62
1
100
AcDbLine
 10
198.952860
 20
280.580609
 30
0.0
 11
198.952860
 21
280.580609
 31
0.0
  0
LINE
  5
14e
100
AcDbEntity
  8
Layer_1
 62
1
100
AcDbLine
 10
179.902860
 20
280.580609
 30
0.0
 11
192.902860
 21
280.580609
 31
0.0
  0
SPLINE
  5
14f
100
AcDbEntity
  8
Layer_1
 62
1
100
AcDbSpline
 70
8
 71
3
 72
8
 73
4
 74
0
 40
0
 40
0
 40
0
 40
0
 40
1
 40
1
 40
1
 40
1
 10
192.902860
 20
280.580609
 30
0.0
 10
193.035468
 20
280.580609
 30
0.0
 10
193.162645
 20
280.527931
 30
0.0
 10
193.256413
 20
280.434162
 30
0.0
  0
SPLINE
  5
150
100
AcDbEntity
  8
Layer_1
 62
1
100
AcDbSpline
 70
8
 71
3
 72
8
 73
4
 74
0
 40
0
 40
0
 40
0
 40
0
 40
1
 40
1
 40
1
 40
1
 10
193.256413
 20
280.434162
 30
0.0
 10
193.350182
 20
280.340394
 30
0.0
 10
193.402860
 20
280.213217
 30
0.0
 10
193.402860
 20
280.080609
 30
0.0
  0
LINE
  5
151
100
AcDbEntity
  8
Layer_1
 62
1
100
AcDbLine
 10
193.402860
 20
280.080609
 30
0.0
 11
193.402860
 21
267.080609
 31
0.0
  0
SPLINE
  5
152
100
AcDbEntity
  8
Layer_1
 62
1
100
AcDbSpline
 70
8
 71
3
 72
8
 73
4
 74
0
 40
0
 40
0
 40
0
 40
0
 40
1
 40
1
 40
1
 40
1
 10
193.402860
 20
267.080609
 30
0.0
 10
193.402860
 20
266.948001
 30
0.0
 10
193.350182
 20
266.820824
 30
0.0
 10
193.256413
 20
266.727056
 30
0.0
  0
SPLINE
  5
153
100
AcDbEntity
  8
Layer_1
 62
1
100
AcDbSpline
 70
8
 71
3
 72
8
 73
4
 74
0
 40
0
 40
0
 40
0
 40
0
 40
1
 40
1
 40
1
 40
1
 10
193.256413
 20
266.727056
 30
0.0
 10
193.162645
 20
266.633287
 30
0.0
 10
193.035468
 20
266.580609
 30
0.0
 10
192.902860
 20
266.580609
 30
0.0
  0
LINE
  5
154
100
AcDbEntity
  8
Layer_1
 62
1
100
AcDbLine
 10
192.902860
 20
266.580609
 30
0.0
 11
179.902860
 21
266.580609
 31
0.0
  0
SPLINE
  5
155
100
AcDbEntity
  8
Layer_1
 62
1
100
AcDbSpline
 70
8
 71
3
 72
8
 73
4
 74
0
 40
0
 40
0
 40
0
 40
0
 40
1
 40
1
 40
1
 40
1
 10
179.902860
 20
266.580609
 30
0.0
 10
179.770252
 20
266.580609
 30
0.0
 10
179.643075
 20
266.633287
 30
0.0
 10
179.549307
 20
266.727056
 30
0.0
  0
SPLINE
  5
156
100
AcDbEntity
  8
Layer_1
 62
1
100
AcDbSpline
 70
8
 71
3
 72
8
 73
4
 74
0
 40
0
 40
0
 40
0
 40
0
 40
1
 40
1
 40
1
 40
1
 10
179.549307
 20
266.727056
 30
0.0
 10
179.455538
 20
266.820824
 30
0.0
 10
179.402860
 20
266.948001
 30
0.0
 10
179.402860
 20
267.080609
 30
0.0
  0
LINE
  5
157
100
AcDbEntity
  8
Layer_1
 62
1
100
AcDbLine
 10
179.402860
 20
267.080609
 30
0.0
 11
179.402860
 21
280.080609
 31
0.0
  0
SPLINE
  5
158
100
AcDbEntity
  8
Layer_1
 62
1
100
AcDbSpline
 70
8
 71
3
 72
8
 73
4
 74
0
 40
0
 40
0
 40
0
 40
0
 40
1
 40
1
 40
1
 40
1
 10
179.402860
 20
280.080609
 30
0.0
 10
179.402860
 20
280.213217
 30
0.0
 10
179.455538
 20
280.340394
 30
0.0
 10
179.549307
 20
280.434162
 30
0.0
  0
SPLINE
  5
159
100
AcDbEntity
  8
Layer_1
 62
1
100
AcDbSpline
 70
8
 71
3
 72
8
 73
4
 74
0
 40
0
 40
0
 40
0
 40
0
 40
1
 40
1
 40
1
 40
1
 10
179.549307
 20
280.434162
 30
0.0
 10
179.643075
 20
280.527931
 30
0.0
 10
179.770252
 20
280.580609
 30
0.0
 10
179.902860
 20
280.580609
 30
0.0
  0
LINE
  5
15a
100
AcDbEntity
  8
Layer_1
 62
1
100
AcDbLine
 10
179.902860
 20
280.580609
 30
0.0
 11
179.902860
 21
280.580609
 31
0.0
  0
LINE
  5
15b
100
AcDbEntity
  8
Layer_1
 62
1
100
AcDbLine
 10
141.802860
 20
280.580609
 30
0.0
 11
154.802860
 21
280.580609
 31
0.0
  0
SPLINE
  5
15c
100
AcDbEntity
  8
Layer_1
 62
1
100
AcDbSpline
 70
8
 71
3
 72
8
 73
4
 74
0
 40
0
 40
0
 40
0
 40
0
 40
1
 40
1
 40
1
 40
1
 10
154.802860
 20
280.580609
 30
0.0
 10
154.935468
 20
280.580609
 30
0.0
 10
155.062645
 20
280.527931
 30
0.0
 10
155.156413
 20
280.434162
 30
0.0
  0
SPLINE
  5
15d
100
AcDbEntity
  8
Layer_1
 62
1
100
AcDbSpline
 70
8
 71
3
 72
8
 73
4
 74
0
 40
0
 40
0
 40
0
 40
0
 40
1
 40
1
 40
1
 40
1
 10
155.156413
 20
280.434162
 30
0.0
 10
155.250182
 20
280.340394
 30
0.0
 10
155.302860
 20
280.213217
 30
0.0
 10
155.302860
 20
280.080609
 30
0.0
  0
LINE
  5
15e
100
AcDbEntity
  8
Layer_1
 62
1
100
AcDbLine
 10
155.302860
 20
280.080609
 30
0.0
 11
155.302860
 21
267.080609
 31
0.0
  0
SPLINE
  5
15f
100
AcDbEntity
  8
Layer_1
 62
1
100
AcDbSpline
 70
8
 71
3
 72
8
 73
4
 74
0
 40
0
 40
0
 40
0
 40
0
 40
1
 40
1
 40
1
 40
1
 10
155.302860
 20
267.080609
 30
0.0
 10
155.302860
 20
266.948001
 30
0.0
 10
155.250182
 20
266.820824
 30
0.0
 10
155.156413
 20
266.727056
 30
0.0
  0
SPLINE
  5
160
100
AcDbEntity
  8
Layer_1
 62
1
100
AcDbSpline
 70
8
 71
3
 72
8
 73
4
 74
0
 40
0
 40
0
 40
0
 40
0
 40
1
 40
1
 40
1
 40
1
 10
155.156413
 20
266.727056
 30
0.0
 10
155.062645
 20
266.633287
 30
0.0
 10
154.935468
 20
266.580609
 30
0.0
 10
154.802860
 20
266.580609
 30
0.0
  0
LINE
  5
161
100
AcDbEntity
  8
Layer_1
 62
1
100
AcDbLine
 10
154.802860
 20
266.580609
 30
0.0
 11
141.802860
 21
266.580609
 31
0.0
  0
SPLINE
  5
162
100
AcDbEntity
  8
Layer_1
 62
1
100
AcDbSpline
 70
8
 71
3
 72
8
 73
4
 74
0
 40
0
 40
0
 40
0
 40
0
 40
1
 40
1
 40
1
 40
1
 10
141.802860
 20
266.580609
 30
0.0
 10
141.670252
 20
266.580609
 30
0.0
 10
141.543075
 20
266.633287
 30
0.0
 10
141.449307
 20
266.727056
 30
0.0
  0
SPLINE
  5
163
100
AcDbEntity
  8
Layer_1
 62
1
100
AcDbSpline
 70
8
 71
3
 72
8
 73
4
 74
0
 40
0
 40
0
 40
0
 40
0
 40
1
 40
1
 40
1
 40
1
 10
141.449307
 20
266.727056
 30
0.0
 10
141.355538
 20
266.820824
 30
0.0
 10
141.302860
 20
266.948001
 30
0.0
 10
141.302860
 20
267.080609
 30
0.0
  0
LINE
  5
164
100
AcDbEntity
  8
Layer_1
 62
1
100
AcDbLine
 10
141.302860
 20
267.080609
 30
0.0
 11
141.302860
 21
280.080609
 31
0.0
  0
SPLINE
  5
165
100
AcDbEntity
  8
Layer_1
 62
1
100
AcDbSpline
 70
8
 71
3
 72
8
 73
4
 74
0
 40
0
 40
0
 40
0
 40
0
 40
1
 40
1
 40
1
 40
1
 10
141.302860
 20
280.080609
 30
0.0
 10
141.302860
 20
280.213217
 30
0.0
 10
141.355538
 20
280.340394
 30
0.0
 10
141.449307
 20
280.434162
 30
0.0
  0
SPLINE
  5
166
100
AcDbEntity
  8
Layer_1
 62
1
100
AcDbSpline
 70
8
 71
3
 72
8
 73
4
 74
0
 40
0
 40
0
 40
0
 40
0
 40
1
 40
1
 40
1
 40
1
 10
141.449307
 20
280.434162
 30
0.0
 10
141.543075
 20
280.527931
 30
0.0
 10
141.670252
 20
280.580609
 30
0.0
 10
141.802860
 20
280.580609
 30
0.0
  0
LINE
  5
167
100
AcDbEntity
  8
Layer_1
 62
1
100
AcDbLine
 10
141.802860
 20
280.580609
 30
0.0
 11
141.802860
 21
280.580609
 31
0.0
  0
LINE
  5
168
100
AcDbEntity
  8
Layer_1
 62
1
100
AcDbLine
 10
122.752860
 20
280.580609
 30
0.0
 11
135.752860
 21
280.580609
 31
0.0
  0
SPLINE
  5
169
100
AcDbEntity
  8
Layer_1
 62
1
100
AcDbSpline
 70
8
 71
3
 72
8
 73
4
 74
0
 40
0
 40
0
 40
0
 40
0
 40
1
 40
1
 40
1
 40
1
 10
135.752860
 20
280.580609
 30
0.0
 10
135.885468
 20
280.580609
 30
0.0
 10
136.012645
 20
280.527931
 30
0.0
 10
136.106413
 20
280.434162
 30
0.0
  0
SPLINE
  5
16a
100
AcDbEntity
  8
Layer_1
 62
1
100
AcDbSpline
 70
8
 71
3
 72
8
 73
4
 74
0
 40
0
 40
0
 40
0
 40
0
 40
1
 40
1
 40
1
 40
1
 10
136.106413
 20
280.434162
 30
0.0
 10
136.200182
 20
280.340394
 30
0.0
 10
136.252860
 20
280.213217
 30
0.0
 10
136.252860
 20
280.080609
 30
0.0
  0
LINE
  5
16b
100
AcDbEntity
  8
Layer_1
 62
1
100
AcDbLine
 10
136.252860
 20
280.080609
 30
0.0
 11
136.252860
 21
267.080609
 31
0.0
  0
SPLINE
  5
16c
100
AcDbEntity
  8
Layer_1
 62
1
100
AcDbSpline
 70
8
 71
3
 72
8
 73
4
 74
0
 40
0
 40
0
 40
0
 40
0
 40
1
 40
1
 40
1
 40
1
 10
136.252860
 20
267.080609
 30
0.0
 10
136.252860
 20
266.948001
 30
0.0
 10
136.200182
 20
266.820824
 30
0.0
 10
136.106413
 20
266.727056
 30
0.0
  0
SPLINE
  5
16d
100
AcDbEntity
  8
Layer_1
 62
1
100
AcDbSpline
 70
8
 71
3
 72
8
 73
4
 74
0
 40
0
 40
0
 40
0
 40
0
 40
1
 40
1
 40
1
 40
1
 10
136.106413
 20
266.727056
 30
0.0
 10
136.012645
 20
266.633287
 30
0.0
 10
135.885468
 20
266.580609
 30
0.0
 10
135.752860
 20
266.580609
 30
0.0
  0
LINE
  5
16e
100
AcDbEntity
  8
Layer_1
 62
1
100
AcDbLine
 10
135.752860
 20
266.580609
 30
0.0
 11
122.752860
 21
266.580609
 31
0.0
  0
SPLINE
  5
16f
100
AcDbEntity
  8
Layer_1
 62
1
100
AcDbSpline
 70
8
 71
3
 72
8
 73
4
 74
0
 40
0
 40
0
 40
0
 40
0
 40
1
 40
1
 40
1
 40
1
 10
122.752860
 20
266.580609
 30
0.0
 10
122.620252
 20
266.580609
 30
0.0
 10
122.493075
 20
266.633287
 30
0.0
 10
122.399307
 20
266.727056
 30
0.0
  0
SPLINE
  5
170
100
AcDbEntity
  8
Layer_1
 62
1
100
AcDbSpline
 70
8
 71
3
 72
8
 73
4
 74
0
 40
0
 40
0
 40
0
 40
0
 40
1
 40
1
 40
1
 40
1
 10
122.399307
 20
266.727056
 30
0.0
 10
122.305538
 20
266.820824
 30
0.0
 10
122.252860
 20
266.948001
 30
0.0
 10
122.252860
 20
267.080609
 30
0.0
  0
LINE
  5
171
100
AcDbEntity
  8
Layer_1
 62
1
100
AcDbLine
 10
122.252860
 20
267.080609
 30
0.0
 11
122.252860
 21
280.080609
 31
0.0
  0
SPLINE
  5
172
100
AcDbEntity
  8
Layer_1
 62
1
100
AcDbSpline
 70
8
 71
3
 72
8
 73
4
 74
0
 40
0
 40
0
 40
0
 40
0
 40
1
 40
1
 40
1
 40
1
 10
122.252860
 20
280.080609
 30
0.0
 10
122.252860
 20
280.213217
 30
0.0
 10
122.305538
 20
280.340394
 30
0.0
 10
122.399307
 20
280.434162
 30
0.0
  0
SPLINE
  5
173
100
AcDbEntity
  8
Layer_1
 62
1
100
AcDbSpline
 70
8
 71
3
 72
8
 73
4
 74
0
 40
0
 40
0
 40
0
 40
0
 40
1
 40
1
 40
1
 40
1
 10
122.399307
 20
280.434162
 30
0.0
 10
122.493075
 20
280.527931
 30
0.0
 10
122.620252
 20
280.580609
 30
0.0
 10
122.752860
 20
280.580609
 30
0.0
  0
LINE
  5
174
100
AcDbEntity
  8
Layer_1
 62
1
100
AcDbLine
 10
122.752860
 20
280.580609
 30
0.0
 11
122.752860
 21
280.580609
 31
0.0
  0
LINE
  5
175
100
AcDbEntity
  8
Layer_1
 62
1
100
AcDbLine
 10
103.702860
 20
280.580609
 30
0.0
 11
116.702860
 21
280.580609
 31
0.0
  0
SPLINE
  5
176
100
AcDbEntity
  8
Layer_1
 62
1
100
AcDbSpline
 70
8
 71
3
 72
8
 73
4
 74
0
 40
0
 40
0
 40
0
 40
0
 40
1
 40
1
 40
1
 40
1
 10
116.702860
 20
280.580609
 30
0.0
 10
116.835468
 20
280.580609
 30
0.0
 10
116.962645
 20
280.527931
 30
0.0
 10
117.056413
 20
280.434162
 30
0.0
  0
SPLINE
  5
177
100
AcDbEntity
  8
Layer_1
 62
1
100
AcDbSpline
 70
8
 71
3
 72
8
 73
4
 74
0
 40
0
 40
0
 40
0
 40
0
 40
1
 40
1
 40
1
 40
1
 10
117.056413
 20
280.434162
 30
0.0
 10
117.150182
 20
280.340394
 30
0.0
 10
117.202860
 20
280.213217
 30
0.0
 10
117.202860
 20
280.080609
 30
0.0
  0
LINE
  5
178
100
AcDbEntity
  8
Layer_1
 62
1
100
AcDbLine
 10
117.202860
 20
280.080609
 30
0.0
 11
117.202860
 21
267.080609
 31
0.0
  0
SPLINE
  5
179
100
AcDbEntity
  8
Layer_1
 62
1
100
AcDbSpline
 70
8
 71
3
 72
8
 73
4
 74
0
 40
0
 40
0
 40
0
 40
0
 40
1
 40
1
 40
1
 40
1
 10
117.202860
 20
267.080609
 30
0.0
 10
117.202860
 20
266.948001
 30
0.0
 10
117.150182
 20
266.820824
 30
0.0
 10
117.056413
 20
266.727056
 30
0.0
  0
SPLINE
  5
17a
100
AcDbEntity
  8
Layer_1
 62
1
100
AcDbSpline
 70
8
 71
3
 72
8
 73
4
 74
0
 40
0
 40
0
 40
0
 40
0
 40
1
 40
1
 40
1
 40
1
 10
117.056413
 20
266.727056
 30
0.0
 10
116.962645
 20
266.633287
 30
0.0
 10
116.835468
 20
266.580609
 30
0.0
 10
116.702860
 20
266.580609
 30
0.0
  0
LINE
  5
17b
100
AcDbEntity
  8
Layer_1
 62
1
100
AcDbLine
 10
116.702860
 20
266.580609
 30
0.0
 11
103.702860
 21
266.580609
 31
0.0
  0
SPLINE
  5
17c
100
AcDbEntity
  8
Layer_1
 62
1
100
AcDbSpline
 70
8
 71
3
 72
8
 73
4
 74
0
 40
0
 40
0
 40
0
 40
0
 40
1
 40
1
 40
1
 40
1
 10
103.702860
 20
266.580609
 30
0.0
 10
103.570252
 20
266.580609
 30
0.0
 10
103.443075
 20
266.633287
 30
0.0
 10
103.349307
 20
266.727056
 30
0.0
  0
SPLINE
  5
17d
100
AcDbEntity
  8
Layer_1
 62
1
100
AcDbSpline
 70
8
 71
3
 72
8
 73
4
 74
0
 40
0
 40
0
 40
0
 40
0
 40
1
 40
1
 40
1
 40
1
 10
103.349307
 20
266.727056
 30
0.0
 10
103.255538
 20
266.820824
 30
0.0
 10
103.202860
 20
266.948001
 30
0.0
 10
103.202860
 20
267.080609
 30
0.0
  0
LINE
  5
17e
100
AcDbEntity
  8
Layer_1
 62
1
100
AcDbLine
 10
103.202860
 20
267.080609
 30
0.0
 11
103.202860
 21
280.080609
 31
0.0
  0
SPLINE
  5
17f
100
AcDbEntity
  8
Layer_1
 62
1
100
AcDbSpline
 70
8
 71
3
 72
8
 73
4
 74
0
 40
0
 40
0
 40
0
 40
0
 40
1
 40
1
 40
1
 40
1
 10
103.202860
 20
280.080609
 30
0.0
 10
103.202860
 20
280.213217
 30
0.0
 10
103.255538
 20
280.340394
 30
0.0
 10
103.349307
 20
280.434162
 30
0.0
  0
SPLINE
  5
180
100
AcDbEntity
  8
Layer_1
 62
1
100
AcDbSpline
 70
8
 71
3
 72
8
 73
4
 74
0
 40
0
 40
0
 40
0
 40
0
 40
1
 40
1
 40
1
 40
1
 10
103.349307
 20
280.434162
 30
0.0
 10
103.443075
 20
280.527931
 30
0.0
 10
103.570252
 20
280.580609
 30
0.0
 10
103.702860
 20
280.580609
 30
0.0
  0
LINE
  5
181
100
AcDbEntity
  8
Layer_1
 62
1
100
AcDbLine
 10
103.702860
 20
280.580609
 30
0.0
 11
103.702860
 21
280.580609
 31
0.0
  0
LINE
  5
182
100
AcDbEntity
  8
Layer_1
 62
1
100
AcDbLine
 10
84.652856
 20
280.580609
 30
0.0
 11
97.652856
 21
280.580609
 31
0.0
  0
SPLINE
  5
183
100
AcDbEntity
  8
Layer_1
 62
1
100
AcDbSpline
 70
8
 71
3
 72
8
 73
4
 74
0
 40
0
 40
0
 40
0
 40
0
 40
1
 40
1
 40
1
 40
1
 10
97.652856
 20
280.580609
 30
0.0
 10
97.785464
 20
280.580609
 30
0.0
 10
97.912641
 20
280.527931
 30
0.0
 10
98.006409
 20
280.434162
 30
0.0
  0
SPLINE
  5
184
100
AcDbEntity
  8
Layer_1
 62
1
100
AcDbSpline
 70
8
 71
3
 72
8
 73
4
 74
0
 40
0
 40
0
 40
0
 40
0
 40
1
 40
1
 40
1
 40
1
 10
98.006409
 20
280.434162
 30
0.0
 10
98.100178
 20
280.340394
 30
0.0
 10
98.152856
 20
280.213217
 30
0.0
 10
98.152856
 20
280.080609
 30
0.0
  0
LINE
  5
185
100
AcDbEntity
  8
Layer_1
 62
1
100
AcDbLine
 10
98.152856
 20
280.080609
 30
0.0
 11
98.152856
 21
267.080609
 31
0.0
  0
SPLINE
  5
186
100
AcDbEntity
  8
Layer_1
 62
1
100
AcDbSpline
 70
8
 71
3
 72
8
 73
4
 74
0
 40
0
 40
0
 40
0
 40
0
 40
1
 40
1
 40
1
 40
1
 10
98.152856
 20
267.080609
 30
0.0
 10
98.152856
 20
266.948001
 30
0.0
 10
98.100178
 20
266.820824
 30
0.0
 10
98.006409
 20
266.727056
 30
0.0
  0
SPLINE
  5
187
100
AcDbEntity
  8
Layer_1
 62
1
100
AcDbSpline
 70
8
 71
3
 72
8
 73
4
 74
0
 40
0
 40
0
 40
0
 40
0
 40
1
 40
1
 40
1
 40
1
 10
98.006409
 20
266.727056
 30
0.0
 10
97.912641
 20
266.633287
 30
0.0
 10
97.785464
 20
266.580609
 30
0.0
 10
97.652856
 20
266.580609
 30
0.0
  0
LINE
  5
188
100
AcDbEntity
  8
Layer_1
 62
1
100
AcDbLine
 10
97.652856
 20
266.580609
 30
0.0
 11
84.652856
 21
266.580609
 31
0.0
  0
SPLINE
  5
189
100
AcDbEntity
  8
Layer_1
 62
1
100
AcDbSpline
 70
8
 71
3
 72
8
 73
4
 74
0
 40
0
 40
0
 40
0
 40
0
 40
1
 40
1
 40
1
 40
1
 10
84.652856
 20
266.580609
 30
0.0
 10
84.520248
 20
266.580609
 30
0.0
 10
84.393071
 20
266.633287
 30
0.0
 10
84.299303
 20
266.727056
 30
0.0
  0
SPLINE
  5
18a
100
AcDbEntity
  8
Layer_1
 62
1
100
AcDbSpline
 70
8
 71
3
 72
8
 73
4
 74
0
 40
0
 40
0
 40
0
 40
0
 40
1
 40
1
 40
1
 40
1
 10
84.299303
 20
266.727056
 30
0.0
 10
84.205534
 20
266.820824
 30
0.0
 10
84.152856
 20
266.948001
 30
0.0
 10
84.152856
 20
267.080609
 30
0.0
  0
LINE
  5
18b
100
AcDbEntity
  8
Layer_1
 62
1
100
AcDbLine
 10
84.152856
 20
267.080609
 30
0.0
 11
84.152856
 21
280.080609
 31
0.0
  0
SPLINE
  5
18c
100
AcDbEntity
  8
Layer_1
 62
1
100
AcDbSpline
 70
8
 71
3
 72
8
 73
4
 74
0
 40
0
 40
0
 40
0
 40
0
 40
1
 40
1
 40
1
 40
1
 10
84.152856
 20
280.080609
 30
0.0
 10
84.152856
 20
280.213217
 30
0.0
 10
84.205534
 20
280.340394
 30
0.0
 10
84.299303
 20
280.434162
 30
0.0
  0
SPLINE
  5
18d
100
AcDbEntity
  8
Layer_1
 62
1
100
AcDbSpline
 70
8
 71
3
 72
8
 73
4
 74
0
 40
0
 40
0
 40
0
 40
0
 40
1
 40
1
 40
1
 40
1
 10
84.299303
 20
280.434162
 30
0.0
 10
84.393071
 20
280.527931
 30
0.0
 10
84.520248
 20
280.580609
 30
0.0
 10
84.652856
 20
280.580609
 30
0.0
  0
LINE
  5
18e
100
AcDbEntity
  8
Layer_1
 62
1
100
AcDbLine
 10
84.652856
 20
280.580609
 30
0.0
 11
84.652856
 21
280.580609
 31
0.0
  0
LINE
  5
18f
100
AcDbEntity
  8
Layer_1
 62
1
100
AcDbLine
 10
46.552856
 20
280.580609
 30
0.0
 11
59.552856
 21
280.580609
 31
0.0
  0
SPLINE
  5
190
100
AcDbEntity
  8
Layer_1
 62
1
100
AcDbSpline
 70
8
 71
3
 72
8
 73
4
 74
0
 40
0
 40
0
 40
0
 40
0
 40
1
 40
1
 40
1
 40
1
 10
59.552856
 20
280.580609
 30
0.0
 10
59.685464
 20
280.580609
 30
0.0
 10
59.812641
 20
280.527931
 30
0.0
 10
59.906409
 20
280.434162
 30
0.0
  0
SPLINE
  5
191
100
AcDbEntity
  8
Layer_1
 62
1
100
AcDbSpline
 70
8
 71
3
 72
8
 73
4
 74
0
 40
0
 40
0
 40
0
 40
0
 40
1
 40
1
 40
1
 40
1
 10
59.906409
 20
280.434162
 30
0.0
 10
60.000178
 20
280.340394
 30
0.0
 10
60.052856
 20
280.213217
 30
0.0
 10
60.052856
 20
280.080609
 30
0.0
  0
LINE
  5
192
100
AcDbEntity
  8
Layer_1
 62
1
100
AcDbLine
 10
60.052856
 20
280.080609
 30
0.0
 11
60.052856
 21
267.080609
 31
0.0
  0
SPLINE
  5
193
100
AcDbEntity
  8
Layer_1
 62
1
100
AcDbSpline
 70
8
 71
3
 72
8
 73
4
 74
0
 40
0
 40
0
 40
0
 40
0
 40
1
 40
1
 40
1
 40
1
 10
60.052856
 20
267.080609
 30
0.0
 10
60.052856
 20
266.948001
 30
0.0
 10
60.000178
 20
266.820824
 30
0.0
 10
59.906409
 20
266.727056
 30
0.0
  0
SPLINE
  5
194
100
AcDbEntity
  8
Layer_1
 62
1
100
AcDbSpline
 70
8
 71
3
 72
8
 73
4
 74
0
 40
0
 40
0
 40
0
 40
0
 40
1
 40
1
 40
1
 40
1
 10
59.906409
 20
266.727056
 30
0.0
 10
59.812641
 20
266.633287
 30
0.0
 10
59.685464
 20
266.580609
 30
0.0
 10
59.552856
 20
266.580609
 30
0.0
  0
LINE
  5
195
100
AcDbEntity
  8
Layer_1
 62
1
100
AcDbLine
 10
59.552856
 20
266.580609
 30
0.0
 11
46.552856
 21
266.580609
 31
0.0
  0
SPLINE
  5
196
100
AcDbEntity
  8
Layer_1
 62
1
100
AcDbSpline
 70
8
 71
3
 72
8
 73
4
 74
0
 40
0
 40
0
 40
0
 40
0
 40
1
 40
1
 40
1
 40
1
 10
46.552856
 20
266.580609
 30
0.0
 10
46.420248
 20
266.580609
 30
0.0
 10
46.293071
 20
266.633287
 30
0.0
 10
46.199303
 20
266.727056
 30
0.0
  0
SPLINE
  5
197
100
AcDbEntity
  8
Layer_1
 62
1
100
AcDbSpline
 70
8
 71
3
 72
8
 73
4
 74
0
 40
0
 40
0
 40
0
 40
0
 40
1
 40
1
 40
1
 40
1
 10
46.199303
 20
266.727056
 30
0.0
 10
46.105534
 20
266.820824
 30
0.0
 10
46.052856
 20
266.948001
 30
0.0
 10
46.052856
 20
267.080609
 30
0.0
  0
LINE
  5
198
100
AcDbEntity
  8
Layer_1
 62
1
100
AcDbLine
 10
46.052856
 20
267.080609
 30
0.0
 11
46.052856
 21
280.080609
 31
0.0
  0
SPLINE
  5
199
100
AcDbEntity
  8
Layer_1
 62
1
100
AcDbSpline
 70
8
 71
3
 72
8
 73
4
 74
0
 40
0
 40
0
 40
0
 40
0
 40
1
 40
1
 40
1
 40
1
 10
46.052856
 20
280.080609
 30
0.0
 10
46.052856
 20
280.213217
 30
0.0
 10
46.105534
 20
280.340394
 30
0.0
 10
46.199303
 20
280.434162
 30
0.0
  0
SPLINE
  5
19a
100
AcDbEntity
  8
Layer_1
 62
1
100
AcDbSpline
 70
8
 71
3
 72
8
 73
4
 74
0
 40
0
 40
0
 40
0
 40
0
 40
1
 40
1
 40
1
 40
1
 10
46.199303
 20
280.434162
 30
0.0
 10
46.293071
 20
280.527931
 30
0.0
 10
46.420248
 20
280.580609
 30
0.0
 10
46.552856
 20
280.580609
 30
0.0
  0
LINE
  5
19b
100
AcDbEntity
  8
Layer_1
 62
1
100
AcDbLine
 10
46.552856
 20
280.580609
 30
0.0
 11
46.552856
 21
280.580609
 31
0.0
  0
LINE
  5
19c
100
AcDbEntity
  8
Layer_1
 62
1
100
AcDbLine
 10
270.390850
 20
223.430609
 30
0.0
 11
283.390850
 21
223.430609
 31
0.0
  0
SPLINE
  5
19d
100
AcDbEntity
  8
Layer_1
 62
1
100
AcDbSpline
 70
8
 71
3
 72
8
 73
4
 74
0
 40
0
 40
0
 40
0
 40
0
 40
1
 40
1
 40
1
 40
1
 10
283.390850
 20
223.430609
 30
0.0
 10
283.523458
 20
223.430609
 30
0.0
 10
283.650635
 20
223.377931
 30
0.0
 10
283.744403
 20
223.284162
 30
0.0
  0
SPLINE
  5
19e
100
AcDbEntity
  8
Layer_1
 62
1
100
AcDbSpline
 70
8
 71
3
 72
8
 73
4
 74
0
 40
0
 40
0
 40
0
 40
0
 40
1
 40
1
 40
1
 40
1
 10
283.744403
 20
223.284162
 30
0.0
 10
283.838172
 20
223.190394
 30
0.0
 10
283.890850
 20
223.063217
 30
0.0
 10
283.890850
 20
222.930609
 30
0.0
  0
LINE
  5
19f
100
AcDbEntity
  8
Layer_1
 62
1
100
AcDbLine
 10
283.890850
 20
222.930609
 30
0.0
 11
283.890850
 21
209.930609
 31
0.0
  0
SPLINE
  5
1a0
100
AcDbEntity
  8
Layer_1
 62
1
100
AcDbSpline
 70
8
 71
3
 72
8
 73
4
 74
0
 40
0
 40
0
 40
0
 40
0
 40
1
 40
1
 40
1
 40
1
 10
283.890850
 20
209.930609
 30
0.0
 10
283.890850
 20
209.798001
 30
0.0
 10
283.838172
 20
209.670824
 30
0.0
 10
283.744403
 20
209.577056
 30
0.0
  0
SPLINE
  5
1a1
100
AcDbEntity
  8
Layer_1
 62
1
100
AcDbSpline
 70
8
 71
3
 72
8
 73
4
 74
0
 40
0
 40
0
 40
0
 40
0
 40
1
 40
1
 40
1
 40
1
 10
283.744403
 20
209.577056
 30
0.0
 10
283.650635
 20
209.483287
 30
0.0
 10
283.523458
 20
209.430609
 30
0.0
 10
283.390850
 20
209.430609
 30
0.0
  0
LINE
  5
1a2
100
AcDbEntity
  8
Layer_1
 62
1
100
AcDbLine
 10
283.390850
 20
209.430609
 30
0.0
 11
270.390850
 21
209.430609
 31
0.0
  0
SPLINE
  5
1a3
100
AcDbEntity
  8
Layer_1
 62
1
100
AcDbSpline
 70
8
 71
3
 72
8
 73
4
 74
0
 40
0
 40
0
 40
0
 40
0
 40
1
 40
1
 40
1
 40
1
 10
270.390850
 20
209.430609
 30
0.0
 10
270.258242
 20
209.430609
 30
0.0
 10
270.131065
 20
209.483287
 30
0.0
 10
270.037297
 20
209.577056
 30
0.0
  0
SPLINE
  5
1a4
100
AcDbEntity
  8
Layer_1
 62
1
100
AcDbSpline
 70
8
 71
3
 72
8
 73
4
 74
0
 40
0
 40
0
 40
0
 40
0
 40
1
 40
1
 40
1
 40
1
 10
270.037297
 20
209.577056
 30
0.0
 10
269.943528
 20
209.670824
 30
0.0
 10
269.890850
 20
209.798001
 30
0.0
 10
269.890850
 20
209.930609
 30
0.0
  0
LINE
  5
1a5
100
AcDbEntity
  8
Layer_1
 62
1
100
AcDbLine
 10
269.890850
 20
209.930609
 30
0.0
 11
269.890850
 21
222.930609
 31
0.0
  0
SPLINE
  5
1a6
100
AcDbEntity
  8
Layer_1
 62
1
100
AcDbSpline
 70
8
 71
3
 72
8
 73
4
 74
0
 40
0
 40
0
 40
0
 40
0
 40
1
 40
1
 40
1
 40
1
 10
269.890850
 20
222.930609
 30
0.0
 10
269.890850
 20
223.063217
 30
0.0
 10
269.943528
 20
223.190394
 30
0.0
 10
270.037297
 20
223.284162
 30
0.0
  0
SPLINE
  5
1a7
100
AcDbEntity
  8
Layer_1
 62
1
100
AcDbSpline
 70
8
 71
3
 72
8
 73
4
 74
0
 40
0
 40
0
 40
0
 40
0
 40
1
 40
1
 40
1
 40
1
 10
270.037297
 20
223.284162
 30
0.0
 10
270.131065
 20
223.377931
 30
0.0
 10
270.258242
 20
223.430609
 30
0.0
 10
270.390850
 20
223.430609
 30
0.0
  0
LINE
  5
1a8
100
AcDbEntity
  8
Layer_1
 62
1
100
AcDbLine
 10
270.390850
 20
223.430609
 30
0.0
 11
270.390850
 21
223.430609
 31
0.0
  0
LINE
  5
1a9
100
AcDbEntity
  8
Layer_1
 62
1
100
AcDbLine
 10
251.340850
 20
223.430609
 30
0.0
 11
264.340850
 21
223.430609
 31
0.0
  0
SPLINE
  5
1aa
100
AcDbEntity
  8
Layer_1
 62
1
100
AcDbSpline
 70
8
 71
3
 72
8
 73
4
 74
0
 40
0
 40
0
 40
0
 40
0
 40
1
 40
1
 40
1
 40
1
 10
264.340850
 20
223.430609
 30
0.0
 10
264.473458
 20
223.430609
 30
0.0
 10
264.600635
 20
223.377931
 30
0.0
 10
264.694403
 20
223.284162
 30
0.0
  0
SPLINE
  5
1ab
100
AcDbEntity
  8
Layer_1
 62
1
100
AcDbSpline
 70
8
 71
3
 72
8
 73
4
 74
0
 40
0
 40
0
 40
0
 40
0
 40
1
 40
1
 40
1
 40
1
 10
264.694403
 20
223.284162
 30
0.0
 10
264.788172
 20
223.190394
 30
0.0
 10
264.840850
 20
223.063217
 30
0.0
 10
264.840850
 20
222.930609
 30
0.0
  0
LINE
  5
1ac
100
AcDbEntity
  8
Layer_1
 62
1
100
AcDbLine
 10
264.840850
 20
222.930609
 30
0.0
 11
264.840850
 21
209.930609
 31
0.0
  0
SPLINE
  5
1ad
100
AcDbEntity
  8
Layer_1
 62
1
100
AcDbSpline
 70
8
 71
3
 72
8
 73
4
 74
0
 40
0
 40
0
 40
0
 40
0
 40
1
 40
1
 40
1
 40
1
 10
264.840850
 20
209.930609
 30
0.0
 10
264.840850
 20
209.798001
 30
0.0
 10
264.788172
 20
209.670824
 30
0.0
 10
264.694403
 20
209.577056
 30
0.0
  0
SPLINE
  5
1ae
100
AcDbEntity
  8
Layer_1
 62
1
100
AcDbSpline
 70
8
 71
3
 72
8
 73
4
 74
0
 40
0
 40
0
 40
0
 40
0
 40
1
 40
1
 40
1
 40
1
 10
264.694403
 20
209.577056
 30
0.0
 10
264.600635
 20
209.483287
 30
0.0
 10
264.473458
 20
209.430609
 30
0.0
 10
264.340850
 20
209.430609
 30
0.0
  0
LINE
  5
1af
100
AcDbEntity
  8
Layer_1
 62
1
100
AcDbLine
 10
264.340850
 20
209.430609
 30
0.0
 11
251.340850
 21
209.430609
 31
0.0
  0
SPLINE
  5
1b0
100
AcDbEntity
  8
Layer_1
 62
1
100
AcDbSpline
 70
8
 71
3
 72
8
 73
4
 74
0
 40
0
 40
0
 40
0
 40
0
 40
1
 40
1
 40
1
 40
1
 10
251.340850
 20
209.430609
 30
0.0
 10
251.208242
 20
209.430609
 30
0.0
 10
251.081065
 20
209.483287
 30
0.0
 10
250.987297
 20
209.577056
 30
0.0
  0
SPLINE
  5
1b1
100
AcDbEntity
  8
Layer_1
 62
1
100
AcDbSpline
 70
8
 71
3
 72
8
 73
4
 74
0
 40
0
 40
0
 40
0
 40
0
 40
1
 40
1
 40
1
 40
1
 10
250.987297
 20
209.577056
 30
0.0
 10
250.893528
 20
209.670824
 30
0.0
 10
250.840850
 20
209.798001
 30
0.0
 10
250.840850
 20
209.930609
 30
0.0
  0
LINE
  5
1b2
100
AcDbEntity
  8
Layer_1
 62
1
100
AcDbLine
 10
250.840850
 20
209.930609
 30
0.0
 11
250.840850
 21
222.930609
 31
0.0
  0
SPLINE
  5
1b3
100
AcDbEntity
  8
Layer_1
 62
1
100
AcDbSpline
 70
8
 71
3
 72
8
 73
4
 74
0
 40
0
 40
0
 40
0
 40
0
 40
1
 40
1
 40
1
 40
1
 10
250.840850
 20
222.930609
 30
0.0
 10
250.840850
 20
223.063217
 30
0.0
 10
250.893528
 20
223.190394
 30
0.0
 10
250.987297
 20
223.284162
 30
0.0
  0
SPLINE
  5
1b4
100
AcDbEntity
  8
Layer_1
 62
1
100
AcDbSpline
 70
8
 71
3
 72
8
 73
4
 74
0
 40
0
 40
0
 40
0
 40
0
 40
1
 40
1
 40
1
 40
1
 10
250.987297
 20
223.284162
 30
0.0
 10
251.081065
 20
223.377931
 30
0.0
 10
251.208242
 20
223.430609
 30
0.0
 10
251.340850
 20
223.430609
 30
0.0
  0
LINE
  5
1b5
100
AcDbEntity
  8
Layer_1
 62
1
100
AcDbLine
 10
251.340850
 20
223.430609
 30
0.0
 11
251.340850
 21
223.430609
 31
0.0
  0
LINE
  5
1b6
100
AcDbEntity
  8
Layer_1
 62
1
100
AcDbLine
 10
232.290860
 20
223.430609
 30
0.0
 11
245.290860
 21
223.430609
 31
0.0
  0
SPLINE
  5
1b7
100
AcDbEntity
  8
Layer_1
 62
1
100
AcDbSpline
 70
8
 71
3
 72
8
 73
4
 74
0
 40
0
 40
0
 40
0
 40
0
 40
1
 40
1
 40
1
 40
1
 10
245.290860
 20
223.430609
 30
0.0
 10
245.566998
 20
223.430603
 30
0.0
 10
245.790850
 20
223.206747
 30
0.0
 10
245.790850
 20
222.930609
 30
0.0
  0
LINE
  5
1b8
100
AcDbEntity
  8
Layer_1
 62
1
100
AcDbLine
 10
245.790850
 20
222.930609
 30
0.0
 11
245.790850
 21
209.930609
 31
0.0
  0
SPLINE
  5
1b9
100
AcDbEntity
  8
Layer_1
 62
1
100
AcDbSpline
 70
8
 71
3
 72
8
 73
4
 74
0
 40
0
 40
0
 40
0
 40
0
 40
1
 40
1
 40
1
 40
1
 10
245.790850
 20
209.930609
 30
0.0
 10
245.790850
 20
209.654471
 30
0.0
 10
245.566998
 20
209.430615
 30
0.0
 10
245.290860
 20
209.430609
 30
0.0
  0
LINE
  5
1ba
100
AcDbEntity
  8
Layer_1
 62
1
100
AcDbLine
 10
245.290860
 20
209.430609
 30
0.0
 11
232.290860
 21
209.430609
 31
0.0
  0
SPLINE
  5
1bb
100
AcDbEntity
  8
Layer_1
 62
1
100
AcDbSpline
 70
8
 71
3
 72
8
 73
4
 74
0
 40
0
 40
0
 40
0
 40
0
 40
1
 40
1
 40
1
 40
1
 10
232.290860
 20
209.430609
 30
0.0
 10
232.158252
 20
209.430609
 30
0.0
 10
232.031075
 20
209.483287
 30
0.0
 10
231.937307
 20
209.577056
 30
0.0
  0
SPLINE
  5
1bc
100
AcDbEntity
  8
Layer_1
 62
1
100
AcDbSpline
 70
8
 71
3
 72
8
 73
4
 74
0
 40
0
 40
0
 40
0
 40
0
 40
1
 40
1
 40
1
 40
1
 10
231.937307
 20
209.577056
 30
0.0
 10
231.843538
 20
209.670824
 30
0.0
 10
231.790860
 20
209.798001
 30
0.0
 10
231.790860
 20
209.930609
 30
0.0
  0
LINE
  5
1bd
100
AcDbEntity
  8
Layer_1
 62
1
100
AcDbLine
 10
231.790860
 20
209.930609
 30
0.0
 11
231.790860
 21
222.930609
 31
0.0
  0
SPLINE
  5
1be
100
AcDbEntity
  8
Layer_1
 62
1
100
AcDbSpline
 70
8
 71
3
 72
8
 73
4
 74
0
 40
0
 40
0
 40
0
 40
0
 40
1
 40
1
 40
1
 40
1
 10
231.790860
 20
222.930609
 30
0.0
 10
231.790860
 20
223.063217
 30
0.0
 10
231.843538
 20
223.190394
 30
0.0
 10
231.937307
 20
223.284162
 30
0.0
  0
SPLINE
  5
1bf
100
AcDbEntity
  8
Layer_1
 62
1
100
AcDbSpline
 70
8
 71
3
 72
8
 73
4
 74
0
 40
0
 40
0
 40
0
 40
0
 40
1
 40
1
 40
1
 40
1
 10
231.937307
 20
223.284162
 30
0.0
 10
232.031075
 20
223.377931
 30
0.0
 10
232.158252
 20
223.430609
 30
0.0
 10
232.290860
 20
223.430609
 30
0.0
  0
LINE
  5
1c0
100
AcDbEntity
  8
Layer_1
 62
1
100
AcDbLine
 10
232.290860
 20
223.430609
 30
0.0
 11
232.290860
 21
223.430609
 31
0.0
  0
LINE
  5
1c1
100
AcDbEntity
  8
Layer_1
 62
1
100
AcDbLine
 10
210.858860
 20
223.430609
 30
0.0
 11
223.858860
 21
223.430609
 31
0.0
  0
SPLINE
  5
1c2
100
AcDbEntity
  8
Layer_1
 62
1
100
AcDbSpline
 70
8
 71
3
 72
8
 73
4
 74
0
 40
0
 40
0
 40
0
 40
0
 40
1
 40
1
 40
1
 40
1
 10
223.858860
 20
223.430609
 30
0.0
 10
223.991468
 20
223.430609
 30
0.0
 10
224.118645
 20
223.377931
 30
0.0
 10
224.212413
 20
223.284162
 30
0.0
  0
SPLINE
  5
1c3
100
AcDbEntity
  8
Layer_1
 62
1
100
AcDbSpline
 70
8
 71
3
 72
8
 73
4
 74
0
 40
0
 40
0
 40
0
 40
0
 40
1
 40
1
 40
1
 40
1
 10
224.212413
 20
223.284162
 30
0.0
 10
224.306182
 20
223.190394
 30
0.0
 10
224.358860
 20
223.063217
 30
0.0
 10
224.358860
 20
222.930609
 30
0.0
  0
LINE
  5
1c4
100
AcDbEntity
  8
Layer_1
 62
1
100
AcDbLine
 10
224.358860
 20
222.930609
 30
0.0
 11
224.358860
 21
209.930609
 31
0.0
  0
SPLINE
  5
1c5
100
AcDbEntity
  8
Layer_1
 62
1
100
AcDbSpline
 70
8
 71
3
 72
8
 73
4
 74
0
 40
0
 40
0
 40
0
 40
0
 40
1
 40
1
 40
1
 40
1
 10
224.358860
 20
209.930609
 30
0.0
 10
224.358860
 20
209.798001
 30
0.0
 10
224.306182
 20
209.670824
 30
0.0
 10
224.212413
 20
209.577056
 30
0.0
  0
SPLINE
  5
1c6
100
AcDbEntity
  8
Layer_1
 62
1
100
AcDbSpline
 70
8
 71
3
 72
8
 73
4
 74
0
 40
0
 40
0
 40
0
 40
0
 40
1
 40
1
 40
1
 40
1
 10
224.212413
 20
209.577056
 30
0.0
 10
224.118645
 20
209.483287
 30
0.0
 10
223.991468
 20
209.430609
 30
0.0
 10
223.858860
 20
209.430609
 30
0.0
  0
LINE
  5
1c7
100
AcDbEntity
  8
Layer_1
 62
1
100
AcDbLine
 10
223.858860
 20
209.430609
 30
0.0
 11
210.858860
 21
209.430609
 31
0.0
  0
SPLINE
  5
1c8
100
AcDbEntity
  8
Layer_1
 62
1
100
AcDbSpline
 70
8
 71
3
 72
8
 73
4
 74
0
 40
0
 40
0
 40
0
 40
0
 40
1
 40
1
 40
1
 40
1
 10
210.858860
 20
209.430609
 30
0.0
 10
210.726252
 20
209.430609
 30
0.0
 10
210.599075
 20
209.483287
 30
0.0
 10
210.505307
 20
209.577056
 30
0.0
  0
SPLINE
  5
1c9
100
AcDbEntity
  8
Layer_1
 62
1
100
AcDbSpline
 70
8
 71
3
 72
8
 73
4
 74
0
 40
0
 40
0
 40
0
 40
0
 40
1
 40
1
 40
1
 40
1
 10
210.505307
 20
209.577056
 30
0.0
 10
210.411538
 20
209.670824
 30
0.0
 10
210.358860
 20
209.798001
 30
0.0
 10
210.358860
 20
209.930609
 30
0.0
  0
LINE
  5
1ca
100
AcDbEntity
  8
Layer_1
 62
1
100
AcDbLine
 10
210.358860
 20
209.930609
 30
0.0
 11
210.358860
 21
222.930609
 31
0.0
  0
SPLINE
  5
1cb
100
AcDbEntity
  8
Layer_1
 62
1
100
AcDbSpline
 70
8
 71
3
 72
8
 73
4
 74
0
 40
0
 40
0
 40
0
 40
0
 40
1
 40
1
 40
1
 40
1
 10
210.358860
 20
222.930609
 30
0.0
 10
210.358860
 20
223.063217
 30
0.0
 10
210.411538
 20
223.190394
 30
0.0
 10
210.505307
 20
223.284162
 30
0.0
  0
SPLINE
  5
1cc
100
AcDbEntity
  8
Layer_1
 62
1
100
AcDbSpline
 70
8
 71
3
 72
8
 73
4
 74
0
 40
0
 40
0
 40
0
 40
0
 40
1
 40
1
 40
1
 40
1
 10
210.505307
 20
223.284162
 30
0.0
 10
210.599075
 20
223.377931
 30
0.0
 10
210.726252
 20
223.430609
 30
0.0
 10
210.858860
 20
223.430609
 30
0.0
  0
LINE
  5
1cd
100
AcDbEntity
  8
Layer_1
 62
1
100
AcDbLine
 10
210.858860
 20
223.430609
 30
0.0
 11
210.858860
 21
223.430609
 31
0.0
  0
LINE
  5
1ce
100
AcDbEntity
  8
Layer_1
 62
1
100
AcDbLine
 10
91.796856
 20
223.430609
 30
0.0
 11
104.796860
 21
223.430609
 31
0.0
  0
SPLINE
  5
1cf
100
AcDbEntity
  8
Layer_1
 62
1
100
AcDbSpline
 70
8
 71
3
 72
8
 73
4
 74
0
 40
0
 40
0
 40
0
 40
0
 40
1
 40
1
 40
1
 40
1
 10
104.796860
 20
223.430609
 30
0.0
 10
104.929468
 20
223.430609
 30
0.0
 10
105.056645
 20
223.377931
 30
0.0
 10
105.150413
 20
223.284162
 30
0.0
  0
SPLINE
  5
1d0
100
AcDbEntity
  8
Layer_1
 62
1
100
AcDbSpline
 70
8
 71
3
 72
8
 73
4
 74
0
 40
0
 40
0
 40
0
 40
0
 40
1
 40
1
 40
1
 40
1
 10
105.150413
 20
223.284162
 30
0.0
 10
105.244182
 20
223.190394
 30
0.0
 10
105.296860
 20
223.063217
 30
0.0
 10
105.296860
 20
222.930609
 30
0.0
  0
LINE
  5
1d1
100
AcDbEntity
  8
Layer_1
 62
1
100
AcDbLine
 10
105.296860
 20
222.930609
 30
0.0
 11
105.296860
 21
209.930609
 31
0.0
  0
SPLINE
  5
1d2
100
AcDbEntity
  8
Layer_1
 62
1
100
AcDbSpline
 70
8
 71
3
 72
8
 73
4
 74
0
 40
0
 40
0
 40
0
 40
0
 40
1
 40
1
 40
1
 40
1
 10
105.296860
 20
209.930609
 30
0.0
 10
105.296860
 20
209.798001
 30
0.0
 10
105.244182
 20
209.670824
 30
0.0
 10
105.150413
 20
209.577056
 30
0.0
  0
SPLINE
  5
1d3
100
AcDbEntity
  8
Layer_1
 62
1
100
AcDbSpline
 70
8
 71
3
 72
8
 73
4
 74
0
 40
0
 40
0
 40
0
 40
0
 40
1
 40
1
 40
1
 40
1
 10
105.150413
 20
209.577056
 30
0.0
 10
105.056645
 20
209.483287
 30
0.0
 10
104.929468
 20
209.430609
 30
0.0
 10
104.796860
 20
209.430609
 30
0.0
  0
LINE
  5
1d4
100
AcDbEntity
  8
Layer_1
 62
1
100
AcDbLine
 10
104.796860
 20
209.430609
 30
0.0
 11
91.796856
 21
209.430609
 31
0.0
  0
SPLINE
  5
1d5
100
AcDbEntity
  8
Layer_1
 62
1
100
AcDbSpline
 70
8
 71
3
 72
8
 73
4
 74
0
 40
0
 40
0
 40
0
 40
0
 40
1
 40
1
 40
1
 40
1
 10
91.796856
 20
209.430609
 30
0.0
 10
91.664248
 20
209.430609
 30
0.0
 10
91.537071
 20
209.483287
 30
0.0
 10
91.443303
 20
209.577056
 30
0.0
  0
SPLINE
  5
1d6
100
AcDbEntity
  8
Layer_1
 62
1
100
AcDbSpline
 70
8
 71
3
 72
8
 73
4
 74
0
 40
0
 40
0
 40
0
 40
0
 40
1
 40
1
 40
1
 40
1
 10
91.443303
 20
209.577056
 30
0.0
 10
91.349534
 20
209.670824
 30
0.0
 10
91.296856
 20
209.798001
 30
0.0
 10
91.296856
 20
209.930609
 30
0.0
  0
LINE
  5
1d7
100
AcDbEntity
  8
Layer_1
 62
1
100
AcDbLine
 10
91.296856
 20
209.930609
 30
0.0
 11
91.296856
 21
222.930609
 31
0.0
  0
SPLINE
  5
1d8
100
AcDbEntity
  8
Layer_1
 62
1
100
AcDbSpline
 70
8
 71
3
 72
8
 73
4
 74
0
 40
0
 40
0
 40
0
 40
0
 40
1
 40
1
 40
1
 40
1
 10
91.296856
 20
222.930609
 30
0.0
 10
91.296856
 20
223.063217
 30
0.0
 10
91.349534
 20
223.190394
 30
0.0
 10
91.443303
 20
223.284162
 30
0.0
  0
SPLINE
  5
1d9
100
AcDbEntity
  8
Layer_1
 62
1
100
AcDbSpline
 70
8
 71
3
 72
8
 73
4
 74
0
 40
0
 40
0
 40
0
 40
0
 40
1
 40
1
 40
1
 40
1
 10
91.443303
 20
223.284162
 30
0.0
 10
91.537071
 20
223.377931
 30
0.0
 10
91.664248
 20
223.430609
 30
0.0
 10
91.796856
 20
223.430609
 30
0.0
  0
LINE
  5
1da
100
AcDbEntity
  8
Layer_1
 62
1
100
AcDbLine
 10
91.796856
 20
223.430609
 30
0.0
 11
91.796856
 21
223.430609
 31
0.0
  0
LINE
  5
1db
100
AcDbEntity
  8
Layer_1
 62
1
100
AcDbLine
 10
70.365856
 20
223.430609
 30
0.0
 11
83.365856
 21
223.430609
 31
0.0
  0
SPLINE
  5
1dc
100
AcDbEntity
  8
Layer_1
 62
1
100
AcDbSpline
 70
8
 71
3
 72
8
 73
4
 74
0
 40
0
 40
0
 40
0
 40
0
 40
1
 40
1
 40
1
 40
1
 10
83.365856
 20
223.430609
 30
0.0
 10
83.498464
 20
223.430609
 30
0.0
 10
83.625641
 20
223.377931
 30
0.0
 10
83.719409
 20
223.284162
 30
0.0
  0
SPLINE
  5
1dd
100
AcDbEntity
  8
Layer_1
 62
1
100
AcDbSpline
 70
8
 71
3
 72
8
 73
4
 74
0
 40
0
 40
0
 40
0
 40
0
 40
1
 40
1
 40
1
 40
1
 10
83.719409
 20
223.284162
 30
0.0
 10
83.813178
 20
223.190394
 30
0.0
 10
83.865856
 20
223.063217
 30
0.0
 10
83.865856
 20
222.930609
 30
0.0
  0
LINE
  5
1de
100
AcDbEntity
  8
Layer_1
 62
1
100
AcDbLine
 10
83.865856
 20
222.930609
 30
0.0
 11
83.865856
 21
209.930609
 31
0.0
  0
SPLINE
  5
1df
100
AcDbEntity
  8
Layer_1
 62
1
100
AcDbSpline
 70
8
 71
3
 72
8
 73
4
 74
0
 40
0
 40
0
 40
0
 40
0
 40
1
 40
1
 40
1
 40
1
 10
83.865856
 20
209.930609
 30
0.0
 10
83.865856
 20
209.798001
 30
0.0
 10
83.813178
 20
209.670824
 30
0.0
 10
83.719409
 20
209.577056
 30
0.0
  0
SPLINE
  5
1e0
100
AcDbEntity
  8
Layer_1
 62
1
100
AcDbSpline
 70
8
 71
3
 72
8
 73
4
 74
0
 40
0
 40
0
 40
0
 40
0
 40
1
 40
1
 40
1
 40
1
 10
83.719409
 20
209.577056
 30
0.0
 10
83.625641
 20
209.483287
 30
0.0
 10
83.498464
 20
209.430609
 30
0.0
 10
83.365856
 20
209.430609
 30
0.0
  0
LINE
  5
1e1
100
AcDbEntity
  8
Layer_1
 62
1
100
AcDbLine
 10
83.365856
 20
209.430609
 30
0.0
 11
70.365856
 21
209.430609
 31
0.0
  0
SPLINE
  5
1e2
100
AcDbEntity
  8
Layer_1
 62
1
100
AcDbSpline
 70
8
 71
3
 72
8
 73
4
 74
0
 40
0
 40
0
 40
0
 40
0
 40
1
 40
1
 40
1
 40
1
 10
70.365856
 20
209.430609
 30
0.0
 10
70.233248
 20
209.430609
 30
0.0
 10
70.106071
 20
209.483287
 30
0.0
 10
70.012303
 20
209.577056
 30
0.0
  0
SPLINE
  5
1e3
100
AcDbEntity
  8
Layer_1
 62
1
100
AcDbSpline
 70
8
 71
3
 72
8
 73
4
 74
0
 40
0
 40
0
 40
0
 40
0
 40
1
 40
1
 40
1
 40
1
 10
70.012303
 20
209.577056
 30
0.0
 10
69.918534
 20
209.670824
 30
0.0
 10
69.865856
 20
209.798001
 30
0.0
 10
69.865856
 20
209.930609
 30
0.0
  0
LINE
  5
1e4
100
AcDbEntity
  8
Layer_1
 62
1
100
AcDbLine
 10
69.865856
 20
209.930609
 30
0.0
 11
69.865856
 21
222.930609
 31
0.0
  0
SPLINE
  5
1e5
100
AcDbEntity
  8
Layer_1
 62
1
100
AcDbSpline
 70
8
 71
3
 72
8
 73
4
 74
0
 40
0
 40
0
 40
0
 40
0
 40
1
 40
1
 40
1
 40
1
 10
69.865856
 20
222.930609
 30
0.0
 10
69.865856
 20
223.063217
 30
0.0
 10
69.918534
 20
223.190394
 30
0.0
 10
70.012303
 20
223.284162
 30
0.0
  0
SPLINE
  5
1e6
100
AcDbEntity
  8
Layer_1
 62
1
100
AcDbSpline
 70
8
 71
3
 72
8
 73
4
 74
0
 40
0
 40
0
 40
0
 40
0
 40
1
 40
1
 40
1
 40
1
 10
70.012303
 20
223.284162
 30
0.0
 10
70.106071
 20
223.377931
 30
0.0
 10
70.233248
 20
223.430609
 30
0.0
 10
70.365856
 20
223.430609
 30
0.0
  0
LINE
  5
1e7
100
AcDbEntity
  8
Layer_1
 62
1
100
AcDbLine
 10
70.365856
 20
223.430609
 30
0.0
 11
70.365856
 21
223.430609
 31
0.0
  0
LINE
  5
1e8
100
AcDbEntity
  8
Layer_1
 62
1
100
AcDbLine
 10
48.933856
 20
223.430609
 30
0.0
 11
61.933856
 21
223.430609
 31
0.0
  0
SPLINE
  5
1e9
100
AcDbEntity
  8
Layer_1
 62
1
100
AcDbSpline
 70
8
 71
3
 72
8
 73
4
 74
0
 40
0
 40
0
 40
0
 40
0
 40
1
 40
1
 40
1
 40
1
 10
61.933856
 20
223.430609
 30
0.0
 10
62.066464
 20
223.430609
 30
0.0
 10
62.193641
 20
223.377931
 30
0.0
 10
62.287409
 20
223.284162
 30
0.0
  0
SPLINE
  5
1ea
100
AcDbEntity
  8
Layer_1
 62
1
100
AcDbSpline
 70
8
 71
3
 72
8
 73
4
 74
0
 40
0
 40
0
 40
0
 40
0
 40
1
 40
1
 40
1
 40
1
 10
62.287409
 20
223.284162
 30
0.0
 10
62.381178
 20
223.190394
 30
0.0
 10
62.433856
 20
223.063217
 30
0.0
 10
62.433856
 20
222.930609
 30
0.0
  0
LINE
  5
1eb
100
AcDbEntity
  8
Layer_1
 62
1
100
AcDbLine
 10
62.433856
 20
222.930609
 30
0.0
 11
62.433856
 21
209.930609
 31
0.0
  0
SPLINE
  5
1ec
100
AcDbEntity
  8
Layer_1
 62
1
100
AcDbSpline
 70
8
 71
3
 72
8
 73
4
 74
0
 40
0
 40
0
 40
0
 40
0
 40
1
 40
1
 40
1
 40
1
 10
62.433856
 20
209.930609
 30
0.0
 10
62.433856
 20
209.798001
 30
0.0
 10
62.381178
 20
209.670824
 30
0.0
 10
62.287409
 20
209.577056
 30
0.0
  0
SPLINE
  5
1ed
100
AcDbEntity
  8
Layer_1
 62
1
100
AcDbSpline
 70
8
 71
3
 72
8
 73
4
 74
0
 40
0
 40
0
 40
0
 40
0
 40
1
 40
1
 40
1
 40
1
 10
62.287409
 20
209.577056
 30
0.0
 10
62.193641
 20
209.483287
 30
0.0
 10
62.066464
 20
209.430609
 30
0.0
 10
61.933856
 20
209.430609
 30
0.0
  0
LINE
  5
1ee
100
AcDbEntity
  8
Layer_1
 62
1
100
AcDbLine
 10
61.933856
 20
209.430609
 30
0.0
 11
48.933856
 21
209.430609
 31
0.0
  0
SPLINE
  5
1ef
100
AcDbEntity
  8
Layer_1
 62
1
100
AcDbSpline
 70
8
 71
3
 72
8
 73
4
 74
0
 40
0
 40
0
 40
0
 40
0
 40
1
 40
1
 40
1
 40
1
 10
48.933856
 20
209.430609
 30
0.0
 10
48.801248
 20
209.430609
 30
0.0
 10
48.674071
 20
209.483287
 30
0.0
 10
48.580303
 20
209.577056
 30
0.0
  0
SPLINE
  5
1f0
100
AcDbEntity
  8
Layer_1
 62
1
100
AcDbSpline
 70
8
 71
3
 72
8
 73
4
 74
0
 40
0
 40
0
 40
0
 40
0
 40
1
 40
1
 40
1
 40
1
 10
48.580303
 20
209.577056
 30
0.0
 10
48.486534
 20
209.670824
 30
0.0
 10
48.433856
 20
209.798001
 30
0.0
 10
48.433856
 20
209.930609
 30
0.0
  0
LINE
  5
1f1
100
AcDbEntity
  8
Layer_1
 62
1
100
AcDbLine
 10
48.433856
 20
209.930609
 30
0.0
 11
48.433856
 21
222.930609
 31
0.0
  0
SPLINE
  5
1f2
100
AcDbEntity
  8
Layer_1
 62
1
100
AcDbSpline
 70
8
 71
3
 72
8
 73
4
 74
0
 40
0
 40
0
 40
0
 40
0
 40
1
 40
1
 40
1
 40
1
 10
48.433856
 20
222.930609
 30
0.0
 10
48.433856
 20
223.063217
 30
0.0
 10
48.486534
 20
223.190394
 30
0.0
 10
48.580303
 20
223.284162
 30
0.0
  0
SPLINE
  5
1f3
100
AcDbEntity
  8
Layer_1
 62
1
100
AcDbSpline
 70
8
 71
3
 72
8
 73
4
 74
0
 40
0
 40
0
 40
0
 40
0
 40
1
 40
1
 40
1
 40
1
 10
48.580303
 20
223.284162
 30
0.0
 10
48.674071
 20
223.377931
 30
0.0
 10
48.801248
 20
223.430609
 30
0.0
 10
48.933856
 20
223.430609
 30
0.0
  0
LINE
  5
1f4
100
AcDbEntity
  8
Layer_1
 62
1
100
AcDbLine
 10
48.933856
 20
223.430609
 30
0.0
 11
48.933856
 21
223.430609
 31
0.0
  0
LINE
  5
1f5
100
AcDbEntity
  8
Layer_1
 62
1
100
AcDbLine
 10
270.390850
 20
242.480609
 30
0.0
 11
283.390850
 21
242.480609
 31
0.0
  0
SPLINE
  5
1f6
100
AcDbEntity
  8
Layer_1
 62
1
100
AcDbSpline
 70
8
 71
3
 72
8
 73
4
 74
0
 40
0
 40
0
 40
0
 40
0
 40
1
 40
1
 40
1
 40
1
 10
283.390850
 20
242.480609
 30
0.0
 10
283.523458
 20
242.480609
 30
0.0
 10
283.650635
 20
242.427931
 30
0.0
 10
283.744403
 20
242.334162
 30
0.0
  0
SPLINE
  5
1f7
100
AcDbEntity
  8
Layer_1
 62
1
100
AcDbSpline
 70
8
 71
3
 72
8
 73
4
 74
0
 40
0
 40
0
 40
0
 40
0
 40
1
 40
1
 40
1
 40
1
 10
283.744403
 20
242.334162
 30
0.0
 10
283.838172
 20
242.240394
 30
0.0
 10
283.890850
 20
242.113217
 30
0.0
 10
283.890850
 20
241.980609
 30
0.0
  0
LINE
  5
1f8
100
AcDbEntity
  8
Layer_1
 62
1
100
AcDbLine
 10
283.890850
 20
241.980609
 30
0.0
 11
283.890850
 21
228.980609
 31
0.0
  0
SPLINE
  5
1f9
100
AcDbEntity
  8
Layer_1
 62
1
100
AcDbSpline
 70
8
 71
3
 72
8
 73
4
 74
0
 40
0
 40
0
 40
0
 40
0
 40
1
 40
1
 40
1
 40
1
 10
283.890850
 20
228.980609
 30
0.0
 10
283.890850
 20
228.848001
 30
0.0
 10
283.838172
 20
228.720824
 30
0.0
 10
283.744403
 20
228.627056
 30
0.0
  0
SPLINE
  5
1fa
100
AcDbEntity
  8
Layer_1
 62
1
100
AcDbSpline
 70
8
 71
3
 72
8
 73
4
 74
0
 40
0
 40
0
 40
0
 40
0
 40
1
 40
1
 40
1
 40
1
 10
283.744403
 20
228.627056
 30
0.0
 10
283.650635
 20
228.533287
 30
0.0
 10
283.523458
 20
228.480609
 30
0.0
 10
283.390850
 20
228.480609
 30
0.0
  0
LINE
  5
1fb
100
AcDbEntity
  8
Layer_1
 62
1
100
AcDbLine
 10
283.390850
 20
228.480609
 30
0.0
 11
270.390850
 21
228.480609
 31
0.0
  0
SPLINE
  5
1fc
100
AcDbEntity
  8
Layer_1
 62
1
100
AcDbSpline
 70
8
 71
3
 72
8
 73
4
 74
0
 40
0
 40
0
 40
0
 40
0
 40
1
 40
1
 40
1
 40
1
 10
270.390850
 20
228.480609
 30
0.0
 10
270.258242
 20
228.480609
 30
0.0
 10
270.131065
 20
228.533287
 30
0.0
 10
270.037297
 20
228.627056
 30
0.0
  0
SPLINE
  5
1fd
100
AcDbEntity
  8
Layer_1
 62
1
100
AcDbSpline
 70
8
 71
3
 72
8
 73
4
 74
0
 40
0
 40
0
 40
0
 40
0
 40
1
 40
1
 40
1
 40
1
 10
270.037297
 20
228.627056
 30
0.0
 10
269.943528
 20
228.720824
 30
0.0
 10
269.890850
 20
228.848001
 30
0.0
 10
269.890850
 20
228.980609
 30
0.0
  0
LINE
  5
1fe
100
AcDbEntity
  8
Layer_1
 62
1
100
AcDbLine
 10
269.890850
 20
228.980609
 30
0.0
 11
269.890850
 21
241.980609
 31
0.0
  0
SPLINE
  5
1ff
100
AcDbEntity
  8
Layer_1
 62
1
100
AcDbSpline
 70
8
 71
3
 72
8
 73
4
 74
0
 40
0
 40
0
 40
0
 40
0
 40
1
 40
1
 40
1
 40
1
 10
269.890850
 20
241.980609
 30
0.0
 10
269.890850
 20
242.113217
 30
0.0
 10
269.943528
 20
242.240394
 30
0.0
 10
270.037297
 20
242.334162
 30
0.0
  0
SPLINE
  5
200
100
AcDbEntity
  8
Layer_1
 62
1
100
AcDbSpline
 70
8
 71
3
 72
8
 73
4
 74
0
 40
0
 40
0
 40
0
 40
0
 40
1
 40
1
 40
1
 40
1
 10
270.037297
 20
242.334162
 30
0.0
 10
270.131065
 20
242.427931
 30
0.0
 10
270.258242
 20
242.480609
 30
0.0
 10
270.390850
 20
242.480609
 30
0.0
  0
LINE
  5
201
100
AcDbEntity
  8
Layer_1
 62
1
100
AcDbLine
 10
270.390850
 20
242.480609
 30
0.0
 11
270.390850
 21
242.480609
 31
0.0
  0
LINE
  5
202
100
AcDbEntity
  8
Layer_1
 62
1
100
AcDbLine
 10
251.340850
 20
242.480609
 30
0.0
 11
264.340850
 21
242.480609
 31
0.0
  0
SPLINE
  5
203
100
AcDbEntity
  8
Layer_1
 62
1
100
AcDbSpline
 70
8
 71
3
 72
8
 73
4
 74
0
 40
0
 40
0
 40
0
 40
0
 40
1
 40
1
 40
1
 40
1
 10
264.340850
 20
242.480609
 30
0.0
 10
264.473458
 20
242.480609
 30
0.0
 10
264.600635
 20
242.427931
 30
0.0
 10
264.694403
 20
242.334162
 30
0.0
  0
SPLINE
  5
204
100
AcDbEntity
  8
Layer_1
 62
1
100
AcDbSpline
 70
8
 71
3
 72
8
 73
4
 74
0
 40
0
 40
0
 40
0
 40
0
 40
1
 40
1
 40
1
 40
1
 10
264.694403
 20
242.334162
 30
0.0
 10
264.788172
 20
242.240394
 30
0.0
 10
264.840850
 20
242.113217
 30
0.0
 10
264.840850
 20
241.980609
 30
0.0
  0
LINE
  5
205
100
AcDbEntity
  8
Layer_1
 62
1
100
AcDbLine
 10
264.840850
 20
241.980609
 30
0.0
 11
264.840850
 21
228.980609
 31
0.0
  0
SPLINE
  5
206
100
AcDbEntity
  8
Layer_1
 62
1
100
AcDbSpline
 70
8
 71
3
 72
8
 73
4
 74
0
 40
0
 40
0
 40
0
 40
0
 40
1
 40
1
 40
1
 40
1
 10
264.840850
 20
228.980609
 30
0.0
 10
264.840850
 20
228.848001
 30
0.0
 10
264.788172
 20
228.720824
 30
0.0
 10
264.694403
 20
228.627056
 30
0.0
  0
SPLINE
  5
207
100
AcDbEntity
  8
Layer_1
 62
1
100
AcDbSpline
 70
8
 71
3
 72
8
 73
4
 74
0
 40
0
 40
0
 40
0
 40
0
 40
1
 40
1
 40
1
 40
1
 10
264.694403
 20
228.627056
 30
0.0
 10
264.600635
 20
228.533287
 30
0.0
 10
264.473458
 20
228.480609
 30
0.0
 10
264.340850
 20
228.480609
 30
0.0
  0
LINE
  5
208
100
AcDbEntity
  8
Layer_1
 62
1
100
AcDbLine
 10
264.340850
 20
228.480609
 30
0.0
 11
251.340850
 21
228.480609
 31
0.0
  0
SPLINE
  5
209
100
AcDbEntity
  8
Layer_1
 62
1
100
AcDbSpline
 70
8
 71
3
 72
8
 73
4
 74
0
 40
0
 40
0
 40
0
 40
0
 40
1
 40
1
 40
1
 40
1
 10
251.340850
 20
228.480609
 30
0.0
 10
251.208242
 20
228.480609
 30
0.0
 10
251.081065
 20
228.533287
 30
0.0
 10
250.987297
 20
228.627056
 30
0.0
  0
SPLINE
  5
20a
100
AcDbEntity
  8
Layer_1
 62
1
100
AcDbSpline
 70
8
 71
3
 72
8
 73
4
 74
0
 40
0
 40
0
 40
0
 40
0
 40
1
 40
1
 40
1
 40
1
 10
250.987297
 20
228.627056
 30
0.0
 10
250.893528
 20
228.720824
 30
0.0
 10
250.840850
 20
228.848001
 30
0.0
 10
250.840850
 20
228.980609
 30
0.0
  0
LINE
  5
20b
100
AcDbEntity
  8
Layer_1
 62
1
100
AcDbLine
 10
250.840850
 20
228.980609
 30
0.0
 11
250.840850
 21
241.980609
 31
0.0
  0
SPLINE
  5
20c
100
AcDbEntity
  8
Layer_1
 62
1
100
AcDbSpline
 70
8
 71
3
 72
8
 73
4
 74
0
 40
0
 40
0
 40
0
 40
0
 40
1
 40
1
 40
1
 40
1
 10
250.840850
 20
241.980609
 30
0.0
 10
250.840850
 20
242.113217
 30
0.0
 10
250.893528
 20
242.240394
 30
0.0
 10
250.987297
 20
242.334162
 30
0.0
  0
SPLINE
  5
20d
100
AcDbEntity
  8
Layer_1
 62
1
100
AcDbSpline
 70
8
 71
3
 72
8
 73
4
 74
0
 40
0
 40
0
 40
0
 40
0
 40
1
 40
1
 40
1
 40
1
 10
250.987297
 20
242.334162
 30
0.0
 10
251.081065
 20
242.427931
 30
0.0
 10
251.208242
 20
242.480609
 30
0.0
 10
251.340850
 20
242.480609
 30
0.0
  0
LINE
  5
20e
100
AcDbEntity
  8
Layer_1
 62
1
100
AcDbLine
 10
251.340850
 20
242.480609
 30
0.0
 11
251.340850
 21
242.480609
 31
0.0
  0
LINE
  5
20f
100
AcDbEntity
  8
Layer_1
 62
1
100
AcDbLine
 10
232.290860
 20
242.480609
 30
0.0
 11
245.290860
 21
242.480609
 31
0.0
  0
SPLINE
  5
210
100
AcDbEntity
  8
Layer_1
 62
1
100
AcDbSpline
 70
8
 71
3
 72
8
 73
4
 74
0
 40
0
 40
0
 40
0
 40
0
 40
1
 40
1
 40
1
 40
1
 10
245.290860
 20
242.480609
 30
0.0
 10
245.566998
 20
242.480603
 30
0.0
 10
245.790850
 20
242.256747
 30
0.0
 10
245.790850
 20
241.980609
 30
0.0
  0
LINE
  5
211
100
AcDbEntity
  8
Layer_1
 62
1
100
AcDbLine
 10
245.790850
 20
241.980609
 30
0.0
 11
245.790850
 21
228.980609
 31
0.0
  0
SPLINE
  5
212
100
AcDbEntity
  8
Layer_1
 62
1
100
AcDbSpline
 70
8
 71
3
 72
8
 73
4
 74
0
 40
0
 40
0
 40
0
 40
0
 40
1
 40
1
 40
1
 40
1
 10
245.790850
 20
228.980609
 30
0.0
 10
245.790850
 20
228.704471
 30
0.0
 10
245.566998
 20
228.480615
 30
0.0
 10
245.290860
 20
228.480609
 30
0.0
  0
LINE
  5
213
100
AcDbEntity
  8
Layer_1
 62
1
100
AcDbLine
 10
245.290860
 20
228.480609
 30
0.0
 11
232.290860
 21
228.480609
 31
0.0
  0
SPLINE
  5
214
100
AcDbEntity
  8
Layer_1
 62
1
100
AcDbSpline
 70
8
 71
3
 72
8
 73
4
 74
0
 40
0
 40
0
 40
0
 40
0
 40
1
 40
1
 40
1
 40
1
 10
232.290860
 20
228.480609
 30
0.0
 10
232.158252
 20
228.480609
 30
0.0
 10
232.031075
 20
228.533287
 30
0.0
 10
231.937307
 20
228.627056
 30
0.0
  0
SPLINE
  5
215
100
AcDbEntity
  8
Layer_1
 62
1
100
AcDbSpline
 70
8
 71
3
 72
8
 73
4
 74
0
 40
0
 40
0
 40
0
 40
0
 40
1
 40
1
 40
1
 40
1
 10
231.937307
 20
228.627056
 30
0.0
 10
231.843538
 20
228.720824
 30
0.0
 10
231.790860
 20
228.848001
 30
0.0
 10
231.790860
 20
228.980609
 30
0.0
  0
LINE
  5
216
100
AcDbEntity
  8
Layer_1
 62
1
100
AcDbLine
 10
231.790860
 20
228.980609
 30
0.0
 11
231.790860
 21
241.980609
 31
0.0
  0
SPLINE
  5
217
100
AcDbEntity
  8
Layer_1
 62
1
100
AcDbSpline
 70
8
 71
3
 72
8
 73
4
 74
0
 40
0
 40
0
 40
0
 40
0
 40
1
 40
1
 40
1
 40
1
 10
231.790860
 20
241.980609
 30
0.0
 10
231.790860
 20
242.113217
 30
0.0
 10
231.843538
 20
242.240394
 30
0.0
 10
231.937307
 20
242.334162
 30
0.0
  0
SPLINE
  5
218
100
AcDbEntity
  8
Layer_1
 62
1
100
AcDbSpline
 70
8
 71
3
 72
8
 73
4
 74
0
 40
0
 40
0
 40
0
 40
0
 40
1
 40
1
 40
1
 40
1
 10
231.937307
 20
242.334162
 30
0.0
 10
232.031075
 20
242.427931
 30
0.0
 10
232.158252
 20
242.480609
 30
0.0
 10
232.290860
 20
242.480609
 30
0.0
  0
LINE
  5
219
100
AcDbEntity
  8
Layer_1
 62
1
100
AcDbLine
 10
232.290860
 20
242.480609
 30
0.0
 11
232.290860
 21
242.480609
 31
0.0
  0
LINE
  5
21a
100
AcDbEntity
  8
Layer_1
 62
1
100
AcDbLine
 10
213.240860
 20
242.480609
 30
0.0
 11
226.240860
 21
242.480609
 31
0.0
  0
SPLINE
  5
21b
100
AcDbEntity
  8
Layer_1
 62
1
100
AcDbSpline
 70
8
 71
3
 72
8
 73
4
 74
0
 40
0
 40
0
 40
0
 40
0
 40
1
 40
1
 40
1
 40
1
 10
226.240860
 20
242.480609
 30
0.0
 10
226.373468
 20
242.480609
 30
0.0
 10
226.500645
 20
242.427931
 30
0.0
 10
226.594413
 20
242.334162
 30
0.0
  0
SPLINE
  5
21c
100
AcDbEntity
  8
Layer_1
 62
1
100
AcDbSpline
 70
8
 71
3
 72
8
 73
4
 74
0
 40
0
 40
0
 40
0
 40
0
 40
1
 40
1
 40
1
 40
1
 10
226.594413
 20
242.334162
 30
0.0
 10
226.688182
 20
242.240394
 30
0.0
 10
226.740860
 20
242.113217
 30
0.0
 10
226.740860
 20
241.980609
 30
0.0
  0
LINE
  5
21d
100
AcDbEntity
  8
Layer_1
 62
1
100
AcDbLine
 10
226.740860
 20
241.980609
 30
0.0
 11
226.740860
 21
228.980609
 31
0.0
  0
SPLINE
  5
21e
100
AcDbEntity
  8
Layer_1
 62
1
100
AcDbSpline
 70
8
 71
3
 72
8
 73
4
 74
0
 40
0
 40
0
 40
0
 40
0
 40
1
 40
1
 40
1
 40
1
 10
226.740860
 20
228.980609
 30
0.0
 10
226.740860
 20
228.848001
 30
0.0
 10
226.688182
 20
228.720824
 30
0.0
 10
226.594413
 20
228.627056
 30
0.0
  0
SPLINE
  5
21f
100
AcDbEntity
  8
Layer_1
 62
1
100
AcDbSpline
 70
8
 71
3
 72
8
 73
4
 74
0
 40
0
 40
0
 40
0
 40
0
 40
1
 40
1
 40
1
 40
1
 10
226.594413
 20
228.627056
 30
0.0
 10
226.500645
 20
228.533287
 30
0.0
 10
226.373468
 20
228.480609
 30
0.0
 10
226.240860
 20
228.480609
 30
0.0
  0
LINE
  5
220
100
AcDbEntity
  8
Layer_1
 62
1
100
AcDbLine
 10
226.240860
 20
228.480609
 30
0.0
 11
213.240860
 21
228.480609
 31
0.0
  0
SPLINE
  5
221
100
AcDbEntity
  8
Layer_1
 62
1
100
AcDbSpline
 70
8
 71
3
 72
8
 73
4
 74
0
 40
0
 40
0
 40
0
 40
0
 40
1
 40
1
 40
1
 40
1
 10
213.240860
 20
228.480609
 30
0.0
 10
213.108252
 20
228.480609
 30
0.0
 10
212.981075
 20
228.533287
 30
0.0
 10
212.887307
 20
228.627056
 30
0.0
  0
SPLINE
  5
222
100
AcDbEntity
  8
Layer_1
 62
1
100
AcDbSpline
 70
8
 71
3
 72
8
 73
4
 74
0
 40
0
 40
0
 40
0
 40
0
 40
1
 40
1
 40
1
 40
1
 10
212.887307
 20
228.627056
 30
0.0
 10
212.793538
 20
228.720824
 30
0.0
 10
212.740860
 20
228.848001
 30
0.0
 10
212.740860
 20
228.980609
 30
0.0
  0
LINE
  5
223
100
AcDbEntity
  8
Layer_1
 62
1
100
AcDbLine
 10
212.740860
 20
228.980609
 30
0.0
 11
212.740860
 21
241.980609
 31
0.0
  0
SPLINE
  5
224
100
AcDbEntity
  8
Layer_1
 62
1
100
AcDbSpline
 70
8
 71
3
 72
8
 73
4
 74
0
 40
0
 40
0
 40
0
 40
0
 40
1
 40
1
 40
1
 40
1
 10
212.740860
 20
241.980609
 30
0.0
 10
212.740860
 20
242.113217
 30
0.0
 10
212.793538
 20
242.240394
 30
0.0
 10
212.887307
 20
242.334162
 30
0.0
  0
SPLINE
  5
225
100
AcDbEntity
  8
Layer_1
 62
1
100
AcDbSpline
 70
8
 71
3
 72
8
 73
4
 74
0
 40
0
 40
0
 40
0
 40
0
 40
1
 40
1
 40
1
 40
1
 10
212.887307
 20
242.334162
 30
0.0
 10
212.981075
 20
242.427931
 30
0.0
 10
213.108252
 20
242.480609
 30
0.0
 10
213.240860
 20
242.480609
 30
0.0
  0
LINE
  5
226
100
AcDbEntity
  8
Layer_1
 62
1
100
AcDbLine
 10
213.240860
 20
242.480609
 30
0.0
 11
213.240860
 21
242.480609
 31
0.0
  0
LINE
  5
227
100
AcDbEntity
  8
Layer_1
 62
1
100
AcDbLine
 10
194.190860
 20
242.480609
 30
0.0
 11
207.190860
 21
242.480609
 31
0.0
  0
SPLINE
  5
228
100
AcDbEntity
  8
Layer_1
 62
1
100
AcDbSpline
 70
8
 71
3
 72
8
 73
4
 74
0
 40
0
 40
0
 40
0
 40
0
 40
1
 40
1
 40
1
 40
1
 10
207.190860
 20
242.480609
 30
0.0
 10
207.323468
 20
242.480609
 30
0.0
 10
207.450645
 20
242.427931
 30
0.0
 10
207.544413
 20
242.334162
 30
0.0
  0
SPLINE
  5
229
100
AcDbEntity
  8
Layer_1
 62
1
100
AcDbSpline
 70
8
 71
3
 72
8
 73
4
 74
0
 40
0
 40
0
 40
0
 40
0
 40
1
 40
1
 40
1
 40
1
 10
207.544413
 20
242.334162
 30
0.0
 10
207.638182
 20
242.240394
 30
0.0
 10
207.690860
 20
242.113217
 30
0.0
 10
207.690860
 20
241.980609
 30
0.0
  0
LINE
  5
22a
100
AcDbEntity
  8
Layer_1
 62
1
100
AcDbLine
 10
207.690860
 20
241.980609
 30
0.0
 11
207.690860
 21
228.980609
 31
0.0
  0
SPLINE
  5
22b
100
AcDbEntity
  8
Layer_1
 62
1
100
AcDbSpline
 70
8
 71
3
 72
8
 73
4
 74
0
 40
0
 40
0
 40
0
 40
0
 40
1
 40
1
 40
1
 40
1
 10
207.690860
 20
228.980609
 30
0.0
 10
207.690860
 20
228.848001
 30
0.0
 10
207.638182
 20
228.720824
 30
0.0
 10
207.544413
 20
228.627056
 30
0.0
  0
SPLINE
  5
22c
100
AcDbEntity
  8
Layer_1
 62
1
100
AcDbSpline
 70
8
 71
3
 72
8
 73
4
 74
0
 40
0
 40
0
 40
0
 40
0
 40
1
 40
1
 40
1
 40
1
 10
207.544413
 20
228.627056
 30
0.0
 10
207.450645
 20
228.533287
 30
0.0
 10
207.323468
 20
228.480609
 30
0.0
 10
207.190860
 20
228.480609
 30
0.0
  0
LINE
  5
22d
100
AcDbEntity
  8
Layer_1
 62
1
100
AcDbLine
 10
207.190860
 20
228.480609
 30
0.0
 11
194.190860
 21
228.480609
 31
0.0
  0
SPLINE
  5
22e
100
AcDbEntity
  8
Layer_1
 62
1
100
AcDbSpline
 70
8
 71
3
 72
8
 73
4
 74
0
 40
0
 40
0
 40
0
 40
0
 40
1
 40
1
 40
1
 40
1
 10
194.190860
 20
228.480609
 30
0.0
 10
194.058252
 20
228.480609
 30
0.0
 10
193.931075
 20
228.533287
 30
0.0
 10
193.837307
 20
228.627056
 30
0.0
  0
SPLINE
  5
22f
100
AcDbEntity
  8
Layer_1
 62
1
100
AcDbSpline
 70
8
 71
3
 72
8
 73
4
 74
0
 40
0
 40
0
 40
0
 40
0
 40
1
 40
1
 40
1
 40
1
 10
193.837307
 20
228.627056
 30
0.0
 10
193.743538
 20
228.720824
 30
0.0
 10
193.690860
 20
228.848001
 30
0.0
 10
193.690860
 20
228.980609
 30
0.0
  0
LINE
  5
230
100
AcDbEntity
  8
Layer_1
 62
1
100
AcDbLine
 10
193.690860
 20
228.980609
 30
0.0
 11
193.690860
 21
241.980609
 31
0.0
  0
SPLINE
  5
231
100
AcDbEntity
  8
Layer_1
 62
1
100
AcDbSpline
 70
8
 71
3
 72
8
 73
4
 74
0
 40
0
 40
0
 40
0
 40
0
 40
1
 40
1
 40
1
 40
1
 10
193.690860
 20
241.980609
 30
0.0
 10
193.690860
 20
242.113217
 30
0.0
 10
193.743538
 20
242.240394
 30
0.0
 10
193.837307
 20
242.334162
 30
0.0
  0
SPLINE
  5
232
100
AcDbEntity
  8
Layer_1
 62
1
100
AcDbSpline
 70
8
 71
3
 72
8
 73
4
 74
0
 40
0
 40
0
 40
0
 40
0
 40
1
 40
1
 40
1
 40
1
 10
193.837307
 20
242.334162
 30
0.0
 10
193.931075
 20
242.427931
 30
0.0
 10
194.058252
 20
242.480609
 30
0.0
 10
194.190860
 20
242.480609
 30
0.0
  0
LINE
  5
233
100
AcDbEntity
  8
Layer_1
 62
1
100
AcDbLine
 10
194.190860
 20
242.480609
 30
0.0
 11
194.190860
 21
242.480609
 31
0.0
  0
LINE
  5
234
100
AcDbEntity
  8
Layer_1
 62
1
100
AcDbLine
 10
175.140860
 20
242.480609
 30
0.0
 11
188.140860
 21
242.480609
 31
0.0
  0
SPLINE
  5
235
100
AcDbEntity
  8
Layer_1
 62
1
100
AcDbSpline
 70
8
 71
3
 72
8
 73
4
 74
0
 40
0
 40
0
 40
0
 40
0
 40
1
 40
1
 40
1
 40
1
 10
188.140860
 20
242.480609
 30
0.0
 10
188.273468
 20
242.480609
 30
0.0
 10
188.400645
 20
242.427931
 30
0.0
 10
188.494413
 20
242.334162
 30
0.0
  0
SPLINE
  5
236
100
AcDbEntity
  8
Layer_1
 62
1
100
AcDbSpline
 70
8
 71
3
 72
8
 73
4
 74
0
 40
0
 40
0
 40
0
 40
0
 40
1
 40
1
 40
1
 40
1
 10
188.494413
 20
242.334162
 30
0.0
 10
188.588182
 20
242.240394
 30
0.0
 10
188.640860
 20
242.113217
 30
0.0
 10
188.640860
 20
241.980609
 30
0.0
  0
LINE
  5
237
100
AcDbEntity
  8
Layer_1
 62
1
100
AcDbLine
 10
188.640860
 20
241.980609
 30
0.0
 11
188.640860
 21
228.980609
 31
0.0
  0
SPLINE
  5
238
100
AcDbEntity
  8
Layer_1
 62
1
100
AcDbSpline
 70
8
 71
3
 72
8
 73
4
 74
0
 40
0
 40
0
 40
0
 40
0
 40
1
 40
1
 40
1
 40
1
 10
188.640860
 20
228.980609
 30
0.0
 10
188.640860
 20
228.848001
 30
0.0
 10
188.588182
 20
228.720824
 30
0.0
 10
188.494413
 20
228.627056
 30
0.0
  0
SPLINE
  5
239
100
AcDbEntity
  8
Layer_1
 62
1
100
AcDbSpline
 70
8
 71
3
 72
8
 73
4
 74
0
 40
0
 40
0
 40
0
 40
0
 40
1
 40
1
 40
1
 40
1
 10
188.494413
 20
228.627056
 30
0.0
 10
188.400645
 20
228.533287
 30
0.0
 10
188.273468
 20
228.480609
 30
0.0
 10
188.140860
 20
228.480609
 30
0.0
  0
LINE
  5
23a
100
AcDbEntity
  8
Layer_1
 62
1
100
AcDbLine
 10
188.140860
 20
228.480609
 30
0.0
 11
175.140860
 21
228.480609
 31
0.0
  0
SPLINE
  5
23b
100
AcDbEntity
  8
Layer_1
 62
1
100
AcDbSpline
 70
8
 71
3
 72
8
 73
4
 74
0
 40
0
 40
0
 40
0
 40
0
 40
1
 40
1
 40
1
 40
1
 10
175.140860
 20
228.480609
 30
0.0
 10
175.008252
 20
228.480609
 30
0.0
 10
174.881075
 20
228.533287
 30
0.0
 10
174.787307
 20
228.627056
 30
0.0
  0
SPLINE
  5
23c
100
AcDbEntity
  8
Layer_1
 62
1
100
AcDbSpline
 70
8
 71
3
 72
8
 73
4
 74
0
 40
0
 40
0
 40
0
 40
0
 40
1
 40
1
 40
1
 40
1
 10
174.787307
 20
228.627056
 30
0.0
 10
174.693538
 20
228.720824
 30
0.0
 10
174.640860
 20
228.848001
 30
0.0
 10
174.640860
 20
228.980609
 30
0.0
  0
LINE
  5
23d
100
AcDbEntity
  8
Layer_1
 62
1
100
AcDbLine
 10
174.640860
 20
228.980609
 30
0.0
 11
174.640860
 21
241.980609
 31
0.0
  0
SPLINE
  5
23e
100
AcDbEntity
  8
Layer_1
 62
1
100
AcDbSpline
 70
8
 71
3
 72
8
 73
4
 74
0
 40
0
 40
0
 40
0
 40
0
 40
1
 40
1
 40
1
 40
1
 10
174.640860
 20
241.980609
 30
0.0
 10
174.640860
 20
242.113217
 30
0.0
 10
174.693538
 20
242.240394
 30
0.0
 10
174.787307
 20
242.334162
 30
0.0
  0
SPLINE
  5
23f
100
AcDbEntity
  8
Layer_1
 62
1
100
AcDbSpline
 70
8
 71
3
 72
8
 73
4
 74
0
 40
0
 40
0
 40
0
 40
0
 40
1
 40
1
 40
1
 40
1
 10
174.787307
 20
242.334162
 30
0.0
 10
174.881075
 20
242.427931
 30
0.0
 10
175.008252
 20
242.480609
 30
0.0
 10
175.140860
 20
242.480609
 30
0.0
  0
LINE
  5
240
100
AcDbEntity
  8
Layer_1
 62
1
100
AcDbLine
 10
175.140860
 20
242.480609
 30
0.0
 11
175.140860
 21
242.480609
 31
0.0
  0
LINE
  5
241
100
AcDbEntity
  8
Layer_1
 62
1
100
AcDbLine
 10
156.090860
 20
242.480609
 30
0.0
 11
169.090860
 21
242.480609
 31
0.0
  0
SPLINE
  5
242
100
AcDbEntity
  8
Layer_1
 62
1
100
AcDbSpline
 70
8
 71
3
 72
8
 73
4
 74
0
 40
0
 40
0
 40
0
 40
0
 40
1
 40
1
 40
1
 40
1
 10
169.090860
 20
242.480609
 30
0.0
 10
169.223468
 20
242.480609
 30
0.0
 10
169.350645
 20
242.427931
 30
0.0
 10
169.444413
 20
242.334162
 30
0.0
  0
SPLINE
  5
243
100
AcDbEntity
  8
Layer_1
 62
1
100
AcDbSpline
 70
8
 71
3
 72
8
 73
4
 74
0
 40
0
 40
0
 40
0
 40
0
 40
1
 40
1
 40
1
 40
1
 10
169.444413
 20
242.334162
 30
0.0
 10
169.538182
 20
242.240394
 30
0.0
 10
169.590860
 20
242.113217
 30
0.0
 10
169.590860
 20
241.980609
 30
0.0
  0
LINE
  5
244
100
AcDbEntity
  8
Layer_1
 62
1
100
AcDbLine
 10
169.590860
 20
241.980609
 30
0.0
 11
169.590860
 21
228.980609
 31
0.0
  0
SPLINE
  5
245
100
AcDbEntity
  8
Layer_1
 62
1
100
AcDbSpline
 70
8
 71
3
 72
8
 73
4
 74
0
 40
0
 40
0
 40
0
 40
0
 40
1
 40
1
 40
1
 40
1
 10
169.590860
 20
228.980609
 30
0.0
 10
169.590860
 20
228.848001
 30
0.0
 10
169.538182
 20
228.720824
 30
0.0
 10
169.444413
 20
228.627056
 30
0.0
  0
SPLINE
  5
246
100
AcDbEntity
  8
Layer_1
 62
1
100
AcDbSpline
 70
8
 71
3
 72
8
 73
4
 74
0
 40
0
 40
0
 40
0
 40
0
 40
1
 40
1
 40
1
 40
1
 10
169.444413
 20
228.627056
 30
0.0
 10
169.350645
 20
228.533287
 30
0.0
 10
169.223468
 20
228.480609
 30
0.0
 10
169.090860
 20
228.480609
 30
0.0
  0
LINE
  5
247
100
AcDbEntity
  8
Layer_1
 62
1
100
AcDbLine
 10
169.090860
 20
228.480609
 30
0.0
 11
156.090860
 21
228.480609
 31
0.0
  0
SPLINE
  5
248
100
AcDbEntity
  8
Layer_1
 62
1
100
AcDbSpline
 70
8
 71
3
 72
8
 73
4
 74
0
 40
0
 40
0
 40
0
 40
0
 40
1
 40
1
 40
1
 40
1
 10
156.090860
 20
228.480609
 30
0.0
 10
155.958252
 20
228.480609
 30
0.0
 10
155.831075
 20
228.533287
 30
0.0
 10
155.737307
 20
228.627056
 30
0.0
  0
SPLINE
  5
249
100
AcDbEntity
  8
Layer_1
 62
1
100
AcDbSpline
 70
8
 71
3
 72
8
 73
4
 74
0
 40
0
 40
0
 40
0
 40
0
 40
1
 40
1
 40
1
 40
1
 10
155.737307
 20
228.627056
 30
0.0
 10
155.643538
 20
228.720824
 30
0.0
 10
155.590860
 20
228.848001
 30
0.0
 10
155.590860
 20
228.980609
 30
0.0
  0
LINE
  5
24a
100
AcDbEntity
  8
Layer_1
 62
1
100
AcDbLine
 10
155.590860
 20
228.980609
 30
0.0
 11
155.590860
 21
241.980609
 31
0.0
  0
SPLINE
  5
24b
100
AcDbEntity
  8
Layer_1
 62
1
100
AcDbSpline
 70
8
 71
3
 72
8
 73
4
 74
0
 40
0
 40
0
 40
0
 40
0
 40
1
 40
1
 40
1
 40
1
 10
155.590860
 20
241.980609
 30
0.0
 10
155.590860
 20
242.113217
 30
0.0
 10
155.643538
 20
242.240394
 30
0.0
 10
155.737307
 20
242.334162
 30
0.0
  0
SPLINE
  5
24c
100
AcDbEntity
  8
Layer_1
 62
1
100
AcDbSpline
 70
8
 71
3
 72
8
 73
4
 74
0
 40
0
 40
0
 40
0
 40
0
 40
1
 40
1
 40
1
 40
1
 10
155.737307
 20
242.334162
 30
0.0
 10
155.831075
 20
242.427931
 30
0.0
 10
155.958252
 20
242.480609
 30
0.0
 10
156.090860
 20
242.480609
 30
0.0
  0
LINE
  5
24d
100
AcDbEntity
  8
Layer_1
 62
1
100
AcDbLine
 10
156.090860
 20
242.480609
 30
0.0
 11
156.090860
 21
242.480609
 31
0.0
  0
LINE
  5
24e
100
AcDbEntity
  8
Layer_1
 62
1
100
AcDbLine
 10
137.040860
 20
242.480609
 30
0.0
 11
150.040860
 21
242.480609
 31
0.0
  0
SPLINE
  5
24f
100
AcDbEntity
  8
Layer_1
 62
1
100
AcDbSpline
 70
8
 71
3
 72
8
 73
4
 74
0
 40
0
 40
0
 40
0
 40
0
 40
1
 40
1
 40
1
 40
1
 10
150.040860
 20
242.480609
 30
0.0
 10
150.173468
 20
242.480609
 30
0.0
 10
150.300645
 20
242.427931
 30
0.0
 10
150.394413
 20
242.334162
 30
0.0
  0
SPLINE
  5
250
100
AcDbEntity
  8
Layer_1
 62
1
100
AcDbSpline
 70
8
 71
3
 72
8
 73
4
 74
0
 40
0
 40
0
 40
0
 40
0
 40
1
 40
1
 40
1
 40
1
 10
150.394413
 20
242.334162
 30
0.0
 10
150.488182
 20
242.240394
 30
0.0
 10
150.540860
 20
242.113217
 30
0.0
 10
150.540860
 20
241.980609
 30
0.0
  0
LINE
  5
251
100
AcDbEntity
  8
Layer_1
 62
1
100
AcDbLine
 10
150.540860
 20
241.980609
 30
0.0
 11
150.540860
 21
228.980609
 31
0.0
  0
SPLINE
  5
252
100
AcDbEntity
  8
Layer_1
 62
1
100
AcDbSpline
 70
8
 71
3
 72
8
 73
4
 74
0
 40
0
 40
0
 40
0
 40
0
 40
1
 40
1
 40
1
 40
1
 10
150.540860
 20
228.980609
 30
0.0
 10
150.540860
 20
228.848001
 30
0.0
 10
150.488182
 20
228.720824
 30
0.0
 10
150.394413
 20
228.627056
 30
0.0
  0
SPLINE
  5
253
100
AcDbEntity
  8
Layer_1
 62
1
100
AcDbSpline
 70
8
 71
3
 72
8
 73
4
 74
0
 40
0
 40
0
 40
0
 40
0
 40
1
 40
1
 40
1
 40
1
 10
150.394413
 20
228.627056
 30
0.0
 10
150.300645
 20
228.533287
 30
0.0
 10
150.173468
 20
228.480609
 30
0.0
 10
150.040860
 20
228.480609
 30
0.0
  0
LINE
  5
254
100
AcDbEntity
  8
Layer_1
 62
1
100
AcDbLine
 10
150.040860
 20
228.480609
 30
0.0
 11
137.040860
 21
228.480609
 31
0.0
  0
SPLINE
  5
255
100
AcDbEntity
  8
Layer_1
 62
1
100
AcDbSpline
 70
8
 71
3
 72
8
 73
4
 74
0
 40
0
 40
0
 40
0
 40
0
 40
1
 40
1
 40
1
 40
1
 10
137.040860
 20
228.480609
 30
0.0
 10
136.908252
 20
228.480609
 30
0.0
 10
136.781075
 20
228.533287
 30
0.0
 10
136.687307
 20
228.627056
 30
0.0
  0
SPLINE
  5
256
100
AcDbEntity
  8
Layer_1
 62
1
100
AcDbSpline
 70
8
 71
3
 72
8
 73
4
 74
0
 40
0
 40
0
 40
0
 40
0
 40
1
 40
1
 40
1
 40
1
 10
136.687307
 20
228.627056
 30
0.0
 10
136.593538
 20
228.720824
 30
0.0
 10
136.540860
 20
228.848001
 30
0.0
 10
136.540860
 20
228.980609
 30
0.0
  0
LINE
  5
257
100
AcDbEntity
  8
Layer_1
 62
1
100
AcDbLine
 10
136.540860
 20
228.980609
 30
0.0
 11
136.540860
 21
241.980609
 31
0.0
  0
SPLINE
  5
258
100
AcDbEntity
  8
Layer_1
 62
1
100
AcDbSpline
 70
8
 71
3
 72
8
 73
4
 74
0
 40
0
 40
0
 40
0
 40
0
 40
1
 40
1
 40
1
 40
1
 10
136.540860
 20
241.980609
 30
0.0
 10
136.540860
 20
242.113217
 30
0.0
 10
136.593538
 20
242.240394
 30
0.0
 10
136.687307
 20
242.334162
 30
0.0
  0
SPLINE
  5
259
100
AcDbEntity
  8
Layer_1
 62
1
100
AcDbSpline
 70
8
 71
3
 72
8
 73
4
 74
0
 40
0
 40
0
 40
0
 40
0
 40
1
 40
1
 40
1
 40
1
 10
136.687307
 20
242.334162
 30
0.0
 10
136.781075
 20
242.427931
 30
0.0
 10
136.908252
 20
242.480609
 30
0.0
 10
137.040860
 20
242.480609
 30
0.0
  0
LINE
  5
25a
100
AcDbEntity
  8
Layer_1
 62
1
100
AcDbLine
 10
137.040860
 20
242.480609
 30
0.0
 11
137.040860
 21
242.480609
 31
0.0
  0
LINE
  5
25b
100
AcDbEntity
  8
Layer_1
 62
1
100
AcDbLine
 10
117.990860
 20
242.480609
 30
0.0
 11
130.990860
 21
242.480609
 31
0.0
  0
SPLINE
  5
25c
100
AcDbEntity
  8
Layer_1
 62
1
100
AcDbSpline
 70
8
 71
3
 72
8
 73
4
 74
0
 40
0
 40
0
 40
0
 40
0
 40
1
 40
1
 40
1
 40
1
 10
130.990860
 20
242.480609
 30
0.0
 10
131.123468
 20
242.480609
 30
0.0
 10
131.250645
 20
242.427931
 30
0.0
 10
131.344413
 20
242.334162
 30
0.0
  0
SPLINE
  5
25d
100
AcDbEntity
  8
Layer_1
 62
1
100
AcDbSpline
 70
8
 71
3
 72
8
 73
4
 74
0
 40
0
 40
0
 40
0
 40
0
 40
1
 40
1
 40
1
 40
1
 10
131.344413
 20
242.334162
 30
0.0
 10
131.438182
 20
242.240394
 30
0.0
 10
131.490860
 20
242.113217
 30
0.0
 10
131.490860
 20
241.980609
 30
0.0
  0
LINE
  5
25e
100
AcDbEntity
  8
Layer_1
 62
1
100
AcDbLine
 10
131.490860
 20
241.980609
 30
0.0
 11
131.490860
 21
228.980609
 31
0.0
  0
SPLINE
  5
25f
100
AcDbEntity
  8
Layer_1
 62
1
100
AcDbSpline
 70
8
 71
3
 72
8
 73
4
 74
0
 40
0
 40
0
 40
0
 40
0
 40
1
 40
1
 40
1
 40
1
 10
131.490860
 20
228.980609
 30
0.0
 10
131.490860
 20
228.848001
 30
0.0
 10
131.438182
 20
228.720824
 30
0.0
 10
131.344413
 20
228.627056
 30
0.0
  0
SPLINE
  5
260
100
AcDbEntity
  8
Layer_1
 62
1
100
AcDbSpline
 70
8
 71
3
 72
8
 73
4
 74
0
 40
0
 40
0
 40
0
 40
0
 40
1
 40
1
 40
1
 40
1
 10
131.344413
 20
228.627056
 30
0.0
 10
131.250645
 20
228.533287
 30
0.0
 10
131.123468
 20
228.480609
 30
0.0
 10
130.990860
 20
228.480609
 30
0.0
  0
LINE
  5
261
100
AcDbEntity
  8
Layer_1
 62
1
100
AcDbLine
 10
130.990860
 20
228.480609
 30
0.0
 11
117.990860
 21
228.480609
 31
0.0
  0
SPLINE
  5
262
100
AcDbEntity
  8
Layer_1
 62
1
100
AcDbSpline
 70
8
 71
3
 72
8
 73
4
 74
0
 40
0
 40
0
 40
0
 40
0
 40
1
 40
1
 40
1
 40
1
 10
117.990860
 20
228.480609
 30
0.0
 10
117.858252
 20
228.480609
 30
0.0
 10
117.731075
 20
228.533287
 30
0.0
 10
117.637307
 20
228.627056
 30
0.0
  0
SPLINE
  5
263
100
AcDbEntity
  8
Layer_1
 62
1
100
AcDbSpline
 70
8
 71
3
 72
8
 73
4
 74
0
 40
0
 40
0
 40
0
 40
0
 40
1
 40
1
 40
1
 40
1
 10
117.637307
 20
228.627056
 30
0.0
 10
117.543538
 20
228.720824
 30
0.0
 10
117.490860
 20
228.848001
 30
0.0
 10
117.490860
 20
228.980609
 30
0.0
  0
LINE
  5
264
100
AcDbEntity
  8
Layer_1
 62
1
100
AcDbLine
 10
117.490860
 20
228.980609
 30
0.0
 11
117.490860
 21
241.980609
 31
0.0
  0
SPLINE
  5
265
100
AcDbEntity
  8
Layer_1
 62
1
100
AcDbSpline
 70
8
 71
3
 72
8
 73
4
 74
0
 40
0
 40
0
 40
0
 40
0
 40
1
 40
1
 40
1
 40
1
 10
117.490860
 20
241.980609
 30
0.0
 10
117.490860
 20
242.113217
 30
0.0
 10
117.543538
 20
242.240394
 30
0.0
 10
117.637307
 20
242.334162
 30
0.0
  0
SPLINE
  5
266
100
AcDbEntity
  8
Layer_1
 62
1
100
AcDbSpline
 70
8
 71
3
 72
8
 73
4
 74
0
 40
0
 40
0
 40
0
 40
0
 40
1
 40
1
 40
1
 40
1
 10
117.637307
 20
242.334162
 30
0.0
 10
117.731075
 20
242.427931
 30
0.0
 10
117.858252
 20
242.480609
 30
0.0
 10
117.990860
 20
242.480609
 30
0.0
  0
LINE
  5
267
100
AcDbEntity
  8
Layer_1
 62
1
100
AcDbLine
 10
117.990860
 20
242.480609
 30
0.0
 11
117.990860
 21
242.480609
 31
0.0
  0
LINE
  5
268
100
AcDbEntity
  8
Layer_1
 62
1
100
AcDbLine
 10
79.890856
 20
242.480609
 30
0.0
 11
92.890856
 21
242.480609
 31
0.0
  0
SPLINE
  5
269
100
AcDbEntity
  8
Layer_1
 62
1
100
AcDbSpline
 70
8
 71
3
 72
8
 73
4
 74
0
 40
0
 40
0
 40
0
 40
0
 40
1
 40
1
 40
1
 40
1
 10
92.890856
 20
242.480609
 30
0.0
 10
93.023464
 20
242.480609
 30
0.0
 10
93.150641
 20
242.427931
 30
0.0
 10
93.244409
 20
242.334162
 30
0.0
  0
SPLINE
  5
26a
100
AcDbEntity
  8
Layer_1
 62
1
100
AcDbSpline
 70
8
 71
3
 72
8
 73
4
 74
0
 40
0
 40
0
 40
0
 40
0
 40
1
 40
1
 40
1
 40
1
 10
93.244409
 20
242.334162
 30
0.0
 10
93.338178
 20
242.240394
 30
0.0
 10
93.390856
 20
242.113217
 30
0.0
 10
93.390856
 20
241.980609
 30
0.0
  0
LINE
  5
26b
100
AcDbEntity
  8
Layer_1
 62
1
100
AcDbLine
 10
93.390856
 20
241.980609
 30
0.0
 11
93.390856
 21
228.980609
 31
0.0
  0
SPLINE
  5
26c
100
AcDbEntity
  8
Layer_1
 62
1
100
AcDbSpline
 70
8
 71
3
 72
8
 73
4
 74
0
 40
0
 40
0
 40
0
 40
0
 40
1
 40
1
 40
1
 40
1
 10
93.390856
 20
228.980609
 30
0.0
 10
93.390856
 20
228.848001
 30
0.0
 10
93.338178
 20
228.720824
 30
0.0
 10
93.244409
 20
228.627056
 30
0.0
  0
SPLINE
  5
26d
100
AcDbEntity
  8
Layer_1
 62
1
100
AcDbSpline
 70
8
 71
3
 72
8
 73
4
 74
0
 40
0
 40
0
 40
0
 40
0
 40
1
 40
1
 40
1
 40
1
 10
93.244409
 20
228.627056
 30
0.0
 10
93.150641
 20
228.533287
 30
0.0
 10
93.023464
 20
228.480609
 30
0.0
 10
92.890856
 20
228.480609
 30
0.0
  0
LINE
  5
26e
100
AcDbEntity
  8
Layer_1
 62
1
100
AcDbLine
 10
92.890856
 20
228.480609
 30
0.0
 11
79.890856
 21
228.480609
 31
0.0
  0
SPLINE
  5
26f
100
AcDbEntity
  8
Layer_1
 62
1
100
AcDbSpline
 70
8
 71
3
 72
8
 73
4
 74
0
 40
0
 40
0
 40
0
 40
0
 40
1
 40
1
 40
1
 40
1
 10
79.890856
 20
228.480609
 30
0.0
 10
79.758248
 20
228.480609
 30
0.0
 10
79.631071
 20
228.533287
 30
0.0
 10
79.537303
 20
228.627056
 30
0.0
  0
SPLINE
  5
270
100
AcDbEntity
  8
Layer_1
 62
1
100
AcDbSpline
 70
8
 71
3
 72
8
 73
4
 74
0
 40
0
 40
0
 40
0
 40
0
 40
1
 40
1
 40
1
 40
1
 10
79.537303
 20
228.627056
 30
0.0
 10
79.443534
 20
228.720824
 30
0.0
 10
79.390856
 20
228.848001
 30
0.0
 10
79.390856
 20
228.980609
 30
0.0
  0
LINE
  5
271
100
AcDbEntity
  8
Layer_1
 62
1
100
AcDbLine
 10
79.390856
 20
228.980609
 30
0.0
 11
79.390856
 21
241.980609
 31
0.0
  0
SPLINE
  5
272
100
AcDbEntity
  8
Layer_1
 62
1
100
AcDbSpline
 70
8
 71
3
 72
8
 73
4
 74
0
 40
0
 40
0
 40
0
 40
0
 40
1
 40
1
 40
1
 40
1
 10
79.390856
 20
241.980609
 30
0.0
 10
79.390856
 20
242.113217
 30
0.0
 10
79.443534
 20
242.240394
 30
0.0
 10
79.537303
 20
242.334162
 30
0.0
  0
SPLINE
  5
273
100
AcDbEntity
  8
Layer_1
 62
1
100
AcDbSpline
 70
8
 71
3
 72
8
 73
4
 74
0
 40
0
 40
0
 40
0
 40
0
 40
1
 40
1
 40
1
 40
1
 10
79.537303
 20
242.334162
 30
0.0
 10
79.631071
 20
242.427931
 30
0.0
 10
79.758248
 20
242.480609
 30
0.0
 10
79.890856
 20
242.480609
 30
0.0
  0
LINE
  5
274
100
AcDbEntity
  8
Layer_1
 62
1
100
AcDbLine
 10
79.890856
 20
242.480609
 30
0.0
 11
79.890856
 21
242.480609
 31
0.0
  0
LINE
  5
275
100
AcDbEntity
  8
Layer_1
 62
1
100
AcDbLine
 10
53.696856
 20
242.480609
 30
0.0
 11
66.696856
 21
242.480609
 31
0.0
  0
SPLINE
  5
276
100
AcDbEntity
  8
Layer_1
 62
1
100
AcDbSpline
 70
8
 71
3
 72
8
 73
4
 74
0
 40
0
 40
0
 40
0
 40
0
 40
1
 40
1
 40
1
 40
1
 10
66.696856
 20
242.480609
 30
0.0
 10
66.829464
 20
242.480609
 30
0.0
 10
66.956641
 20
242.427931
 30
0.0
 10
67.050409
 20
242.334162
 30
0.0
  0
SPLINE
  5
277
100
AcDbEntity
  8
Layer_1
 62
1
100
AcDbSpline
 70
8
 71
3
 72
8
 73
4
 74
0
 40
0
 40
0
 40
0
 40
0
 40
1
 40
1
 40
1
 40
1
 10
67.050409
 20
242.334162
 30
0.0
 10
67.144178
 20
242.240394
 30
0.0
 10
67.196856
 20
242.113217
 30
0.0
 10
67.196856
 20
241.980609
 30
0.0
  0
LINE
  5
278
100
AcDbEntity
  8
Layer_1
 62
1
100
AcDbLine
 10
67.196856
 20
241.980609
 30
0.0
 11
67.196856
 21
228.980609
 31
0.0
  0
SPLINE
  5
279
100
AcDbEntity
  8
Layer_1
 62
1
100
AcDbSpline
 70
8
 71
3
 72
8
 73
4
 74
0
 40
0
 40
0
 40
0
 40
0
 40
1
 40
1
 40
1
 40
1
 10
67.196856
 20
228.980609
 30
0.0
 10
67.196856
 20
228.848001
 30
0.0
 10
67.144178
 20
228.720824
 30
0.0
 10
67.050409
 20
228.627056
 30
0.0
  0
SPLINE
  5
27a
100
AcDbEntity
  8
Layer_1
 62
1
100
AcDbSpline
 70
8
 71
3
 72
8
 73
4
 74
0
 40
0
 40
0
 40
0
 40
0
 40
1
 40
1
 40
1
 40
1
 10
67.050409
 20
228.627056
 30
0.0
 10
66.956641
 20
228.533287
 30
0.0
 10
66.829464
 20
228.480609
 30
0.0
 10
66.696856
 20
228.480609
 30
0.0
  0
LINE
  5
27b
100
AcDbEntity
  8
Layer_1
 62
1
100
AcDbLine
 10
66.696856
 20
228.480609
 30
0.0
 11
53.696856
 21
228.480609
 31
0.0
  0
SPLINE
  5
27c
100
AcDbEntity
  8
Layer_1
 62
1
100
AcDbSpline
 70
8
 71
3
 72
8
 73
4
 74
0
 40
0
 40
0
 40
0
 40
0
 40
1
 40
1
 40
1
 40
1
 10
53.696856
 20
228.480609
 30
0.0
 10
53.564248
 20
228.480609
 30
0.0
 10
53.437071
 20
228.533287
 30
0.0
 10
53.343303
 20
228.627056
 30
0.0
  0
SPLINE
  5
27d
100
AcDbEntity
  8
Layer_1
 62
1
100
AcDbSpline
 70
8
 71
3
 72
8
 73
4
 74
0
 40
0
 40
0
 40
0
 40
0
 40
1
 40
1
 40
1
 40
1
 10
53.343303
 20
228.627056
 30
0.0
 10
53.249534
 20
228.720824
 30
0.0
 10
53.196856
 20
228.848001
 30
0.0
 10
53.196856
 20
228.980609
 30
0.0
  0
LINE
  5
27e
100
AcDbEntity
  8
Layer_1
 62
1
100
AcDbLine
 10
53.196856
 20
228.980609
 30
0.0
 11
53.196856
 21
241.980609
 31
0.0
  0
SPLINE
  5
27f
100
AcDbEntity
  8
Layer_1
 62
1
100
AcDbSpline
 70
8
 71
3
 72
8
 73
4
 74
0
 40
0
 40
0
 40
0
 40
0
 40
1
 40
1
 40
1
 40
1
 10
53.196856
 20
241.980609
 30
0.0
 10
53.196856
 20
242.113217
 30
0.0
 10
53.249534
 20
242.240394
 30
0.0
 10
53.343303
 20
242.334162
 30
0.0
  0
SPLINE
  5
280
100
AcDbEntity
  8
Layer_1
 62
1
100
AcDbSpline
 70
8
 71
3
 72
8
 73
4
 74
0
 40
0
 40
0
 40
0
 40
0
 40
1
 40
1
 40
1
 40
1
 10
53.343303
 20
242.334162
 30
0.0
 10
53.437071
 20
242.427931
 30
0.0
 10
53.564248
 20
242.480609
 30
0.0
 10
53.696856
 20
242.480609
 30
0.0
  0
LINE
  5
281
100
AcDbEntity
  8
Layer_1
 62
1
100
AcDbLine
 10
53.696856
 20
242.480609
 30
0.0
 11
53.696856
 21
242.480609
 31
0.0
  0
LINE
  5
282
100
AcDbEntity
  8
Layer_1
 62
1
100
AcDbLine
 10
265.627850
 20
261.530609
 30
0.0
 11
278.627850
 21
261.530609
 31
0.0
  0
SPLINE
  5
283
100
AcDbEntity
  8
Layer_1
 62
1
100
AcDbSpline
 70
8
 71
3
 72
8
 73
4
 74
0
 40
0
 40
0
 40
0
 40
0
 40
1
 40
1
 40
1
 40
1
 10
278.627850
 20
261.530609
 30
0.0
 10
278.760458
 20
261.530609
 30
0.0
 10
278.887635
 20
261.477931
 30
0.0
 10
278.981403
 20
261.384162
 30
0.0
  0
SPLINE
  5
284
100
AcDbEntity
  8
Layer_1
 62
1
100
AcDbSpline
 70
8
 71
3
 72
8
 73
4
 74
0
 40
0
 40
0
 40
0
 40
0
 40
1
 40
1
 40
1
 40
1
 10
278.981403
 20
261.384162
 30
0.0
 10
279.075172
 20
261.290394
 30
0.0
 10
279.127850
 20
261.163217
 30
0.0
 10
279.127850
 20
261.030609
 30
0.0
  0
LINE
  5
285
100
AcDbEntity
  8
Layer_1
 62
1
100
AcDbLine
 10
279.127850
 20
261.030609
 30
0.0
 11
279.127850
 21
248.030609
 31
0.0
  0
SPLINE
  5
286
100
AcDbEntity
  8
Layer_1
 62
1
100
AcDbSpline
 70
8
 71
3
 72
8
 73
4
 74
0
 40
0
 40
0
 40
0
 40
0
 40
1
 40
1
 40
1
 40
1
 10
279.127850
 20
248.030609
 30
0.0
 10
279.127850
 20
247.898001
 30
0.0
 10
279.075172
 20
247.770824
 30
0.0
 10
278.981403
 20
247.677056
 30
0.0
  0
SPLINE
  5
287
100
AcDbEntity
  8
Layer_1
 62
1
100
AcDbSpline
 70
8
 71
3
 72
8
 73
4
 74
0
 40
0
 40
0
 40
0
 40
0
 40
1
 40
1
 40
1
 40
1
 10
278.981403
 20
247.677056
 30
0.0
 10
278.887635
 20
247.583287
 30
0.0
 10
278.760458
 20
247.530609
 30
0.0
 10
278.627850
 20
247.530609
 30
0.0
  0
LINE
  5
288
100
AcDbEntity
  8
Layer_1
 62
1
100
AcDbLine
 10
278.627850
 20
247.530609
 30
0.0
 11
265.627850
 21
247.530609
 31
0.0
  0
SPLINE
  5
289
100
AcDbEntity
  8
Layer_1
 62
1
100
AcDbSpline
 70
8
 71
3
 72
8
 73
4
 74
0
 40
0
 40
0
 40
0
 40
0
 40
1
 40
1
 40
1
 40
1
 10
265.627850
 20
247.530609
 30
0.0
 10
265.495242
 20
247.530609
 30
0.0
 10
265.368065
 20
247.583287
 30
0.0
 10
265.274297
 20
247.677056
 30
0.0
  0
SPLINE
  5
28a
100
AcDbEntity
  8
Layer_1
 62
1
100
AcDbSpline
 70
8
 71
3
 72
8
 73
4
 74
0
 40
0
 40
0
 40
0
 40
0
 40
1
 40
1
 40
1
 40
1
 10
265.274297
 20
247.677056
 30
0.0
 10
265.180528
 20
247.770824
 30
0.0
 10
265.127850
 20
247.898001
 30
0.0
 10
265.127850
 20
248.030609
 30
0.0
  0
LINE
  5
28b
100
AcDbEntity
  8
Layer_1
 62
1
100
AcDbLine
 10
265.127850
 20
248.030609
 30
0.0
 11
265.127850
 21
261.030609
 31
0.0
  0
SPLINE
  5
28c
100
AcDbEntity
  8
Layer_1
 62
1
100
AcDbSpline
 70
8
 71
3
 72
8
 73
4
 74
0
 40
0
 40
0
 40
0
 40
0
 40
1
 40
1
 40
1
 40
1
 10
265.127850
 20
261.030609
 30
0.0
 10
265.127850
 20
261.163217
 30
0.0
 10
265.180528
 20
261.290394
 30
0.0
 10
265.274297
 20
261.384162
 30
0.0
  0
SPLINE
  5
28d
100
AcDbEntity
  8
Layer_1
 62
1
100
AcDbSpline
 70
8
 71
3
 72
8
 73
4
 74
0
 40
0
 40
0
 40
0
 40
0
 40
1
 40
1
 40
1
 40
1
 10
265.274297
 20
261.384162
 30
0.0
 10
265.368065
 20
261.477931
 30
0.0
 10
265.495242
 20
261.530609
 30
0.0
 10
265.627850
 20
261.530609
 30
0.0
  0
LINE
  5
28e
100
AcDbEntity
  8
Layer_1
 62
1
100
AcDbLine
 10
265.627850
 20
261.530609
 30
0.0
 11
265.627850
 21
261.530609
 31
0.0
  0
LINE
  5
28f
100
AcDbEntity
  8
Layer_1
 62
1
100
AcDbLine
 10
241.815860
 20
261.530609
 30
0.0
 11
254.815850
 21
261.530609
 31
0.0
  0
SPLINE
  5
290
100
AcDbEntity
  8
Layer_1
 62
1
100
AcDbSpline
 70
8
 71
3
 72
8
 73
4
 74
0
 40
0
 40
0
 40
0
 40
0
 40
1
 40
1
 40
1
 40
1
 10
254.815850
 20
261.530609
 30
0.0
 10
254.948458
 20
261.530609
 30
0.0
 10
255.075635
 20
261.477931
 30
0.0
 10
255.169403
 20
261.384162
 30
0.0
  0
SPLINE
  5
291
100
AcDbEntity
  8
Layer_1
 62
1
100
AcDbSpline
 70
8
 71
3
 72
8
 73
4
 74
0
 40
0
 40
0
 40
0
 40
0
 40
1
 40
1
 40
1
 40
1
 10
255.169403
 20
261.384162
 30
0.0
 10
255.263172
 20
261.290394
 30
0.0
 10
255.315850
 20
261.163217
 30
0.0
 10
255.315850
 20
261.030609
 30
0.0
  0
LINE
  5
292
100
AcDbEntity
  8
Layer_1
 62
1
100
AcDbLine
 10
255.315850
 20
261.030609
 30
0.0
 11
255.315850
 21
248.030609
 31
0.0
  0
SPLINE
  5
293
100
AcDbEntity
  8
Layer_1
 62
1
100
AcDbSpline
 70
8
 71
3
 72
8
 73
4
 74
0
 40
0
 40
0
 40
0
 40
0
 40
1
 40
1
 40
1
 40
1
 10
255.315850
 20
248.030609
 30
0.0
 10
255.315850
 20
247.898001
 30
0.0
 10
255.263172
 20
247.770824
 30
0.0
 10
255.169403
 20
247.677056
 30
0.0
  0
SPLINE
  5
294
100
AcDbEntity
  8
Layer_1
 62
1
100
AcDbSpline
 70
8
 71
3
 72
8
 73
4
 74
0
 40
0
 40
0
 40
0
 40
0
 40
1
 40
1
 40
1
 40
1
 10
255.169403
 20
247.677056
 30
0.0
 10
255.075635
 20
247.583287
 30
0.0
 10
254.948458
 20
247.530609
 30
0.0
 10
254.815850
 20
247.530609
 30
0.0
  0
LINE
  5
295
100
AcDbEntity
  8
Layer_1
 62
1
100
AcDbLine
 10
254.815850
 20
247.530609
 30
0.0
 11
241.815860
 21
247.530609
 31
0.0
  0
SPLINE
  5
296
100
AcDbEntity
  8
Layer_1
 62
1
100
AcDbSpline
 70
8
 71
3
 72
8
 73
4
 74
0
 40
0
 40
0
 40
0
 40
0
 40
1
 40
1
 40
1
 40
1
 10
241.815860
 20
247.530609
 30
0.0
 10
241.683252
 20
247.530609
 30
0.0
 10
241.556075
 20
247.583287
 30
0.0
 10
241.462307
 20
247.677056
 30
0.0
  0
SPLINE
  5
297
100
AcDbEntity
  8
Layer_1
 62
1
100
AcDbSpline
 70
8
 71
3
 72
8
 73
4
 74
0
 40
0
 40
0
 40
0
 40
0
 40
1
 40
1
 40
1
 40
1
 10
241.462307
 20
247.677056
 30
0.0
 10
241.368538
 20
247.770824
 30
0.0
 10
241.315860
 20
247.898001
 30
0.0
 10
241.315860
 20
248.030609
 30
0.0
  0
LINE
  5
298
100
AcDbEntity
  8
Layer_1
 62
1
100
AcDbLine
 10
241.315860
 20
248.030609
 30
0.0
 11
241.315860
 21
261.030609
 31
0.0
  0
SPLINE
  5
299
100
AcDbEntity
  8
Layer_1
 62
1
100
AcDbSpline
 70
8
 71
3
 72
8
 73
4
 74
0
 40
0
 40
0
 40
0
 40
0
 40
1
 40
1
 40
1
 40
1
 10
241.315860
 20
261.030609
 30
0.0
 10
241.315860
 20
261.163217
 30
0.0
 10
241.368538
 20
261.290394
 30
0.0
 10
241.462307
 20
261.384162
 30
0.0
  0
SPLINE
  5
29a
100
AcDbEntity
  8
Layer_1
 62
1
100
AcDbSpline
 70
8
 71
3
 72
8
 73
4
 74
0
 40
0
 40
0
 40
0
 40
0
 40
1
 40
1
 40
1
 40
1
 10
241.462307
 20
261.384162
 30
0.0
 10
241.556075
 20
261.477931
 30
0.0
 10
241.683252
 20
261.530609
 30
0.0
 10
241.815860
 20
261.530609
 30
0.0
  0
LINE
  5
29b
100
AcDbEntity
  8
Layer_1
 62
1
100
AcDbLine
 10
241.815860
 20
261.530609
 30
0.0
 11
241.815860
 21
261.530609
 31
0.0
  0
LINE
  5
29c
100
AcDbEntity
  8
Layer_1
 62
1
100
AcDbLine
 10
222.765860
 20
261.530609
 30
0.0
 11
235.765860
 21
261.530609
 31
0.0
  0
SPLINE
  5
29d
100
AcDbEntity
  8
Layer_1
 62
1
100
AcDbSpline
 70
8
 71
3
 72
8
 73
4
 74
0
 40
0
 40
0
 40
0
 40
0
 40
1
 40
1
 40
1
 40
1
 10
235.765860
 20
261.530609
 30
0.0
 10
235.898468
 20
261.530609
 30
0.0
 10
236.025645
 20
261.477931
 30
0.0
 10
236.119413
 20
261.384162
 30
0.0
  0
SPLINE
  5
29e
100
AcDbEntity
  8
Layer_1
 62
1
100
AcDbSpline
 70
8
 71
3
 72
8
 73
4
 74
0
 40
0
 40
0
 40
0
 40
0
 40
1
 40
1
 40
1
 40
1
 10
236.119413
 20
261.384162
 30
0.0
 10
236.213182
 20
261.290394
 30
0.0
 10
236.265860
 20
261.163217
 30
0.0
 10
236.265860
 20
261.030609
 30
0.0
  0
LINE
  5
29f
100
AcDbEntity
  8
Layer_1
 62
1
100
AcDbLine
 10
236.265860
 20
261.030609
 30
0.0
 11
236.265860
 21
248.030609
 31
0.0
  0
SPLINE
  5
2a0
100
AcDbEntity
  8
Layer_1
 62
1
100
AcDbSpline
 70
8
 71
3
 72
8
 73
4
 74
0
 40
0
 40
0
 40
0
 40
0
 40
1
 40
1
 40
1
 40
1
 10
236.265860
 20
248.030609
 30
0.0
 10
236.265860
 20
247.898001
 30
0.0
 10
236.213182
 20
247.770824
 30
0.0
 10
236.119413
 20
247.677056
 30
0.0
  0
SPLINE
  5
2a1
100
AcDbEntity
  8
Layer_1
 62
1
100
AcDbSpline
 70
8
 71
3
 72
8
 73
4
 74
0
 40
0
 40
0
 40
0
 40
0
 40
1
 40
1
 40
1
 40
1
 10
236.119413
 20
247.677056
 30
0.0
 10
236.025645
 20
247.583287
 30
0.0
 10
235.898468
 20
247.530609
 30
0.0
 10
235.765860
 20
247.530609
 30
0.0
  0
LINE
  5
2a2
100
AcDbEntity
  8
Layer_1
 62
1
100
AcDbLine
 10
235.765860
 20
247.530609
 30
0.0
 11
222.765860
 21
247.530609
 31
0.0
  0
SPLINE
  5
2a3
100
AcDbEntity
  8
Layer_1
 62
1
100
AcDbSpline
 70
8
 71
3
 72
8
 73
4
 74
0
 40
0
 40
0
 40
0
 40
0
 40
1
 40
1
 40
1
 40
1
 10
222.765860
 20
247.530609
 30
0.0
 10
222.633252
 20
247.530609
 30
0.0
 10
222.506075
 20
247.583287
 30
0.0
 10
222.412307
 20
247.677056
 30
0.0
  0
SPLINE
  5
2a4
100
AcDbEntity
  8
Layer_1
 62
1
100
AcDbSpline
 70
8
 71
3
 72
8
 73
4
 74
0
 40
0
 40
0
 40
0
 40
0
 40
1
 40
1
 40
1
 40
1
 10
222.412307
 20
247.677056
 30
0.0
 10
222.318538
 20
247.770824
 30
0.0
 10
222.265860
 20
247.898001
 30
0.0
 10
222.265860
 20
248.030609
 30
0.0
  0
LINE
  5
2a5
100
AcDbEntity
  8
Layer_1
 62
1
100
AcDbLine
 10
222.265860
 20
248.030609
 30
0.0
 11
222.265860
 21
261.030609
 31
0.0
  0
SPLINE
  5
2a6
100
AcDbEntity
  8
Layer_1
 62
1
100
AcDbSpline
 70
8
 71
3
 72
8
 73
4
 74
0
 40
0
 40
0
 40
0
 40
0
 40
1
 40
1
 40
1
 40
1
 10
222.265860
 20
261.030609
 30
0.0
 10
222.265860
 20
261.163217
 30
0.0
 10
222.318538
 20
261.290394
 30
0.0
 10
222.412307
 20
261.384162
 30
0.0
  0
SPLINE
  5
2a7
100
AcDbEntity
  8
Layer_1
 62
1
100
AcDbSpline
 70
8
 71
3
 72
8
 73
4
 74
0
 40
0
 40
0
 40
0
 40
0
 40
1
 40
1
 40
1
 40
1
 10
222.412307
 20
261.384162
 30
0.0
 10
222.506075
 20
261.477931
 30
0.0
 10
222.633252
 20
261.530609
 30
0.0
 10
222.765860
 20
261.530609
 30
0.0
  0
LINE
  5
2a8
100
AcDbEntity
  8
Layer_1
 62
1
100
AcDbLine
 10
222.765860
 20
261.530609
 30
0.0
 11
222.765860
 21
261.530609
 31
0.0
  0
LINE
  5
2a9
100
AcDbEntity
  8
Layer_1
 62
1
100
AcDbLine
 10
203.715860
 20
261.530609
 30
0.0
 11
216.715860
 21
261.530609
 31
0.0
  0
SPLINE
  5
2aa
100
AcDbEntity
  8
Layer_1
 62
1
100
AcDbSpline
 70
8
 71
3
 72
8
 73
4
 74
0
 40
0
 40
0
 40
0
 40
0
 40
1
 40
1
 40
1
 40
1
 10
216.715860
 20
261.530609
 30
0.0
 10
216.848468
 20
261.530609
 30
0.0
 10
216.975645
 20
261.477931
 30
0.0
 10
217.069413
 20
261.384162
 30
0.0
  0
SPLINE
  5
2ab
100
AcDbEntity
  8
Layer_1
 62
1
100
AcDbSpline
 70
8
 71
3
 72
8
 73
4
 74
0
 40
0
 40
0
 40
0
 40
0
 40
1
 40
1
 40
1
 40
1
 10
217.069413
 20
261.384162
 30
0.0
 10
217.163182
 20
261.290394
 30
0.0
 10
217.215860
 20
261.163217
 30
0.0
 10
217.215860
 20
261.030609
 30
0.0
  0
LINE
  5
2ac
100
AcDbEntity
  8
Layer_1
 62
1
100
AcDbLine
 10
217.215860
 20
261.030609
 30
0.0
 11
217.215860
 21
248.030609
 31
0.0
  0
SPLINE
  5
2ad
100
AcDbEntity
  8
Layer_1
 62
1
100
AcDbSpline
 70
8
 71
3
 72
8
 73
4
 74
0
 40
0
 40
0
 40
0
 40
0
 40
1
 40
1
 40
1
 40
1
 10
217.215860
 20
248.030609
 30
0.0
 10
217.215860
 20
247.898001
 30
0.0
 10
217.163182
 20
247.770824
 30
0.0
 10
217.069413
 20
247.677056
 30
0.0
  0
SPLINE
  5
2ae
100
AcDbEntity
  8
Layer_1
 62
1
100
AcDbSpline
 70
8
 71
3
 72
8
 73
4
 74
0
 40
0
 40
0
 40
0
 40
0
 40
1
 40
1
 40
1
 40
1
 10
217.069413
 20
247.677056
 30
0.0
 10
216.975645
 20
247.583287
 30
0.0
 10
216.848468
 20
247.530609
 30
0.0
 10
216.715860
 20
247.530609
 30
0.0
  0
LINE
  5
2af
100
AcDbEntity
  8
Layer_1
 62
1
100
AcDbLine
 10
216.715860
 20
247.530609
 30
0.0
 11
203.715860
 21
247.530609
 31
0.0
  0
SPLINE
  5
2b0
100
AcDbEntity
  8
Layer_1
 62
1
100
AcDbSpline
 70
8
 71
3
 72
8
 73
4
 74
0
 40
0
 40
0
 40
0
 40
0
 40
1
 40
1
 40
1
 40
1
 10
203.715860
 20
247.530609
 30
0.0
 10
203.583252
 20
247.530609
 30
0.0
 10
203.456075
 20
247.583287
 30
0.0
 10
203.362307
 20
247.677056
 30
0.0
  0
SPLINE
  5
2b1
100
AcDbEntity
  8
Layer_1
 62
1
100
AcDbSpline
 70
8
 71
3
 72
8
 73
4
 74
0
 40
0
 40
0
 40
0
 40
0
 40
1
 40
1
 40
1
 40
1
 10
203.362307
 20
247.677056
 30
0.0
 10
203.268538
 20
247.770824
 30
0.0
 10
203.215860
 20
247.898001
 30
0.0
 10
203.215860
 20
248.030609
 30
0.0
  0
LINE
  5
2b2
100
AcDbEntity
  8
Layer_1
 62
1
100
AcDbLine
 10
203.215860
 20
248.030609
 30
0.0
 11
203.215860
 21
261.030609
 31
0.0
  0
SPLINE
  5
2b3
100
AcDbEntity
  8
Layer_1
 62
1
100
AcDbSpline
 70
8
 71
3
 72
8
 73
4
 74
0
 40
0
 40
0
 40
0
 40
0
 40
1
 40
1
 40
1
 40
1
 10
203.215860
 20
261.030609
 30
0.0
 10
203.215860
 20
261.163217
 30
0.0
 10
203.268538
 20
261.290394
 30
0.0
 10
203.362307
 20
261.384162
 30
0.0
  0
SPLINE
  5
2b4
100
AcDbEntity
  8
Layer_1
 62
1
100
AcDbSpline
 70
8
 71
3
 72
8
 73
4
 74
0
 40
0
 40
0
 40
0
 40
0
 40
1
 40
1
 40
1
 40
1
 10
203.362307
 20
261.384162
 30
0.0
 10
203.456075
 20
261.477931
 30
0.0
 10
203.583252
 20
261.530609
 30
0.0
 10
203.715860
 20
261.530609
 30
0.0
  0
LINE
  5
2b5
100
AcDbEntity
  8
Layer_1
 62
1
100
AcDbLine
 10
203.715860
 20
261.530609
 30
0.0
 11
203.715860
 21
261.530609
 31
0.0
  0
LINE
  5
2b6
100
AcDbEntity
  8
Layer_1
 62
1
100
AcDbLine
 10
184.665860
 20
261.530609
 30
0.0
 11
197.665860
 21
261.530609
 31
0.0
  0
SPLINE
  5
2b7
100
AcDbEntity
  8
Layer_1
 62
1
100
AcDbSpline
 70
8
 71
3
 72
8
 73
4
 74
0
 40
0
 40
0
 40
0
 40
0
 40
1
 40
1
 40
1
 40
1
 10
197.665860
 20
261.530609
 30
0.0
 10
197.798468
 20
261.530609
 30
0.0
 10
197.925645
 20
261.477931
 30
0.0
 10
198.019413
 20
261.384162
 30
0.0
  0
SPLINE
  5
2b8
100
AcDbEntity
  8
Layer_1
 62
1
100
AcDbSpline
 70
8
 71
3
 72
8
 73
4
 74
0
 40
0
 40
0
 40
0
 40
0
 40
1
 40
1
 40
1
 40
1
 10
198.019413
 20
261.384162
 30
0.0
 10
198.113182
 20
261.290394
 30
0.0
 10
198.165860
 20
261.163217
 30
0.0
 10
198.165860
 20
261.030609
 30
0.0
  0
LINE
  5
2b9
100
AcDbEntity
  8
Layer_1
 62
1
100
AcDbLine
 10
198.165860
 20
261.030609
 30
0.0
 11
198.165860
 21
248.030609
 31
0.0
  0
SPLINE
  5
2ba
100
AcDbEntity
  8
Layer_1
 62
1
100
AcDbSpline
 70
8
 71
3
 72
8
 73
4
 74
0
 40
0
 40
0
 40
0
 40
0
 40
1
 40
1
 40
1
 40
1
 10
198.165860
 20
248.030609
 30
0.0
 10
198.165860
 20
247.898001
 30
0.0
 10
198.113182
 20
247.770824
 30
0.0
 10
198.019413
 20
247.677056
 30
0.0
  0
SPLINE
  5
2bb
100
AcDbEntity
  8
Layer_1
 62
1
100
AcDbSpline
 70
8
 71
3
 72
8
 73
4
 74
0
 40
0
 40
0
 40
0
 40
0
 40
1
 40
1
 40
1
 40
1
 10
198.019413
 20
247.677056
 30
0.0
 10
197.925645
 20
247.583287
 30
0.0
 10
197.798468
 20
247.530609
 30
0.0
 10
197.665860
 20
247.530609
 30
0.0
  0
LINE
  5
2bc
100
AcDbEntity
  8
Layer_1
 62
1
100
AcDbLine
 10
197.665860
 20
247.530609
 30
0.0
 11
184.665860
 21
247.530609
 31
0.0
  0
SPLINE
  5
2bd
100
AcDbEntity
  8
Layer_1
 62
1
100
AcDbSpline
 70
8
 71
3
 72
8
 73
4
 74
0
 40
0
 40
0
 40
0
 40
0
 40
1
 40
1
 40
1
 40
1
 10
184.665860
 20
247.530609
 30
0.0
 10
184.533252
 20
247.530609
 30
0.0
 10
184.406075
 20
247.583287
 30
0.0
 10
184.312307
 20
247.677056
 30
0.0
  0
SPLINE
  5
2be
100
AcDbEntity
  8
Layer_1
 62
1
100
AcDbSpline
 70
8
 71
3
 72
8
 73
4
 74
0
 40
0
 40
0
 40
0
 40
0
 40
1
 40
1
 40
1
 40
1
 10
184.312307
 20
247.677056
 30
0.0
 10
184.218538
 20
247.770824
 30
0.0
 10
184.165860
 20
247.898001
 30
0.0
 10
184.165860
 20
248.030609
 30
0.0
  0
LINE
  5
2bf
100
AcDbEntity
  8
Layer_1
 62
1
100
AcDbLine
 10
184.165860
 20
248.030609
 30
0.0
 11
184.165860
 21
261.030609
 31
0.0
  0
SPLINE
  5
2c0
100
AcDbEntity
  8
Layer_1
 62
1
100
AcDbSpline
 70
8
 71
3
 72
8
 73
4
 74
0
 40
0
 40
0
 40
0
 40
0
 40
1
 40
1
 40
1
 40
1
 10
184.165860
 20
261.030609
 30
0.0
 10
184.165860
 20
261.163217
 30
0.0
 10
184.218538
 20
261.290394
 30
0.0
 10
184.312307
 20
261.384162
 30
0.0
  0
SPLINE
  5
2c1
100
AcDbEntity
  8
Layer_1
 62
1
100
AcDbSpline
 70
8
 71
3
 72
8
 73
4
 74
0
 40
0
 40
0
 40
0
 40
0
 40
1
 40
1
 40
1
 40
1
 10
184.312307
 20
261.384162
 30
0.0
 10
184.406075
 20
261.477931
 30
0.0
 10
184.533252
 20
261.530609
 30
0.0
 10
184.665860
 20
261.530609
 30
0.0
  0
LINE
  5
2c2
100
AcDbEntity
  8
Layer_1
 62
1
100
AcDbLine
 10
184.665860
 20
261.530609
 30
0.0
 11
184.665860
 21
261.530609
 31
0.0
  0
LINE
  5
2c3
100
AcDbEntity
  8
Layer_1
 62
1
100
AcDbLine
 10
165.615860
 20
261.530609
 30
0.0
 11
178.615860
 21
261.530609
 31
0.0
  0
SPLINE
  5
2c4
100
AcDbEntity
  8
Layer_1
 62
1
100
AcDbSpline
 70
8
 71
3
 72
8
 73
4
 74
0
 40
0
 40
0
 40
0
 40
0
 40
1
 40
1
 40
1
 40
1
 10
178.615860
 20
261.530609
 30
0.0
 10
178.748468
 20
261.530609
 30
0.0
 10
178.875645
 20
261.477931
 30
0.0
 10
178.969413
 20
261.384162
 30
0.0
  0
SPLINE
  5
2c5
100
AcDbEntity
  8
Layer_1
 62
1
100
AcDbSpline
 70
8
 71
3
 72
8
 73
4
 74
0
 40
0
 40
0
 40
0
 40
0
 40
1
 40
1
 40
1
 40
1
 10
178.969413
 20
261.384162
 30
0.0
 10
179.063182
 20
261.290394
 30
0.0
 10
179.115860
 20
261.163217
 30
0.0
 10
179.115860
 20
261.030609
 30
0.0
  0
LINE
  5
2c6
100
AcDbEntity
  8
Layer_1
 62
1
100
AcDbLine
 10
179.115860
 20
261.030609
 30
0.0
 11
179.115860
 21
248.030609
 31
0.0
  0
SPLINE
  5
2c7
100
AcDbEntity
  8
Layer_1
 62
1
100
AcDbSpline
 70
8
 71
3
 72
8
 73
4
 74
0
 40
0
 40
0
 40
0
 40
0
 40
1
 40
1
 40
1
 40
1
 10
179.115860
 20
248.030609
 30
0.0
 10
179.115860
 20
247.898001
 30
0.0
 10
179.063182
 20
247.770824
 30
0.0
 10
178.969413
 20
247.677056
 30
0.0
  0
SPLINE
  5
2c8
100
AcDbEntity
  8
Layer_1
 62
1
100
AcDbSpline
 70
8
 71
3
 72
8
 73
4
 74
0
 40
0
 40
0
 40
0
 40
0
 40
1
 40
1
 40
1
 40
1
 10
178.969413
 20
247.677056
 30
0.0
 10
178.875645
 20
247.583287
 30
0.0
 10
178.748468
 20
247.530609
 30
0.0
 10
178.615860
 20
247.530609
 30
0.0
  0
LINE
  5
2c9
100
AcDbEntity
  8
Layer_1
 62
1
100
AcDbLine
 10
178.615860
 20
247.530609
 30
0.0
 11
165.615860
 21
247.530609
 31
0.0
  0
SPLINE
  5
2ca
100
AcDbEntity
  8
Layer_1
 62
1
100
AcDbSpline
 70
8
 71
3
 72
8
 73
4
 74
0
 40
0
 40
0
 40
0
 40
0
 40
1
 40
1
 40
1
 40
1
 10
165.615860
 20
247.530609
 30
0.0
 10
165.483252
 20
247.530609
 30
0.0
 10
165.356075
 20
247.583287
 30
0.0
 10
165.262307
 20
247.677056
 30
0.0
  0
SPLINE
  5
2cb
100
AcDbEntity
  8
Layer_1
 62
1
100
AcDbSpline
 70
8
 71
3
 72
8
 73
4
 74
0
 40
0
 40
0
 40
0
 40
0
 40
1
 40
1
 40
1
 40
1
 10
165.262307
 20
247.677056
 30
0.0
 10
165.168538
 20
247.770824
 30
0.0
 10
165.115860
 20
247.898001
 30
0.0
 10
165.115860
 20
248.030609
 30
0.0
  0
LINE
  5
2cc
100
AcDbEntity
  8
Layer_1
 62
1
100
AcDbLine
 10
165.115860
 20
248.030609
 30
0.0
 11
165.115860
 21
261.030609
 31
0.0
  0
SPLINE
  5
2cd
100
AcDbEntity
  8
Layer_1
 62
1
100
AcDbSpline
 70
8
 71
3
 72
8
 73
4
 74
0
 40
0
 40
0
 40
0
 40
0
 40
1
 40
1
 40
1
 40
1
 10
165.115860
 20
261.030609
 30
0.0
 10
165.115860
 20
261.163217
 30
0.0
 10
165.168538
 20
261.290394
 30
0.0
 10
165.262307
 20
261.384162
 30
0.0
  0
SPLINE
  5
2ce
100
AcDbEntity
  8
Layer_1
 62
1
100
AcDbSpline
 70
8
 71
3
 72
8
 73
4
 74
0
 40
0
 40
0
 40
0
 40
0
 40
1
 40
1
 40
1
 40
1
 10
165.262307
 20
261.384162
 30
0.0
 10
165.356075
 20
261.477931
 30
0.0
 10
165.483252
 20
261.530609
 30
0.0
 10
165.615860
 20
261.530609
 30
0.0
  0
LINE
  5
2cf
100
AcDbEntity
  8
Layer_1
 62
1
100
AcDbLine
 10
165.615860
 20
261.530609
 30
0.0
 11
165.615860
 21
261.530609
 31
0.0
  0
LINE
  5
2d0
100
AcDbEntity
  8
Layer_1
 62
1
100
AcDbLine
 10
146.565860
 20
261.530609
 30
0.0
 11
159.565860
 21
261.530609
 31
0.0
  0
SPLINE
  5
2d1
100
AcDbEntity
  8
Layer_1
 62
1
100
AcDbSpline
 70
8
 71
3
 72
8
 73
4
 74
0
 40
0
 40
0
 40
0
 40
0
 40
1
 40
1
 40
1
 40
1
 10
159.565860
 20
261.530609
 30
0.0
 10
159.698468
 20
261.530609
 30
0.0
 10
159.825645
 20
261.477931
 30
0.0
 10
159.919413
 20
261.384162
 30
0.0
  0
SPLINE
  5
2d2
100
AcDbEntity
  8
Layer_1
 62
1
100
AcDbSpline
 70
8
 71
3
 72
8
 73
4
 74
0
 40
0
 40
0
 40
0
 40
0
 40
1
 40
1
 40
1
 40
1
 10
159.919413
 20
261.384162
 30
0.0
 10
160.013182
 20
261.290394
 30
0.0
 10
160.065860
 20
261.163217
 30
0.0
 10
160.065860
 20
261.030609
 30
0.0
  0
LINE
  5
2d3
100
AcDbEntity
  8
Layer_1
 62
1
100
AcDbLine
 10
160.065860
 20
261.030609
 30
0.0
 11
160.065860
 21
248.030609
 31
0.0
  0
SPLINE
  5
2d4
100
AcDbEntity
  8
Layer_1
 62
1
100
AcDbSpline
 70
8
 71
3
 72
8
 73
4
 74
0
 40
0
 40
0
 40
0
 40
0
 40
1
 40
1
 40
1
 40
1
 10
160.065860
 20
248.030609
 30
0.0
 10
160.065860
 20
247.898001
 30
0.0
 10
160.013182
 20
247.770824
 30
0.0
 10
159.919413
 20
247.677056
 30
0.0
  0
SPLINE
  5
2d5
100
AcDbEntity
  8
Layer_1
 62
1
100
AcDbSpline
 70
8
 71
3
 72
8
 73
4
 74
0
 40
0
 40
0
 40
0
 40
0
 40
1
 40
1
 40
1
 40
1
 10
159.919413
 20
247.677056
 30
0.0
 10
159.825645
 20
247.583287
 30
0.0
 10
159.698468
 20
247.530609
 30
0.0
 10
159.565860
 20
247.530609
 30
0.0
  0
LINE
  5
2d6
100
AcDbEntity
  8
Layer_1
 62
1
100
AcDbLine
 10
159.565860
 20
247.530609
 30
0.0
 11
146.565860
 21
247.530609
 31
0.0
  0
SPLINE
  5
2d7
100
AcDbEntity
  8
Layer_1
 62
1
100
AcDbSpline
 70
8
 71
3
 72
8
 73
4
 74
0
 40
0
 40
0
 40
0
 40
0
 40
1
 40
1
 40
1
 40
1
 10
146.565860
 20
247.530609
 30
0.0
 10
146.433252
 20
247.530609
 30
0.0
 10
146.306075
 20
247.583287
 30
0.0
 10
146.212307
 20
247.677056
 30
0.0
  0
SPLINE
  5
2d8
100
AcDbEntity
  8
Layer_1
 62
1
100
AcDbSpline
 70
8
 71
3
 72
8
 73
4
 74
0
 40
0
 40
0
 40
0
 40
0
 40
1
 40
1
 40
1
 40
1
 10
146.212307
 20
247.677056
 30
0.0
 10
146.118538
 20
247.770824
 30
0.0
 10
146.065860
 20
247.898001
 30
0.0
 10
146.065860
 20
248.030609
 30
0.0
  0
LINE
  5
2d9
100
AcDbEntity
  8
Layer_1
 62
1
100
AcDbLine
 10
146.065860
 20
248.030609
 30
0.0
 11
146.065860
 21
261.030609
 31
0.0
  0
SPLINE
  5
2da
100
AcDbEntity
  8
Layer_1
 62
1
100
AcDbSpline
 70
8
 71
3
 72
8
 73
4
 74
0
 40
0
 40
0
 40
0
 40
0
 40
1
 40
1
 40
1
 40
1
 10
146.065860
 20
261.030609
 30
0.0
 10
146.065860
 20
261.163217
 30
0.0
 10
146.118538
 20
261.290394
 30
0.0
 10
146.212307
 20
261.384162
 30
0.0
  0
SPLINE
  5
2db
100
AcDbEntity
  8
Layer_1
 62
1
100
AcDbSpline
 70
8
 71
3
 72
8
 73
4
 74
0
 40
0
 40
0
 40
0
 40
0
 40
1
 40
1
 40
1
 40
1
 10
146.212307
 20
261.384162
 30
0.0
 10
146.306075
 20
261.477931
 30
0.0
 10
146.433252
 20
261.530609
 30
0.0
 10
146.565860
 20
261.530609
 30
0.0
  0
LINE
  5
2dc
100
AcDbEntity
  8
Layer_1
 62
1
100
AcDbLine
 10
146.565860
 20
261.530609
 30
0.0
 11
146.565860
 21
261.530609
 31
0.0
  0
LINE
  5
2dd
100
AcDbEntity
  8
Layer_1
 62
1
100
AcDbLine
 10
127.515860
 20
261.530609
 30
0.0
 11
140.515860
 21
261.530609
 31
0.0
  0
SPLINE
  5
2de
100
AcDbEntity
  8
Layer_1
 62
1
100
AcDbSpline
 70
8
 71
3
 72
8
 73
4
 74
0
 40
0
 40
0
 40
0
 40
0
 40
1
 40
1
 40
1
 40
1
 10
140.515860
 20
261.530609
 30
0.0
 10
140.648468
 20
261.530609
 30
0.0
 10
140.775645
 20
261.477931
 30
0.0
 10
140.869413
 20
261.384162
 30
0.0
  0
SPLINE
  5
2df
100
AcDbEntity
  8
Layer_1
 62
1
100
AcDbSpline
 70
8
 71
3
 72
8
 73
4
 74
0
 40
0
 40
0
 40
0
 40
0
 40
1
 40
1
 40
1
 40
1
 10
140.869413
 20
261.384162
 30
0.0
 10
140.963182
 20
261.290394
 30
0.0
 10
141.015860
 20
261.163217
 30
0.0
 10
141.015860
 20
261.030609
 30
0.0
  0
LINE
  5
2e0
100
AcDbEntity
  8
Layer_1
 62
1
100
AcDbLine
 10
141.015860
 20
261.030609
 30
0.0
 11
141.015860
 21
248.030609
 31
0.0
  0
SPLINE
  5
2e1
100
AcDbEntity
  8
Layer_1
 62
1
100
AcDbSpline
 70
8
 71
3
 72
8
 73
4
 74
0
 40
0
 40
0
 40
0
 40
0
 40
1
 40
1
 40
1
 40
1
 10
141.015860
 20
248.030609
 30
0.0
 10
141.015860
 20
247.898001
 30
0.0
 10
140.963182
 20
247.770824
 30
0.0
 10
140.869413
 20
247.677056
 30
0.0
  0
SPLINE
  5
2e2
100
AcDbEntity
  8
Layer_1
 62
1
100
AcDbSpline
 70
8
 71
3
 72
8
 73
4
 74
0
 40
0
 40
0
 40
0
 40
0
 40
1
 40
1
 40
1
 40
1
 10
140.869413
 20
247.677056
 30
0.0
 10
140.775645
 20
247.583287
 30
0.0
 10
140.648468
 20
247.530609
 30
0.0
 10
140.515860
 20
247.530609
 30
0.0
  0
LINE
  5
2e3
100
AcDbEntity
  8
Layer_1
 62
1
100
AcDbLine
 10
140.515860
 20
247.530609
 30
0.0
 11
127.515860
 21
247.530609
 31
0.0
  0
SPLINE
  5
2e4
100
AcDbEntity
  8
Layer_1
 62
1
100
AcDbSpline
 70
8
 71
3
 72
8
 73
4
 74
0
 40
0
 40
0
 40
0
 40
0
 40
1
 40
1
 40
1
 40
1
 10
127.515860
 20
247.530609
 30
0.0
 10
127.383252
 20
247.530609
 30
0.0
 10
127.256075
 20
247.583287
 30
0.0
 10
127.162307
 20
247.677056
 30
0.0
  0
SPLINE
  5
2e5
100
AcDbEntity
  8
Layer_1
 62
1
100
AcDbSpline
 70
8
 71
3
 72
8
 73
4
 74
0
 40
0
 40
0
 40
0
 40
0
 40
1
 40
1
 40
1
 40
1
 10
127.162307
 20
247.677056
 30
0.0
 10
127.068538
 20
247.770824
 30
0.0
 10
127.015860
 20
247.898001
 30
0.0
 10
127.015860
 20
248.030609
 30
0.0
  0
LINE
  5
2e6
100
AcDbEntity
  8
Layer_1
 62
1
100
AcDbLine
 10
127.015860
 20
248.030609
 30
0.0
 11
127.015860
 21
261.030609
 31
0.0
  0
SPLINE
  5
2e7
100
AcDbEntity
  8
Layer_1
 62
1
100
AcDbSpline
 70
8
 71
3
 72
8
 73
4
 74
0
 40
0
 40
0
 40
0
 40
0
 40
1
 40
1
 40
1
 40
1
 10
127.015860
 20
261.030609
 30
0.0
 10
127.015860
 20
261.163217
 30
0.0
 10
127.068538
 20
261.290394
 30
0.0
 10
127.162307
 20
261.384162
 30
0.0
  0
SPLINE
  5
2e8
100
AcDbEntity
  8
Layer_1
 62
1
100
AcDbSpline
 70
8
 71
3
 72
8
 73
4
 74
0
 40
0
 40
0
 40
0
 40
0
 40
1
 40
1
 40
1
 40
1
 10
127.162307
 20
261.384162
 30
0.0
 10
127.256075
 20
261.477931
 30
0.0
 10
127.383252
 20
261.530609
 30
0.0
 10
127.515860
 20
261.530609
 30
0.0
  0
LINE
  5
2e9
100
AcDbEntity
  8
Layer_1
 62
1
100
AcDbLine
 10
127.515860
 20
261.530609
 30
0.0
 11
127.515860
 21
261.530609
 31
0.0
  0
LINE
  5
2ea
100
AcDbEntity
  8
Layer_1
 62
1
100
AcDbLine
 10
108.465860
 20
261.530609
 30
0.0
 11
121.465860
 21
261.530609
 31
0.0
  0
SPLINE
  5
2eb
100
AcDbEntity
  8
Layer_1
 62
1
100
AcDbSpline
 70
8
 71
3
 72
8
 73
4
 74
0
 40
0
 40
0
 40
0
 40
0
 40
1
 40
1
 40
1
 40
1
 10
121.465860
 20
261.530609
 30
0.0
 10
121.598468
 20
261.530609
 30
0.0
 10
121.725645
 20
261.477931
 30
0.0
 10
121.819413
 20
261.384162
 30
0.0
  0
SPLINE
  5
2ec
100
AcDbEntity
  8
Layer_1
 62
1
100
AcDbSpline
 70
8
 71
3
 72
8
 73
4
 74
0
 40
0
 40
0
 40
0
 40
0
 40
1
 40
1
 40
1
 40
1
 10
121.819413
 20
261.384162
 30
0.0
 10
121.913182
 20
261.290394
 30
0.0
 10
121.965860
 20
261.163217
 30
0.0
 10
121.965860
 20
261.030609
 30
0.0
  0
LINE
  5
2ed
100
AcDbEntity
  8
Layer_1
 62
1
100
AcDbLine
 10
121.965860
 20
261.030609
 30
0.0
 11
121.965860
 21
248.030609
 31
0.0
  0
SPLINE
  5
2ee
100
AcDbEntity
  8
Layer_1
 62
1
100
AcDbSpline
 70
8
 71
3
 72
8
 73
4
 74
0
 40
0
 40
0
 40
0
 40
0
 40
1
 40
1
 40
1
 40
1
 10
121.965860
 20
248.030609
 30
0.0
 10
121.965860
 20
247.898001
 30
0.0
 10
121.913182
 20
247.770824
 30
0.0
 10
121.819413
 20
247.677056
 30
0.0
  0
SPLINE
  5
2ef
100
AcDbEntity
  8
Layer_1
 62
1
100
AcDbSpline
 70
8
 71
3
 72
8
 73
4
 74
0
 40
0
 40
0
 40
0
 40
0
 40
1
 40
1
 40
1
 40
1
 10
121.819413
 20
247.677056
 30
0.0
 10
121.725645
 20
247.583287
 30
0.0
 10
121.598468
 20
247.530609
 30
0.0
 10
121.465860
 20
247.530609
 30
0.0
  0
LINE
  5
2f0
100
AcDbEntity
  8
Layer_1
 62
1
100
AcDbLine
 10
121.465860
 20
247.530609
 30
0.0
 11
108.465860
 21
247.530609
 31
0.0
  0
SPLINE
  5
2f1
100
AcDbEntity
  8
Layer_1
 62
1
100
AcDbSpline
 70
8
 71
3
 72
8
 73
4
 74
0
 40
0
 40
0
 40
0
 40
0
 40
1
 40
1
 40
1
 40
1
 10
108.465860
 20
247.530609
 30
0.0
 10
108.333252
 20
247.530609
 30
0.0
 10
108.206075
 20
247.583287
 30
0.0
 10
108.112307
 20
247.677056
 30
0.0
  0
SPLINE
  5
2f2
100
AcDbEntity
  8
Layer_1
 62
1
100
AcDbSpline
 70
8
 71
3
 72
8
 73
4
 74
0
 40
0
 40
0
 40
0
 40
0
 40
1
 40
1
 40
1
 40
1
 10
108.112307
 20
247.677056
 30
0.0
 10
108.018538
 20
247.770824
 30
0.0
 10
107.965860
 20
247.898001
 30
0.0
 10
107.965860
 20
248.030609
 30
0.0
  0
LINE
  5
2f3
100
AcDbEntity
  8
Layer_1
 62
1
100
AcDbLine
 10
107.965860
 20
248.030609
 30
0.0
 11
107.965860
 21
261.030609
 31
0.0
  0
SPLINE
  5
2f4
100
AcDbEntity
  8
Layer_1
 62
1
100
AcDbSpline
 70
8
 71
3
 72
8
 73
4
 74
0
 40
0
 40
0
 40
0
 40
0
 40
1
 40
1
 40
1
 40
1
 10
107.965860
 20
261.030609
 30
0.0
 10
107.965860
 20
261.163217
 30
0.0
 10
108.018538
 20
261.290394
 30
0.0
 10
108.112307
 20
261.384162
 30
0.0
  0
SPLINE
  5
2f5
100
AcDbEntity
  8
Layer_1
 62
1
100
AcDbSpline
 70
8
 71
3
 72
8
 73
4
 74
0
 40
0
 40
0
 40
0
 40
0
 40
1
 40
1
 40
1
 40
1
 10
108.112307
 20
261.384162
 30
0.0
 10
108.206075
 20
261.477931
 30
0.0
 10
108.333252
 20
261.530609
 30
0.0
 10
108.465860
 20
261.530609
 30
0.0
  0
LINE
  5
2f6
100
AcDbEntity
  8
Layer_1
 62
1
100
AcDbLine
 10
108.465860
 20
261.530609
 30
0.0
 11
108.465860
 21
261.530609
 31
0.0
  0
LINE
  5
2f7
100
AcDbEntity
  8
Layer_1
 62
1
100
AcDbLine
 10
89.415856
 20
261.530609
 30
0.0
 11
102.415860
 21
261.530609
 31
0.0
  0
SPLINE
  5
2f8
100
AcDbEntity
  8
Layer_1
 62
1
100
AcDbSpline
 70
8
 71
3
 72
8
 73
4
 74
0
 40
0
 40
0
 40
0
 40
0
 40
1
 40
1
 40
1
 40
1
 10
102.415860
 20
261.530609
 30
0.0
 10
102.548468
 20
261.530609
 30
0.0
 10
102.675645
 20
261.477931
 30
0.0
 10
102.769413
 20
261.384162
 30
0.0
  0
SPLINE
  5
2f9
100
AcDbEntity
  8
Layer_1
 62
1
100
AcDbSpline
 70
8
 71
3
 72
8
 73
4
 74
0
 40
0
 40
0
 40
0
 40
0
 40
1
 40
1
 40
1
 40
1
 10
102.769413
 20
261.384162
 30
0.0
 10
102.863182
 20
261.290394
 30
0.0
 10
102.915860
 20
261.163217
 30
0.0
 10
102.915860
 20
261.030609
 30
0.0
  0
LINE
  5
2fa
100
AcDbEntity
  8
Layer_1
 62
1
100
AcDbLine
 10
102.915860
 20
261.030609
 30
0.0
 11
102.915860
 21
248.030609
 31
0.0
  0
SPLINE
  5
2fb
100
AcDbEntity
  8
Layer_1
 62
1
100
AcDbSpline
 70
8
 71
3
 72
8
 73
4
 74
0
 40
0
 40
0
 40
0
 40
0
 40
1
 40
1
 40
1
 40
1
 10
102.915860
 20
248.030609
 30
0.0
 10
102.915860
 20
247.898001
 30
0.0
 10
102.863182
 20
247.770824
 30
0.0
 10
102.769413
 20
247.677056
 30
0.0
  0
SPLINE
  5
2fc
100
AcDbEntity
  8
Layer_1
 62
1
100
AcDbSpline
 70
8
 71
3
 72
8
 73
4
 74
0
 40
0
 40
0
 40
0
 40
0
 40
1
 40
1
 40
1
 40
1
 10
102.769413
 20
247.677056
 30
0.0
 10
102.675645
 20
247.583287
 30
0.0
 10
102.548468
 20
247.530609
 30
0.0
 10
102.415860
 20
247.530609
 30
0.0
  0
LINE
  5
2fd
100
AcDbEntity
  8
Layer_1
 62
1
100
AcDbLine
 10
102.415860
 20
247.530609
 30
0.0
 11
89.415856
 21
247.530609
 31
0.0
  0
SPLINE
  5
2fe
100
AcDbEntity
  8
Layer_1
 62
1
100
AcDbSpline
 70
8
 71
3
 72
8
 73
4
 74
0
 40
0
 40
0
 40
0
 40
0
 40
1
 40
1
 40
1
 40
1
 10
89.415856
 20
247.530609
 30
0.0
 10
89.283248
 20
247.530609
 30
0.0
 10
89.156071
 20
247.583287
 30
0.0
 10
89.062303
 20
247.677056
 30
0.0
  0
SPLINE
  5
2ff
100
AcDbEntity
  8
Layer_1
 62
1
100
AcDbSpline
 70
8
 71
3
 72
8
 73
4
 74
0
 40
0
 40
0
 40
0
 40
0
 40
1
 40
1
 40
1
 40
1
 10
89.062303
 20
247.677056
 30
0.0
 10
88.968534
 20
247.770824
 30
0.0
 10
88.915856
 20
247.898001
 30
0.0
 10
88.915856
 20
248.030609
 30
0.0
  0
LINE
  5
300
100
AcDbEntity
  8
Layer_1
 62
1
100
AcDbLine
 10
88.915856
 20
248.030609
 30
0.0
 11
88.915856
 21
261.030609
 31
0.0
  0
SPLINE
  5
301
100
AcDbEntity
  8
Layer_1
 62
1
100
AcDbSpline
 70
8
 71
3
 72
8
 73
4
 74
0
 40
0
 40
0
 40
0
 40
0
 40
1
 40
1
 40
1
 40
1
 10
88.915856
 20
261.030609
 30
0.0
 10
88.915856
 20
261.163217
 30
0.0
 10
88.968534
 20
261.290394
 30
0.0
 10
89.062303
 20
261.384162
 30
0.0
  0
SPLINE
  5
302
100
AcDbEntity
  8
Layer_1
 62
1
100
AcDbSpline
 70
8
 71
3
 72
8
 73
4
 74
0
 40
0
 40
0
 40
0
 40
0
 40
1
 40
1
 40
1
 40
1
 10
89.062303
 20
261.384162
 30
0.0
 10
89.156071
 20
261.477931
 30
0.0
 10
89.283248
 20
261.530609
 30
0.0
 10
89.415856
 20
261.530609
 30
0.0
  0
LINE
  5
303
100
AcDbEntity
  8
Layer_1
 62
1
100
AcDbLine
 10
89.415856
 20
261.530609
 30
0.0
 11
89.415856
 21
261.530609
 31
0.0
  0
LINE
  5
304
100
AcDbEntity
  8
Layer_1
 62
1
100
AcDbLine
 10
70.365856
 20
261.530609
 30
0.0
 11
83.365856
 21
261.530609
 31
0.0
  0
SPLINE
  5
305
100
AcDbEntity
  8
Layer_1
 62
1
100
AcDbSpline
 70
8
 71
3
 72
8
 73
4
 74
0
 40
0
 40
0
 40
0
 40
0
 40
1
 40
1
 40
1
 40
1
 10
83.365856
 20
261.530609
 30
0.0
 10
83.498464
 20
261.530609
 30
0.0
 10
83.625641
 20
261.477931
 30
0.0
 10
83.719409
 20
261.384162
 30
0.0
  0
SPLINE
  5
306
100
AcDbEntity
  8
Layer_1
 62
1
100
AcDbSpline
 70
8
 71
3
 72
8
 73
4
 74
0
 40
0
 40
0
 40
0
 40
0
 40
1
 40
1
 40
1
 40
1
 10
83.719409
 20
261.384162
 30
0.0
 10
83.813178
 20
261.290394
 30
0.0
 10
83.865856
 20
261.163217
 30
0.0
 10
83.865856
 20
261.030609
 30
0.0
  0
LINE
  5
307
100
AcDbEntity
  8
Layer_1
 62
1
100
AcDbLine
 10
83.865856
 20
261.030609
 30
0.0
 11
83.865856
 21
248.030609
 31
0.0
  0
SPLINE
  5
308
100
AcDbEntity
  8
Layer_1
 62
1
100
AcDbSpline
 70
8
 71
3
 72
8
 73
4
 74
0
 40
0
 40
0
 40
0
 40
0
 40
1
 40
1
 40
1
 40
1
 10
83.865856
 20
248.030609
 30
0.0
 10
83.865856
 20
247.898001
 30
0.0
 10
83.813178
 20
247.770824
 30
0.0
 10
83.719409
 20
247.677056
 30
0.0
  0
SPLINE
  5
309
100
AcDbEntity
  8
Layer_1
 62
1
100
AcDbSpline
 70
8
 71
3
 72
8
 73
4
 74
0
 40
0
 40
0
 40
0
 40
0
 40
1
 40
1
 40
1
 40
1
 10
83.719409
 20
247.677056
 30
0.0
 10
83.625641
 20
247.583287
 30
0.0
 10
83.498464
 20
247.530609
 30
0.0
 10
83.365856
 20
247.530609
 30
0.0
  0
LINE
  5
30a
100
AcDbEntity
  8
Layer_1
 62
1
100
AcDbLine
 10
83.365856
 20
247.530609
 30
0.0
 11
70.365856
 21
247.530609
 31
0.0
  0
SPLINE
  5
30b
100
AcDbEntity
  8
Layer_1
 62
1
100
AcDbSpline
 70
8
 71
3
 72
8
 73
4
 74
0
 40
0
 40
0
 40
0
 40
0
 40
1
 40
1
 40
1
 40
1
 10
70.365856
 20
247.530609
 30
0.0
 10
70.233248
 20
247.530609
 30
0.0
 10
70.106071
 20
247.583287
 30
0.0
 10
70.012303
 20
247.677056
 30
0.0
  0
SPLINE
  5
30c
100
AcDbEntity
  8
Layer_1
 62
1
100
AcDbSpline
 70
8
 71
3
 72
8
 73
4
 74
0
 40
0
 40
0
 40
0
 40
0
 40
1
 40
1
 40
1
 40
1
 10
70.012303
 20
247.677056
 30
0.0
 10
69.918534
 20
247.770824
 30
0.0
 10
69.865856
 20
247.898001
 30
0.0
 10
69.865856
 20
248.030609
 30
0.0
  0
LINE
  5
30d
100
AcDbEntity
  8
Layer_1
 62
1
100
AcDbLine
 10
69.865856
 20
248.030609
 30
0.0
 11
69.865856
 21
261.030609
 31
0.0
  0
SPLINE
  5
30e
100
AcDbEntity
  8
Layer_1
 62
1
100
AcDbSpline
 70
8
 71
3
 72
8
 73
4
 74
0
 40
0
 40
0
 40
0
 40
0
 40
1
 40
1
 40
1
 40
1
 10
69.865856
 20
261.030609
 30
0.0
 10
69.865856
 20
261.163217
 30
0.0
 10
69.918534
 20
261.290394
 30
0.0
 10
70.012303
 20
261.384162
 30
0.0
  0
SPLINE
  5
30f
100
AcDbEntity
  8
Layer_1
 62
1
100
AcDbSpline
 70
8
 71
3
 72
8
 73
4
 74
0
 40
0
 40
0
 40
0
 40
0
 40
1
 40
1
 40
1
 40
1
 10
70.012303
 20
261.384162
 30
0.0
 10
70.106071
 20
261.477931
 30
0.0
 10
70.233248
 20
261.530609
 30
0.0
 10
70.365856
 20
261.530609
 30
0.0
  0
LINE
  5
310
100
AcDbEntity
  8
Layer_1
 62
1
100
AcDbLine
 10
70.365856
 20
261.530609
 30
0.0
 11
70.365856
 21
261.530609
 31
0.0
  0
LINE
  5
311
100
AcDbEntity
  8
Layer_1
 62
1
100
AcDbLine
 10
48.933856
 20
261.530609
 30
0.0
 11
61.933856
 21
261.530609
 31
0.0
  0
SPLINE
  5
312
100
AcDbEntity
  8
Layer_1
 62
1
100
AcDbSpline
 70
8
 71
3
 72
8
 73
4
 74
0
 40
0
 40
0
 40
0
 40
0
 40
1
 40
1
 40
1
 40
1
 10
61.933856
 20
261.530609
 30
0.0
 10
62.066464
 20
261.530609
 30
0.0
 10
62.193641
 20
261.477931
 30
0.0
 10
62.287409
 20
261.384162
 30
0.0
  0
SPLINE
  5
313
100
AcDbEntity
  8
Layer_1
 62
1
100
AcDbSpline
 70
8
 71
3
 72
8
 73
4
 74
0
 40
0
 40
0
 40
0
 40
0
 40
1
 40
1
 40
1
 40
1
 10
62.287409
 20
261.384162
 30
0.0
 10
62.381178
 20
261.290394
 30
0.0
 10
62.433856
 20
261.163217
 30
0.0
 10
62.433856
 20
261.030609
 30
0.0
  0
LINE
  5
314
100
AcDbEntity
  8
Layer_1
 62
1
100
AcDbLine
 10
62.433856
 20
261.030609
 30
0.0
 11
62.433856
 21
248.030609
 31
0.0
  0
SPLINE
  5
315
100
AcDbEntity
  8
Layer_1
 62
1
100
AcDbSpline
 70
8
 71
3
 72
8
 73
4
 74
0
 40
0
 40
0
 40
0
 40
0
 40
1
 40
1
 40
1
 40
1
 10
62.433856
 20
248.030609
 30
0.0
 10
62.433856
 20
247.898001
 30
0.0
 10
62.381178
 20
247.770824
 30
0.0
 10
62.287409
 20
247.677056
 30
0.0
  0
SPLINE
  5
316
100
AcDbEntity
  8
Layer_1
 62
1
100
AcDbSpline
 70
8
 71
3
 72
8
 73
4
 74
0
 40
0
 40
0
 40
0
 40
0
 40
1
 40
1
 40
1
 40
1
 10
62.287409
 20
247.677056
 30
0.0
 10
62.193641
 20
247.583287
 30
0.0
 10
62.066464
 20
247.530609
 30
0.0
 10
61.933856
 20
247.530609
 30
0.0
  0
LINE
  5
317
100
AcDbEntity
  8
Layer_1
 62
1
100
AcDbLine
 10
61.933856
 20
247.530609
 30
0.0
 11
48.933856
 21
247.530609
 31
0.0
  0
SPLINE
  5
318
100
AcDbEntity
  8
Layer_1
 62
1
100
AcDbSpline
 70
8
 71
3
 72
8
 73
4
 74
0
 40
0
 40
0
 40
0
 40
0
 40
1
 40
1
 40
1
 40
1
 10
48.933856
 20
247.530609
 30
0.0
 10
48.801248
 20
247.530609
 30
0.0
 10
48.674071
 20
247.583287
 30
0.0
 10
48.580303
 20
247.677056
 30
0.0
  0
SPLINE
  5
319
100
AcDbEntity
  8
Layer_1
 62
1
100
AcDbSpline
 70
8
 71
3
 72
8
 73
4
 74
0
 40
0
 40
0
 40
0
 40
0
 40
1
 40
1
 40
1
 40
1
 10
48.580303
 20
247.677056
 30
0.0
 10
48.486534
 20
247.770824
 30
0.0
 10
48.433856
 20
247.898001
 30
0.0
 10
48.433856
 20
248.030609
 30
0.0
  0
LINE
  5
31a
100
AcDbEntity
  8
Layer_1
 62
1
100
AcDbLine
 10
48.433856
 20
248.030609
 30
0.0
 11
48.433856
 21
261.030609
 31
0.0
  0
SPLINE
  5
31b
100
AcDbEntity
  8
Layer_1
 62
1
100
AcDbSpline
 70
8
 71
3
 72
8
 73
4
 74
0
 40
0
 40
0
 40
0
 40
0
 40
1
 40
1
 40
1
 40
1
 10
48.433856
 20
261.030609
 30
0.0
 10
48.433856
 20
261.163217
 30
0.0
 10
48.486534
 20
261.290394
 30
0.0
 10
48.580303
 20
261.384162
 30
0.0
  0
SPLINE
  5
31c
100
AcDbEntity
  8
Layer_1
 62
1
100
AcDbSpline
 70
8
 71
3
 72
8
 73
4
 74
0
 40
0
 40
0
 40
0
 40
0
 40
1
 40
1
 40
1
 40
1
 10
48.580303
 20
261.384162
 30
0.0
 10
48.674071
 20
261.477931
 30
0.0
 10
48.801248
 20
261.530609
 30
0.0
 10
48.933856
 20
261.530609
 30
0.0
  0
LINE
  5
31d
100
AcDbEntity
  8
Layer_1
 62
1
100
AcDbLine
 10
48.933856
 20
261.530609
 30
0.0
 11
48.933856
 21
261.530609
 31
0.0
  0
LINE
  5
31e
100
AcDbEntity
  8
Layer_1
 62
1
100
AcDbLine
 10
65.602856
 20
280.580609
 30
0.0
 11
78.602856
 21
280.580609
 31
0.0
  0
SPLINE
  5
31f
100
AcDbEntity
  8
Layer_1
 62
1
100
AcDbSpline
 70
8
 71
3
 72
8
 73
4
 74
0
 40
0
 40
0
 40
0
 40
0
 40
1
 40
1
 40
1
 40
1
 10
78.602856
 20
280.580609
 30
0.0
 10
78.735464
 20
280.580609
 30
0.0
 10
78.862641
 20
280.527931
 30
0.0
 10
78.956409
 20
280.434162
 30
0.0
  0
SPLINE
  5
320
100
AcDbEntity
  8
Layer_1
 62
1
100
AcDbSpline
 70
8
 71
3
 72
8
 73
4
 74
0
 40
0
 40
0
 40
0
 40
0
 40
1
 40
1
 40
1
 40
1
 10
78.956409
 20
280.434162
 30
0.0
 10
79.050178
 20
280.340394
 30
0.0
 10
79.102856
 20
280.213217
 30
0.0
 10
79.102856
 20
280.080609
 30
0.0
  0
LINE
  5
321
100
AcDbEntity
  8
Layer_1
 62
1
100
AcDbLine
 10
79.102856
 20
280.080609
 30
0.0
 11
79.102856
 21
267.080609
 31
0.0
  0
SPLINE
  5
322
100
AcDbEntity
  8
Layer_1
 62
1
100
AcDbSpline
 70
8
 71
3
 72
8
 73
4
 74
0
 40
0
 40
0
 40
0
 40
0
 40
1
 40
1
 40
1
 40
1
 10
79.102856
 20
267.080609
 30
0.0
 10
79.102856
 20
266.948001
 30
0.0
 10
79.050178
 20
266.820824
 30
0.0
 10
78.956409
 20
266.727056
 30
0.0
  0
SPLINE
  5
323
100
AcDbEntity
  8
Layer_1
 62
1
100
AcDbSpline
 70
8
 71
3
 72
8
 73
4
 74
0
 40
0
 40
0
 40
0
 40
0
 40
1
 40
1
 40
1
 40
1
 10
78.956409
 20
266.727056
 30
0.0
 10
78.862641
 20
266.633287
 30
0.0
 10
78.735464
 20
266.580609
 30
0.0
 10
78.602856
 20
266.580609
 30
0.0
  0
LINE
  5
324
100
AcDbEntity
  8
Layer_1
 62
1
100
AcDbLine
 10
78.602856
 20
266.580609
 30
0.0
 11
65.602856
 21
266.580609
 31
0.0
  0
SPLINE
  5
325
100
AcDbEntity
  8
Layer_1
 62
1
100
AcDbSpline
 70
8
 71
3
 72
8
 73
4
 74
0
 40
0
 40
0
 40
0
 40
0
 40
1
 40
1
 40
1
 40
1
 10
65.602856
 20
266.580609
 30
0.0
 10
65.470248
 20
266.580609
 30
0.0
 10
65.343071
 20
266.633287
 30
0.0
 10
65.249303
 20
266.727056
 30
0.0
  0
SPLINE
  5
326
100
AcDbEntity
  8
Layer_1
 62
1
100
AcDbSpline
 70
8
 71
3
 72
8
 73
4
 74
0
 40
0
 40
0
 40
0
 40
0
 40
1
 40
1
 40
1
 40
1
 10
65.249303
 20
266.727056
 30
0.0
 10
65.155534
 20
266.820824
 30
0.0
 10
65.102856
 20
266.948001
 30
0.0
 10
65.102856
 20
267.080609
 30
0.0
  0
LINE
  5
327
100
AcDbEntity
  8
Layer_1
 62
1
100
AcDbLine
 10
65.102856
 20
267.080609
 30
0.0
 11
65.102856
 21
280.080609
 31
0.0
  0
SPLINE
  5
328
100
AcDbEntity
  8
Layer_1
 62
1
100
AcDbSpline
 70
8
 71
3
 72
8
 73
4
 74
0
 40
0
 40
0
 40
0
 40
0
 40
1
 40
1
 40
1
 40
1
 10
65.102856
 20
280.080609
 30
0.0
 10
65.102856
 20
280.213217
 30
0.0
 10
65.155534
 20
280.340394
 30
0.0
 10
65.249303
 20
280.434162
 30
0.0
  0
SPLINE
  5
329
100
AcDbEntity
  8
Layer_1
 62
1
100
AcDbSpline
 70
8
 71
3
 72
8
 73
4
 74
0
 40
0
 40
0
 40
0
 40
0
 40
1
 40
1
 40
1
 40
1
 10
65.249303
 20
280.434162
 30
0.0
 10
65.343071
 20
280.527931
 30
0.0
 10
65.470248
 20
280.580609
 30
0.0
 10
65.602856
 20
280.580609
 30
0.0
  0
LINE
  5
32a
100
AcDbEntity
  8
Layer_1
 62
1
100
AcDbLine
 10
65.602856
 20
280.580609
 30
0.0
 11
65.602856
 21
280.580609
 31
0.0
  0
LINE
  5
32b
100
AcDbEntity
  8
Layer_1
 62
1
100
AcDbLine
 10
44.057030
 20
203.730600
 30
0.0
 11
80.993150
 21
203.730600
 31
0.0
  0
SPLINE
  5
32c
100
AcDbEntity
  8
Layer_1
 62
1
100
AcDbSpline
 70
8
 71
3
 72
8
 73
4
 74
0
 40
0
 40
0
 40
0
 40
0
 40
1
 40
1
 40
1
 40
1
 10
80.993150
 20
203.730600
 30
0.0
 10
81.285443
 20
203.730596
 30
0.0
 10
81.522416
 20
203.967507
 30
0.0
 10
81.522490
 20
204.259800
 30
0.0
  0
LINE
  5
32d
100
AcDbEntity
  8
Layer_1
 62
1
100
AcDbLine
 10
81.522490
 20
204.259800
 30
0.0
 11
81.523150
 21
206.376400
 31
0.0
  0
SPLINE
  5
32e
100
AcDbEntity
  8
Layer_1
 62
1
100
AcDbSpline
 70
8
 71
3
 72
8
 73
4
 74
0
 40
0
 40
0
 40
0
 40
0
 40
1
 40
1
 40
1
 40
1
 10
81.523150
 20
206.376400
 30
0.0
 10
81.523224
 20
206.668693
 30
0.0
 10
81.760197
 20
206.905604
 30
0.0
 10
82.052490
 20
206.905600
 30
0.0
  0
LINE
  5
32f
100
AcDbEntity
  8
Layer_1
 62
1
100
AcDbLine
 10
82.052490
 20
206.905600
 30
0.0
 11
143.690100
 21
206.905600
 31
0.0
  0
SPLINE
  5
330
100
AcDbEntity
  8
Layer_1
 62
1
100
AcDbSpline
 70
8
 71
3
 72
8
 73
4
 74
0
 40
0
 40
0
 40
0
 40
0
 40
1
 40
1
 40
1
 40
1
 10
143.690100
 20
206.905600
 30
0.0
 10
143.830434
 20
206.905600
 30
0.0
 10
143.965018
 20
206.849839
 30
0.0
 10
144.064230
 20
206.750589
 30
0.0
  0
SPLINE
  5
331
100
AcDbEntity
  8
Layer_1
 62
1
100
AcDbSpline
 70
8
 71
3
 72
8
 73
4
 74
0
 40
0
 40
0
 40
0
 40
0
 40
1
 40
1
 40
1
 40
1
 10
144.064230
 20
206.750589
 30
0.0
 10
144.163443
 20
206.651339
 30
0.0
 10
144.219153
 20
206.516734
 30
0.0
 10
144.219100
 20
206.376400
 30
0.0
  0
LINE
  5
332
100
AcDbEntity
  8
Layer_1
 62
1
100
AcDbLine
 10
144.219100
 20
206.376400
 30
0.0
 11
144.218440
 21
204.259800
 31
0.0
  0
SPLINE
  5
333
100
AcDbEntity
  8
Layer_1
 62
1
100
AcDbSpline
 70
8
 71
3
 72
8
 73
4
 74
0
 40
0
 40
0
 40
0
 40
0
 40
1
 40
1
 40
1
 40
1
 10
144.218440
 20
204.259800
 30
0.0
 10
144.218387
 20
204.119466
 30
0.0
 10
144.274097
 20
203.984861
 30
0.0
 10
144.373310
 20
203.885611
 30
0.0
  0
SPLINE
  5
334
100
AcDbEntity
  8
Layer_1
 62
1
100
AcDbSpline
 70
8
 71
3
 72
8
 73
4
 74
0
 40
0
 40
0
 40
0
 40
0
 40
1
 40
1
 40
1
 40
1
 10
144.373310
 20
203.885611
 30
0.0
 10
144.472522
 20
203.786361
 30
0.0
 10
144.607106
 20
203.730600
 30
0.0
 10
144.747440
 20
203.730600
 30
0.0
  0
LINE
  5
335
100
AcDbEntity
  8
Layer_1
 62
1
100
AcDbLine
 10
144.747440
 20
203.730600
 30
0.0
 11
183.681470
 21
203.730600
 31
0.0
  0
SPLINE
  5
336
100
AcDbEntity
  8
Layer_1
 62
1
100
AcDbSpline
 70
8
 71
3
 72
8
 73
4
 74
0
 40
0
 40
0
 40
0
 40
0
 40
1
 40
1
 40
1
 40
1
 10
183.681470
 20
203.730600
 30
0.0
 10
183.973763
 20
203.730596
 30
0.0
 10
184.210736
 20
203.967507
 30
0.0
 10
184.210810
 20
204.259800
 30
0.0
  0
LINE
  5
337
100
AcDbEntity
  8
Layer_1
 62
1
100
AcDbLine
 10
184.210810
 20
204.259800
 30
0.0
 11
184.211470
 21
206.376400
 31
0.0
  0
SPLINE
  5
338
100
AcDbEntity
  8
Layer_1
 62
1
100
AcDbSpline
 70
8
 71
3
 72
8
 73
4
 74
0
 40
0
 40
0
 40
0
 40
0
 40
1
 40
1
 40
1
 40
1
 10
184.211470
 20
206.376400
 30
0.0
 10
184.211544
 20
206.668693
 30
0.0
 10
184.448517
 20
206.905604
 30
0.0
 10
184.740810
 20
206.905600
 30
0.0
  0
LINE
  5
339
100
AcDbEntity
  8
Layer_1
 62
1
100
AcDbLine
 10
184.740810
 20
206.905600
 30
0.0
 11
246.480650
 21
206.905600
 31
0.0
  0
SPLINE
  5
33a
100
AcDbEntity
  8
Layer_1
 62
1
100
AcDbSpline
 70
8
 71
3
 72
8
 73
4
 74
0
 40
0
 40
0
 40
0
 40
0
 40
1
 40
1
 40
1
 40
1
 10
246.480650
 20
206.905600
 30
0.0
 10
246.773210
 20
206.905637
 30
0.0
 10
247.010648
 20
206.668959
 30
0.0
 10
247.011550
 20
206.376400
 30
0.0
  0
LINE
  5
33b
100
AcDbEntity
  8
Layer_1
 62
1
100
AcDbLine
 10
247.011550
 20
206.376400
 30
0.0
 11
247.021550
 21
204.259800
 31
0.0
  0
SPLINE
  5
33c
100
AcDbEntity
  8
Layer_1
 62
1
100
AcDbSpline
 70
8
 71
3
 72
8
 73
4
 74
0
 40
0
 40
0
 40
0
 40
0
 40
1
 40
1
 40
1
 40
1
 10
247.021550
 20
204.259800
 30
0.0
 10
247.022452
 20
203.967241
 30
0.0
 10
247.259890
 20
203.730563
 30
0.0
 10
247.552450
 20
203.730600
 30
0.0
  0
LINE
  5
33d
100
AcDbEntity
  8
Layer_1
 62
1
100
AcDbLine
 10
247.552450
 20
203.730600
 30
0.0
 11
285.894850
 21
203.730600
 31
0.0
  0
SPLINE
  5
33e
100
AcDbEntity
  8
Layer_1
 62
1
100
AcDbSpline
 70
8
 71
3
 72
8
 73
4
 74
0
 40
0
 40
0
 40
0
 40
0
 40
1
 40
1
 40
1
 40
1
 10
285.894850
 20
203.730600
 30
0.0
 10
286.035205
 20
203.730591
 30
0.0
 10
286.169815
 20
203.786343
 30
0.0
 10
286.269061
 20
203.885589
 30
0.0
  0
SPLINE
  5
33f
100
AcDbEntity
  8
Layer_1
 62
1
100
AcDbSpline
 70
8
 71
3
 72
8
 73
4
 74
0
 40
0
 40
0
 40
0
 40
0
 40
1
 40
1
 40
1
 40
1
 10
286.269061
 20
203.885589
 30
0.0
 10
286.368307
 20
203.984835
 30
0.0
 10
286.424059
 20
204.119445
 30
0.0
 10
286.424050
 20
204.259800
 30
0.0
  0
LINE
  5
340
100
AcDbEntity
  8
Layer_1
 62
1
100
AcDbLine
 10
286.424050
 20
204.259800
 30
0.0
 11
286.424050
 21
285.751400
 31
0.0
  0
SPLINE
  5
341
100
AcDbEntity
  8
Layer_1
 62
1
100
AcDbSpline
 70
8
 71
3
 72
8
 73
4
 74
0
 40
0
 40
0
 40
0
 40
0
 40
1
 40
1
 40
1
 40
1
 10
286.424050
 20
285.751400
 30
0.0
 10
286.424059
 20
285.891755
 30
0.0
 10
286.368307
 20
286.026365
 30
0.0
 10
286.269061
 20
286.125611
 30
0.0
  0
SPLINE
  5
342
100
AcDbEntity
  8
Layer_1
 62
1
100
AcDbSpline
 70
8
 71
3
 72
8
 73
4
 74
0
 40
0
 40
0
 40
0
 40
0
 40
1
 40
1
 40
1
 40
1
 10
286.269061
 20
286.125611
 30
0.0
 10
286.169815
 20
286.224857
 30
0.0
 10
286.035205
 20
286.280609
 30
0.0
 10
285.894850
 20
286.280600
 30
0.0
  0
LINE
  5
343
100
AcDbEntity
  8
Layer_1
 62
1
100
AcDbLine
 10
285.894850
 20
286.280600
 30
0.0
 11
247.546250
 21
286.280600
 31
0.0
  0
SPLINE
  5
344
100
AcDbEntity
  8
Layer_1
 62
1
100
AcDbSpline
 70
8
 71
3
 72
8
 73
4
 74
0
 40
0
 40
0
 40
0
 40
0
 40
1
 40
1
 40
1
 40
1
 10
247.546250
 20
286.280600
 30
0.0
 10
247.405895
 20
286.280609
 30
0.0
 10
247.271285
 20
286.224857
 30
0.0
 10
247.172039
 20
286.125611
 30
0.0
  0
SPLINE
  5
345
100
AcDbEntity
  8
Layer_1
 62
1
100
AcDbSpline
 70
8
 71
3
 72
8
 73
4
 74
0
 40
0
 40
0
 40
0
 40
0
 40
1
 40
1
 40
1
 40
1
 10
247.172039
 20
286.125611
 30
0.0
 10
247.072793
 20
286.026365
 30
0.0
 10
247.017041
 20
285.891755
 30
0.0
 10
247.017050
 20
285.751400
 30
0.0
  0
LINE
  5
346
100
AcDbEntity
  8
Layer_1
 62
1
100
AcDbLine
 10
247.017050
 20
285.751400
 30
0.0
 11
247.017050
 21
283.634800
 31
0.0
  0
SPLINE
  5
347
100
AcDbEntity
  8
Layer_1
 62
1
100
AcDbSpline
 70
8
 71
3
 72
8
 73
4
 74
0
 40
0
 40
0
 40
0
 40
0
 40
1
 40
1
 40
1
 40
1
 10
247.017050
 20
283.634800
 30
0.0
 10
247.017059
 20
283.494445
 30
0.0
 10
246.961307
 20
283.359835
 30
0.0
 10
246.862061
 20
283.260589
 30
0.0
  0
SPLINE
  5
348
100
AcDbEntity
  8
Layer_1
 62
1
100
AcDbSpline
 70
8
 71
3
 72
8
 73
4
 74
0
 40
0
 40
0
 40
0
 40
0
 40
1
 40
1
 40
1
 40
1
 10
246.862061
 20
283.260589
 30
0.0
 10
246.762815
 20
283.161343
 30
0.0
 10
246.628205
 20
283.105591
 30
0.0
 10
246.487850
 20
283.105600
 30
0.0
  0
LINE
  5
349
100
AcDbEntity
  8
Layer_1
 62
1
100
AcDbLine
 10
246.487850
 20
283.105600
 30
0.0
 11
184.752320
 21
283.105600
 31
0.0
  0
SPLINE
  5
34a
100
AcDbEntity
  8
Layer_1
 62
1
100
AcDbSpline
 70
8
 71
3
 72
8
 73
4
 74
0
 40
0
 40
0
 40
0
 40
0
 40
1
 40
1
 40
1
 40
1
 10
184.752320
 20
283.105600
 30
0.0
 10
184.459946
 20
283.105596
 30
0.0
 10
184.222830
 20
283.342426
 30
0.0
 10
184.222480
 20
283.634800
 30
0.0
  0
LINE
  5
34b
100
AcDbEntity
  8
Layer_1
 62
1
100
AcDbLine
 10
184.222480
 20
283.634800
 30
0.0
 11
184.219480
 21
285.751400
 31
0.0
  0
SPLINE
  5
34c
100
AcDbEntity
  8
Layer_1
 62
1
100
AcDbSpline
 70
8
 71
3
 72
8
 73
4
 74
0
 40
0
 40
0
 40
0
 40
0
 40
1
 40
1
 40
1
 40
1
 10
184.219480
 20
285.751400
 30
0.0
 10
184.219130
 20
286.043774
 30
0.0
 10
183.982014
 20
286.280604
 30
0.0
 10
183.689640
 20
286.280600
 30
0.0
  0
LINE
  5
34d
100
AcDbEntity
  8
Layer_1
 62
1
100
AcDbLine
 10
183.689640
 20
286.280600
 30
0.0
 11
144.754720
 21
286.280600
 31
0.0
  0
SPLINE
  5
34e
100
AcDbEntity
  8
Layer_1
 62
1
100
AcDbSpline
 70
8
 71
3
 72
8
 73
4
 74
0
 40
0
 40
0
 40
0
 40
0
 40
1
 40
1
 40
1
 40
1
 10
144.754720
 20
286.280600
 30
0.0
 10
144.614432
 20
286.280600
 30
0.0
 10
144.479900
 20
286.224823
 30
0.0
 10
144.380766
 20
286.125558
 30
0.0
  0
SPLINE
  5
34f
100
AcDbEntity
  8
Layer_1
 62
1
100
AcDbSpline
 70
8
 71
3
 72
8
 73
4
 74
0
 40
0
 40
0
 40
0
 40
0
 40
1
 40
1
 40
1
 40
1
 10
144.380766
 20
286.125558
 30
0.0
 10
144.281633
 20
286.026294
 30
0.0
 10
144.226034
 20
285.891688
 30
0.0
 10
144.226220
 20
285.751400
 30
0.0
  0
LINE
  5
350
100
AcDbEntity
  8
Layer_1
 62
1
100
AcDbLine
 10
144.226220
 20
285.751400
 30
0.0
 11
144.229220
 21
283.634800
 31
0.0
  0
SPLINE
  5
351
100
AcDbEntity
  8
Layer_1
 62
1
100
AcDbSpline
 70
8
 71
3
 72
8
 73
4
 74
0
 40
0
 40
0
 40
0
 40
0
 40
1
 40
1
 40
1
 40
1
 10
144.229220
 20
283.634800
 30
0.0
 10
144.229406
 20
283.494512
 30
0.0
 10
144.173807
 20
283.359906
 30
0.0
 10
144.074674
 20
283.260642
 30
0.0
  0
SPLINE
  5
352
100
AcDbEntity
  8
Layer_1
 62
1
100
AcDbSpline
 70
8
 71
3
 72
8
 73
4
 74
0
 40
0
 40
0
 40
0
 40
0
 40
1
 40
1
 40
1
 40
1
 10
144.074674
 20
283.260642
 30
0.0
 10
143.975540
 20
283.161377
 30
0.0
 10
143.841008
 20
283.105600
 30
0.0
 10
143.700720
 20
283.105600
 30
0.0
  0
LINE
  5
353
100
AcDbEntity
  8
Layer_1
 62
1
100
AcDbLine
 10
143.700720
 20
283.105600
 30
0.0
 11
82.055620
 21
283.105600
 31
0.0
  0
SPLINE
  5
354
100
AcDbEntity
  8
Layer_1
 62
1
100
AcDbSpline
 70
8
 71
3
 72
8
 73
4
 74
0
 40
0
 40
0
 40
0
 40
0
 40
1
 40
1
 40
1
 40
1
 10
82.055620
 20
283.105600
 30
0.0
 10
81.763336
 20
283.105599
 30
0.0
 10
81.526379
 20
283.342516
 30
0.0
 10
81.526330
 20
283.634800
 30
0.0
  0
LINE
  5
355
100
AcDbEntity
  8
Layer_1
 62
1
100
AcDbLine
 10
81.526330
 20
283.634800
 30
0.0
 11
81.525840
 21
285.751400
 31
0.0
  0
SPLINE
  5
356
100
AcDbEntity
  8
Layer_1
 62
1
100
AcDbSpline
 70
8
 71
3
 72
8
 73
4
 74
0
 40
0
 40
0
 40
0
 40
0
 40
1
 40
1
 40
1
 40
1
 10
81.525840
 20
285.751400
 30
0.0
 10
81.525791
 20
286.043684
 30
0.0
 10
81.288834
 20
286.280601
 30
0.0
 10
80.996550
 20
286.280600
 30
0.0
  0
LINE
  5
357
100
AcDbEntity
  8
Layer_1
 62
1
100
AcDbLine
 10
80.996550
 20
286.280600
 30
0.0
 11
44.069330
 21
286.280600
 31
0.0
  0
SPLINE
  5
358
100
AcDbEntity
  8
Layer_1
 62
1
100
AcDbSpline
 70
8
 71
3
 72
8
 73
4
 74
0
 40
0
 40
0
 40
0
 40
0
 40
1
 40
1
 40
1
 40
1
 10
44.069330
 20
286.280600
 30
0.0
 10
43.777055
 20
286.280603
 30
0.0
 10
43.540113
 20
286.043675
 30
0.0
 10
43.540100
 20
285.751400
 30
0.0
  0
LINE
  5
359
100
AcDbEntity
  8
Layer_1
 62
1
100
AcDbLine
 10
43.540100
 20
285.751400
 30
0.0
 11
43.531100
 21
204.259800
 31
0.0
  0
SPLINE
  5
35a
100
AcDbEntity
  8
Layer_1
 62
1
100
AcDbSpline
 70
8
 71
3
 72
8
 73
4
 74
0
 40
0
 40
0
 40
0
 40
0
 40
1
 40
1
 40
1
 40
1
 10
43.531100
 20
204.259800
 30
0.0
 10
43.531076
 20
204.119456
 30
0.0
 10
43.586811
 20
203.984851
 30
0.0
 10
43.686041
 20
203.885604
 30
0.0
  0
SPLINE
  5
35b
100
AcDbEntity
  8
Layer_1
 62
1
100
AcDbSpline
 70
8
 71
3
 72
8
 73
4
 74
0
 40
0
 40
0
 40
0
 40
0
 40
1
 40
1
 40
1
 40
1
 10
43.686041
 20
203.885604
 30
0.0
 10
43.785271
 20
203.786358
 30
0.0
 10
43.919866
 20
203.730600
 30
0.0
 10
44.060210
 20
203.730600
 30
0.0
  0
LINE
  5
35c
100
AcDbEntity
  8
Layer_1
 62
1
100
AcDbLine
 10
44.060210
 20
203.730600
 30
0.0
 11
44.057030
 21
203.730600
 31
0.0
  0
LINE
  5
35d
100
AcDbEntity
  8
Layer_1
 62
1
100
AcDbLine
 10
190.521750
 20
209.430709
 30
0.0
 11
177.522760
 21
209.430709
 31
0.0
  0
SPLINE
  5
35e
100
AcDbEntity
  8
Layer_1
 62
1
100
AcDbSpline
 70
8
 71
3
 72
8
 73
4
 74
0
 40
0
 40
0
 40
0
 40
0
 40
1
 40
1
 40
1
 40
1
 10
177.522760
 20
209.430709
 30
0.0
 10
177.389690
 20
209.430609
 30
0.0
 10
177.262540
 20
209.483709
 30
0.0
 10
177.168740
 20
209.577009
 30
0.0
  0
SPLINE
  5
35f
100
AcDbEntity
  8
Layer_1
 62
1
100
AcDbSpline
 70
8
 71
3
 72
8
 73
4
 74
0
 40
0
 40
0
 40
0
 40
0
 40
1
 40
1
 40
1
 40
1
 10
177.168740
 20
209.577009
 30
0.0
 10
177.075040
 20
209.671009
 30
0.0
 10
177.022290
 20
209.797909
 30
0.0
 10
177.022730
 20
209.930709
 30
0.0
  0
LINE
  5
360
100
AcDbEntity
  8
Layer_1
 62
1
100
AcDbLine
 10
177.022730
 20
209.930709
 30
0.0
 11
177.023160
 21
214.129809
 31
0.0
  0
LINE
  5
361
100
AcDbEntity
  8
Layer_1
 62
1
100
AcDbLine
 10
177.023160
 20
214.129809
 30
0.0
 11
175.496520
 21
214.129809
 31
0.0
  0
LINE
  5
362
100
AcDbEntity
  8
Layer_1
 62
1
100
AcDbLine
 10
175.496520
 20
214.129809
 30
0.0
 11
175.496520
 21
210.901109
 31
0.0
  0
LINE
  5
363
100
AcDbEntity
  8
Layer_1
 62
1
100
AcDbLine
 10
175.496520
 20
210.901109
 30
0.0
 11
168.747000
 21
210.901109
 31
0.0
  0
LINE
  5
364
100
AcDbEntity
  8
Layer_1
 62
1
100
AcDbLine
 10
168.747000
 20
210.901109
 30
0.0
 11
168.747000
 21
214.129809
 31
0.0
  0
LINE
  5
365
100
AcDbEntity
  8
Layer_1
 62
1
100
AcDbLine
 10
168.747000
 20
214.129809
 30
0.0
 11
167.921500
 21
214.129809
 31
0.0
  0
LINE
  5
366
100
AcDbEntity
  8
Layer_1
 62
1
100
AcDbLine
 10
167.921500
 20
214.129809
 30
0.0
 11
167.921500
 21
216.930109
 31
0.0
  0
LINE
  5
367
100
AcDbEntity
  8
Layer_1
 62
1
100
AcDbLine
 10
167.921500
 20
216.930109
 30
0.0
 11
168.747000
 21
216.930109
 31
0.0
  0
LINE
  5
368
100
AcDbEntity
  8
Layer_1
 62
1
100
AcDbLine
 10
168.747000
 20
216.930109
 30
0.0
 11
168.747000
 21
223.200009
 31
0.0
  0
LINE
  5
369
100
AcDbEntity
  8
Layer_1
 62
1
100
AcDbLine
 10
168.747000
 20
223.200009
 30
0.0
 11
170.472080
 21
223.200009
 31
0.0
  0
LINE
  5
36a
100
AcDbEntity
  8
Layer_1
 62
1
100
AcDbLine
 10
170.472080
 20
223.200009
 30
0.0
 11
170.472080
 21
224.400409
 31
0.0
  0
LINE
  5
36b
100
AcDbEntity
  8
Layer_1
 62
1
100
AcDbLine
 10
170.472080
 20
224.400409
 30
0.0
 11
173.771430
 21
224.400409
 31
0.0
  0
LINE
  5
36c
100
AcDbEntity
  8
Layer_1
 62
1
100
AcDbLine
 10
173.771430
 20
224.400409
 30
0.0
 11
173.771430
 21
223.200009
 31
0.0
  0
LINE
  5
36d
100
AcDbEntity
  8
Layer_1
 62
1
100
AcDbLine
 10
173.771430
 20
223.200009
 30
0.0
 11
175.496520
 21
223.200009
 31
0.0
  0
LINE
  5
36e
100
AcDbEntity
  8
Layer_1
 62
1
100
AcDbLine
 10
175.496520
 20
223.200009
 30
0.0
 11
175.496520
 21
218.731209
 31
0.0
  0
LINE
  5
36f
100
AcDbEntity
  8
Layer_1
 62
1
100
AcDbLine
 10
175.496520
 20
218.731209
 30
0.0
 11
177.023160
 21
218.731209
 31
0.0
  0
LINE
  5
370
100
AcDbEntity
  8
Layer_1
 62
1
100
AcDbLine
 10
177.023160
 20
218.731209
 30
0.0
 11
177.022630
 21
222.930109
 31
0.0
  0
SPLINE
  5
371
100
AcDbEntity
  8
Layer_1
 62
1
100
AcDbSpline
 70
8
 71
3
 72
8
 73
4
 74
0
 40
0
 40
0
 40
0
 40
0
 40
1
 40
1
 40
1
 40
1
 10
177.022630
 20
222.930109
 30
0.0
 10
177.022100
 20
223.062609
 30
0.0
 10
177.074830
 20
223.189809
 30
0.0
 10
177.168640
 20
223.283609
 30
0.0
  0
SPLINE
  5
372
100
AcDbEntity
  8
Layer_1
 62
1
100
AcDbSpline
 70
8
 71
3
 72
8
 73
4
 74
0
 40
0
 40
0
 40
0
 40
0
 40
1
 40
1
 40
1
 40
1
 10
177.168640
 20
223.283609
 30
0.0
 10
177.262440
 20
223.377609
 30
0.0
 10
177.389590
 20
223.430009
 30
0.0
 10
177.522670
 20
223.430109
 30
0.0
  0
LINE
  5
373
100
AcDbEntity
  8
Layer_1
 62
1
100
AcDbLine
 10
177.522670
 20
223.430109
 30
0.0
 11
190.521660
 21
223.430109
 31
0.0
  0
SPLINE
  5
374
100
AcDbEntity
  8
Layer_1
 62
1
100
AcDbSpline
 70
8
 71
3
 72
8
 73
4
 74
0
 40
0
 40
0
 40
0
 40
0
 40
1
 40
1
 40
1
 40
1
 10
190.521660
 20
223.430109
 30
0.0
 10
190.797340
 20
223.430009
 30
0.0
 10
191.021190
 20
223.206209
 30
0.0
 10
191.021680
 20
222.930109
 30
0.0
  0
LINE
  5
375
100
AcDbEntity
  8
Layer_1
 62
1
100
AcDbLine
 10
191.021680
 20
222.930109
 30
0.0
 11
191.022210
 21
218.731209
 31
0.0
  0
LINE
  5
376
100
AcDbEntity
  8
Layer_1
 62
1
100
AcDbLine
 10
191.022210
 20
218.731209
 30
0.0
 11
192.546210
 21
218.731209
 31
0.0
  0
LINE
  5
377
100
AcDbEntity
  8
Layer_1
 62
1
100
AcDbLine
 10
192.546210
 20
218.731209
 30
0.0
 11
192.546210
 21
223.200009
 31
0.0
  0
LINE
  5
378
100
AcDbEntity
  8
Layer_1
 62
1
100
AcDbLine
 10
192.546210
 20
223.200009
 30
0.0
 11
194.271300
 21
223.200009
 31
0.0
  0
LINE
  5
379
100
AcDbEntity
  8
Layer_1
 62
1
100
AcDbLine
 10
194.271300
 20
223.200009
 30
0.0
 11
194.271300
 21
224.400409
 31
0.0
  0
LINE
  5
37a
100
AcDbEntity
  8
Layer_1
 62
1
100
AcDbLine
 10
194.271300
 20
224.400409
 30
0.0
 11
197.570650
 21
224.400409
 31
0.0
  0
LINE
  5
37b
100
AcDbEntity
  8
Layer_1
 62
1
100
AcDbLine
 10
197.570650
 20
224.400409
 30
0.0
 11
197.570650
 21
223.200009
 31
0.0
  0
LINE
  5
37c
100
AcDbEntity
  8
Layer_1
 62
1
100
AcDbLine
 10
197.570650
 20
223.200009
 30
0.0
 11
199.295730
 21
223.200009
 31
0.0
  0
LINE
  5
37d
100
AcDbEntity
  8
Layer_1
 62
1
100
AcDbLine
 10
199.295730
 20
223.200009
 30
0.0
 11
199.295730
 21
216.930109
 31
0.0
  0
LINE
  5
37e
100
AcDbEntity
  8
Layer_1
 62
1
100
AcDbLine
 10
199.295730
 20
216.930109
 30
0.0
 11
200.121230
 21
216.930109
 31
0.0
  0
LINE
  5
37f
100
AcDbEntity
  8
Layer_1
 62
1
100
AcDbLine
 10
200.121230
 20
216.930109
 30
0.0
 11
200.121230
 21
214.129809
 31
0.0
  0
LINE
  5
380
100
AcDbEntity
  8
Layer_1
 62
1
100
AcDbLine
 10
200.121230
 20
214.129809
 30
0.0
 11
199.295730
 21
214.129809
 31
0.0
  0
LINE
  5
381
100
AcDbEntity
  8
Layer_1
 62
1
100
AcDbLine
 10
199.295730
 20
214.129809
 30
0.0
 11
199.295730
 21
210.901109
 31
0.0
  0
LINE
  5
382
100
AcDbEntity
  8
Layer_1
 62
1
100
AcDbLine
 10
199.295730
 20
210.901109
 30
0.0
 11
192.546210
 21
210.901109
 31
0.0
  0
LINE
  5
383
100
AcDbEntity
  8
Layer_1
 62
1
100
AcDbLine
 10
192.546210
 20
210.901109
 30
0.0
 11
192.546210
 21
214.129809
 31
0.0
  0
LINE
  5
384
100
AcDbEntity
  8
Layer_1
 62
1
100
AcDbLine
 10
192.546210
 20
214.129809
 30
0.0
 11
191.022210
 21
214.129809
 31
0.0
  0
LINE
  5
385
100
AcDbEntity
  8
Layer_1
 62
1
100
AcDbLine
 10
191.022210
 20
214.129809
 30
0.0
 11
191.021680
 21
209.930709
 31
0.0
  0
SPLINE
  5
386
100
AcDbEntity
  8
Layer_1
 62
1
100
AcDbSpline
 70
8
 71
3
 72
8
 73
4
 74
0
 40
0
 40
0
 40
0
 40
0
 40
1
 40
1
 40
1
 40
1
 10
191.021680
 20
209.930709
 30
0.0
 10
191.021160
 20
209.654409
 30
0.0
 10
190.797340
 20
209.430609
 30
0.0
 10
190.521660
 20
209.430709
 30
0.0
  0
LINE
  5
387
100
AcDbEntity
  8
Layer_1
 62
1
100
AcDbLine
 10
190.521660
 20
209.430709
 30
0.0
 11
190.521750
 21
209.430709
 31
0.0
  0
LINE
  5
388
100
AcDbEntity
  8
Layer_1
 62
1
100
AcDbLine
 10
142.896730
 20
209.430709
 30
0.0
 11
129.897740
 21
209.430709
 31
0.0
  0
SPLINE
  5
389
100
AcDbEntity
  8
Layer_1
 62
1
100
AcDbSpline
 70
8
 71
3
 72
8
 73
4
 74
0
 40
0
 40
0
 40
0
 40
0
 40
1
 40
1
 40
1
 40
1
 10
129.897740
 20
209.430709
 30
0.0
 10
129.764670
 20
209.430609
 30
0.0
 10
129.637520
 20
209.483709
 30
0.0
 10
129.543720
 20
209.577009
 30
0.0
  0
SPLINE
  5
38a
100
AcDbEntity
  8
Layer_1
 62
1
100
AcDbSpline
 70
8
 71
3
 72
8
 73
4
 74
0
 40
0
 40
0
 40
0
 40
0
 40
1
 40
1
 40
1
 40
1
 10
129.543720
 20
209.577009
 30
0.0
 10
129.450020
 20
209.671009
 30
0.0
 10
129.397270
 20
209.797909
 30
0.0
 10
129.397710
 20
209.930709
 30
0.0
  0
LINE
  5
38b
100
AcDbEntity
  8
Layer_1
 62
1
100
AcDbLine
 10
129.397710
 20
209.930709
 30
0.0
 11
129.398140
 21
214.129809
 31
0.0
  0
LINE
  5
38c
100
AcDbEntity
  8
Layer_1
 62
1
100
AcDbLine
 10
129.398140
 20
214.129809
 30
0.0
 11
127.871500
 21
214.129809
 31
0.0
  0
LINE
  5
38d
100
AcDbEntity
  8
Layer_1
 62
1
100
AcDbLine
 10
127.871500
 20
214.129809
 30
0.0
 11
127.871500
 21
210.901109
 31
0.0
  0
LINE
  5
38e
100
AcDbEntity
  8
Layer_1
 62
1
100
AcDbLine
 10
127.871500
 20
210.901109
 30
0.0
 11
121.121980
 21
210.901109
 31
0.0
  0
LINE
  5
38f
100
AcDbEntity
  8
Layer_1
 62
1
100
AcDbLine
 10
121.121980
 20
210.901109
 30
0.0
 11
121.121980
 21
214.129809
 31
0.0
  0
LINE
  5
390
100
AcDbEntity
  8
Layer_1
 62
1
100
AcDbLine
 10
121.121980
 20
214.129809
 30
0.0
 11
120.296480
 21
214.129809
 31
0.0
  0
LINE
  5
391
100
AcDbEntity
  8
Layer_1
 62
1
100
AcDbLine
 10
120.296480
 20
214.129809
 30
0.0
 11
120.296480
 21
216.930109
 31
0.0
  0
LINE
  5
392
100
AcDbEntity
  8
Layer_1
 62
1
100
AcDbLine
 10
120.296480
 20
216.930109
 30
0.0
 11
121.121980
 21
216.930109
 31
0.0
  0
LINE
  5
393
100
AcDbEntity
  8
Layer_1
 62
1
100
AcDbLine
 10
121.121980
 20
216.930109
 30
0.0
 11
121.121980
 21
223.200009
 31
0.0
  0
LINE
  5
394
100
AcDbEntity
  8
Layer_1
 62
1
100
AcDbLine
 10
121.121980
 20
223.200009
 30
0.0
 11
122.847060
 21
223.200009
 31
0.0
  0
LINE
  5
395
100
AcDbEntity
  8
Layer_1
 62
1
100
AcDbLine
 10
122.847060
 20
223.200009
 30
0.0
 11
122.847060
 21
224.400409
 31
0.0
  0
LINE
  5
396
100
AcDbEntity
  8
Layer_1
 62
1
100
AcDbLine
 10
122.847060
 20
224.400409
 30
0.0
 11
126.146410
 21
224.400409
 31
0.0
  0
LINE
  5
397
100
AcDbEntity
  8
Layer_1
 62
1
100
AcDbLine
 10
126.146410
 20
224.400409
 30
0.0
 11
126.146410
 21
223.200009
 31
0.0
  0
LINE
  5
398
100
AcDbEntity
  8
Layer_1
 62
1
100
AcDbLine
 10
126.146410
 20
223.200009
 30
0.0
 11
127.871500
 21
223.200009
 31
0.0
  0
LINE
  5
399
100
AcDbEntity
  8
Layer_1
 62
1
100
AcDbLine
 10
127.871500
 20
223.200009
 30
0.0
 11
127.871500
 21
218.731209
 31
0.0
  0
LINE
  5
39a
100
AcDbEntity
  8
Layer_1
 62
1
100
AcDbLine
 10
127.871500
 20
218.731209
 30
0.0
 11
129.398140
 21
218.731209
 31
0.0
  0
LINE
  5
39b
100
AcDbEntity
  8
Layer_1
 62
1
100
AcDbLine
 10
129.398140
 20
218.731209
 30
0.0
 11
129.397610
 21
222.930109
 31
0.0
  0
SPLINE
  5
39c
100
AcDbEntity
  8
Layer_1
 62
1
100
AcDbSpline
 70
8
 71
3
 72
8
 73
4
 74
0
 40
0
 40
0
 40
0
 40
0
 40
1
 40
1
 40
1
 40
1
 10
129.397610
 20
222.930109
 30
0.0
 10
129.397080
 20
223.062609
 30
0.0
 10
129.449810
 20
223.189809
 30
0.0
 10
129.543620
 20
223.283609
 30
0.0
  0
SPLINE
  5
39d
100
AcDbEntity
  8
Layer_1
 62
1
100
AcDbSpline
 70
8
 71
3
 72
8
 73
4
 74
0
 40
0
 40
0
 40
0
 40
0
 40
1
 40
1
 40
1
 40
1
 10
129.543620
 20
223.283609
 30
0.0
 10
129.637420
 20
223.377609
 30
0.0
 10
129.764570
 20
223.430009
 30
0.0
 10
129.897650
 20
223.430109
 30
0.0
  0
LINE
  5
39e
100
AcDbEntity
  8
Layer_1
 62
1
100
AcDbLine
 10
129.897650
 20
223.430109
 30
0.0
 11
142.896640
 21
223.430109
 31
0.0
  0
SPLINE
  5
39f
100
AcDbEntity
  8
Layer_1
 62
1
100
AcDbSpline
 70
8
 71
3
 72
8
 73
4
 74
0
 40
0
 40
0
 40
0
 40
0
 40
1
 40
1
 40
1
 40
1
 10
142.896640
 20
223.430109
 30
0.0
 10
143.172320
 20
223.430009
 30
0.0
 10
143.396170
 20
223.206209
 30
0.0
 10
143.396660
 20
222.930109
 30
0.0
  0
LINE
  5
3a0
100
AcDbEntity
  8
Layer_1
 62
1
100
AcDbLine
 10
143.396660
 20
222.930109
 30
0.0
 11
143.397190
 21
218.731209
 31
0.0
  0
LINE
  5
3a1
100
AcDbEntity
  8
Layer_1
 62
1
100
AcDbLine
 10
143.397190
 20
218.731209
 30
0.0
 11
144.921190
 21
218.731209
 31
0.0
  0
LINE
  5
3a2
100
AcDbEntity
  8
Layer_1
 62
1
100
AcDbLine
 10
144.921190
 20
218.731209
 30
0.0
 11
144.921190
 21
223.200009
 31
0.0
  0
LINE
  5
3a3
100
AcDbEntity
  8
Layer_1
 62
1
100
AcDbLine
 10
144.921190
 20
223.200009
 30
0.0
 11
146.646280
 21
223.200009
 31
0.0
  0
LINE
  5
3a4
100
AcDbEntity
  8
Layer_1
 62
1
100
AcDbLine
 10
146.646280
 20
223.200009
 30
0.0
 11
146.646280
 21
224.400409
 31
0.0
  0
LINE
  5
3a5
100
AcDbEntity
  8
Layer_1
 62
1
100
AcDbLine
 10
146.646280
 20
224.400409
 30
0.0
 11
149.945630
 21
224.400409
 31
0.0
  0
LINE
  5
3a6
100
AcDbEntity
  8
Layer_1
 62
1
100
AcDbLine
 10
149.945630
 20
224.400409
 30
0.0
 11
149.945630
 21
223.200009
 31
0.0
  0
LINE
  5
3a7
100
AcDbEntity
  8
Layer_1
 62
1
100
AcDbLine
 10
149.945630
 20
223.200009
 30
0.0
 11
151.670710
 21
223.200009
 31
0.0
  0
LINE
  5
3a8
100
AcDbEntity
  8
Layer_1
 62
1
100
AcDbLine
 10
151.670710
 20
223.200009
 30
0.0
 11
151.670710
 21
216.930109
 31
0.0
  0
LINE
  5
3a9
100
AcDbEntity
  8
Layer_1
 62
1
100
AcDbLine
 10
151.670710
 20
216.930109
 30
0.0
 11
152.496210
 21
216.930109
 31
0.0
  0
LINE
  5
3aa
100
AcDbEntity
  8
Layer_1
 62
1
100
AcDbLine
 10
152.496210
 20
216.930109
 30
0.0
 11
152.496210
 21
214.129809
 31
0.0
  0
LINE
  5
3ab
100
AcDbEntity
  8
Layer_1
 62
1
100
AcDbLine
 10
152.496210
 20
214.129809
 30
0.0
 11
151.670710
 21
214.129809
 31
0.0
  0
LINE
  5
3ac
100
AcDbEntity
  8
Layer_1
 62
1
100
AcDbLine
 10
151.670710
 20
214.129809
 30
0.0
 11
151.670710
 21
210.901109
 31
0.0
  0
LINE
  5
3ad
100
AcDbEntity
  8
Layer_1
 62
1
100
AcDbLine
 10
151.670710
 20
210.901109
 30
0.0
 11
144.921190
 21
210.901109
 31
0.0
  0
LINE
  5
3ae
100
AcDbEntity
  8
Layer_1
 62
1
100
AcDbLine
 10
144.921190
 20
210.901109
 30
0.0
 11
144.921190
 21
214.129809
 31
0.0
  0
LINE
  5
3af
100
AcDbEntity
  8
Layer_1
 62
1
100
AcDbLine
 10
144.921190
 20
214.129809
 30
0.0
 11
143.397190
 21
214.129809
 31
0.0
  0
LINE
  5
3b0
100
AcDbEntity
  8
Layer_1
 62
1
100
AcDbLine
 10
143.397190
 20
214.129809
 30
0.0
 11
143.396660
 21
209.930709
 31
0.0
  0
SPLINE
  5
3b1
100
AcDbEntity
  8
Layer_1
 62
1
100
AcDbSpline
 70
8
 71
3
 72
8
 73
4
 74
0
 40
0
 40
0
 40
0
 40
0
 40
1
 40
1
 40
1
 40
1
 10
143.396660
 20
209.930709
 30
0.0
 10
143.396140
 20
209.654409
 30
0.0
 10
143.172320
 20
209.430609
 30
0.0
 10
142.896640
 20
209.430709
 30
0.0
  0
LINE
  5
3b2
100
AcDbEntity
  8
Layer_1
 62
1
100
AcDbLine
 10
142.896640
 20
209.430709
 30
0.0
 11
142.896730
 21
209.430709
 31
0.0
  0
ENDSEC
  0
SECTION
  2
OBJECTS
  0
DICTIONARY
  5
C
330
0
100
AcDbDictionary
  3
ACAD_GROUP
350
D
  3
ACAD_MLINESTYLE
350
17
  0
DICTIONARY
  5
D
330
C
100
AcDbDictionary
  0
DICTIONARY
  5
1A
330
C
100
AcDbDictionary
  0
DICTIONARY
  5
17
330
C
100
AcDbDictionary
  3
STANDARD
350
18
  0
DICTIONARY
  5
19
330
C
100
AcDbDictionary
  0
ENDSEC
  0
EOF
