  0
SECTION
  2
HEADER
  9
$ACADVER
  1
AC1014
  9
$HANDSEED
  5
FFFF
  9
$INSUNITS
 70
     0
  9
$MEASUREMENT
 70
     1
  0
ENDSEC
  0
SECTION
  2
TABLES
  0
TABLE
  2
VPORT
  5
8
330
0
100
AcDbSymbolTable
 70
     4
  0
VPORT
  5
2E
330
8
100
AcDbSymbolTableRecord
100
AcDbViewportTableRecord
  2
*ACTIVE
 70
     0
 10
0.0
 20
0.0
 11
1.0
 21
1.0
 12
210.0
 22
148.5
 13
0.0
 23
0.0
 14
10.0
 24
10.0
 15
10.0
 25
10.0
 16
0.0
 26
0.0
 36
1.0
 17
0.0
 27
0.0
 37
0.0
 40
341.0
 41
1.24
 42
50.0
 43
0.0
 44
0.0
 50
0.0
 51
0.0
 71
     0
 72
   100
 73
     1
 74
     3
 75
     0
 76
     0
 77
     0
 78
     0
  0
ENDTAB
  0
TABLE
  2
LTYPE
  5
5
330
0
100
AcDbSymbolTable
 70
     1
  0
LTYPE
  5
14
330
5
100
AcDbSymbolTableRecord
100
AcDbLinetypeTableRecord
  2
BYBLOCK
 70
     0
  3

 72
    65
 73
     0
 40
0.0
  0
LTYPE
  5
15
330
5
100
AcDbSymbolTableRecord
100
AcDbLinetypeTableRecord
  2
BYLAYER
 70
     0
  3

 72
    65
 73
     0
 40
0.0
  0
LTYPE
  5
16
330
5
100
AcDbSymbolTableRecord
100
AcDbLinetypeTableRecord
  2
CONTINUOUS
 70
     0
  3
Solid line
 72
    65
 73
     0
 40
0.0
  0
ENDTAB
  0
TABLE
  2
LAYER
  5
2
100
AcDbSymbolTable
 70
2
  0
LAYER
  5
50
100
AcDbSymbolTableRecord
100
AcDbLayerTableRecord
  2
0
 70
0
  6
CONTINUOUS
  0
LAYER
  5
51
100
AcDbSymbolTableRecord
100
AcDbLayerTableRecord
  2
Layer_1
 70
0
  6
CONTINUOUS
  0
ENDTAB
  0
TABLE
  2
STYLE
  5
3
330
0
100
AcDbSymbolTable
 70
     1
  0
STYLE
  5
11
330
3
100
AcDbSymbolTableRecord
100
AcDbTextStyleTableRecord
  2
STANDARD
 70
     0
 40
0.0
 41
1.0
 50
0.0
 71
     0
 42
2.5
  3
txt
  4

  0
ENDTAB
  0
TABLE
  2
VIEW
  5
6
330
0
100
AcDbSymbolTable
 70
     0
  0
ENDTAB
  0
TABLE
  2
UCS
  5
7
330
0
100
AcDbSymbolTable
 70
     0
  0
ENDTAB
  0
TABLE
  2
APPID
  5
9
330
0
100
AcDbSymbolTable
 70
     2
  0
APPID
  5
12
330
9
100
AcDbSymbolTableRecord
100
AcDbRegAppTableRecord
  2
ACAD
 70
     0
  0
ENDTAB
  0
TABLE
  2
DIMSTYLE
  5
A
330
0
100
AcDbSymbolTable
 70
     1
  0
DIMSTYLE
105
27
330
A
100
AcDbSymbolTableRecord
100
AcDbDimStyleTableRecord
  2
ISO-25
 70
     0
  3

  4

  5

  6

  7

 40
1.0
 41
2.5
 42
0.625
 43
3.75
 44
1.25
 45
0.0
 46
0.0
 47
0.0
 48
0.0
140
2.5
141
2.5
142
0.0
143
0.03937007874016
144
1.0
145
0.0
146
1.0
147
0.625
 71
     0
 72
     0
 73
     0
 74
     0
 75
     0
 76
     0
 77
     1
 78
     8
170
     0
171
     3
172
     1
173
     0
174
     0
175
     0
176
     0
177
     0
178
     0
270
     2
271
     2
272
     2
273
     2
274
     3
340
11
275
     0
280
     0
281
     0
282
     0
283
     0
284
     8
285
     0
286
     0
287
     3
288
     0
  0
ENDTAB
  0
TABLE
  2
BLOCK_RECORD
  5
1
330
0
100
AcDbSymbolTable
 70
     1
  0
BLOCK_RECORD
  5
1F
330
1
100
AcDbSymbolTableRecord
100
AcDbBlockTableRecord
  2
*MODEL_SPACE
  0
BLOCK_RECORD
  5
1B
330
1
100
AcDbSymbolTableRecord
100
AcDbBlockTableRecord
  2
*PAPER_SPACE
  0
ENDTAB
  0
ENDSEC
  0
SECTION
  2
BLOCKS
  0
BLOCK
  5
20
330
1F
100
AcDbEntity
  8
0
100
AcDbBlockBegin
  2
*MODEL_SPACE
 70
     0
 10
0.0
 20
0.0
 30
0.0
  3
*MODEL_SPACE
  1

  0
ENDBLK
  5
21
330
1F
100
AcDbEntity
  8
0
100
AcDbBlockEnd
  0
BLOCK
  5
1C
330
1B
100
AcDbEntity
 67
     1
  8
0
100
AcDbBlockBegin
  2
*PAPER_SPACE
  1

  0
ENDBLK
  5
1D
330
1B
100
AcDbEntity
 67
     1
  8
0
100
AcDbBlockEnd
  0
ENDSEC
  0
SECTION
  2
ENTITIES
  0
LINE
  5
100
100
AcDbEntity
  8
Layer_1
 62
5
100
AcDbLine
 10
2.778100
 20
273.577300
 30
0.0
 11
294.359550
 21
273.577300
 31
0.0
  0
SPLINE
  5
101
100
AcDbEntity
  8
Layer_1
 62
5
100
AcDbSpline
 70
8
 71
3
 72
8
 73
4
 74
0
 40
0
 40
0
 40
0
 40
0
 40
1
 40
1
 40
1
 40
1
 10
294.359550
 20
273.577300
 30
0.0
 10
295.820777
 20
273.577318
 30
0.0
 10
297.005332
 20
274.761873
 30
0.0
 10
297.005350
 20
276.223100
 30
0.0
  0
LINE
  5
102
100
AcDbEntity
  8
Layer_1
 62
5
100
AcDbLine
 10
297.005350
 20
276.223100
 30
0.0
 11
297.005350
 21
294.220900
 31
0.0
  0
SPLINE
  5
103
100
AcDbEntity
  8
Layer_1
 62
5
100
AcDbSpline
 70
8
 71
3
 72
8
 73
4
 74
0
 40
0
 40
0
 40
0
 40
0
 40
1
 40
1
 40
1
 40
1
 10
297.005350
 20
294.220900
 30
0.0
 10
297.005332
 20
295.682127
 30
0.0
 10
295.820777
 20
296.866682
 30
0.0
 10
294.359550
 20
296.866700
 30
0.0
  0
LINE
  5
104
100
AcDbEntity
  8
Layer_1
 62
5
100
AcDbLine
 10
294.359550
 20
296.866700
 30
0.0
 11
2.787870
 21
296.866700
 31
0.0
  0
SPLINE
  5
105
100
AcDbEntity
  8
Layer_1
 62
5
100
AcDbSpline
 70
8
 71
3
 72
8
 73
4
 74
0
 40
0
 40
0
 40
0
 40
0
 40
1
 40
1
 40
1
 40
1
 10
2.787870
 20
296.866700
 30
0.0
 10
1.326451
 20
296.866698
 30
0.0
 10
0.141561
 20
295.682319
 30
0.0
 10
0.140930
 20
294.220900
 30
0.0
  0
LINE
  5
106
100
AcDbEntity
  8
Layer_1
 62
5
100
AcDbLine
 10
0.140930
 20
294.220900
 30
0.0
 11
0.132930
 21
276.223100
 31
0.0
  0
SPLINE
  5
107
100
AcDbEntity
  8
Layer_1
 62
5
100
AcDbSpline
 70
8
 71
3
 72
8
 73
4
 74
0
 40
0
 40
0
 40
0
 40
0
 40
1
 40
1
 40
1
 40
1
 10
0.132930
 20
276.223100
 30
0.0
 10
0.132644
 20
275.521490
 30
0.0
 10
0.411158
 20
274.848518
 30
0.0
 10
0.907170
 20
274.352303
 30
0.0
  0
SPLINE
  5
108
100
AcDbEntity
  8
Layer_1
 62
5
100
AcDbSpline
 70
8
 71
3
 72
8
 73
4
 74
0
 40
0
 40
0
 40
0
 40
0
 40
1
 40
1
 40
1
 40
1
 10
0.907170
 20
274.352303
 30
0.0
 10
1.403182
 20
273.856089
 30
0.0
 10
2.076040
 20
273.577301
 30
0.0
 10
2.777650
 20
273.577300
 30
0.0
  0
LINE
  5
109
100
AcDbEntity
  8
Layer_1
 62
5
100
AcDbLine
 10
2.777650
 20
273.577300
 30
0.0
 11
2.778100
 21
273.577300
 31
0.0
  0
SPLINE
  5
10a
100
AcDbEntity
  8
Layer_1
 62
5
100
AcDbSpline
 70
8
 71
3
 72
8
 73
4
 74
0
 40
0
 40
0
 40
0
 40
0
 40
1
 40
1
 40
1
 40
1
 10
290.918520
 20
290.142364
 30
0.0
 10
291.302759
 20
290.142364
 30
0.0
 10
291.649164
 20
289.910904
 30
0.0
 10
291.796206
 20
289.555913
 30
0.0
  0
SPLINE
  5
10b
100
AcDbEntity
  8
Layer_1
 62
5
100
AcDbSpline
 70
8
 71
3
 72
8
 73
4
 74
0
 40
0
 40
0
 40
0
 40
0
 40
1
 40
1
 40
1
 40
1
 10
291.796206
 20
289.555913
 30
0.0
 10
291.943247
 20
289.200922
 30
0.0
 10
291.861970
 20
288.792310
 30
0.0
 10
291.590271
 20
288.520612
 30
0.0
  0
SPLINE
  5
10c
100
AcDbEntity
  8
Layer_1
 62
5
100
AcDbSpline
 70
8
 71
3
 72
8
 73
4
 74
0
 40
0
 40
0
 40
0
 40
0
 40
1
 40
1
 40
1
 40
1
 10
291.590271
 20
288.520612
 30
0.0
 10
291.318573
 20
288.248914
 30
0.0
 10
290.909961
 20
288.167636
 30
0.0
 10
290.554971
 20
288.314678
 30
0.0
  0
SPLINE
  5
10d
100
AcDbEntity
  8
Layer_1
 62
5
100
AcDbSpline
 70
8
 71
3
 72
8
 73
4
 74
0
 40
0
 40
0
 40
0
 40
0
 40
1
 40
1
 40
1
 40
1
 10
290.554971
 20
288.314678
 30
0.0
 10
290.199980
 20
288.461720
 30
0.0
 10
289.968520
 20
288.808125
 30
0.0
 10
289.968520
 20
289.192364
 30
0.0
  0
SPLINE
  5
10e
100
AcDbEntity
  8
Layer_1
 62
5
100
AcDbSpline
 70
8
 71
3
 72
8
 73
4
 74
0
 40
0
 40
0
 40
0
 40
0
 40
1
 40
1
 40
1
 40
1
 10
289.968520
 20
289.192364
 30
0.0
 10
289.968520
 20
289.444319
 30
0.0
 10
290.068609
 20
289.685956
 30
0.0
 10
290.246769
 20
289.864115
 30
0.0
  0
SPLINE
  5
10f
100
AcDbEntity
  8
Layer_1
 62
5
100
AcDbSpline
 70
8
 71
3
 72
8
 73
4
 74
0
 40
0
 40
0
 40
0
 40
0
 40
1
 40
1
 40
1
 40
1
 10
290.246769
 20
289.864115
 30
0.0
 10
290.424928
 20
290.042275
 30
0.0
 10
290.666564
 20
290.142364
 30
0.0
 10
290.918520
 20
290.142364
 30
0.0
  0
LINE
  5
110
100
AcDbEntity
  8
Layer_1
 62
5
100
AcDbLine
 10
290.918520
 20
290.142364
 30
0.0
 11
290.918520
 21
290.142364
 31
0.0
  0
SPLINE
  5
111
100
AcDbEntity
  8
Layer_1
 62
5
100
AcDbSpline
 70
8
 71
3
 72
8
 73
4
 74
0
 40
0
 40
0
 40
0
 40
0
 40
1
 40
1
 40
1
 40
1
 10
205.625410
 20
290.142364
 30
0.0
 10
206.009649
 20
290.142364
 30
0.0
 10
206.356054
 20
289.910904
 30
0.0
 10
206.503096
 20
289.555913
 30
0.0
  0
SPLINE
  5
112
100
AcDbEntity
  8
Layer_1
 62
5
100
AcDbSpline
 70
8
 71
3
 72
8
 73
4
 74
0
 40
0
 40
0
 40
0
 40
0
 40
1
 40
1
 40
1
 40
1
 10
206.503096
 20
289.555913
 30
0.0
 10
206.650137
 20
289.200922
 30
0.0
 10
206.568860
 20
288.792310
 30
0.0
 10
206.297161
 20
288.520612
 30
0.0
  0
SPLINE
  5
113
100
AcDbEntity
  8
Layer_1
 62
5
100
AcDbSpline
 70
8
 71
3
 72
8
 73
4
 74
0
 40
0
 40
0
 40
0
 40
0
 40
1
 40
1
 40
1
 40
1
 10
206.297161
 20
288.520612
 30
0.0
 10
206.025463
 20
288.248914
 30
0.0
 10
205.616851
 20
288.167636
 30
0.0
 10
205.261861
 20
288.314678
 30
0.0
  0
SPLINE
  5
114
100
AcDbEntity
  8
Layer_1
 62
5
100
AcDbSpline
 70
8
 71
3
 72
8
 73
4
 74
0
 40
0
 40
0
 40
0
 40
0
 40
1
 40
1
 40
1
 40
1
 10
205.261861
 20
288.314678
 30
0.0
 10
204.906870
 20
288.461720
 30
0.0
 10
204.675410
 20
288.808125
 30
0.0
 10
204.675410
 20
289.192364
 30
0.0
  0
SPLINE
  5
115
100
AcDbEntity
  8
Layer_1
 62
5
100
AcDbSpline
 70
8
 71
3
 72
8
 73
4
 74
0
 40
0
 40
0
 40
0
 40
0
 40
1
 40
1
 40
1
 40
1
 10
204.675410
 20
289.192364
 30
0.0
 10
204.675410
 20
289.717034
 30
0.0
 10
205.100739
 20
290.142364
 30
0.0
 10
205.625410
 20
290.142364
 30
0.0
  0
LINE
  5
116
100
AcDbEntity
  8
Layer_1
 62
5
100
AcDbLine
 10
205.625410
 20
290.142364
 30
0.0
 11
205.625410
 21
290.142364
 31
0.0
  0
SPLINE
  5
117
100
AcDbEntity
  8
Layer_1
 62
5
100
AcDbSpline
 70
8
 71
3
 72
8
 73
4
 74
0
 40
0
 40
0
 40
0
 40
0
 40
1
 40
1
 40
1
 40
1
 10
6.227955
 20
290.142364
 30
0.0
 10
6.612194
 20
290.142364
 30
0.0
 10
6.958599
 20
289.910904
 30
0.0
 10
7.105641
 20
289.555913
 30
0.0
  0
SPLINE
  5
118
100
AcDbEntity
  8
Layer_1
 62
5
100
AcDbSpline
 70
8
 71
3
 72
8
 73
4
 74
0
 40
0
 40
0
 40
0
 40
0
 40
1
 40
1
 40
1
 40
1
 10
7.105641
 20
289.555913
 30
0.0
 10
7.252683
 20
289.200922
 30
0.0
 10
7.171405
 20
288.792310
 30
0.0
 10
6.899707
 20
288.520612
 30
0.0
  0
SPLINE
  5
119
100
AcDbEntity
  8
Layer_1
 62
5
100
AcDbSpline
 70
8
 71
3
 72
8
 73
4
 74
0
 40
0
 40
0
 40
0
 40
0
 40
1
 40
1
 40
1
 40
1
 10
6.899707
 20
288.520612
 30
0.0
 10
6.628009
 20
288.248914
 30
0.0
 10
6.219397
 20
288.167636
 30
0.0
 10
5.864406
 20
288.314678
 30
0.0
  0
SPLINE
  5
11a
100
AcDbEntity
  8
Layer_1
 62
5
100
AcDbSpline
 70
8
 71
3
 72
8
 73
4
 74
0
 40
0
 40
0
 40
0
 40
0
 40
1
 40
1
 40
1
 40
1
 10
5.864406
 20
288.314678
 30
0.0
 10
5.509415
 20
288.461720
 30
0.0
 10
5.277955
 20
288.808125
 30
0.0
 10
5.277955
 20
289.192364
 30
0.0
  0
SPLINE
  5
11b
100
AcDbEntity
  8
Layer_1
 62
5
100
AcDbSpline
 70
8
 71
3
 72
8
 73
4
 74
0
 40
0
 40
0
 40
0
 40
0
 40
1
 40
1
 40
1
 40
1
 10
5.277955
 20
289.192364
 30
0.0
 10
5.277955
 20
289.444319
 30
0.0
 10
5.378044
 20
289.685956
 30
0.0
 10
5.556204
 20
289.864115
 30
0.0
  0
SPLINE
  5
11c
100
AcDbEntity
  8
Layer_1
 62
5
100
AcDbSpline
 70
8
 71
3
 72
8
 73
4
 74
0
 40
0
 40
0
 40
0
 40
0
 40
1
 40
1
 40
1
 40
1
 10
5.556204
 20
289.864115
 30
0.0
 10
5.734363
 20
290.042275
 30
0.0
 10
5.976000
 20
290.142364
 30
0.0
 10
6.227955
 20
290.142364
 30
0.0
  0
LINE
  5
11d
100
AcDbEntity
  8
Layer_1
 62
5
100
AcDbLine
 10
6.227955
 20
290.142364
 30
0.0
 11
6.227955
 21
290.142364
 31
0.0
  0
SPLINE
  5
11e
100
AcDbEntity
  8
Layer_1
 62
5
100
AcDbSpline
 70
8
 71
3
 72
8
 73
4
 74
0
 40
0
 40
0
 40
0
 40
0
 40
1
 40
1
 40
1
 40
1
 10
124.320550
 20
290.142364
 30
0.0
 10
124.704789
 20
290.142364
 30
0.0
 10
125.051194
 20
289.910904
 30
0.0
 10
125.198236
 20
289.555913
 30
0.0
  0
SPLINE
  5
11f
100
AcDbEntity
  8
Layer_1
 62
5
100
AcDbSpline
 70
8
 71
3
 72
8
 73
4
 74
0
 40
0
 40
0
 40
0
 40
0
 40
1
 40
1
 40
1
 40
1
 10
125.198236
 20
289.555913
 30
0.0
 10
125.345277
 20
289.200922
 30
0.0
 10
125.264000
 20
288.792310
 30
0.0
 10
124.992301
 20
288.520612
 30
0.0
  0
SPLINE
  5
120
100
AcDbEntity
  8
Layer_1
 62
5
100
AcDbSpline
 70
8
 71
3
 72
8
 73
4
 74
0
 40
0
 40
0
 40
0
 40
0
 40
1
 40
1
 40
1
 40
1
 10
124.992301
 20
288.520612
 30
0.0
 10
124.720603
 20
288.248914
 30
0.0
 10
124.311991
 20
288.167636
 30
0.0
 10
123.957001
 20
288.314678
 30
0.0
  0
SPLINE
  5
121
100
AcDbEntity
  8
Layer_1
 62
5
100
AcDbSpline
 70
8
 71
3
 72
8
 73
4
 74
0
 40
0
 40
0
 40
0
 40
0
 40
1
 40
1
 40
1
 40
1
 10
123.957001
 20
288.314678
 30
0.0
 10
123.602010
 20
288.461720
 30
0.0
 10
123.370550
 20
288.808125
 30
0.0
 10
123.370550
 20
289.192364
 30
0.0
  0
SPLINE
  5
122
100
AcDbEntity
  8
Layer_1
 62
5
100
AcDbSpline
 70
8
 71
3
 72
8
 73
4
 74
0
 40
0
 40
0
 40
0
 40
0
 40
1
 40
1
 40
1
 40
1
 10
123.370550
 20
289.192364
 30
0.0
 10
123.370550
 20
289.444319
 30
0.0
 10
123.470639
 20
289.685956
 30
0.0
 10
123.648799
 20
289.864115
 30
0.0
  0
SPLINE
  5
123
100
AcDbEntity
  8
Layer_1
 62
5
100
AcDbSpline
 70
8
 71
3
 72
8
 73
4
 74
0
 40
0
 40
0
 40
0
 40
0
 40
1
 40
1
 40
1
 40
1
 10
123.648799
 20
289.864115
 30
0.0
 10
123.826958
 20
290.042275
 30
0.0
 10
124.068594
 20
290.142364
 30
0.0
 10
124.320550
 20
290.142364
 30
0.0
  0
LINE
  5
124
100
AcDbEntity
  8
Layer_1
 62
5
100
AcDbLine
 10
124.320550
 20
290.142364
 30
0.0
 11
124.320550
 21
290.142364
 31
0.0
  0
SPLINE
  5
125
100
AcDbEntity
  8
Layer_1
 62
5
100
AcDbSpline
 70
8
 71
3
 72
8
 73
4
 74
0
 40
0
 40
0
 40
0
 40
0
 40
1
 40
1
 40
1
 40
1
 10
39.084827
 20
290.142364
 30
0.0
 10
39.469066
 20
290.142364
 30
0.0
 10
39.815471
 20
289.910904
 30
0.0
 10
39.962513
 20
289.555913
 30
0.0
  0
SPLINE
  5
126
100
AcDbEntity
  8
Layer_1
 62
5
100
AcDbSpline
 70
8
 71
3
 72
8
 73
4
 74
0
 40
0
 40
0
 40
0
 40
0
 40
1
 40
1
 40
1
 40
1
 10
39.962513
 20
289.555913
 30
0.0
 10
40.109554
 20
289.200922
 30
0.0
 10
40.028277
 20
288.792310
 30
0.0
 10
39.756578
 20
288.520612
 30
0.0
  0
SPLINE
  5
127
100
AcDbEntity
  8
Layer_1
 62
5
100
AcDbSpline
 70
8
 71
3
 72
8
 73
4
 74
0
 40
0
 40
0
 40
0
 40
0
 40
1
 40
1
 40
1
 40
1
 10
39.756578
 20
288.520612
 30
0.0
 10
39.484880
 20
288.248914
 30
0.0
 10
39.076268
 20
288.167636
 30
0.0
 10
38.721278
 20
288.314678
 30
0.0
  0
SPLINE
  5
128
100
AcDbEntity
  8
Layer_1
 62
5
100
AcDbSpline
 70
8
 71
3
 72
8
 73
4
 74
0
 40
0
 40
0
 40
0
 40
0
 40
1
 40
1
 40
1
 40
1
 10
38.721278
 20
288.314678
 30
0.0
 10
38.366287
 20
288.461720
 30
0.0
 10
38.134827
 20
288.808125
 30
0.0
 10
38.134827
 20
289.192364
 30
0.0
  0
SPLINE
  5
129
100
AcDbEntity
  8
Layer_1
 62
5
100
AcDbSpline
 70
8
 71
3
 72
8
 73
4
 74
0
 40
0
 40
0
 40
0
 40
0
 40
1
 40
1
 40
1
 40
1
 10
38.134827
 20
289.192364
 30
0.0
 10
38.134827
 20
289.717034
 30
0.0
 10
38.560156
 20
290.142364
 30
0.0
 10
39.084827
 20
290.142364
 30
0.0
  0
LINE
  5
12a
100
AcDbEntity
  8
Layer_1
 62
5
100
AcDbLine
 10
39.084827
 20
290.142364
 30
0.0
 11
39.084827
 21
290.142364
 31
0.0
  0
SPLINE
  5
12b
100
AcDbEntity
  8
Layer_1
 62
5
100
AcDbSpline
 70
8
 71
3
 72
8
 73
4
 74
0
 40
0
 40
0
 40
0
 40
0
 40
1
 40
1
 40
1
 40
1
 10
13.771596
 20
281.039336
 30
0.0
 10
13.387357
 20
281.039336
 30
0.0
 10
13.040952
 20
280.807876
 30
0.0
 10
12.893910
 20
280.452885
 30
0.0
  0
SPLINE
  5
12c
100
AcDbEntity
  8
Layer_1
 62
5
100
AcDbSpline
 70
8
 71
3
 72
8
 73
4
 74
0
 40
0
 40
0
 40
0
 40
0
 40
1
 40
1
 40
1
 40
1
 10
12.893910
 20
280.452885
 30
0.0
 10
12.746869
 20
280.097895
 30
0.0
 10
12.828146
 20
279.689283
 30
0.0
 10
13.099845
 20
279.417585
 30
0.0
  0
SPLINE
  5
12d
100
AcDbEntity
  8
Layer_1
 62
5
100
AcDbSpline
 70
8
 71
3
 72
8
 73
4
 74
0
 40
0
 40
0
 40
0
 40
0
 40
1
 40
1
 40
1
 40
1
 10
13.099845
 20
279.417585
 30
0.0
 10
13.371543
 20
279.145886
 30
0.0
 10
13.780155
 20
279.064609
 30
0.0
 10
14.135145
 20
279.211650
 30
0.0
  0
SPLINE
  5
12e
100
AcDbEntity
  8
Layer_1
 62
5
100
AcDbSpline
 70
8
 71
3
 72
8
 73
4
 74
0
 40
0
 40
0
 40
0
 40
0
 40
1
 40
1
 40
1
 40
1
 10
14.135145
 20
279.211650
 30
0.0
 10
14.490136
 20
279.358692
 30
0.0
 10
14.721596
 20
279.705097
 30
0.0
 10
14.721596
 20
280.089336
 30
0.0
  0
SPLINE
  5
12f
100
AcDbEntity
  8
Layer_1
 62
5
100
AcDbSpline
 70
8
 71
3
 72
8
 73
4
 74
0
 40
0
 40
0
 40
0
 40
0
 40
1
 40
1
 40
1
 40
1
 10
14.721596
 20
280.089336
 30
0.0
 10
14.721596
 20
280.341292
 30
0.0
 10
14.621507
 20
280.582928
 30
0.0
 10
14.443347
 20
280.761087
 30
0.0
  0
SPLINE
  5
130
100
AcDbEntity
  8
Layer_1
 62
5
100
AcDbSpline
 70
8
 71
3
 72
8
 73
4
 74
0
 40
0
 40
0
 40
0
 40
0
 40
1
 40
1
 40
1
 40
1
 10
14.443347
 20
280.761087
 30
0.0
 10
14.265188
 20
280.939247
 30
0.0
 10
14.023552
 20
281.039336
 30
0.0
 10
13.771596
 20
281.039336
 30
0.0
  0
LINE
  5
131
100
AcDbEntity
  8
Layer_1
 62
5
100
AcDbLine
 10
13.771596
 20
281.039336
 30
0.0
 11
13.771596
 21
281.039336
 31
0.0
  0
SPLINE
  5
132
100
AcDbEntity
  8
Layer_1
 62
5
100
AcDbSpline
 70
8
 71
3
 72
8
 73
4
 74
0
 40
0
 40
0
 40
0
 40
0
 40
1
 40
1
 40
1
 40
1
 10
31.549000
 20
281.039336
 30
0.0
 10
31.164761
 20
281.039336
 30
0.0
 10
30.818356
 20
280.807876
 30
0.0
 10
30.671314
 20
280.452885
 30
0.0
  0
SPLINE
  5
133
100
AcDbEntity
  8
Layer_1
 62
5
100
AcDbSpline
 70
8
 71
3
 72
8
 73
4
 74
0
 40
0
 40
0
 40
0
 40
0
 40
1
 40
1
 40
1
 40
1
 10
30.671314
 20
280.452885
 30
0.0
 10
30.524273
 20
280.097895
 30
0.0
 10
30.605550
 20
279.689283
 30
0.0
 10
30.877249
 20
279.417585
 30
0.0
  0
SPLINE
  5
134
100
AcDbEntity
  8
Layer_1
 62
5
100
AcDbSpline
 70
8
 71
3
 72
8
 73
4
 74
0
 40
0
 40
0
 40
0
 40
0
 40
1
 40
1
 40
1
 40
1
 10
30.877249
 20
279.417585
 30
0.0
 10
31.148947
 20
279.145886
 30
0.0
 10
31.557559
 20
279.064609
 30
0.0
 10
31.912549
 20
279.211650
 30
0.0
  0
SPLINE
  5
135
100
AcDbEntity
  8
Layer_1
 62
5
100
AcDbSpline
 70
8
 71
3
 72
8
 73
4
 74
0
 40
0
 40
0
 40
0
 40
0
 40
1
 40
1
 40
1
 40
1
 10
31.912549
 20
279.211650
 30
0.0
 10
32.267540
 20
279.358692
 30
0.0
 10
32.499000
 20
279.705097
 30
0.0
 10
32.499000
 20
280.089336
 30
0.0
  0
SPLINE
  5
136
100
AcDbEntity
  8
Layer_1
 62
5
100
AcDbSpline
 70
8
 71
3
 72
8
 73
4
 74
0
 40
0
 40
0
 40
0
 40
0
 40
1
 40
1
 40
1
 40
1
 10
32.499000
 20
280.089336
 30
0.0
 10
32.499000
 20
280.341292
 30
0.0
 10
32.398911
 20
280.582928
 30
0.0
 10
32.220751
 20
280.761087
 30
0.0
  0
SPLINE
  5
137
100
AcDbEntity
  8
Layer_1
 62
5
100
AcDbSpline
 70
8
 71
3
 72
8
 73
4
 74
0
 40
0
 40
0
 40
0
 40
0
 40
1
 40
1
 40
1
 40
1
 10
32.220751
 20
280.761087
 30
0.0
 10
32.042592
 20
280.939247
 30
0.0
 10
31.800956
 20
281.039336
 30
0.0
 10
31.549000
 20
281.039336
 30
0.0
  0
LINE
  5
138
100
AcDbEntity
  8
Layer_1
 62
5
100
AcDbLine
 10
31.549000
 20
281.039336
 30
0.0
 11
31.549000
 21
281.039336
 31
0.0
  0
ENDSEC
  0
SECTION
  2
OBJECTS
  0
DICTIONARY
  5
C
330
0
100
AcDbDictionary
  3
ACAD_GROUP
350
D
  3
ACAD_MLINESTYLE
350
17
  0
DICTIONARY
  5
D
330
C
100
AcDbDictionary
  0
DICTIONARY
  5
1A
330
C
100
AcDbDictionary
  0
DICTIONARY
  5
17
330
C
100
AcDbDictionary
  3
STANDARD
350
18
  0
DICTIONARY
  5
19
330
C
100
AcDbDictionary
  0
ENDSEC
  0
EOF
