  0
SECTION
  2
HEADER
  9
$ACADVER
  1
AC1014
  9
$HANDSEED
  5
FFFF
  9
$INSUNITS
 70
     0
  9
$MEASUREMENT
 70
     1
  0
ENDSEC
  0
SECTION
  2
TABLES
  0
TABLE
  2
VPORT
  5
8
330
0
100
AcDbSymbolTable
 70
     4
  0
VPORT
  5
2E
330
8
100
AcDbSymbolTableRecord
100
AcDbViewportTableRecord
  2
*ACTIVE
 70
     0
 10
0.0
 20
0.0
 11
1.0
 21
1.0
 12
210.0
 22
148.5
 13
0.0
 23
0.0
 14
10.0
 24
10.0
 15
10.0
 25
10.0
 16
0.0
 26
0.0
 36
1.0
 17
0.0
 27
0.0
 37
0.0
 40
341.0
 41
1.24
 42
50.0
 43
0.0
 44
0.0
 50
0.0
 51
0.0
 71
     0
 72
   100
 73
     1
 74
     3
 75
     0
 76
     0
 77
     0
 78
     0
  0
ENDTAB
  0
TABLE
  2
LTYPE
  5
5
330
0
100
AcDbSymbolTable
 70
     1
  0
LTYPE
  5
14
330
5
100
AcDbSymbolTableRecord
100
AcDbLinetypeTableRecord
  2
BYBLOCK
 70
     0
  3

 72
    65
 73
     0
 40
0.0
  0
LTYPE
  5
15
330
5
100
AcDbSymbolTableRecord
100
AcDbLinetypeTableRecord
  2
BYLAYER
 70
     0
  3

 72
    65
 73
     0
 40
0.0
  0
LTYPE
  5
16
330
5
100
AcDbSymbolTableRecord
100
AcDbLinetypeTableRecord
  2
CONTINUOUS
 70
     0
  3
Solid line
 72
    65
 73
     0
 40
0.0
  0
ENDTAB
  0
TABLE
  2
LAYER
  5
2
100
AcDbSymbolTable
 70
2
  0
LAYER
  5
50
100
AcDbSymbolTableRecord
100
AcDbLayerTableRecord
  2
0
 70
0
  6
CONTINUOUS
  0
LAYER
  5
51
100
AcDbSymbolTableRecord
100
AcDbLayerTableRecord
  2
Layer_1
 70
0
  6
CONTINUOUS
  0
ENDTAB
  0
TABLE
  2
STYLE
  5
3
330
0
100
AcDbSymbolTable
 70
     1
  0
STYLE
  5
11
330
3
100
AcDbSymbolTableRecord
100
AcDbTextStyleTableRecord
  2
STANDARD
 70
     0
 40
0.0
 41
1.0
 50
0.0
 71
     0
 42
2.5
  3
txt
  4

  0
ENDTAB
  0
TABLE
  2
VIEW
  5
6
330
0
100
AcDbSymbolTable
 70
     0
  0
ENDTAB
  0
TABLE
  2
UCS
  5
7
330
0
100
AcDbSymbolTable
 70
     0
  0
ENDTAB
  0
TABLE
  2
APPID
  5
9
330
0
100
AcDbSymbolTable
 70
     2
  0
APPID
  5
12
330
9
100
AcDbSymbolTableRecord
100
AcDbRegAppTableRecord
  2
ACAD
 70
     0
  0
ENDTAB
  0
TABLE
  2
DIMSTYLE
  5
A
330
0
100
AcDbSymbolTable
 70
     1
  0
DIMSTYLE
105
27
330
A
100
AcDbSymbolTableRecord
100
AcDbDimStyleTableRecord
  2
ISO-25
 70
     0
  3

  4

  5

  6

  7

 40
1.0
 41
2.5
 42
0.625
 43
3.75
 44
1.25
 45
0.0
 46
0.0
 47
0.0
 48
0.0
140
2.5
141
2.5
142
0.0
143
0.03937007874016
144
1.0
145
0.0
146
1.0
147
0.625
 71
     0
 72
     0
 73
     0
 74
     0
 75
     0
 76
     0
 77
     1
 78
     8
170
     0
171
     3
172
     1
173
     0
174
     0
175
     0
176
     0
177
     0
178
     0
270
     2
271
     2
272
     2
273
     2
274
     3
340
11
275
     0
280
     0
281
     0
282
     0
283
     0
284
     8
285
     0
286
     0
287
     3
288
     0
  0
ENDTAB
  0
TABLE
  2
BLOCK_RECORD
  5
1
330
0
100
AcDbSymbolTable
 70
     1
  0
BLOCK_RECORD
  5
1F
330
1
100
AcDbSymbolTableRecord
100
AcDbBlockTableRecord
  2
*MODEL_SPACE
  0
BLOCK_RECORD
  5
1B
330
1
100
AcDbSymbolTableRecord
100
AcDbBlockTableRecord
  2
*PAPER_SPACE
  0
ENDTAB
  0
ENDSEC
  0
SECTION
  2
BLOCKS
  0
BLOCK
  5
20
330
1F
100
AcDbEntity
  8
0
100
AcDbBlockBegin
  2
*MODEL_SPACE
 70
     0
 10
0.0
 20
0.0
 30
0.0
  3
*MODEL_SPACE
  1

  0
ENDBLK
  5
21
330
1F
100
AcDbEntity
  8
0
100
AcDbBlockEnd
  0
BLOCK
  5
1C
330
1B
100
AcDbEntity
 67
     1
  8
0
100
AcDbBlockBegin
  2
*PAPER_SPACE
  1

  0
ENDBLK
  5
1D
330
1B
100
AcDbEntity
 67
     1
  8
0
100
AcDbBlockEnd
  0
ENDSEC
  0
SECTION
  2
ENTITIES
  0
LINE
  5
100
100
AcDbEntity
  8
Layer_1
 62
1
100
AcDbLine
 10
162.969540
 20
280.580609
 30
0.0
 11
175.969540
 21
280.580609
 31
0.0
  0
SPLINE
  5
101
100
AcDbEntity
  8
Layer_1
 62
1
100
AcDbSpline
 70
8
 71
3
 72
8
 73
4
 74
0
 40
0
 40
0
 40
0
 40
0
 40
1
 40
1
 40
1
 40
1
 10
175.969540
 20
280.580609
 30
0.0
 10
176.102148
 20
280.580609
 30
0.0
 10
176.229325
 20
280.527931
 30
0.0
 10
176.323093
 20
280.434162
 30
0.0
  0
SPLINE
  5
102
100
AcDbEntity
  8
Layer_1
 62
1
100
AcDbSpline
 70
8
 71
3
 72
8
 73
4
 74
0
 40
0
 40
0
 40
0
 40
0
 40
1
 40
1
 40
1
 40
1
 10
176.323093
 20
280.434162
 30
0.0
 10
176.416862
 20
280.340394
 30
0.0
 10
176.469540
 20
280.213217
 30
0.0
 10
176.469540
 20
280.080609
 30
0.0
  0
LINE
  5
103
100
AcDbEntity
  8
Layer_1
 62
1
100
AcDbLine
 10
176.469540
 20
280.080609
 30
0.0
 11
176.469540
 21
267.080609
 31
0.0
  0
SPLINE
  5
104
100
AcDbEntity
  8
Layer_1
 62
1
100
AcDbSpline
 70
8
 71
3
 72
8
 73
4
 74
0
 40
0
 40
0
 40
0
 40
0
 40
1
 40
1
 40
1
 40
1
 10
176.469540
 20
267.080609
 30
0.0
 10
176.469540
 20
266.948001
 30
0.0
 10
176.416862
 20
266.820824
 30
0.0
 10
176.323093
 20
266.727056
 30
0.0
  0
SPLINE
  5
105
100
AcDbEntity
  8
Layer_1
 62
1
100
AcDbSpline
 70
8
 71
3
 72
8
 73
4
 74
0
 40
0
 40
0
 40
0
 40
0
 40
1
 40
1
 40
1
 40
1
 10
176.323093
 20
266.727056
 30
0.0
 10
176.229325
 20
266.633287
 30
0.0
 10
176.102148
 20
266.580609
 30
0.0
 10
175.969540
 20
266.580609
 30
0.0
  0
LINE
  5
106
100
AcDbEntity
  8
Layer_1
 62
1
100
AcDbLine
 10
175.969540
 20
266.580609
 30
0.0
 11
162.969540
 21
266.580609
 31
0.0
  0
SPLINE
  5
107
100
AcDbEntity
  8
Layer_1
 62
1
100
AcDbSpline
 70
8
 71
3
 72
8
 73
4
 74
0
 40
0
 40
0
 40
0
 40
0
 40
1
 40
1
 40
1
 40
1
 10
162.969540
 20
266.580609
 30
0.0
 10
162.836932
 20
266.580609
 30
0.0
 10
162.709755
 20
266.633287
 30
0.0
 10
162.615987
 20
266.727056
 30
0.0
  0
SPLINE
  5
108
100
AcDbEntity
  8
Layer_1
 62
1
100
AcDbSpline
 70
8
 71
3
 72
8
 73
4
 74
0
 40
0
 40
0
 40
0
 40
0
 40
1
 40
1
 40
1
 40
1
 10
162.615987
 20
266.727056
 30
0.0
 10
162.522218
 20
266.820824
 30
0.0
 10
162.469540
 20
266.948001
 30
0.0
 10
162.469540
 20
267.080609
 30
0.0
  0
LINE
  5
109
100
AcDbEntity
  8
Layer_1
 62
1
100
AcDbLine
 10
162.469540
 20
267.080609
 30
0.0
 11
162.469540
 21
280.080609
 31
0.0
  0
SPLINE
  5
10a
100
AcDbEntity
  8
Layer_1
 62
1
100
AcDbSpline
 70
8
 71
3
 72
8
 73
4
 74
0
 40
0
 40
0
 40
0
 40
0
 40
1
 40
1
 40
1
 40
1
 10
162.469540
 20
280.080609
 30
0.0
 10
162.469540
 20
280.213217
 30
0.0
 10
162.522218
 20
280.340394
 30
0.0
 10
162.615987
 20
280.434162
 30
0.0
  0
SPLINE
  5
10b
100
AcDbEntity
  8
Layer_1
 62
1
100
AcDbSpline
 70
8
 71
3
 72
8
 73
4
 74
0
 40
0
 40
0
 40
0
 40
0
 40
1
 40
1
 40
1
 40
1
 10
162.615987
 20
280.434162
 30
0.0
 10
162.709755
 20
280.527931
 30
0.0
 10
162.836932
 20
280.580609
 30
0.0
 10
162.969540
 20
280.580609
 30
0.0
  0
LINE
  5
10c
100
AcDbEntity
  8
Layer_1
 62
1
100
AcDbLine
 10
162.969540
 20
280.580609
 30
0.0
 11
162.969540
 21
280.580609
 31
0.0
  0
LINE
  5
10d
100
AcDbEntity
  8
Layer_1
 62
1
100
AcDbLine
 10
101.057530
 20
242.480609
 30
0.0
 11
114.057540
 21
242.480609
 31
0.0
  0
SPLINE
  5
10e
100
AcDbEntity
  8
Layer_1
 62
1
100
AcDbSpline
 70
8
 71
3
 72
8
 73
4
 74
0
 40
0
 40
0
 40
0
 40
0
 40
1
 40
1
 40
1
 40
1
 10
114.057540
 20
242.480609
 30
0.0
 10
114.190148
 20
242.480609
 30
0.0
 10
114.317325
 20
242.427931
 30
0.0
 10
114.411093
 20
242.334162
 30
0.0
  0
SPLINE
  5
10f
100
AcDbEntity
  8
Layer_1
 62
1
100
AcDbSpline
 70
8
 71
3
 72
8
 73
4
 74
0
 40
0
 40
0
 40
0
 40
0
 40
1
 40
1
 40
1
 40
1
 10
114.411093
 20
242.334162
 30
0.0
 10
114.504862
 20
242.240394
 30
0.0
 10
114.557540
 20
242.113217
 30
0.0
 10
114.557540
 20
241.980609
 30
0.0
  0
LINE
  5
110
100
AcDbEntity
  8
Layer_1
 62
1
100
AcDbLine
 10
114.557540
 20
241.980609
 30
0.0
 11
114.557540
 21
228.980609
 31
0.0
  0
SPLINE
  5
111
100
AcDbEntity
  8
Layer_1
 62
1
100
AcDbSpline
 70
8
 71
3
 72
8
 73
4
 74
0
 40
0
 40
0
 40
0
 40
0
 40
1
 40
1
 40
1
 40
1
 10
114.557540
 20
228.980609
 30
0.0
 10
114.557540
 20
228.848001
 30
0.0
 10
114.504862
 20
228.720824
 30
0.0
 10
114.411093
 20
228.627056
 30
0.0
  0
SPLINE
  5
112
100
AcDbEntity
  8
Layer_1
 62
1
100
AcDbSpline
 70
8
 71
3
 72
8
 73
4
 74
0
 40
0
 40
0
 40
0
 40
0
 40
1
 40
1
 40
1
 40
1
 10
114.411093
 20
228.627056
 30
0.0
 10
114.317325
 20
228.533287
 30
0.0
 10
114.190148
 20
228.480609
 30
0.0
 10
114.057540
 20
228.480609
 30
0.0
  0
LINE
  5
113
100
AcDbEntity
  8
Layer_1
 62
1
100
AcDbLine
 10
114.057540
 20
228.480609
 30
0.0
 11
101.057530
 21
228.480609
 31
0.0
  0
SPLINE
  5
114
100
AcDbEntity
  8
Layer_1
 62
1
100
AcDbSpline
 70
8
 71
3
 72
8
 73
4
 74
0
 40
0
 40
0
 40
0
 40
0
 40
1
 40
1
 40
1
 40
1
 10
101.057530
 20
228.480609
 30
0.0
 10
100.924922
 20
228.480609
 30
0.0
 10
100.797745
 20
228.533287
 30
0.0
 10
100.703977
 20
228.627056
 30
0.0
  0
SPLINE
  5
115
100
AcDbEntity
  8
Layer_1
 62
1
100
AcDbSpline
 70
8
 71
3
 72
8
 73
4
 74
0
 40
0
 40
0
 40
0
 40
0
 40
1
 40
1
 40
1
 40
1
 10
100.703977
 20
228.627056
 30
0.0
 10
100.610208
 20
228.720824
 30
0.0
 10
100.557530
 20
228.848001
 30
0.0
 10
100.557530
 20
228.980609
 30
0.0
  0
LINE
  5
116
100
AcDbEntity
  8
Layer_1
 62
1
100
AcDbLine
 10
100.557530
 20
228.980609
 30
0.0
 11
100.557530
 21
241.980609
 31
0.0
  0
SPLINE
  5
117
100
AcDbEntity
  8
Layer_1
 62
1
100
AcDbSpline
 70
8
 71
3
 72
8
 73
4
 74
0
 40
0
 40
0
 40
0
 40
0
 40
1
 40
1
 40
1
 40
1
 10
100.557530
 20
241.980609
 30
0.0
 10
100.557530
 20
242.113217
 30
0.0
 10
100.610208
 20
242.240394
 30
0.0
 10
100.703977
 20
242.334162
 30
0.0
  0
SPLINE
  5
118
100
AcDbEntity
  8
Layer_1
 62
1
100
AcDbSpline
 70
8
 71
3
 72
8
 73
4
 74
0
 40
0
 40
0
 40
0
 40
0
 40
1
 40
1
 40
1
 40
1
 10
100.703977
 20
242.334162
 30
0.0
 10
100.797745
 20
242.427931
 30
0.0
 10
100.924922
 20
242.480609
 30
0.0
 10
101.057530
 20
242.480609
 30
0.0
  0
LINE
  5
119
100
AcDbEntity
  8
Layer_1
 62
1
100
AcDbLine
 10
101.057530
 20
242.480609
 30
0.0
 11
101.057530
 21
242.480609
 31
0.0
  0
LINE
  5
11a
100
AcDbEntity
  8
Layer_1
 62
1
100
AcDbLine
 10
265.363530
 20
280.580609
 30
0.0
 11
278.363530
 21
280.580609
 31
0.0
  0
SPLINE
  5
11b
100
AcDbEntity
  8
Layer_1
 62
1
100
AcDbSpline
 70
8
 71
3
 72
8
 73
4
 74
0
 40
0
 40
0
 40
0
 40
0
 40
1
 40
1
 40
1
 40
1
 10
278.363530
 20
280.580609
 30
0.0
 10
278.496138
 20
280.580609
 30
0.0
 10
278.623315
 20
280.527931
 30
0.0
 10
278.717083
 20
280.434162
 30
0.0
  0
SPLINE
  5
11c
100
AcDbEntity
  8
Layer_1
 62
1
100
AcDbSpline
 70
8
 71
3
 72
8
 73
4
 74
0
 40
0
 40
0
 40
0
 40
0
 40
1
 40
1
 40
1
 40
1
 10
278.717083
 20
280.434162
 30
0.0
 10
278.810852
 20
280.340394
 30
0.0
 10
278.863530
 20
280.213217
 30
0.0
 10
278.863530
 20
280.080609
 30
0.0
  0
LINE
  5
11d
100
AcDbEntity
  8
Layer_1
 62
1
100
AcDbLine
 10
278.863530
 20
280.080609
 30
0.0
 11
278.863530
 21
267.080609
 31
0.0
  0
SPLINE
  5
11e
100
AcDbEntity
  8
Layer_1
 62
1
100
AcDbSpline
 70
8
 71
3
 72
8
 73
4
 74
0
 40
0
 40
0
 40
0
 40
0
 40
1
 40
1
 40
1
 40
1
 10
278.863530
 20
267.080609
 30
0.0
 10
278.863530
 20
266.948001
 30
0.0
 10
278.810852
 20
266.820824
 30
0.0
 10
278.717083
 20
266.727056
 30
0.0
  0
SPLINE
  5
11f
100
AcDbEntity
  8
Layer_1
 62
1
100
AcDbSpline
 70
8
 71
3
 72
8
 73
4
 74
0
 40
0
 40
0
 40
0
 40
0
 40
1
 40
1
 40
1
 40
1
 10
278.717083
 20
266.727056
 30
0.0
 10
278.623315
 20
266.633287
 30
0.0
 10
278.496138
 20
266.580609
 30
0.0
 10
278.363530
 20
266.580609
 30
0.0
  0
LINE
  5
120
100
AcDbEntity
  8
Layer_1
 62
1
100
AcDbLine
 10
278.363530
 20
266.580609
 30
0.0
 11
265.363530
 21
266.580609
 31
0.0
  0
SPLINE
  5
121
100
AcDbEntity
  8
Layer_1
 62
1
100
AcDbSpline
 70
8
 71
3
 72
8
 73
4
 74
0
 40
0
 40
0
 40
0
 40
0
 40
1
 40
1
 40
1
 40
1
 10
265.363530
 20
266.580609
 30
0.0
 10
265.230922
 20
266.580609
 30
0.0
 10
265.103745
 20
266.633287
 30
0.0
 10
265.009977
 20
266.727056
 30
0.0
  0
SPLINE
  5
122
100
AcDbEntity
  8
Layer_1
 62
1
100
AcDbSpline
 70
8
 71
3
 72
8
 73
4
 74
0
 40
0
 40
0
 40
0
 40
0
 40
1
 40
1
 40
1
 40
1
 10
265.009977
 20
266.727056
 30
0.0
 10
264.916208
 20
266.820824
 30
0.0
 10
264.863530
 20
266.948001
 30
0.0
 10
264.863530
 20
267.080609
 30
0.0
  0
LINE
  5
123
100
AcDbEntity
  8
Layer_1
 62
1
100
AcDbLine
 10
264.863530
 20
267.080609
 30
0.0
 11
264.863530
 21
280.080609
 31
0.0
  0
SPLINE
  5
124
100
AcDbEntity
  8
Layer_1
 62
1
100
AcDbSpline
 70
8
 71
3
 72
8
 73
4
 74
0
 40
0
 40
0
 40
0
 40
0
 40
1
 40
1
 40
1
 40
1
 10
264.863530
 20
280.080609
 30
0.0
 10
264.863530
 20
280.213217
 30
0.0
 10
264.916208
 20
280.340394
 30
0.0
 10
265.009977
 20
280.434162
 30
0.0
  0
SPLINE
  5
125
100
AcDbEntity
  8
Layer_1
 62
1
100
AcDbSpline
 70
8
 71
3
 72
8
 73
4
 74
0
 40
0
 40
0
 40
0
 40
0
 40
1
 40
1
 40
1
 40
1
 10
265.009977
 20
280.434162
 30
0.0
 10
265.103745
 20
280.527931
 30
0.0
 10
265.230922
 20
280.580609
 30
0.0
 10
265.363530
 20
280.580609
 30
0.0
  0
LINE
  5
126
100
AcDbEntity
  8
Layer_1
 62
1
100
AcDbLine
 10
265.363530
 20
280.580609
 30
0.0
 11
265.363530
 21
280.580609
 31
0.0
  0
LINE
  5
127
100
AcDbEntity
  8
Layer_1
 62
1
100
AcDbLine
 10
239.169540
 20
280.580609
 30
0.0
 11
252.169530
 21
280.580609
 31
0.0
  0
SPLINE
  5
128
100
AcDbEntity
  8
Layer_1
 62
1
100
AcDbSpline
 70
8
 71
3
 72
8
 73
4
 74
0
 40
0
 40
0
 40
0
 40
0
 40
1
 40
1
 40
1
 40
1
 10
252.169530
 20
280.580609
 30
0.0
 10
252.302138
 20
280.580609
 30
0.0
 10
252.429315
 20
280.527931
 30
0.0
 10
252.523083
 20
280.434162
 30
0.0
  0
SPLINE
  5
129
100
AcDbEntity
  8
Layer_1
 62
1
100
AcDbSpline
 70
8
 71
3
 72
8
 73
4
 74
0
 40
0
 40
0
 40
0
 40
0
 40
1
 40
1
 40
1
 40
1
 10
252.523083
 20
280.434162
 30
0.0
 10
252.616852
 20
280.340394
 30
0.0
 10
252.669530
 20
280.213217
 30
0.0
 10
252.669530
 20
280.080609
 30
0.0
  0
LINE
  5
12a
100
AcDbEntity
  8
Layer_1
 62
1
100
AcDbLine
 10
252.669530
 20
280.080609
 30
0.0
 11
252.669530
 21
267.080609
 31
0.0
  0
SPLINE
  5
12b
100
AcDbEntity
  8
Layer_1
 62
1
100
AcDbSpline
 70
8
 71
3
 72
8
 73
4
 74
0
 40
0
 40
0
 40
0
 40
0
 40
1
 40
1
 40
1
 40
1
 10
252.669530
 20
267.080609
 30
0.0
 10
252.669530
 20
266.948001
 30
0.0
 10
252.616852
 20
266.820824
 30
0.0
 10
252.523083
 20
266.727056
 30
0.0
  0
SPLINE
  5
12c
100
AcDbEntity
  8
Layer_1
 62
1
100
AcDbSpline
 70
8
 71
3
 72
8
 73
4
 74
0
 40
0
 40
0
 40
0
 40
0
 40
1
 40
1
 40
1
 40
1
 10
252.523083
 20
266.727056
 30
0.0
 10
252.429315
 20
266.633287
 30
0.0
 10
252.302138
 20
266.580609
 30
0.0
 10
252.169530
 20
266.580609
 30
0.0
  0
LINE
  5
12d
100
AcDbEntity
  8
Layer_1
 62
1
100
AcDbLine
 10
252.169530
 20
266.580609
 30
0.0
 11
239.169540
 21
266.580609
 31
0.0
  0
SPLINE
  5
12e
100
AcDbEntity
  8
Layer_1
 62
1
100
AcDbSpline
 70
8
 71
3
 72
8
 73
4
 74
0
 40
0
 40
0
 40
0
 40
0
 40
1
 40
1
 40
1
 40
1
 10
239.169540
 20
266.580609
 30
0.0
 10
239.036932
 20
266.580609
 30
0.0
 10
238.909755
 20
266.633287
 30
0.0
 10
238.815987
 20
266.727056
 30
0.0
  0
SPLINE
  5
12f
100
AcDbEntity
  8
Layer_1
 62
1
100
AcDbSpline
 70
8
 71
3
 72
8
 73
4
 74
0
 40
0
 40
0
 40
0
 40
0
 40
1
 40
1
 40
1
 40
1
 10
238.815987
 20
266.727056
 30
0.0
 10
238.722218
 20
266.820824
 30
0.0
 10
238.669540
 20
266.948001
 30
0.0
 10
238.669540
 20
267.080609
 30
0.0
  0
LINE
  5
130
100
AcDbEntity
  8
Layer_1
 62
1
100
AcDbLine
 10
238.669540
 20
267.080609
 30
0.0
 11
238.669540
 21
280.080609
 31
0.0
  0
SPLINE
  5
131
100
AcDbEntity
  8
Layer_1
 62
1
100
AcDbSpline
 70
8
 71
3
 72
8
 73
4
 74
0
 40
0
 40
0
 40
0
 40
0
 40
1
 40
1
 40
1
 40
1
 10
238.669540
 20
280.080609
 30
0.0
 10
238.669540
 20
280.213217
 30
0.0
 10
238.722218
 20
280.340394
 30
0.0
 10
238.815987
 20
280.434162
 30
0.0
  0
SPLINE
  5
132
100
AcDbEntity
  8
Layer_1
 62
1
100
AcDbSpline
 70
8
 71
3
 72
8
 73
4
 74
0
 40
0
 40
0
 40
0
 40
0
 40
1
 40
1
 40
1
 40
1
 10
238.815987
 20
280.434162
 30
0.0
 10
238.909755
 20
280.527931
 30
0.0
 10
239.036932
 20
280.580609
 30
0.0
 10
239.169540
 20
280.580609
 30
0.0
  0
LINE
  5
133
100
AcDbEntity
  8
Layer_1
 62
1
100
AcDbLine
 10
239.169540
 20
280.580609
 30
0.0
 11
239.169540
 21
280.580609
 31
0.0
  0
LINE
  5
134
100
AcDbEntity
  8
Layer_1
 62
1
100
AcDbLine
 10
220.119540
 20
280.580609
 30
0.0
 11
233.119540
 21
280.580609
 31
0.0
  0
SPLINE
  5
135
100
AcDbEntity
  8
Layer_1
 62
1
100
AcDbSpline
 70
8
 71
3
 72
8
 73
4
 74
0
 40
0
 40
0
 40
0
 40
0
 40
1
 40
1
 40
1
 40
1
 10
233.119540
 20
280.580609
 30
0.0
 10
233.252148
 20
280.580609
 30
0.0
 10
233.379325
 20
280.527931
 30
0.0
 10
233.473093
 20
280.434162
 30
0.0
  0
SPLINE
  5
136
100
AcDbEntity
  8
Layer_1
 62
1
100
AcDbSpline
 70
8
 71
3
 72
8
 73
4
 74
0
 40
0
 40
0
 40
0
 40
0
 40
1
 40
1
 40
1
 40
1
 10
233.473093
 20
280.434162
 30
0.0
 10
233.566862
 20
280.340394
 30
0.0
 10
233.619540
 20
280.213217
 30
0.0
 10
233.619540
 20
280.080609
 30
0.0
  0
LINE
  5
137
100
AcDbEntity
  8
Layer_1
 62
1
100
AcDbLine
 10
233.619540
 20
280.080609
 30
0.0
 11
233.619540
 21
267.080609
 31
0.0
  0
SPLINE
  5
138
100
AcDbEntity
  8
Layer_1
 62
1
100
AcDbSpline
 70
8
 71
3
 72
8
 73
4
 74
0
 40
0
 40
0
 40
0
 40
0
 40
1
 40
1
 40
1
 40
1
 10
233.619540
 20
267.080609
 30
0.0
 10
233.619540
 20
266.948001
 30
0.0
 10
233.566862
 20
266.820824
 30
0.0
 10
233.473093
 20
266.727056
 30
0.0
  0
SPLINE
  5
139
100
AcDbEntity
  8
Layer_1
 62
1
100
AcDbSpline
 70
8
 71
3
 72
8
 73
4
 74
0
 40
0
 40
0
 40
0
 40
0
 40
1
 40
1
 40
1
 40
1
 10
233.473093
 20
266.727056
 30
0.0
 10
233.379325
 20
266.633287
 30
0.0
 10
233.252148
 20
266.580609
 30
0.0
 10
233.119540
 20
266.580609
 30
0.0
  0
LINE
  5
13a
100
AcDbEntity
  8
Layer_1
 62
1
100
AcDbLine
 10
233.119540
 20
266.580609
 30
0.0
 11
220.119540
 21
266.580609
 31
0.0
  0
SPLINE
  5
13b
100
AcDbEntity
  8
Layer_1
 62
1
100
AcDbSpline
 70
8
 71
3
 72
8
 73
4
 74
0
 40
0
 40
0
 40
0
 40
0
 40
1
 40
1
 40
1
 40
1
 10
220.119540
 20
266.580609
 30
0.0
 10
219.986932
 20
266.580609
 30
0.0
 10
219.859755
 20
266.633287
 30
0.0
 10
219.765987
 20
266.727056
 30
0.0
  0
SPLINE
  5
13c
100
AcDbEntity
  8
Layer_1
 62
1
100
AcDbSpline
 70
8
 71
3
 72
8
 73
4
 74
0
 40
0
 40
0
 40
0
 40
0
 40
1
 40
1
 40
1
 40
1
 10
219.765987
 20
266.727056
 30
0.0
 10
219.672218
 20
266.820824
 30
0.0
 10
219.619540
 20
266.948001
 30
0.0
 10
219.619540
 20
267.080609
 30
0.0
  0
LINE
  5
13d
100
AcDbEntity
  8
Layer_1
 62
1
100
AcDbLine
 10
219.619540
 20
267.080609
 30
0.0
 11
219.619540
 21
280.080609
 31
0.0
  0
SPLINE
  5
13e
100
AcDbEntity
  8
Layer_1
 62
1
100
AcDbSpline
 70
8
 71
3
 72
8
 73
4
 74
0
 40
0
 40
0
 40
0
 40
0
 40
1
 40
1
 40
1
 40
1
 10
219.619540
 20
280.080609
 30
0.0
 10
219.619540
 20
280.213217
 30
0.0
 10
219.672218
 20
280.340394
 30
0.0
 10
219.765987
 20
280.434162
 30
0.0
  0
SPLINE
  5
13f
100
AcDbEntity
  8
Layer_1
 62
1
100
AcDbSpline
 70
8
 71
3
 72
8
 73
4
 74
0
 40
0
 40
0
 40
0
 40
0
 40
1
 40
1
 40
1
 40
1
 10
219.765987
 20
280.434162
 30
0.0
 10
219.859755
 20
280.527931
 30
0.0
 10
219.986932
 20
280.580609
 30
0.0
 10
220.119540
 20
280.580609
 30
0.0
  0
LINE
  5
140
100
AcDbEntity
  8
Layer_1
 62
1
100
AcDbLine
 10
220.119540
 20
280.580609
 30
0.0
 11
220.119540
 21
280.580609
 31
0.0
  0
LINE
  5
141
100
AcDbEntity
  8
Layer_1
 62
1
100
AcDbLine
 10
201.069540
 20
280.580609
 30
0.0
 11
214.069540
 21
280.580609
 31
0.0
  0
SPLINE
  5
142
100
AcDbEntity
  8
Layer_1
 62
1
100
AcDbSpline
 70
8
 71
3
 72
8
 73
4
 74
0
 40
0
 40
0
 40
0
 40
0
 40
1
 40
1
 40
1
 40
1
 10
214.069540
 20
280.580609
 30
0.0
 10
214.202148
 20
280.580609
 30
0.0
 10
214.329325
 20
280.527931
 30
0.0
 10
214.423093
 20
280.434162
 30
0.0
  0
SPLINE
  5
143
100
AcDbEntity
  8
Layer_1
 62
1
100
AcDbSpline
 70
8
 71
3
 72
8
 73
4
 74
0
 40
0
 40
0
 40
0
 40
0
 40
1
 40
1
 40
1
 40
1
 10
214.423093
 20
280.434162
 30
0.0
 10
214.516862
 20
280.340394
 30
0.0
 10
214.569540
 20
280.213217
 30
0.0
 10
214.569540
 20
280.080609
 30
0.0
  0
LINE
  5
144
100
AcDbEntity
  8
Layer_1
 62
1
100
AcDbLine
 10
214.569540
 20
280.080609
 30
0.0
 11
214.569540
 21
267.080609
 31
0.0
  0
SPLINE
  5
145
100
AcDbEntity
  8
Layer_1
 62
1
100
AcDbSpline
 70
8
 71
3
 72
8
 73
4
 74
0
 40
0
 40
0
 40
0
 40
0
 40
1
 40
1
 40
1
 40
1
 10
214.569540
 20
267.080609
 30
0.0
 10
214.569540
 20
266.948001
 30
0.0
 10
214.516862
 20
266.820824
 30
0.0
 10
214.423093
 20
266.727056
 30
0.0
  0
SPLINE
  5
146
100
AcDbEntity
  8
Layer_1
 62
1
100
AcDbSpline
 70
8
 71
3
 72
8
 73
4
 74
0
 40
0
 40
0
 40
0
 40
0
 40
1
 40
1
 40
1
 40
1
 10
214.423093
 20
266.727056
 30
0.0
 10
214.329325
 20
266.633287
 30
0.0
 10
214.202148
 20
266.580609
 30
0.0
 10
214.069540
 20
266.580609
 30
0.0
  0
LINE
  5
147
100
AcDbEntity
  8
Layer_1
 62
1
100
AcDbLine
 10
214.069540
 20
266.580609
 30
0.0
 11
201.069540
 21
266.580609
 31
0.0
  0
SPLINE
  5
148
100
AcDbEntity
  8
Layer_1
 62
1
100
AcDbSpline
 70
8
 71
3
 72
8
 73
4
 74
0
 40
0
 40
0
 40
0
 40
0
 40
1
 40
1
 40
1
 40
1
 10
201.069540
 20
266.580609
 30
0.0
 10
200.936932
 20
266.580609
 30
0.0
 10
200.809755
 20
266.633287
 30
0.0
 10
200.715987
 20
266.727056
 30
0.0
  0
SPLINE
  5
149
100
AcDbEntity
  8
Layer_1
 62
1
100
AcDbSpline
 70
8
 71
3
 72
8
 73
4
 74
0
 40
0
 40
0
 40
0
 40
0
 40
1
 40
1
 40
1
 40
1
 10
200.715987
 20
266.727056
 30
0.0
 10
200.622218
 20
266.820824
 30
0.0
 10
200.569540
 20
266.948001
 30
0.0
 10
200.569540
 20
267.080609
 30
0.0
  0
LINE
  5
14a
100
AcDbEntity
  8
Layer_1
 62
1
100
AcDbLine
 10
200.569540
 20
267.080609
 30
0.0
 11
200.569540
 21
280.080609
 31
0.0
  0
SPLINE
  5
14b
100
AcDbEntity
  8
Layer_1
 62
1
100
AcDbSpline
 70
8
 71
3
 72
8
 73
4
 74
0
 40
0
 40
0
 40
0
 40
0
 40
1
 40
1
 40
1
 40
1
 10
200.569540
 20
280.080609
 30
0.0
 10
200.569540
 20
280.213217
 30
0.0
 10
200.622218
 20
280.340394
 30
0.0
 10
200.715987
 20
280.434162
 30
0.0
  0
SPLINE
  5
14c
100
AcDbEntity
  8
Layer_1
 62
1
100
AcDbSpline
 70
8
 71
3
 72
8
 73
4
 74
0
 40
0
 40
0
 40
0
 40
0
 40
1
 40
1
 40
1
 40
1
 10
200.715987
 20
280.434162
 30
0.0
 10
200.809755
 20
280.527931
 30
0.0
 10
200.936932
 20
280.580609
 30
0.0
 10
201.069540
 20
280.580609
 30
0.0
  0
LINE
  5
14d
100
AcDbEntity
  8
Layer_1
 62
1
100
AcDbLine
 10
201.069540
 20
280.580609
 30
0.0
 11
201.069540
 21
280.580609
 31
0.0
  0
LINE
  5
14e
100
AcDbEntity
  8
Layer_1
 62
1
100
AcDbLine
 10
182.019540
 20
280.580609
 30
0.0
 11
195.019540
 21
280.580609
 31
0.0
  0
SPLINE
  5
14f
100
AcDbEntity
  8
Layer_1
 62
1
100
AcDbSpline
 70
8
 71
3
 72
8
 73
4
 74
0
 40
0
 40
0
 40
0
 40
0
 40
1
 40
1
 40
1
 40
1
 10
195.019540
 20
280.580609
 30
0.0
 10
195.152148
 20
280.580609
 30
0.0
 10
195.279325
 20
280.527931
 30
0.0
 10
195.373093
 20
280.434162
 30
0.0
  0
SPLINE
  5
150
100
AcDbEntity
  8
Layer_1
 62
1
100
AcDbSpline
 70
8
 71
3
 72
8
 73
4
 74
0
 40
0
 40
0
 40
0
 40
0
 40
1
 40
1
 40
1
 40
1
 10
195.373093
 20
280.434162
 30
0.0
 10
195.466862
 20
280.340394
 30
0.0
 10
195.519540
 20
280.213217
 30
0.0
 10
195.519540
 20
280.080609
 30
0.0
  0
LINE
  5
151
100
AcDbEntity
  8
Layer_1
 62
1
100
AcDbLine
 10
195.519540
 20
280.080609
 30
0.0
 11
195.519540
 21
267.080609
 31
0.0
  0
SPLINE
  5
152
100
AcDbEntity
  8
Layer_1
 62
1
100
AcDbSpline
 70
8
 71
3
 72
8
 73
4
 74
0
 40
0
 40
0
 40
0
 40
0
 40
1
 40
1
 40
1
 40
1
 10
195.519540
 20
267.080609
 30
0.0
 10
195.519540
 20
266.948001
 30
0.0
 10
195.466862
 20
266.820824
 30
0.0
 10
195.373093
 20
266.727056
 30
0.0
  0
SPLINE
  5
153
100
AcDbEntity
  8
Layer_1
 62
1
100
AcDbSpline
 70
8
 71
3
 72
8
 73
4
 74
0
 40
0
 40
0
 40
0
 40
0
 40
1
 40
1
 40
1
 40
1
 10
195.373093
 20
266.727056
 30
0.0
 10
195.279325
 20
266.633287
 30
0.0
 10
195.152148
 20
266.580609
 30
0.0
 10
195.019540
 20
266.580609
 30
0.0
  0
LINE
  5
154
100
AcDbEntity
  8
Layer_1
 62
1
100
AcDbLine
 10
195.019540
 20
266.580609
 30
0.0
 11
182.019540
 21
266.580609
 31
0.0
  0
SPLINE
  5
155
100
AcDbEntity
  8
Layer_1
 62
1
100
AcDbSpline
 70
8
 71
3
 72
8
 73
4
 74
0
 40
0
 40
0
 40
0
 40
0
 40
1
 40
1
 40
1
 40
1
 10
182.019540
 20
266.580609
 30
0.0
 10
181.886932
 20
266.580609
 30
0.0
 10
181.759755
 20
266.633287
 30
0.0
 10
181.665987
 20
266.727056
 30
0.0
  0
SPLINE
  5
156
100
AcDbEntity
  8
Layer_1
 62
1
100
AcDbSpline
 70
8
 71
3
 72
8
 73
4
 74
0
 40
0
 40
0
 40
0
 40
0
 40
1
 40
1
 40
1
 40
1
 10
181.665987
 20
266.727056
 30
0.0
 10
181.572218
 20
266.820824
 30
0.0
 10
181.519540
 20
266.948001
 30
0.0
 10
181.519540
 20
267.080609
 30
0.0
  0
LINE
  5
157
100
AcDbEntity
  8
Layer_1
 62
1
100
AcDbLine
 10
181.519540
 20
267.080609
 30
0.0
 11
181.519540
 21
280.080609
 31
0.0
  0
SPLINE
  5
158
100
AcDbEntity
  8
Layer_1
 62
1
100
AcDbSpline
 70
8
 71
3
 72
8
 73
4
 74
0
 40
0
 40
0
 40
0
 40
0
 40
1
 40
1
 40
1
 40
1
 10
181.519540
 20
280.080609
 30
0.0
 10
181.519540
 20
280.213217
 30
0.0
 10
181.572218
 20
280.340394
 30
0.0
 10
181.665987
 20
280.434162
 30
0.0
  0
SPLINE
  5
159
100
AcDbEntity
  8
Layer_1
 62
1
100
AcDbSpline
 70
8
 71
3
 72
8
 73
4
 74
0
 40
0
 40
0
 40
0
 40
0
 40
1
 40
1
 40
1
 40
1
 10
181.665987
 20
280.434162
 30
0.0
 10
181.759755
 20
280.527931
 30
0.0
 10
181.886932
 20
280.580609
 30
0.0
 10
182.019540
 20
280.580609
 30
0.0
  0
LINE
  5
15a
100
AcDbEntity
  8
Layer_1
 62
1
100
AcDbLine
 10
182.019540
 20
280.580609
 30
0.0
 11
182.019540
 21
280.580609
 31
0.0
  0
LINE
  5
15b
100
AcDbEntity
  8
Layer_1
 62
1
100
AcDbLine
 10
143.919540
 20
280.580609
 30
0.0
 11
156.919540
 21
280.580609
 31
0.0
  0
SPLINE
  5
15c
100
AcDbEntity
  8
Layer_1
 62
1
100
AcDbSpline
 70
8
 71
3
 72
8
 73
4
 74
0
 40
0
 40
0
 40
0
 40
0
 40
1
 40
1
 40
1
 40
1
 10
156.919540
 20
280.580609
 30
0.0
 10
157.052148
 20
280.580609
 30
0.0
 10
157.179325
 20
280.527931
 30
0.0
 10
157.273093
 20
280.434162
 30
0.0
  0
SPLINE
  5
15d
100
AcDbEntity
  8
Layer_1
 62
1
100
AcDbSpline
 70
8
 71
3
 72
8
 73
4
 74
0
 40
0
 40
0
 40
0
 40
0
 40
1
 40
1
 40
1
 40
1
 10
157.273093
 20
280.434162
 30
0.0
 10
157.366862
 20
280.340394
 30
0.0
 10
157.419540
 20
280.213217
 30
0.0
 10
157.419540
 20
280.080609
 30
0.0
  0
LINE
  5
15e
100
AcDbEntity
  8
Layer_1
 62
1
100
AcDbLine
 10
157.419540
 20
280.080609
 30
0.0
 11
157.419540
 21
267.080609
 31
0.0
  0
SPLINE
  5
15f
100
AcDbEntity
  8
Layer_1
 62
1
100
AcDbSpline
 70
8
 71
3
 72
8
 73
4
 74
0
 40
0
 40
0
 40
0
 40
0
 40
1
 40
1
 40
1
 40
1
 10
157.419540
 20
267.080609
 30
0.0
 10
157.419540
 20
266.948001
 30
0.0
 10
157.366862
 20
266.820824
 30
0.0
 10
157.273093
 20
266.727056
 30
0.0
  0
SPLINE
  5
160
100
AcDbEntity
  8
Layer_1
 62
1
100
AcDbSpline
 70
8
 71
3
 72
8
 73
4
 74
0
 40
0
 40
0
 40
0
 40
0
 40
1
 40
1
 40
1
 40
1
 10
157.273093
 20
266.727056
 30
0.0
 10
157.179325
 20
266.633287
 30
0.0
 10
157.052148
 20
266.580609
 30
0.0
 10
156.919540
 20
266.580609
 30
0.0
  0
LINE
  5
161
100
AcDbEntity
  8
Layer_1
 62
1
100
AcDbLine
 10
156.919540
 20
266.580609
 30
0.0
 11
143.919540
 21
266.580609
 31
0.0
  0
SPLINE
  5
162
100
AcDbEntity
  8
Layer_1
 62
1
100
AcDbSpline
 70
8
 71
3
 72
8
 73
4
 74
0
 40
0
 40
0
 40
0
 40
0
 40
1
 40
1
 40
1
 40
1
 10
143.919540
 20
266.580609
 30
0.0
 10
143.786932
 20
266.580609
 30
0.0
 10
143.659755
 20
266.633287
 30
0.0
 10
143.565987
 20
266.727056
 30
0.0
  0
SPLINE
  5
163
100
AcDbEntity
  8
Layer_1
 62
1
100
AcDbSpline
 70
8
 71
3
 72
8
 73
4
 74
0
 40
0
 40
0
 40
0
 40
0
 40
1
 40
1
 40
1
 40
1
 10
143.565987
 20
266.727056
 30
0.0
 10
143.472218
 20
266.820824
 30
0.0
 10
143.419540
 20
266.948001
 30
0.0
 10
143.419540
 20
267.080609
 30
0.0
  0
LINE
  5
164
100
AcDbEntity
  8
Layer_1
 62
1
100
AcDbLine
 10
143.419540
 20
267.080609
 30
0.0
 11
143.419540
 21
280.080609
 31
0.0
  0
SPLINE
  5
165
100
AcDbEntity
  8
Layer_1
 62
1
100
AcDbSpline
 70
8
 71
3
 72
8
 73
4
 74
0
 40
0
 40
0
 40
0
 40
0
 40
1
 40
1
 40
1
 40
1
 10
143.419540
 20
280.080609
 30
0.0
 10
143.419540
 20
280.213217
 30
0.0
 10
143.472218
 20
280.340394
 30
0.0
 10
143.565987
 20
280.434162
 30
0.0
  0
SPLINE
  5
166
100
AcDbEntity
  8
Layer_1
 62
1
100
AcDbSpline
 70
8
 71
3
 72
8
 73
4
 74
0
 40
0
 40
0
 40
0
 40
0
 40
1
 40
1
 40
1
 40
1
 10
143.565987
 20
280.434162
 30
0.0
 10
143.659755
 20
280.527931
 30
0.0
 10
143.786932
 20
280.580609
 30
0.0
 10
143.919540
 20
280.580609
 30
0.0
  0
LINE
  5
167
100
AcDbEntity
  8
Layer_1
 62
1
100
AcDbLine
 10
143.919540
 20
280.580609
 30
0.0
 11
143.919540
 21
280.580609
 31
0.0
  0
LINE
  5
168
100
AcDbEntity
  8
Layer_1
 62
1
100
AcDbLine
 10
124.869540
 20
280.580609
 30
0.0
 11
137.869540
 21
280.580609
 31
0.0
  0
SPLINE
  5
169
100
AcDbEntity
  8
Layer_1
 62
1
100
AcDbSpline
 70
8
 71
3
 72
8
 73
4
 74
0
 40
0
 40
0
 40
0
 40
0
 40
1
 40
1
 40
1
 40
1
 10
137.869540
 20
280.580609
 30
0.0
 10
138.002148
 20
280.580609
 30
0.0
 10
138.129325
 20
280.527931
 30
0.0
 10
138.223093
 20
280.434162
 30
0.0
  0
SPLINE
  5
16a
100
AcDbEntity
  8
Layer_1
 62
1
100
AcDbSpline
 70
8
 71
3
 72
8
 73
4
 74
0
 40
0
 40
0
 40
0
 40
0
 40
1
 40
1
 40
1
 40
1
 10
138.223093
 20
280.434162
 30
0.0
 10
138.316862
 20
280.340394
 30
0.0
 10
138.369540
 20
280.213217
 30
0.0
 10
138.369540
 20
280.080609
 30
0.0
  0
LINE
  5
16b
100
AcDbEntity
  8
Layer_1
 62
1
100
AcDbLine
 10
138.369540
 20
280.080609
 30
0.0
 11
138.369540
 21
267.080609
 31
0.0
  0
SPLINE
  5
16c
100
AcDbEntity
  8
Layer_1
 62
1
100
AcDbSpline
 70
8
 71
3
 72
8
 73
4
 74
0
 40
0
 40
0
 40
0
 40
0
 40
1
 40
1
 40
1
 40
1
 10
138.369540
 20
267.080609
 30
0.0
 10
138.369540
 20
266.948001
 30
0.0
 10
138.316862
 20
266.820824
 30
0.0
 10
138.223093
 20
266.727056
 30
0.0
  0
SPLINE
  5
16d
100
AcDbEntity
  8
Layer_1
 62
1
100
AcDbSpline
 70
8
 71
3
 72
8
 73
4
 74
0
 40
0
 40
0
 40
0
 40
0
 40
1
 40
1
 40
1
 40
1
 10
138.223093
 20
266.727056
 30
0.0
 10
138.129325
 20
266.633287
 30
0.0
 10
138.002148
 20
266.580609
 30
0.0
 10
137.869540
 20
266.580609
 30
0.0
  0
LINE
  5
16e
100
AcDbEntity
  8
Layer_1
 62
1
100
AcDbLine
 10
137.869540
 20
266.580609
 30
0.0
 11
124.869540
 21
266.580609
 31
0.0
  0
SPLINE
  5
16f
100
AcDbEntity
  8
Layer_1
 62
1
100
AcDbSpline
 70
8
 71
3
 72
8
 73
4
 74
0
 40
0
 40
0
 40
0
 40
0
 40
1
 40
1
 40
1
 40
1
 10
124.869540
 20
266.580609
 30
0.0
 10
124.736932
 20
266.580609
 30
0.0
 10
124.609755
 20
266.633287
 30
0.0
 10
124.515987
 20
266.727056
 30
0.0
  0
SPLINE
  5
170
100
AcDbEntity
  8
Layer_1
 62
1
100
AcDbSpline
 70
8
 71
3
 72
8
 73
4
 74
0
 40
0
 40
0
 40
0
 40
0
 40
1
 40
1
 40
1
 40
1
 10
124.515987
 20
266.727056
 30
0.0
 10
124.422218
 20
266.820824
 30
0.0
 10
124.369540
 20
266.948001
 30
0.0
 10
124.369540
 20
267.080609
 30
0.0
  0
LINE
  5
171
100
AcDbEntity
  8
Layer_1
 62
1
100
AcDbLine
 10
124.369540
 20
267.080609
 30
0.0
 11
124.369540
 21
280.080609
 31
0.0
  0
SPLINE
  5
172
100
AcDbEntity
  8
Layer_1
 62
1
100
AcDbSpline
 70
8
 71
3
 72
8
 73
4
 74
0
 40
0
 40
0
 40
0
 40
0
 40
1
 40
1
 40
1
 40
1
 10
124.369540
 20
280.080609
 30
0.0
 10
124.369540
 20
280.213217
 30
0.0
 10
124.422218
 20
280.340394
 30
0.0
 10
124.515987
 20
280.434162
 30
0.0
  0
SPLINE
  5
173
100
AcDbEntity
  8
Layer_1
 62
1
100
AcDbSpline
 70
8
 71
3
 72
8
 73
4
 74
0
 40
0
 40
0
 40
0
 40
0
 40
1
 40
1
 40
1
 40
1
 10
124.515987
 20
280.434162
 30
0.0
 10
124.609755
 20
280.527931
 30
0.0
 10
124.736932
 20
280.580609
 30
0.0
 10
124.869540
 20
280.580609
 30
0.0
  0
LINE
  5
174
100
AcDbEntity
  8
Layer_1
 62
1
100
AcDbLine
 10
124.869540
 20
280.580609
 30
0.0
 11
124.869540
 21
280.580609
 31
0.0
  0
LINE
  5
175
100
AcDbEntity
  8
Layer_1
 62
1
100
AcDbLine
 10
105.819540
 20
280.580609
 30
0.0
 11
118.819540
 21
280.580609
 31
0.0
  0
SPLINE
  5
176
100
AcDbEntity
  8
Layer_1
 62
1
100
AcDbSpline
 70
8
 71
3
 72
8
 73
4
 74
0
 40
0
 40
0
 40
0
 40
0
 40
1
 40
1
 40
1
 40
1
 10
118.819540
 20
280.580609
 30
0.0
 10
118.952148
 20
280.580609
 30
0.0
 10
119.079325
 20
280.527931
 30
0.0
 10
119.173093
 20
280.434162
 30
0.0
  0
SPLINE
  5
177
100
AcDbEntity
  8
Layer_1
 62
1
100
AcDbSpline
 70
8
 71
3
 72
8
 73
4
 74
0
 40
0
 40
0
 40
0
 40
0
 40
1
 40
1
 40
1
 40
1
 10
119.173093
 20
280.434162
 30
0.0
 10
119.266862
 20
280.340394
 30
0.0
 10
119.319540
 20
280.213217
 30
0.0
 10
119.319540
 20
280.080609
 30
0.0
  0
LINE
  5
178
100
AcDbEntity
  8
Layer_1
 62
1
100
AcDbLine
 10
119.319540
 20
280.080609
 30
0.0
 11
119.319540
 21
267.080609
 31
0.0
  0
SPLINE
  5
179
100
AcDbEntity
  8
Layer_1
 62
1
100
AcDbSpline
 70
8
 71
3
 72
8
 73
4
 74
0
 40
0
 40
0
 40
0
 40
0
 40
1
 40
1
 40
1
 40
1
 10
119.319540
 20
267.080609
 30
0.0
 10
119.319540
 20
266.948001
 30
0.0
 10
119.266862
 20
266.820824
 30
0.0
 10
119.173093
 20
266.727056
 30
0.0
  0
SPLINE
  5
17a
100
AcDbEntity
  8
Layer_1
 62
1
100
AcDbSpline
 70
8
 71
3
 72
8
 73
4
 74
0
 40
0
 40
0
 40
0
 40
0
 40
1
 40
1
 40
1
 40
1
 10
119.173093
 20
266.727056
 30
0.0
 10
119.079325
 20
266.633287
 30
0.0
 10
118.952148
 20
266.580609
 30
0.0
 10
118.819540
 20
266.580609
 30
0.0
  0
LINE
  5
17b
100
AcDbEntity
  8
Layer_1
 62
1
100
AcDbLine
 10
118.819540
 20
266.580609
 30
0.0
 11
105.819540
 21
266.580609
 31
0.0
  0
SPLINE
  5
17c
100
AcDbEntity
  8
Layer_1
 62
1
100
AcDbSpline
 70
8
 71
3
 72
8
 73
4
 74
0
 40
0
 40
0
 40
0
 40
0
 40
1
 40
1
 40
1
 40
1
 10
105.819540
 20
266.580609
 30
0.0
 10
105.686932
 20
266.580609
 30
0.0
 10
105.559755
 20
266.633287
 30
0.0
 10
105.465987
 20
266.727056
 30
0.0
  0
SPLINE
  5
17d
100
AcDbEntity
  8
Layer_1
 62
1
100
AcDbSpline
 70
8
 71
3
 72
8
 73
4
 74
0
 40
0
 40
0
 40
0
 40
0
 40
1
 40
1
 40
1
 40
1
 10
105.465987
 20
266.727056
 30
0.0
 10
105.372218
 20
266.820824
 30
0.0
 10
105.319540
 20
266.948001
 30
0.0
 10
105.319540
 20
267.080609
 30
0.0
  0
LINE
  5
17e
100
AcDbEntity
  8
Layer_1
 62
1
100
AcDbLine
 10
105.319540
 20
267.080609
 30
0.0
 11
105.319540
 21
280.080609
 31
0.0
  0
SPLINE
  5
17f
100
AcDbEntity
  8
Layer_1
 62
1
100
AcDbSpline
 70
8
 71
3
 72
8
 73
4
 74
0
 40
0
 40
0
 40
0
 40
0
 40
1
 40
1
 40
1
 40
1
 10
105.319540
 20
280.080609
 30
0.0
 10
105.319540
 20
280.213217
 30
0.0
 10
105.372218
 20
280.340394
 30
0.0
 10
105.465987
 20
280.434162
 30
0.0
  0
SPLINE
  5
180
100
AcDbEntity
  8
Layer_1
 62
1
100
AcDbSpline
 70
8
 71
3
 72
8
 73
4
 74
0
 40
0
 40
0
 40
0
 40
0
 40
1
 40
1
 40
1
 40
1
 10
105.465987
 20
280.434162
 30
0.0
 10
105.559755
 20
280.527931
 30
0.0
 10
105.686932
 20
280.580609
 30
0.0
 10
105.819540
 20
280.580609
 30
0.0
  0
LINE
  5
181
100
AcDbEntity
  8
Layer_1
 62
1
100
AcDbLine
 10
105.819540
 20
280.580609
 30
0.0
 11
105.819540
 21
280.580609
 31
0.0
  0
LINE
  5
182
100
AcDbEntity
  8
Layer_1
 62
1
100
AcDbLine
 10
86.769524
 20
280.580609
 30
0.0
 11
99.769524
 21
280.580609
 31
0.0
  0
SPLINE
  5
183
100
AcDbEntity
  8
Layer_1
 62
1
100
AcDbSpline
 70
8
 71
3
 72
8
 73
4
 74
0
 40
0
 40
0
 40
0
 40
0
 40
1
 40
1
 40
1
 40
1
 10
99.769524
 20
280.580609
 30
0.0
 10
100.045665
 20
280.580607
 30
0.0
 10
100.269520
 20
280.356750
 30
0.0
 10
100.269520
 20
280.080609
 30
0.0
  0
LINE
  5
184
100
AcDbEntity
  8
Layer_1
 62
1
100
AcDbLine
 10
100.269520
 20
280.080609
 30
0.0
 11
100.269520
 21
267.080609
 31
0.0
  0
SPLINE
  5
185
100
AcDbEntity
  8
Layer_1
 62
1
100
AcDbSpline
 70
8
 71
3
 72
8
 73
4
 74
0
 40
0
 40
0
 40
0
 40
0
 40
1
 40
1
 40
1
 40
1
 10
100.269520
 20
267.080609
 30
0.0
 10
100.269520
 20
266.804468
 30
0.0
 10
100.045665
 20
266.580611
 30
0.0
 10
99.769524
 20
266.580609
 30
0.0
  0
LINE
  5
186
100
AcDbEntity
  8
Layer_1
 62
1
100
AcDbLine
 10
99.769524
 20
266.580609
 30
0.0
 11
86.769524
 21
266.580609
 31
0.0
  0
SPLINE
  5
187
100
AcDbEntity
  8
Layer_1
 62
1
100
AcDbSpline
 70
8
 71
3
 72
8
 73
4
 74
0
 40
0
 40
0
 40
0
 40
0
 40
1
 40
1
 40
1
 40
1
 10
86.769524
 20
266.580609
 30
0.0
 10
86.636916
 20
266.580609
 30
0.0
 10
86.509739
 20
266.633287
 30
0.0
 10
86.415971
 20
266.727056
 30
0.0
  0
SPLINE
  5
188
100
AcDbEntity
  8
Layer_1
 62
1
100
AcDbSpline
 70
8
 71
3
 72
8
 73
4
 74
0
 40
0
 40
0
 40
0
 40
0
 40
1
 40
1
 40
1
 40
1
 10
86.415971
 20
266.727056
 30
0.0
 10
86.322202
 20
266.820824
 30
0.0
 10
86.269524
 20
266.948001
 30
0.0
 10
86.269524
 20
267.080609
 30
0.0
  0
LINE
  5
189
100
AcDbEntity
  8
Layer_1
 62
1
100
AcDbLine
 10
86.269524
 20
267.080609
 30
0.0
 11
86.269524
 21
280.080609
 31
0.0
  0
SPLINE
  5
18a
100
AcDbEntity
  8
Layer_1
 62
1
100
AcDbSpline
 70
8
 71
3
 72
8
 73
4
 74
0
 40
0
 40
0
 40
0
 40
0
 40
1
 40
1
 40
1
 40
1
 10
86.269524
 20
280.080609
 30
0.0
 10
86.269524
 20
280.213217
 30
0.0
 10
86.322202
 20
280.340394
 30
0.0
 10
86.415971
 20
280.434162
 30
0.0
  0
SPLINE
  5
18b
100
AcDbEntity
  8
Layer_1
 62
1
100
AcDbSpline
 70
8
 71
3
 72
8
 73
4
 74
0
 40
0
 40
0
 40
0
 40
0
 40
1
 40
1
 40
1
 40
1
 10
86.415971
 20
280.434162
 30
0.0
 10
86.509739
 20
280.527931
 30
0.0
 10
86.636916
 20
280.580609
 30
0.0
 10
86.769524
 20
280.580609
 30
0.0
  0
LINE
  5
18c
100
AcDbEntity
  8
Layer_1
 62
1
100
AcDbLine
 10
86.769524
 20
280.580609
 30
0.0
 11
86.769524
 21
280.580609
 31
0.0
  0
LINE
  5
18d
100
AcDbEntity
  8
Layer_1
 62
1
100
AcDbLine
 10
48.669524
 20
280.580609
 30
0.0
 11
61.669524
 21
280.580609
 31
0.0
  0
SPLINE
  5
18e
100
AcDbEntity
  8
Layer_1
 62
1
100
AcDbSpline
 70
8
 71
3
 72
8
 73
4
 74
0
 40
0
 40
0
 40
0
 40
0
 40
1
 40
1
 40
1
 40
1
 10
61.669524
 20
280.580609
 30
0.0
 10
61.802132
 20
280.580609
 30
0.0
 10
61.929309
 20
280.527931
 30
0.0
 10
62.023077
 20
280.434162
 30
0.0
  0
SPLINE
  5
18f
100
AcDbEntity
  8
Layer_1
 62
1
100
AcDbSpline
 70
8
 71
3
 72
8
 73
4
 74
0
 40
0
 40
0
 40
0
 40
0
 40
1
 40
1
 40
1
 40
1
 10
62.023077
 20
280.434162
 30
0.0
 10
62.116846
 20
280.340394
 30
0.0
 10
62.169524
 20
280.213217
 30
0.0
 10
62.169524
 20
280.080609
 30
0.0
  0
LINE
  5
190
100
AcDbEntity
  8
Layer_1
 62
1
100
AcDbLine
 10
62.169524
 20
280.080609
 30
0.0
 11
62.169524
 21
267.080609
 31
0.0
  0
SPLINE
  5
191
100
AcDbEntity
  8
Layer_1
 62
1
100
AcDbSpline
 70
8
 71
3
 72
8
 73
4
 74
0
 40
0
 40
0
 40
0
 40
0
 40
1
 40
1
 40
1
 40
1
 10
62.169524
 20
267.080609
 30
0.0
 10
62.169524
 20
266.948001
 30
0.0
 10
62.116846
 20
266.820824
 30
0.0
 10
62.023077
 20
266.727056
 30
0.0
  0
SPLINE
  5
192
100
AcDbEntity
  8
Layer_1
 62
1
100
AcDbSpline
 70
8
 71
3
 72
8
 73
4
 74
0
 40
0
 40
0
 40
0
 40
0
 40
1
 40
1
 40
1
 40
1
 10
62.023077
 20
266.727056
 30
0.0
 10
61.929309
 20
266.633287
 30
0.0
 10
61.802132
 20
266.580609
 30
0.0
 10
61.669524
 20
266.580609
 30
0.0
  0
LINE
  5
193
100
AcDbEntity
  8
Layer_1
 62
1
100
AcDbLine
 10
61.669524
 20
266.580609
 30
0.0
 11
48.669524
 21
266.580609
 31
0.0
  0
SPLINE
  5
194
100
AcDbEntity
  8
Layer_1
 62
1
100
AcDbSpline
 70
8
 71
3
 72
8
 73
4
 74
0
 40
0
 40
0
 40
0
 40
0
 40
1
 40
1
 40
1
 40
1
 10
48.669524
 20
266.580609
 30
0.0
 10
48.536916
 20
266.580609
 30
0.0
 10
48.409739
 20
266.633287
 30
0.0
 10
48.315971
 20
266.727056
 30
0.0
  0
SPLINE
  5
195
100
AcDbEntity
  8
Layer_1
 62
1
100
AcDbSpline
 70
8
 71
3
 72
8
 73
4
 74
0
 40
0
 40
0
 40
0
 40
0
 40
1
 40
1
 40
1
 40
1
 10
48.315971
 20
266.727056
 30
0.0
 10
48.222202
 20
266.820824
 30
0.0
 10
48.169524
 20
266.948001
 30
0.0
 10
48.169524
 20
267.080609
 30
0.0
  0
LINE
  5
196
100
AcDbEntity
  8
Layer_1
 62
1
100
AcDbLine
 10
48.169524
 20
267.080609
 30
0.0
 11
48.169524
 21
280.080609
 31
0.0
  0
SPLINE
  5
197
100
AcDbEntity
  8
Layer_1
 62
1
100
AcDbSpline
 70
8
 71
3
 72
8
 73
4
 74
0
 40
0
 40
0
 40
0
 40
0
 40
1
 40
1
 40
1
 40
1
 10
48.169524
 20
280.080609
 30
0.0
 10
48.169524
 20
280.213217
 30
0.0
 10
48.222202
 20
280.340394
 30
0.0
 10
48.315971
 20
280.434162
 30
0.0
  0
SPLINE
  5
198
100
AcDbEntity
  8
Layer_1
 62
1
100
AcDbSpline
 70
8
 71
3
 72
8
 73
4
 74
0
 40
0
 40
0
 40
0
 40
0
 40
1
 40
1
 40
1
 40
1
 10
48.315971
 20
280.434162
 30
0.0
 10
48.409739
 20
280.527931
 30
0.0
 10
48.536916
 20
280.580609
 30
0.0
 10
48.669524
 20
280.580609
 30
0.0
  0
LINE
  5
199
100
AcDbEntity
  8
Layer_1
 62
1
100
AcDbLine
 10
48.669524
 20
280.580609
 30
0.0
 11
48.669524
 21
280.580609
 31
0.0
  0
LINE
  5
19a
100
AcDbEntity
  8
Layer_1
 62
1
100
AcDbLine
 10
272.507530
 20
223.430609
 30
0.0
 11
285.507530
 21
223.430609
 31
0.0
  0
SPLINE
  5
19b
100
AcDbEntity
  8
Layer_1
 62
1
100
AcDbSpline
 70
8
 71
3
 72
8
 73
4
 74
0
 40
0
 40
0
 40
0
 40
0
 40
1
 40
1
 40
1
 40
1
 10
285.507530
 20
223.430609
 30
0.0
 10
285.640138
 20
223.430609
 30
0.0
 10
285.767315
 20
223.377931
 30
0.0
 10
285.861083
 20
223.284162
 30
0.0
  0
SPLINE
  5
19c
100
AcDbEntity
  8
Layer_1
 62
1
100
AcDbSpline
 70
8
 71
3
 72
8
 73
4
 74
0
 40
0
 40
0
 40
0
 40
0
 40
1
 40
1
 40
1
 40
1
 10
285.861083
 20
223.284162
 30
0.0
 10
285.954852
 20
223.190394
 30
0.0
 10
286.007530
 20
223.063217
 30
0.0
 10
286.007530
 20
222.930609
 30
0.0
  0
LINE
  5
19d
100
AcDbEntity
  8
Layer_1
 62
1
100
AcDbLine
 10
286.007530
 20
222.930609
 30
0.0
 11
286.007530
 21
209.930609
 31
0.0
  0
SPLINE
  5
19e
100
AcDbEntity
  8
Layer_1
 62
1
100
AcDbSpline
 70
8
 71
3
 72
8
 73
4
 74
0
 40
0
 40
0
 40
0
 40
0
 40
1
 40
1
 40
1
 40
1
 10
286.007530
 20
209.930609
 30
0.0
 10
286.007530
 20
209.798001
 30
0.0
 10
285.954852
 20
209.670824
 30
0.0
 10
285.861083
 20
209.577056
 30
0.0
  0
SPLINE
  5
19f
100
AcDbEntity
  8
Layer_1
 62
1
100
AcDbSpline
 70
8
 71
3
 72
8
 73
4
 74
0
 40
0
 40
0
 40
0
 40
0
 40
1
 40
1
 40
1
 40
1
 10
285.861083
 20
209.577056
 30
0.0
 10
285.767315
 20
209.483287
 30
0.0
 10
285.640138
 20
209.430609
 30
0.0
 10
285.507530
 20
209.430609
 30
0.0
  0
LINE
  5
1a0
100
AcDbEntity
  8
Layer_1
 62
1
100
AcDbLine
 10
285.507530
 20
209.430609
 30
0.0
 11
272.507530
 21
209.430609
 31
0.0
  0
SPLINE
  5
1a1
100
AcDbEntity
  8
Layer_1
 62
1
100
AcDbSpline
 70
8
 71
3
 72
8
 73
4
 74
0
 40
0
 40
0
 40
0
 40
0
 40
1
 40
1
 40
1
 40
1
 10
272.507530
 20
209.430609
 30
0.0
 10
272.374922
 20
209.430609
 30
0.0
 10
272.247745
 20
209.483287
 30
0.0
 10
272.153977
 20
209.577056
 30
0.0
  0
SPLINE
  5
1a2
100
AcDbEntity
  8
Layer_1
 62
1
100
AcDbSpline
 70
8
 71
3
 72
8
 73
4
 74
0
 40
0
 40
0
 40
0
 40
0
 40
1
 40
1
 40
1
 40
1
 10
272.153977
 20
209.577056
 30
0.0
 10
272.060208
 20
209.670824
 30
0.0
 10
272.007530
 20
209.798001
 30
0.0
 10
272.007530
 20
209.930609
 30
0.0
  0
LINE
  5
1a3
100
AcDbEntity
  8
Layer_1
 62
1
100
AcDbLine
 10
272.007530
 20
209.930609
 30
0.0
 11
272.007530
 21
222.930609
 31
0.0
  0
SPLINE
  5
1a4
100
AcDbEntity
  8
Layer_1
 62
1
100
AcDbSpline
 70
8
 71
3
 72
8
 73
4
 74
0
 40
0
 40
0
 40
0
 40
0
 40
1
 40
1
 40
1
 40
1
 10
272.007530
 20
222.930609
 30
0.0
 10
272.007530
 20
223.063217
 30
0.0
 10
272.060208
 20
223.190394
 30
0.0
 10
272.153977
 20
223.284162
 30
0.0
  0
SPLINE
  5
1a5
100
AcDbEntity
  8
Layer_1
 62
1
100
AcDbSpline
 70
8
 71
3
 72
8
 73
4
 74
0
 40
0
 40
0
 40
0
 40
0
 40
1
 40
1
 40
1
 40
1
 10
272.153977
 20
223.284162
 30
0.0
 10
272.247745
 20
223.377931
 30
0.0
 10
272.374922
 20
223.430609
 30
0.0
 10
272.507530
 20
223.430609
 30
0.0
  0
LINE
  5
1a6
100
AcDbEntity
  8
Layer_1
 62
1
100
AcDbLine
 10
272.507530
 20
223.430609
 30
0.0
 11
272.507530
 21
223.430609
 31
0.0
  0
LINE
  5
1a7
100
AcDbEntity
  8
Layer_1
 62
1
100
AcDbLine
 10
253.457530
 20
223.430609
 30
0.0
 11
266.457530
 21
223.430609
 31
0.0
  0
SPLINE
  5
1a8
100
AcDbEntity
  8
Layer_1
 62
1
100
AcDbSpline
 70
8
 71
3
 72
8
 73
4
 74
0
 40
0
 40
0
 40
0
 40
0
 40
1
 40
1
 40
1
 40
1
 10
266.457530
 20
223.430609
 30
0.0
 10
266.590138
 20
223.430609
 30
0.0
 10
266.717315
 20
223.377931
 30
0.0
 10
266.811083
 20
223.284162
 30
0.0
  0
SPLINE
  5
1a9
100
AcDbEntity
  8
Layer_1
 62
1
100
AcDbSpline
 70
8
 71
3
 72
8
 73
4
 74
0
 40
0
 40
0
 40
0
 40
0
 40
1
 40
1
 40
1
 40
1
 10
266.811083
 20
223.284162
 30
0.0
 10
266.904852
 20
223.190394
 30
0.0
 10
266.957530
 20
223.063217
 30
0.0
 10
266.957530
 20
222.930609
 30
0.0
  0
LINE
  5
1aa
100
AcDbEntity
  8
Layer_1
 62
1
100
AcDbLine
 10
266.957530
 20
222.930609
 30
0.0
 11
266.957530
 21
209.930609
 31
0.0
  0
SPLINE
  5
1ab
100
AcDbEntity
  8
Layer_1
 62
1
100
AcDbSpline
 70
8
 71
3
 72
8
 73
4
 74
0
 40
0
 40
0
 40
0
 40
0
 40
1
 40
1
 40
1
 40
1
 10
266.957530
 20
209.930609
 30
0.0
 10
266.957530
 20
209.798001
 30
0.0
 10
266.904852
 20
209.670824
 30
0.0
 10
266.811083
 20
209.577056
 30
0.0
  0
SPLINE
  5
1ac
100
AcDbEntity
  8
Layer_1
 62
1
100
AcDbSpline
 70
8
 71
3
 72
8
 73
4
 74
0
 40
0
 40
0
 40
0
 40
0
 40
1
 40
1
 40
1
 40
1
 10
266.811083
 20
209.577056
 30
0.0
 10
266.717315
 20
209.483287
 30
0.0
 10
266.590138
 20
209.430609
 30
0.0
 10
266.457530
 20
209.430609
 30
0.0
  0
LINE
  5
1ad
100
AcDbEntity
  8
Layer_1
 62
1
100
AcDbLine
 10
266.457530
 20
209.430609
 30
0.0
 11
253.457530
 21
209.430609
 31
0.0
  0
SPLINE
  5
1ae
100
AcDbEntity
  8
Layer_1
 62
1
100
AcDbSpline
 70
8
 71
3
 72
8
 73
4
 74
0
 40
0
 40
0
 40
0
 40
0
 40
1
 40
1
 40
1
 40
1
 10
253.457530
 20
209.430609
 30
0.0
 10
253.324922
 20
209.430609
 30
0.0
 10
253.197745
 20
209.483287
 30
0.0
 10
253.103977
 20
209.577056
 30
0.0
  0
SPLINE
  5
1af
100
AcDbEntity
  8
Layer_1
 62
1
100
AcDbSpline
 70
8
 71
3
 72
8
 73
4
 74
0
 40
0
 40
0
 40
0
 40
0
 40
1
 40
1
 40
1
 40
1
 10
253.103977
 20
209.577056
 30
0.0
 10
253.010208
 20
209.670824
 30
0.0
 10
252.957530
 20
209.798001
 30
0.0
 10
252.957530
 20
209.930609
 30
0.0
  0
LINE
  5
1b0
100
AcDbEntity
  8
Layer_1
 62
1
100
AcDbLine
 10
252.957530
 20
209.930609
 30
0.0
 11
252.957530
 21
222.930609
 31
0.0
  0
SPLINE
  5
1b1
100
AcDbEntity
  8
Layer_1
 62
1
100
AcDbSpline
 70
8
 71
3
 72
8
 73
4
 74
0
 40
0
 40
0
 40
0
 40
0
 40
1
 40
1
 40
1
 40
1
 10
252.957530
 20
222.930609
 30
0.0
 10
252.957530
 20
223.063217
 30
0.0
 10
253.010208
 20
223.190394
 30
0.0
 10
253.103977
 20
223.284162
 30
0.0
  0
SPLINE
  5
1b2
100
AcDbEntity
  8
Layer_1
 62
1
100
AcDbSpline
 70
8
 71
3
 72
8
 73
4
 74
0
 40
0
 40
0
 40
0
 40
0
 40
1
 40
1
 40
1
 40
1
 10
253.103977
 20
223.284162
 30
0.0
 10
253.197745
 20
223.377931
 30
0.0
 10
253.324922
 20
223.430609
 30
0.0
 10
253.457530
 20
223.430609
 30
0.0
  0
LINE
  5
1b3
100
AcDbEntity
  8
Layer_1
 62
1
100
AcDbLine
 10
253.457530
 20
223.430609
 30
0.0
 11
253.457530
 21
223.430609
 31
0.0
  0
LINE
  5
1b4
100
AcDbEntity
  8
Layer_1
 62
1
100
AcDbLine
 10
234.407540
 20
223.430609
 30
0.0
 11
247.407540
 21
223.430609
 31
0.0
  0
SPLINE
  5
1b5
100
AcDbEntity
  8
Layer_1
 62
1
100
AcDbSpline
 70
8
 71
3
 72
8
 73
4
 74
0
 40
0
 40
0
 40
0
 40
0
 40
1
 40
1
 40
1
 40
1
 10
247.407540
 20
223.430609
 30
0.0
 10
247.683678
 20
223.430603
 30
0.0
 10
247.907530
 20
223.206747
 30
0.0
 10
247.907530
 20
222.930609
 30
0.0
  0
LINE
  5
1b6
100
AcDbEntity
  8
Layer_1
 62
1
100
AcDbLine
 10
247.907530
 20
222.930609
 30
0.0
 11
247.907530
 21
209.930609
 31
0.0
  0
SPLINE
  5
1b7
100
AcDbEntity
  8
Layer_1
 62
1
100
AcDbSpline
 70
8
 71
3
 72
8
 73
4
 74
0
 40
0
 40
0
 40
0
 40
0
 40
1
 40
1
 40
1
 40
1
 10
247.907530
 20
209.930609
 30
0.0
 10
247.907530
 20
209.654471
 30
0.0
 10
247.683678
 20
209.430615
 30
0.0
 10
247.407540
 20
209.430609
 30
0.0
  0
LINE
  5
1b8
100
AcDbEntity
  8
Layer_1
 62
1
100
AcDbLine
 10
247.407540
 20
209.430609
 30
0.0
 11
234.407540
 21
209.430609
 31
0.0
  0
SPLINE
  5
1b9
100
AcDbEntity
  8
Layer_1
 62
1
100
AcDbSpline
 70
8
 71
3
 72
8
 73
4
 74
0
 40
0
 40
0
 40
0
 40
0
 40
1
 40
1
 40
1
 40
1
 10
234.407540
 20
209.430609
 30
0.0
 10
234.274932
 20
209.430609
 30
0.0
 10
234.147755
 20
209.483287
 30
0.0
 10
234.053987
 20
209.577056
 30
0.0
  0
SPLINE
  5
1ba
100
AcDbEntity
  8
Layer_1
 62
1
100
AcDbSpline
 70
8
 71
3
 72
8
 73
4
 74
0
 40
0
 40
0
 40
0
 40
0
 40
1
 40
1
 40
1
 40
1
 10
234.053987
 20
209.577056
 30
0.0
 10
233.960218
 20
209.670824
 30
0.0
 10
233.907540
 20
209.798001
 30
0.0
 10
233.907540
 20
209.930609
 30
0.0
  0
LINE
  5
1bb
100
AcDbEntity
  8
Layer_1
 62
1
100
AcDbLine
 10
233.907540
 20
209.930609
 30
0.0
 11
233.907540
 21
222.930609
 31
0.0
  0
SPLINE
  5
1bc
100
AcDbEntity
  8
Layer_1
 62
1
100
AcDbSpline
 70
8
 71
3
 72
8
 73
4
 74
0
 40
0
 40
0
 40
0
 40
0
 40
1
 40
1
 40
1
 40
1
 10
233.907540
 20
222.930609
 30
0.0
 10
233.907540
 20
223.063217
 30
0.0
 10
233.960218
 20
223.190394
 30
0.0
 10
234.053987
 20
223.284162
 30
0.0
  0
SPLINE
  5
1bd
100
AcDbEntity
  8
Layer_1
 62
1
100
AcDbSpline
 70
8
 71
3
 72
8
 73
4
 74
0
 40
0
 40
0
 40
0
 40
0
 40
1
 40
1
 40
1
 40
1
 10
234.053987
 20
223.284162
 30
0.0
 10
234.147755
 20
223.377931
 30
0.0
 10
234.274932
 20
223.430609
 30
0.0
 10
234.407540
 20
223.430609
 30
0.0
  0
LINE
  5
1be
100
AcDbEntity
  8
Layer_1
 62
1
100
AcDbLine
 10
234.407540
 20
223.430609
 30
0.0
 11
234.407540
 21
223.430609
 31
0.0
  0
LINE
  5
1bf
100
AcDbEntity
  8
Layer_1
 62
1
100
AcDbLine
 10
212.975540
 20
223.430609
 30
0.0
 11
225.975540
 21
223.430609
 31
0.0
  0
SPLINE
  5
1c0
100
AcDbEntity
  8
Layer_1
 62
1
100
AcDbSpline
 70
8
 71
3
 72
8
 73
4
 74
0
 40
0
 40
0
 40
0
 40
0
 40
1
 40
1
 40
1
 40
1
 10
225.975540
 20
223.430609
 30
0.0
 10
226.108148
 20
223.430609
 30
0.0
 10
226.235325
 20
223.377931
 30
0.0
 10
226.329093
 20
223.284162
 30
0.0
  0
SPLINE
  5
1c1
100
AcDbEntity
  8
Layer_1
 62
1
100
AcDbSpline
 70
8
 71
3
 72
8
 73
4
 74
0
 40
0
 40
0
 40
0
 40
0
 40
1
 40
1
 40
1
 40
1
 10
226.329093
 20
223.284162
 30
0.0
 10
226.422862
 20
223.190394
 30
0.0
 10
226.475540
 20
223.063217
 30
0.0
 10
226.475540
 20
222.930609
 30
0.0
  0
LINE
  5
1c2
100
AcDbEntity
  8
Layer_1
 62
1
100
AcDbLine
 10
226.475540
 20
222.930609
 30
0.0
 11
226.475540
 21
209.930609
 31
0.0
  0
SPLINE
  5
1c3
100
AcDbEntity
  8
Layer_1
 62
1
100
AcDbSpline
 70
8
 71
3
 72
8
 73
4
 74
0
 40
0
 40
0
 40
0
 40
0
 40
1
 40
1
 40
1
 40
1
 10
226.475540
 20
209.930609
 30
0.0
 10
226.475540
 20
209.798001
 30
0.0
 10
226.422862
 20
209.670824
 30
0.0
 10
226.329093
 20
209.577056
 30
0.0
  0
SPLINE
  5
1c4
100
AcDbEntity
  8
Layer_1
 62
1
100
AcDbSpline
 70
8
 71
3
 72
8
 73
4
 74
0
 40
0
 40
0
 40
0
 40
0
 40
1
 40
1
 40
1
 40
1
 10
226.329093
 20
209.577056
 30
0.0
 10
226.235325
 20
209.483287
 30
0.0
 10
226.108148
 20
209.430609
 30
0.0
 10
225.975540
 20
209.430609
 30
0.0
  0
LINE
  5
1c5
100
AcDbEntity
  8
Layer_1
 62
1
100
AcDbLine
 10
225.975540
 20
209.430609
 30
0.0
 11
212.975540
 21
209.430609
 31
0.0
  0
SPLINE
  5
1c6
100
AcDbEntity
  8
Layer_1
 62
1
100
AcDbSpline
 70
8
 71
3
 72
8
 73
4
 74
0
 40
0
 40
0
 40
0
 40
0
 40
1
 40
1
 40
1
 40
1
 10
212.975540
 20
209.430609
 30
0.0
 10
212.842932
 20
209.430609
 30
0.0
 10
212.715755
 20
209.483287
 30
0.0
 10
212.621987
 20
209.577056
 30
0.0
  0
SPLINE
  5
1c7
100
AcDbEntity
  8
Layer_1
 62
1
100
AcDbSpline
 70
8
 71
3
 72
8
 73
4
 74
0
 40
0
 40
0
 40
0
 40
0
 40
1
 40
1
 40
1
 40
1
 10
212.621987
 20
209.577056
 30
0.0
 10
212.528218
 20
209.670824
 30
0.0
 10
212.475540
 20
209.798001
 30
0.0
 10
212.475540
 20
209.930609
 30
0.0
  0
LINE
  5
1c8
100
AcDbEntity
  8
Layer_1
 62
1
100
AcDbLine
 10
212.475540
 20
209.930609
 30
0.0
 11
212.475540
 21
222.930609
 31
0.0
  0
SPLINE
  5
1c9
100
AcDbEntity
  8
Layer_1
 62
1
100
AcDbSpline
 70
8
 71
3
 72
8
 73
4
 74
0
 40
0
 40
0
 40
0
 40
0
 40
1
 40
1
 40
1
 40
1
 10
212.475540
 20
222.930609
 30
0.0
 10
212.475540
 20
223.063217
 30
0.0
 10
212.528218
 20
223.190394
 30
0.0
 10
212.621987
 20
223.284162
 30
0.0
  0
SPLINE
  5
1ca
100
AcDbEntity
  8
Layer_1
 62
1
100
AcDbSpline
 70
8
 71
3
 72
8
 73
4
 74
0
 40
0
 40
0
 40
0
 40
0
 40
1
 40
1
 40
1
 40
1
 10
212.621987
 20
223.284162
 30
0.0
 10
212.715755
 20
223.377931
 30
0.0
 10
212.842932
 20
223.430609
 30
0.0
 10
212.975540
 20
223.430609
 30
0.0
  0
LINE
  5
1cb
100
AcDbEntity
  8
Layer_1
 62
1
100
AcDbLine
 10
212.975540
 20
223.430609
 30
0.0
 11
212.975540
 21
223.430609
 31
0.0
  0
LINE
  5
1cc
100
AcDbEntity
  8
Layer_1
 62
1
100
AcDbLine
 10
93.913524
 20
223.430609
 30
0.0
 11
106.913540
 21
223.430609
 31
0.0
  0
SPLINE
  5
1cd
100
AcDbEntity
  8
Layer_1
 62
1
100
AcDbSpline
 70
8
 71
3
 72
8
 73
4
 74
0
 40
0
 40
0
 40
0
 40
0
 40
1
 40
1
 40
1
 40
1
 10
106.913540
 20
223.430609
 30
0.0
 10
107.046148
 20
223.430609
 30
0.0
 10
107.173325
 20
223.377931
 30
0.0
 10
107.267093
 20
223.284162
 30
0.0
  0
SPLINE
  5
1ce
100
AcDbEntity
  8
Layer_1
 62
1
100
AcDbSpline
 70
8
 71
3
 72
8
 73
4
 74
0
 40
0
 40
0
 40
0
 40
0
 40
1
 40
1
 40
1
 40
1
 10
107.267093
 20
223.284162
 30
0.0
 10
107.360862
 20
223.190394
 30
0.0
 10
107.413540
 20
223.063217
 30
0.0
 10
107.413540
 20
222.930609
 30
0.0
  0
LINE
  5
1cf
100
AcDbEntity
  8
Layer_1
 62
1
100
AcDbLine
 10
107.413540
 20
222.930609
 30
0.0
 11
107.413540
 21
209.930609
 31
0.0
  0
SPLINE
  5
1d0
100
AcDbEntity
  8
Layer_1
 62
1
100
AcDbSpline
 70
8
 71
3
 72
8
 73
4
 74
0
 40
0
 40
0
 40
0
 40
0
 40
1
 40
1
 40
1
 40
1
 10
107.413540
 20
209.930609
 30
0.0
 10
107.413540
 20
209.798001
 30
0.0
 10
107.360862
 20
209.670824
 30
0.0
 10
107.267093
 20
209.577056
 30
0.0
  0
SPLINE
  5
1d1
100
AcDbEntity
  8
Layer_1
 62
1
100
AcDbSpline
 70
8
 71
3
 72
8
 73
4
 74
0
 40
0
 40
0
 40
0
 40
0
 40
1
 40
1
 40
1
 40
1
 10
107.267093
 20
209.577056
 30
0.0
 10
107.173325
 20
209.483287
 30
0.0
 10
107.046148
 20
209.430609
 30
0.0
 10
106.913540
 20
209.430609
 30
0.0
  0
LINE
  5
1d2
100
AcDbEntity
  8
Layer_1
 62
1
100
AcDbLine
 10
106.913540
 20
209.430609
 30
0.0
 11
93.913524
 21
209.430609
 31
0.0
  0
SPLINE
  5
1d3
100
AcDbEntity
  8
Layer_1
 62
1
100
AcDbSpline
 70
8
 71
3
 72
8
 73
4
 74
0
 40
0
 40
0
 40
0
 40
0
 40
1
 40
1
 40
1
 40
1
 10
93.913524
 20
209.430609
 30
0.0
 10
93.780916
 20
209.430609
 30
0.0
 10
93.653739
 20
209.483287
 30
0.0
 10
93.559971
 20
209.577056
 30
0.0
  0
SPLINE
  5
1d4
100
AcDbEntity
  8
Layer_1
 62
1
100
AcDbSpline
 70
8
 71
3
 72
8
 73
4
 74
0
 40
0
 40
0
 40
0
 40
0
 40
1
 40
1
 40
1
 40
1
 10
93.559971
 20
209.577056
 30
0.0
 10
93.466202
 20
209.670824
 30
0.0
 10
93.413524
 20
209.798001
 30
0.0
 10
93.413524
 20
209.930609
 30
0.0
  0
LINE
  5
1d5
100
AcDbEntity
  8
Layer_1
 62
1
100
AcDbLine
 10
93.413524
 20
209.930609
 30
0.0
 11
93.413524
 21
222.930609
 31
0.0
  0
SPLINE
  5
1d6
100
AcDbEntity
  8
Layer_1
 62
1
100
AcDbSpline
 70
8
 71
3
 72
8
 73
4
 74
0
 40
0
 40
0
 40
0
 40
0
 40
1
 40
1
 40
1
 40
1
 10
93.413524
 20
222.930609
 30
0.0
 10
93.413524
 20
223.063217
 30
0.0
 10
93.466202
 20
223.190394
 30
0.0
 10
93.559971
 20
223.284162
 30
0.0
  0
SPLINE
  5
1d7
100
AcDbEntity
  8
Layer_1
 62
1
100
AcDbSpline
 70
8
 71
3
 72
8
 73
4
 74
0
 40
0
 40
0
 40
0
 40
0
 40
1
 40
1
 40
1
 40
1
 10
93.559971
 20
223.284162
 30
0.0
 10
93.653739
 20
223.377931
 30
0.0
 10
93.780916
 20
223.430609
 30
0.0
 10
93.913524
 20
223.430609
 30
0.0
  0
LINE
  5
1d8
100
AcDbEntity
  8
Layer_1
 62
1
100
AcDbLine
 10
93.913524
 20
223.430609
 30
0.0
 11
93.913524
 21
223.430609
 31
0.0
  0
LINE
  5
1d9
100
AcDbEntity
  8
Layer_1
 62
1
100
AcDbLine
 10
72.482524
 20
223.430609
 30
0.0
 11
85.482524
 21
223.430609
 31
0.0
  0
SPLINE
  5
1da
100
AcDbEntity
  8
Layer_1
 62
1
100
AcDbSpline
 70
8
 71
3
 72
8
 73
4
 74
0
 40
0
 40
0
 40
0
 40
0
 40
1
 40
1
 40
1
 40
1
 10
85.482524
 20
223.430609
 30
0.0
 10
85.615132
 20
223.430609
 30
0.0
 10
85.742309
 20
223.377931
 30
0.0
 10
85.836077
 20
223.284162
 30
0.0
  0
SPLINE
  5
1db
100
AcDbEntity
  8
Layer_1
 62
1
100
AcDbSpline
 70
8
 71
3
 72
8
 73
4
 74
0
 40
0
 40
0
 40
0
 40
0
 40
1
 40
1
 40
1
 40
1
 10
85.836077
 20
223.284162
 30
0.0
 10
85.929846
 20
223.190394
 30
0.0
 10
85.982524
 20
223.063217
 30
0.0
 10
85.982524
 20
222.930609
 30
0.0
  0
LINE
  5
1dc
100
AcDbEntity
  8
Layer_1
 62
1
100
AcDbLine
 10
85.982524
 20
222.930609
 30
0.0
 11
85.982524
 21
209.930609
 31
0.0
  0
SPLINE
  5
1dd
100
AcDbEntity
  8
Layer_1
 62
1
100
AcDbSpline
 70
8
 71
3
 72
8
 73
4
 74
0
 40
0
 40
0
 40
0
 40
0
 40
1
 40
1
 40
1
 40
1
 10
85.982524
 20
209.930609
 30
0.0
 10
85.982524
 20
209.798001
 30
0.0
 10
85.929846
 20
209.670824
 30
0.0
 10
85.836077
 20
209.577056
 30
0.0
  0
SPLINE
  5
1de
100
AcDbEntity
  8
Layer_1
 62
1
100
AcDbSpline
 70
8
 71
3
 72
8
 73
4
 74
0
 40
0
 40
0
 40
0
 40
0
 40
1
 40
1
 40
1
 40
1
 10
85.836077
 20
209.577056
 30
0.0
 10
85.742309
 20
209.483287
 30
0.0
 10
85.615132
 20
209.430609
 30
0.0
 10
85.482524
 20
209.430609
 30
0.0
  0
LINE
  5
1df
100
AcDbEntity
  8
Layer_1
 62
1
100
AcDbLine
 10
85.482524
 20
209.430609
 30
0.0
 11
72.482524
 21
209.430609
 31
0.0
  0
SPLINE
  5
1e0
100
AcDbEntity
  8
Layer_1
 62
1
100
AcDbSpline
 70
8
 71
3
 72
8
 73
4
 74
0
 40
0
 40
0
 40
0
 40
0
 40
1
 40
1
 40
1
 40
1
 10
72.482524
 20
209.430609
 30
0.0
 10
72.349916
 20
209.430609
 30
0.0
 10
72.222739
 20
209.483287
 30
0.0
 10
72.128971
 20
209.577056
 30
0.0
  0
SPLINE
  5
1e1
100
AcDbEntity
  8
Layer_1
 62
1
100
AcDbSpline
 70
8
 71
3
 72
8
 73
4
 74
0
 40
0
 40
0
 40
0
 40
0
 40
1
 40
1
 40
1
 40
1
 10
72.128971
 20
209.577056
 30
0.0
 10
72.035202
 20
209.670824
 30
0.0
 10
71.982524
 20
209.798001
 30
0.0
 10
71.982524
 20
209.930609
 30
0.0
  0
LINE
  5
1e2
100
AcDbEntity
  8
Layer_1
 62
1
100
AcDbLine
 10
71.982524
 20
209.930609
 30
0.0
 11
71.982524
 21
222.930609
 31
0.0
  0
SPLINE
  5
1e3
100
AcDbEntity
  8
Layer_1
 62
1
100
AcDbSpline
 70
8
 71
3
 72
8
 73
4
 74
0
 40
0
 40
0
 40
0
 40
0
 40
1
 40
1
 40
1
 40
1
 10
71.982524
 20
222.930609
 30
0.0
 10
71.982524
 20
223.063217
 30
0.0
 10
72.035202
 20
223.190394
 30
0.0
 10
72.128971
 20
223.284162
 30
0.0
  0
SPLINE
  5
1e4
100
AcDbEntity
  8
Layer_1
 62
1
100
AcDbSpline
 70
8
 71
3
 72
8
 73
4
 74
0
 40
0
 40
0
 40
0
 40
0
 40
1
 40
1
 40
1
 40
1
 10
72.128971
 20
223.284162
 30
0.0
 10
72.222739
 20
223.377931
 30
0.0
 10
72.349916
 20
223.430609
 30
0.0
 10
72.482524
 20
223.430609
 30
0.0
  0
LINE
  5
1e5
100
AcDbEntity
  8
Layer_1
 62
1
100
AcDbLine
 10
72.482524
 20
223.430609
 30
0.0
 11
72.482524
 21
223.430609
 31
0.0
  0
LINE
  5
1e6
100
AcDbEntity
  8
Layer_1
 62
1
100
AcDbLine
 10
51.050524
 20
223.430609
 30
0.0
 11
64.050524
 21
223.430609
 31
0.0
  0
SPLINE
  5
1e7
100
AcDbEntity
  8
Layer_1
 62
1
100
AcDbSpline
 70
8
 71
3
 72
8
 73
4
 74
0
 40
0
 40
0
 40
0
 40
0
 40
1
 40
1
 40
1
 40
1
 10
64.050524
 20
223.430609
 30
0.0
 10
64.183132
 20
223.430609
 30
0.0
 10
64.310309
 20
223.377931
 30
0.0
 10
64.404077
 20
223.284162
 30
0.0
  0
SPLINE
  5
1e8
100
AcDbEntity
  8
Layer_1
 62
1
100
AcDbSpline
 70
8
 71
3
 72
8
 73
4
 74
0
 40
0
 40
0
 40
0
 40
0
 40
1
 40
1
 40
1
 40
1
 10
64.404077
 20
223.284162
 30
0.0
 10
64.497846
 20
223.190394
 30
0.0
 10
64.550524
 20
223.063217
 30
0.0
 10
64.550524
 20
222.930609
 30
0.0
  0
LINE
  5
1e9
100
AcDbEntity
  8
Layer_1
 62
1
100
AcDbLine
 10
64.550524
 20
222.930609
 30
0.0
 11
64.550524
 21
209.930609
 31
0.0
  0
SPLINE
  5
1ea
100
AcDbEntity
  8
Layer_1
 62
1
100
AcDbSpline
 70
8
 71
3
 72
8
 73
4
 74
0
 40
0
 40
0
 40
0
 40
0
 40
1
 40
1
 40
1
 40
1
 10
64.550524
 20
209.930609
 30
0.0
 10
64.550524
 20
209.798001
 30
0.0
 10
64.497846
 20
209.670824
 30
0.0
 10
64.404077
 20
209.577056
 30
0.0
  0
SPLINE
  5
1eb
100
AcDbEntity
  8
Layer_1
 62
1
100
AcDbSpline
 70
8
 71
3
 72
8
 73
4
 74
0
 40
0
 40
0
 40
0
 40
0
 40
1
 40
1
 40
1
 40
1
 10
64.404077
 20
209.577056
 30
0.0
 10
64.310309
 20
209.483287
 30
0.0
 10
64.183132
 20
209.430609
 30
0.0
 10
64.050524
 20
209.430609
 30
0.0
  0
LINE
  5
1ec
100
AcDbEntity
  8
Layer_1
 62
1
100
AcDbLine
 10
64.050524
 20
209.430609
 30
0.0
 11
51.050524
 21
209.430609
 31
0.0
  0
SPLINE
  5
1ed
100
AcDbEntity
  8
Layer_1
 62
1
100
AcDbSpline
 70
8
 71
3
 72
8
 73
4
 74
0
 40
0
 40
0
 40
0
 40
0
 40
1
 40
1
 40
1
 40
1
 10
51.050524
 20
209.430609
 30
0.0
 10
50.917916
 20
209.430609
 30
0.0
 10
50.790739
 20
209.483287
 30
0.0
 10
50.696971
 20
209.577056
 30
0.0
  0
SPLINE
  5
1ee
100
AcDbEntity
  8
Layer_1
 62
1
100
AcDbSpline
 70
8
 71
3
 72
8
 73
4
 74
0
 40
0
 40
0
 40
0
 40
0
 40
1
 40
1
 40
1
 40
1
 10
50.696971
 20
209.577056
 30
0.0
 10
50.603202
 20
209.670824
 30
0.0
 10
50.550524
 20
209.798001
 30
0.0
 10
50.550524
 20
209.930609
 30
0.0
  0
LINE
  5
1ef
100
AcDbEntity
  8
Layer_1
 62
1
100
AcDbLine
 10
50.550524
 20
209.930609
 30
0.0
 11
50.550524
 21
222.930609
 31
0.0
  0
SPLINE
  5
1f0
100
AcDbEntity
  8
Layer_1
 62
1
100
AcDbSpline
 70
8
 71
3
 72
8
 73
4
 74
0
 40
0
 40
0
 40
0
 40
0
 40
1
 40
1
 40
1
 40
1
 10
50.550524
 20
222.930609
 30
0.0
 10
50.550524
 20
223.063217
 30
0.0
 10
50.603202
 20
223.190394
 30
0.0
 10
50.696971
 20
223.284162
 30
0.0
  0
SPLINE
  5
1f1
100
AcDbEntity
  8
Layer_1
 62
1
100
AcDbSpline
 70
8
 71
3
 72
8
 73
4
 74
0
 40
0
 40
0
 40
0
 40
0
 40
1
 40
1
 40
1
 40
1
 10
50.696971
 20
223.284162
 30
0.0
 10
50.790739
 20
223.377931
 30
0.0
 10
50.917916
 20
223.430609
 30
0.0
 10
51.050524
 20
223.430609
 30
0.0
  0
LINE
  5
1f2
100
AcDbEntity
  8
Layer_1
 62
1
100
AcDbLine
 10
51.050524
 20
223.430609
 30
0.0
 11
51.050524
 21
223.430609
 31
0.0
  0
LINE
  5
1f3
100
AcDbEntity
  8
Layer_1
 62
1
100
AcDbLine
 10
272.507530
 20
242.480609
 30
0.0
 11
285.507530
 21
242.480609
 31
0.0
  0
SPLINE
  5
1f4
100
AcDbEntity
  8
Layer_1
 62
1
100
AcDbSpline
 70
8
 71
3
 72
8
 73
4
 74
0
 40
0
 40
0
 40
0
 40
0
 40
1
 40
1
 40
1
 40
1
 10
285.507530
 20
242.480609
 30
0.0
 10
285.640138
 20
242.480609
 30
0.0
 10
285.767315
 20
242.427931
 30
0.0
 10
285.861083
 20
242.334162
 30
0.0
  0
SPLINE
  5
1f5
100
AcDbEntity
  8
Layer_1
 62
1
100
AcDbSpline
 70
8
 71
3
 72
8
 73
4
 74
0
 40
0
 40
0
 40
0
 40
0
 40
1
 40
1
 40
1
 40
1
 10
285.861083
 20
242.334162
 30
0.0
 10
285.954852
 20
242.240394
 30
0.0
 10
286.007530
 20
242.113217
 30
0.0
 10
286.007530
 20
241.980609
 30
0.0
  0
LINE
  5
1f6
100
AcDbEntity
  8
Layer_1
 62
1
100
AcDbLine
 10
286.007530
 20
241.980609
 30
0.0
 11
286.007530
 21
228.980609
 31
0.0
  0
SPLINE
  5
1f7
100
AcDbEntity
  8
Layer_1
 62
1
100
AcDbSpline
 70
8
 71
3
 72
8
 73
4
 74
0
 40
0
 40
0
 40
0
 40
0
 40
1
 40
1
 40
1
 40
1
 10
286.007530
 20
228.980609
 30
0.0
 10
286.007530
 20
228.848001
 30
0.0
 10
285.954852
 20
228.720824
 30
0.0
 10
285.861083
 20
228.627056
 30
0.0
  0
SPLINE
  5
1f8
100
AcDbEntity
  8
Layer_1
 62
1
100
AcDbSpline
 70
8
 71
3
 72
8
 73
4
 74
0
 40
0
 40
0
 40
0
 40
0
 40
1
 40
1
 40
1
 40
1
 10
285.861083
 20
228.627056
 30
0.0
 10
285.767315
 20
228.533287
 30
0.0
 10
285.640138
 20
228.480609
 30
0.0
 10
285.507530
 20
228.480609
 30
0.0
  0
LINE
  5
1f9
100
AcDbEntity
  8
Layer_1
 62
1
100
AcDbLine
 10
285.507530
 20
228.480609
 30
0.0
 11
272.507530
 21
228.480609
 31
0.0
  0
SPLINE
  5
1fa
100
AcDbEntity
  8
Layer_1
 62
1
100
AcDbSpline
 70
8
 71
3
 72
8
 73
4
 74
0
 40
0
 40
0
 40
0
 40
0
 40
1
 40
1
 40
1
 40
1
 10
272.507530
 20
228.480609
 30
0.0
 10
272.374922
 20
228.480609
 30
0.0
 10
272.247745
 20
228.533287
 30
0.0
 10
272.153977
 20
228.627056
 30
0.0
  0
SPLINE
  5
1fb
100
AcDbEntity
  8
Layer_1
 62
1
100
AcDbSpline
 70
8
 71
3
 72
8
 73
4
 74
0
 40
0
 40
0
 40
0
 40
0
 40
1
 40
1
 40
1
 40
1
 10
272.153977
 20
228.627056
 30
0.0
 10
272.060208
 20
228.720824
 30
0.0
 10
272.007530
 20
228.848001
 30
0.0
 10
272.007530
 20
228.980609
 30
0.0
  0
LINE
  5
1fc
100
AcDbEntity
  8
Layer_1
 62
1
100
AcDbLine
 10
272.007530
 20
228.980609
 30
0.0
 11
272.007530
 21
241.980609
 31
0.0
  0
SPLINE
  5
1fd
100
AcDbEntity
  8
Layer_1
 62
1
100
AcDbSpline
 70
8
 71
3
 72
8
 73
4
 74
0
 40
0
 40
0
 40
0
 40
0
 40
1
 40
1
 40
1
 40
1
 10
272.007530
 20
241.980609
 30
0.0
 10
272.007530
 20
242.113217
 30
0.0
 10
272.060208
 20
242.240394
 30
0.0
 10
272.153977
 20
242.334162
 30
0.0
  0
SPLINE
  5
1fe
100
AcDbEntity
  8
Layer_1
 62
1
100
AcDbSpline
 70
8
 71
3
 72
8
 73
4
 74
0
 40
0
 40
0
 40
0
 40
0
 40
1
 40
1
 40
1
 40
1
 10
272.153977
 20
242.334162
 30
0.0
 10
272.247745
 20
242.427931
 30
0.0
 10
272.374922
 20
242.480609
 30
0.0
 10
272.507530
 20
242.480609
 30
0.0
  0
LINE
  5
1ff
100
AcDbEntity
  8
Layer_1
 62
1
100
AcDbLine
 10
272.507530
 20
242.480609
 30
0.0
 11
272.507530
 21
242.480609
 31
0.0
  0
LINE
  5
200
100
AcDbEntity
  8
Layer_1
 62
1
100
AcDbLine
 10
253.457530
 20
242.480609
 30
0.0
 11
266.457530
 21
242.480609
 31
0.0
  0
SPLINE
  5
201
100
AcDbEntity
  8
Layer_1
 62
1
100
AcDbSpline
 70
8
 71
3
 72
8
 73
4
 74
0
 40
0
 40
0
 40
0
 40
0
 40
1
 40
1
 40
1
 40
1
 10
266.457530
 20
242.480609
 30
0.0
 10
266.590138
 20
242.480609
 30
0.0
 10
266.717315
 20
242.427931
 30
0.0
 10
266.811083
 20
242.334162
 30
0.0
  0
SPLINE
  5
202
100
AcDbEntity
  8
Layer_1
 62
1
100
AcDbSpline
 70
8
 71
3
 72
8
 73
4
 74
0
 40
0
 40
0
 40
0
 40
0
 40
1
 40
1
 40
1
 40
1
 10
266.811083
 20
242.334162
 30
0.0
 10
266.904852
 20
242.240394
 30
0.0
 10
266.957530
 20
242.113217
 30
0.0
 10
266.957530
 20
241.980609
 30
0.0
  0
LINE
  5
203
100
AcDbEntity
  8
Layer_1
 62
1
100
AcDbLine
 10
266.957530
 20
241.980609
 30
0.0
 11
266.957530
 21
228.980609
 31
0.0
  0
SPLINE
  5
204
100
AcDbEntity
  8
Layer_1
 62
1
100
AcDbSpline
 70
8
 71
3
 72
8
 73
4
 74
0
 40
0
 40
0
 40
0
 40
0
 40
1
 40
1
 40
1
 40
1
 10
266.957530
 20
228.980609
 30
0.0
 10
266.957530
 20
228.848001
 30
0.0
 10
266.904852
 20
228.720824
 30
0.0
 10
266.811083
 20
228.627056
 30
0.0
  0
SPLINE
  5
205
100
AcDbEntity
  8
Layer_1
 62
1
100
AcDbSpline
 70
8
 71
3
 72
8
 73
4
 74
0
 40
0
 40
0
 40
0
 40
0
 40
1
 40
1
 40
1
 40
1
 10
266.811083
 20
228.627056
 30
0.0
 10
266.717315
 20
228.533287
 30
0.0
 10
266.590138
 20
228.480609
 30
0.0
 10
266.457530
 20
228.480609
 30
0.0
  0
LINE
  5
206
100
AcDbEntity
  8
Layer_1
 62
1
100
AcDbLine
 10
266.457530
 20
228.480609
 30
0.0
 11
253.457530
 21
228.480609
 31
0.0
  0
SPLINE
  5
207
100
AcDbEntity
  8
Layer_1
 62
1
100
AcDbSpline
 70
8
 71
3
 72
8
 73
4
 74
0
 40
0
 40
0
 40
0
 40
0
 40
1
 40
1
 40
1
 40
1
 10
253.457530
 20
228.480609
 30
0.0
 10
253.324922
 20
228.480609
 30
0.0
 10
253.197745
 20
228.533287
 30
0.0
 10
253.103977
 20
228.627056
 30
0.0
  0
SPLINE
  5
208
100
AcDbEntity
  8
Layer_1
 62
1
100
AcDbSpline
 70
8
 71
3
 72
8
 73
4
 74
0
 40
0
 40
0
 40
0
 40
0
 40
1
 40
1
 40
1
 40
1
 10
253.103977
 20
228.627056
 30
0.0
 10
253.010208
 20
228.720824
 30
0.0
 10
252.957530
 20
228.848001
 30
0.0
 10
252.957530
 20
228.980609
 30
0.0
  0
LINE
  5
209
100
AcDbEntity
  8
Layer_1
 62
1
100
AcDbLine
 10
252.957530
 20
228.980609
 30
0.0
 11
252.957530
 21
241.980609
 31
0.0
  0
SPLINE
  5
20a
100
AcDbEntity
  8
Layer_1
 62
1
100
AcDbSpline
 70
8
 71
3
 72
8
 73
4
 74
0
 40
0
 40
0
 40
0
 40
0
 40
1
 40
1
 40
1
 40
1
 10
252.957530
 20
241.980609
 30
0.0
 10
252.957530
 20
242.113217
 30
0.0
 10
253.010208
 20
242.240394
 30
0.0
 10
253.103977
 20
242.334162
 30
0.0
  0
SPLINE
  5
20b
100
AcDbEntity
  8
Layer_1
 62
1
100
AcDbSpline
 70
8
 71
3
 72
8
 73
4
 74
0
 40
0
 40
0
 40
0
 40
0
 40
1
 40
1
 40
1
 40
1
 10
253.103977
 20
242.334162
 30
0.0
 10
253.197745
 20
242.427931
 30
0.0
 10
253.324922
 20
242.480609
 30
0.0
 10
253.457530
 20
242.480609
 30
0.0
  0
LINE
  5
20c
100
AcDbEntity
  8
Layer_1
 62
1
100
AcDbLine
 10
253.457530
 20
242.480609
 30
0.0
 11
253.457530
 21
242.480609
 31
0.0
  0
LINE
  5
20d
100
AcDbEntity
  8
Layer_1
 62
1
100
AcDbLine
 10
234.407540
 20
242.480609
 30
0.0
 11
247.407540
 21
242.480609
 31
0.0
  0
SPLINE
  5
20e
100
AcDbEntity
  8
Layer_1
 62
1
100
AcDbSpline
 70
8
 71
3
 72
8
 73
4
 74
0
 40
0
 40
0
 40
0
 40
0
 40
1
 40
1
 40
1
 40
1
 10
247.407540
 20
242.480609
 30
0.0
 10
247.683678
 20
242.480603
 30
0.0
 10
247.907530
 20
242.256747
 30
0.0
 10
247.907530
 20
241.980609
 30
0.0
  0
LINE
  5
20f
100
AcDbEntity
  8
Layer_1
 62
1
100
AcDbLine
 10
247.907530
 20
241.980609
 30
0.0
 11
247.907530
 21
228.980609
 31
0.0
  0
SPLINE
  5
210
100
AcDbEntity
  8
Layer_1
 62
1
100
AcDbSpline
 70
8
 71
3
 72
8
 73
4
 74
0
 40
0
 40
0
 40
0
 40
0
 40
1
 40
1
 40
1
 40
1
 10
247.907530
 20
228.980609
 30
0.0
 10
247.907530
 20
228.704471
 30
0.0
 10
247.683678
 20
228.480615
 30
0.0
 10
247.407540
 20
228.480609
 30
0.0
  0
LINE
  5
211
100
AcDbEntity
  8
Layer_1
 62
1
100
AcDbLine
 10
247.407540
 20
228.480609
 30
0.0
 11
234.407540
 21
228.480609
 31
0.0
  0
SPLINE
  5
212
100
AcDbEntity
  8
Layer_1
 62
1
100
AcDbSpline
 70
8
 71
3
 72
8
 73
4
 74
0
 40
0
 40
0
 40
0
 40
0
 40
1
 40
1
 40
1
 40
1
 10
234.407540
 20
228.480609
 30
0.0
 10
234.274932
 20
228.480609
 30
0.0
 10
234.147755
 20
228.533287
 30
0.0
 10
234.053987
 20
228.627056
 30
0.0
  0
SPLINE
  5
213
100
AcDbEntity
  8
Layer_1
 62
1
100
AcDbSpline
 70
8
 71
3
 72
8
 73
4
 74
0
 40
0
 40
0
 40
0
 40
0
 40
1
 40
1
 40
1
 40
1
 10
234.053987
 20
228.627056
 30
0.0
 10
233.960218
 20
228.720824
 30
0.0
 10
233.907540
 20
228.848001
 30
0.0
 10
233.907540
 20
228.980609
 30
0.0
  0
LINE
  5
214
100
AcDbEntity
  8
Layer_1
 62
1
100
AcDbLine
 10
233.907540
 20
228.980609
 30
0.0
 11
233.907540
 21
241.980609
 31
0.0
  0
SPLINE
  5
215
100
AcDbEntity
  8
Layer_1
 62
1
100
AcDbSpline
 70
8
 71
3
 72
8
 73
4
 74
0
 40
0
 40
0
 40
0
 40
0
 40
1
 40
1
 40
1
 40
1
 10
233.907540
 20
241.980609
 30
0.0
 10
233.907540
 20
242.113217
 30
0.0
 10
233.960218
 20
242.240394
 30
0.0
 10
234.053987
 20
242.334162
 30
0.0
  0
SPLINE
  5
216
100
AcDbEntity
  8
Layer_1
 62
1
100
AcDbSpline
 70
8
 71
3
 72
8
 73
4
 74
0
 40
0
 40
0
 40
0
 40
0
 40
1
 40
1
 40
1
 40
1
 10
234.053987
 20
242.334162
 30
0.0
 10
234.147755
 20
242.427931
 30
0.0
 10
234.274932
 20
242.480609
 30
0.0
 10
234.407540
 20
242.480609
 30
0.0
  0
LINE
  5
217
100
AcDbEntity
  8
Layer_1
 62
1
100
AcDbLine
 10
234.407540
 20
242.480609
 30
0.0
 11
234.407540
 21
242.480609
 31
0.0
  0
LINE
  5
218
100
AcDbEntity
  8
Layer_1
 62
1
100
AcDbLine
 10
215.357540
 20
242.480609
 30
0.0
 11
228.357540
 21
242.480609
 31
0.0
  0
SPLINE
  5
219
100
AcDbEntity
  8
Layer_1
 62
1
100
AcDbSpline
 70
8
 71
3
 72
8
 73
4
 74
0
 40
0
 40
0
 40
0
 40
0
 40
1
 40
1
 40
1
 40
1
 10
228.357540
 20
242.480609
 30
0.0
 10
228.490148
 20
242.480609
 30
0.0
 10
228.617325
 20
242.427931
 30
0.0
 10
228.711093
 20
242.334162
 30
0.0
  0
SPLINE
  5
21a
100
AcDbEntity
  8
Layer_1
 62
1
100
AcDbSpline
 70
8
 71
3
 72
8
 73
4
 74
0
 40
0
 40
0
 40
0
 40
0
 40
1
 40
1
 40
1
 40
1
 10
228.711093
 20
242.334162
 30
0.0
 10
228.804862
 20
242.240394
 30
0.0
 10
228.857540
 20
242.113217
 30
0.0
 10
228.857540
 20
241.980609
 30
0.0
  0
LINE
  5
21b
100
AcDbEntity
  8
Layer_1
 62
1
100
AcDbLine
 10
228.857540
 20
241.980609
 30
0.0
 11
228.857540
 21
228.980609
 31
0.0
  0
SPLINE
  5
21c
100
AcDbEntity
  8
Layer_1
 62
1
100
AcDbSpline
 70
8
 71
3
 72
8
 73
4
 74
0
 40
0
 40
0
 40
0
 40
0
 40
1
 40
1
 40
1
 40
1
 10
228.857540
 20
228.980609
 30
0.0
 10
228.857540
 20
228.848001
 30
0.0
 10
228.804862
 20
228.720824
 30
0.0
 10
228.711093
 20
228.627056
 30
0.0
  0
SPLINE
  5
21d
100
AcDbEntity
  8
Layer_1
 62
1
100
AcDbSpline
 70
8
 71
3
 72
8
 73
4
 74
0
 40
0
 40
0
 40
0
 40
0
 40
1
 40
1
 40
1
 40
1
 10
228.711093
 20
228.627056
 30
0.0
 10
228.617325
 20
228.533287
 30
0.0
 10
228.490148
 20
228.480609
 30
0.0
 10
228.357540
 20
228.480609
 30
0.0
  0
LINE
  5
21e
100
AcDbEntity
  8
Layer_1
 62
1
100
AcDbLine
 10
228.357540
 20
228.480609
 30
0.0
 11
215.357540
 21
228.480609
 31
0.0
  0
SPLINE
  5
21f
100
AcDbEntity
  8
Layer_1
 62
1
100
AcDbSpline
 70
8
 71
3
 72
8
 73
4
 74
0
 40
0
 40
0
 40
0
 40
0
 40
1
 40
1
 40
1
 40
1
 10
215.357540
 20
228.480609
 30
0.0
 10
215.224932
 20
228.480609
 30
0.0
 10
215.097755
 20
228.533287
 30
0.0
 10
215.003987
 20
228.627056
 30
0.0
  0
SPLINE
  5
220
100
AcDbEntity
  8
Layer_1
 62
1
100
AcDbSpline
 70
8
 71
3
 72
8
 73
4
 74
0
 40
0
 40
0
 40
0
 40
0
 40
1
 40
1
 40
1
 40
1
 10
215.003987
 20
228.627056
 30
0.0
 10
214.910218
 20
228.720824
 30
0.0
 10
214.857540
 20
228.848001
 30
0.0
 10
214.857540
 20
228.980609
 30
0.0
  0
LINE
  5
221
100
AcDbEntity
  8
Layer_1
 62
1
100
AcDbLine
 10
214.857540
 20
228.980609
 30
0.0
 11
214.857540
 21
241.980609
 31
0.0
  0
SPLINE
  5
222
100
AcDbEntity
  8
Layer_1
 62
1
100
AcDbSpline
 70
8
 71
3
 72
8
 73
4
 74
0
 40
0
 40
0
 40
0
 40
0
 40
1
 40
1
 40
1
 40
1
 10
214.857540
 20
241.980609
 30
0.0
 10
214.857540
 20
242.113217
 30
0.0
 10
214.910218
 20
242.240394
 30
0.0
 10
215.003987
 20
242.334162
 30
0.0
  0
SPLINE
  5
223
100
AcDbEntity
  8
Layer_1
 62
1
100
AcDbSpline
 70
8
 71
3
 72
8
 73
4
 74
0
 40
0
 40
0
 40
0
 40
0
 40
1
 40
1
 40
1
 40
1
 10
215.003987
 20
242.334162
 30
0.0
 10
215.097755
 20
242.427931
 30
0.0
 10
215.224932
 20
242.480609
 30
0.0
 10
215.357540
 20
242.480609
 30
0.0
  0
LINE
  5
224
100
AcDbEntity
  8
Layer_1
 62
1
100
AcDbLine
 10
215.357540
 20
242.480609
 30
0.0
 11
215.357540
 21
242.480609
 31
0.0
  0
LINE
  5
225
100
AcDbEntity
  8
Layer_1
 62
1
100
AcDbLine
 10
196.307540
 20
242.480609
 30
0.0
 11
209.307540
 21
242.480609
 31
0.0
  0
SPLINE
  5
226
100
AcDbEntity
  8
Layer_1
 62
1
100
AcDbSpline
 70
8
 71
3
 72
8
 73
4
 74
0
 40
0
 40
0
 40
0
 40
0
 40
1
 40
1
 40
1
 40
1
 10
209.307540
 20
242.480609
 30
0.0
 10
209.440148
 20
242.480609
 30
0.0
 10
209.567325
 20
242.427931
 30
0.0
 10
209.661093
 20
242.334162
 30
0.0
  0
SPLINE
  5
227
100
AcDbEntity
  8
Layer_1
 62
1
100
AcDbSpline
 70
8
 71
3
 72
8
 73
4
 74
0
 40
0
 40
0
 40
0
 40
0
 40
1
 40
1
 40
1
 40
1
 10
209.661093
 20
242.334162
 30
0.0
 10
209.754862
 20
242.240394
 30
0.0
 10
209.807540
 20
242.113217
 30
0.0
 10
209.807540
 20
241.980609
 30
0.0
  0
LINE
  5
228
100
AcDbEntity
  8
Layer_1
 62
1
100
AcDbLine
 10
209.807540
 20
241.980609
 30
0.0
 11
209.807540
 21
228.980609
 31
0.0
  0
SPLINE
  5
229
100
AcDbEntity
  8
Layer_1
 62
1
100
AcDbSpline
 70
8
 71
3
 72
8
 73
4
 74
0
 40
0
 40
0
 40
0
 40
0
 40
1
 40
1
 40
1
 40
1
 10
209.807540
 20
228.980609
 30
0.0
 10
209.807540
 20
228.848001
 30
0.0
 10
209.754862
 20
228.720824
 30
0.0
 10
209.661093
 20
228.627056
 30
0.0
  0
SPLINE
  5
22a
100
AcDbEntity
  8
Layer_1
 62
1
100
AcDbSpline
 70
8
 71
3
 72
8
 73
4
 74
0
 40
0
 40
0
 40
0
 40
0
 40
1
 40
1
 40
1
 40
1
 10
209.661093
 20
228.627056
 30
0.0
 10
209.567325
 20
228.533287
 30
0.0
 10
209.440148
 20
228.480609
 30
0.0
 10
209.307540
 20
228.480609
 30
0.0
  0
LINE
  5
22b
100
AcDbEntity
  8
Layer_1
 62
1
100
AcDbLine
 10
209.307540
 20
228.480609
 30
0.0
 11
196.307540
 21
228.480609
 31
0.0
  0
SPLINE
  5
22c
100
AcDbEntity
  8
Layer_1
 62
1
100
AcDbSpline
 70
8
 71
3
 72
8
 73
4
 74
0
 40
0
 40
0
 40
0
 40
0
 40
1
 40
1
 40
1
 40
1
 10
196.307540
 20
228.480609
 30
0.0
 10
196.174932
 20
228.480609
 30
0.0
 10
196.047755
 20
228.533287
 30
0.0
 10
195.953987
 20
228.627056
 30
0.0
  0
SPLINE
  5
22d
100
AcDbEntity
  8
Layer_1
 62
1
100
AcDbSpline
 70
8
 71
3
 72
8
 73
4
 74
0
 40
0
 40
0
 40
0
 40
0
 40
1
 40
1
 40
1
 40
1
 10
195.953987
 20
228.627056
 30
0.0
 10
195.860218
 20
228.720824
 30
0.0
 10
195.807540
 20
228.848001
 30
0.0
 10
195.807540
 20
228.980609
 30
0.0
  0
LINE
  5
22e
100
AcDbEntity
  8
Layer_1
 62
1
100
AcDbLine
 10
195.807540
 20
228.980609
 30
0.0
 11
195.807540
 21
241.980609
 31
0.0
  0
SPLINE
  5
22f
100
AcDbEntity
  8
Layer_1
 62
1
100
AcDbSpline
 70
8
 71
3
 72
8
 73
4
 74
0
 40
0
 40
0
 40
0
 40
0
 40
1
 40
1
 40
1
 40
1
 10
195.807540
 20
241.980609
 30
0.0
 10
195.807540
 20
242.113217
 30
0.0
 10
195.860218
 20
242.240394
 30
0.0
 10
195.953987
 20
242.334162
 30
0.0
  0
SPLINE
  5
230
100
AcDbEntity
  8
Layer_1
 62
1
100
AcDbSpline
 70
8
 71
3
 72
8
 73
4
 74
0
 40
0
 40
0
 40
0
 40
0
 40
1
 40
1
 40
1
 40
1
 10
195.953987
 20
242.334162
 30
0.0
 10
196.047755
 20
242.427931
 30
0.0
 10
196.174932
 20
242.480609
 30
0.0
 10
196.307540
 20
242.480609
 30
0.0
  0
LINE
  5
231
100
AcDbEntity
  8
Layer_1
 62
1
100
AcDbLine
 10
196.307540
 20
242.480609
 30
0.0
 11
196.307540
 21
242.480609
 31
0.0
  0
LINE
  5
232
100
AcDbEntity
  8
Layer_1
 62
1
100
AcDbLine
 10
177.257540
 20
242.480609
 30
0.0
 11
190.257540
 21
242.480609
 31
0.0
  0
SPLINE
  5
233
100
AcDbEntity
  8
Layer_1
 62
1
100
AcDbSpline
 70
8
 71
3
 72
8
 73
4
 74
0
 40
0
 40
0
 40
0
 40
0
 40
1
 40
1
 40
1
 40
1
 10
190.257540
 20
242.480609
 30
0.0
 10
190.390148
 20
242.480609
 30
0.0
 10
190.517325
 20
242.427931
 30
0.0
 10
190.611093
 20
242.334162
 30
0.0
  0
SPLINE
  5
234
100
AcDbEntity
  8
Layer_1
 62
1
100
AcDbSpline
 70
8
 71
3
 72
8
 73
4
 74
0
 40
0
 40
0
 40
0
 40
0
 40
1
 40
1
 40
1
 40
1
 10
190.611093
 20
242.334162
 30
0.0
 10
190.704862
 20
242.240394
 30
0.0
 10
190.757540
 20
242.113217
 30
0.0
 10
190.757540
 20
241.980609
 30
0.0
  0
LINE
  5
235
100
AcDbEntity
  8
Layer_1
 62
1
100
AcDbLine
 10
190.757540
 20
241.980609
 30
0.0
 11
190.757540
 21
228.980609
 31
0.0
  0
SPLINE
  5
236
100
AcDbEntity
  8
Layer_1
 62
1
100
AcDbSpline
 70
8
 71
3
 72
8
 73
4
 74
0
 40
0
 40
0
 40
0
 40
0
 40
1
 40
1
 40
1
 40
1
 10
190.757540
 20
228.980609
 30
0.0
 10
190.757540
 20
228.848001
 30
0.0
 10
190.704862
 20
228.720824
 30
0.0
 10
190.611093
 20
228.627056
 30
0.0
  0
SPLINE
  5
237
100
AcDbEntity
  8
Layer_1
 62
1
100
AcDbSpline
 70
8
 71
3
 72
8
 73
4
 74
0
 40
0
 40
0
 40
0
 40
0
 40
1
 40
1
 40
1
 40
1
 10
190.611093
 20
228.627056
 30
0.0
 10
190.517325
 20
228.533287
 30
0.0
 10
190.390148
 20
228.480609
 30
0.0
 10
190.257540
 20
228.480609
 30
0.0
  0
LINE
  5
238
100
AcDbEntity
  8
Layer_1
 62
1
100
AcDbLine
 10
190.257540
 20
228.480609
 30
0.0
 11
177.257540
 21
228.480609
 31
0.0
  0
SPLINE
  5
239
100
AcDbEntity
  8
Layer_1
 62
1
100
AcDbSpline
 70
8
 71
3
 72
8
 73
4
 74
0
 40
0
 40
0
 40
0
 40
0
 40
1
 40
1
 40
1
 40
1
 10
177.257540
 20
228.480609
 30
0.0
 10
177.124932
 20
228.480609
 30
0.0
 10
176.997755
 20
228.533287
 30
0.0
 10
176.903987
 20
228.627056
 30
0.0
  0
SPLINE
  5
23a
100
AcDbEntity
  8
Layer_1
 62
1
100
AcDbSpline
 70
8
 71
3
 72
8
 73
4
 74
0
 40
0
 40
0
 40
0
 40
0
 40
1
 40
1
 40
1
 40
1
 10
176.903987
 20
228.627056
 30
0.0
 10
176.810218
 20
228.720824
 30
0.0
 10
176.757540
 20
228.848001
 30
0.0
 10
176.757540
 20
228.980609
 30
0.0
  0
LINE
  5
23b
100
AcDbEntity
  8
Layer_1
 62
1
100
AcDbLine
 10
176.757540
 20
228.980609
 30
0.0
 11
176.757540
 21
241.980609
 31
0.0
  0
SPLINE
  5
23c
100
AcDbEntity
  8
Layer_1
 62
1
100
AcDbSpline
 70
8
 71
3
 72
8
 73
4
 74
0
 40
0
 40
0
 40
0
 40
0
 40
1
 40
1
 40
1
 40
1
 10
176.757540
 20
241.980609
 30
0.0
 10
176.757540
 20
242.113217
 30
0.0
 10
176.810218
 20
242.240394
 30
0.0
 10
176.903987
 20
242.334162
 30
0.0
  0
SPLINE
  5
23d
100
AcDbEntity
  8
Layer_1
 62
1
100
AcDbSpline
 70
8
 71
3
 72
8
 73
4
 74
0
 40
0
 40
0
 40
0
 40
0
 40
1
 40
1
 40
1
 40
1
 10
176.903987
 20
242.334162
 30
0.0
 10
176.997755
 20
242.427931
 30
0.0
 10
177.124932
 20
242.480609
 30
0.0
 10
177.257540
 20
242.480609
 30
0.0
  0
LINE
  5
23e
100
AcDbEntity
  8
Layer_1
 62
1
100
AcDbLine
 10
177.257540
 20
242.480609
 30
0.0
 11
177.257540
 21
242.480609
 31
0.0
  0
LINE
  5
23f
100
AcDbEntity
  8
Layer_1
 62
1
100
AcDbLine
 10
158.207540
 20
242.480609
 30
0.0
 11
171.207540
 21
242.480609
 31
0.0
  0
SPLINE
  5
240
100
AcDbEntity
  8
Layer_1
 62
1
100
AcDbSpline
 70
8
 71
3
 72
8
 73
4
 74
0
 40
0
 40
0
 40
0
 40
0
 40
1
 40
1
 40
1
 40
1
 10
171.207540
 20
242.480609
 30
0.0
 10
171.340148
 20
242.480609
 30
0.0
 10
171.467325
 20
242.427931
 30
0.0
 10
171.561093
 20
242.334162
 30
0.0
  0
SPLINE
  5
241
100
AcDbEntity
  8
Layer_1
 62
1
100
AcDbSpline
 70
8
 71
3
 72
8
 73
4
 74
0
 40
0
 40
0
 40
0
 40
0
 40
1
 40
1
 40
1
 40
1
 10
171.561093
 20
242.334162
 30
0.0
 10
171.654862
 20
242.240394
 30
0.0
 10
171.707540
 20
242.113217
 30
0.0
 10
171.707540
 20
241.980609
 30
0.0
  0
LINE
  5
242
100
AcDbEntity
  8
Layer_1
 62
1
100
AcDbLine
 10
171.707540
 20
241.980609
 30
0.0
 11
171.707540
 21
228.980609
 31
0.0
  0
SPLINE
  5
243
100
AcDbEntity
  8
Layer_1
 62
1
100
AcDbSpline
 70
8
 71
3
 72
8
 73
4
 74
0
 40
0
 40
0
 40
0
 40
0
 40
1
 40
1
 40
1
 40
1
 10
171.707540
 20
228.980609
 30
0.0
 10
171.707540
 20
228.848001
 30
0.0
 10
171.654862
 20
228.720824
 30
0.0
 10
171.561093
 20
228.627056
 30
0.0
  0
SPLINE
  5
244
100
AcDbEntity
  8
Layer_1
 62
1
100
AcDbSpline
 70
8
 71
3
 72
8
 73
4
 74
0
 40
0
 40
0
 40
0
 40
0
 40
1
 40
1
 40
1
 40
1
 10
171.561093
 20
228.627056
 30
0.0
 10
171.467325
 20
228.533287
 30
0.0
 10
171.340148
 20
228.480609
 30
0.0
 10
171.207540
 20
228.480609
 30
0.0
  0
LINE
  5
245
100
AcDbEntity
  8
Layer_1
 62
1
100
AcDbLine
 10
171.207540
 20
228.480609
 30
0.0
 11
158.207540
 21
228.480609
 31
0.0
  0
SPLINE
  5
246
100
AcDbEntity
  8
Layer_1
 62
1
100
AcDbSpline
 70
8
 71
3
 72
8
 73
4
 74
0
 40
0
 40
0
 40
0
 40
0
 40
1
 40
1
 40
1
 40
1
 10
158.207540
 20
228.480609
 30
0.0
 10
158.074932
 20
228.480609
 30
0.0
 10
157.947755
 20
228.533287
 30
0.0
 10
157.853987
 20
228.627056
 30
0.0
  0
SPLINE
  5
247
100
AcDbEntity
  8
Layer_1
 62
1
100
AcDbSpline
 70
8
 71
3
 72
8
 73
4
 74
0
 40
0
 40
0
 40
0
 40
0
 40
1
 40
1
 40
1
 40
1
 10
157.853987
 20
228.627056
 30
0.0
 10
157.760218
 20
228.720824
 30
0.0
 10
157.707540
 20
228.848001
 30
0.0
 10
157.707540
 20
228.980609
 30
0.0
  0
LINE
  5
248
100
AcDbEntity
  8
Layer_1
 62
1
100
AcDbLine
 10
157.707540
 20
228.980609
 30
0.0
 11
157.707540
 21
241.980609
 31
0.0
  0
SPLINE
  5
249
100
AcDbEntity
  8
Layer_1
 62
1
100
AcDbSpline
 70
8
 71
3
 72
8
 73
4
 74
0
 40
0
 40
0
 40
0
 40
0
 40
1
 40
1
 40
1
 40
1
 10
157.707540
 20
241.980609
 30
0.0
 10
157.707540
 20
242.113217
 30
0.0
 10
157.760218
 20
242.240394
 30
0.0
 10
157.853987
 20
242.334162
 30
0.0
  0
SPLINE
  5
24a
100
AcDbEntity
  8
Layer_1
 62
1
100
AcDbSpline
 70
8
 71
3
 72
8
 73
4
 74
0
 40
0
 40
0
 40
0
 40
0
 40
1
 40
1
 40
1
 40
1
 10
157.853987
 20
242.334162
 30
0.0
 10
157.947755
 20
242.427931
 30
0.0
 10
158.074932
 20
242.480609
 30
0.0
 10
158.207540
 20
242.480609
 30
0.0
  0
LINE
  5
24b
100
AcDbEntity
  8
Layer_1
 62
1
100
AcDbLine
 10
158.207540
 20
242.480609
 30
0.0
 11
158.207540
 21
242.480609
 31
0.0
  0
LINE
  5
24c
100
AcDbEntity
  8
Layer_1
 62
1
100
AcDbLine
 10
139.157540
 20
242.480609
 30
0.0
 11
152.157540
 21
242.480609
 31
0.0
  0
SPLINE
  5
24d
100
AcDbEntity
  8
Layer_1
 62
1
100
AcDbSpline
 70
8
 71
3
 72
8
 73
4
 74
0
 40
0
 40
0
 40
0
 40
0
 40
1
 40
1
 40
1
 40
1
 10
152.157540
 20
242.480609
 30
0.0
 10
152.290148
 20
242.480609
 30
0.0
 10
152.417325
 20
242.427931
 30
0.0
 10
152.511093
 20
242.334162
 30
0.0
  0
SPLINE
  5
24e
100
AcDbEntity
  8
Layer_1
 62
1
100
AcDbSpline
 70
8
 71
3
 72
8
 73
4
 74
0
 40
0
 40
0
 40
0
 40
0
 40
1
 40
1
 40
1
 40
1
 10
152.511093
 20
242.334162
 30
0.0
 10
152.604862
 20
242.240394
 30
0.0
 10
152.657540
 20
242.113217
 30
0.0
 10
152.657540
 20
241.980609
 30
0.0
  0
LINE
  5
24f
100
AcDbEntity
  8
Layer_1
 62
1
100
AcDbLine
 10
152.657540
 20
241.980609
 30
0.0
 11
152.657540
 21
228.980609
 31
0.0
  0
SPLINE
  5
250
100
AcDbEntity
  8
Layer_1
 62
1
100
AcDbSpline
 70
8
 71
3
 72
8
 73
4
 74
0
 40
0
 40
0
 40
0
 40
0
 40
1
 40
1
 40
1
 40
1
 10
152.657540
 20
228.980609
 30
0.0
 10
152.657540
 20
228.848001
 30
0.0
 10
152.604862
 20
228.720824
 30
0.0
 10
152.511093
 20
228.627056
 30
0.0
  0
SPLINE
  5
251
100
AcDbEntity
  8
Layer_1
 62
1
100
AcDbSpline
 70
8
 71
3
 72
8
 73
4
 74
0
 40
0
 40
0
 40
0
 40
0
 40
1
 40
1
 40
1
 40
1
 10
152.511093
 20
228.627056
 30
0.0
 10
152.417325
 20
228.533287
 30
0.0
 10
152.290148
 20
228.480609
 30
0.0
 10
152.157540
 20
228.480609
 30
0.0
  0
LINE
  5
252
100
AcDbEntity
  8
Layer_1
 62
1
100
AcDbLine
 10
152.157540
 20
228.480609
 30
0.0
 11
139.157540
 21
228.480609
 31
0.0
  0
SPLINE
  5
253
100
AcDbEntity
  8
Layer_1
 62
1
100
AcDbSpline
 70
8
 71
3
 72
8
 73
4
 74
0
 40
0
 40
0
 40
0
 40
0
 40
1
 40
1
 40
1
 40
1
 10
139.157540
 20
228.480609
 30
0.0
 10
139.024932
 20
228.480609
 30
0.0
 10
138.897755
 20
228.533287
 30
0.0
 10
138.803987
 20
228.627056
 30
0.0
  0
SPLINE
  5
254
100
AcDbEntity
  8
Layer_1
 62
1
100
AcDbSpline
 70
8
 71
3
 72
8
 73
4
 74
0
 40
0
 40
0
 40
0
 40
0
 40
1
 40
1
 40
1
 40
1
 10
138.803987
 20
228.627056
 30
0.0
 10
138.710218
 20
228.720824
 30
0.0
 10
138.657540
 20
228.848001
 30
0.0
 10
138.657540
 20
228.980609
 30
0.0
  0
LINE
  5
255
100
AcDbEntity
  8
Layer_1
 62
1
100
AcDbLine
 10
138.657540
 20
228.980609
 30
0.0
 11
138.657540
 21
241.980609
 31
0.0
  0
SPLINE
  5
256
100
AcDbEntity
  8
Layer_1
 62
1
100
AcDbSpline
 70
8
 71
3
 72
8
 73
4
 74
0
 40
0
 40
0
 40
0
 40
0
 40
1
 40
1
 40
1
 40
1
 10
138.657540
 20
241.980609
 30
0.0
 10
138.657540
 20
242.113217
 30
0.0
 10
138.710218
 20
242.240394
 30
0.0
 10
138.803987
 20
242.334162
 30
0.0
  0
SPLINE
  5
257
100
AcDbEntity
  8
Layer_1
 62
1
100
AcDbSpline
 70
8
 71
3
 72
8
 73
4
 74
0
 40
0
 40
0
 40
0
 40
0
 40
1
 40
1
 40
1
 40
1
 10
138.803987
 20
242.334162
 30
0.0
 10
138.897755
 20
242.427931
 30
0.0
 10
139.024932
 20
242.480609
 30
0.0
 10
139.157540
 20
242.480609
 30
0.0
  0
LINE
  5
258
100
AcDbEntity
  8
Layer_1
 62
1
100
AcDbLine
 10
139.157540
 20
242.480609
 30
0.0
 11
139.157540
 21
242.480609
 31
0.0
  0
LINE
  5
259
100
AcDbEntity
  8
Layer_1
 62
1
100
AcDbLine
 10
120.107540
 20
242.480609
 30
0.0
 11
133.107540
 21
242.480609
 31
0.0
  0
SPLINE
  5
25a
100
AcDbEntity
  8
Layer_1
 62
1
100
AcDbSpline
 70
8
 71
3
 72
8
 73
4
 74
0
 40
0
 40
0
 40
0
 40
0
 40
1
 40
1
 40
1
 40
1
 10
133.107540
 20
242.480609
 30
0.0
 10
133.240148
 20
242.480609
 30
0.0
 10
133.367325
 20
242.427931
 30
0.0
 10
133.461093
 20
242.334162
 30
0.0
  0
SPLINE
  5
25b
100
AcDbEntity
  8
Layer_1
 62
1
100
AcDbSpline
 70
8
 71
3
 72
8
 73
4
 74
0
 40
0
 40
0
 40
0
 40
0
 40
1
 40
1
 40
1
 40
1
 10
133.461093
 20
242.334162
 30
0.0
 10
133.554862
 20
242.240394
 30
0.0
 10
133.607540
 20
242.113217
 30
0.0
 10
133.607540
 20
241.980609
 30
0.0
  0
LINE
  5
25c
100
AcDbEntity
  8
Layer_1
 62
1
100
AcDbLine
 10
133.607540
 20
241.980609
 30
0.0
 11
133.607540
 21
228.980609
 31
0.0
  0
SPLINE
  5
25d
100
AcDbEntity
  8
Layer_1
 62
1
100
AcDbSpline
 70
8
 71
3
 72
8
 73
4
 74
0
 40
0
 40
0
 40
0
 40
0
 40
1
 40
1
 40
1
 40
1
 10
133.607540
 20
228.980609
 30
0.0
 10
133.607540
 20
228.848001
 30
0.0
 10
133.554862
 20
228.720824
 30
0.0
 10
133.461093
 20
228.627056
 30
0.0
  0
SPLINE
  5
25e
100
AcDbEntity
  8
Layer_1
 62
1
100
AcDbSpline
 70
8
 71
3
 72
8
 73
4
 74
0
 40
0
 40
0
 40
0
 40
0
 40
1
 40
1
 40
1
 40
1
 10
133.461093
 20
228.627056
 30
0.0
 10
133.367325
 20
228.533287
 30
0.0
 10
133.240148
 20
228.480609
 30
0.0
 10
133.107540
 20
228.480609
 30
0.0
  0
LINE
  5
25f
100
AcDbEntity
  8
Layer_1
 62
1
100
AcDbLine
 10
133.107540
 20
228.480609
 30
0.0
 11
120.107540
 21
228.480609
 31
0.0
  0
SPLINE
  5
260
100
AcDbEntity
  8
Layer_1
 62
1
100
AcDbSpline
 70
8
 71
3
 72
8
 73
4
 74
0
 40
0
 40
0
 40
0
 40
0
 40
1
 40
1
 40
1
 40
1
 10
120.107540
 20
228.480609
 30
0.0
 10
119.974932
 20
228.480609
 30
0.0
 10
119.847755
 20
228.533287
 30
0.0
 10
119.753987
 20
228.627056
 30
0.0
  0
SPLINE
  5
261
100
AcDbEntity
  8
Layer_1
 62
1
100
AcDbSpline
 70
8
 71
3
 72
8
 73
4
 74
0
 40
0
 40
0
 40
0
 40
0
 40
1
 40
1
 40
1
 40
1
 10
119.753987
 20
228.627056
 30
0.0
 10
119.660218
 20
228.720824
 30
0.0
 10
119.607540
 20
228.848001
 30
0.0
 10
119.607540
 20
228.980609
 30
0.0
  0
LINE
  5
262
100
AcDbEntity
  8
Layer_1
 62
1
100
AcDbLine
 10
119.607540
 20
228.980609
 30
0.0
 11
119.607540
 21
241.980609
 31
0.0
  0
SPLINE
  5
263
100
AcDbEntity
  8
Layer_1
 62
1
100
AcDbSpline
 70
8
 71
3
 72
8
 73
4
 74
0
 40
0
 40
0
 40
0
 40
0
 40
1
 40
1
 40
1
 40
1
 10
119.607540
 20
241.980609
 30
0.0
 10
119.607540
 20
242.113217
 30
0.0
 10
119.660218
 20
242.240394
 30
0.0
 10
119.753987
 20
242.334162
 30
0.0
  0
SPLINE
  5
264
100
AcDbEntity
  8
Layer_1
 62
1
100
AcDbSpline
 70
8
 71
3
 72
8
 73
4
 74
0
 40
0
 40
0
 40
0
 40
0
 40
1
 40
1
 40
1
 40
1
 10
119.753987
 20
242.334162
 30
0.0
 10
119.847755
 20
242.427931
 30
0.0
 10
119.974932
 20
242.480609
 30
0.0
 10
120.107540
 20
242.480609
 30
0.0
  0
LINE
  5
265
100
AcDbEntity
  8
Layer_1
 62
1
100
AcDbLine
 10
120.107540
 20
242.480609
 30
0.0
 11
120.107540
 21
242.480609
 31
0.0
  0
LINE
  5
266
100
AcDbEntity
  8
Layer_1
 62
1
100
AcDbLine
 10
82.007524
 20
242.480609
 30
0.0
 11
95.007524
 21
242.480609
 31
0.0
  0
SPLINE
  5
267
100
AcDbEntity
  8
Layer_1
 62
1
100
AcDbSpline
 70
8
 71
3
 72
8
 73
4
 74
0
 40
0
 40
0
 40
0
 40
0
 40
1
 40
1
 40
1
 40
1
 10
95.007524
 20
242.480609
 30
0.0
 10
95.140132
 20
242.480609
 30
0.0
 10
95.267309
 20
242.427931
 30
0.0
 10
95.361077
 20
242.334162
 30
0.0
  0
SPLINE
  5
268
100
AcDbEntity
  8
Layer_1
 62
1
100
AcDbSpline
 70
8
 71
3
 72
8
 73
4
 74
0
 40
0
 40
0
 40
0
 40
0
 40
1
 40
1
 40
1
 40
1
 10
95.361077
 20
242.334162
 30
0.0
 10
95.454846
 20
242.240394
 30
0.0
 10
95.507524
 20
242.113217
 30
0.0
 10
95.507524
 20
241.980609
 30
0.0
  0
LINE
  5
269
100
AcDbEntity
  8
Layer_1
 62
1
100
AcDbLine
 10
95.507524
 20
241.980609
 30
0.0
 11
95.507524
 21
228.980609
 31
0.0
  0
SPLINE
  5
26a
100
AcDbEntity
  8
Layer_1
 62
1
100
AcDbSpline
 70
8
 71
3
 72
8
 73
4
 74
0
 40
0
 40
0
 40
0
 40
0
 40
1
 40
1
 40
1
 40
1
 10
95.507524
 20
228.980609
 30
0.0
 10
95.507524
 20
228.848001
 30
0.0
 10
95.454846
 20
228.720824
 30
0.0
 10
95.361077
 20
228.627056
 30
0.0
  0
SPLINE
  5
26b
100
AcDbEntity
  8
Layer_1
 62
1
100
AcDbSpline
 70
8
 71
3
 72
8
 73
4
 74
0
 40
0
 40
0
 40
0
 40
0
 40
1
 40
1
 40
1
 40
1
 10
95.361077
 20
228.627056
 30
0.0
 10
95.267309
 20
228.533287
 30
0.0
 10
95.140132
 20
228.480609
 30
0.0
 10
95.007524
 20
228.480609
 30
0.0
  0
LINE
  5
26c
100
AcDbEntity
  8
Layer_1
 62
1
100
AcDbLine
 10
95.007524
 20
228.480609
 30
0.0
 11
82.007524
 21
228.480609
 31
0.0
  0
SPLINE
  5
26d
100
AcDbEntity
  8
Layer_1
 62
1
100
AcDbSpline
 70
8
 71
3
 72
8
 73
4
 74
0
 40
0
 40
0
 40
0
 40
0
 40
1
 40
1
 40
1
 40
1
 10
82.007524
 20
228.480609
 30
0.0
 10
81.874916
 20
228.480609
 30
0.0
 10
81.747739
 20
228.533287
 30
0.0
 10
81.653971
 20
228.627056
 30
0.0
  0
SPLINE
  5
26e
100
AcDbEntity
  8
Layer_1
 62
1
100
AcDbSpline
 70
8
 71
3
 72
8
 73
4
 74
0
 40
0
 40
0
 40
0
 40
0
 40
1
 40
1
 40
1
 40
1
 10
81.653971
 20
228.627056
 30
0.0
 10
81.560202
 20
228.720824
 30
0.0
 10
81.507524
 20
228.848001
 30
0.0
 10
81.507524
 20
228.980609
 30
0.0
  0
LINE
  5
26f
100
AcDbEntity
  8
Layer_1
 62
1
100
AcDbLine
 10
81.507524
 20
228.980609
 30
0.0
 11
81.507524
 21
241.980609
 31
0.0
  0
SPLINE
  5
270
100
AcDbEntity
  8
Layer_1
 62
1
100
AcDbSpline
 70
8
 71
3
 72
8
 73
4
 74
0
 40
0
 40
0
 40
0
 40
0
 40
1
 40
1
 40
1
 40
1
 10
81.507524
 20
241.980609
 30
0.0
 10
81.507524
 20
242.113217
 30
0.0
 10
81.560202
 20
242.240394
 30
0.0
 10
81.653971
 20
242.334162
 30
0.0
  0
SPLINE
  5
271
100
AcDbEntity
  8
Layer_1
 62
1
100
AcDbSpline
 70
8
 71
3
 72
8
 73
4
 74
0
 40
0
 40
0
 40
0
 40
0
 40
1
 40
1
 40
1
 40
1
 10
81.653971
 20
242.334162
 30
0.0
 10
81.747739
 20
242.427931
 30
0.0
 10
81.874916
 20
242.480609
 30
0.0
 10
82.007524
 20
242.480609
 30
0.0
  0
LINE
  5
272
100
AcDbEntity
  8
Layer_1
 62
1
100
AcDbLine
 10
82.007524
 20
242.480609
 30
0.0
 11
82.007524
 21
242.480609
 31
0.0
  0
LINE
  5
273
100
AcDbEntity
  8
Layer_1
 62
1
100
AcDbLine
 10
55.813524
 20
242.480609
 30
0.0
 11
68.813524
 21
242.480609
 31
0.0
  0
SPLINE
  5
274
100
AcDbEntity
  8
Layer_1
 62
1
100
AcDbSpline
 70
8
 71
3
 72
8
 73
4
 74
0
 40
0
 40
0
 40
0
 40
0
 40
1
 40
1
 40
1
 40
1
 10
68.813524
 20
242.480609
 30
0.0
 10
68.946132
 20
242.480609
 30
0.0
 10
69.073309
 20
242.427931
 30
0.0
 10
69.167077
 20
242.334162
 30
0.0
  0
SPLINE
  5
275
100
AcDbEntity
  8
Layer_1
 62
1
100
AcDbSpline
 70
8
 71
3
 72
8
 73
4
 74
0
 40
0
 40
0
 40
0
 40
0
 40
1
 40
1
 40
1
 40
1
 10
69.167077
 20
242.334162
 30
0.0
 10
69.260846
 20
242.240394
 30
0.0
 10
69.313524
 20
242.113217
 30
0.0
 10
69.313524
 20
241.980609
 30
0.0
  0
LINE
  5
276
100
AcDbEntity
  8
Layer_1
 62
1
100
AcDbLine
 10
69.313524
 20
241.980609
 30
0.0
 11
69.313524
 21
228.980609
 31
0.0
  0
SPLINE
  5
277
100
AcDbEntity
  8
Layer_1
 62
1
100
AcDbSpline
 70
8
 71
3
 72
8
 73
4
 74
0
 40
0
 40
0
 40
0
 40
0
 40
1
 40
1
 40
1
 40
1
 10
69.313524
 20
228.980609
 30
0.0
 10
69.313524
 20
228.848001
 30
0.0
 10
69.260846
 20
228.720824
 30
0.0
 10
69.167077
 20
228.627056
 30
0.0
  0
SPLINE
  5
278
100
AcDbEntity
  8
Layer_1
 62
1
100
AcDbSpline
 70
8
 71
3
 72
8
 73
4
 74
0
 40
0
 40
0
 40
0
 40
0
 40
1
 40
1
 40
1
 40
1
 10
69.167077
 20
228.627056
 30
0.0
 10
69.073309
 20
228.533287
 30
0.0
 10
68.946132
 20
228.480609
 30
0.0
 10
68.813524
 20
228.480609
 30
0.0
  0
LINE
  5
279
100
AcDbEntity
  8
Layer_1
 62
1
100
AcDbLine
 10
68.813524
 20
228.480609
 30
0.0
 11
55.813524
 21
228.480609
 31
0.0
  0
SPLINE
  5
27a
100
AcDbEntity
  8
Layer_1
 62
1
100
AcDbSpline
 70
8
 71
3
 72
8
 73
4
 74
0
 40
0
 40
0
 40
0
 40
0
 40
1
 40
1
 40
1
 40
1
 10
55.813524
 20
228.480609
 30
0.0
 10
55.680916
 20
228.480609
 30
0.0
 10
55.553739
 20
228.533287
 30
0.0
 10
55.459971
 20
228.627056
 30
0.0
  0
SPLINE
  5
27b
100
AcDbEntity
  8
Layer_1
 62
1
100
AcDbSpline
 70
8
 71
3
 72
8
 73
4
 74
0
 40
0
 40
0
 40
0
 40
0
 40
1
 40
1
 40
1
 40
1
 10
55.459971
 20
228.627056
 30
0.0
 10
55.366202
 20
228.720824
 30
0.0
 10
55.313524
 20
228.848001
 30
0.0
 10
55.313524
 20
228.980609
 30
0.0
  0
LINE
  5
27c
100
AcDbEntity
  8
Layer_1
 62
1
100
AcDbLine
 10
55.313524
 20
228.980609
 30
0.0
 11
55.313524
 21
241.980609
 31
0.0
  0
SPLINE
  5
27d
100
AcDbEntity
  8
Layer_1
 62
1
100
AcDbSpline
 70
8
 71
3
 72
8
 73
4
 74
0
 40
0
 40
0
 40
0
 40
0
 40
1
 40
1
 40
1
 40
1
 10
55.313524
 20
241.980609
 30
0.0
 10
55.313524
 20
242.113217
 30
0.0
 10
55.366202
 20
242.240394
 30
0.0
 10
55.459971
 20
242.334162
 30
0.0
  0
SPLINE
  5
27e
100
AcDbEntity
  8
Layer_1
 62
1
100
AcDbSpline
 70
8
 71
3
 72
8
 73
4
 74
0
 40
0
 40
0
 40
0
 40
0
 40
1
 40
1
 40
1
 40
1
 10
55.459971
 20
242.334162
 30
0.0
 10
55.553739
 20
242.427931
 30
0.0
 10
55.680916
 20
242.480609
 30
0.0
 10
55.813524
 20
242.480609
 30
0.0
  0
LINE
  5
27f
100
AcDbEntity
  8
Layer_1
 62
1
100
AcDbLine
 10
55.813524
 20
242.480609
 30
0.0
 11
55.813524
 21
242.480609
 31
0.0
  0
LINE
  5
280
100
AcDbEntity
  8
Layer_1
 62
1
100
AcDbLine
 10
267.744530
 20
261.530609
 30
0.0
 11
280.744530
 21
261.530609
 31
0.0
  0
SPLINE
  5
281
100
AcDbEntity
  8
Layer_1
 62
1
100
AcDbSpline
 70
8
 71
3
 72
8
 73
4
 74
0
 40
0
 40
0
 40
0
 40
0
 40
1
 40
1
 40
1
 40
1
 10
280.744530
 20
261.530609
 30
0.0
 10
280.877138
 20
261.530609
 30
0.0
 10
281.004315
 20
261.477931
 30
0.0
 10
281.098083
 20
261.384162
 30
0.0
  0
SPLINE
  5
282
100
AcDbEntity
  8
Layer_1
 62
1
100
AcDbSpline
 70
8
 71
3
 72
8
 73
4
 74
0
 40
0
 40
0
 40
0
 40
0
 40
1
 40
1
 40
1
 40
1
 10
281.098083
 20
261.384162
 30
0.0
 10
281.191852
 20
261.290394
 30
0.0
 10
281.244530
 20
261.163217
 30
0.0
 10
281.244530
 20
261.030609
 30
0.0
  0
LINE
  5
283
100
AcDbEntity
  8
Layer_1
 62
1
100
AcDbLine
 10
281.244530
 20
261.030609
 30
0.0
 11
281.244530
 21
248.030609
 31
0.0
  0
SPLINE
  5
284
100
AcDbEntity
  8
Layer_1
 62
1
100
AcDbSpline
 70
8
 71
3
 72
8
 73
4
 74
0
 40
0
 40
0
 40
0
 40
0
 40
1
 40
1
 40
1
 40
1
 10
281.244530
 20
248.030609
 30
0.0
 10
281.244530
 20
247.898001
 30
0.0
 10
281.191852
 20
247.770824
 30
0.0
 10
281.098083
 20
247.677056
 30
0.0
  0
SPLINE
  5
285
100
AcDbEntity
  8
Layer_1
 62
1
100
AcDbSpline
 70
8
 71
3
 72
8
 73
4
 74
0
 40
0
 40
0
 40
0
 40
0
 40
1
 40
1
 40
1
 40
1
 10
281.098083
 20
247.677056
 30
0.0
 10
281.004315
 20
247.583287
 30
0.0
 10
280.877138
 20
247.530609
 30
0.0
 10
280.744530
 20
247.530609
 30
0.0
  0
LINE
  5
286
100
AcDbEntity
  8
Layer_1
 62
1
100
AcDbLine
 10
280.744530
 20
247.530609
 30
0.0
 11
267.744530
 21
247.530609
 31
0.0
  0
SPLINE
  5
287
100
AcDbEntity
  8
Layer_1
 62
1
100
AcDbSpline
 70
8
 71
3
 72
8
 73
4
 74
0
 40
0
 40
0
 40
0
 40
0
 40
1
 40
1
 40
1
 40
1
 10
267.744530
 20
247.530609
 30
0.0
 10
267.611922
 20
247.530609
 30
0.0
 10
267.484745
 20
247.583287
 30
0.0
 10
267.390977
 20
247.677056
 30
0.0
  0
SPLINE
  5
288
100
AcDbEntity
  8
Layer_1
 62
1
100
AcDbSpline
 70
8
 71
3
 72
8
 73
4
 74
0
 40
0
 40
0
 40
0
 40
0
 40
1
 40
1
 40
1
 40
1
 10
267.390977
 20
247.677056
 30
0.0
 10
267.297208
 20
247.770824
 30
0.0
 10
267.244530
 20
247.898001
 30
0.0
 10
267.244530
 20
248.030609
 30
0.0
  0
LINE
  5
289
100
AcDbEntity
  8
Layer_1
 62
1
100
AcDbLine
 10
267.244530
 20
248.030609
 30
0.0
 11
267.244530
 21
261.030609
 31
0.0
  0
SPLINE
  5
28a
100
AcDbEntity
  8
Layer_1
 62
1
100
AcDbSpline
 70
8
 71
3
 72
8
 73
4
 74
0
 40
0
 40
0
 40
0
 40
0
 40
1
 40
1
 40
1
 40
1
 10
267.244530
 20
261.030609
 30
0.0
 10
267.244530
 20
261.163217
 30
0.0
 10
267.297208
 20
261.290394
 30
0.0
 10
267.390977
 20
261.384162
 30
0.0
  0
SPLINE
  5
28b
100
AcDbEntity
  8
Layer_1
 62
1
100
AcDbSpline
 70
8
 71
3
 72
8
 73
4
 74
0
 40
0
 40
0
 40
0
 40
0
 40
1
 40
1
 40
1
 40
1
 10
267.390977
 20
261.384162
 30
0.0
 10
267.484745
 20
261.477931
 30
0.0
 10
267.611922
 20
261.530609
 30
0.0
 10
267.744530
 20
261.530609
 30
0.0
  0
LINE
  5
28c
100
AcDbEntity
  8
Layer_1
 62
1
100
AcDbLine
 10
267.744530
 20
261.530609
 30
0.0
 11
267.744530
 21
261.530609
 31
0.0
  0
LINE
  5
28d
100
AcDbEntity
  8
Layer_1
 62
1
100
AcDbLine
 10
243.932540
 20
261.530609
 30
0.0
 11
256.932530
 21
261.530609
 31
0.0
  0
SPLINE
  5
28e
100
AcDbEntity
  8
Layer_1
 62
1
100
AcDbSpline
 70
8
 71
3
 72
8
 73
4
 74
0
 40
0
 40
0
 40
0
 40
0
 40
1
 40
1
 40
1
 40
1
 10
256.932530
 20
261.530609
 30
0.0
 10
257.065138
 20
261.530609
 30
0.0
 10
257.192315
 20
261.477931
 30
0.0
 10
257.286083
 20
261.384162
 30
0.0
  0
SPLINE
  5
28f
100
AcDbEntity
  8
Layer_1
 62
1
100
AcDbSpline
 70
8
 71
3
 72
8
 73
4
 74
0
 40
0
 40
0
 40
0
 40
0
 40
1
 40
1
 40
1
 40
1
 10
257.286083
 20
261.384162
 30
0.0
 10
257.379852
 20
261.290394
 30
0.0
 10
257.432530
 20
261.163217
 30
0.0
 10
257.432530
 20
261.030609
 30
0.0
  0
LINE
  5
290
100
AcDbEntity
  8
Layer_1
 62
1
100
AcDbLine
 10
257.432530
 20
261.030609
 30
0.0
 11
257.432530
 21
248.030609
 31
0.0
  0
SPLINE
  5
291
100
AcDbEntity
  8
Layer_1
 62
1
100
AcDbSpline
 70
8
 71
3
 72
8
 73
4
 74
0
 40
0
 40
0
 40
0
 40
0
 40
1
 40
1
 40
1
 40
1
 10
257.432530
 20
248.030609
 30
0.0
 10
257.432530
 20
247.898001
 30
0.0
 10
257.379852
 20
247.770824
 30
0.0
 10
257.286083
 20
247.677056
 30
0.0
  0
SPLINE
  5
292
100
AcDbEntity
  8
Layer_1
 62
1
100
AcDbSpline
 70
8
 71
3
 72
8
 73
4
 74
0
 40
0
 40
0
 40
0
 40
0
 40
1
 40
1
 40
1
 40
1
 10
257.286083
 20
247.677056
 30
0.0
 10
257.192315
 20
247.583287
 30
0.0
 10
257.065138
 20
247.530609
 30
0.0
 10
256.932530
 20
247.530609
 30
0.0
  0
LINE
  5
293
100
AcDbEntity
  8
Layer_1
 62
1
100
AcDbLine
 10
256.932530
 20
247.530609
 30
0.0
 11
243.932540
 21
247.530609
 31
0.0
  0
SPLINE
  5
294
100
AcDbEntity
  8
Layer_1
 62
1
100
AcDbSpline
 70
8
 71
3
 72
8
 73
4
 74
0
 40
0
 40
0
 40
0
 40
0
 40
1
 40
1
 40
1
 40
1
 10
243.932540
 20
247.530609
 30
0.0
 10
243.799932
 20
247.530609
 30
0.0
 10
243.672755
 20
247.583287
 30
0.0
 10
243.578987
 20
247.677056
 30
0.0
  0
SPLINE
  5
295
100
AcDbEntity
  8
Layer_1
 62
1
100
AcDbSpline
 70
8
 71
3
 72
8
 73
4
 74
0
 40
0
 40
0
 40
0
 40
0
 40
1
 40
1
 40
1
 40
1
 10
243.578987
 20
247.677056
 30
0.0
 10
243.485218
 20
247.770824
 30
0.0
 10
243.432540
 20
247.898001
 30
0.0
 10
243.432540
 20
248.030609
 30
0.0
  0
LINE
  5
296
100
AcDbEntity
  8
Layer_1
 62
1
100
AcDbLine
 10
243.432540
 20
248.030609
 30
0.0
 11
243.432540
 21
261.030609
 31
0.0
  0
SPLINE
  5
297
100
AcDbEntity
  8
Layer_1
 62
1
100
AcDbSpline
 70
8
 71
3
 72
8
 73
4
 74
0
 40
0
 40
0
 40
0
 40
0
 40
1
 40
1
 40
1
 40
1
 10
243.432540
 20
261.030609
 30
0.0
 10
243.432540
 20
261.163217
 30
0.0
 10
243.485218
 20
261.290394
 30
0.0
 10
243.578987
 20
261.384162
 30
0.0
  0
SPLINE
  5
298
100
AcDbEntity
  8
Layer_1
 62
1
100
AcDbSpline
 70
8
 71
3
 72
8
 73
4
 74
0
 40
0
 40
0
 40
0
 40
0
 40
1
 40
1
 40
1
 40
1
 10
243.578987
 20
261.384162
 30
0.0
 10
243.672755
 20
261.477931
 30
0.0
 10
243.799932
 20
261.530609
 30
0.0
 10
243.932540
 20
261.530609
 30
0.0
  0
LINE
  5
299
100
AcDbEntity
  8
Layer_1
 62
1
100
AcDbLine
 10
243.932540
 20
261.530609
 30
0.0
 11
243.932540
 21
261.530609
 31
0.0
  0
LINE
  5
29a
100
AcDbEntity
  8
Layer_1
 62
1
100
AcDbLine
 10
224.882540
 20
261.530609
 30
0.0
 11
237.882540
 21
261.530609
 31
0.0
  0
SPLINE
  5
29b
100
AcDbEntity
  8
Layer_1
 62
1
100
AcDbSpline
 70
8
 71
3
 72
8
 73
4
 74
0
 40
0
 40
0
 40
0
 40
0
 40
1
 40
1
 40
1
 40
1
 10
237.882540
 20
261.530609
 30
0.0
 10
238.015148
 20
261.530609
 30
0.0
 10
238.142325
 20
261.477931
 30
0.0
 10
238.236093
 20
261.384162
 30
0.0
  0
SPLINE
  5
29c
100
AcDbEntity
  8
Layer_1
 62
1
100
AcDbSpline
 70
8
 71
3
 72
8
 73
4
 74
0
 40
0
 40
0
 40
0
 40
0
 40
1
 40
1
 40
1
 40
1
 10
238.236093
 20
261.384162
 30
0.0
 10
238.329862
 20
261.290394
 30
0.0
 10
238.382540
 20
261.163217
 30
0.0
 10
238.382540
 20
261.030609
 30
0.0
  0
LINE
  5
29d
100
AcDbEntity
  8
Layer_1
 62
1
100
AcDbLine
 10
238.382540
 20
261.030609
 30
0.0
 11
238.382540
 21
248.030609
 31
0.0
  0
SPLINE
  5
29e
100
AcDbEntity
  8
Layer_1
 62
1
100
AcDbSpline
 70
8
 71
3
 72
8
 73
4
 74
0
 40
0
 40
0
 40
0
 40
0
 40
1
 40
1
 40
1
 40
1
 10
238.382540
 20
248.030609
 30
0.0
 10
238.382540
 20
247.898001
 30
0.0
 10
238.329862
 20
247.770824
 30
0.0
 10
238.236093
 20
247.677056
 30
0.0
  0
SPLINE
  5
29f
100
AcDbEntity
  8
Layer_1
 62
1
100
AcDbSpline
 70
8
 71
3
 72
8
 73
4
 74
0
 40
0
 40
0
 40
0
 40
0
 40
1
 40
1
 40
1
 40
1
 10
238.236093
 20
247.677056
 30
0.0
 10
238.142325
 20
247.583287
 30
0.0
 10
238.015148
 20
247.530609
 30
0.0
 10
237.882540
 20
247.530609
 30
0.0
  0
LINE
  5
2a0
100
AcDbEntity
  8
Layer_1
 62
1
100
AcDbLine
 10
237.882540
 20
247.530609
 30
0.0
 11
224.882540
 21
247.530609
 31
0.0
  0
SPLINE
  5
2a1
100
AcDbEntity
  8
Layer_1
 62
1
100
AcDbSpline
 70
8
 71
3
 72
8
 73
4
 74
0
 40
0
 40
0
 40
0
 40
0
 40
1
 40
1
 40
1
 40
1
 10
224.882540
 20
247.530609
 30
0.0
 10
224.749932
 20
247.530609
 30
0.0
 10
224.622755
 20
247.583287
 30
0.0
 10
224.528987
 20
247.677056
 30
0.0
  0
SPLINE
  5
2a2
100
AcDbEntity
  8
Layer_1
 62
1
100
AcDbSpline
 70
8
 71
3
 72
8
 73
4
 74
0
 40
0
 40
0
 40
0
 40
0
 40
1
 40
1
 40
1
 40
1
 10
224.528987
 20
247.677056
 30
0.0
 10
224.435218
 20
247.770824
 30
0.0
 10
224.382540
 20
247.898001
 30
0.0
 10
224.382540
 20
248.030609
 30
0.0
  0
LINE
  5
2a3
100
AcDbEntity
  8
Layer_1
 62
1
100
AcDbLine
 10
224.382540
 20
248.030609
 30
0.0
 11
224.382540
 21
261.030609
 31
0.0
  0
SPLINE
  5
2a4
100
AcDbEntity
  8
Layer_1
 62
1
100
AcDbSpline
 70
8
 71
3
 72
8
 73
4
 74
0
 40
0
 40
0
 40
0
 40
0
 40
1
 40
1
 40
1
 40
1
 10
224.382540
 20
261.030609
 30
0.0
 10
224.382540
 20
261.163217
 30
0.0
 10
224.435218
 20
261.290394
 30
0.0
 10
224.528987
 20
261.384162
 30
0.0
  0
SPLINE
  5
2a5
100
AcDbEntity
  8
Layer_1
 62
1
100
AcDbSpline
 70
8
 71
3
 72
8
 73
4
 74
0
 40
0
 40
0
 40
0
 40
0
 40
1
 40
1
 40
1
 40
1
 10
224.528987
 20
261.384162
 30
0.0
 10
224.622755
 20
261.477931
 30
0.0
 10
224.749932
 20
261.530609
 30
0.0
 10
224.882540
 20
261.530609
 30
0.0
  0
LINE
  5
2a6
100
AcDbEntity
  8
Layer_1
 62
1
100
AcDbLine
 10
224.882540
 20
261.530609
 30
0.0
 11
224.882540
 21
261.530609
 31
0.0
  0
LINE
  5
2a7
100
AcDbEntity
  8
Layer_1
 62
1
100
AcDbLine
 10
205.832540
 20
261.530609
 30
0.0
 11
218.832540
 21
261.530609
 31
0.0
  0
SPLINE
  5
2a8
100
AcDbEntity
  8
Layer_1
 62
1
100
AcDbSpline
 70
8
 71
3
 72
8
 73
4
 74
0
 40
0
 40
0
 40
0
 40
0
 40
1
 40
1
 40
1
 40
1
 10
218.832540
 20
261.530609
 30
0.0
 10
218.965148
 20
261.530609
 30
0.0
 10
219.092325
 20
261.477931
 30
0.0
 10
219.186093
 20
261.384162
 30
0.0
  0
SPLINE
  5
2a9
100
AcDbEntity
  8
Layer_1
 62
1
100
AcDbSpline
 70
8
 71
3
 72
8
 73
4
 74
0
 40
0
 40
0
 40
0
 40
0
 40
1
 40
1
 40
1
 40
1
 10
219.186093
 20
261.384162
 30
0.0
 10
219.279862
 20
261.290394
 30
0.0
 10
219.332540
 20
261.163217
 30
0.0
 10
219.332540
 20
261.030609
 30
0.0
  0
LINE
  5
2aa
100
AcDbEntity
  8
Layer_1
 62
1
100
AcDbLine
 10
219.332540
 20
261.030609
 30
0.0
 11
219.332540
 21
248.030609
 31
0.0
  0
SPLINE
  5
2ab
100
AcDbEntity
  8
Layer_1
 62
1
100
AcDbSpline
 70
8
 71
3
 72
8
 73
4
 74
0
 40
0
 40
0
 40
0
 40
0
 40
1
 40
1
 40
1
 40
1
 10
219.332540
 20
248.030609
 30
0.0
 10
219.332540
 20
247.898001
 30
0.0
 10
219.279862
 20
247.770824
 30
0.0
 10
219.186093
 20
247.677056
 30
0.0
  0
SPLINE
  5
2ac
100
AcDbEntity
  8
Layer_1
 62
1
100
AcDbSpline
 70
8
 71
3
 72
8
 73
4
 74
0
 40
0
 40
0
 40
0
 40
0
 40
1
 40
1
 40
1
 40
1
 10
219.186093
 20
247.677056
 30
0.0
 10
219.092325
 20
247.583287
 30
0.0
 10
218.965148
 20
247.530609
 30
0.0
 10
218.832540
 20
247.530609
 30
0.0
  0
LINE
  5
2ad
100
AcDbEntity
  8
Layer_1
 62
1
100
AcDbLine
 10
218.832540
 20
247.530609
 30
0.0
 11
205.832540
 21
247.530609
 31
0.0
  0
SPLINE
  5
2ae
100
AcDbEntity
  8
Layer_1
 62
1
100
AcDbSpline
 70
8
 71
3
 72
8
 73
4
 74
0
 40
0
 40
0
 40
0
 40
0
 40
1
 40
1
 40
1
 40
1
 10
205.832540
 20
247.530609
 30
0.0
 10
205.699932
 20
247.530609
 30
0.0
 10
205.572755
 20
247.583287
 30
0.0
 10
205.478987
 20
247.677056
 30
0.0
  0
SPLINE
  5
2af
100
AcDbEntity
  8
Layer_1
 62
1
100
AcDbSpline
 70
8
 71
3
 72
8
 73
4
 74
0
 40
0
 40
0
 40
0
 40
0
 40
1
 40
1
 40
1
 40
1
 10
205.478987
 20
247.677056
 30
0.0
 10
205.385218
 20
247.770824
 30
0.0
 10
205.332540
 20
247.898001
 30
0.0
 10
205.332540
 20
248.030609
 30
0.0
  0
LINE
  5
2b0
100
AcDbEntity
  8
Layer_1
 62
1
100
AcDbLine
 10
205.332540
 20
248.030609
 30
0.0
 11
205.332540
 21
261.030609
 31
0.0
  0
SPLINE
  5
2b1
100
AcDbEntity
  8
Layer_1
 62
1
100
AcDbSpline
 70
8
 71
3
 72
8
 73
4
 74
0
 40
0
 40
0
 40
0
 40
0
 40
1
 40
1
 40
1
 40
1
 10
205.332540
 20
261.030609
 30
0.0
 10
205.332540
 20
261.163217
 30
0.0
 10
205.385218
 20
261.290394
 30
0.0
 10
205.478987
 20
261.384162
 30
0.0
  0
SPLINE
  5
2b2
100
AcDbEntity
  8
Layer_1
 62
1
100
AcDbSpline
 70
8
 71
3
 72
8
 73
4
 74
0
 40
0
 40
0
 40
0
 40
0
 40
1
 40
1
 40
1
 40
1
 10
205.478987
 20
261.384162
 30
0.0
 10
205.572755
 20
261.477931
 30
0.0
 10
205.699932
 20
261.530609
 30
0.0
 10
205.832540
 20
261.530609
 30
0.0
  0
LINE
  5
2b3
100
AcDbEntity
  8
Layer_1
 62
1
100
AcDbLine
 10
205.832540
 20
261.530609
 30
0.0
 11
205.832540
 21
261.530609
 31
0.0
  0
LINE
  5
2b4
100
AcDbEntity
  8
Layer_1
 62
1
100
AcDbLine
 10
186.782540
 20
261.530609
 30
0.0
 11
199.782540
 21
261.530609
 31
0.0
  0
SPLINE
  5
2b5
100
AcDbEntity
  8
Layer_1
 62
1
100
AcDbSpline
 70
8
 71
3
 72
8
 73
4
 74
0
 40
0
 40
0
 40
0
 40
0
 40
1
 40
1
 40
1
 40
1
 10
199.782540
 20
261.530609
 30
0.0
 10
199.915148
 20
261.530609
 30
0.0
 10
200.042325
 20
261.477931
 30
0.0
 10
200.136093
 20
261.384162
 30
0.0
  0
SPLINE
  5
2b6
100
AcDbEntity
  8
Layer_1
 62
1
100
AcDbSpline
 70
8
 71
3
 72
8
 73
4
 74
0
 40
0
 40
0
 40
0
 40
0
 40
1
 40
1
 40
1
 40
1
 10
200.136093
 20
261.384162
 30
0.0
 10
200.229862
 20
261.290394
 30
0.0
 10
200.282540
 20
261.163217
 30
0.0
 10
200.282540
 20
261.030609
 30
0.0
  0
LINE
  5
2b7
100
AcDbEntity
  8
Layer_1
 62
1
100
AcDbLine
 10
200.282540
 20
261.030609
 30
0.0
 11
200.282540
 21
248.030609
 31
0.0
  0
SPLINE
  5
2b8
100
AcDbEntity
  8
Layer_1
 62
1
100
AcDbSpline
 70
8
 71
3
 72
8
 73
4
 74
0
 40
0
 40
0
 40
0
 40
0
 40
1
 40
1
 40
1
 40
1
 10
200.282540
 20
248.030609
 30
0.0
 10
200.282540
 20
247.898001
 30
0.0
 10
200.229862
 20
247.770824
 30
0.0
 10
200.136093
 20
247.677056
 30
0.0
  0
SPLINE
  5
2b9
100
AcDbEntity
  8
Layer_1
 62
1
100
AcDbSpline
 70
8
 71
3
 72
8
 73
4
 74
0
 40
0
 40
0
 40
0
 40
0
 40
1
 40
1
 40
1
 40
1
 10
200.136093
 20
247.677056
 30
0.0
 10
200.042325
 20
247.583287
 30
0.0
 10
199.915148
 20
247.530609
 30
0.0
 10
199.782540
 20
247.530609
 30
0.0
  0
LINE
  5
2ba
100
AcDbEntity
  8
Layer_1
 62
1
100
AcDbLine
 10
199.782540
 20
247.530609
 30
0.0
 11
186.782540
 21
247.530609
 31
0.0
  0
SPLINE
  5
2bb
100
AcDbEntity
  8
Layer_1
 62
1
100
AcDbSpline
 70
8
 71
3
 72
8
 73
4
 74
0
 40
0
 40
0
 40
0
 40
0
 40
1
 40
1
 40
1
 40
1
 10
186.782540
 20
247.530609
 30
0.0
 10
186.649932
 20
247.530609
 30
0.0
 10
186.522755
 20
247.583287
 30
0.0
 10
186.428987
 20
247.677056
 30
0.0
  0
SPLINE
  5
2bc
100
AcDbEntity
  8
Layer_1
 62
1
100
AcDbSpline
 70
8
 71
3
 72
8
 73
4
 74
0
 40
0
 40
0
 40
0
 40
0
 40
1
 40
1
 40
1
 40
1
 10
186.428987
 20
247.677056
 30
0.0
 10
186.335218
 20
247.770824
 30
0.0
 10
186.282540
 20
247.898001
 30
0.0
 10
186.282540
 20
248.030609
 30
0.0
  0
LINE
  5
2bd
100
AcDbEntity
  8
Layer_1
 62
1
100
AcDbLine
 10
186.282540
 20
248.030609
 30
0.0
 11
186.282540
 21
261.030609
 31
0.0
  0
SPLINE
  5
2be
100
AcDbEntity
  8
Layer_1
 62
1
100
AcDbSpline
 70
8
 71
3
 72
8
 73
4
 74
0
 40
0
 40
0
 40
0
 40
0
 40
1
 40
1
 40
1
 40
1
 10
186.282540
 20
261.030609
 30
0.0
 10
186.282540
 20
261.163217
 30
0.0
 10
186.335218
 20
261.290394
 30
0.0
 10
186.428987
 20
261.384162
 30
0.0
  0
SPLINE
  5
2bf
100
AcDbEntity
  8
Layer_1
 62
1
100
AcDbSpline
 70
8
 71
3
 72
8
 73
4
 74
0
 40
0
 40
0
 40
0
 40
0
 40
1
 40
1
 40
1
 40
1
 10
186.428987
 20
261.384162
 30
0.0
 10
186.522755
 20
261.477931
 30
0.0
 10
186.649932
 20
261.530609
 30
0.0
 10
186.782540
 20
261.530609
 30
0.0
  0
LINE
  5
2c0
100
AcDbEntity
  8
Layer_1
 62
1
100
AcDbLine
 10
186.782540
 20
261.530609
 30
0.0
 11
186.782540
 21
261.530609
 31
0.0
  0
LINE
  5
2c1
100
AcDbEntity
  8
Layer_1
 62
1
100
AcDbLine
 10
167.732540
 20
261.530609
 30
0.0
 11
180.732540
 21
261.530609
 31
0.0
  0
SPLINE
  5
2c2
100
AcDbEntity
  8
Layer_1
 62
1
100
AcDbSpline
 70
8
 71
3
 72
8
 73
4
 74
0
 40
0
 40
0
 40
0
 40
0
 40
1
 40
1
 40
1
 40
1
 10
180.732540
 20
261.530609
 30
0.0
 10
180.865148
 20
261.530609
 30
0.0
 10
180.992325
 20
261.477931
 30
0.0
 10
181.086093
 20
261.384162
 30
0.0
  0
SPLINE
  5
2c3
100
AcDbEntity
  8
Layer_1
 62
1
100
AcDbSpline
 70
8
 71
3
 72
8
 73
4
 74
0
 40
0
 40
0
 40
0
 40
0
 40
1
 40
1
 40
1
 40
1
 10
181.086093
 20
261.384162
 30
0.0
 10
181.179862
 20
261.290394
 30
0.0
 10
181.232540
 20
261.163217
 30
0.0
 10
181.232540
 20
261.030609
 30
0.0
  0
LINE
  5
2c4
100
AcDbEntity
  8
Layer_1
 62
1
100
AcDbLine
 10
181.232540
 20
261.030609
 30
0.0
 11
181.232540
 21
248.030609
 31
0.0
  0
SPLINE
  5
2c5
100
AcDbEntity
  8
Layer_1
 62
1
100
AcDbSpline
 70
8
 71
3
 72
8
 73
4
 74
0
 40
0
 40
0
 40
0
 40
0
 40
1
 40
1
 40
1
 40
1
 10
181.232540
 20
248.030609
 30
0.0
 10
181.232540
 20
247.898001
 30
0.0
 10
181.179862
 20
247.770824
 30
0.0
 10
181.086093
 20
247.677056
 30
0.0
  0
SPLINE
  5
2c6
100
AcDbEntity
  8
Layer_1
 62
1
100
AcDbSpline
 70
8
 71
3
 72
8
 73
4
 74
0
 40
0
 40
0
 40
0
 40
0
 40
1
 40
1
 40
1
 40
1
 10
181.086093
 20
247.677056
 30
0.0
 10
180.992325
 20
247.583287
 30
0.0
 10
180.865148
 20
247.530609
 30
0.0
 10
180.732540
 20
247.530609
 30
0.0
  0
LINE
  5
2c7
100
AcDbEntity
  8
Layer_1
 62
1
100
AcDbLine
 10
180.732540
 20
247.530609
 30
0.0
 11
167.732540
 21
247.530609
 31
0.0
  0
SPLINE
  5
2c8
100
AcDbEntity
  8
Layer_1
 62
1
100
AcDbSpline
 70
8
 71
3
 72
8
 73
4
 74
0
 40
0
 40
0
 40
0
 40
0
 40
1
 40
1
 40
1
 40
1
 10
167.732540
 20
247.530609
 30
0.0
 10
167.599932
 20
247.530609
 30
0.0
 10
167.472755
 20
247.583287
 30
0.0
 10
167.378987
 20
247.677056
 30
0.0
  0
SPLINE
  5
2c9
100
AcDbEntity
  8
Layer_1
 62
1
100
AcDbSpline
 70
8
 71
3
 72
8
 73
4
 74
0
 40
0
 40
0
 40
0
 40
0
 40
1
 40
1
 40
1
 40
1
 10
167.378987
 20
247.677056
 30
0.0
 10
167.285218
 20
247.770824
 30
0.0
 10
167.232540
 20
247.898001
 30
0.0
 10
167.232540
 20
248.030609
 30
0.0
  0
LINE
  5
2ca
100
AcDbEntity
  8
Layer_1
 62
1
100
AcDbLine
 10
167.232540
 20
248.030609
 30
0.0
 11
167.232540
 21
261.030609
 31
0.0
  0
SPLINE
  5
2cb
100
AcDbEntity
  8
Layer_1
 62
1
100
AcDbSpline
 70
8
 71
3
 72
8
 73
4
 74
0
 40
0
 40
0
 40
0
 40
0
 40
1
 40
1
 40
1
 40
1
 10
167.232540
 20
261.030609
 30
0.0
 10
167.232540
 20
261.163217
 30
0.0
 10
167.285218
 20
261.290394
 30
0.0
 10
167.378987
 20
261.384162
 30
0.0
  0
SPLINE
  5
2cc
100
AcDbEntity
  8
Layer_1
 62
1
100
AcDbSpline
 70
8
 71
3
 72
8
 73
4
 74
0
 40
0
 40
0
 40
0
 40
0
 40
1
 40
1
 40
1
 40
1
 10
167.378987
 20
261.384162
 30
0.0
 10
167.472755
 20
261.477931
 30
0.0
 10
167.599932
 20
261.530609
 30
0.0
 10
167.732540
 20
261.530609
 30
0.0
  0
LINE
  5
2cd
100
AcDbEntity
  8
Layer_1
 62
1
100
AcDbLine
 10
167.732540
 20
261.530609
 30
0.0
 11
167.732540
 21
261.530609
 31
0.0
  0
LINE
  5
2ce
100
AcDbEntity
  8
Layer_1
 62
1
100
AcDbLine
 10
148.682540
 20
261.530609
 30
0.0
 11
161.682540
 21
261.530609
 31
0.0
  0
SPLINE
  5
2cf
100
AcDbEntity
  8
Layer_1
 62
1
100
AcDbSpline
 70
8
 71
3
 72
8
 73
4
 74
0
 40
0
 40
0
 40
0
 40
0
 40
1
 40
1
 40
1
 40
1
 10
161.682540
 20
261.530609
 30
0.0
 10
161.815148
 20
261.530609
 30
0.0
 10
161.942325
 20
261.477931
 30
0.0
 10
162.036093
 20
261.384162
 30
0.0
  0
SPLINE
  5
2d0
100
AcDbEntity
  8
Layer_1
 62
1
100
AcDbSpline
 70
8
 71
3
 72
8
 73
4
 74
0
 40
0
 40
0
 40
0
 40
0
 40
1
 40
1
 40
1
 40
1
 10
162.036093
 20
261.384162
 30
0.0
 10
162.129862
 20
261.290394
 30
0.0
 10
162.182540
 20
261.163217
 30
0.0
 10
162.182540
 20
261.030609
 30
0.0
  0
LINE
  5
2d1
100
AcDbEntity
  8
Layer_1
 62
1
100
AcDbLine
 10
162.182540
 20
261.030609
 30
0.0
 11
162.182540
 21
248.030609
 31
0.0
  0
SPLINE
  5
2d2
100
AcDbEntity
  8
Layer_1
 62
1
100
AcDbSpline
 70
8
 71
3
 72
8
 73
4
 74
0
 40
0
 40
0
 40
0
 40
0
 40
1
 40
1
 40
1
 40
1
 10
162.182540
 20
248.030609
 30
0.0
 10
162.182540
 20
247.898001
 30
0.0
 10
162.129862
 20
247.770824
 30
0.0
 10
162.036093
 20
247.677056
 30
0.0
  0
SPLINE
  5
2d3
100
AcDbEntity
  8
Layer_1
 62
1
100
AcDbSpline
 70
8
 71
3
 72
8
 73
4
 74
0
 40
0
 40
0
 40
0
 40
0
 40
1
 40
1
 40
1
 40
1
 10
162.036093
 20
247.677056
 30
0.0
 10
161.942325
 20
247.583287
 30
0.0
 10
161.815148
 20
247.530609
 30
0.0
 10
161.682540
 20
247.530609
 30
0.0
  0
LINE
  5
2d4
100
AcDbEntity
  8
Layer_1
 62
1
100
AcDbLine
 10
161.682540
 20
247.530609
 30
0.0
 11
148.682540
 21
247.530609
 31
0.0
  0
SPLINE
  5
2d5
100
AcDbEntity
  8
Layer_1
 62
1
100
AcDbSpline
 70
8
 71
3
 72
8
 73
4
 74
0
 40
0
 40
0
 40
0
 40
0
 40
1
 40
1
 40
1
 40
1
 10
148.682540
 20
247.530609
 30
0.0
 10
148.549932
 20
247.530609
 30
0.0
 10
148.422755
 20
247.583287
 30
0.0
 10
148.328987
 20
247.677056
 30
0.0
  0
SPLINE
  5
2d6
100
AcDbEntity
  8
Layer_1
 62
1
100
AcDbSpline
 70
8
 71
3
 72
8
 73
4
 74
0
 40
0
 40
0
 40
0
 40
0
 40
1
 40
1
 40
1
 40
1
 10
148.328987
 20
247.677056
 30
0.0
 10
148.235218
 20
247.770824
 30
0.0
 10
148.182540
 20
247.898001
 30
0.0
 10
148.182540
 20
248.030609
 30
0.0
  0
LINE
  5
2d7
100
AcDbEntity
  8
Layer_1
 62
1
100
AcDbLine
 10
148.182540
 20
248.030609
 30
0.0
 11
148.182540
 21
261.030609
 31
0.0
  0
SPLINE
  5
2d8
100
AcDbEntity
  8
Layer_1
 62
1
100
AcDbSpline
 70
8
 71
3
 72
8
 73
4
 74
0
 40
0
 40
0
 40
0
 40
0
 40
1
 40
1
 40
1
 40
1
 10
148.182540
 20
261.030609
 30
0.0
 10
148.182540
 20
261.163217
 30
0.0
 10
148.235218
 20
261.290394
 30
0.0
 10
148.328987
 20
261.384162
 30
0.0
  0
SPLINE
  5
2d9
100
AcDbEntity
  8
Layer_1
 62
1
100
AcDbSpline
 70
8
 71
3
 72
8
 73
4
 74
0
 40
0
 40
0
 40
0
 40
0
 40
1
 40
1
 40
1
 40
1
 10
148.328987
 20
261.384162
 30
0.0
 10
148.422755
 20
261.477931
 30
0.0
 10
148.549932
 20
261.530609
 30
0.0
 10
148.682540
 20
261.530609
 30
0.0
  0
LINE
  5
2da
100
AcDbEntity
  8
Layer_1
 62
1
100
AcDbLine
 10
148.682540
 20
261.530609
 30
0.0
 11
148.682540
 21
261.530609
 31
0.0
  0
LINE
  5
2db
100
AcDbEntity
  8
Layer_1
 62
1
100
AcDbLine
 10
129.632540
 20
261.530609
 30
0.0
 11
142.632540
 21
261.530609
 31
0.0
  0
SPLINE
  5
2dc
100
AcDbEntity
  8
Layer_1
 62
1
100
AcDbSpline
 70
8
 71
3
 72
8
 73
4
 74
0
 40
0
 40
0
 40
0
 40
0
 40
1
 40
1
 40
1
 40
1
 10
142.632540
 20
261.530609
 30
0.0
 10
142.765148
 20
261.530609
 30
0.0
 10
142.892325
 20
261.477931
 30
0.0
 10
142.986093
 20
261.384162
 30
0.0
  0
SPLINE
  5
2dd
100
AcDbEntity
  8
Layer_1
 62
1
100
AcDbSpline
 70
8
 71
3
 72
8
 73
4
 74
0
 40
0
 40
0
 40
0
 40
0
 40
1
 40
1
 40
1
 40
1
 10
142.986093
 20
261.384162
 30
0.0
 10
143.079862
 20
261.290394
 30
0.0
 10
143.132540
 20
261.163217
 30
0.0
 10
143.132540
 20
261.030609
 30
0.0
  0
LINE
  5
2de
100
AcDbEntity
  8
Layer_1
 62
1
100
AcDbLine
 10
143.132540
 20
261.030609
 30
0.0
 11
143.132540
 21
248.030609
 31
0.0
  0
SPLINE
  5
2df
100
AcDbEntity
  8
Layer_1
 62
1
100
AcDbSpline
 70
8
 71
3
 72
8
 73
4
 74
0
 40
0
 40
0
 40
0
 40
0
 40
1
 40
1
 40
1
 40
1
 10
143.132540
 20
248.030609
 30
0.0
 10
143.132540
 20
247.898001
 30
0.0
 10
143.079862
 20
247.770824
 30
0.0
 10
142.986093
 20
247.677056
 30
0.0
  0
SPLINE
  5
2e0
100
AcDbEntity
  8
Layer_1
 62
1
100
AcDbSpline
 70
8
 71
3
 72
8
 73
4
 74
0
 40
0
 40
0
 40
0
 40
0
 40
1
 40
1
 40
1
 40
1
 10
142.986093
 20
247.677056
 30
0.0
 10
142.892325
 20
247.583287
 30
0.0
 10
142.765148
 20
247.530609
 30
0.0
 10
142.632540
 20
247.530609
 30
0.0
  0
LINE
  5
2e1
100
AcDbEntity
  8
Layer_1
 62
1
100
AcDbLine
 10
142.632540
 20
247.530609
 30
0.0
 11
129.632540
 21
247.530609
 31
0.0
  0
SPLINE
  5
2e2
100
AcDbEntity
  8
Layer_1
 62
1
100
AcDbSpline
 70
8
 71
3
 72
8
 73
4
 74
0
 40
0
 40
0
 40
0
 40
0
 40
1
 40
1
 40
1
 40
1
 10
129.632540
 20
247.530609
 30
0.0
 10
129.499932
 20
247.530609
 30
0.0
 10
129.372755
 20
247.583287
 30
0.0
 10
129.278987
 20
247.677056
 30
0.0
  0
SPLINE
  5
2e3
100
AcDbEntity
  8
Layer_1
 62
1
100
AcDbSpline
 70
8
 71
3
 72
8
 73
4
 74
0
 40
0
 40
0
 40
0
 40
0
 40
1
 40
1
 40
1
 40
1
 10
129.278987
 20
247.677056
 30
0.0
 10
129.185218
 20
247.770824
 30
0.0
 10
129.132540
 20
247.898001
 30
0.0
 10
129.132540
 20
248.030609
 30
0.0
  0
LINE
  5
2e4
100
AcDbEntity
  8
Layer_1
 62
1
100
AcDbLine
 10
129.132540
 20
248.030609
 30
0.0
 11
129.132540
 21
261.030609
 31
0.0
  0
SPLINE
  5
2e5
100
AcDbEntity
  8
Layer_1
 62
1
100
AcDbSpline
 70
8
 71
3
 72
8
 73
4
 74
0
 40
0
 40
0
 40
0
 40
0
 40
1
 40
1
 40
1
 40
1
 10
129.132540
 20
261.030609
 30
0.0
 10
129.132540
 20
261.163217
 30
0.0
 10
129.185218
 20
261.290394
 30
0.0
 10
129.278987
 20
261.384162
 30
0.0
  0
SPLINE
  5
2e6
100
AcDbEntity
  8
Layer_1
 62
1
100
AcDbSpline
 70
8
 71
3
 72
8
 73
4
 74
0
 40
0
 40
0
 40
0
 40
0
 40
1
 40
1
 40
1
 40
1
 10
129.278987
 20
261.384162
 30
0.0
 10
129.372755
 20
261.477931
 30
0.0
 10
129.499932
 20
261.530609
 30
0.0
 10
129.632540
 20
261.530609
 30
0.0
  0
LINE
  5
2e7
100
AcDbEntity
  8
Layer_1
 62
1
100
AcDbLine
 10
129.632540
 20
261.530609
 30
0.0
 11
129.632540
 21
261.530609
 31
0.0
  0
LINE
  5
2e8
100
AcDbEntity
  8
Layer_1
 62
1
100
AcDbLine
 10
110.582540
 20
261.530609
 30
0.0
 11
123.582540
 21
261.530609
 31
0.0
  0
SPLINE
  5
2e9
100
AcDbEntity
  8
Layer_1
 62
1
100
AcDbSpline
 70
8
 71
3
 72
8
 73
4
 74
0
 40
0
 40
0
 40
0
 40
0
 40
1
 40
1
 40
1
 40
1
 10
123.582540
 20
261.530609
 30
0.0
 10
123.715148
 20
261.530609
 30
0.0
 10
123.842325
 20
261.477931
 30
0.0
 10
123.936093
 20
261.384162
 30
0.0
  0
SPLINE
  5
2ea
100
AcDbEntity
  8
Layer_1
 62
1
100
AcDbSpline
 70
8
 71
3
 72
8
 73
4
 74
0
 40
0
 40
0
 40
0
 40
0
 40
1
 40
1
 40
1
 40
1
 10
123.936093
 20
261.384162
 30
0.0
 10
124.029862
 20
261.290394
 30
0.0
 10
124.082540
 20
261.163217
 30
0.0
 10
124.082540
 20
261.030609
 30
0.0
  0
LINE
  5
2eb
100
AcDbEntity
  8
Layer_1
 62
1
100
AcDbLine
 10
124.082540
 20
261.030609
 30
0.0
 11
124.082540
 21
248.030609
 31
0.0
  0
SPLINE
  5
2ec
100
AcDbEntity
  8
Layer_1
 62
1
100
AcDbSpline
 70
8
 71
3
 72
8
 73
4
 74
0
 40
0
 40
0
 40
0
 40
0
 40
1
 40
1
 40
1
 40
1
 10
124.082540
 20
248.030609
 30
0.0
 10
124.082540
 20
247.898001
 30
0.0
 10
124.029862
 20
247.770824
 30
0.0
 10
123.936093
 20
247.677056
 30
0.0
  0
SPLINE
  5
2ed
100
AcDbEntity
  8
Layer_1
 62
1
100
AcDbSpline
 70
8
 71
3
 72
8
 73
4
 74
0
 40
0
 40
0
 40
0
 40
0
 40
1
 40
1
 40
1
 40
1
 10
123.936093
 20
247.677056
 30
0.0
 10
123.842325
 20
247.583287
 30
0.0
 10
123.715148
 20
247.530609
 30
0.0
 10
123.582540
 20
247.530609
 30
0.0
  0
LINE
  5
2ee
100
AcDbEntity
  8
Layer_1
 62
1
100
AcDbLine
 10
123.582540
 20
247.530609
 30
0.0
 11
110.582540
 21
247.530609
 31
0.0
  0
SPLINE
  5
2ef
100
AcDbEntity
  8
Layer_1
 62
1
100
AcDbSpline
 70
8
 71
3
 72
8
 73
4
 74
0
 40
0
 40
0
 40
0
 40
0
 40
1
 40
1
 40
1
 40
1
 10
110.582540
 20
247.530609
 30
0.0
 10
110.449932
 20
247.530609
 30
0.0
 10
110.322755
 20
247.583287
 30
0.0
 10
110.228987
 20
247.677056
 30
0.0
  0
SPLINE
  5
2f0
100
AcDbEntity
  8
Layer_1
 62
1
100
AcDbSpline
 70
8
 71
3
 72
8
 73
4
 74
0
 40
0
 40
0
 40
0
 40
0
 40
1
 40
1
 40
1
 40
1
 10
110.228987
 20
247.677056
 30
0.0
 10
110.135218
 20
247.770824
 30
0.0
 10
110.082540
 20
247.898001
 30
0.0
 10
110.082540
 20
248.030609
 30
0.0
  0
LINE
  5
2f1
100
AcDbEntity
  8
Layer_1
 62
1
100
AcDbLine
 10
110.082540
 20
248.030609
 30
0.0
 11
110.082540
 21
261.030609
 31
0.0
  0
SPLINE
  5
2f2
100
AcDbEntity
  8
Layer_1
 62
1
100
AcDbSpline
 70
8
 71
3
 72
8
 73
4
 74
0
 40
0
 40
0
 40
0
 40
0
 40
1
 40
1
 40
1
 40
1
 10
110.082540
 20
261.030609
 30
0.0
 10
110.082540
 20
261.163217
 30
0.0
 10
110.135218
 20
261.290394
 30
0.0
 10
110.228987
 20
261.384162
 30
0.0
  0
SPLINE
  5
2f3
100
AcDbEntity
  8
Layer_1
 62
1
100
AcDbSpline
 70
8
 71
3
 72
8
 73
4
 74
0
 40
0
 40
0
 40
0
 40
0
 40
1
 40
1
 40
1
 40
1
 10
110.228987
 20
261.384162
 30
0.0
 10
110.322755
 20
261.477931
 30
0.0
 10
110.449932
 20
261.530609
 30
0.0
 10
110.582540
 20
261.530609
 30
0.0
  0
LINE
  5
2f4
100
AcDbEntity
  8
Layer_1
 62
1
100
AcDbLine
 10
110.582540
 20
261.530609
 30
0.0
 11
110.582540
 21
261.530609
 31
0.0
  0
LINE
  5
2f5
100
AcDbEntity
  8
Layer_1
 62
1
100
AcDbLine
 10
91.532524
 20
261.530609
 30
0.0
 11
104.532540
 21
261.530609
 31
0.0
  0
SPLINE
  5
2f6
100
AcDbEntity
  8
Layer_1
 62
1
100
AcDbSpline
 70
8
 71
3
 72
8
 73
4
 74
0
 40
0
 40
0
 40
0
 40
0
 40
1
 40
1
 40
1
 40
1
 10
104.532540
 20
261.530609
 30
0.0
 10
104.665148
 20
261.530609
 30
0.0
 10
104.792325
 20
261.477931
 30
0.0
 10
104.886093
 20
261.384162
 30
0.0
  0
SPLINE
  5
2f7
100
AcDbEntity
  8
Layer_1
 62
1
100
AcDbSpline
 70
8
 71
3
 72
8
 73
4
 74
0
 40
0
 40
0
 40
0
 40
0
 40
1
 40
1
 40
1
 40
1
 10
104.886093
 20
261.384162
 30
0.0
 10
104.979862
 20
261.290394
 30
0.0
 10
105.032540
 20
261.163217
 30
0.0
 10
105.032540
 20
261.030609
 30
0.0
  0
LINE
  5
2f8
100
AcDbEntity
  8
Layer_1
 62
1
100
AcDbLine
 10
105.032540
 20
261.030609
 30
0.0
 11
105.032540
 21
248.030609
 31
0.0
  0
SPLINE
  5
2f9
100
AcDbEntity
  8
Layer_1
 62
1
100
AcDbSpline
 70
8
 71
3
 72
8
 73
4
 74
0
 40
0
 40
0
 40
0
 40
0
 40
1
 40
1
 40
1
 40
1
 10
105.032540
 20
248.030609
 30
0.0
 10
105.032540
 20
247.898001
 30
0.0
 10
104.979862
 20
247.770824
 30
0.0
 10
104.886093
 20
247.677056
 30
0.0
  0
SPLINE
  5
2fa
100
AcDbEntity
  8
Layer_1
 62
1
100
AcDbSpline
 70
8
 71
3
 72
8
 73
4
 74
0
 40
0
 40
0
 40
0
 40
0
 40
1
 40
1
 40
1
 40
1
 10
104.886093
 20
247.677056
 30
0.0
 10
104.792325
 20
247.583287
 30
0.0
 10
104.665148
 20
247.530609
 30
0.0
 10
104.532540
 20
247.530609
 30
0.0
  0
LINE
  5
2fb
100
AcDbEntity
  8
Layer_1
 62
1
100
AcDbLine
 10
104.532540
 20
247.530609
 30
0.0
 11
91.532524
 21
247.530609
 31
0.0
  0
SPLINE
  5
2fc
100
AcDbEntity
  8
Layer_1
 62
1
100
AcDbSpline
 70
8
 71
3
 72
8
 73
4
 74
0
 40
0
 40
0
 40
0
 40
0
 40
1
 40
1
 40
1
 40
1
 10
91.532524
 20
247.530609
 30
0.0
 10
91.399916
 20
247.530609
 30
0.0
 10
91.272739
 20
247.583287
 30
0.0
 10
91.178971
 20
247.677056
 30
0.0
  0
SPLINE
  5
2fd
100
AcDbEntity
  8
Layer_1
 62
1
100
AcDbSpline
 70
8
 71
3
 72
8
 73
4
 74
0
 40
0
 40
0
 40
0
 40
0
 40
1
 40
1
 40
1
 40
1
 10
91.178971
 20
247.677056
 30
0.0
 10
91.085202
 20
247.770824
 30
0.0
 10
91.032524
 20
247.898001
 30
0.0
 10
91.032524
 20
248.030609
 30
0.0
  0
LINE
  5
2fe
100
AcDbEntity
  8
Layer_1
 62
1
100
AcDbLine
 10
91.032524
 20
248.030609
 30
0.0
 11
91.032524
 21
261.030609
 31
0.0
  0
SPLINE
  5
2ff
100
AcDbEntity
  8
Layer_1
 62
1
100
AcDbSpline
 70
8
 71
3
 72
8
 73
4
 74
0
 40
0
 40
0
 40
0
 40
0
 40
1
 40
1
 40
1
 40
1
 10
91.032524
 20
261.030609
 30
0.0
 10
91.032524
 20
261.163217
 30
0.0
 10
91.085202
 20
261.290394
 30
0.0
 10
91.178971
 20
261.384162
 30
0.0
  0
SPLINE
  5
300
100
AcDbEntity
  8
Layer_1
 62
1
100
AcDbSpline
 70
8
 71
3
 72
8
 73
4
 74
0
 40
0
 40
0
 40
0
 40
0
 40
1
 40
1
 40
1
 40
1
 10
91.178971
 20
261.384162
 30
0.0
 10
91.272739
 20
261.477931
 30
0.0
 10
91.399916
 20
261.530609
 30
0.0
 10
91.532524
 20
261.530609
 30
0.0
  0
LINE
  5
301
100
AcDbEntity
  8
Layer_1
 62
1
100
AcDbLine
 10
91.532524
 20
261.530609
 30
0.0
 11
91.532524
 21
261.530609
 31
0.0
  0
LINE
  5
302
100
AcDbEntity
  8
Layer_1
 62
1
100
AcDbLine
 10
72.482524
 20
261.530609
 30
0.0
 11
85.482524
 21
261.530609
 31
0.0
  0
SPLINE
  5
303
100
AcDbEntity
  8
Layer_1
 62
1
100
AcDbSpline
 70
8
 71
3
 72
8
 73
4
 74
0
 40
0
 40
0
 40
0
 40
0
 40
1
 40
1
 40
1
 40
1
 10
85.482524
 20
261.530609
 30
0.0
 10
85.615132
 20
261.530609
 30
0.0
 10
85.742309
 20
261.477931
 30
0.0
 10
85.836077
 20
261.384162
 30
0.0
  0
SPLINE
  5
304
100
AcDbEntity
  8
Layer_1
 62
1
100
AcDbSpline
 70
8
 71
3
 72
8
 73
4
 74
0
 40
0
 40
0
 40
0
 40
0
 40
1
 40
1
 40
1
 40
1
 10
85.836077
 20
261.384162
 30
0.0
 10
85.929846
 20
261.290394
 30
0.0
 10
85.982524
 20
261.163217
 30
0.0
 10
85.982524
 20
261.030609
 30
0.0
  0
LINE
  5
305
100
AcDbEntity
  8
Layer_1
 62
1
100
AcDbLine
 10
85.982524
 20
261.030609
 30
0.0
 11
85.982524
 21
248.030609
 31
0.0
  0
SPLINE
  5
306
100
AcDbEntity
  8
Layer_1
 62
1
100
AcDbSpline
 70
8
 71
3
 72
8
 73
4
 74
0
 40
0
 40
0
 40
0
 40
0
 40
1
 40
1
 40
1
 40
1
 10
85.982524
 20
248.030609
 30
0.0
 10
85.982524
 20
247.898001
 30
0.0
 10
85.929846
 20
247.770824
 30
0.0
 10
85.836077
 20
247.677056
 30
0.0
  0
SPLINE
  5
307
100
AcDbEntity
  8
Layer_1
 62
1
100
AcDbSpline
 70
8
 71
3
 72
8
 73
4
 74
0
 40
0
 40
0
 40
0
 40
0
 40
1
 40
1
 40
1
 40
1
 10
85.836077
 20
247.677056
 30
0.0
 10
85.742309
 20
247.583287
 30
0.0
 10
85.615132
 20
247.530609
 30
0.0
 10
85.482524
 20
247.530609
 30
0.0
  0
LINE
  5
308
100
AcDbEntity
  8
Layer_1
 62
1
100
AcDbLine
 10
85.482524
 20
247.530609
 30
0.0
 11
72.482524
 21
247.530609
 31
0.0
  0
SPLINE
  5
309
100
AcDbEntity
  8
Layer_1
 62
1
100
AcDbSpline
 70
8
 71
3
 72
8
 73
4
 74
0
 40
0
 40
0
 40
0
 40
0
 40
1
 40
1
 40
1
 40
1
 10
72.482524
 20
247.530609
 30
0.0
 10
72.349916
 20
247.530609
 30
0.0
 10
72.222739
 20
247.583287
 30
0.0
 10
72.128971
 20
247.677056
 30
0.0
  0
SPLINE
  5
30a
100
AcDbEntity
  8
Layer_1
 62
1
100
AcDbSpline
 70
8
 71
3
 72
8
 73
4
 74
0
 40
0
 40
0
 40
0
 40
0
 40
1
 40
1
 40
1
 40
1
 10
72.128971
 20
247.677056
 30
0.0
 10
72.035202
 20
247.770824
 30
0.0
 10
71.982524
 20
247.898001
 30
0.0
 10
71.982524
 20
248.030609
 30
0.0
  0
LINE
  5
30b
100
AcDbEntity
  8
Layer_1
 62
1
100
AcDbLine
 10
71.982524
 20
248.030609
 30
0.0
 11
71.982524
 21
261.030609
 31
0.0
  0
SPLINE
  5
30c
100
AcDbEntity
  8
Layer_1
 62
1
100
AcDbSpline
 70
8
 71
3
 72
8
 73
4
 74
0
 40
0
 40
0
 40
0
 40
0
 40
1
 40
1
 40
1
 40
1
 10
71.982524
 20
261.030609
 30
0.0
 10
71.982524
 20
261.163217
 30
0.0
 10
72.035202
 20
261.290394
 30
0.0
 10
72.128971
 20
261.384162
 30
0.0
  0
SPLINE
  5
30d
100
AcDbEntity
  8
Layer_1
 62
1
100
AcDbSpline
 70
8
 71
3
 72
8
 73
4
 74
0
 40
0
 40
0
 40
0
 40
0
 40
1
 40
1
 40
1
 40
1
 10
72.128971
 20
261.384162
 30
0.0
 10
72.222739
 20
261.477931
 30
0.0
 10
72.349916
 20
261.530609
 30
0.0
 10
72.482524
 20
261.530609
 30
0.0
  0
LINE
  5
30e
100
AcDbEntity
  8
Layer_1
 62
1
100
AcDbLine
 10
72.482524
 20
261.530609
 30
0.0
 11
72.482524
 21
261.530609
 31
0.0
  0
LINE
  5
30f
100
AcDbEntity
  8
Layer_1
 62
1
100
AcDbLine
 10
51.050524
 20
261.530609
 30
0.0
 11
64.050524
 21
261.530609
 31
0.0
  0
SPLINE
  5
310
100
AcDbEntity
  8
Layer_1
 62
1
100
AcDbSpline
 70
8
 71
3
 72
8
 73
4
 74
0
 40
0
 40
0
 40
0
 40
0
 40
1
 40
1
 40
1
 40
1
 10
64.050524
 20
261.530609
 30
0.0
 10
64.183132
 20
261.530609
 30
0.0
 10
64.310309
 20
261.477931
 30
0.0
 10
64.404077
 20
261.384162
 30
0.0
  0
SPLINE
  5
311
100
AcDbEntity
  8
Layer_1
 62
1
100
AcDbSpline
 70
8
 71
3
 72
8
 73
4
 74
0
 40
0
 40
0
 40
0
 40
0
 40
1
 40
1
 40
1
 40
1
 10
64.404077
 20
261.384162
 30
0.0
 10
64.497846
 20
261.290394
 30
0.0
 10
64.550524
 20
261.163217
 30
0.0
 10
64.550524
 20
261.030609
 30
0.0
  0
LINE
  5
312
100
AcDbEntity
  8
Layer_1
 62
1
100
AcDbLine
 10
64.550524
 20
261.030609
 30
0.0
 11
64.550524
 21
248.030609
 31
0.0
  0
SPLINE
  5
313
100
AcDbEntity
  8
Layer_1
 62
1
100
AcDbSpline
 70
8
 71
3
 72
8
 73
4
 74
0
 40
0
 40
0
 40
0
 40
0
 40
1
 40
1
 40
1
 40
1
 10
64.550524
 20
248.030609
 30
0.0
 10
64.550524
 20
247.898001
 30
0.0
 10
64.497846
 20
247.770824
 30
0.0
 10
64.404077
 20
247.677056
 30
0.0
  0
SPLINE
  5
314
100
AcDbEntity
  8
Layer_1
 62
1
100
AcDbSpline
 70
8
 71
3
 72
8
 73
4
 74
0
 40
0
 40
0
 40
0
 40
0
 40
1
 40
1
 40
1
 40
1
 10
64.404077
 20
247.677056
 30
0.0
 10
64.310309
 20
247.583287
 30
0.0
 10
64.183132
 20
247.530609
 30
0.0
 10
64.050524
 20
247.530609
 30
0.0
  0
LINE
  5
315
100
AcDbEntity
  8
Layer_1
 62
1
100
AcDbLine
 10
64.050524
 20
247.530609
 30
0.0
 11
51.050524
 21
247.530609
 31
0.0
  0
SPLINE
  5
316
100
AcDbEntity
  8
Layer_1
 62
1
100
AcDbSpline
 70
8
 71
3
 72
8
 73
4
 74
0
 40
0
 40
0
 40
0
 40
0
 40
1
 40
1
 40
1
 40
1
 10
51.050524
 20
247.530609
 30
0.0
 10
50.917916
 20
247.530609
 30
0.0
 10
50.790739
 20
247.583287
 30
0.0
 10
50.696971
 20
247.677056
 30
0.0
  0
SPLINE
  5
317
100
AcDbEntity
  8
Layer_1
 62
1
100
AcDbSpline
 70
8
 71
3
 72
8
 73
4
 74
0
 40
0
 40
0
 40
0
 40
0
 40
1
 40
1
 40
1
 40
1
 10
50.696971
 20
247.677056
 30
0.0
 10
50.603202
 20
247.770824
 30
0.0
 10
50.550524
 20
247.898001
 30
0.0
 10
50.550524
 20
248.030609
 30
0.0
  0
LINE
  5
318
100
AcDbEntity
  8
Layer_1
 62
1
100
AcDbLine
 10
50.550524
 20
248.030609
 30
0.0
 11
50.550524
 21
261.030609
 31
0.0
  0
SPLINE
  5
319
100
AcDbEntity
  8
Layer_1
 62
1
100
AcDbSpline
 70
8
 71
3
 72
8
 73
4
 74
0
 40
0
 40
0
 40
0
 40
0
 40
1
 40
1
 40
1
 40
1
 10
50.550524
 20
261.030609
 30
0.0
 10
50.550524
 20
261.163217
 30
0.0
 10
50.603202
 20
261.290394
 30
0.0
 10
50.696971
 20
261.384162
 30
0.0
  0
SPLINE
  5
31a
100
AcDbEntity
  8
Layer_1
 62
1
100
AcDbSpline
 70
8
 71
3
 72
8
 73
4
 74
0
 40
0
 40
0
 40
0
 40
0
 40
1
 40
1
 40
1
 40
1
 10
50.696971
 20
261.384162
 30
0.0
 10
50.790739
 20
261.477931
 30
0.0
 10
50.917916
 20
261.530609
 30
0.0
 10
51.050524
 20
261.530609
 30
0.0
  0
LINE
  5
31b
100
AcDbEntity
  8
Layer_1
 62
1
100
AcDbLine
 10
51.050524
 20
261.530609
 30
0.0
 11
51.050524
 21
261.530609
 31
0.0
  0
LINE
  5
31c
100
AcDbEntity
  8
Layer_1
 62
1
100
AcDbLine
 10
67.719524
 20
280.580609
 30
0.0
 11
80.719524
 21
280.580609
 31
0.0
  0
SPLINE
  5
31d
100
AcDbEntity
  8
Layer_1
 62
1
100
AcDbSpline
 70
8
 71
3
 72
8
 73
4
 74
0
 40
0
 40
0
 40
0
 40
0
 40
1
 40
1
 40
1
 40
1
 10
80.719524
 20
280.580609
 30
0.0
 10
80.852132
 20
280.580609
 30
0.0
 10
80.979309
 20
280.527931
 30
0.0
 10
81.073077
 20
280.434162
 30
0.0
  0
SPLINE
  5
31e
100
AcDbEntity
  8
Layer_1
 62
1
100
AcDbSpline
 70
8
 71
3
 72
8
 73
4
 74
0
 40
0
 40
0
 40
0
 40
0
 40
1
 40
1
 40
1
 40
1
 10
81.073077
 20
280.434162
 30
0.0
 10
81.166846
 20
280.340394
 30
0.0
 10
81.219524
 20
280.213217
 30
0.0
 10
81.219524
 20
280.080609
 30
0.0
  0
LINE
  5
31f
100
AcDbEntity
  8
Layer_1
 62
1
100
AcDbLine
 10
81.219524
 20
280.080609
 30
0.0
 11
81.219524
 21
267.080609
 31
0.0
  0
SPLINE
  5
320
100
AcDbEntity
  8
Layer_1
 62
1
100
AcDbSpline
 70
8
 71
3
 72
8
 73
4
 74
0
 40
0
 40
0
 40
0
 40
0
 40
1
 40
1
 40
1
 40
1
 10
81.219524
 20
267.080609
 30
0.0
 10
81.219524
 20
266.948001
 30
0.0
 10
81.166846
 20
266.820824
 30
0.0
 10
81.073077
 20
266.727056
 30
0.0
  0
SPLINE
  5
321
100
AcDbEntity
  8
Layer_1
 62
1
100
AcDbSpline
 70
8
 71
3
 72
8
 73
4
 74
0
 40
0
 40
0
 40
0
 40
0
 40
1
 40
1
 40
1
 40
1
 10
81.073077
 20
266.727056
 30
0.0
 10
80.979309
 20
266.633287
 30
0.0
 10
80.852132
 20
266.580609
 30
0.0
 10
80.719524
 20
266.580609
 30
0.0
  0
LINE
  5
322
100
AcDbEntity
  8
Layer_1
 62
1
100
AcDbLine
 10
80.719524
 20
266.580609
 30
0.0
 11
67.719524
 21
266.580609
 31
0.0
  0
SPLINE
  5
323
100
AcDbEntity
  8
Layer_1
 62
1
100
AcDbSpline
 70
8
 71
3
 72
8
 73
4
 74
0
 40
0
 40
0
 40
0
 40
0
 40
1
 40
1
 40
1
 40
1
 10
67.719524
 20
266.580609
 30
0.0
 10
67.586916
 20
266.580609
 30
0.0
 10
67.459739
 20
266.633287
 30
0.0
 10
67.365971
 20
266.727056
 30
0.0
  0
SPLINE
  5
324
100
AcDbEntity
  8
Layer_1
 62
1
100
AcDbSpline
 70
8
 71
3
 72
8
 73
4
 74
0
 40
0
 40
0
 40
0
 40
0
 40
1
 40
1
 40
1
 40
1
 10
67.365971
 20
266.727056
 30
0.0
 10
67.272202
 20
266.820824
 30
0.0
 10
67.219524
 20
266.948001
 30
0.0
 10
67.219524
 20
267.080609
 30
0.0
  0
LINE
  5
325
100
AcDbEntity
  8
Layer_1
 62
1
100
AcDbLine
 10
67.219524
 20
267.080609
 30
0.0
 11
67.219524
 21
280.080609
 31
0.0
  0
SPLINE
  5
326
100
AcDbEntity
  8
Layer_1
 62
1
100
AcDbSpline
 70
8
 71
3
 72
8
 73
4
 74
0
 40
0
 40
0
 40
0
 40
0
 40
1
 40
1
 40
1
 40
1
 10
67.219524
 20
280.080609
 30
0.0
 10
67.219524
 20
280.213217
 30
0.0
 10
67.272202
 20
280.340394
 30
0.0
 10
67.365971
 20
280.434162
 30
0.0
  0
SPLINE
  5
327
100
AcDbEntity
  8
Layer_1
 62
1
100
AcDbSpline
 70
8
 71
3
 72
8
 73
4
 74
0
 40
0
 40
0
 40
0
 40
0
 40
1
 40
1
 40
1
 40
1
 10
67.365971
 20
280.434162
 30
0.0
 10
67.459739
 20
280.527931
 30
0.0
 10
67.586916
 20
280.580609
 30
0.0
 10
67.719524
 20
280.580609
 30
0.0
  0
LINE
  5
328
100
AcDbEntity
  8
Layer_1
 62
1
100
AcDbLine
 10
67.719524
 20
280.580609
 30
0.0
 11
67.719524
 21
280.580609
 31
0.0
  0
LINE
  5
329
100
AcDbEntity
  8
Layer_1
 62
1
100
AcDbLine
 10
46.173710
 20
203.730600
 30
0.0
 11
83.109830
 21
203.730600
 31
0.0
  0
SPLINE
  5
32a
100
AcDbEntity
  8
Layer_1
 62
1
100
AcDbSpline
 70
8
 71
3
 72
8
 73
4
 74
0
 40
0
 40
0
 40
0
 40
0
 40
1
 40
1
 40
1
 40
1
 10
83.109830
 20
203.730600
 30
0.0
 10
83.402123
 20
203.730596
 30
0.0
 10
83.639096
 20
203.967507
 30
0.0
 10
83.639170
 20
204.259800
 30
0.0
  0
LINE
  5
32b
100
AcDbEntity
  8
Layer_1
 62
1
100
AcDbLine
 10
83.639170
 20
204.259800
 30
0.0
 11
83.639830
 21
206.376400
 31
0.0
  0
SPLINE
  5
32c
100
AcDbEntity
  8
Layer_1
 62
1
100
AcDbSpline
 70
8
 71
3
 72
8
 73
4
 74
0
 40
0
 40
0
 40
0
 40
0
 40
1
 40
1
 40
1
 40
1
 10
83.639830
 20
206.376400
 30
0.0
 10
83.639904
 20
206.668693
 30
0.0
 10
83.876877
 20
206.905604
 30
0.0
 10
84.169170
 20
206.905600
 30
0.0
  0
LINE
  5
32d
100
AcDbEntity
  8
Layer_1
 62
1
100
AcDbLine
 10
84.169170
 20
206.905600
 30
0.0
 11
145.806780
 21
206.905600
 31
0.0
  0
SPLINE
  5
32e
100
AcDbEntity
  8
Layer_1
 62
1
100
AcDbSpline
 70
8
 71
3
 72
8
 73
4
 74
0
 40
0
 40
0
 40
0
 40
0
 40
1
 40
1
 40
1
 40
1
 10
145.806780
 20
206.905600
 30
0.0
 10
145.947114
 20
206.905600
 30
0.0
 10
146.081698
 20
206.849839
 30
0.0
 10
146.180910
 20
206.750589
 30
0.0
  0
SPLINE
  5
32f
100
AcDbEntity
  8
Layer_1
 62
1
100
AcDbSpline
 70
8
 71
3
 72
8
 73
4
 74
0
 40
0
 40
0
 40
0
 40
0
 40
1
 40
1
 40
1
 40
1
 10
146.180910
 20
206.750589
 30
0.0
 10
146.280123
 20
206.651339
 30
0.0
 10
146.335833
 20
206.516734
 30
0.0
 10
146.335780
 20
206.376400
 30
0.0
  0
LINE
  5
330
100
AcDbEntity
  8
Layer_1
 62
1
100
AcDbLine
 10
146.335780
 20
206.376400
 30
0.0
 11
146.335120
 21
204.259800
 31
0.0
  0
SPLINE
  5
331
100
AcDbEntity
  8
Layer_1
 62
1
100
AcDbSpline
 70
8
 71
3
 72
8
 73
4
 74
0
 40
0
 40
0
 40
0
 40
0
 40
1
 40
1
 40
1
 40
1
 10
146.335120
 20
204.259800
 30
0.0
 10
146.335067
 20
204.119466
 30
0.0
 10
146.390777
 20
203.984861
 30
0.0
 10
146.489990
 20
203.885611
 30
0.0
  0
SPLINE
  5
332
100
AcDbEntity
  8
Layer_1
 62
1
100
AcDbSpline
 70
8
 71
3
 72
8
 73
4
 74
0
 40
0
 40
0
 40
0
 40
0
 40
1
 40
1
 40
1
 40
1
 10
146.489990
 20
203.885611
 30
0.0
 10
146.589202
 20
203.786361
 30
0.0
 10
146.723786
 20
203.730600
 30
0.0
 10
146.864120
 20
203.730600
 30
0.0
  0
LINE
  5
333
100
AcDbEntity
  8
Layer_1
 62
1
100
AcDbLine
 10
146.864120
 20
203.730600
 30
0.0
 11
185.798150
 21
203.730600
 31
0.0
  0
SPLINE
  5
334
100
AcDbEntity
  8
Layer_1
 62
1
100
AcDbSpline
 70
8
 71
3
 72
8
 73
4
 74
0
 40
0
 40
0
 40
0
 40
0
 40
1
 40
1
 40
1
 40
1
 10
185.798150
 20
203.730600
 30
0.0
 10
186.090443
 20
203.730596
 30
0.0
 10
186.327416
 20
203.967507
 30
0.0
 10
186.327490
 20
204.259800
 30
0.0
  0
LINE
  5
335
100
AcDbEntity
  8
Layer_1
 62
1
100
AcDbLine
 10
186.327490
 20
204.259800
 30
0.0
 11
186.328150
 21
206.376400
 31
0.0
  0
SPLINE
  5
336
100
AcDbEntity
  8
Layer_1
 62
1
100
AcDbSpline
 70
8
 71
3
 72
8
 73
4
 74
0
 40
0
 40
0
 40
0
 40
0
 40
1
 40
1
 40
1
 40
1
 10
186.328150
 20
206.376400
 30
0.0
 10
186.328224
 20
206.668693
 30
0.0
 10
186.565197
 20
206.905604
 30
0.0
 10
186.857490
 20
206.905600
 30
0.0
  0
LINE
  5
337
100
AcDbEntity
  8
Layer_1
 62
1
100
AcDbLine
 10
186.857490
 20
206.905600
 30
0.0
 11
248.597330
 21
206.905600
 31
0.0
  0
SPLINE
  5
338
100
AcDbEntity
  8
Layer_1
 62
1
100
AcDbSpline
 70
8
 71
3
 72
8
 73
4
 74
0
 40
0
 40
0
 40
0
 40
0
 40
1
 40
1
 40
1
 40
1
 10
248.597330
 20
206.905600
 30
0.0
 10
248.889890
 20
206.905637
 30
0.0
 10
249.127328
 20
206.668959
 30
0.0
 10
249.128230
 20
206.376400
 30
0.0
  0
LINE
  5
339
100
AcDbEntity
  8
Layer_1
 62
1
100
AcDbLine
 10
249.128230
 20
206.376400
 30
0.0
 11
249.138230
 21
204.259800
 31
0.0
  0
SPLINE
  5
33a
100
AcDbEntity
  8
Layer_1
 62
1
100
AcDbSpline
 70
8
 71
3
 72
8
 73
4
 74
0
 40
0
 40
0
 40
0
 40
0
 40
1
 40
1
 40
1
 40
1
 10
249.138230
 20
204.259800
 30
0.0
 10
249.139132
 20
203.967241
 30
0.0
 10
249.376570
 20
203.730563
 30
0.0
 10
249.669130
 20
203.730600
 30
0.0
  0
LINE
  5
33b
100
AcDbEntity
  8
Layer_1
 62
1
100
AcDbLine
 10
249.669130
 20
203.730600
 30
0.0
 11
288.011530
 21
203.730600
 31
0.0
  0
SPLINE
  5
33c
100
AcDbEntity
  8
Layer_1
 62
1
100
AcDbSpline
 70
8
 71
3
 72
8
 73
4
 74
0
 40
0
 40
0
 40
0
 40
0
 40
1
 40
1
 40
1
 40
1
 10
288.011530
 20
203.730600
 30
0.0
 10
288.151885
 20
203.730591
 30
0.0
 10
288.286495
 20
203.786343
 30
0.0
 10
288.385741
 20
203.885589
 30
0.0
  0
SPLINE
  5
33d
100
AcDbEntity
  8
Layer_1
 62
1
100
AcDbSpline
 70
8
 71
3
 72
8
 73
4
 74
0
 40
0
 40
0
 40
0
 40
0
 40
1
 40
1
 40
1
 40
1
 10
288.385741
 20
203.885589
 30
0.0
 10
288.484987
 20
203.984835
 30
0.0
 10
288.540739
 20
204.119445
 30
0.0
 10
288.540730
 20
204.259800
 30
0.0
  0
LINE
  5
33e
100
AcDbEntity
  8
Layer_1
 62
1
100
AcDbLine
 10
288.540730
 20
204.259800
 30
0.0
 11
288.540730
 21
285.751400
 31
0.0
  0
SPLINE
  5
33f
100
AcDbEntity
  8
Layer_1
 62
1
100
AcDbSpline
 70
8
 71
3
 72
8
 73
4
 74
0
 40
0
 40
0
 40
0
 40
0
 40
1
 40
1
 40
1
 40
1
 10
288.540730
 20
285.751400
 30
0.0
 10
288.540739
 20
285.891755
 30
0.0
 10
288.484987
 20
286.026365
 30
0.0
 10
288.385741
 20
286.125611
 30
0.0
  0
SPLINE
  5
340
100
AcDbEntity
  8
Layer_1
 62
1
100
AcDbSpline
 70
8
 71
3
 72
8
 73
4
 74
0
 40
0
 40
0
 40
0
 40
0
 40
1
 40
1
 40
1
 40
1
 10
288.385741
 20
286.125611
 30
0.0
 10
288.286495
 20
286.224857
 30
0.0
 10
288.151885
 20
286.280609
 30
0.0
 10
288.011530
 20
286.280600
 30
0.0
  0
LINE
  5
341
100
AcDbEntity
  8
Layer_1
 62
1
100
AcDbLine
 10
288.011530
 20
286.280600
 30
0.0
 11
249.662930
 21
286.280600
 31
0.0
  0
SPLINE
  5
342
100
AcDbEntity
  8
Layer_1
 62
1
100
AcDbSpline
 70
8
 71
3
 72
8
 73
4
 74
0
 40
0
 40
0
 40
0
 40
0
 40
1
 40
1
 40
1
 40
1
 10
249.662930
 20
286.280600
 30
0.0
 10
249.522575
 20
286.280609
 30
0.0
 10
249.387965
 20
286.224857
 30
0.0
 10
249.288719
 20
286.125611
 30
0.0
  0
SPLINE
  5
343
100
AcDbEntity
  8
Layer_1
 62
1
100
AcDbSpline
 70
8
 71
3
 72
8
 73
4
 74
0
 40
0
 40
0
 40
0
 40
0
 40
1
 40
1
 40
1
 40
1
 10
249.288719
 20
286.125611
 30
0.0
 10
249.189473
 20
286.026365
 30
0.0
 10
249.133721
 20
285.891755
 30
0.0
 10
249.133730
 20
285.751400
 30
0.0
  0
LINE
  5
344
100
AcDbEntity
  8
Layer_1
 62
1
100
AcDbLine
 10
249.133730
 20
285.751400
 30
0.0
 11
249.133730
 21
283.634800
 31
0.0
  0
SPLINE
  5
345
100
AcDbEntity
  8
Layer_1
 62
1
100
AcDbSpline
 70
8
 71
3
 72
8
 73
4
 74
0
 40
0
 40
0
 40
0
 40
0
 40
1
 40
1
 40
1
 40
1
 10
249.133730
 20
283.634800
 30
0.0
 10
249.133739
 20
283.494445
 30
0.0
 10
249.077987
 20
283.359835
 30
0.0
 10
248.978741
 20
283.260589
 30
0.0
  0
SPLINE
  5
346
100
AcDbEntity
  8
Layer_1
 62
1
100
AcDbSpline
 70
8
 71
3
 72
8
 73
4
 74
0
 40
0
 40
0
 40
0
 40
0
 40
1
 40
1
 40
1
 40
1
 10
248.978741
 20
283.260589
 30
0.0
 10
248.879495
 20
283.161343
 30
0.0
 10
248.744885
 20
283.105591
 30
0.0
 10
248.604530
 20
283.105600
 30
0.0
  0
LINE
  5
347
100
AcDbEntity
  8
Layer_1
 62
1
100
AcDbLine
 10
248.604530
 20
283.105600
 30
0.0
 11
186.869000
 21
283.105600
 31
0.0
  0
SPLINE
  5
348
100
AcDbEntity
  8
Layer_1
 62
1
100
AcDbSpline
 70
8
 71
3
 72
8
 73
4
 74
0
 40
0
 40
0
 40
0
 40
0
 40
1
 40
1
 40
1
 40
1
 10
186.869000
 20
283.105600
 30
0.0
 10
186.576626
 20
283.105596
 30
0.0
 10
186.339510
 20
283.342426
 30
0.0
 10
186.339160
 20
283.634800
 30
0.0
  0
LINE
  5
349
100
AcDbEntity
  8
Layer_1
 62
1
100
AcDbLine
 10
186.339160
 20
283.634800
 30
0.0
 11
186.336160
 21
285.751400
 31
0.0
  0
SPLINE
  5
34a
100
AcDbEntity
  8
Layer_1
 62
1
100
AcDbSpline
 70
8
 71
3
 72
8
 73
4
 74
0
 40
0
 40
0
 40
0
 40
0
 40
1
 40
1
 40
1
 40
1
 10
186.336160
 20
285.751400
 30
0.0
 10
186.335810
 20
286.043774
 30
0.0
 10
186.098694
 20
286.280604
 30
0.0
 10
185.806320
 20
286.280600
 30
0.0
  0
LINE
  5
34b
100
AcDbEntity
  8
Layer_1
 62
1
100
AcDbLine
 10
185.806320
 20
286.280600
 30
0.0
 11
146.871400
 21
286.280600
 31
0.0
  0
SPLINE
  5
34c
100
AcDbEntity
  8
Layer_1
 62
1
100
AcDbSpline
 70
8
 71
3
 72
8
 73
4
 74
0
 40
0
 40
0
 40
0
 40
0
 40
1
 40
1
 40
1
 40
1
 10
146.871400
 20
286.280600
 30
0.0
 10
146.731112
 20
286.280600
 30
0.0
 10
146.596580
 20
286.224823
 30
0.0
 10
146.497446
 20
286.125558
 30
0.0
  0
SPLINE
  5
34d
100
AcDbEntity
  8
Layer_1
 62
1
100
AcDbSpline
 70
8
 71
3
 72
8
 73
4
 74
0
 40
0
 40
0
 40
0
 40
0
 40
1
 40
1
 40
1
 40
1
 10
146.497446
 20
286.125558
 30
0.0
 10
146.398313
 20
286.026294
 30
0.0
 10
146.342714
 20
285.891688
 30
0.0
 10
146.342900
 20
285.751400
 30
0.0
  0
LINE
  5
34e
100
AcDbEntity
  8
Layer_1
 62
1
100
AcDbLine
 10
146.342900
 20
285.751400
 30
0.0
 11
146.345900
 21
283.634800
 31
0.0
  0
SPLINE
  5
34f
100
AcDbEntity
  8
Layer_1
 62
1
100
AcDbSpline
 70
8
 71
3
 72
8
 73
4
 74
0
 40
0
 40
0
 40
0
 40
0
 40
1
 40
1
 40
1
 40
1
 10
146.345900
 20
283.634800
 30
0.0
 10
146.346086
 20
283.494512
 30
0.0
 10
146.290487
 20
283.359906
 30
0.0
 10
146.191354
 20
283.260642
 30
0.0
  0
SPLINE
  5
350
100
AcDbEntity
  8
Layer_1
 62
1
100
AcDbSpline
 70
8
 71
3
 72
8
 73
4
 74
0
 40
0
 40
0
 40
0
 40
0
 40
1
 40
1
 40
1
 40
1
 10
146.191354
 20
283.260642
 30
0.0
 10
146.092220
 20
283.161377
 30
0.0
 10
145.957688
 20
283.105600
 30
0.0
 10
145.817400
 20
283.105600
 30
0.0
  0
LINE
  5
351
100
AcDbEntity
  8
Layer_1
 62
1
100
AcDbLine
 10
145.817400
 20
283.105600
 30
0.0
 11
84.172300
 21
283.105600
 31
0.0
  0
SPLINE
  5
352
100
AcDbEntity
  8
Layer_1
 62
1
100
AcDbSpline
 70
8
 71
3
 72
8
 73
4
 74
0
 40
0
 40
0
 40
0
 40
0
 40
1
 40
1
 40
1
 40
1
 10
84.172300
 20
283.105600
 30
0.0
 10
83.880016
 20
283.105599
 30
0.0
 10
83.643059
 20
283.342516
 30
0.0
 10
83.643010
 20
283.634800
 30
0.0
  0
LINE
  5
353
100
AcDbEntity
  8
Layer_1
 62
1
100
AcDbLine
 10
83.643010
 20
283.634800
 30
0.0
 11
83.642520
 21
285.751400
 31
0.0
  0
SPLINE
  5
354
100
AcDbEntity
  8
Layer_1
 62
1
100
AcDbSpline
 70
8
 71
3
 72
8
 73
4
 74
0
 40
0
 40
0
 40
0
 40
0
 40
1
 40
1
 40
1
 40
1
 10
83.642520
 20
285.751400
 30
0.0
 10
83.642471
 20
286.043684
 30
0.0
 10
83.405514
 20
286.280601
 30
0.0
 10
83.113230
 20
286.280600
 30
0.0
  0
LINE
  5
355
100
AcDbEntity
  8
Layer_1
 62
1
100
AcDbLine
 10
83.113230
 20
286.280600
 30
0.0
 11
46.186010
 21
286.280600
 31
0.0
  0
SPLINE
  5
356
100
AcDbEntity
  8
Layer_1
 62
1
100
AcDbSpline
 70
8
 71
3
 72
8
 73
4
 74
0
 40
0
 40
0
 40
0
 40
0
 40
1
 40
1
 40
1
 40
1
 10
46.186010
 20
286.280600
 30
0.0
 10
45.893735
 20
286.280603
 30
0.0
 10
45.656793
 20
286.043675
 30
0.0
 10
45.656780
 20
285.751400
 30
0.0
  0
LINE
  5
357
100
AcDbEntity
  8
Layer_1
 62
1
100
AcDbLine
 10
45.656780
 20
285.751400
 30
0.0
 11
45.647780
 21
204.259800
 31
0.0
  0
SPLINE
  5
358
100
AcDbEntity
  8
Layer_1
 62
1
100
AcDbSpline
 70
8
 71
3
 72
8
 73
4
 74
0
 40
0
 40
0
 40
0
 40
0
 40
1
 40
1
 40
1
 40
1
 10
45.647780
 20
204.259800
 30
0.0
 10
45.647756
 20
204.119456
 30
0.0
 10
45.703491
 20
203.984851
 30
0.0
 10
45.802721
 20
203.885604
 30
0.0
  0
SPLINE
  5
359
100
AcDbEntity
  8
Layer_1
 62
1
100
AcDbSpline
 70
8
 71
3
 72
8
 73
4
 74
0
 40
0
 40
0
 40
0
 40
0
 40
1
 40
1
 40
1
 40
1
 10
45.802721
 20
203.885604
 30
0.0
 10
45.901951
 20
203.786358
 30
0.0
 10
46.036546
 20
203.730600
 30
0.0
 10
46.176890
 20
203.730600
 30
0.0
  0
LINE
  5
35a
100
AcDbEntity
  8
Layer_1
 62
1
100
AcDbLine
 10
46.176890
 20
203.730600
 30
0.0
 11
46.173710
 21
203.730600
 31
0.0
  0
LINE
  5
35b
100
AcDbEntity
  8
Layer_1
 62
1
100
AcDbLine
 10
192.638430
 20
209.430709
 30
0.0
 11
179.639440
 21
209.430709
 31
0.0
  0
SPLINE
  5
35c
100
AcDbEntity
  8
Layer_1
 62
1
100
AcDbSpline
 70
8
 71
3
 72
8
 73
4
 74
0
 40
0
 40
0
 40
0
 40
0
 40
1
 40
1
 40
1
 40
1
 10
179.639440
 20
209.430709
 30
0.0
 10
179.506370
 20
209.430609
 30
0.0
 10
179.379220
 20
209.483709
 30
0.0
 10
179.285420
 20
209.577009
 30
0.0
  0
SPLINE
  5
35d
100
AcDbEntity
  8
Layer_1
 62
1
100
AcDbSpline
 70
8
 71
3
 72
8
 73
4
 74
0
 40
0
 40
0
 40
0
 40
0
 40
1
 40
1
 40
1
 40
1
 10
179.285420
 20
209.577009
 30
0.0
 10
179.191720
 20
209.671009
 30
0.0
 10
179.138970
 20
209.797909
 30
0.0
 10
179.139410
 20
209.930709
 30
0.0
  0
LINE
  5
35e
100
AcDbEntity
  8
Layer_1
 62
1
100
AcDbLine
 10
179.139410
 20
209.930709
 30
0.0
 11
179.139840
 21
214.129809
 31
0.0
  0
LINE
  5
35f
100
AcDbEntity
  8
Layer_1
 62
1
100
AcDbLine
 10
179.139840
 20
214.129809
 30
0.0
 11
177.613200
 21
214.129809
 31
0.0
  0
LINE
  5
360
100
AcDbEntity
  8
Layer_1
 62
1
100
AcDbLine
 10
177.613200
 20
214.129809
 30
0.0
 11
177.613200
 21
210.901109
 31
0.0
  0
LINE
  5
361
100
AcDbEntity
  8
Layer_1
 62
1
100
AcDbLine
 10
177.613200
 20
210.901109
 30
0.0
 11
170.863680
 21
210.901109
 31
0.0
  0
LINE
  5
362
100
AcDbEntity
  8
Layer_1
 62
1
100
AcDbLine
 10
170.863680
 20
210.901109
 30
0.0
 11
170.863680
 21
214.129809
 31
0.0
  0
LINE
  5
363
100
AcDbEntity
  8
Layer_1
 62
1
100
AcDbLine
 10
170.863680
 20
214.129809
 30
0.0
 11
170.038180
 21
214.129809
 31
0.0
  0
LINE
  5
364
100
AcDbEntity
  8
Layer_1
 62
1
100
AcDbLine
 10
170.038180
 20
214.129809
 30
0.0
 11
170.038180
 21
216.930109
 31
0.0
  0
LINE
  5
365
100
AcDbEntity
  8
Layer_1
 62
1
100
AcDbLine
 10
170.038180
 20
216.930109
 30
0.0
 11
170.863680
 21
216.930109
 31
0.0
  0
LINE
  5
366
100
AcDbEntity
  8
Layer_1
 62
1
100
AcDbLine
 10
170.863680
 20
216.930109
 30
0.0
 11
170.863680
 21
223.200009
 31
0.0
  0
LINE
  5
367
100
AcDbEntity
  8
Layer_1
 62
1
100
AcDbLine
 10
170.863680
 20
223.200009
 30
0.0
 11
172.588760
 21
223.200009
 31
0.0
  0
LINE
  5
368
100
AcDbEntity
  8
Layer_1
 62
1
100
AcDbLine
 10
172.588760
 20
223.200009
 30
0.0
 11
172.588760
 21
224.400409
 31
0.0
  0
LINE
  5
369
100
AcDbEntity
  8
Layer_1
 62
1
100
AcDbLine
 10
172.588760
 20
224.400409
 30
0.0
 11
175.888110
 21
224.400409
 31
0.0
  0
LINE
  5
36a
100
AcDbEntity
  8
Layer_1
 62
1
100
AcDbLine
 10
175.888110
 20
224.400409
 30
0.0
 11
175.888110
 21
223.200009
 31
0.0
  0
LINE
  5
36b
100
AcDbEntity
  8
Layer_1
 62
1
100
AcDbLine
 10
175.888110
 20
223.200009
 30
0.0
 11
177.613200
 21
223.200009
 31
0.0
  0
LINE
  5
36c
100
AcDbEntity
  8
Layer_1
 62
1
100
AcDbLine
 10
177.613200
 20
223.200009
 30
0.0
 11
177.613200
 21
218.731209
 31
0.0
  0
LINE
  5
36d
100
AcDbEntity
  8
Layer_1
 62
1
100
AcDbLine
 10
177.613200
 20
218.731209
 30
0.0
 11
179.139840
 21
218.731209
 31
0.0
  0
LINE
  5
36e
100
AcDbEntity
  8
Layer_1
 62
1
100
AcDbLine
 10
179.139840
 20
218.731209
 30
0.0
 11
179.139310
 21
222.930109
 31
0.0
  0
SPLINE
  5
36f
100
AcDbEntity
  8
Layer_1
 62
1
100
AcDbSpline
 70
8
 71
3
 72
8
 73
4
 74
0
 40
0
 40
0
 40
0
 40
0
 40
1
 40
1
 40
1
 40
1
 10
179.139310
 20
222.930109
 30
0.0
 10
179.138780
 20
223.062609
 30
0.0
 10
179.191510
 20
223.189809
 30
0.0
 10
179.285320
 20
223.283609
 30
0.0
  0
SPLINE
  5
370
100
AcDbEntity
  8
Layer_1
 62
1
100
AcDbSpline
 70
8
 71
3
 72
8
 73
4
 74
0
 40
0
 40
0
 40
0
 40
0
 40
1
 40
1
 40
1
 40
1
 10
179.285320
 20
223.283609
 30
0.0
 10
179.379120
 20
223.377609
 30
0.0
 10
179.506270
 20
223.430009
 30
0.0
 10
179.639350
 20
223.430109
 30
0.0
  0
LINE
  5
371
100
AcDbEntity
  8
Layer_1
 62
1
100
AcDbLine
 10
179.639350
 20
223.430109
 30
0.0
 11
192.638340
 21
223.430109
 31
0.0
  0
SPLINE
  5
372
100
AcDbEntity
  8
Layer_1
 62
1
100
AcDbSpline
 70
8
 71
3
 72
8
 73
4
 74
0
 40
0
 40
0
 40
0
 40
0
 40
1
 40
1
 40
1
 40
1
 10
192.638340
 20
223.430109
 30
0.0
 10
192.914020
 20
223.430009
 30
0.0
 10
193.137870
 20
223.206209
 30
0.0
 10
193.138360
 20
222.930109
 30
0.0
  0
LINE
  5
373
100
AcDbEntity
  8
Layer_1
 62
1
100
AcDbLine
 10
193.138360
 20
222.930109
 30
0.0
 11
193.138890
 21
218.731209
 31
0.0
  0
LINE
  5
374
100
AcDbEntity
  8
Layer_1
 62
1
100
AcDbLine
 10
193.138890
 20
218.731209
 30
0.0
 11
194.662890
 21
218.731209
 31
0.0
  0
LINE
  5
375
100
AcDbEntity
  8
Layer_1
 62
1
100
AcDbLine
 10
194.662890
 20
218.731209
 30
0.0
 11
194.662890
 21
223.200009
 31
0.0
  0
LINE
  5
376
100
AcDbEntity
  8
Layer_1
 62
1
100
AcDbLine
 10
194.662890
 20
223.200009
 30
0.0
 11
196.387980
 21
223.200009
 31
0.0
  0
LINE
  5
377
100
AcDbEntity
  8
Layer_1
 62
1
100
AcDbLine
 10
196.387980
 20
223.200009
 30
0.0
 11
196.387980
 21
224.400409
 31
0.0
  0
LINE
  5
378
100
AcDbEntity
  8
Layer_1
 62
1
100
AcDbLine
 10
196.387980
 20
224.400409
 30
0.0
 11
199.687330
 21
224.400409
 31
0.0
  0
LINE
  5
379
100
AcDbEntity
  8
Layer_1
 62
1
100
AcDbLine
 10
199.687330
 20
224.400409
 30
0.0
 11
199.687330
 21
223.200009
 31
0.0
  0
LINE
  5
37a
100
AcDbEntity
  8
Layer_1
 62
1
100
AcDbLine
 10
199.687330
 20
223.200009
 30
0.0
 11
201.412410
 21
223.200009
 31
0.0
  0
LINE
  5
37b
100
AcDbEntity
  8
Layer_1
 62
1
100
AcDbLine
 10
201.412410
 20
223.200009
 30
0.0
 11
201.412410
 21
216.930109
 31
0.0
  0
LINE
  5
37c
100
AcDbEntity
  8
Layer_1
 62
1
100
AcDbLine
 10
201.412410
 20
216.930109
 30
0.0
 11
202.237910
 21
216.930109
 31
0.0
  0
LINE
  5
37d
100
AcDbEntity
  8
Layer_1
 62
1
100
AcDbLine
 10
202.237910
 20
216.930109
 30
0.0
 11
202.237910
 21
214.129809
 31
0.0
  0
LINE
  5
37e
100
AcDbEntity
  8
Layer_1
 62
1
100
AcDbLine
 10
202.237910
 20
214.129809
 30
0.0
 11
201.412410
 21
214.129809
 31
0.0
  0
LINE
  5
37f
100
AcDbEntity
  8
Layer_1
 62
1
100
AcDbLine
 10
201.412410
 20
214.129809
 30
0.0
 11
201.412410
 21
210.901109
 31
0.0
  0
LINE
  5
380
100
AcDbEntity
  8
Layer_1
 62
1
100
AcDbLine
 10
201.412410
 20
210.901109
 30
0.0
 11
194.662890
 21
210.901109
 31
0.0
  0
LINE
  5
381
100
AcDbEntity
  8
Layer_1
 62
1
100
AcDbLine
 10
194.662890
 20
210.901109
 30
0.0
 11
194.662890
 21
214.129809
 31
0.0
  0
LINE
  5
382
100
AcDbEntity
  8
Layer_1
 62
1
100
AcDbLine
 10
194.662890
 20
214.129809
 30
0.0
 11
193.138890
 21
214.129809
 31
0.0
  0
LINE
  5
383
100
AcDbEntity
  8
Layer_1
 62
1
100
AcDbLine
 10
193.138890
 20
214.129809
 30
0.0
 11
193.138360
 21
209.930709
 31
0.0
  0
SPLINE
  5
384
100
AcDbEntity
  8
Layer_1
 62
1
100
AcDbSpline
 70
8
 71
3
 72
8
 73
4
 74
0
 40
0
 40
0
 40
0
 40
0
 40
1
 40
1
 40
1
 40
1
 10
193.138360
 20
209.930709
 30
0.0
 10
193.137840
 20
209.654409
 30
0.0
 10
192.914020
 20
209.430609
 30
0.0
 10
192.638340
 20
209.430709
 30
0.0
  0
LINE
  5
385
100
AcDbEntity
  8
Layer_1
 62
1
100
AcDbLine
 10
192.638340
 20
209.430709
 30
0.0
 11
192.638430
 21
209.430709
 31
0.0
  0
LINE
  5
386
100
AcDbEntity
  8
Layer_1
 62
1
100
AcDbLine
 10
145.013410
 20
209.430709
 30
0.0
 11
132.014420
 21
209.430709
 31
0.0
  0
SPLINE
  5
387
100
AcDbEntity
  8
Layer_1
 62
1
100
AcDbSpline
 70
8
 71
3
 72
8
 73
4
 74
0
 40
0
 40
0
 40
0
 40
0
 40
1
 40
1
 40
1
 40
1
 10
132.014420
 20
209.430709
 30
0.0
 10
131.881350
 20
209.430609
 30
0.0
 10
131.754200
 20
209.483709
 30
0.0
 10
131.660400
 20
209.577009
 30
0.0
  0
SPLINE
  5
388
100
AcDbEntity
  8
Layer_1
 62
1
100
AcDbSpline
 70
8
 71
3
 72
8
 73
4
 74
0
 40
0
 40
0
 40
0
 40
0
 40
1
 40
1
 40
1
 40
1
 10
131.660400
 20
209.577009
 30
0.0
 10
131.566700
 20
209.671009
 30
0.0
 10
131.513950
 20
209.797909
 30
0.0
 10
131.514390
 20
209.930709
 30
0.0
  0
LINE
  5
389
100
AcDbEntity
  8
Layer_1
 62
1
100
AcDbLine
 10
131.514390
 20
209.930709
 30
0.0
 11
131.514820
 21
214.129809
 31
0.0
  0
LINE
  5
38a
100
AcDbEntity
  8
Layer_1
 62
1
100
AcDbLine
 10
131.514820
 20
214.129809
 30
0.0
 11
129.988180
 21
214.129809
 31
0.0
  0
LINE
  5
38b
100
AcDbEntity
  8
Layer_1
 62
1
100
AcDbLine
 10
129.988180
 20
214.129809
 30
0.0
 11
129.988180
 21
210.901109
 31
0.0
  0
LINE
  5
38c
100
AcDbEntity
  8
Layer_1
 62
1
100
AcDbLine
 10
129.988180
 20
210.901109
 30
0.0
 11
123.238660
 21
210.901109
 31
0.0
  0
LINE
  5
38d
100
AcDbEntity
  8
Layer_1
 62
1
100
AcDbLine
 10
123.238660
 20
210.901109
 30
0.0
 11
123.238660
 21
214.129809
 31
0.0
  0
LINE
  5
38e
100
AcDbEntity
  8
Layer_1
 62
1
100
AcDbLine
 10
123.238660
 20
214.129809
 30
0.0
 11
122.413160
 21
214.129809
 31
0.0
  0
LINE
  5
38f
100
AcDbEntity
  8
Layer_1
 62
1
100
AcDbLine
 10
122.413160
 20
214.129809
 30
0.0
 11
122.413160
 21
216.930109
 31
0.0
  0
LINE
  5
390
100
AcDbEntity
  8
Layer_1
 62
1
100
AcDbLine
 10
122.413160
 20
216.930109
 30
0.0
 11
123.238660
 21
216.930109
 31
0.0
  0
LINE
  5
391
100
AcDbEntity
  8
Layer_1
 62
1
100
AcDbLine
 10
123.238660
 20
216.930109
 30
0.0
 11
123.238660
 21
223.200009
 31
0.0
  0
LINE
  5
392
100
AcDbEntity
  8
Layer_1
 62
1
100
AcDbLine
 10
123.238660
 20
223.200009
 30
0.0
 11
124.963740
 21
223.200009
 31
0.0
  0
LINE
  5
393
100
AcDbEntity
  8
Layer_1
 62
1
100
AcDbLine
 10
124.963740
 20
223.200009
 30
0.0
 11
124.963740
 21
224.400409
 31
0.0
  0
LINE
  5
394
100
AcDbEntity
  8
Layer_1
 62
1
100
AcDbLine
 10
124.963740
 20
224.400409
 30
0.0
 11
128.263090
 21
224.400409
 31
0.0
  0
LINE
  5
395
100
AcDbEntity
  8
Layer_1
 62
1
100
AcDbLine
 10
128.263090
 20
224.400409
 30
0.0
 11
128.263090
 21
223.200009
 31
0.0
  0
LINE
  5
396
100
AcDbEntity
  8
Layer_1
 62
1
100
AcDbLine
 10
128.263090
 20
223.200009
 30
0.0
 11
129.988180
 21
223.200009
 31
0.0
  0
LINE
  5
397
100
AcDbEntity
  8
Layer_1
 62
1
100
AcDbLine
 10
129.988180
 20
223.200009
 30
0.0
 11
129.988180
 21
218.731209
 31
0.0
  0
LINE
  5
398
100
AcDbEntity
  8
Layer_1
 62
1
100
AcDbLine
 10
129.988180
 20
218.731209
 30
0.0
 11
131.514820
 21
218.731209
 31
0.0
  0
LINE
  5
399
100
AcDbEntity
  8
Layer_1
 62
1
100
AcDbLine
 10
131.514820
 20
218.731209
 30
0.0
 11
131.514290
 21
222.930109
 31
0.0
  0
SPLINE
  5
39a
100
AcDbEntity
  8
Layer_1
 62
1
100
AcDbSpline
 70
8
 71
3
 72
8
 73
4
 74
0
 40
0
 40
0
 40
0
 40
0
 40
1
 40
1
 40
1
 40
1
 10
131.514290
 20
222.930109
 30
0.0
 10
131.513760
 20
223.062609
 30
0.0
 10
131.566490
 20
223.189809
 30
0.0
 10
131.660300
 20
223.283609
 30
0.0
  0
SPLINE
  5
39b
100
AcDbEntity
  8
Layer_1
 62
1
100
AcDbSpline
 70
8
 71
3
 72
8
 73
4
 74
0
 40
0
 40
0
 40
0
 40
0
 40
1
 40
1
 40
1
 40
1
 10
131.660300
 20
223.283609
 30
0.0
 10
131.754100
 20
223.377609
 30
0.0
 10
131.881250
 20
223.430009
 30
0.0
 10
132.014330
 20
223.430109
 30
0.0
  0
LINE
  5
39c
100
AcDbEntity
  8
Layer_1
 62
1
100
AcDbLine
 10
132.014330
 20
223.430109
 30
0.0
 11
145.013320
 21
223.430109
 31
0.0
  0
SPLINE
  5
39d
100
AcDbEntity
  8
Layer_1
 62
1
100
AcDbSpline
 70
8
 71
3
 72
8
 73
4
 74
0
 40
0
 40
0
 40
0
 40
0
 40
1
 40
1
 40
1
 40
1
 10
145.013320
 20
223.430109
 30
0.0
 10
145.289000
 20
223.430009
 30
0.0
 10
145.512850
 20
223.206209
 30
0.0
 10
145.513340
 20
222.930109
 30
0.0
  0
LINE
  5
39e
100
AcDbEntity
  8
Layer_1
 62
1
100
AcDbLine
 10
145.513340
 20
222.930109
 30
0.0
 11
145.513870
 21
218.731209
 31
0.0
  0
LINE
  5
39f
100
AcDbEntity
  8
Layer_1
 62
1
100
AcDbLine
 10
145.513870
 20
218.731209
 30
0.0
 11
147.037870
 21
218.731209
 31
0.0
  0
LINE
  5
3a0
100
AcDbEntity
  8
Layer_1
 62
1
100
AcDbLine
 10
147.037870
 20
218.731209
 30
0.0
 11
147.037870
 21
223.200009
 31
0.0
  0
LINE
  5
3a1
100
AcDbEntity
  8
Layer_1
 62
1
100
AcDbLine
 10
147.037870
 20
223.200009
 30
0.0
 11
148.762960
 21
223.200009
 31
0.0
  0
LINE
  5
3a2
100
AcDbEntity
  8
Layer_1
 62
1
100
AcDbLine
 10
148.762960
 20
223.200009
 30
0.0
 11
148.762960
 21
224.400409
 31
0.0
  0
LINE
  5
3a3
100
AcDbEntity
  8
Layer_1
 62
1
100
AcDbLine
 10
148.762960
 20
224.400409
 30
0.0
 11
152.062310
 21
224.400409
 31
0.0
  0
LINE
  5
3a4
100
AcDbEntity
  8
Layer_1
 62
1
100
AcDbLine
 10
152.062310
 20
224.400409
 30
0.0
 11
152.062310
 21
223.200009
 31
0.0
  0
LINE
  5
3a5
100
AcDbEntity
  8
Layer_1
 62
1
100
AcDbLine
 10
152.062310
 20
223.200009
 30
0.0
 11
153.787390
 21
223.200009
 31
0.0
  0
LINE
  5
3a6
100
AcDbEntity
  8
Layer_1
 62
1
100
AcDbLine
 10
153.787390
 20
223.200009
 30
0.0
 11
153.787390
 21
216.930109
 31
0.0
  0
LINE
  5
3a7
100
AcDbEntity
  8
Layer_1
 62
1
100
AcDbLine
 10
153.787390
 20
216.930109
 30
0.0
 11
154.612890
 21
216.930109
 31
0.0
  0
LINE
  5
3a8
100
AcDbEntity
  8
Layer_1
 62
1
100
AcDbLine
 10
154.612890
 20
216.930109
 30
0.0
 11
154.612890
 21
214.129809
 31
0.0
  0
LINE
  5
3a9
100
AcDbEntity
  8
Layer_1
 62
1
100
AcDbLine
 10
154.612890
 20
214.129809
 30
0.0
 11
153.787390
 21
214.129809
 31
0.0
  0
LINE
  5
3aa
100
AcDbEntity
  8
Layer_1
 62
1
100
AcDbLine
 10
153.787390
 20
214.129809
 30
0.0
 11
153.787390
 21
210.901109
 31
0.0
  0
LINE
  5
3ab
100
AcDbEntity
  8
Layer_1
 62
1
100
AcDbLine
 10
153.787390
 20
210.901109
 30
0.0
 11
147.037870
 21
210.901109
 31
0.0
  0
LINE
  5
3ac
100
AcDbEntity
  8
Layer_1
 62
1
100
AcDbLine
 10
147.037870
 20
210.901109
 30
0.0
 11
147.037870
 21
214.129809
 31
0.0
  0
LINE
  5
3ad
100
AcDbEntity
  8
Layer_1
 62
1
100
AcDbLine
 10
147.037870
 20
214.129809
 30
0.0
 11
145.513870
 21
214.129809
 31
0.0
  0
LINE
  5
3ae
100
AcDbEntity
  8
Layer_1
 62
1
100
AcDbLine
 10
145.513870
 20
214.129809
 30
0.0
 11
145.513340
 21
209.930709
 31
0.0
  0
SPLINE
  5
3af
100
AcDbEntity
  8
Layer_1
 62
1
100
AcDbSpline
 70
8
 71
3
 72
8
 73
4
 74
0
 40
0
 40
0
 40
0
 40
0
 40
1
 40
1
 40
1
 40
1
 10
145.513340
 20
209.930709
 30
0.0
 10
145.512820
 20
209.654409
 30
0.0
 10
145.289000
 20
209.430609
 30
0.0
 10
145.013320
 20
209.430709
 30
0.0
  0
LINE
  5
3b0
100
AcDbEntity
  8
Layer_1
 62
1
100
AcDbLine
 10
145.013320
 20
209.430709
 30
0.0
 11
145.013410
 21
209.430709
 31
0.0
  0
ENDSEC
  0
SECTION
  2
OBJECTS
  0
DICTIONARY
  5
C
330
0
100
AcDbDictionary
  3
ACAD_GROUP
350
D
  3
ACAD_MLINESTYLE
350
17
  0
DICTIONARY
  5
D
330
C
100
AcDbDictionary
  0
DICTIONARY
  5
1A
330
C
100
AcDbDictionary
  0
DICTIONARY
  5
17
330
C
100
AcDbDictionary
  3
STANDARD
350
18
  0
DICTIONARY
  5
19
330
C
100
AcDbDictionary
  0
ENDSEC
  0
EOF
