  0
SECTION
  2
HEADER
  9
$ACADVER
  1
AC1014
  9
$HANDSEED
  5
FFFF
  9
$INSUNITS
 70
     0
  9
$MEASUREMENT
 70
     1
  0
ENDSEC
  0
SECTION
  2
TABLES
  0
TABLE
  2
VPORT
  5
8
330
0
100
AcDbSymbolTable
 70
     4
  0
VPORT
  5
2E
330
8
100
AcDbSymbolTableRecord
100
AcDbViewportTableRecord
  2
*ACTIVE
 70
     0
 10
0.0
 20
0.0
 11
1.0
 21
1.0
 12
210.0
 22
148.5
 13
0.0
 23
0.0
 14
10.0
 24
10.0
 15
10.0
 25
10.0
 16
0.0
 26
0.0
 36
1.0
 17
0.0
 27
0.0
 37
0.0
 40
341.0
 41
1.24
 42
50.0
 43
0.0
 44
0.0
 50
0.0
 51
0.0
 71
     0
 72
   100
 73
     1
 74
     3
 75
     0
 76
     0
 77
     0
 78
     0
  0
ENDTAB
  0
TABLE
  2
LTYPE
  5
5
330
0
100
AcDbSymbolTable
 70
     1
  0
LTYPE
  5
14
330
5
100
AcDbSymbolTableRecord
100
AcDbLinetypeTableRecord
  2
BYBLOCK
 70
     0
  3

 72
    65
 73
     0
 40
0.0
  0
LTYPE
  5
15
330
5
100
AcDbSymbolTableRecord
100
AcDbLinetypeTableRecord
  2
BYLAYER
 70
     0
  3

 72
    65
 73
     0
 40
0.0
  0
LTYPE
  5
16
330
5
100
AcDbSymbolTableRecord
100
AcDbLinetypeTableRecord
  2
CONTINUOUS
 70
     0
  3
Solid line
 72
    65
 73
     0
 40
0.0
  0
ENDTAB
  0
TABLE
  2
LAYER
  5
2
100
AcDbSymbolTable
 70
2
  0
LAYER
  5
50
100
AcDbSymbolTableRecord
100
AcDbLayerTableRecord
  2
0
 70
0
  6
CONTINUOUS
  0
LAYER
  5
51
100
AcDbSymbolTableRecord
100
AcDbLayerTableRecord
  2
Layer_1
 70
0
  6
CONTINUOUS
  0
ENDTAB
  0
TABLE
  2
STYLE
  5
3
330
0
100
AcDbSymbolTable
 70
     1
  0
STYLE
  5
11
330
3
100
AcDbSymbolTableRecord
100
AcDbTextStyleTableRecord
  2
STANDARD
 70
     0
 40
0.0
 41
1.0
 50
0.0
 71
     0
 42
2.5
  3
txt
  4

  0
ENDTAB
  0
TABLE
  2
VIEW
  5
6
330
0
100
AcDbSymbolTable
 70
     0
  0
ENDTAB
  0
TABLE
  2
UCS
  5
7
330
0
100
AcDbSymbolTable
 70
     0
  0
ENDTAB
  0
TABLE
  2
APPID
  5
9
330
0
100
AcDbSymbolTable
 70
     2
  0
APPID
  5
12
330
9
100
AcDbSymbolTableRecord
100
AcDbRegAppTableRecord
  2
ACAD
 70
     0
  0
ENDTAB
  0
TABLE
  2
DIMSTYLE
  5
A
330
0
100
AcDbSymbolTable
 70
     1
  0
DIMSTYLE
105
27
330
A
100
AcDbSymbolTableRecord
100
AcDbDimStyleTableRecord
  2
ISO-25
 70
     0
  3

  4

  5

  6

  7

 40
1.0
 41
2.5
 42
0.625
 43
3.75
 44
1.25
 45
0.0
 46
0.0
 47
0.0
 48
0.0
140
2.5
141
2.5
142
0.0
143
0.03937007874016
144
1.0
145
0.0
146
1.0
147
0.625
 71
     0
 72
     0
 73
     0
 74
     0
 75
     0
 76
     0
 77
     1
 78
     8
170
     0
171
     3
172
     1
173
     0
174
     0
175
     0
176
     0
177
     0
178
     0
270
     2
271
     2
272
     2
273
     2
274
     3
340
11
275
     0
280
     0
281
     0
282
     0
283
     0
284
     8
285
     0
286
     0
287
     3
288
     0
  0
ENDTAB
  0
TABLE
  2
BLOCK_RECORD
  5
1
330
0
100
AcDbSymbolTable
 70
     1
  0
BLOCK_RECORD
  5
1F
330
1
100
AcDbSymbolTableRecord
100
AcDbBlockTableRecord
  2
*MODEL_SPACE
  0
BLOCK_RECORD
  5
1B
330
1
100
AcDbSymbolTableRecord
100
AcDbBlockTableRecord
  2
*PAPER_SPACE
  0
ENDTAB
  0
ENDSEC
  0
SECTION
  2
BLOCKS
  0
BLOCK
  5
20
330
1F
100
AcDbEntity
  8
0
100
AcDbBlockBegin
  2
*MODEL_SPACE
 70
     0
 10
0.0
 20
0.0
 30
0.0
  3
*MODEL_SPACE
  1

  0
ENDBLK
  5
21
330
1F
100
AcDbEntity
  8
0
100
AcDbBlockEnd
  0
BLOCK
  5
1C
330
1B
100
AcDbEntity
 67
     1
  8
0
100
AcDbBlockBegin
  2
*PAPER_SPACE
  1

  0
ENDBLK
  5
1D
330
1B
100
AcDbEntity
 67
     1
  8
0
100
AcDbBlockEnd
  0
ENDSEC
  0
SECTION
  2
ENTITIES
  0
LINE
  5
100
100
AcDbEntity
  8
Layer_1
 62
3
100
AcDbLine
 10
3.837220
 20
195.261200
 30
0.0
 11
88.404140
 21
195.261200
 31
0.0
  0
LINE
  5
101
100
AcDbEntity
  8
Layer_1
 62
3
100
AcDbLine
 10
88.404140
 20
195.261200
 30
0.0
 11
134.161960
 21
195.261200
 31
0.0
  0
LINE
  5
102
100
AcDbEntity
  8
Layer_1
 62
3
100
AcDbLine
 10
134.161960
 20
195.261200
 30
0.0
 11
191.091640
 21
195.261200
 31
0.0
  0
LINE
  5
103
100
AcDbEntity
  8
Layer_1
 62
3
100
AcDbLine
 10
191.091640
 20
195.261200
 30
0.0
 11
236.992270
 21
195.261200
 31
0.0
  0
LINE
  5
104
100
AcDbEntity
  8
Layer_1
 62
3
100
AcDbLine
 10
236.992270
 20
195.261200
 30
0.0
 11
293.300850
 21
195.261200
 31
0.0
  0
SPLINE
  5
105
100
AcDbEntity
  8
Layer_1
 62
3
100
AcDbSpline
 70
8
 71
3
 72
8
 73
4
 74
0
 40
0
 40
0
 40
0
 40
0
 40
1
 40
1
 40
1
 40
1
 10
293.300850
 20
195.261200
 30
0.0
 10
293.721881
 20
195.261200
 30
0.0
 10
294.125668
 20
195.428454
 30
0.0
 10
294.423382
 20
195.726168
 30
0.0
  0
SPLINE
  5
106
100
AcDbEntity
  8
Layer_1
 62
3
100
AcDbSpline
 70
8
 71
3
 72
8
 73
4
 74
0
 40
0
 40
0
 40
0
 40
0
 40
1
 40
1
 40
1
 40
1
 10
294.423382
 20
195.726168
 30
0.0
 10
294.721096
 20
196.023882
 30
0.0
 10
294.888350
 20
196.427669
 30
0.0
 10
294.888350
 20
196.848700
 30
0.0
  0
LINE
  5
107
100
AcDbEntity
  8
Layer_1
 62
3
100
AcDbLine
 10
294.888350
 20
196.848700
 30
0.0
 11
294.888350
 21
293.162000
 31
0.0
  0
SPLINE
  5
108
100
AcDbEntity
  8
Layer_1
 62
3
100
AcDbSpline
 70
8
 71
3
 72
8
 73
4
 74
0
 40
0
 40
0
 40
0
 40
0
 40
1
 40
1
 40
1
 40
1
 10
294.888350
 20
293.162000
 30
0.0
 10
294.888350
 20
293.583031
 30
0.0
 10
294.721096
 20
293.986818
 30
0.0
 10
294.423382
 20
294.284532
 30
0.0
  0
SPLINE
  5
109
100
AcDbEntity
  8
Layer_1
 62
3
100
AcDbSpline
 70
8
 71
3
 72
8
 73
4
 74
0
 40
0
 40
0
 40
0
 40
0
 40
1
 40
1
 40
1
 40
1
 10
294.423382
 20
294.284532
 30
0.0
 10
294.125668
 20
294.582246
 30
0.0
 10
293.721881
 20
294.749500
 30
0.0
 10
293.300850
 20
294.749500
 30
0.0
  0
LINE
  5
10a
100
AcDbEntity
  8
Layer_1
 62
3
100
AcDbLine
 10
293.300850
 20
294.749500
 30
0.0
 11
240.132110
 21
294.749500
 31
0.0
  0
LINE
  5
10b
100
AcDbEntity
  8
Layer_1
 62
3
100
AcDbLine
 10
240.132110
 20
294.749500
 30
0.0
 11
194.272640
 21
294.749500
 31
0.0
  0
LINE
  5
10c
100
AcDbEntity
  8
Layer_1
 62
3
100
AcDbLine
 10
194.272640
 20
294.749500
 30
0.0
 11
137.341000
 21
294.749500
 31
0.0
  0
LINE
  5
10d
100
AcDbEntity
  8
Layer_1
 62
3
100
AcDbLine
 10
137.341000
 20
294.749500
 30
0.0
 11
91.579370
 21
294.749500
 31
0.0
  0
LINE
  5
10e
100
AcDbEntity
  8
Layer_1
 62
3
100
AcDbLine
 10
91.579370
 20
294.749500
 30
0.0
 11
3.847220
 21
294.749500
 31
0.0
  0
SPLINE
  5
10f
100
AcDbEntity
  8
Layer_1
 62
3
100
AcDbSpline
 70
8
 71
3
 72
8
 73
4
 74
0
 40
0
 40
0
 40
0
 40
0
 40
1
 40
1
 40
1
 40
1
 10
3.847220
 20
294.749500
 30
0.0
 10
2.970442
 20
294.749500
 30
0.0
 10
2.259648
 20
294.038778
 30
0.0
 10
2.259560
 20
293.162000
 30
0.0
  0
LINE
  5
110
100
AcDbEntity
  8
Layer_1
 62
3
100
AcDbLine
 10
2.259560
 20
293.162000
 30
0.0
 11
2.249560
 21
196.848700
 31
0.0
  0
SPLINE
  5
111
100
AcDbEntity
  8
Layer_1
 62
3
100
AcDbSpline
 70
8
 71
3
 72
8
 73
4
 74
0
 40
0
 40
0
 40
0
 40
0
 40
1
 40
1
 40
1
 40
1
 10
2.249560
 20
196.848700
 30
0.0
 10
2.249518
 20
196.427684
 30
0.0
 10
2.416736
 20
196.023896
 30
0.0
 10
2.714425
 20
195.726178
 30
0.0
  0
SPLINE
  5
112
100
AcDbEntity
  8
Layer_1
 62
3
100
AcDbSpline
 70
8
 71
3
 72
8
 73
4
 74
0
 40
0
 40
0
 40
0
 40
0
 40
1
 40
1
 40
1
 40
1
 10
2.714425
 20
195.726178
 30
0.0
 10
3.012113
 20
195.428459
 30
0.0
 10
3.415884
 20
195.261200
 30
0.0
 10
3.836900
 20
195.261200
 30
0.0
  0
LINE
  5
113
100
AcDbEntity
  8
Layer_1
 62
3
100
AcDbLine
 10
3.836900
 20
195.261200
 30
0.0
 11
3.837220
 21
195.261200
 31
0.0
  0
LINE
  5
114
100
AcDbEntity
  8
Layer_1
 62
3
100
AcDbLine
 10
13.578623
 20
230.807682
 30
0.0
 11
31.737452
 21
230.807682
 31
0.0
  0
SPLINE
  5
115
100
AcDbEntity
  8
Layer_1
 62
3
100
AcDbSpline
 70
8
 71
3
 72
8
 73
4
 74
0
 40
0
 40
0
 40
0
 40
0
 40
1
 40
1
 40
1
 40
1
 10
31.737452
 20
230.807682
 30
0.0
 10
33.601533
 20
230.807682
 30
0.0
 10
35.112552
 20
232.304612
 30
0.0
 10
35.112494
 20
234.151134
 30
0.0
  0
SPLINE
  5
116
100
AcDbEntity
  8
Layer_1
 62
3
100
AcDbSpline
 70
8
 71
3
 72
8
 73
4
 74
0
 40
0
 40
0
 40
0
 40
0
 40
1
 40
1
 40
1
 40
1
 10
35.112494
 20
234.151134
 30
0.0
 10
35.112035
 20
249.530939
 30
0.0
 10
35.115684
 20
264.910680
 30
0.0
 10
35.113132
 20
280.290485
 30
0.0
  0
SPLINE
  5
117
100
AcDbEntity
  8
Layer_1
 62
3
100
AcDbSpline
 70
8
 71
3
 72
8
 73
4
 74
0
 40
0
 40
0
 40
0
 40
0
 40
1
 40
1
 40
1
 40
1
 10
35.113132
 20
280.290485
 30
0.0
 10
35.112839
 20
282.137007
 30
0.0
 10
33.601373
 20
283.633937
 30
0.0
 10
31.737293
 20
283.633937
 30
0.0
  0
LINE
  5
118
100
AcDbEntity
  8
Layer_1
 62
3
100
AcDbLine
 10
31.737293
 20
283.633937
 30
0.0
 11
13.584141
 21
283.633937
 31
0.0
  0
SPLINE
  5
119
100
AcDbEntity
  8
Layer_1
 62
3
100
AcDbSpline
 70
8
 71
3
 72
8
 73
4
 74
0
 40
0
 40
0
 40
0
 40
0
 40
1
 40
1
 40
1
 40
1
 10
13.584141
 20
283.633937
 30
0.0
 10
11.719996
 20
283.633937
 30
0.0
 10
10.208756
 20
282.137077
 30
0.0
 10
10.208569
 20
280.290485
 30
0.0
  0
LINE
  5
11a
100
AcDbEntity
  8
Layer_1
 62
3
100
AcDbLine
 10
10.208569
 20
280.290485
 30
0.0
 11
10.203467
 21
234.151134
 31
0.0
  0
SPLINE
  5
11b
100
AcDbEntity
  8
Layer_1
 62
3
100
AcDbSpline
 70
8
 71
3
 72
8
 73
4
 74
0
 40
0
 40
0
 40
0
 40
0
 40
1
 40
1
 40
1
 40
1
 10
10.203467
 20
234.151134
 30
0.0
 10
10.203366
 20
233.264429
 30
0.0
 10
10.558885
 20
232.414008
 30
0.0
 10
11.191805
 20
231.786978
 30
0.0
  0
SPLINE
  5
11c
100
AcDbEntity
  8
Layer_1
 62
3
100
AcDbSpline
 70
8
 71
3
 72
8
 73
4
 74
0
 40
0
 40
0
 40
0
 40
0
 40
1
 40
1
 40
1
 40
1
 10
11.191805
 20
231.786978
 30
0.0
 10
11.824725
 20
231.159948
 30
0.0
 10
12.683190
 20
230.807681
 30
0.0
 10
13.578324
 20
230.807682
 30
0.0
  0
LINE
  5
11d
100
AcDbEntity
  8
Layer_1
 62
3
100
AcDbLine
 10
13.578324
 20
230.807682
 30
0.0
 11
13.578623
 21
230.807682
 31
0.0
  0
LINE
  5
11e
100
AcDbEntity
  8
Layer_1
 62
3
100
AcDbLine
 10
43.527860
 20
206.376400
 30
0.0
 11
81.522320
 21
206.376400
 31
0.0
  0
LINE
  5
11f
100
AcDbEntity
  8
Layer_1
 62
3
100
AcDbLine
 10
81.522320
 20
206.376400
 30
0.0
 11
82.052490
 21
206.376400
 31
0.0
  0
LINE
  5
120
100
AcDbEntity
  8
Layer_1
 62
3
100
AcDbLine
 10
82.052490
 20
206.376400
 30
0.0
 11
184.210640
 21
206.376400
 31
0.0
  0
LINE
  5
121
100
AcDbEntity
  8
Layer_1
 62
3
100
AcDbLine
 10
184.210640
 20
206.376400
 30
0.0
 11
184.740810
 21
206.376400
 31
0.0
  0
LINE
  5
122
100
AcDbEntity
  8
Layer_1
 62
3
100
AcDbLine
 10
184.740810
 20
206.376400
 30
0.0
 11
245.951450
 21
206.376400
 31
0.0
  0
LINE
  5
123
100
AcDbEntity
  8
Layer_1
 62
3
100
AcDbLine
 10
245.951450
 20
206.376400
 30
0.0
 11
246.490650
 21
206.376400
 31
0.0
  0
LINE
  5
124
100
AcDbEntity
  8
Layer_1
 62
3
100
AcDbLine
 10
246.490650
 20
206.376400
 30
0.0
 11
286.420650
 21
206.376400
 31
0.0
  0
SPLINE
  5
125
100
AcDbEntity
  8
Layer_1
 62
3
100
AcDbSpline
 70
8
 71
3
 72
8
 73
4
 74
0
 40
0
 40
0
 40
0
 40
0
 40
1
 40
1
 40
1
 40
1
 10
286.420650
 20
206.376400
 30
0.0
 10
286.561005
 20
206.376391
 30
0.0
 10
286.695615
 20
206.432143
 30
0.0
 10
286.794861
 20
206.531389
 30
0.0
  0
SPLINE
  5
126
100
AcDbEntity
  8
Layer_1
 62
3
100
AcDbSpline
 70
8
 71
3
 72
8
 73
4
 74
0
 40
0
 40
0
 40
0
 40
0
 40
1
 40
1
 40
1
 40
1
 10
286.794861
 20
206.531389
 30
0.0
 10
286.894107
 20
206.630635
 30
0.0
 10
286.949859
 20
206.765245
 30
0.0
 10
286.949850
 20
206.905600
 30
0.0
  0
LINE
  5
127
100
AcDbEntity
  8
Layer_1
 62
3
100
AcDbLine
 10
286.949850
 20
206.905600
 30
0.0
 11
286.949850
 21
283.105600
 31
0.0
  0
SPLINE
  5
128
100
AcDbEntity
  8
Layer_1
 62
3
100
AcDbSpline
 70
8
 71
3
 72
8
 73
4
 74
0
 40
0
 40
0
 40
0
 40
0
 40
1
 40
1
 40
1
 40
1
 10
286.949850
 20
283.105600
 30
0.0
 10
286.949859
 20
283.245955
 30
0.0
 10
286.894107
 20
283.380565
 30
0.0
 10
286.794861
 20
283.479811
 30
0.0
  0
SPLINE
  5
129
100
AcDbEntity
  8
Layer_1
 62
3
100
AcDbSpline
 70
8
 71
3
 72
8
 73
4
 74
0
 40
0
 40
0
 40
0
 40
0
 40
1
 40
1
 40
1
 40
1
 10
286.794861
 20
283.479811
 30
0.0
 10
286.695615
 20
283.579057
 30
0.0
 10
286.561005
 20
283.634809
 30
0.0
 10
286.420650
 20
283.634800
 30
0.0
  0
LINE
  5
12a
100
AcDbEntity
  8
Layer_1
 62
3
100
AcDbLine
 10
286.420650
 20
283.634800
 30
0.0
 11
247.013650
 21
283.634800
 31
0.0
  0
LINE
  5
12b
100
AcDbEntity
  8
Layer_1
 62
3
100
AcDbLine
 10
247.013650
 20
283.634800
 30
0.0
 11
246.484450
 21
283.634800
 31
0.0
  0
LINE
  5
12c
100
AcDbEntity
  8
Layer_1
 62
3
100
AcDbLine
 10
246.484450
 20
283.634800
 30
0.0
 11
185.278090
 21
283.634800
 31
0.0
  0
LINE
  5
12d
100
AcDbEntity
  8
Layer_1
 62
3
100
AcDbLine
 10
185.278090
 20
283.634800
 30
0.0
 11
184.744920
 21
283.634800
 31
0.0
  0
LINE
  5
12e
100
AcDbEntity
  8
Layer_1
 62
3
100
AcDbLine
 10
184.744920
 20
283.634800
 30
0.0
 11
82.581390
 21
283.634800
 31
0.0
  0
LINE
  5
12f
100
AcDbEntity
  8
Layer_1
 62
3
100
AcDbLine
 10
82.581390
 20
283.634800
 30
0.0
 11
82.051490
 21
283.634800
 31
0.0
  0
LINE
  5
130
100
AcDbEntity
  8
Layer_1
 62
3
100
AcDbLine
 10
82.051490
 20
283.634800
 30
0.0
 11
43.536760
 21
283.634800
 31
0.0
  0
SPLINE
  5
131
100
AcDbEntity
  8
Layer_1
 62
3
100
AcDbSpline
 70
8
 71
3
 72
8
 73
4
 74
0
 40
0
 40
0
 40
0
 40
0
 40
1
 40
1
 40
1
 40
1
 10
43.536760
 20
283.634800
 30
0.0
 10
43.244486
 20
283.634801
 30
0.0
 10
43.007545
 20
283.397874
 30
0.0
 10
43.007530
 20
283.105600
 30
0.0
  0
LINE
  5
132
100
AcDbEntity
  8
Layer_1
 62
3
100
AcDbLine
 10
43.007530
 20
283.105600
 30
0.0
 11
42.998530
 21
206.905600
 31
0.0
  0
SPLINE
  5
133
100
AcDbEntity
  8
Layer_1
 62
3
100
AcDbSpline
 70
8
 71
3
 72
8
 73
4
 74
0
 40
0
 40
0
 40
0
 40
0
 40
1
 40
1
 40
1
 40
1
 10
42.998530
 20
206.905600
 30
0.0
 10
42.998505
 20
206.765255
 30
0.0
 10
43.054239
 20
206.630650
 30
0.0
 10
43.153470
 20
206.531403
 30
0.0
  0
SPLINE
  5
134
100
AcDbEntity
  8
Layer_1
 62
3
100
AcDbSpline
 70
8
 71
3
 72
8
 73
4
 74
0
 40
0
 40
0
 40
0
 40
0
 40
1
 40
1
 40
1
 40
1
 10
43.153470
 20
206.531403
 30
0.0
 10
43.252700
 20
206.432156
 30
0.0
 10
43.387295
 20
206.376399
 30
0.0
 10
43.527640
 20
206.376400
 30
0.0
  0
LINE
  5
135
100
AcDbEntity
  8
Layer_1
 62
3
100
AcDbLine
 10
43.527640
 20
206.376400
 30
0.0
 11
43.527860
 21
206.376400
 31
0.0
  0
SPLINE
  5
136
100
AcDbEntity
  8
Layer_1
 62
3
100
AcDbSpline
 70
8
 71
3
 72
8
 73
4
 74
0
 40
0
 40
0
 40
0
 40
0
 40
1
 40
1
 40
1
 40
1
 10
205.624380
 20
201.766600
 30
0.0
 10
206.008619
 20
201.766600
 30
0.0
 10
206.355024
 20
201.535140
 30
0.0
 10
206.502066
 20
201.180149
 30
0.0
  0
SPLINE
  5
137
100
AcDbEntity
  8
Layer_1
 62
3
100
AcDbSpline
 70
8
 71
3
 72
8
 73
4
 74
0
 40
0
 40
0
 40
0
 40
0
 40
1
 40
1
 40
1
 40
1
 10
206.502066
 20
201.180149
 30
0.0
 10
206.649107
 20
200.825159
 30
0.0
 10
206.567830
 20
200.416547
 30
0.0
 10
206.296131
 20
200.144849
 30
0.0
  0
SPLINE
  5
138
100
AcDbEntity
  8
Layer_1
 62
3
100
AcDbSpline
 70
8
 71
3
 72
8
 73
4
 74
0
 40
0
 40
0
 40
0
 40
0
 40
1
 40
1
 40
1
 40
1
 10
206.296131
 20
200.144849
 30
0.0
 10
206.024433
 20
199.873150
 30
0.0
 10
205.615821
 20
199.791873
 30
0.0
 10
205.260831
 20
199.938914
 30
0.0
  0
SPLINE
  5
139
100
AcDbEntity
  8
Layer_1
 62
3
100
AcDbSpline
 70
8
 71
3
 72
8
 73
4
 74
0
 40
0
 40
0
 40
0
 40
0
 40
1
 40
1
 40
1
 40
1
 10
205.260831
 20
199.938914
 30
0.0
 10
204.905840
 20
200.085956
 30
0.0
 10
204.674380
 20
200.432361
 30
0.0
 10
204.674380
 20
200.816600
 30
0.0
  0
SPLINE
  5
13a
100
AcDbEntity
  8
Layer_1
 62
3
100
AcDbSpline
 70
8
 71
3
 72
8
 73
4
 74
0
 40
0
 40
0
 40
0
 40
0
 40
1
 40
1
 40
1
 40
1
 10
204.674380
 20
200.816600
 30
0.0
 10
204.674380
 20
201.068556
 30
0.0
 10
204.774469
 20
201.310192
 30
0.0
 10
204.952629
 20
201.488351
 30
0.0
  0
SPLINE
  5
13b
100
AcDbEntity
  8
Layer_1
 62
3
100
AcDbSpline
 70
8
 71
3
 72
8
 73
4
 74
0
 40
0
 40
0
 40
0
 40
0
 40
1
 40
1
 40
1
 40
1
 10
204.952629
 20
201.488351
 30
0.0
 10
205.130788
 20
201.666511
 30
0.0
 10
205.372424
 20
201.766600
 30
0.0
 10
205.624380
 20
201.766600
 30
0.0
  0
LINE
  5
13c
100
AcDbEntity
  8
Layer_1
 62
3
100
AcDbLine
 10
205.624380
 20
201.766600
 30
0.0
 11
205.624380
 21
201.766600
 31
0.0
  0
SPLINE
  5
13d
100
AcDbEntity
  8
Layer_1
 62
3
100
AcDbSpline
 70
8
 71
3
 72
8
 73
4
 74
0
 40
0
 40
0
 40
0
 40
0
 40
1
 40
1
 40
1
 40
1
 10
290.918300
 20
201.769700
 30
0.0
 10
291.302539
 20
201.769700
 30
0.0
 10
291.648944
 20
201.538240
 30
0.0
 10
291.795986
 20
201.183249
 30
0.0
  0
SPLINE
  5
13e
100
AcDbEntity
  8
Layer_1
 62
3
100
AcDbSpline
 70
8
 71
3
 72
8
 73
4
 74
0
 40
0
 40
0
 40
0
 40
0
 40
1
 40
1
 40
1
 40
1
 10
291.795986
 20
201.183249
 30
0.0
 10
291.943027
 20
200.828259
 30
0.0
 10
291.861750
 20
200.419647
 30
0.0
 10
291.590051
 20
200.147949
 30
0.0
  0
SPLINE
  5
13f
100
AcDbEntity
  8
Layer_1
 62
3
100
AcDbSpline
 70
8
 71
3
 72
8
 73
4
 74
0
 40
0
 40
0
 40
0
 40
0
 40
1
 40
1
 40
1
 40
1
 10
291.590051
 20
200.147949
 30
0.0
 10
291.318353
 20
199.876250
 30
0.0
 10
290.909741
 20
199.794973
 30
0.0
 10
290.554751
 20
199.942014
 30
0.0
  0
SPLINE
  5
140
100
AcDbEntity
  8
Layer_1
 62
3
100
AcDbSpline
 70
8
 71
3
 72
8
 73
4
 74
0
 40
0
 40
0
 40
0
 40
0
 40
1
 40
1
 40
1
 40
1
 10
290.554751
 20
199.942014
 30
0.0
 10
290.199760
 20
200.089056
 30
0.0
 10
289.968300
 20
200.435461
 30
0.0
 10
289.968300
 20
200.819700
 30
0.0
  0
SPLINE
  5
141
100
AcDbEntity
  8
Layer_1
 62
3
100
AcDbSpline
 70
8
 71
3
 72
8
 73
4
 74
0
 40
0
 40
0
 40
0
 40
0
 40
1
 40
1
 40
1
 40
1
 10
289.968300
 20
200.819700
 30
0.0
 10
289.968300
 20
201.071656
 30
0.0
 10
290.068389
 20
201.313292
 30
0.0
 10
290.246549
 20
201.491451
 30
0.0
  0
SPLINE
  5
142
100
AcDbEntity
  8
Layer_1
 62
3
100
AcDbSpline
 70
8
 71
3
 72
8
 73
4
 74
0
 40
0
 40
0
 40
0
 40
0
 40
1
 40
1
 40
1
 40
1
 10
290.246549
 20
201.491451
 30
0.0
 10
290.424708
 20
201.669611
 30
0.0
 10
290.666344
 20
201.769700
 30
0.0
 10
290.918300
 20
201.769700
 30
0.0
  0
LINE
  5
143
100
AcDbEntity
  8
Layer_1
 62
3
100
AcDbLine
 10
290.918300
 20
201.769700
 30
0.0
 11
290.918300
 21
201.769700
 31
0.0
  0
SPLINE
  5
144
100
AcDbEntity
  8
Layer_1
 62
3
100
AcDbSpline
 70
8
 71
3
 72
8
 73
4
 74
0
 40
0
 40
0
 40
0
 40
0
 40
1
 40
1
 40
1
 40
1
 10
290.918300
 20
290.141900
 30
0.0
 10
291.302539
 20
290.141900
 30
0.0
 10
291.648944
 20
289.910440
 30
0.0
 10
291.795986
 20
289.555449
 30
0.0
  0
SPLINE
  5
145
100
AcDbEntity
  8
Layer_1
 62
3
100
AcDbSpline
 70
8
 71
3
 72
8
 73
4
 74
0
 40
0
 40
0
 40
0
 40
0
 40
1
 40
1
 40
1
 40
1
 10
291.795986
 20
289.555449
 30
0.0
 10
291.943027
 20
289.200459
 30
0.0
 10
291.861750
 20
288.791847
 30
0.0
 10
291.590051
 20
288.520149
 30
0.0
  0
SPLINE
  5
146
100
AcDbEntity
  8
Layer_1
 62
3
100
AcDbSpline
 70
8
 71
3
 72
8
 73
4
 74
0
 40
0
 40
0
 40
0
 40
0
 40
1
 40
1
 40
1
 40
1
 10
291.590051
 20
288.520149
 30
0.0
 10
291.318353
 20
288.248450
 30
0.0
 10
290.909741
 20
288.167173
 30
0.0
 10
290.554751
 20
288.314214
 30
0.0
  0
SPLINE
  5
147
100
AcDbEntity
  8
Layer_1
 62
3
100
AcDbSpline
 70
8
 71
3
 72
8
 73
4
 74
0
 40
0
 40
0
 40
0
 40
0
 40
1
 40
1
 40
1
 40
1
 10
290.554751
 20
288.314214
 30
0.0
 10
290.199760
 20
288.461256
 30
0.0
 10
289.968300
 20
288.807661
 30
0.0
 10
289.968300
 20
289.191900
 30
0.0
  0
SPLINE
  5
148
100
AcDbEntity
  8
Layer_1
 62
3
100
AcDbSpline
 70
8
 71
3
 72
8
 73
4
 74
0
 40
0
 40
0
 40
0
 40
0
 40
1
 40
1
 40
1
 40
1
 10
289.968300
 20
289.191900
 30
0.0
 10
289.968300
 20
289.443856
 30
0.0
 10
290.068389
 20
289.685492
 30
0.0
 10
290.246549
 20
289.863651
 30
0.0
  0
SPLINE
  5
149
100
AcDbEntity
  8
Layer_1
 62
3
100
AcDbSpline
 70
8
 71
3
 72
8
 73
4
 74
0
 40
0
 40
0
 40
0
 40
0
 40
1
 40
1
 40
1
 40
1
 10
290.246549
 20
289.863651
 30
0.0
 10
290.424708
 20
290.041811
 30
0.0
 10
290.666344
 20
290.141900
 30
0.0
 10
290.918300
 20
290.141900
 30
0.0
  0
LINE
  5
14a
100
AcDbEntity
  8
Layer_1
 62
3
100
AcDbLine
 10
290.918300
 20
290.141900
 30
0.0
 11
290.918300
 21
290.141900
 31
0.0
  0
SPLINE
  5
14b
100
AcDbEntity
  8
Layer_1
 62
3
100
AcDbSpline
 70
8
 71
3
 72
8
 73
4
 74
0
 40
0
 40
0
 40
0
 40
0
 40
1
 40
1
 40
1
 40
1
 10
205.625170
 20
290.141900
 30
0.0
 10
206.009409
 20
290.141900
 30
0.0
 10
206.355814
 20
289.910440
 30
0.0
 10
206.502856
 20
289.555449
 30
0.0
  0
SPLINE
  5
14c
100
AcDbEntity
  8
Layer_1
 62
3
100
AcDbSpline
 70
8
 71
3
 72
8
 73
4
 74
0
 40
0
 40
0
 40
0
 40
0
 40
1
 40
1
 40
1
 40
1
 10
206.502856
 20
289.555449
 30
0.0
 10
206.649897
 20
289.200459
 30
0.0
 10
206.568620
 20
288.791847
 30
0.0
 10
206.296921
 20
288.520149
 30
0.0
  0
SPLINE
  5
14d
100
AcDbEntity
  8
Layer_1
 62
3
100
AcDbSpline
 70
8
 71
3
 72
8
 73
4
 74
0
 40
0
 40
0
 40
0
 40
0
 40
1
 40
1
 40
1
 40
1
 10
206.296921
 20
288.520149
 30
0.0
 10
206.025223
 20
288.248450
 30
0.0
 10
205.616611
 20
288.167173
 30
0.0
 10
205.261621
 20
288.314214
 30
0.0
  0
SPLINE
  5
14e
100
AcDbEntity
  8
Layer_1
 62
3
100
AcDbSpline
 70
8
 71
3
 72
8
 73
4
 74
0
 40
0
 40
0
 40
0
 40
0
 40
1
 40
1
 40
1
 40
1
 10
205.261621
 20
288.314214
 30
0.0
 10
204.906630
 20
288.461256
 30
0.0
 10
204.675170
 20
288.807661
 30
0.0
 10
204.675170
 20
289.191900
 30
0.0
  0
SPLINE
  5
14f
100
AcDbEntity
  8
Layer_1
 62
3
100
AcDbSpline
 70
8
 71
3
 72
8
 73
4
 74
0
 40
0
 40
0
 40
0
 40
0
 40
1
 40
1
 40
1
 40
1
 10
204.675170
 20
289.191900
 30
0.0
 10
204.675170
 20
289.443856
 30
0.0
 10
204.775259
 20
289.685492
 30
0.0
 10
204.953419
 20
289.863651
 30
0.0
  0
SPLINE
  5
150
100
AcDbEntity
  8
Layer_1
 62
3
100
AcDbSpline
 70
8
 71
3
 72
8
 73
4
 74
0
 40
0
 40
0
 40
0
 40
0
 40
1
 40
1
 40
1
 40
1
 10
204.953419
 20
289.863651
 30
0.0
 10
205.131578
 20
290.041811
 30
0.0
 10
205.373214
 20
290.141900
 30
0.0
 10
205.625170
 20
290.141900
 30
0.0
  0
LINE
  5
151
100
AcDbEntity
  8
Layer_1
 62
3
100
AcDbLine
 10
205.625170
 20
290.141900
 30
0.0
 11
205.625170
 21
290.141900
 31
0.0
  0
SPLINE
  5
152
100
AcDbEntity
  8
Layer_1
 62
3
100
AcDbSpline
 70
8
 71
3
 72
8
 73
4
 74
0
 40
0
 40
0
 40
0
 40
0
 40
1
 40
1
 40
1
 40
1
 10
6.227710
 20
201.769700
 30
0.0
 10
6.611949
 20
201.769700
 30
0.0
 10
6.958354
 20
201.538240
 30
0.0
 10
7.105396
 20
201.183249
 30
0.0
  0
SPLINE
  5
153
100
AcDbEntity
  8
Layer_1
 62
3
100
AcDbSpline
 70
8
 71
3
 72
8
 73
4
 74
0
 40
0
 40
0
 40
0
 40
0
 40
1
 40
1
 40
1
 40
1
 10
7.105396
 20
201.183249
 30
0.0
 10
7.252437
 20
200.828259
 30
0.0
 10
7.171160
 20
200.419647
 30
0.0
 10
6.899461
 20
200.147949
 30
0.0
  0
SPLINE
  5
154
100
AcDbEntity
  8
Layer_1
 62
3
100
AcDbSpline
 70
8
 71
3
 72
8
 73
4
 74
0
 40
0
 40
0
 40
0
 40
0
 40
1
 40
1
 40
1
 40
1
 10
6.899461
 20
200.147949
 30
0.0
 10
6.627763
 20
199.876250
 30
0.0
 10
6.219151
 20
199.794973
 30
0.0
 10
5.864161
 20
199.942014
 30
0.0
  0
SPLINE
  5
155
100
AcDbEntity
  8
Layer_1
 62
3
100
AcDbSpline
 70
8
 71
3
 72
8
 73
4
 74
0
 40
0
 40
0
 40
0
 40
0
 40
1
 40
1
 40
1
 40
1
 10
5.864161
 20
199.942014
 30
0.0
 10
5.509170
 20
200.089056
 30
0.0
 10
5.277710
 20
200.435461
 30
0.0
 10
5.277710
 20
200.819700
 30
0.0
  0
SPLINE
  5
156
100
AcDbEntity
  8
Layer_1
 62
3
100
AcDbSpline
 70
8
 71
3
 72
8
 73
4
 74
0
 40
0
 40
0
 40
0
 40
0
 40
1
 40
1
 40
1
 40
1
 10
5.277710
 20
200.819700
 30
0.0
 10
5.277710
 20
201.344371
 30
0.0
 10
5.703039
 20
201.769700
 30
0.0
 10
6.227710
 20
201.769700
 30
0.0
  0
LINE
  5
157
100
AcDbEntity
  8
Layer_1
 62
3
100
AcDbLine
 10
6.227710
 20
201.769700
 30
0.0
 11
6.227710
 21
201.769700
 31
0.0
  0
SPLINE
  5
158
100
AcDbEntity
  8
Layer_1
 62
3
100
AcDbSpline
 70
8
 71
3
 72
8
 73
4
 74
0
 40
0
 40
0
 40
0
 40
0
 40
1
 40
1
 40
1
 40
1
 10
6.227710
 20
290.141900
 30
0.0
 10
6.611949
 20
290.141900
 30
0.0
 10
6.958354
 20
289.910440
 30
0.0
 10
7.105396
 20
289.555449
 30
0.0
  0
SPLINE
  5
159
100
AcDbEntity
  8
Layer_1
 62
3
100
AcDbSpline
 70
8
 71
3
 72
8
 73
4
 74
0
 40
0
 40
0
 40
0
 40
0
 40
1
 40
1
 40
1
 40
1
 10
7.105396
 20
289.555449
 30
0.0
 10
7.252437
 20
289.200459
 30
0.0
 10
7.171160
 20
288.791847
 30
0.0
 10
6.899461
 20
288.520149
 30
0.0
  0
SPLINE
  5
15a
100
AcDbEntity
  8
Layer_1
 62
3
100
AcDbSpline
 70
8
 71
3
 72
8
 73
4
 74
0
 40
0
 40
0
 40
0
 40
0
 40
1
 40
1
 40
1
 40
1
 10
6.899461
 20
288.520149
 30
0.0
 10
6.627763
 20
288.248450
 30
0.0
 10
6.219151
 20
288.167173
 30
0.0
 10
5.864161
 20
288.314214
 30
0.0
  0
SPLINE
  5
15b
100
AcDbEntity
  8
Layer_1
 62
3
100
AcDbSpline
 70
8
 71
3
 72
8
 73
4
 74
0
 40
0
 40
0
 40
0
 40
0
 40
1
 40
1
 40
1
 40
1
 10
5.864161
 20
288.314214
 30
0.0
 10
5.509170
 20
288.461256
 30
0.0
 10
5.277710
 20
288.807661
 30
0.0
 10
5.277710
 20
289.191900
 30
0.0
  0
SPLINE
  5
15c
100
AcDbEntity
  8
Layer_1
 62
3
100
AcDbSpline
 70
8
 71
3
 72
8
 73
4
 74
0
 40
0
 40
0
 40
0
 40
0
 40
1
 40
1
 40
1
 40
1
 10
5.277710
 20
289.191900
 30
0.0
 10
5.277710
 20
289.716571
 30
0.0
 10
5.703039
 20
290.141900
 30
0.0
 10
6.227710
 20
290.141900
 30
0.0
  0
LINE
  5
15d
100
AcDbEntity
  8
Layer_1
 62
3
100
AcDbLine
 10
6.227710
 20
290.141900
 30
0.0
 11
6.227710
 21
290.141900
 31
0.0
  0
SPLINE
  5
15e
100
AcDbEntity
  8
Layer_1
 62
3
100
AcDbSpline
 70
8
 71
3
 72
8
 73
4
 74
0
 40
0
 40
0
 40
0
 40
0
 40
1
 40
1
 40
1
 40
1
 10
124.320910
 20
201.769700
 30
0.0
 10
124.705149
 20
201.769700
 30
0.0
 10
125.051554
 20
201.538240
 30
0.0
 10
125.198596
 20
201.183249
 30
0.0
  0
SPLINE
  5
15f
100
AcDbEntity
  8
Layer_1
 62
3
100
AcDbSpline
 70
8
 71
3
 72
8
 73
4
 74
0
 40
0
 40
0
 40
0
 40
0
 40
1
 40
1
 40
1
 40
1
 10
125.198596
 20
201.183249
 30
0.0
 10
125.345637
 20
200.828259
 30
0.0
 10
125.264360
 20
200.419647
 30
0.0
 10
124.992661
 20
200.147949
 30
0.0
  0
SPLINE
  5
160
100
AcDbEntity
  8
Layer_1
 62
3
100
AcDbSpline
 70
8
 71
3
 72
8
 73
4
 74
0
 40
0
 40
0
 40
0
 40
0
 40
1
 40
1
 40
1
 40
1
 10
124.992661
 20
200.147949
 30
0.0
 10
124.720963
 20
199.876250
 30
0.0
 10
124.312351
 20
199.794973
 30
0.0
 10
123.957361
 20
199.942014
 30
0.0
  0
SPLINE
  5
161
100
AcDbEntity
  8
Layer_1
 62
3
100
AcDbSpline
 70
8
 71
3
 72
8
 73
4
 74
0
 40
0
 40
0
 40
0
 40
0
 40
1
 40
1
 40
1
 40
1
 10
123.957361
 20
199.942014
 30
0.0
 10
123.602370
 20
200.089056
 30
0.0
 10
123.370910
 20
200.435461
 30
0.0
 10
123.370910
 20
200.819700
 30
0.0
  0
SPLINE
  5
162
100
AcDbEntity
  8
Layer_1
 62
3
100
AcDbSpline
 70
8
 71
3
 72
8
 73
4
 74
0
 40
0
 40
0
 40
0
 40
0
 40
1
 40
1
 40
1
 40
1
 10
123.370910
 20
200.819700
 30
0.0
 10
123.370910
 20
201.071656
 30
0.0
 10
123.470999
 20
201.313292
 30
0.0
 10
123.649159
 20
201.491451
 30
0.0
  0
SPLINE
  5
163
100
AcDbEntity
  8
Layer_1
 62
3
100
AcDbSpline
 70
8
 71
3
 72
8
 73
4
 74
0
 40
0
 40
0
 40
0
 40
0
 40
1
 40
1
 40
1
 40
1
 10
123.649159
 20
201.491451
 30
0.0
 10
123.827318
 20
201.669611
 30
0.0
 10
124.068954
 20
201.769700
 30
0.0
 10
124.320910
 20
201.769700
 30
0.0
  0
LINE
  5
164
100
AcDbEntity
  8
Layer_1
 62
3
100
AcDbLine
 10
124.320910
 20
201.769700
 30
0.0
 11
124.320910
 21
201.769700
 31
0.0
  0
SPLINE
  5
165
100
AcDbEntity
  8
Layer_1
 62
3
100
AcDbSpline
 70
8
 71
3
 72
8
 73
4
 74
0
 40
0
 40
0
 40
0
 40
0
 40
1
 40
1
 40
1
 40
1
 10
124.320300
 20
290.141900
 30
0.0
 10
124.704539
 20
290.141900
 30
0.0
 10
125.050944
 20
289.910440
 30
0.0
 10
125.197986
 20
289.555449
 30
0.0
  0
SPLINE
  5
166
100
AcDbEntity
  8
Layer_1
 62
3
100
AcDbSpline
 70
8
 71
3
 72
8
 73
4
 74
0
 40
0
 40
0
 40
0
 40
0
 40
1
 40
1
 40
1
 40
1
 10
125.197986
 20
289.555449
 30
0.0
 10
125.345027
 20
289.200459
 30
0.0
 10
125.263750
 20
288.791847
 30
0.0
 10
124.992051
 20
288.520149
 30
0.0
  0
SPLINE
  5
167
100
AcDbEntity
  8
Layer_1
 62
3
100
AcDbSpline
 70
8
 71
3
 72
8
 73
4
 74
0
 40
0
 40
0
 40
0
 40
0
 40
1
 40
1
 40
1
 40
1
 10
124.992051
 20
288.520149
 30
0.0
 10
124.720353
 20
288.248450
 30
0.0
 10
124.311741
 20
288.167173
 30
0.0
 10
123.956751
 20
288.314214
 30
0.0
  0
SPLINE
  5
168
100
AcDbEntity
  8
Layer_1
 62
3
100
AcDbSpline
 70
8
 71
3
 72
8
 73
4
 74
0
 40
0
 40
0
 40
0
 40
0
 40
1
 40
1
 40
1
 40
1
 10
123.956751
 20
288.314214
 30
0.0
 10
123.601760
 20
288.461256
 30
0.0
 10
123.370300
 20
288.807661
 30
0.0
 10
123.370300
 20
289.191900
 30
0.0
  0
SPLINE
  5
169
100
AcDbEntity
  8
Layer_1
 62
3
100
AcDbSpline
 70
8
 71
3
 72
8
 73
4
 74
0
 40
0
 40
0
 40
0
 40
0
 40
1
 40
1
 40
1
 40
1
 10
123.370300
 20
289.191900
 30
0.0
 10
123.370300
 20
289.716571
 30
0.0
 10
123.795629
 20
290.141900
 30
0.0
 10
124.320300
 20
290.141900
 30
0.0
  0
LINE
  5
16a
100
AcDbEntity
  8
Layer_1
 62
3
100
AcDbLine
 10
124.320300
 20
290.141900
 30
0.0
 11
124.320300
 21
290.141900
 31
0.0
  0
SPLINE
  5
16b
100
AcDbEntity
  8
Layer_1
 62
3
100
AcDbSpline
 70
8
 71
3
 72
8
 73
4
 74
0
 40
0
 40
0
 40
0
 40
0
 40
1
 40
1
 40
1
 40
1
 10
22.659229
 20
224.429062
 30
0.0
 10
19.423531
 20
224.429062
 30
0.0
 10
16.506441
 20
222.479925
 30
0.0
 10
15.268193
 20
219.490529
 30
0.0
  0
SPLINE
  5
16c
100
AcDbEntity
  8
Layer_1
 62
3
100
AcDbSpline
 70
8
 71
3
 72
8
 73
4
 74
0
 40
0
 40
0
 40
0
 40
0
 40
1
 40
1
 40
1
 40
1
 10
15.268193
 20
219.490529
 30
0.0
 10
14.029945
 20
216.501134
 30
0.0
 10
14.714391
 20
213.060192
 30
0.0
 10
17.002375
 20
210.772208
 30
0.0
  0
SPLINE
  5
16d
100
AcDbEntity
  8
Layer_1
 62
3
100
AcDbSpline
 70
8
 71
3
 72
8
 73
4
 74
0
 40
0
 40
0
 40
0
 40
0
 40
1
 40
1
 40
1
 40
1
 10
17.002375
 20
210.772208
 30
0.0
 10
19.290359
 20
208.484224
 30
0.0
 10
22.731301
 20
207.799778
 30
0.0
 10
25.720696
 20
209.038026
 30
0.0
  0
SPLINE
  5
16e
100
AcDbEntity
  8
Layer_1
 62
3
100
AcDbSpline
 70
8
 71
3
 72
8
 73
4
 74
0
 40
0
 40
0
 40
0
 40
0
 40
1
 40
1
 40
1
 40
1
 10
25.720696
 20
209.038026
 30
0.0
 10
28.710092
 20
210.276274
 30
0.0
 10
30.659229
 20
213.193364
 30
0.0
 10
30.659229
 20
216.429062
 30
0.0
  0
SPLINE
  5
16f
100
AcDbEntity
  8
Layer_1
 62
3
100
AcDbSpline
 70
8
 71
3
 72
8
 73
4
 74
0
 40
0
 40
0
 40
0
 40
0
 40
1
 40
1
 40
1
 40
1
 10
30.659229
 20
216.429062
 30
0.0
 10
30.659229
 20
218.550794
 30
0.0
 10
29.816374
 20
220.585625
 30
0.0
 10
28.316083
 20
222.085916
 30
0.0
  0
SPLINE
  5
170
100
AcDbEntity
  8
Layer_1
 62
3
100
AcDbSpline
 70
8
 71
3
 72
8
 73
4
 74
0
 40
0
 40
0
 40
0
 40
0
 40
1
 40
1
 40
1
 40
1
 10
28.316083
 20
222.085916
 30
0.0
 10
26.815792
 20
223.586207
 30
0.0
 10
24.780961
 20
224.429062
 30
0.0
 10
22.659229
 20
224.429062
 30
0.0
  0
LINE
  5
171
100
AcDbEntity
  8
Layer_1
 62
3
100
AcDbLine
 10
22.659229
 20
224.429062
 30
0.0
 11
22.659229
 21
224.429062
 31
0.0
  0
SPLINE
  5
172
100
AcDbEntity
  8
Layer_1
 62
3
100
AcDbSpline
 70
8
 71
3
 72
8
 73
4
 74
0
 40
0
 40
0
 40
0
 40
0
 40
1
 40
1
 40
1
 40
1
 10
39.084827
 20
290.142364
 30
0.0
 10
39.469066
 20
290.142364
 30
0.0
 10
39.815471
 20
289.910904
 30
0.0
 10
39.962513
 20
289.555913
 30
0.0
  0
SPLINE
  5
173
100
AcDbEntity
  8
Layer_1
 62
3
100
AcDbSpline
 70
8
 71
3
 72
8
 73
4
 74
0
 40
0
 40
0
 40
0
 40
0
 40
1
 40
1
 40
1
 40
1
 10
39.962513
 20
289.555913
 30
0.0
 10
40.109554
 20
289.200922
 30
0.0
 10
40.028277
 20
288.792310
 30
0.0
 10
39.756578
 20
288.520612
 30
0.0
  0
SPLINE
  5
174
100
AcDbEntity
  8
Layer_1
 62
3
100
AcDbSpline
 70
8
 71
3
 72
8
 73
4
 74
0
 40
0
 40
0
 40
0
 40
0
 40
1
 40
1
 40
1
 40
1
 10
39.756578
 20
288.520612
 30
0.0
 10
39.484880
 20
288.248914
 30
0.0
 10
39.076268
 20
288.167636
 30
0.0
 10
38.721278
 20
288.314678
 30
0.0
  0
SPLINE
  5
175
100
AcDbEntity
  8
Layer_1
 62
3
100
AcDbSpline
 70
8
 71
3
 72
8
 73
4
 74
0
 40
0
 40
0
 40
0
 40
0
 40
1
 40
1
 40
1
 40
1
 10
38.721278
 20
288.314678
 30
0.0
 10
38.366287
 20
288.461720
 30
0.0
 10
38.134827
 20
288.808125
 30
0.0
 10
38.134827
 20
289.192364
 30
0.0
  0
SPLINE
  5
176
100
AcDbEntity
  8
Layer_1
 62
3
100
AcDbSpline
 70
8
 71
3
 72
8
 73
4
 74
0
 40
0
 40
0
 40
0
 40
0
 40
1
 40
1
 40
1
 40
1
 10
38.134827
 20
289.192364
 30
0.0
 10
38.134827
 20
289.717034
 30
0.0
 10
38.560156
 20
290.142364
 30
0.0
 10
39.084827
 20
290.142364
 30
0.0
  0
LINE
  5
177
100
AcDbEntity
  8
Layer_1
 62
3
100
AcDbLine
 10
39.084827
 20
290.142364
 30
0.0
 11
39.084827
 21
290.142364
 31
0.0
  0
SPLINE
  5
178
100
AcDbEntity
  8
Layer_1
 62
3
100
AcDbSpline
 70
8
 71
3
 72
8
 73
4
 74
0
 40
0
 40
0
 40
0
 40
0
 40
1
 40
1
 40
1
 40
1
 10
39.084827
 20
201.770175
 30
0.0
 10
39.469066
 20
201.770175
 30
0.0
 10
39.815471
 20
201.538715
 30
0.0
 10
39.962513
 20
201.183724
 30
0.0
  0
SPLINE
  5
179
100
AcDbEntity
  8
Layer_1
 62
3
100
AcDbSpline
 70
8
 71
3
 72
8
 73
4
 74
0
 40
0
 40
0
 40
0
 40
0
 40
1
 40
1
 40
1
 40
1
 10
39.962513
 20
201.183724
 30
0.0
 10
40.109554
 20
200.828734
 30
0.0
 10
40.028277
 20
200.420122
 30
0.0
 10
39.756578
 20
200.148424
 30
0.0
  0
SPLINE
  5
17a
100
AcDbEntity
  8
Layer_1
 62
3
100
AcDbSpline
 70
8
 71
3
 72
8
 73
4
 74
0
 40
0
 40
0
 40
0
 40
0
 40
1
 40
1
 40
1
 40
1
 10
39.756578
 20
200.148424
 30
0.0
 10
39.484880
 20
199.876725
 30
0.0
 10
39.076268
 20
199.795448
 30
0.0
 10
38.721278
 20
199.942489
 30
0.0
  0
SPLINE
  5
17b
100
AcDbEntity
  8
Layer_1
 62
3
100
AcDbSpline
 70
8
 71
3
 72
8
 73
4
 74
0
 40
0
 40
0
 40
0
 40
0
 40
1
 40
1
 40
1
 40
1
 10
38.721278
 20
199.942489
 30
0.0
 10
38.366287
 20
200.089531
 30
0.0
 10
38.134827
 20
200.435936
 30
0.0
 10
38.134827
 20
200.820175
 30
0.0
  0
SPLINE
  5
17c
100
AcDbEntity
  8
Layer_1
 62
3
100
AcDbSpline
 70
8
 71
3
 72
8
 73
4
 74
0
 40
0
 40
0
 40
0
 40
0
 40
1
 40
1
 40
1
 40
1
 10
38.134827
 20
200.820175
 30
0.0
 10
38.134827
 20
201.344846
 30
0.0
 10
38.560156
 20
201.770175
 30
0.0
 10
39.084827
 20
201.770175
 30
0.0
  0
LINE
  5
17d
100
AcDbEntity
  8
Layer_1
 62
3
100
AcDbLine
 10
39.084827
 20
201.770175
 30
0.0
 11
39.084827
 21
201.770175
 31
0.0
  0
ENDSEC
  0
SECTION
  2
OBJECTS
  0
DICTIONARY
  5
C
330
0
100
AcDbDictionary
  3
ACAD_GROUP
350
D
  3
ACAD_MLINESTYLE
350
17
  0
DICTIONARY
  5
D
330
C
100
AcDbDictionary
  0
DICTIONARY
  5
1A
330
C
100
AcDbDictionary
  0
DICTIONARY
  5
17
330
C
100
AcDbDictionary
  3
STANDARD
350
18
  0
DICTIONARY
  5
19
330
C
100
AcDbDictionary
  0
ENDSEC
  0
EOF
