  0
SECTION
  2
HEADER
  9
$ACADVER
  1
AC1014
  9
$HANDSEED
  5
FFFF
  9
$INSUNITS
 70
     0
  9
$MEASUREMENT
 70
     1
  0
ENDSEC
  0
SECTION
  2
TABLES
  0
TABLE
  2
VPORT
  5
8
330
0
100
AcDbSymbolTable
 70
     4
  0
VPORT
  5
2E
330
8
100
AcDbSymbolTableRecord
100
AcDbViewportTableRecord
  2
*ACTIVE
 70
     0
 10
0.0
 20
0.0
 11
1.0
 21
1.0
 12
210.0
 22
148.5
 13
0.0
 23
0.0
 14
10.0
 24
10.0
 15
10.0
 25
10.0
 16
0.0
 26
0.0
 36
1.0
 17
0.0
 27
0.0
 37
0.0
 40
341.0
 41
1.24
 42
50.0
 43
0.0
 44
0.0
 50
0.0
 51
0.0
 71
     0
 72
   100
 73
     1
 74
     3
 75
     0
 76
     0
 77
     0
 78
     0
  0
ENDTAB
  0
TABLE
  2
LTYPE
  5
5
330
0
100
AcDbSymbolTable
 70
     1
  0
LTYPE
  5
14
330
5
100
AcDbSymbolTableRecord
100
AcDbLinetypeTableRecord
  2
BYBLOCK
 70
     0
  3

 72
    65
 73
     0
 40
0.0
  0
LTYPE
  5
15
330
5
100
AcDbSymbolTableRecord
100
AcDbLinetypeTableRecord
  2
BYLAYER
 70
     0
  3

 72
    65
 73
     0
 40
0.0
  0
LTYPE
  5
16
330
5
100
AcDbSymbolTableRecord
100
AcDbLinetypeTableRecord
  2
CONTINUOUS
 70
     0
  3
Solid line
 72
    65
 73
     0
 40
0.0
  0
ENDTAB
  0
TABLE
  2
LAYER
  5
2
100
AcDbSymbolTable
 70
2
  0
LAYER
  5
50
100
AcDbSymbolTableRecord
100
AcDbLayerTableRecord
  2
0
 70
0
  6
CONTINUOUS
  0
LAYER
  5
51
100
AcDbSymbolTableRecord
100
AcDbLayerTableRecord
  2
Layer_1
 70
0
  6
CONTINUOUS
  0
ENDTAB
  0
TABLE
  2
STYLE
  5
3
330
0
100
AcDbSymbolTable
 70
     1
  0
STYLE
  5
11
330
3
100
AcDbSymbolTableRecord
100
AcDbTextStyleTableRecord
  2
STANDARD
 70
     0
 40
0.0
 41
1.0
 50
0.0
 71
     0
 42
2.5
  3
txt
  4

  0
ENDTAB
  0
TABLE
  2
VIEW
  5
6
330
0
100
AcDbSymbolTable
 70
     0
  0
ENDTAB
  0
TABLE
  2
UCS
  5
7
330
0
100
AcDbSymbolTable
 70
     0
  0
ENDTAB
  0
TABLE
  2
APPID
  5
9
330
0
100
AcDbSymbolTable
 70
     2
  0
APPID
  5
12
330
9
100
AcDbSymbolTableRecord
100
AcDbRegAppTableRecord
  2
ACAD
 70
     0
  0
ENDTAB
  0
TABLE
  2
DIMSTYLE
  5
A
330
0
100
AcDbSymbolTable
 70
     1
  0
DIMSTYLE
105
27
330
A
100
AcDbSymbolTableRecord
100
AcDbDimStyleTableRecord
  2
ISO-25
 70
     0
  3

  4

  5

  6

  7

 40
1.0
 41
2.5
 42
0.625
 43
3.75
 44
1.25
 45
0.0
 46
0.0
 47
0.0
 48
0.0
140
2.5
141
2.5
142
0.0
143
0.03937007874016
144
1.0
145
0.0
146
1.0
147
0.625
 71
     0
 72
     0
 73
     0
 74
     0
 75
     0
 76
     0
 77
     1
 78
     8
170
     0
171
     3
172
     1
173
     0
174
     0
175
     0
176
     0
177
     0
178
     0
270
     2
271
     2
272
     2
273
     2
274
     3
340
11
275
     0
280
     0
281
     0
282
     0
283
     0
284
     8
285
     0
286
     0
287
     3
288
     0
  0
ENDTAB
  0
TABLE
  2
BLOCK_RECORD
  5
1
330
0
100
AcDbSymbolTable
 70
     1
  0
BLOCK_RECORD
  5
1F
330
1
100
AcDbSymbolTableRecord
100
AcDbBlockTableRecord
  2
*MODEL_SPACE
  0
BLOCK_RECORD
  5
1B
330
1
100
AcDbSymbolTableRecord
100
AcDbBlockTableRecord
  2
*PAPER_SPACE
  0
ENDTAB
  0
ENDSEC
  0
SECTION
  2
BLOCKS
  0
BLOCK
  5
20
330
1F
100
AcDbEntity
  8
0
100
AcDbBlockBegin
  2
*MODEL_SPACE
 70
     0
 10
0.0
 20
0.0
 30
0.0
  3
*MODEL_SPACE
  1

  0
ENDBLK
  5
21
330
1F
100
AcDbEntity
  8
0
100
AcDbBlockEnd
  0
BLOCK
  5
1C
330
1B
100
AcDbEntity
 67
     1
  8
0
100
AcDbBlockBegin
  2
*PAPER_SPACE
  1

  0
ENDBLK
  5
1D
330
1B
100
AcDbEntity
 67
     1
  8
0
100
AcDbBlockEnd
  0
ENDSEC
  0
SECTION
  2
ENTITIES
  0
LINE
  5
100
100
AcDbEntity
  8
Layer_1
 62
6
100
AcDbLine
 10
271.882290
 20
193.145000
 30
0.0
 11
296.485120
 21
193.145000
 31
0.0
  0
SPLINE
  5
101
100
AcDbEntity
  8
Layer_1
 62
6
100
AcDbSpline
 70
8
 71
3
 72
8
 73
4
 74
0
 40
0
 40
0
 40
0
 40
0
 40
1
 40
1
 40
1
 40
1
 10
296.485120
 20
193.145000
 30
0.0
 10
297.186825
 20
193.145000
 30
0.0
 10
297.859789
 20
193.423755
 30
0.0
 10
298.355965
 20
193.919940
 30
0.0
  0
SPLINE
  5
102
100
AcDbEntity
  8
Layer_1
 62
6
100
AcDbSpline
 70
8
 71
3
 72
8
 73
4
 74
0
 40
0
 40
0
 40
0
 40
0
 40
1
 40
1
 40
1
 40
1
 10
298.355965
 20
193.919940
 30
0.0
 10
298.852141
 20
194.416125
 30
0.0
 10
299.130883
 20
195.089095
 30
0.0
 10
299.130870
 20
195.790800
 30
0.0
  0
LINE
  5
103
100
AcDbEntity
  8
Layer_1
 62
6
100
AcDbLine
 10
299.130870
 20
195.790800
 30
0.0
 11
299.130620
 21
203.730900
 31
0.0
  0
SPLINE
  5
104
100
AcDbEntity
  8
Layer_1
 62
6
100
AcDbSpline
 70
8
 71
3
 72
8
 73
4
 74
0
 40
0
 40
0
 40
0
 40
0
 40
1
 40
1
 40
1
 40
1
 10
299.130620
 20
203.730900
 30
0.0
 10
299.130556
 20
205.192152
 30
0.0
 10
297.945962
 20
206.376697
 30
0.0
 10
296.484710
 20
206.376700
 30
0.0
  0
LINE
  5
105
100
AcDbEntity
  8
Layer_1
 62
6
100
AcDbLine
 10
296.484710
 20
206.376700
 30
0.0
 11
294.719660
 21
206.376700
 31
0.0
  0
SPLINE
  5
106
100
AcDbEntity
  8
Layer_1
 62
6
100
AcDbSpline
 70
8
 71
3
 72
8
 73
4
 74
0
 40
0
 40
0
 40
0
 40
0
 40
1
 40
1
 40
1
 40
1
 10
294.719660
 20
206.376700
 30
0.0
 10
293.258394
 20
206.376700
 30
0.0
 10
292.073775
 20
207.561234
 30
0.0
 10
292.073670
 20
209.022500
 30
0.0
  0
LINE
  5
107
100
AcDbEntity
  8
Layer_1
 62
6
100
AcDbLine
 10
292.073670
 20
209.022500
 30
0.0
 11
292.069670
 21
270.929700
 31
0.0
  0
SPLINE
  5
108
100
AcDbEntity
  8
Layer_1
 62
6
100
AcDbSpline
 70
8
 71
3
 72
8
 73
4
 74
0
 40
0
 40
0
 40
0
 40
0
 40
1
 40
1
 40
1
 40
1
 10
292.069670
 20
270.929700
 30
0.0
 10
292.069637
 20
271.631397
 30
0.0
 10
292.348362
 20
272.304366
 30
0.0
 10
292.844525
 20
272.800554
 30
0.0
  0
SPLINE
  5
109
100
AcDbEntity
  8
Layer_1
 62
6
100
AcDbSpline
 70
8
 71
3
 72
8
 73
4
 74
0
 40
0
 40
0
 40
0
 40
0
 40
1
 40
1
 40
1
 40
1
 10
292.844525
 20
272.800554
 30
0.0
 10
293.340687
 20
273.296741
 30
0.0
 10
294.013643
 20
273.575498
 30
0.0
 10
294.715340
 20
273.575500
 30
0.0
  0
LINE
  5
10a
100
AcDbEntity
  8
Layer_1
 62
6
100
AcDbLine
 10
294.715340
 20
273.575500
 30
0.0
 11
296.478230
 21
273.575500
 31
0.0
  0
SPLINE
  5
10b
100
AcDbEntity
  8
Layer_1
 62
6
100
AcDbSpline
 70
8
 71
3
 72
8
 73
4
 74
0
 40
0
 40
0
 40
0
 40
0
 40
1
 40
1
 40
1
 40
1
 10
296.478230
 20
273.575500
 30
0.0
 10
297.179911
 20
273.575501
 30
0.0
 10
297.852848
 20
273.854264
 30
0.0
 10
298.348983
 20
274.350456
 30
0.0
  0
SPLINE
  5
10c
100
AcDbEntity
  8
Layer_1
 62
6
100
AcDbSpline
 70
8
 71
3
 72
8
 73
4
 74
0
 40
0
 40
0
 40
0
 40
0
 40
1
 40
1
 40
1
 40
1
 10
298.348983
 20
274.350456
 30
0.0
 10
298.845117
 20
274.846649
 30
0.0
 10
299.123802
 20
275.519619
 30
0.0
 10
299.123720
 20
276.221300
 30
0.0
  0
LINE
  5
10d
100
AcDbEntity
  8
Layer_1
 62
6
100
AcDbLine
 10
299.123720
 20
276.221300
 30
0.0
 11
299.121720
 21
294.221900
 31
0.0
  0
SPLINE
  5
10e
100
AcDbEntity
  8
Layer_1
 62
6
100
AcDbSpline
 70
8
 71
3
 72
8
 73
4
 74
0
 40
0
 40
0
 40
0
 40
0
 40
1
 40
1
 40
1
 40
1
 10
299.121720
 20
294.221900
 30
0.0
 10
299.121513
 20
295.683194
 30
0.0
 10
297.936844
 20
296.867698
 30
0.0
 10
296.475550
 20
296.867700
 30
0.0
  0
LINE
  5
10f
100
AcDbEntity
  8
Layer_1
 62
6
100
AcDbLine
 10
296.475550
 20
296.867700
 30
0.0
 11
268.709410
 21
296.867700
 31
0.0
  0
LINE
  5
110
100
AcDbEntity
  8
Layer_1
 62
6
100
AcDbLine
 10
268.709410
 20
296.867700
 30
0.0
 11
37.960500
 21
296.867700
 31
0.0
  0
LINE
  5
111
100
AcDbEntity
  8
Layer_1
 62
6
100
AcDbLine
 10
37.960500
 20
296.867700
 30
0.0
 11
2.786000
 21
296.867700
 31
0.0
  0
SPLINE
  5
112
100
AcDbEntity
  8
Layer_1
 62
6
100
AcDbSpline
 70
8
 71
3
 72
8
 73
4
 74
0
 40
0
 40
0
 40
0
 40
0
 40
1
 40
1
 40
1
 40
1
 10
2.786000
 20
296.867700
 30
0.0
 10
1.324773
 20
296.867682
 30
0.0
 10
0.140218
 20
295.683127
 30
0.0
 10
0.140200
 20
294.221900
 30
0.0
  0
LINE
  5
113
100
AcDbEntity
  8
Layer_1
 62
6
100
AcDbLine
 10
0.140200
 20
294.221900
 30
0.0
 11
0.140200
 21
276.221300
 31
0.0
  0
SPLINE
  5
114
100
AcDbEntity
  8
Layer_1
 62
6
100
AcDbSpline
 70
8
 71
3
 72
8
 73
4
 74
0
 40
0
 40
0
 40
0
 40
0
 40
1
 40
1
 40
1
 40
1
 10
0.140200
 20
276.221300
 30
0.0
 10
0.140218
 20
274.760073
 30
0.0
 10
1.324773
 20
273.575518
 30
0.0
 10
2.786000
 20
273.575500
 30
0.0
  0
LINE
  5
115
100
AcDbEntity
  8
Layer_1
 62
6
100
AcDbLine
 10
2.786000
 20
273.575500
 30
0.0
 11
4.549000
 21
273.575500
 31
0.0
  0
SPLINE
  5
116
100
AcDbEntity
  8
Layer_1
 62
6
100
AcDbSpline
 70
8
 71
3
 72
8
 73
4
 74
0
 40
0
 40
0
 40
0
 40
0
 40
1
 40
1
 40
1
 40
1
 10
4.549000
 20
273.575500
 30
0.0
 10
6.010229
 20
273.575486
 30
0.0
 10
7.194786
 20
272.390929
 30
0.0
 10
7.194800
 20
270.929700
 30
0.0
  0
LINE
  5
117
100
AcDbEntity
  8
Layer_1
 62
6
100
AcDbLine
 10
7.194800
 20
270.929700
 30
0.0
 11
7.194600
 21
209.022500
 31
0.0
  0
SPLINE
  5
118
100
AcDbEntity
  8
Layer_1
 62
6
100
AcDbSpline
 70
8
 71
3
 72
8
 73
4
 74
0
 40
0
 40
0
 40
0
 40
0
 40
1
 40
1
 40
1
 40
1
 10
7.194600
 20
209.022500
 30
0.0
 10
7.194577
 20
207.561274
 30
0.0
 10
6.010026
 20
206.376723
 30
0.0
 10
4.548800
 20
206.376700
 30
0.0
  0
LINE
  5
119
100
AcDbEntity
  8
Layer_1
 62
6
100
AcDbLine
 10
4.548800
 20
206.376700
 30
0.0
 11
2.783700
 21
206.376700
 31
0.0
  0
SPLINE
  5
11a
100
AcDbEntity
  8
Layer_1
 62
6
100
AcDbSpline
 70
8
 71
3
 72
8
 73
4
 74
0
 40
0
 40
0
 40
0
 40
0
 40
1
 40
1
 40
1
 40
1
 10
2.783700
 20
206.376700
 30
0.0
 10
1.322456
 20
206.376682
 30
0.0
 10
0.137874
 20
205.192144
 30
0.0
 10
0.137800
 20
203.730900
 30
0.0
  0
LINE
  5
11b
100
AcDbEntity
  8
Layer_1
 62
6
100
AcDbLine
 10
0.137800
 20
203.730900
 30
0.0
 11
0.137500
 21
195.790800
 31
0.0
  0
SPLINE
  5
11c
100
AcDbEntity
  8
Layer_1
 62
6
100
AcDbSpline
 70
8
 71
3
 72
8
 73
4
 74
0
 40
0
 40
0
 40
0
 40
0
 40
1
 40
1
 40
1
 40
1
 10
0.137500
 20
195.790800
 30
0.0
 10
0.137482
 20
195.089102
 30
0.0
 10
0.416216
 20
194.416137
 30
0.0
 10
0.912382
 20
193.919953
 30
0.0
  0
SPLINE
  5
11d
100
AcDbEntity
  8
Layer_1
 62
6
100
AcDbSpline
 70
8
 71
3
 72
8
 73
4
 74
0
 40
0
 40
0
 40
0
 40
0
 40
1
 40
1
 40
1
 40
1
 10
0.912382
 20
193.919953
 30
0.0
 10
1.408548
 20
193.423768
 30
0.0
 10
2.081502
 20
193.145009
 30
0.0
 10
2.783200
 20
193.145000
 30
0.0
  0
LINE
  5
11e
100
AcDbEntity
  8
Layer_1
 62
6
100
AcDbLine
 10
2.783200
 20
193.145000
 30
0.0
 11
29.502800
 21
193.145000
 31
0.0
  0
LINE
  5
11f
100
AcDbEntity
  8
Layer_1
 62
6
100
AcDbLine
 10
29.502800
 20
193.145000
 30
0.0
 11
266.590630
 21
193.145000
 31
0.0
  0
LINE
  5
120
100
AcDbEntity
  8
Layer_1
 62
6
100
AcDbLine
 10
266.590630
 20
193.145000
 30
0.0
 11
271.882290
 21
193.145000
 31
0.0
  0
SPLINE
  5
121
100
AcDbEntity
  8
Layer_1
 62
6
100
AcDbSpline
 70
8
 71
3
 72
8
 73
4
 74
0
 40
0
 40
0
 40
0
 40
0
 40
1
 40
1
 40
1
 40
1
 10
207.741380
 20
201.766600
 30
0.0
 10
208.125619
 20
201.766600
 30
0.0
 10
208.472024
 20
201.535140
 30
0.0
 10
208.619066
 20
201.180149
 30
0.0
  0
SPLINE
  5
122
100
AcDbEntity
  8
Layer_1
 62
6
100
AcDbSpline
 70
8
 71
3
 72
8
 73
4
 74
0
 40
0
 40
0
 40
0
 40
0
 40
1
 40
1
 40
1
 40
1
 10
208.619066
 20
201.180149
 30
0.0
 10
208.766107
 20
200.825159
 30
0.0
 10
208.684830
 20
200.416547
 30
0.0
 10
208.413131
 20
200.144849
 30
0.0
  0
SPLINE
  5
123
100
AcDbEntity
  8
Layer_1
 62
6
100
AcDbSpline
 70
8
 71
3
 72
8
 73
4
 74
0
 40
0
 40
0
 40
0
 40
0
 40
1
 40
1
 40
1
 40
1
 10
208.413131
 20
200.144849
 30
0.0
 10
208.141433
 20
199.873150
 30
0.0
 10
207.732821
 20
199.791873
 30
0.0
 10
207.377831
 20
199.938914
 30
0.0
  0
SPLINE
  5
124
100
AcDbEntity
  8
Layer_1
 62
6
100
AcDbSpline
 70
8
 71
3
 72
8
 73
4
 74
0
 40
0
 40
0
 40
0
 40
0
 40
1
 40
1
 40
1
 40
1
 10
207.377831
 20
199.938914
 30
0.0
 10
207.022840
 20
200.085956
 30
0.0
 10
206.791380
 20
200.432361
 30
0.0
 10
206.791380
 20
200.816600
 30
0.0
  0
SPLINE
  5
125
100
AcDbEntity
  8
Layer_1
 62
6
100
AcDbSpline
 70
8
 71
3
 72
8
 73
4
 74
0
 40
0
 40
0
 40
0
 40
0
 40
1
 40
1
 40
1
 40
1
 10
206.791380
 20
200.816600
 30
0.0
 10
206.791380
 20
201.068556
 30
0.0
 10
206.891469
 20
201.310192
 30
0.0
 10
207.069629
 20
201.488351
 30
0.0
  0
SPLINE
  5
126
100
AcDbEntity
  8
Layer_1
 62
6
100
AcDbSpline
 70
8
 71
3
 72
8
 73
4
 74
0
 40
0
 40
0
 40
0
 40
0
 40
1
 40
1
 40
1
 40
1
 10
207.069629
 20
201.488351
 30
0.0
 10
207.247788
 20
201.666511
 30
0.0
 10
207.489424
 20
201.766600
 30
0.0
 10
207.741380
 20
201.766600
 30
0.0
  0
LINE
  5
127
100
AcDbEntity
  8
Layer_1
 62
6
100
AcDbLine
 10
207.741380
 20
201.766600
 30
0.0
 11
207.741380
 21
201.766600
 31
0.0
  0
SPLINE
  5
128
100
AcDbEntity
  8
Layer_1
 62
6
100
AcDbSpline
 70
8
 71
3
 72
8
 73
4
 74
0
 40
0
 40
0
 40
0
 40
0
 40
1
 40
1
 40
1
 40
1
 10
293.035300
 20
201.769700
 30
0.0
 10
293.419539
 20
201.769700
 30
0.0
 10
293.765944
 20
201.538240
 30
0.0
 10
293.912986
 20
201.183249
 30
0.0
  0
SPLINE
  5
129
100
AcDbEntity
  8
Layer_1
 62
6
100
AcDbSpline
 70
8
 71
3
 72
8
 73
4
 74
0
 40
0
 40
0
 40
0
 40
0
 40
1
 40
1
 40
1
 40
1
 10
293.912986
 20
201.183249
 30
0.0
 10
294.060027
 20
200.828259
 30
0.0
 10
293.978750
 20
200.419647
 30
0.0
 10
293.707051
 20
200.147949
 30
0.0
  0
SPLINE
  5
12a
100
AcDbEntity
  8
Layer_1
 62
6
100
AcDbSpline
 70
8
 71
3
 72
8
 73
4
 74
0
 40
0
 40
0
 40
0
 40
0
 40
1
 40
1
 40
1
 40
1
 10
293.707051
 20
200.147949
 30
0.0
 10
293.435353
 20
199.876250
 30
0.0
 10
293.026741
 20
199.794973
 30
0.0
 10
292.671751
 20
199.942014
 30
0.0
  0
SPLINE
  5
12b
100
AcDbEntity
  8
Layer_1
 62
6
100
AcDbSpline
 70
8
 71
3
 72
8
 73
4
 74
0
 40
0
 40
0
 40
0
 40
0
 40
1
 40
1
 40
1
 40
1
 10
292.671751
 20
199.942014
 30
0.0
 10
292.316760
 20
200.089056
 30
0.0
 10
292.085300
 20
200.435461
 30
0.0
 10
292.085300
 20
200.819700
 30
0.0
  0
SPLINE
  5
12c
100
AcDbEntity
  8
Layer_1
 62
6
100
AcDbSpline
 70
8
 71
3
 72
8
 73
4
 74
0
 40
0
 40
0
 40
0
 40
0
 40
1
 40
1
 40
1
 40
1
 10
292.085300
 20
200.819700
 30
0.0
 10
292.085300
 20
201.071656
 30
0.0
 10
292.185389
 20
201.313292
 30
0.0
 10
292.363549
 20
201.491451
 30
0.0
  0
SPLINE
  5
12d
100
AcDbEntity
  8
Layer_1
 62
6
100
AcDbSpline
 70
8
 71
3
 72
8
 73
4
 74
0
 40
0
 40
0
 40
0
 40
0
 40
1
 40
1
 40
1
 40
1
 10
292.363549
 20
201.491451
 30
0.0
 10
292.541708
 20
201.669611
 30
0.0
 10
292.783344
 20
201.769700
 30
0.0
 10
293.035300
 20
201.769700
 30
0.0
  0
LINE
  5
12e
100
AcDbEntity
  8
Layer_1
 62
6
100
AcDbLine
 10
293.035300
 20
201.769700
 30
0.0
 11
293.035300
 21
201.769700
 31
0.0
  0
SPLINE
  5
12f
100
AcDbEntity
  8
Layer_1
 62
6
100
AcDbSpline
 70
8
 71
3
 72
8
 73
4
 74
0
 40
0
 40
0
 40
0
 40
0
 40
1
 40
1
 40
1
 40
1
 10
293.035300
 20
290.756900
 30
0.0
 10
293.668283
 20
290.756900
 30
0.0
 10
294.238939
 20
290.375600
 30
0.0
 10
294.481172
 20
289.790800
 30
0.0
  0
SPLINE
  5
130
100
AcDbEntity
  8
Layer_1
 62
6
100
AcDbSpline
 70
8
 71
3
 72
8
 73
4
 74
0
 40
0
 40
0
 40
0
 40
0
 40
1
 40
1
 40
1
 40
1
 10
294.481172
 20
289.790800
 30
0.0
 10
294.723404
 20
289.205999
 30
0.0
 10
294.589509
 20
288.532865
 30
0.0
 10
294.141922
 20
288.085278
 30
0.0
  0
SPLINE
  5
131
100
AcDbEntity
  8
Layer_1
 62
6
100
AcDbSpline
 70
8
 71
3
 72
8
 73
4
 74
0
 40
0
 40
0
 40
0
 40
0
 40
1
 40
1
 40
1
 40
1
 10
294.141922
 20
288.085278
 30
0.0
 10
293.694335
 20
287.637691
 30
0.0
 10
293.021201
 20
287.503796
 30
0.0
 10
292.436400
 20
287.746028
 30
0.0
  0
SPLINE
  5
132
100
AcDbEntity
  8
Layer_1
 62
6
100
AcDbSpline
 70
8
 71
3
 72
8
 73
4
 74
0
 40
0
 40
0
 40
0
 40
0
 40
1
 40
1
 40
1
 40
1
 10
292.436400
 20
287.746028
 30
0.0
 10
291.851600
 20
287.988261
 30
0.0
 10
291.470300
 20
288.558917
 30
0.0
 10
291.470300
 20
289.191900
 30
0.0
  0
SPLINE
  5
133
100
AcDbEntity
  8
Layer_1
 62
6
100
AcDbSpline
 70
8
 71
3
 72
8
 73
4
 74
0
 40
0
 40
0
 40
0
 40
0
 40
1
 40
1
 40
1
 40
1
 10
291.470300
 20
289.191900
 30
0.0
 10
291.470300
 20
289.606964
 30
0.0
 10
291.635183
 20
290.005028
 30
0.0
 10
291.928678
 20
290.298522
 30
0.0
  0
SPLINE
  5
134
100
AcDbEntity
  8
Layer_1
 62
6
100
AcDbSpline
 70
8
 71
3
 72
8
 73
4
 74
0
 40
0
 40
0
 40
0
 40
0
 40
1
 40
1
 40
1
 40
1
 10
291.928678
 20
290.298522
 30
0.0
 10
292.222172
 20
290.592017
 30
0.0
 10
292.620236
 20
290.756900
 30
0.0
 10
293.035300
 20
290.756900
 30
0.0
  0
LINE
  5
135
100
AcDbEntity
  8
Layer_1
 62
6
100
AcDbLine
 10
293.035300
 20
290.756900
 30
0.0
 11
293.035300
 21
290.756900
 31
0.0
  0
SPLINE
  5
136
100
AcDbEntity
  8
Layer_1
 62
6
100
AcDbSpline
 70
8
 71
3
 72
8
 73
4
 74
0
 40
0
 40
0
 40
0
 40
0
 40
1
 40
1
 40
1
 40
1
 10
207.742170
 20
290.756900
 30
0.0
 10
208.375153
 20
290.756900
 30
0.0
 10
208.945809
 20
290.375600
 30
0.0
 10
209.188042
 20
289.790800
 30
0.0
  0
SPLINE
  5
137
100
AcDbEntity
  8
Layer_1
 62
6
100
AcDbSpline
 70
8
 71
3
 72
8
 73
4
 74
0
 40
0
 40
0
 40
0
 40
0
 40
1
 40
1
 40
1
 40
1
 10
209.188042
 20
289.790800
 30
0.0
 10
209.430274
 20
289.205999
 30
0.0
 10
209.296379
 20
288.532865
 30
0.0
 10
208.848792
 20
288.085278
 30
0.0
  0
SPLINE
  5
138
100
AcDbEntity
  8
Layer_1
 62
6
100
AcDbSpline
 70
8
 71
3
 72
8
 73
4
 74
0
 40
0
 40
0
 40
0
 40
0
 40
1
 40
1
 40
1
 40
1
 10
208.848792
 20
288.085278
 30
0.0
 10
208.401205
 20
287.637691
 30
0.0
 10
207.728071
 20
287.503796
 30
0.0
 10
207.143270
 20
287.746028
 30
0.0
  0
SPLINE
  5
139
100
AcDbEntity
  8
Layer_1
 62
6
100
AcDbSpline
 70
8
 71
3
 72
8
 73
4
 74
0
 40
0
 40
0
 40
0
 40
0
 40
1
 40
1
 40
1
 40
1
 10
207.143270
 20
287.746028
 30
0.0
 10
206.558470
 20
287.988261
 30
0.0
 10
206.177170
 20
288.558917
 30
0.0
 10
206.177170
 20
289.191900
 30
0.0
  0
SPLINE
  5
13a
100
AcDbEntity
  8
Layer_1
 62
6
100
AcDbSpline
 70
8
 71
3
 72
8
 73
4
 74
0
 40
0
 40
0
 40
0
 40
0
 40
1
 40
1
 40
1
 40
1
 10
206.177170
 20
289.191900
 30
0.0
 10
206.177170
 20
289.606964
 30
0.0
 10
206.342053
 20
290.005028
 30
0.0
 10
206.635548
 20
290.298522
 30
0.0
  0
SPLINE
  5
13b
100
AcDbEntity
  8
Layer_1
 62
6
100
AcDbSpline
 70
8
 71
3
 72
8
 73
4
 74
0
 40
0
 40
0
 40
0
 40
0
 40
1
 40
1
 40
1
 40
1
 10
206.635548
 20
290.298522
 30
0.0
 10
206.929042
 20
290.592017
 30
0.0
 10
207.327106
 20
290.756900
 30
0.0
 10
207.742170
 20
290.756900
 30
0.0
  0
LINE
  5
13c
100
AcDbEntity
  8
Layer_1
 62
6
100
AcDbLine
 10
207.742170
 20
290.756900
 30
0.0
 11
207.742170
 21
290.756900
 31
0.0
  0
SPLINE
  5
13d
100
AcDbEntity
  8
Layer_1
 62
6
100
AcDbSpline
 70
8
 71
3
 72
8
 73
4
 74
0
 40
0
 40
0
 40
0
 40
0
 40
1
 40
1
 40
1
 40
1
 10
7.286360
 20
201.769700
 30
0.0
 10
7.670599
 20
201.769700
 30
0.0
 10
8.017004
 20
201.538240
 30
0.0
 10
8.164046
 20
201.183249
 30
0.0
  0
SPLINE
  5
13e
100
AcDbEntity
  8
Layer_1
 62
6
100
AcDbSpline
 70
8
 71
3
 72
8
 73
4
 74
0
 40
0
 40
0
 40
0
 40
0
 40
1
 40
1
 40
1
 40
1
 10
8.164046
 20
201.183249
 30
0.0
 10
8.311087
 20
200.828259
 30
0.0
 10
8.229810
 20
200.419647
 30
0.0
 10
7.958111
 20
200.147949
 30
0.0
  0
SPLINE
  5
13f
100
AcDbEntity
  8
Layer_1
 62
6
100
AcDbSpline
 70
8
 71
3
 72
8
 73
4
 74
0
 40
0
 40
0
 40
0
 40
0
 40
1
 40
1
 40
1
 40
1
 10
7.958111
 20
200.147949
 30
0.0
 10
7.686413
 20
199.876250
 30
0.0
 10
7.277801
 20
199.794973
 30
0.0
 10
6.922811
 20
199.942014
 30
0.0
  0
SPLINE
  5
140
100
AcDbEntity
  8
Layer_1
 62
6
100
AcDbSpline
 70
8
 71
3
 72
8
 73
4
 74
0
 40
0
 40
0
 40
0
 40
0
 40
1
 40
1
 40
1
 40
1
 10
6.922811
 20
199.942014
 30
0.0
 10
6.567820
 20
200.089056
 30
0.0
 10
6.336360
 20
200.435461
 30
0.0
 10
6.336360
 20
200.819700
 30
0.0
  0
SPLINE
  5
141
100
AcDbEntity
  8
Layer_1
 62
6
100
AcDbSpline
 70
8
 71
3
 72
8
 73
4
 74
0
 40
0
 40
0
 40
0
 40
0
 40
1
 40
1
 40
1
 40
1
 10
6.336360
 20
200.819700
 30
0.0
 10
6.336360
 20
201.071656
 30
0.0
 10
6.436449
 20
201.313292
 30
0.0
 10
6.614609
 20
201.491451
 30
0.0
  0
SPLINE
  5
142
100
AcDbEntity
  8
Layer_1
 62
6
100
AcDbSpline
 70
8
 71
3
 72
8
 73
4
 74
0
 40
0
 40
0
 40
0
 40
0
 40
1
 40
1
 40
1
 40
1
 10
6.614609
 20
201.491451
 30
0.0
 10
6.792768
 20
201.669611
 30
0.0
 10
7.034404
 20
201.769700
 30
0.0
 10
7.286360
 20
201.769700
 30
0.0
  0
LINE
  5
143
100
AcDbEntity
  8
Layer_1
 62
6
100
AcDbLine
 10
7.286360
 20
201.769700
 30
0.0
 11
7.286360
 21
201.769700
 31
0.0
  0
SPLINE
  5
144
100
AcDbEntity
  8
Layer_1
 62
6
100
AcDbSpline
 70
8
 71
3
 72
8
 73
4
 74
0
 40
0
 40
0
 40
0
 40
0
 40
1
 40
1
 40
1
 40
1
 10
7.286360
 20
290.756900
 30
0.0
 10
7.919343
 20
290.756900
 30
0.0
 10
8.489999
 20
290.375600
 30
0.0
 10
8.732232
 20
289.790800
 30
0.0
  0
SPLINE
  5
145
100
AcDbEntity
  8
Layer_1
 62
6
100
AcDbSpline
 70
8
 71
3
 72
8
 73
4
 74
0
 40
0
 40
0
 40
0
 40
0
 40
1
 40
1
 40
1
 40
1
 10
8.732232
 20
289.790800
 30
0.0
 10
8.974464
 20
289.205999
 30
0.0
 10
8.840569
 20
288.532865
 30
0.0
 10
8.392982
 20
288.085278
 30
0.0
  0
SPLINE
  5
146
100
AcDbEntity
  8
Layer_1
 62
6
100
AcDbSpline
 70
8
 71
3
 72
8
 73
4
 74
0
 40
0
 40
0
 40
0
 40
0
 40
1
 40
1
 40
1
 40
1
 10
8.392982
 20
288.085278
 30
0.0
 10
7.945395
 20
287.637691
 30
0.0
 10
7.272261
 20
287.503796
 30
0.0
 10
6.687460
 20
287.746028
 30
0.0
  0
SPLINE
  5
147
100
AcDbEntity
  8
Layer_1
 62
6
100
AcDbSpline
 70
8
 71
3
 72
8
 73
4
 74
0
 40
0
 40
0
 40
0
 40
0
 40
1
 40
1
 40
1
 40
1
 10
6.687460
 20
287.746028
 30
0.0
 10
6.102660
 20
287.988261
 30
0.0
 10
5.721360
 20
288.558917
 30
0.0
 10
5.721360
 20
289.191900
 30
0.0
  0
SPLINE
  5
148
100
AcDbEntity
  8
Layer_1
 62
6
100
AcDbSpline
 70
8
 71
3
 72
8
 73
4
 74
0
 40
0
 40
0
 40
0
 40
0
 40
1
 40
1
 40
1
 40
1
 10
5.721360
 20
289.191900
 30
0.0
 10
5.721360
 20
289.606964
 30
0.0
 10
5.886243
 20
290.005028
 30
0.0
 10
6.179738
 20
290.298522
 30
0.0
  0
SPLINE
  5
149
100
AcDbEntity
  8
Layer_1
 62
6
100
AcDbSpline
 70
8
 71
3
 72
8
 73
4
 74
0
 40
0
 40
0
 40
0
 40
0
 40
1
 40
1
 40
1
 40
1
 10
6.179738
 20
290.298522
 30
0.0
 10
6.473232
 20
290.592017
 30
0.0
 10
6.871296
 20
290.756900
 30
0.0
 10
7.286360
 20
290.756900
 30
0.0
  0
LINE
  5
14a
100
AcDbEntity
  8
Layer_1
 62
6
100
AcDbLine
 10
7.286360
 20
290.756900
 30
0.0
 11
7.286360
 21
290.756900
 31
0.0
  0
SPLINE
  5
14b
100
AcDbEntity
  8
Layer_1
 62
6
100
AcDbSpline
 70
8
 71
3
 72
8
 73
4
 74
0
 40
0
 40
0
 40
0
 40
0
 40
1
 40
1
 40
1
 40
1
 10
126.437910
 20
201.769700
 30
0.0
 10
126.822149
 20
201.769700
 30
0.0
 10
127.168554
 20
201.538240
 30
0.0
 10
127.315596
 20
201.183249
 30
0.0
  0
SPLINE
  5
14c
100
AcDbEntity
  8
Layer_1
 62
6
100
AcDbSpline
 70
8
 71
3
 72
8
 73
4
 74
0
 40
0
 40
0
 40
0
 40
0
 40
1
 40
1
 40
1
 40
1
 10
127.315596
 20
201.183249
 30
0.0
 10
127.462637
 20
200.828259
 30
0.0
 10
127.381360
 20
200.419647
 30
0.0
 10
127.109661
 20
200.147949
 30
0.0
  0
SPLINE
  5
14d
100
AcDbEntity
  8
Layer_1
 62
6
100
AcDbSpline
 70
8
 71
3
 72
8
 73
4
 74
0
 40
0
 40
0
 40
0
 40
0
 40
1
 40
1
 40
1
 40
1
 10
127.109661
 20
200.147949
 30
0.0
 10
126.837963
 20
199.876250
 30
0.0
 10
126.429351
 20
199.794973
 30
0.0
 10
126.074361
 20
199.942014
 30
0.0
  0
SPLINE
  5
14e
100
AcDbEntity
  8
Layer_1
 62
6
100
AcDbSpline
 70
8
 71
3
 72
8
 73
4
 74
0
 40
0
 40
0
 40
0
 40
0
 40
1
 40
1
 40
1
 40
1
 10
126.074361
 20
199.942014
 30
0.0
 10
125.719370
 20
200.089056
 30
0.0
 10
125.487910
 20
200.435461
 30
0.0
 10
125.487910
 20
200.819700
 30
0.0
  0
SPLINE
  5
14f
100
AcDbEntity
  8
Layer_1
 62
6
100
AcDbSpline
 70
8
 71
3
 72
8
 73
4
 74
0
 40
0
 40
0
 40
0
 40
0
 40
1
 40
1
 40
1
 40
1
 10
125.487910
 20
200.819700
 30
0.0
 10
125.487910
 20
201.071656
 30
0.0
 10
125.587999
 20
201.313292
 30
0.0
 10
125.766159
 20
201.491451
 30
0.0
  0
SPLINE
  5
150
100
AcDbEntity
  8
Layer_1
 62
6
100
AcDbSpline
 70
8
 71
3
 72
8
 73
4
 74
0
 40
0
 40
0
 40
0
 40
0
 40
1
 40
1
 40
1
 40
1
 10
125.766159
 20
201.491451
 30
0.0
 10
125.944318
 20
201.669611
 30
0.0
 10
126.185954
 20
201.769700
 30
0.0
 10
126.437910
 20
201.769700
 30
0.0
  0
LINE
  5
151
100
AcDbEntity
  8
Layer_1
 62
6
100
AcDbLine
 10
126.437910
 20
201.769700
 30
0.0
 11
126.437910
 21
201.769700
 31
0.0
  0
SPLINE
  5
152
100
AcDbEntity
  8
Layer_1
 62
6
100
AcDbSpline
 70
8
 71
3
 72
8
 73
4
 74
0
 40
0
 40
0
 40
0
 40
0
 40
1
 40
1
 40
1
 40
1
 10
126.437300
 20
290.756900
 30
0.0
 10
127.070283
 20
290.756900
 30
0.0
 10
127.640939
 20
290.375600
 30
0.0
 10
127.883172
 20
289.790800
 30
0.0
  0
SPLINE
  5
153
100
AcDbEntity
  8
Layer_1
 62
6
100
AcDbSpline
 70
8
 71
3
 72
8
 73
4
 74
0
 40
0
 40
0
 40
0
 40
0
 40
1
 40
1
 40
1
 40
1
 10
127.883172
 20
289.790800
 30
0.0
 10
128.125404
 20
289.205999
 30
0.0
 10
127.991509
 20
288.532865
 30
0.0
 10
127.543922
 20
288.085278
 30
0.0
  0
SPLINE
  5
154
100
AcDbEntity
  8
Layer_1
 62
6
100
AcDbSpline
 70
8
 71
3
 72
8
 73
4
 74
0
 40
0
 40
0
 40
0
 40
0
 40
1
 40
1
 40
1
 40
1
 10
127.543922
 20
288.085278
 30
0.0
 10
127.096335
 20
287.637691
 30
0.0
 10
126.423201
 20
287.503796
 30
0.0
 10
125.838400
 20
287.746028
 30
0.0
  0
SPLINE
  5
155
100
AcDbEntity
  8
Layer_1
 62
6
100
AcDbSpline
 70
8
 71
3
 72
8
 73
4
 74
0
 40
0
 40
0
 40
0
 40
0
 40
1
 40
1
 40
1
 40
1
 10
125.838400
 20
287.746028
 30
0.0
 10
125.253600
 20
287.988261
 30
0.0
 10
124.872300
 20
288.558917
 30
0.0
 10
124.872300
 20
289.191900
 30
0.0
  0
SPLINE
  5
156
100
AcDbEntity
  8
Layer_1
 62
6
100
AcDbSpline
 70
8
 71
3
 72
8
 73
4
 74
0
 40
0
 40
0
 40
0
 40
0
 40
1
 40
1
 40
1
 40
1
 10
124.872300
 20
289.191900
 30
0.0
 10
124.872300
 20
289.606964
 30
0.0
 10
125.037183
 20
290.005028
 30
0.0
 10
125.330678
 20
290.298522
 30
0.0
  0
SPLINE
  5
157
100
AcDbEntity
  8
Layer_1
 62
6
100
AcDbSpline
 70
8
 71
3
 72
8
 73
4
 74
0
 40
0
 40
0
 40
0
 40
0
 40
1
 40
1
 40
1
 40
1
 10
125.330678
 20
290.298522
 30
0.0
 10
125.624172
 20
290.592017
 30
0.0
 10
126.022236
 20
290.756900
 30
0.0
 10
126.437300
 20
290.756900
 30
0.0
  0
LINE
  5
158
100
AcDbEntity
  8
Layer_1
 62
6
100
AcDbLine
 10
126.437300
 20
290.756900
 30
0.0
 11
126.437300
 21
290.756900
 31
0.0
  0
SPLINE
  5
159
100
AcDbEntity
  8
Layer_1
 62
6
100
AcDbSpline
 70
8
 71
3
 72
8
 73
4
 74
0
 40
0
 40
0
 40
0
 40
0
 40
1
 40
1
 40
1
 40
1
 10
40.143162
 20
290.757364
 30
0.0
 10
40.776145
 20
290.757364
 30
0.0
 10
41.346801
 20
290.376064
 30
0.0
 10
41.589034
 20
289.791263
 30
0.0
  0
SPLINE
  5
15a
100
AcDbEntity
  8
Layer_1
 62
6
100
AcDbSpline
 70
8
 71
3
 72
8
 73
4
 74
0
 40
0
 40
0
 40
0
 40
0
 40
1
 40
1
 40
1
 40
1
 10
41.589034
 20
289.791263
 30
0.0
 10
41.831266
 20
289.206463
 30
0.0
 10
41.697371
 20
288.533328
 30
0.0
 10
41.249784
 20
288.085742
 30
0.0
  0
SPLINE
  5
15b
100
AcDbEntity
  8
Layer_1
 62
6
100
AcDbSpline
 70
8
 71
3
 72
8
 73
4
 74
0
 40
0
 40
0
 40
0
 40
0
 40
1
 40
1
 40
1
 40
1
 10
41.249784
 20
288.085742
 30
0.0
 10
40.802197
 20
287.638155
 30
0.0
 10
40.129063
 20
287.504260
 30
0.0
 10
39.544262
 20
287.746492
 30
0.0
  0
SPLINE
  5
15c
100
AcDbEntity
  8
Layer_1
 62
6
100
AcDbSpline
 70
8
 71
3
 72
8
 73
4
 74
0
 40
0
 40
0
 40
0
 40
0
 40
1
 40
1
 40
1
 40
1
 10
39.544262
 20
287.746492
 30
0.0
 10
38.959462
 20
287.988724
 30
0.0
 10
38.578162
 20
288.559380
 30
0.0
 10
38.578162
 20
289.192364
 30
0.0
  0
SPLINE
  5
15d
100
AcDbEntity
  8
Layer_1
 62
6
100
AcDbSpline
 70
8
 71
3
 72
8
 73
4
 74
0
 40
0
 40
0
 40
0
 40
0
 40
1
 40
1
 40
1
 40
1
 10
38.578162
 20
289.192364
 30
0.0
 10
38.578162
 20
289.607428
 30
0.0
 10
38.743045
 20
290.005491
 30
0.0
 10
39.036540
 20
290.298986
 30
0.0
  0
SPLINE
  5
15e
100
AcDbEntity
  8
Layer_1
 62
6
100
AcDbSpline
 70
8
 71
3
 72
8
 73
4
 74
0
 40
0
 40
0
 40
0
 40
0
 40
1
 40
1
 40
1
 40
1
 10
39.036540
 20
290.298986
 30
0.0
 10
39.330034
 20
290.592480
 30
0.0
 10
39.728098
 20
290.757364
 30
0.0
 10
40.143162
 20
290.757364
 30
0.0
  0
LINE
  5
15f
100
AcDbEntity
  8
Layer_1
 62
6
100
AcDbLine
 10
40.143162
 20
290.757364
 30
0.0
 11
40.143162
 21
290.757364
 31
0.0
  0
SPLINE
  5
160
100
AcDbEntity
  8
Layer_1
 62
6
100
AcDbSpline
 70
8
 71
3
 72
8
 73
4
 74
0
 40
0
 40
0
 40
0
 40
0
 40
1
 40
1
 40
1
 40
1
 10
40.143162
 20
201.770175
 30
0.0
 10
40.527401
 20
201.770175
 30
0.0
 10
40.873806
 20
201.538715
 30
0.0
 10
41.020848
 20
201.183724
 30
0.0
  0
SPLINE
  5
161
100
AcDbEntity
  8
Layer_1
 62
6
100
AcDbSpline
 70
8
 71
3
 72
8
 73
4
 74
0
 40
0
 40
0
 40
0
 40
0
 40
1
 40
1
 40
1
 40
1
 10
41.020848
 20
201.183724
 30
0.0
 10
41.167889
 20
200.828734
 30
0.0
 10
41.086612
 20
200.420122
 30
0.0
 10
40.814913
 20
200.148424
 30
0.0
  0
SPLINE
  5
162
100
AcDbEntity
  8
Layer_1
 62
6
100
AcDbSpline
 70
8
 71
3
 72
8
 73
4
 74
0
 40
0
 40
0
 40
0
 40
0
 40
1
 40
1
 40
1
 40
1
 10
40.814913
 20
200.148424
 30
0.0
 10
40.543215
 20
199.876725
 30
0.0
 10
40.134603
 20
199.795448
 30
0.0
 10
39.779613
 20
199.942489
 30
0.0
  0
SPLINE
  5
163
100
AcDbEntity
  8
Layer_1
 62
6
100
AcDbSpline
 70
8
 71
3
 72
8
 73
4
 74
0
 40
0
 40
0
 40
0
 40
0
 40
1
 40
1
 40
1
 40
1
 10
39.779613
 20
199.942489
 30
0.0
 10
39.424622
 20
200.089531
 30
0.0
 10
39.193162
 20
200.435936
 30
0.0
 10
39.193162
 20
200.820175
 30
0.0
  0
SPLINE
  5
164
100
AcDbEntity
  8
Layer_1
 62
6
100
AcDbSpline
 70
8
 71
3
 72
8
 73
4
 74
0
 40
0
 40
0
 40
0
 40
0
 40
1
 40
1
 40
1
 40
1
 10
39.193162
 20
200.820175
 30
0.0
 10
39.193162
 20
201.072131
 30
0.0
 10
39.293251
 20
201.313767
 30
0.0
 10
39.471411
 20
201.491926
 30
0.0
  0
SPLINE
  5
165
100
AcDbEntity
  8
Layer_1
 62
6
100
AcDbSpline
 70
8
 71
3
 72
8
 73
4
 74
0
 40
0
 40
0
 40
0
 40
0
 40
1
 40
1
 40
1
 40
1
 10
39.471411
 20
201.491926
 30
0.0
 10
39.649570
 20
201.670086
 30
0.0
 10
39.891206
 20
201.770175
 30
0.0
 10
40.143162
 20
201.770175
 30
0.0
  0
LINE
  5
166
100
AcDbEntity
  8
Layer_1
 62
6
100
AcDbLine
 10
40.143162
 20
201.770175
 30
0.0
 11
40.143162
 21
201.770175
 31
0.0
  0
SPLINE
  5
167
100
AcDbEntity
  8
Layer_1
 62
6
100
AcDbSpline
 70
8
 71
3
 72
8
 73
4
 74
0
 40
0
 40
0
 40
0
 40
0
 40
1
 40
1
 40
1
 40
1
 10
14.829928
 20
281.039336
 30
0.0
 10
14.445689
 20
281.039336
 30
0.0
 10
14.099284
 20
280.807876
 30
0.0
 10
13.952242
 20
280.452885
 30
0.0
  0
SPLINE
  5
168
100
AcDbEntity
  8
Layer_1
 62
6
100
AcDbSpline
 70
8
 71
3
 72
8
 73
4
 74
0
 40
0
 40
0
 40
0
 40
0
 40
1
 40
1
 40
1
 40
1
 10
13.952242
 20
280.452885
 30
0.0
 10
13.805201
 20
280.097895
 30
0.0
 10
13.886478
 20
279.689283
 30
0.0
 10
14.158177
 20
279.417585
 30
0.0
  0
SPLINE
  5
169
100
AcDbEntity
  8
Layer_1
 62
6
100
AcDbSpline
 70
8
 71
3
 72
8
 73
4
 74
0
 40
0
 40
0
 40
0
 40
0
 40
1
 40
1
 40
1
 40
1
 10
14.158177
 20
279.417585
 30
0.0
 10
14.429875
 20
279.145886
 30
0.0
 10
14.838487
 20
279.064609
 30
0.0
 10
15.193477
 20
279.211650
 30
0.0
  0
SPLINE
  5
16a
100
AcDbEntity
  8
Layer_1
 62
6
100
AcDbSpline
 70
8
 71
3
 72
8
 73
4
 74
0
 40
0
 40
0
 40
0
 40
0
 40
1
 40
1
 40
1
 40
1
 10
15.193477
 20
279.211650
 30
0.0
 10
15.548468
 20
279.358692
 30
0.0
 10
15.779928
 20
279.705097
 30
0.0
 10
15.779928
 20
280.089336
 30
0.0
  0
SPLINE
  5
16b
100
AcDbEntity
  8
Layer_1
 62
6
100
AcDbSpline
 70
8
 71
3
 72
8
 73
4
 74
0
 40
0
 40
0
 40
0
 40
0
 40
1
 40
1
 40
1
 40
1
 10
15.779928
 20
280.089336
 30
0.0
 10
15.779928
 20
280.614007
 30
0.0
 10
15.354599
 20
281.039336
 30
0.0
 10
14.829928
 20
281.039336
 30
0.0
  0
LINE
  5
16c
100
AcDbEntity
  8
Layer_1
 62
6
100
AcDbLine
 10
14.829928
 20
281.039336
 30
0.0
 11
14.829928
 21
281.039336
 31
0.0
  0
SPLINE
  5
16d
100
AcDbEntity
  8
Layer_1
 62
6
100
AcDbSpline
 70
8
 71
3
 72
8
 73
4
 74
0
 40
0
 40
0
 40
0
 40
0
 40
1
 40
1
 40
1
 40
1
 10
32.607334
 20
281.039336
 30
0.0
 10
32.223095
 20
281.039336
 30
0.0
 10
31.876690
 20
280.807876
 30
0.0
 10
31.729648
 20
280.452885
 30
0.0
  0
SPLINE
  5
16e
100
AcDbEntity
  8
Layer_1
 62
6
100
AcDbSpline
 70
8
 71
3
 72
8
 73
4
 74
0
 40
0
 40
0
 40
0
 40
0
 40
1
 40
1
 40
1
 40
1
 10
31.729648
 20
280.452885
 30
0.0
 10
31.582607
 20
280.097895
 30
0.0
 10
31.663884
 20
279.689283
 30
0.0
 10
31.935583
 20
279.417585
 30
0.0
  0
SPLINE
  5
16f
100
AcDbEntity
  8
Layer_1
 62
6
100
AcDbSpline
 70
8
 71
3
 72
8
 73
4
 74
0
 40
0
 40
0
 40
0
 40
0
 40
1
 40
1
 40
1
 40
1
 10
31.935583
 20
279.417585
 30
0.0
 10
32.207281
 20
279.145886
 30
0.0
 10
32.615893
 20
279.064609
 30
0.0
 10
32.970883
 20
279.211650
 30
0.0
  0
SPLINE
  5
170
100
AcDbEntity
  8
Layer_1
 62
6
100
AcDbSpline
 70
8
 71
3
 72
8
 73
4
 74
0
 40
0
 40
0
 40
0
 40
0
 40
1
 40
1
 40
1
 40
1
 10
32.970883
 20
279.211650
 30
0.0
 10
33.325874
 20
279.358692
 30
0.0
 10
33.557334
 20
279.705097
 30
0.0
 10
33.557334
 20
280.089336
 30
0.0
  0
SPLINE
  5
171
100
AcDbEntity
  8
Layer_1
 62
6
100
AcDbSpline
 70
8
 71
3
 72
8
 73
4
 74
0
 40
0
 40
0
 40
0
 40
0
 40
1
 40
1
 40
1
 40
1
 10
33.557334
 20
280.089336
 30
0.0
 10
33.557334
 20
280.341292
 30
0.0
 10
33.457245
 20
280.582928
 30
0.0
 10
33.279085
 20
280.761087
 30
0.0
  0
SPLINE
  5
172
100
AcDbEntity
  8
Layer_1
 62
6
100
AcDbSpline
 70
8
 71
3
 72
8
 73
4
 74
0
 40
0
 40
0
 40
0
 40
0
 40
1
 40
1
 40
1
 40
1
 10
33.279085
 20
280.761087
 30
0.0
 10
33.100926
 20
280.939247
 30
0.0
 10
32.859290
 20
281.039336
 30
0.0
 10
32.607334
 20
281.039336
 30
0.0
  0
LINE
  5
173
100
AcDbEntity
  8
Layer_1
 62
6
100
AcDbLine
 10
32.607334
 20
281.039336
 30
0.0
 11
32.607334
 21
281.039336
 31
0.0
  0
SPLINE
  5
174
100
AcDbEntity
  8
Layer_1
 62
6
100
AcDbSpline
 70
8
 71
3
 72
8
 73
4
 74
0
 40
0
 40
0
 40
0
 40
0
 40
1
 40
1
 40
1
 40
1
 10
14.829928
 20
235.324249
 30
0.0
 10
14.445689
 20
235.324249
 30
0.0
 10
14.099284
 20
235.092789
 30
0.0
 10
13.952242
 20
234.737798
 30
0.0
  0
SPLINE
  5
175
100
AcDbEntity
  8
Layer_1
 62
6
100
AcDbSpline
 70
8
 71
3
 72
8
 73
4
 74
0
 40
0
 40
0
 40
0
 40
0
 40
1
 40
1
 40
1
 40
1
 10
13.952242
 20
234.737798
 30
0.0
 10
13.805201
 20
234.382808
 30
0.0
 10
13.886478
 20
233.974196
 30
0.0
 10
14.158177
 20
233.702498
 30
0.0
  0
SPLINE
  5
176
100
AcDbEntity
  8
Layer_1
 62
6
100
AcDbSpline
 70
8
 71
3
 72
8
 73
4
 74
0
 40
0
 40
0
 40
0
 40
0
 40
1
 40
1
 40
1
 40
1
 10
14.158177
 20
233.702498
 30
0.0
 10
14.429875
 20
233.430799
 30
0.0
 10
14.838487
 20
233.349522
 30
0.0
 10
15.193477
 20
233.496563
 30
0.0
  0
SPLINE
  5
177
100
AcDbEntity
  8
Layer_1
 62
6
100
AcDbSpline
 70
8
 71
3
 72
8
 73
4
 74
0
 40
0
 40
0
 40
0
 40
0
 40
1
 40
1
 40
1
 40
1
 10
15.193477
 20
233.496563
 30
0.0
 10
15.548468
 20
233.643605
 30
0.0
 10
15.779928
 20
233.990010
 30
0.0
 10
15.779928
 20
234.374249
 30
0.0
  0
SPLINE
  5
178
100
AcDbEntity
  8
Layer_1
 62
6
100
AcDbSpline
 70
8
 71
3
 72
8
 73
4
 74
0
 40
0
 40
0
 40
0
 40
0
 40
1
 40
1
 40
1
 40
1
 10
15.779928
 20
234.374249
 30
0.0
 10
15.779928
 20
234.898920
 30
0.0
 10
15.354599
 20
235.324249
 30
0.0
 10
14.829928
 20
235.324249
 30
0.0
  0
LINE
  5
179
100
AcDbEntity
  8
Layer_1
 62
6
100
AcDbLine
 10
14.829928
 20
235.324249
 30
0.0
 11
14.829928
 21
235.324249
 31
0.0
  0
SPLINE
  5
17a
100
AcDbEntity
  8
Layer_1
 62
6
100
AcDbSpline
 70
8
 71
3
 72
8
 73
4
 74
0
 40
0
 40
0
 40
0
 40
0
 40
1
 40
1
 40
1
 40
1
 10
32.607334
 20
235.324249
 30
0.0
 10
32.223095
 20
235.324249
 30
0.0
 10
31.876690
 20
235.092789
 30
0.0
 10
31.729648
 20
234.737798
 30
0.0
  0
SPLINE
  5
17b
100
AcDbEntity
  8
Layer_1
 62
6
100
AcDbSpline
 70
8
 71
3
 72
8
 73
4
 74
0
 40
0
 40
0
 40
0
 40
0
 40
1
 40
1
 40
1
 40
1
 10
31.729648
 20
234.737798
 30
0.0
 10
31.582607
 20
234.382808
 30
0.0
 10
31.663884
 20
233.974196
 30
0.0
 10
31.935583
 20
233.702498
 30
0.0
  0
SPLINE
  5
17c
100
AcDbEntity
  8
Layer_1
 62
6
100
AcDbSpline
 70
8
 71
3
 72
8
 73
4
 74
0
 40
0
 40
0
 40
0
 40
0
 40
1
 40
1
 40
1
 40
1
 10
31.935583
 20
233.702498
 30
0.0
 10
32.207281
 20
233.430799
 30
0.0
 10
32.615893
 20
233.349522
 30
0.0
 10
32.970883
 20
233.496563
 30
0.0
  0
SPLINE
  5
17d
100
AcDbEntity
  8
Layer_1
 62
6
100
AcDbSpline
 70
8
 71
3
 72
8
 73
4
 74
0
 40
0
 40
0
 40
0
 40
0
 40
1
 40
1
 40
1
 40
1
 10
32.970883
 20
233.496563
 30
0.0
 10
33.325874
 20
233.643605
 30
0.0
 10
33.557334
 20
233.990010
 30
0.0
 10
33.557334
 20
234.374249
 30
0.0
  0
SPLINE
  5
17e
100
AcDbEntity
  8
Layer_1
 62
6
100
AcDbSpline
 70
8
 71
3
 72
8
 73
4
 74
0
 40
0
 40
0
 40
0
 40
0
 40
1
 40
1
 40
1
 40
1
 10
33.557334
 20
234.374249
 30
0.0
 10
33.557334
 20
234.626205
 30
0.0
 10
33.457245
 20
234.867841
 30
0.0
 10
33.279085
 20
235.046000
 30
0.0
  0
SPLINE
  5
17f
100
AcDbEntity
  8
Layer_1
 62
6
100
AcDbSpline
 70
8
 71
3
 72
8
 73
4
 74
0
 40
0
 40
0
 40
0
 40
0
 40
1
 40
1
 40
1
 40
1
 10
33.279085
 20
235.046000
 30
0.0
 10
33.100926
 20
235.224160
 30
0.0
 10
32.859290
 20
235.324249
 30
0.0
 10
32.607334
 20
235.324249
 30
0.0
  0
LINE
  5
180
100
AcDbEntity
  8
Layer_1
 62
6
100
AcDbLine
 10
32.607334
 20
235.324249
 30
0.0
 11
32.607334
 21
235.324249
 31
0.0
  0
ENDSEC
  0
SECTION
  2
OBJECTS
  0
DICTIONARY
  5
C
330
0
100
AcDbDictionary
  3
ACAD_GROUP
350
D
  3
ACAD_MLINESTYLE
350
17
  0
DICTIONARY
  5
D
330
C
100
AcDbDictionary
  0
DICTIONARY
  5
1A
330
C
100
AcDbDictionary
  0
DICTIONARY
  5
17
330
C
100
AcDbDictionary
  3
STANDARD
350
18
  0
DICTIONARY
  5
19
330
C
100
AcDbDictionary
  0
ENDSEC
  0
EOF
