  0
SECTION
  2
HEADER
  9
$ACADVER
  1
AC1014
  9
$HANDSEED
  5
FFFF
  9
$INSUNITS
 70
     0
  9
$MEASUREMENT
 70
     1
  0
ENDSEC
  0
SECTION
  2
TABLES
  0
TABLE
  2
VPORT
  5
8
330
0
100
AcDbSymbolTable
 70
     4
  0
VPORT
  5
2E
330
8
100
AcDbSymbolTableRecord
100
AcDbViewportTableRecord
  2
*ACTIVE
 70
     0
 10
0.0
 20
0.0
 11
1.0
 21
1.0
 12
210.0
 22
148.5
 13
0.0
 23
0.0
 14
10.0
 24
10.0
 15
10.0
 25
10.0
 16
0.0
 26
0.0
 36
1.0
 17
0.0
 27
0.0
 37
0.0
 40
341.0
 41
1.24
 42
50.0
 43
0.0
 44
0.0
 50
0.0
 51
0.0
 71
     0
 72
   100
 73
     1
 74
     3
 75
     0
 76
     0
 77
     0
 78
     0
  0
ENDTAB
  0
TABLE
  2
LTYPE
  5
5
330
0
100
AcDbSymbolTable
 70
     1
  0
LTYPE
  5
14
330
5
100
AcDbSymbolTableRecord
100
AcDbLinetypeTableRecord
  2
BYBLOCK
 70
     0
  3

 72
    65
 73
     0
 40
0.0
  0
LTYPE
  5
15
330
5
100
AcDbSymbolTableRecord
100
AcDbLinetypeTableRecord
  2
BYLAYER
 70
     0
  3

 72
    65
 73
     0
 40
0.0
  0
LTYPE
  5
16
330
5
100
AcDbSymbolTableRecord
100
AcDbLinetypeTableRecord
  2
CONTINUOUS
 70
     0
  3
Solid line
 72
    65
 73
     0
 40
0.0
  0
ENDTAB
  0
TABLE
  2
LAYER
  5
2
100
AcDbSymbolTable
 70
2
  0
LAYER
  5
50
100
AcDbSymbolTableRecord
100
AcDbLayerTableRecord
  2
0
 70
0
  6
CONTINUOUS
  0
LAYER
  5
51
100
AcDbSymbolTableRecord
100
AcDbLayerTableRecord
  2
Layer_1
 70
0
  6
CONTINUOUS
  0
ENDTAB
  0
TABLE
  2
STYLE
  5
3
330
0
100
AcDbSymbolTable
 70
     1
  0
STYLE
  5
11
330
3
100
AcDbSymbolTableRecord
100
AcDbTextStyleTableRecord
  2
STANDARD
 70
     0
 40
0.0
 41
1.0
 50
0.0
 71
     0
 42
2.5
  3
txt
  4

  0
ENDTAB
  0
TABLE
  2
VIEW
  5
6
330
0
100
AcDbSymbolTable
 70
     0
  0
ENDTAB
  0
TABLE
  2
UCS
  5
7
330
0
100
AcDbSymbolTable
 70
     0
  0
ENDTAB
  0
TABLE
  2
APPID
  5
9
330
0
100
AcDbSymbolTable
 70
     2
  0
APPID
  5
12
330
9
100
AcDbSymbolTableRecord
100
AcDbRegAppTableRecord
  2
ACAD
 70
     0
  0
ENDTAB
  0
TABLE
  2
DIMSTYLE
  5
A
330
0
100
AcDbSymbolTable
 70
     1
  0
DIMSTYLE
105
27
330
A
100
AcDbSymbolTableRecord
100
AcDbDimStyleTableRecord
  2
ISO-25
 70
     0
  3

  4

  5

  6

  7

 40
1.0
 41
2.5
 42
0.625
 43
3.75
 44
1.25
 45
0.0
 46
0.0
 47
0.0
 48
0.0
140
2.5
141
2.5
142
0.0
143
0.03937007874016
144
1.0
145
0.0
146
1.0
147
0.625
 71
     0
 72
     0
 73
     0
 74
     0
 75
     0
 76
     0
 77
     1
 78
     8
170
     0
171
     3
172
     1
173
     0
174
     0
175
     0
176
     0
177
     0
178
     0
270
     2
271
     2
272
     2
273
     2
274
     3
340
11
275
     0
280
     0
281
     0
282
     0
283
     0
284
     8
285
     0
286
     0
287
     3
288
     0
  0
ENDTAB
  0
TABLE
  2
BLOCK_RECORD
  5
1
330
0
100
AcDbSymbolTable
 70
     1
  0
BLOCK_RECORD
  5
1F
330
1
100
AcDbSymbolTableRecord
100
AcDbBlockTableRecord
  2
*MODEL_SPACE
  0
BLOCK_RECORD
  5
1B
330
1
100
AcDbSymbolTableRecord
100
AcDbBlockTableRecord
  2
*PAPER_SPACE
  0
ENDTAB
  0
ENDSEC
  0
SECTION
  2
BLOCKS
  0
BLOCK
  5
20
330
1F
100
AcDbEntity
  8
0
100
AcDbBlockBegin
  2
*MODEL_SPACE
 70
     0
 10
0.0
 20
0.0
 30
0.0
  3
*MODEL_SPACE
  1

  0
ENDBLK
  5
21
330
1F
100
AcDbEntity
  8
0
100
AcDbBlockEnd
  0
BLOCK
  5
1C
330
1B
100
AcDbEntity
 67
     1
  8
0
100
AcDbBlockBegin
  2
*PAPER_SPACE
  1

  0
ENDBLK
  5
1D
330
1B
100
AcDbEntity
 67
     1
  8
0
100
AcDbBlockEnd
  0
ENDSEC
  0
SECTION
  2
ENTITIES
  0
LINE
  5
100
100
AcDbEntity
  8
Layer_1
 62
4
100
AcDbLine
 10
32.740800
 20
296.866700
 30
0.0
 11
294.359550
 21
296.866700
 31
0.0
  0
SPLINE
  5
101
100
AcDbEntity
  8
Layer_1
 62
4
100
AcDbSpline
 70
8
 71
3
 72
8
 73
4
 74
0
 40
0
 40
0
 40
0
 40
0
 40
1
 40
1
 40
1
 40
1
 10
294.359550
 20
296.866700
 30
0.0
 10
295.820777
 20
296.866682
 30
0.0
 10
297.005332
 20
295.682127
 30
0.0
 10
297.005350
 20
294.220900
 30
0.0
  0
LINE
  5
102
100
AcDbEntity
  8
Layer_1
 62
4
100
AcDbLine
 10
297.005350
 20
294.220900
 30
0.0
 11
297.005350
 21
195.789800
 31
0.0
  0
SPLINE
  5
103
100
AcDbEntity
  8
Layer_1
 62
4
100
AcDbSpline
 70
8
 71
3
 72
8
 73
4
 74
0
 40
0
 40
0
 40
0
 40
0
 40
1
 40
1
 40
1
 40
1
 10
297.005350
 20
195.789800
 30
0.0
 10
297.005332
 20
194.328573
 30
0.0
 10
295.820777
 20
193.144018
 30
0.0
 10
294.359550
 20
193.144000
 30
0.0
  0
LINE
  5
104
100
AcDbEntity
  8
Layer_1
 62
4
100
AcDbLine
 10
294.359550
 20
193.144000
 30
0.0
 11
2.778100
 21
193.144000
 31
0.0
  0
SPLINE
  5
105
100
AcDbEntity
  8
Layer_1
 62
4
100
AcDbSpline
 70
8
 71
3
 72
8
 73
4
 74
0
 40
0
 40
0
 40
0
 40
0
 40
1
 40
1
 40
1
 40
1
 10
2.778100
 20
193.144000
 30
0.0
 10
2.076412
 20
193.144002
 30
0.0
 10
1.403467
 20
193.422763
 30
0.0
 10
0.907321
 20
193.918953
 30
0.0
  0
SPLINE
  5
106
100
AcDbEntity
  8
Layer_1
 62
4
100
AcDbSpline
 70
8
 71
3
 72
8
 73
4
 74
0
 40
0
 40
0
 40
0
 40
0
 40
1
 40
1
 40
1
 40
1
 10
0.907321
 20
193.918953
 30
0.0
 10
0.411174
 20
194.415143
 30
0.0
 10
0.132471
 20
195.088112
 30
0.0
 10
0.132530
 20
195.789800
 30
0.0
  0
LINE
  5
107
100
AcDbEntity
  8
Layer_1
 62
4
100
AcDbLine
 10
0.132530
 20
195.789800
 30
0.0
 11
0.141530
 21
294.220900
 31
0.0
  0
SPLINE
  5
108
100
AcDbEntity
  8
Layer_1
 62
4
100
AcDbSpline
 70
8
 71
3
 72
8
 73
4
 74
0
 40
0
 40
0
 40
0
 40
0
 40
1
 40
1
 40
1
 40
1
 10
0.141530
 20
294.220900
 30
0.0
 10
0.141699
 20
295.682178
 30
0.0
 10
1.326342
 20
296.866691
 30
0.0
 10
2.787620
 20
296.866700
 30
0.0
  0
LINE
  5
109
100
AcDbEntity
  8
Layer_1
 62
4
100
AcDbLine
 10
2.787620
 20
296.866700
 30
0.0
 11
12.570210
 21
296.866800
 31
0.0
  0
SPLINE
  5
10a
100
AcDbEntity
  8
Layer_1
 62
4
100
AcDbSpline
 70
8
 71
3
 72
8
 73
4
 74
0
 40
0
 40
0
 40
0
 40
0
 40
1
 40
1
 40
1
 40
1
 10
12.570210
 20
296.866800
 30
0.0
 10
13.271919
 20
296.866803
 30
0.0
 10
13.944888
 20
296.588050
 30
0.0
 10
14.441069
 20
296.091865
 30
0.0
  0
SPLINE
  5
10b
100
AcDbEntity
  8
Layer_1
 62
4
100
AcDbSpline
 70
8
 71
3
 72
8
 73
4
 74
0
 40
0
 40
0
 40
0
 40
0
 40
1
 40
1
 40
1
 40
1
 10
14.441069
 20
296.091865
 30
0.0
 10
14.937250
 20
295.595680
 30
0.0
 10
15.215998
 20
294.922709
 30
0.0
 10
15.215990
 20
294.221000
 30
0.0
  0
LINE
  5
10c
100
AcDbEntity
  8
Layer_1
 62
4
100
AcDbLine
 10
15.215990
 20
294.221000
 30
0.0
 11
15.215820
 21
284.165000
 31
0.0
  0
SPLINE
  5
10d
100
AcDbEntity
  8
Layer_1
 62
4
100
AcDbSpline
 70
8
 71
3
 72
8
 73
4
 74
0
 40
0
 40
0
 40
0
 40
0
 40
1
 40
1
 40
1
 40
1
 10
15.215820
 20
284.165000
 30
0.0
 10
15.215826
 20
284.024649
 30
0.0
 10
15.160076
 20
283.890044
 30
0.0
 10
15.060835
 20
283.790799
 30
0.0
  0
SPLINE
  5
10e
100
AcDbEntity
  8
Layer_1
 62
4
100
AcDbSpline
 70
8
 71
3
 72
8
 73
4
 74
0
 40
0
 40
0
 40
0
 40
0
 40
1
 40
1
 40
1
 40
1
 10
15.060835
 20
283.790799
 30
0.0
 10
14.961594
 20
283.691554
 30
0.0
 10
14.826991
 20
283.635799
 30
0.0
 10
14.686640
 20
283.635800
 30
0.0
  0
LINE
  5
10f
100
AcDbEntity
  8
Layer_1
 62
4
100
AcDbLine
 10
14.686640
 20
283.635800
 30
0.0
 11
10.727610
 21
283.635800
 31
0.0
  0
SPLINE
  5
110
100
AcDbEntity
  8
Layer_1
 62
4
100
AcDbSpline
 70
8
 71
3
 72
8
 73
4
 74
0
 40
0
 40
0
 40
0
 40
0
 40
1
 40
1
 40
1
 40
1
 10
10.727610
 20
283.635800
 30
0.0
 10
10.435338
 20
283.635799
 30
0.0
 10
10.198402
 20
283.398872
 30
0.0
 10
10.198390
 20
283.106600
 30
0.0
  0
LINE
  5
111
100
AcDbEntity
  8
Layer_1
 62
4
100
AcDbLine
 10
10.198390
 20
283.106600
 30
0.0
 11
10.190390
 21
206.907700
 31
0.0
  0
SPLINE
  5
112
100
AcDbEntity
  8
Layer_1
 62
4
100
AcDbSpline
 70
8
 71
3
 72
8
 73
4
 74
0
 40
0
 40
0
 40
0
 40
0
 40
1
 40
1
 40
1
 40
1
 10
10.190390
 20
206.907700
 30
0.0
 10
10.190367
 20
206.767354
 30
0.0
 10
10.246103
 20
206.632749
 30
0.0
 10
10.345335
 20
206.533502
 30
0.0
  0
SPLINE
  5
113
100
AcDbEntity
  8
Layer_1
 62
4
100
AcDbSpline
 70
8
 71
3
 72
8
 73
4
 74
0
 40
0
 40
0
 40
0
 40
0
 40
1
 40
1
 40
1
 40
1
 10
10.345335
 20
206.533502
 30
0.0
 10
10.444567
 20
206.434255
 30
0.0
 10
10.579164
 20
206.378498
 30
0.0
 10
10.719510
 20
206.378500
 30
0.0
  0
LINE
  5
114
100
AcDbEntity
  8
Layer_1
 62
4
100
AcDbLine
 10
10.719510
 20
206.378500
 30
0.0
 11
42.469470
 21
206.378500
 31
0.0
  0
LINE
  5
115
100
AcDbEntity
  8
Layer_1
 62
4
100
AcDbLine
 10
42.469470
 20
206.378500
 30
0.0
 11
81.522740
 21
206.378500
 31
0.0
  0
LINE
  5
116
100
AcDbEntity
  8
Layer_1
 62
4
100
AcDbLine
 10
81.522740
 20
206.378500
 30
0.0
 11
143.160350
 21
206.378500
 31
0.0
  0
LINE
  5
117
100
AcDbEntity
  8
Layer_1
 62
4
100
AcDbLine
 10
143.160350
 20
206.378500
 30
0.0
 11
184.211060
 21
206.378500
 31
0.0
  0
LINE
  5
118
100
AcDbEntity
  8
Layer_1
 62
4
100
AcDbLine
 10
184.211060
 20
206.378500
 30
0.0
 11
245.950870
 21
206.378500
 31
0.0
  0
LINE
  5
119
100
AcDbEntity
  8
Layer_1
 62
4
100
AcDbLine
 10
245.950870
 20
206.378500
 30
0.0
 11
286.420070
 21
206.378500
 31
0.0
  0
SPLINE
  5
11a
100
AcDbEntity
  8
Layer_1
 62
4
100
AcDbSpline
 70
8
 71
3
 72
8
 73
4
 74
0
 40
0
 40
0
 40
0
 40
0
 40
1
 40
1
 40
1
 40
1
 10
286.420070
 20
206.378500
 30
0.0
 10
286.560425
 20
206.378491
 30
0.0
 10
286.695035
 20
206.434243
 30
0.0
 10
286.794281
 20
206.533489
 30
0.0
  0
SPLINE
  5
11b
100
AcDbEntity
  8
Layer_1
 62
4
100
AcDbSpline
 70
8
 71
3
 72
8
 73
4
 74
0
 40
0
 40
0
 40
0
 40
0
 40
1
 40
1
 40
1
 40
1
 10
286.794281
 20
206.533489
 30
0.0
 10
286.893527
 20
206.632735
 30
0.0
 10
286.949279
 20
206.767345
 30
0.0
 10
286.949270
 20
206.907700
 30
0.0
  0
LINE
  5
11c
100
AcDbEntity
  8
Layer_1
 62
4
100
AcDbLine
 10
286.949270
 20
206.907700
 30
0.0
 11
286.949270
 21
283.107700
 31
0.0
  0
SPLINE
  5
11d
100
AcDbEntity
  8
Layer_1
 62
4
100
AcDbSpline
 70
8
 71
3
 72
8
 73
4
 74
0
 40
0
 40
0
 40
0
 40
0
 40
1
 40
1
 40
1
 40
1
 10
286.949270
 20
283.107700
 30
0.0
 10
286.949279
 20
283.248055
 30
0.0
 10
286.893527
 20
283.382665
 30
0.0
 10
286.794281
 20
283.481911
 30
0.0
  0
SPLINE
  5
11e
100
AcDbEntity
  8
Layer_1
 62
4
100
AcDbSpline
 70
8
 71
3
 72
8
 73
4
 74
0
 40
0
 40
0
 40
0
 40
0
 40
1
 40
1
 40
1
 40
1
 10
286.794281
 20
283.481911
 30
0.0
 10
286.695035
 20
283.581157
 30
0.0
 10
286.560425
 20
283.636909
 30
0.0
 10
286.420070
 20
283.636900
 30
0.0
  0
LINE
  5
11f
100
AcDbEntity
  8
Layer_1
 62
4
100
AcDbLine
 10
286.420070
 20
283.636900
 30
0.0
 11
247.013070
 21
283.636900
 31
0.0
  0
LINE
  5
120
100
AcDbEntity
  8
Layer_1
 62
4
100
AcDbLine
 10
247.013070
 20
283.636900
 30
0.0
 11
185.277510
 21
283.636900
 31
0.0
  0
LINE
  5
121
100
AcDbEntity
  8
Layer_1
 62
4
100
AcDbLine
 10
185.277510
 20
283.636900
 30
0.0
 11
144.225910
 21
283.636900
 31
0.0
  0
LINE
  5
122
100
AcDbEntity
  8
Layer_1
 62
4
100
AcDbLine
 10
144.225910
 20
283.636900
 30
0.0
 11
82.580810
 21
283.636900
 31
0.0
  0
LINE
  5
123
100
AcDbEntity
  8
Layer_1
 62
4
100
AcDbLine
 10
82.580810
 20
283.636900
 30
0.0
 11
43.535860
 21
283.636900
 31
0.0
  0
LINE
  5
124
100
AcDbEntity
  8
Layer_1
 62
4
100
AcDbLine
 10
43.535860
 20
283.636900
 30
0.0
 11
30.623560
 21
283.636900
 31
0.0
  0
SPLINE
  5
125
100
AcDbEntity
  8
Layer_1
 62
4
100
AcDbSpline
 70
8
 71
3
 72
8
 73
4
 74
0
 40
0
 40
0
 40
0
 40
0
 40
1
 40
1
 40
1
 40
1
 10
30.623560
 20
283.636900
 30
0.0
 10
30.483210
 20
283.636899
 30
0.0
 10
30.348608
 20
283.692655
 30
0.0
 10
30.249369
 20
283.791900
 30
0.0
  0
SPLINE
  5
126
100
AcDbEntity
  8
Layer_1
 62
4
100
AcDbSpline
 70
8
 71
3
 72
8
 73
4
 74
0
 40
0
 40
0
 40
0
 40
0
 40
1
 40
1
 40
1
 40
1
 10
30.249369
 20
283.791900
 30
0.0
 10
30.150129
 20
283.891145
 30
0.0
 10
30.094381
 20
284.025750
 30
0.0
 10
30.094390
 20
284.166100
 30
0.0
  0
LINE
  5
127
100
AcDbEntity
  8
Layer_1
 62
4
100
AcDbLine
 10
30.094390
 20
284.166100
 30
0.0
 11
30.094390
 21
294.220900
 31
0.0
  0
SPLINE
  5
128
100
AcDbEntity
  8
Layer_1
 62
4
100
AcDbSpline
 70
8
 71
3
 72
8
 73
4
 74
0
 40
0
 40
0
 40
0
 40
0
 40
1
 40
1
 40
1
 40
1
 10
30.094390
 20
294.220900
 30
0.0
 10
30.094408
 20
295.682139
 30
0.0
 10
31.278981
 20
296.866698
 30
0.0
 10
32.740220
 20
296.866700
 30
0.0
  0
LINE
  5
129
100
AcDbEntity
  8
Layer_1
 62
4
100
AcDbLine
 10
32.740220
 20
296.866700
 30
0.0
 11
32.740800
 21
296.866700
 31
0.0
  0
SPLINE
  5
12a
100
AcDbEntity
  8
Layer_1
 62
4
100
AcDbSpline
 70
8
 71
3
 72
8
 73
4
 74
0
 40
0
 40
0
 40
0
 40
0
 40
1
 40
1
 40
1
 40
1
 10
205.624380
 20
202.381600
 30
0.0
 10
206.257363
 20
202.381600
 30
0.0
 10
206.828019
 20
202.000300
 30
0.0
 10
207.070252
 20
201.415500
 30
0.0
  0
SPLINE
  5
12b
100
AcDbEntity
  8
Layer_1
 62
4
100
AcDbSpline
 70
8
 71
3
 72
8
 73
4
 74
0
 40
0
 40
0
 40
0
 40
0
 40
1
 40
1
 40
1
 40
1
 10
207.070252
 20
201.415500
 30
0.0
 10
207.312484
 20
200.830699
 30
0.0
 10
207.178589
 20
200.157565
 30
0.0
 10
206.731002
 20
199.709978
 30
0.0
  0
SPLINE
  5
12c
100
AcDbEntity
  8
Layer_1
 62
4
100
AcDbSpline
 70
8
 71
3
 72
8
 73
4
 74
0
 40
0
 40
0
 40
0
 40
0
 40
1
 40
1
 40
1
 40
1
 10
206.731002
 20
199.709978
 30
0.0
 10
206.283415
 20
199.262391
 30
0.0
 10
205.610281
 20
199.128496
 30
0.0
 10
205.025480
 20
199.370728
 30
0.0
  0
SPLINE
  5
12d
100
AcDbEntity
  8
Layer_1
 62
4
100
AcDbSpline
 70
8
 71
3
 72
8
 73
4
 74
0
 40
0
 40
0
 40
0
 40
0
 40
1
 40
1
 40
1
 40
1
 10
205.025480
 20
199.370728
 30
0.0
 10
204.440680
 20
199.612961
 30
0.0
 10
204.059380
 20
200.183617
 30
0.0
 10
204.059380
 20
200.816600
 30
0.0
  0
SPLINE
  5
12e
100
AcDbEntity
  8
Layer_1
 62
4
100
AcDbSpline
 70
8
 71
3
 72
8
 73
4
 74
0
 40
0
 40
0
 40
0
 40
0
 40
1
 40
1
 40
1
 40
1
 10
204.059380
 20
200.816600
 30
0.0
 10
204.059380
 20
201.231664
 30
0.0
 10
204.224263
 20
201.629728
 30
0.0
 10
204.517758
 20
201.923222
 30
0.0
  0
SPLINE
  5
12f
100
AcDbEntity
  8
Layer_1
 62
4
100
AcDbSpline
 70
8
 71
3
 72
8
 73
4
 74
0
 40
0
 40
0
 40
0
 40
0
 40
1
 40
1
 40
1
 40
1
 10
204.517758
 20
201.923222
 30
0.0
 10
204.811252
 20
202.216717
 30
0.0
 10
205.209316
 20
202.381600
 30
0.0
 10
205.624380
 20
202.381600
 30
0.0
  0
LINE
  5
130
100
AcDbEntity
  8
Layer_1
 62
4
100
AcDbLine
 10
205.624380
 20
202.381600
 30
0.0
 11
205.624380
 21
202.381600
 31
0.0
  0
SPLINE
  5
131
100
AcDbEntity
  8
Layer_1
 62
4
100
AcDbSpline
 70
8
 71
3
 72
8
 73
4
 74
0
 40
0
 40
0
 40
0
 40
0
 40
1
 40
1
 40
1
 40
1
 10
290.918300
 20
202.384700
 30
0.0
 10
291.551283
 20
202.384700
 30
0.0
 10
292.121939
 20
202.003400
 30
0.0
 10
292.364172
 20
201.418600
 30
0.0
  0
SPLINE
  5
132
100
AcDbEntity
  8
Layer_1
 62
4
100
AcDbSpline
 70
8
 71
3
 72
8
 73
4
 74
0
 40
0
 40
0
 40
0
 40
0
 40
1
 40
1
 40
1
 40
1
 10
292.364172
 20
201.418600
 30
0.0
 10
292.606404
 20
200.833799
 30
0.0
 10
292.472509
 20
200.160665
 30
0.0
 10
292.024922
 20
199.713078
 30
0.0
  0
SPLINE
  5
133
100
AcDbEntity
  8
Layer_1
 62
4
100
AcDbSpline
 70
8
 71
3
 72
8
 73
4
 74
0
 40
0
 40
0
 40
0
 40
0
 40
1
 40
1
 40
1
 40
1
 10
292.024922
 20
199.713078
 30
0.0
 10
291.577335
 20
199.265491
 30
0.0
 10
290.904201
 20
199.131596
 30
0.0
 10
290.319400
 20
199.373828
 30
0.0
  0
SPLINE
  5
134
100
AcDbEntity
  8
Layer_1
 62
4
100
AcDbSpline
 70
8
 71
3
 72
8
 73
4
 74
0
 40
0
 40
0
 40
0
 40
0
 40
1
 40
1
 40
1
 40
1
 10
290.319400
 20
199.373828
 30
0.0
 10
289.734600
 20
199.616061
 30
0.0
 10
289.353300
 20
200.186717
 30
0.0
 10
289.353300
 20
200.819700
 30
0.0
  0
SPLINE
  5
135
100
AcDbEntity
  8
Layer_1
 62
4
100
AcDbSpline
 70
8
 71
3
 72
8
 73
4
 74
0
 40
0
 40
0
 40
0
 40
0
 40
1
 40
1
 40
1
 40
1
 10
289.353300
 20
200.819700
 30
0.0
 10
289.353300
 20
201.234764
 30
0.0
 10
289.518183
 20
201.632828
 30
0.0
 10
289.811678
 20
201.926322
 30
0.0
  0
SPLINE
  5
136
100
AcDbEntity
  8
Layer_1
 62
4
100
AcDbSpline
 70
8
 71
3
 72
8
 73
4
 74
0
 40
0
 40
0
 40
0
 40
0
 40
1
 40
1
 40
1
 40
1
 10
289.811678
 20
201.926322
 30
0.0
 10
290.105172
 20
202.219817
 30
0.0
 10
290.503236
 20
202.384700
 30
0.0
 10
290.918300
 20
202.384700
 30
0.0
  0
LINE
  5
137
100
AcDbEntity
  8
Layer_1
 62
4
100
AcDbLine
 10
290.918300
 20
202.384700
 30
0.0
 11
290.918300
 21
202.384700
 31
0.0
  0
SPLINE
  5
138
100
AcDbEntity
  8
Layer_1
 62
4
100
AcDbSpline
 70
8
 71
3
 72
8
 73
4
 74
0
 40
0
 40
0
 40
0
 40
0
 40
1
 40
1
 40
1
 40
1
 10
290.918300
 20
290.756900
 30
0.0
 10
291.551283
 20
290.756900
 30
0.0
 10
292.121939
 20
290.375600
 30
0.0
 10
292.364172
 20
289.790800
 30
0.0
  0
SPLINE
  5
139
100
AcDbEntity
  8
Layer_1
 62
4
100
AcDbSpline
 70
8
 71
3
 72
8
 73
4
 74
0
 40
0
 40
0
 40
0
 40
0
 40
1
 40
1
 40
1
 40
1
 10
292.364172
 20
289.790800
 30
0.0
 10
292.606404
 20
289.205999
 30
0.0
 10
292.472509
 20
288.532865
 30
0.0
 10
292.024922
 20
288.085278
 30
0.0
  0
SPLINE
  5
13a
100
AcDbEntity
  8
Layer_1
 62
4
100
AcDbSpline
 70
8
 71
3
 72
8
 73
4
 74
0
 40
0
 40
0
 40
0
 40
0
 40
1
 40
1
 40
1
 40
1
 10
292.024922
 20
288.085278
 30
0.0
 10
291.577335
 20
287.637691
 30
0.0
 10
290.904201
 20
287.503796
 30
0.0
 10
290.319400
 20
287.746028
 30
0.0
  0
SPLINE
  5
13b
100
AcDbEntity
  8
Layer_1
 62
4
100
AcDbSpline
 70
8
 71
3
 72
8
 73
4
 74
0
 40
0
 40
0
 40
0
 40
0
 40
1
 40
1
 40
1
 40
1
 10
290.319400
 20
287.746028
 30
0.0
 10
289.734600
 20
287.988261
 30
0.0
 10
289.353300
 20
288.558917
 30
0.0
 10
289.353300
 20
289.191900
 30
0.0
  0
SPLINE
  5
13c
100
AcDbEntity
  8
Layer_1
 62
4
100
AcDbSpline
 70
8
 71
3
 72
8
 73
4
 74
0
 40
0
 40
0
 40
0
 40
0
 40
1
 40
1
 40
1
 40
1
 10
289.353300
 20
289.191900
 30
0.0
 10
289.353300
 20
289.606964
 30
0.0
 10
289.518183
 20
290.005028
 30
0.0
 10
289.811678
 20
290.298522
 30
0.0
  0
SPLINE
  5
13d
100
AcDbEntity
  8
Layer_1
 62
4
100
AcDbSpline
 70
8
 71
3
 72
8
 73
4
 74
0
 40
0
 40
0
 40
0
 40
0
 40
1
 40
1
 40
1
 40
1
 10
289.811678
 20
290.298522
 30
0.0
 10
290.105172
 20
290.592017
 30
0.0
 10
290.503236
 20
290.756900
 30
0.0
 10
290.918300
 20
290.756900
 30
0.0
  0
LINE
  5
13e
100
AcDbEntity
  8
Layer_1
 62
4
100
AcDbLine
 10
290.918300
 20
290.756900
 30
0.0
 11
290.918300
 21
290.756900
 31
0.0
  0
SPLINE
  5
13f
100
AcDbEntity
  8
Layer_1
 62
4
100
AcDbSpline
 70
8
 71
3
 72
8
 73
4
 74
0
 40
0
 40
0
 40
0
 40
0
 40
1
 40
1
 40
1
 40
1
 10
205.625170
 20
290.756900
 30
0.0
 10
206.258153
 20
290.756900
 30
0.0
 10
206.828809
 20
290.375600
 30
0.0
 10
207.071042
 20
289.790800
 30
0.0
  0
SPLINE
  5
140
100
AcDbEntity
  8
Layer_1
 62
4
100
AcDbSpline
 70
8
 71
3
 72
8
 73
4
 74
0
 40
0
 40
0
 40
0
 40
0
 40
1
 40
1
 40
1
 40
1
 10
207.071042
 20
289.790800
 30
0.0
 10
207.313274
 20
289.205999
 30
0.0
 10
207.179379
 20
288.532865
 30
0.0
 10
206.731792
 20
288.085278
 30
0.0
  0
SPLINE
  5
141
100
AcDbEntity
  8
Layer_1
 62
4
100
AcDbSpline
 70
8
 71
3
 72
8
 73
4
 74
0
 40
0
 40
0
 40
0
 40
0
 40
1
 40
1
 40
1
 40
1
 10
206.731792
 20
288.085278
 30
0.0
 10
206.284205
 20
287.637691
 30
0.0
 10
205.611071
 20
287.503796
 30
0.0
 10
205.026270
 20
287.746028
 30
0.0
  0
SPLINE
  5
142
100
AcDbEntity
  8
Layer_1
 62
4
100
AcDbSpline
 70
8
 71
3
 72
8
 73
4
 74
0
 40
0
 40
0
 40
0
 40
0
 40
1
 40
1
 40
1
 40
1
 10
205.026270
 20
287.746028
 30
0.0
 10
204.441470
 20
287.988261
 30
0.0
 10
204.060170
 20
288.558917
 30
0.0
 10
204.060170
 20
289.191900
 30
0.0
  0
SPLINE
  5
143
100
AcDbEntity
  8
Layer_1
 62
4
100
AcDbSpline
 70
8
 71
3
 72
8
 73
4
 74
0
 40
0
 40
0
 40
0
 40
0
 40
1
 40
1
 40
1
 40
1
 10
204.060170
 20
289.191900
 30
0.0
 10
204.060170
 20
289.606964
 30
0.0
 10
204.225053
 20
290.005028
 30
0.0
 10
204.518548
 20
290.298522
 30
0.0
  0
SPLINE
  5
144
100
AcDbEntity
  8
Layer_1
 62
4
100
AcDbSpline
 70
8
 71
3
 72
8
 73
4
 74
0
 40
0
 40
0
 40
0
 40
0
 40
1
 40
1
 40
1
 40
1
 10
204.518548
 20
290.298522
 30
0.0
 10
204.812042
 20
290.592017
 30
0.0
 10
205.210106
 20
290.756900
 30
0.0
 10
205.625170
 20
290.756900
 30
0.0
  0
LINE
  5
145
100
AcDbEntity
  8
Layer_1
 62
4
100
AcDbLine
 10
205.625170
 20
290.756900
 30
0.0
 11
205.625170
 21
290.756900
 31
0.0
  0
SPLINE
  5
146
100
AcDbEntity
  8
Layer_1
 62
4
100
AcDbSpline
 70
8
 71
3
 72
8
 73
4
 74
0
 40
0
 40
0
 40
0
 40
0
 40
1
 40
1
 40
1
 40
1
 10
6.227710
 20
202.384700
 30
0.0
 10
6.860693
 20
202.384700
 30
0.0
 10
7.431349
 20
202.003400
 30
0.0
 10
7.673582
 20
201.418600
 30
0.0
  0
SPLINE
  5
147
100
AcDbEntity
  8
Layer_1
 62
4
100
AcDbSpline
 70
8
 71
3
 72
8
 73
4
 74
0
 40
0
 40
0
 40
0
 40
0
 40
1
 40
1
 40
1
 40
1
 10
7.673582
 20
201.418600
 30
0.0
 10
7.915814
 20
200.833799
 30
0.0
 10
7.781919
 20
200.160665
 30
0.0
 10
7.334332
 20
199.713078
 30
0.0
  0
SPLINE
  5
148
100
AcDbEntity
  8
Layer_1
 62
4
100
AcDbSpline
 70
8
 71
3
 72
8
 73
4
 74
0
 40
0
 40
0
 40
0
 40
0
 40
1
 40
1
 40
1
 40
1
 10
7.334332
 20
199.713078
 30
0.0
 10
6.886745
 20
199.265491
 30
0.0
 10
6.213611
 20
199.131596
 30
0.0
 10
5.628810
 20
199.373828
 30
0.0
  0
SPLINE
  5
149
100
AcDbEntity
  8
Layer_1
 62
4
100
AcDbSpline
 70
8
 71
3
 72
8
 73
4
 74
0
 40
0
 40
0
 40
0
 40
0
 40
1
 40
1
 40
1
 40
1
 10
5.628810
 20
199.373828
 30
0.0
 10
5.044010
 20
199.616061
 30
0.0
 10
4.662710
 20
200.186717
 30
0.0
 10
4.662710
 20
200.819700
 30
0.0
  0
SPLINE
  5
14a
100
AcDbEntity
  8
Layer_1
 62
4
100
AcDbSpline
 70
8
 71
3
 72
8
 73
4
 74
0
 40
0
 40
0
 40
0
 40
0
 40
1
 40
1
 40
1
 40
1
 10
4.662710
 20
200.819700
 30
0.0
 10
4.662710
 20
201.234764
 30
0.0
 10
4.827593
 20
201.632828
 30
0.0
 10
5.121088
 20
201.926322
 30
0.0
  0
SPLINE
  5
14b
100
AcDbEntity
  8
Layer_1
 62
4
100
AcDbSpline
 70
8
 71
3
 72
8
 73
4
 74
0
 40
0
 40
0
 40
0
 40
0
 40
1
 40
1
 40
1
 40
1
 10
5.121088
 20
201.926322
 30
0.0
 10
5.414582
 20
202.219817
 30
0.0
 10
5.812646
 20
202.384700
 30
0.0
 10
6.227710
 20
202.384700
 30
0.0
  0
LINE
  5
14c
100
AcDbEntity
  8
Layer_1
 62
4
100
AcDbLine
 10
6.227710
 20
202.384700
 30
0.0
 11
6.227710
 21
202.384700
 31
0.0
  0
SPLINE
  5
14d
100
AcDbEntity
  8
Layer_1
 62
4
100
AcDbSpline
 70
8
 71
3
 72
8
 73
4
 74
0
 40
0
 40
0
 40
0
 40
0
 40
1
 40
1
 40
1
 40
1
 10
6.227710
 20
290.756900
 30
0.0
 10
6.860693
 20
290.756900
 30
0.0
 10
7.431349
 20
290.375600
 30
0.0
 10
7.673582
 20
289.790800
 30
0.0
  0
SPLINE
  5
14e
100
AcDbEntity
  8
Layer_1
 62
4
100
AcDbSpline
 70
8
 71
3
 72
8
 73
4
 74
0
 40
0
 40
0
 40
0
 40
0
 40
1
 40
1
 40
1
 40
1
 10
7.673582
 20
289.790800
 30
0.0
 10
7.915814
 20
289.205999
 30
0.0
 10
7.781919
 20
288.532865
 30
0.0
 10
7.334332
 20
288.085278
 30
0.0
  0
SPLINE
  5
14f
100
AcDbEntity
  8
Layer_1
 62
4
100
AcDbSpline
 70
8
 71
3
 72
8
 73
4
 74
0
 40
0
 40
0
 40
0
 40
0
 40
1
 40
1
 40
1
 40
1
 10
7.334332
 20
288.085278
 30
0.0
 10
6.886745
 20
287.637691
 30
0.0
 10
6.213611
 20
287.503796
 30
0.0
 10
5.628810
 20
287.746028
 30
0.0
  0
SPLINE
  5
150
100
AcDbEntity
  8
Layer_1
 62
4
100
AcDbSpline
 70
8
 71
3
 72
8
 73
4
 74
0
 40
0
 40
0
 40
0
 40
0
 40
1
 40
1
 40
1
 40
1
 10
5.628810
 20
287.746028
 30
0.0
 10
5.044010
 20
287.988261
 30
0.0
 10
4.662710
 20
288.558917
 30
0.0
 10
4.662710
 20
289.191900
 30
0.0
  0
SPLINE
  5
151
100
AcDbEntity
  8
Layer_1
 62
4
100
AcDbSpline
 70
8
 71
3
 72
8
 73
4
 74
0
 40
0
 40
0
 40
0
 40
0
 40
1
 40
1
 40
1
 40
1
 10
4.662710
 20
289.191900
 30
0.0
 10
4.662710
 20
289.606964
 30
0.0
 10
4.827593
 20
290.005028
 30
0.0
 10
5.121088
 20
290.298522
 30
0.0
  0
SPLINE
  5
152
100
AcDbEntity
  8
Layer_1
 62
4
100
AcDbSpline
 70
8
 71
3
 72
8
 73
4
 74
0
 40
0
 40
0
 40
0
 40
0
 40
1
 40
1
 40
1
 40
1
 10
5.121088
 20
290.298522
 30
0.0
 10
5.414582
 20
290.592017
 30
0.0
 10
5.812646
 20
290.756900
 30
0.0
 10
6.227710
 20
290.756900
 30
0.0
  0
LINE
  5
153
100
AcDbEntity
  8
Layer_1
 62
4
100
AcDbLine
 10
6.227710
 20
290.756900
 30
0.0
 11
6.227710
 21
290.756900
 31
0.0
  0
SPLINE
  5
154
100
AcDbEntity
  8
Layer_1
 62
4
100
AcDbSpline
 70
8
 71
3
 72
8
 73
4
 74
0
 40
0
 40
0
 40
0
 40
0
 40
1
 40
1
 40
1
 40
1
 10
124.320910
 20
202.384700
 30
0.0
 10
124.953893
 20
202.384700
 30
0.0
 10
125.524549
 20
202.003400
 30
0.0
 10
125.766782
 20
201.418600
 30
0.0
  0
SPLINE
  5
155
100
AcDbEntity
  8
Layer_1
 62
4
100
AcDbSpline
 70
8
 71
3
 72
8
 73
4
 74
0
 40
0
 40
0
 40
0
 40
0
 40
1
 40
1
 40
1
 40
1
 10
125.766782
 20
201.418600
 30
0.0
 10
126.009014
 20
200.833799
 30
0.0
 10
125.875119
 20
200.160665
 30
0.0
 10
125.427532
 20
199.713078
 30
0.0
  0
SPLINE
  5
156
100
AcDbEntity
  8
Layer_1
 62
4
100
AcDbSpline
 70
8
 71
3
 72
8
 73
4
 74
0
 40
0
 40
0
 40
0
 40
0
 40
1
 40
1
 40
1
 40
1
 10
125.427532
 20
199.713078
 30
0.0
 10
124.979945
 20
199.265491
 30
0.0
 10
124.306811
 20
199.131596
 30
0.0
 10
123.722010
 20
199.373828
 30
0.0
  0
SPLINE
  5
157
100
AcDbEntity
  8
Layer_1
 62
4
100
AcDbSpline
 70
8
 71
3
 72
8
 73
4
 74
0
 40
0
 40
0
 40
0
 40
0
 40
1
 40
1
 40
1
 40
1
 10
123.722010
 20
199.373828
 30
0.0
 10
123.137210
 20
199.616061
 30
0.0
 10
122.755910
 20
200.186717
 30
0.0
 10
122.755910
 20
200.819700
 30
0.0
  0
SPLINE
  5
158
100
AcDbEntity
  8
Layer_1
 62
4
100
AcDbSpline
 70
8
 71
3
 72
8
 73
4
 74
0
 40
0
 40
0
 40
0
 40
0
 40
1
 40
1
 40
1
 40
1
 10
122.755910
 20
200.819700
 30
0.0
 10
122.755910
 20
201.234764
 30
0.0
 10
122.920793
 20
201.632828
 30
0.0
 10
123.214288
 20
201.926322
 30
0.0
  0
SPLINE
  5
159
100
AcDbEntity
  8
Layer_1
 62
4
100
AcDbSpline
 70
8
 71
3
 72
8
 73
4
 74
0
 40
0
 40
0
 40
0
 40
0
 40
1
 40
1
 40
1
 40
1
 10
123.214288
 20
201.926322
 30
0.0
 10
123.507782
 20
202.219817
 30
0.0
 10
123.905846
 20
202.384700
 30
0.0
 10
124.320910
 20
202.384700
 30
0.0
  0
LINE
  5
15a
100
AcDbEntity
  8
Layer_1
 62
4
100
AcDbLine
 10
124.320910
 20
202.384700
 30
0.0
 11
124.320910
 21
202.384700
 31
0.0
  0
SPLINE
  5
15b
100
AcDbEntity
  8
Layer_1
 62
4
100
AcDbSpline
 70
8
 71
3
 72
8
 73
4
 74
0
 40
0
 40
0
 40
0
 40
0
 40
1
 40
1
 40
1
 40
1
 10
124.320300
 20
290.756900
 30
0.0
 10
124.953283
 20
290.756900
 30
0.0
 10
125.523939
 20
290.375600
 30
0.0
 10
125.766172
 20
289.790800
 30
0.0
  0
SPLINE
  5
15c
100
AcDbEntity
  8
Layer_1
 62
4
100
AcDbSpline
 70
8
 71
3
 72
8
 73
4
 74
0
 40
0
 40
0
 40
0
 40
0
 40
1
 40
1
 40
1
 40
1
 10
125.766172
 20
289.790800
 30
0.0
 10
126.008404
 20
289.205999
 30
0.0
 10
125.874509
 20
288.532865
 30
0.0
 10
125.426922
 20
288.085278
 30
0.0
  0
SPLINE
  5
15d
100
AcDbEntity
  8
Layer_1
 62
4
100
AcDbSpline
 70
8
 71
3
 72
8
 73
4
 74
0
 40
0
 40
0
 40
0
 40
0
 40
1
 40
1
 40
1
 40
1
 10
125.426922
 20
288.085278
 30
0.0
 10
124.979335
 20
287.637691
 30
0.0
 10
124.306201
 20
287.503796
 30
0.0
 10
123.721400
 20
287.746028
 30
0.0
  0
SPLINE
  5
15e
100
AcDbEntity
  8
Layer_1
 62
4
100
AcDbSpline
 70
8
 71
3
 72
8
 73
4
 74
0
 40
0
 40
0
 40
0
 40
0
 40
1
 40
1
 40
1
 40
1
 10
123.721400
 20
287.746028
 30
0.0
 10
123.136600
 20
287.988261
 30
0.0
 10
122.755300
 20
288.558917
 30
0.0
 10
122.755300
 20
289.191900
 30
0.0
  0
SPLINE
  5
15f
100
AcDbEntity
  8
Layer_1
 62
4
100
AcDbSpline
 70
8
 71
3
 72
8
 73
4
 74
0
 40
0
 40
0
 40
0
 40
0
 40
1
 40
1
 40
1
 40
1
 10
122.755300
 20
289.191900
 30
0.0
 10
122.755300
 20
289.606964
 30
0.0
 10
122.920183
 20
290.005028
 30
0.0
 10
123.213678
 20
290.298522
 30
0.0
  0
SPLINE
  5
160
100
AcDbEntity
  8
Layer_1
 62
4
100
AcDbSpline
 70
8
 71
3
 72
8
 73
4
 74
0
 40
0
 40
0
 40
0
 40
0
 40
1
 40
1
 40
1
 40
1
 10
123.213678
 20
290.298522
 30
0.0
 10
123.507172
 20
290.592017
 30
0.0
 10
123.905236
 20
290.756900
 30
0.0
 10
124.320300
 20
290.756900
 30
0.0
  0
LINE
  5
161
100
AcDbEntity
  8
Layer_1
 62
4
100
AcDbLine
 10
124.320300
 20
290.756900
 30
0.0
 11
124.320300
 21
290.756900
 31
0.0
  0
SPLINE
  5
162
100
AcDbEntity
  8
Layer_1
 62
4
100
AcDbSpline
 70
8
 71
3
 72
8
 73
4
 74
0
 40
0
 40
0
 40
0
 40
0
 40
1
 40
1
 40
1
 40
1
 10
39.084827
 20
290.757364
 30
0.0
 10
39.717810
 20
290.757364
 30
0.0
 10
40.288466
 20
290.376064
 30
0.0
 10
40.530699
 20
289.791263
 30
0.0
  0
SPLINE
  5
163
100
AcDbEntity
  8
Layer_1
 62
4
100
AcDbSpline
 70
8
 71
3
 72
8
 73
4
 74
0
 40
0
 40
0
 40
0
 40
0
 40
1
 40
1
 40
1
 40
1
 10
40.530699
 20
289.791263
 30
0.0
 10
40.772931
 20
289.206463
 30
0.0
 10
40.639036
 20
288.533328
 30
0.0
 10
40.191449
 20
288.085742
 30
0.0
  0
SPLINE
  5
164
100
AcDbEntity
  8
Layer_1
 62
4
100
AcDbSpline
 70
8
 71
3
 72
8
 73
4
 74
0
 40
0
 40
0
 40
0
 40
0
 40
1
 40
1
 40
1
 40
1
 10
40.191449
 20
288.085742
 30
0.0
 10
39.743862
 20
287.638155
 30
0.0
 10
39.070728
 20
287.504260
 30
0.0
 10
38.485927
 20
287.746492
 30
0.0
  0
SPLINE
  5
165
100
AcDbEntity
  8
Layer_1
 62
4
100
AcDbSpline
 70
8
 71
3
 72
8
 73
4
 74
0
 40
0
 40
0
 40
0
 40
0
 40
1
 40
1
 40
1
 40
1
 10
38.485927
 20
287.746492
 30
0.0
 10
37.901127
 20
287.988724
 30
0.0
 10
37.519827
 20
288.559380
 30
0.0
 10
37.519827
 20
289.192364
 30
0.0
  0
SPLINE
  5
166
100
AcDbEntity
  8
Layer_1
 62
4
100
AcDbSpline
 70
8
 71
3
 72
8
 73
4
 74
0
 40
0
 40
0
 40
0
 40
0
 40
1
 40
1
 40
1
 40
1
 10
37.519827
 20
289.192364
 30
0.0
 10
37.519827
 20
289.607428
 30
0.0
 10
37.684710
 20
290.005491
 30
0.0
 10
37.978205
 20
290.298986
 30
0.0
  0
SPLINE
  5
167
100
AcDbEntity
  8
Layer_1
 62
4
100
AcDbSpline
 70
8
 71
3
 72
8
 73
4
 74
0
 40
0
 40
0
 40
0
 40
0
 40
1
 40
1
 40
1
 40
1
 10
37.978205
 20
290.298986
 30
0.0
 10
38.271699
 20
290.592480
 30
0.0
 10
38.669763
 20
290.757364
 30
0.0
 10
39.084827
 20
290.757364
 30
0.0
  0
LINE
  5
168
100
AcDbEntity
  8
Layer_1
 62
4
100
AcDbLine
 10
39.084827
 20
290.757364
 30
0.0
 11
39.084827
 21
290.757364
 31
0.0
  0
SPLINE
  5
169
100
AcDbEntity
  8
Layer_1
 62
4
100
AcDbSpline
 70
8
 71
3
 72
8
 73
4
 74
0
 40
0
 40
0
 40
0
 40
0
 40
1
 40
1
 40
1
 40
1
 10
39.084827
 20
202.385175
 30
0.0
 10
39.717810
 20
202.385175
 30
0.0
 10
40.288466
 20
202.003875
 30
0.0
 10
40.530699
 20
201.419075
 30
0.0
  0
SPLINE
  5
16a
100
AcDbEntity
  8
Layer_1
 62
4
100
AcDbSpline
 70
8
 71
3
 72
8
 73
4
 74
0
 40
0
 40
0
 40
0
 40
0
 40
1
 40
1
 40
1
 40
1
 10
40.530699
 20
201.419075
 30
0.0
 10
40.772931
 20
200.834274
 30
0.0
 10
40.639036
 20
200.161140
 30
0.0
 10
40.191449
 20
199.713553
 30
0.0
  0
SPLINE
  5
16b
100
AcDbEntity
  8
Layer_1
 62
4
100
AcDbSpline
 70
8
 71
3
 72
8
 73
4
 74
0
 40
0
 40
0
 40
0
 40
0
 40
1
 40
1
 40
1
 40
1
 10
40.191449
 20
199.713553
 30
0.0
 10
39.743862
 20
199.265966
 30
0.0
 10
39.070728
 20
199.132071
 30
0.0
 10
38.485927
 20
199.374303
 30
0.0
  0
SPLINE
  5
16c
100
AcDbEntity
  8
Layer_1
 62
4
100
AcDbSpline
 70
8
 71
3
 72
8
 73
4
 74
0
 40
0
 40
0
 40
0
 40
0
 40
1
 40
1
 40
1
 40
1
 10
38.485927
 20
199.374303
 30
0.0
 10
37.901127
 20
199.616536
 30
0.0
 10
37.519827
 20
200.187192
 30
0.0
 10
37.519827
 20
200.820175
 30
0.0
  0
SPLINE
  5
16d
100
AcDbEntity
  8
Layer_1
 62
4
100
AcDbSpline
 70
8
 71
3
 72
8
 73
4
 74
0
 40
0
 40
0
 40
0
 40
0
 40
1
 40
1
 40
1
 40
1
 10
37.519827
 20
200.820175
 30
0.0
 10
37.519827
 20
201.235239
 30
0.0
 10
37.684710
 20
201.633303
 30
0.0
 10
37.978205
 20
201.926797
 30
0.0
  0
SPLINE
  5
16e
100
AcDbEntity
  8
Layer_1
 62
4
100
AcDbSpline
 70
8
 71
3
 72
8
 73
4
 74
0
 40
0
 40
0
 40
0
 40
0
 40
1
 40
1
 40
1
 40
1
 10
37.978205
 20
201.926797
 30
0.0
 10
38.271699
 20
202.220292
 30
0.0
 10
38.669763
 20
202.385175
 30
0.0
 10
39.084827
 20
202.385175
 30
0.0
  0
LINE
  5
16f
100
AcDbEntity
  8
Layer_1
 62
4
100
AcDbLine
 10
39.084827
 20
202.385175
 30
0.0
 11
39.084827
 21
202.385175
 31
0.0
  0
ENDSEC
  0
SECTION
  2
OBJECTS
  0
DICTIONARY
  5
C
330
0
100
AcDbDictionary
  3
ACAD_GROUP
350
D
  3
ACAD_MLINESTYLE
350
17
  0
DICTIONARY
  5
D
330
C
100
AcDbDictionary
  0
DICTIONARY
  5
1A
330
C
100
AcDbDictionary
  0
DICTIONARY
  5
17
330
C
100
AcDbDictionary
  3
STANDARD
350
18
  0
DICTIONARY
  5
19
330
C
100
AcDbDictionary
  0
ENDSEC
  0
EOF
