  0
SECTION
  2
HEADER
  9
$ACADVER
  1
AC1014
  9
$HANDSEED
  5
FFFF
  9
$INSUNITS
 70
     0
  9
$MEASUREMENT
 70
     1
  0
ENDSEC
  0
SECTION
  2
TABLES
  0
TABLE
  2
VPORT
  5
8
330
0
100
AcDbSymbolTable
 70
     4
  0
VPORT
  5
2E
330
8
100
AcDbSymbolTableRecord
100
AcDbViewportTableRecord
  2
*ACTIVE
 70
     0
 10
0.0
 20
0.0
 11
1.0
 21
1.0
 12
210.0
 22
148.5
 13
0.0
 23
0.0
 14
10.0
 24
10.0
 15
10.0
 25
10.0
 16
0.0
 26
0.0
 36
1.0
 17
0.0
 27
0.0
 37
0.0
 40
341.0
 41
1.24
 42
50.0
 43
0.0
 44
0.0
 50
0.0
 51
0.0
 71
     0
 72
   100
 73
     1
 74
     3
 75
     0
 76
     0
 77
     0
 78
     0
  0
ENDTAB
  0
TABLE
  2
LTYPE
  5
5
330
0
100
AcDbSymbolTable
 70
     1
  0
LTYPE
  5
14
330
5
100
AcDbSymbolTableRecord
100
AcDbLinetypeTableRecord
  2
BYBLOCK
 70
     0
  3

 72
    65
 73
     0
 40
0.0
  0
LTYPE
  5
15
330
5
100
AcDbSymbolTableRecord
100
AcDbLinetypeTableRecord
  2
BYLAYER
 70
     0
  3

 72
    65
 73
     0
 40
0.0
  0
LTYPE
  5
16
330
5
100
AcDbSymbolTableRecord
100
AcDbLinetypeTableRecord
  2
CONTINUOUS
 70
     0
  3
Solid line
 72
    65
 73
     0
 40
0.0
  0
ENDTAB
  0
TABLE
  2
LAYER
  5
2
100
AcDbSymbolTable
 70
2
  0
LAYER
  5
50
100
AcDbSymbolTableRecord
100
AcDbLayerTableRecord
  2
0
 70
0
  6
CONTINUOUS
  0
LAYER
  5
51
100
AcDbSymbolTableRecord
100
AcDbLayerTableRecord
  2
Layer_1
 70
0
  6
CONTINUOUS
  0
ENDTAB
  0
TABLE
  2
STYLE
  5
3
330
0
100
AcDbSymbolTable
 70
     1
  0
STYLE
  5
11
330
3
100
AcDbSymbolTableRecord
100
AcDbTextStyleTableRecord
  2
STANDARD
 70
     0
 40
0.0
 41
1.0
 50
0.0
 71
     0
 42
2.5
  3
txt
  4

  0
ENDTAB
  0
TABLE
  2
VIEW
  5
6
330
0
100
AcDbSymbolTable
 70
     0
  0
ENDTAB
  0
TABLE
  2
UCS
  5
7
330
0
100
AcDbSymbolTable
 70
     0
  0
ENDTAB
  0
TABLE
  2
APPID
  5
9
330
0
100
AcDbSymbolTable
 70
     2
  0
APPID
  5
12
330
9
100
AcDbSymbolTableRecord
100
AcDbRegAppTableRecord
  2
ACAD
 70
     0
  0
ENDTAB
  0
TABLE
  2
DIMSTYLE
  5
A
330
0
100
AcDbSymbolTable
 70
     1
  0
DIMSTYLE
105
27
330
A
100
AcDbSymbolTableRecord
100
AcDbDimStyleTableRecord
  2
ISO-25
 70
     0
  3

  4

  5

  6

  7

 40
1.0
 41
2.5
 42
0.625
 43
3.75
 44
1.25
 45
0.0
 46
0.0
 47
0.0
 48
0.0
140
2.5
141
2.5
142
0.0
143
0.03937007874016
144
1.0
145
0.0
146
1.0
147
0.625
 71
     0
 72
     0
 73
     0
 74
     0
 75
     0
 76
     0
 77
     1
 78
     8
170
     0
171
     3
172
     1
173
     0
174
     0
175
     0
176
     0
177
     0
178
     0
270
     2
271
     2
272
     2
273
     2
274
     3
340
11
275
     0
280
     0
281
     0
282
     0
283
     0
284
     8
285
     0
286
     0
287
     3
288
     0
  0
ENDTAB
  0
TABLE
  2
BLOCK_RECORD
  5
1
330
0
100
AcDbSymbolTable
 70
     1
  0
BLOCK_RECORD
  5
1F
330
1
100
AcDbSymbolTableRecord
100
AcDbBlockTableRecord
  2
*MODEL_SPACE
  0
BLOCK_RECORD
  5
1B
330
1
100
AcDbSymbolTableRecord
100
AcDbBlockTableRecord
  2
*PAPER_SPACE
  0
ENDTAB
  0
ENDSEC
  0
SECTION
  2
BLOCKS
  0
BLOCK
  5
20
330
1F
100
AcDbEntity
  8
0
100
AcDbBlockBegin
  2
*MODEL_SPACE
 70
     0
 10
0.0
 20
0.0
 30
0.0
  3
*MODEL_SPACE
  1

  0
ENDBLK
  5
21
330
1F
100
AcDbEntity
  8
0
100
AcDbBlockEnd
  0
BLOCK
  5
1C
330
1B
100
AcDbEntity
 67
     1
  8
0
100
AcDbBlockBegin
  2
*PAPER_SPACE
  1

  0
ENDBLK
  5
1D
330
1B
100
AcDbEntity
 67
     1
  8
0
100
AcDbBlockEnd
  0
ENDSEC
  0
SECTION
  2
ENTITIES
  0
LINE
  5
100
100
AcDbEntity
  8
Layer_1
 62
3
100
AcDbLine
 10
3.837240
 20
195.261200
 30
0.0
 11
90.520820
 21
195.261200
 31
0.0
  0
LINE
  5
101
100
AcDbEntity
  8
Layer_1
 62
3
100
AcDbLine
 10
90.520820
 20
195.261200
 30
0.0
 11
136.278640
 21
195.261200
 31
0.0
  0
LINE
  5
102
100
AcDbEntity
  8
Layer_1
 62
3
100
AcDbLine
 10
136.278640
 20
195.261200
 30
0.0
 11
193.208320
 21
195.261200
 31
0.0
  0
LINE
  5
103
100
AcDbEntity
  8
Layer_1
 62
3
100
AcDbLine
 10
193.208320
 20
195.261200
 30
0.0
 11
239.108950
 21
195.261200
 31
0.0
  0
LINE
  5
104
100
AcDbEntity
  8
Layer_1
 62
3
100
AcDbLine
 10
239.108950
 20
195.261200
 30
0.0
 11
295.417530
 21
195.261200
 31
0.0
  0
SPLINE
  5
105
100
AcDbEntity
  8
Layer_1
 62
3
100
AcDbSpline
 70
8
 71
3
 72
8
 73
4
 74
0
 40
0
 40
0
 40
0
 40
0
 40
1
 40
1
 40
1
 40
1
 10
295.417530
 20
195.261200
 30
0.0
 10
295.838561
 20
195.261200
 30
0.0
 10
296.242348
 20
195.428454
 30
0.0
 10
296.540062
 20
195.726168
 30
0.0
  0
SPLINE
  5
106
100
AcDbEntity
  8
Layer_1
 62
3
100
AcDbSpline
 70
8
 71
3
 72
8
 73
4
 74
0
 40
0
 40
0
 40
0
 40
0
 40
1
 40
1
 40
1
 40
1
 10
296.540062
 20
195.726168
 30
0.0
 10
296.837776
 20
196.023882
 30
0.0
 10
297.005030
 20
196.427669
 30
0.0
 10
297.005030
 20
196.848700
 30
0.0
  0
LINE
  5
107
100
AcDbEntity
  8
Layer_1
 62
3
100
AcDbLine
 10
297.005030
 20
196.848700
 30
0.0
 11
297.005030
 21
293.162000
 31
0.0
  0
SPLINE
  5
108
100
AcDbEntity
  8
Layer_1
 62
3
100
AcDbSpline
 70
8
 71
3
 72
8
 73
4
 74
0
 40
0
 40
0
 40
0
 40
0
 40
1
 40
1
 40
1
 40
1
 10
297.005030
 20
293.162000
 30
0.0
 10
297.005030
 20
293.583031
 30
0.0
 10
296.837776
 20
293.986818
 30
0.0
 10
296.540062
 20
294.284532
 30
0.0
  0
SPLINE
  5
109
100
AcDbEntity
  8
Layer_1
 62
3
100
AcDbSpline
 70
8
 71
3
 72
8
 73
4
 74
0
 40
0
 40
0
 40
0
 40
0
 40
1
 40
1
 40
1
 40
1
 10
296.540062
 20
294.284532
 30
0.0
 10
296.242348
 20
294.582246
 30
0.0
 10
295.838561
 20
294.749500
 30
0.0
 10
295.417530
 20
294.749500
 30
0.0
  0
LINE
  5
10a
100
AcDbEntity
  8
Layer_1
 62
3
100
AcDbLine
 10
295.417530
 20
294.749500
 30
0.0
 11
242.248790
 21
294.749500
 31
0.0
  0
LINE
  5
10b
100
AcDbEntity
  8
Layer_1
 62
3
100
AcDbLine
 10
242.248790
 20
294.749500
 30
0.0
 11
196.389320
 21
294.749500
 31
0.0
  0
LINE
  5
10c
100
AcDbEntity
  8
Layer_1
 62
3
100
AcDbLine
 10
196.389320
 20
294.749500
 30
0.0
 11
139.457680
 21
294.749500
 31
0.0
  0
LINE
  5
10d
100
AcDbEntity
  8
Layer_1
 62
3
100
AcDbLine
 10
139.457680
 20
294.749500
 30
0.0
 11
93.696050
 21
294.749500
 31
0.0
  0
LINE
  5
10e
100
AcDbEntity
  8
Layer_1
 62
3
100
AcDbLine
 10
93.696050
 20
294.749500
 30
0.0
 11
3.847240
 21
294.749500
 31
0.0
  0
SPLINE
  5
10f
100
AcDbEntity
  8
Layer_1
 62
3
100
AcDbSpline
 70
8
 71
3
 72
8
 73
4
 74
0
 40
0
 40
0
 40
0
 40
0
 40
1
 40
1
 40
1
 40
1
 10
3.847240
 20
294.749500
 30
0.0
 10
2.970462
 20
294.749500
 30
0.0
 10
2.259668
 20
294.038778
 30
0.0
 10
2.259580
 20
293.162000
 30
0.0
  0
LINE
  5
110
100
AcDbEntity
  8
Layer_1
 62
3
100
AcDbLine
 10
2.259580
 20
293.162000
 30
0.0
 11
2.249580
 21
196.848700
 31
0.0
  0
SPLINE
  5
111
100
AcDbEntity
  8
Layer_1
 62
3
100
AcDbSpline
 70
8
 71
3
 72
8
 73
4
 74
0
 40
0
 40
0
 40
0
 40
0
 40
1
 40
1
 40
1
 40
1
 10
2.249580
 20
196.848700
 30
0.0
 10
2.249538
 20
196.427684
 30
0.0
 10
2.416756
 20
196.023896
 30
0.0
 10
2.714445
 20
195.726178
 30
0.0
  0
SPLINE
  5
112
100
AcDbEntity
  8
Layer_1
 62
3
100
AcDbSpline
 70
8
 71
3
 72
8
 73
4
 74
0
 40
0
 40
0
 40
0
 40
0
 40
1
 40
1
 40
1
 40
1
 10
2.714445
 20
195.726178
 30
0.0
 10
3.012133
 20
195.428459
 30
0.0
 10
3.415904
 20
195.261200
 30
0.0
 10
3.836920
 20
195.261200
 30
0.0
  0
LINE
  5
113
100
AcDbEntity
  8
Layer_1
 62
3
100
AcDbLine
 10
3.836920
 20
195.261200
 30
0.0
 11
3.837240
 21
195.261200
 31
0.0
  0
LINE
  5
114
100
AcDbEntity
  8
Layer_1
 62
3
100
AcDbLine
 10
14.636963
 20
230.807682
 30
0.0
 11
32.795792
 21
230.807682
 31
0.0
  0
SPLINE
  5
115
100
AcDbEntity
  8
Layer_1
 62
3
100
AcDbSpline
 70
8
 71
3
 72
8
 73
4
 74
0
 40
0
 40
0
 40
0
 40
0
 40
1
 40
1
 40
1
 40
1
 10
32.795792
 20
230.807682
 30
0.0
 10
34.659873
 20
230.807682
 30
0.0
 10
36.170892
 20
232.304612
 30
0.0
 10
36.170834
 20
234.151134
 30
0.0
  0
SPLINE
  5
116
100
AcDbEntity
  8
Layer_1
 62
3
100
AcDbSpline
 70
8
 71
3
 72
8
 73
4
 74
0
 40
0
 40
0
 40
0
 40
0
 40
1
 40
1
 40
1
 40
1
 10
36.170834
 20
234.151134
 30
0.0
 10
36.170375
 20
249.530939
 30
0.0
 10
36.174024
 20
264.910680
 30
0.0
 10
36.171472
 20
280.290485
 30
0.0
  0
SPLINE
  5
117
100
AcDbEntity
  8
Layer_1
 62
3
100
AcDbSpline
 70
8
 71
3
 72
8
 73
4
 74
0
 40
0
 40
0
 40
0
 40
0
 40
1
 40
1
 40
1
 40
1
 10
36.171472
 20
280.290485
 30
0.0
 10
36.171179
 20
282.137007
 30
0.0
 10
34.659713
 20
283.633937
 30
0.0
 10
32.795633
 20
283.633937
 30
0.0
  0
LINE
  5
118
100
AcDbEntity
  8
Layer_1
 62
3
100
AcDbLine
 10
32.795633
 20
283.633937
 30
0.0
 11
14.642481
 21
283.633937
 31
0.0
  0
SPLINE
  5
119
100
AcDbEntity
  8
Layer_1
 62
3
100
AcDbSpline
 70
8
 71
3
 72
8
 73
4
 74
0
 40
0
 40
0
 40
0
 40
0
 40
1
 40
1
 40
1
 40
1
 10
14.642481
 20
283.633937
 30
0.0
 10
12.778336
 20
283.633937
 30
0.0
 10
11.267096
 20
282.137077
 30
0.0
 10
11.266909
 20
280.290485
 30
0.0
  0
LINE
  5
11a
100
AcDbEntity
  8
Layer_1
 62
3
100
AcDbLine
 10
11.266909
 20
280.290485
 30
0.0
 11
11.261807
 21
234.151134
 31
0.0
  0
SPLINE
  5
11b
100
AcDbEntity
  8
Layer_1
 62
3
100
AcDbSpline
 70
8
 71
3
 72
8
 73
4
 74
0
 40
0
 40
0
 40
0
 40
0
 40
1
 40
1
 40
1
 40
1
 10
11.261807
 20
234.151134
 30
0.0
 10
11.261706
 20
233.264429
 30
0.0
 10
11.617225
 20
232.414008
 30
0.0
 10
12.250145
 20
231.786978
 30
0.0
  0
SPLINE
  5
11c
100
AcDbEntity
  8
Layer_1
 62
3
100
AcDbSpline
 70
8
 71
3
 72
8
 73
4
 74
0
 40
0
 40
0
 40
0
 40
0
 40
1
 40
1
 40
1
 40
1
 10
12.250145
 20
231.786978
 30
0.0
 10
12.883065
 20
231.159948
 30
0.0
 10
13.741530
 20
230.807681
 30
0.0
 10
14.636664
 20
230.807682
 30
0.0
  0
LINE
  5
11d
100
AcDbEntity
  8
Layer_1
 62
3
100
AcDbLine
 10
14.636664
 20
230.807682
 30
0.0
 11
14.636963
 21
230.807682
 31
0.0
  0
LINE
  5
11e
100
AcDbEntity
  8
Layer_1
 62
3
100
AcDbLine
 10
45.644540
 20
206.376400
 30
0.0
 11
83.639000
 21
206.376400
 31
0.0
  0
LINE
  5
11f
100
AcDbEntity
  8
Layer_1
 62
3
100
AcDbLine
 10
83.639000
 20
206.376400
 30
0.0
 11
84.169170
 21
206.376400
 31
0.0
  0
LINE
  5
120
100
AcDbEntity
  8
Layer_1
 62
3
100
AcDbLine
 10
84.169170
 20
206.376400
 30
0.0
 11
186.327320
 21
206.376400
 31
0.0
  0
LINE
  5
121
100
AcDbEntity
  8
Layer_1
 62
3
100
AcDbLine
 10
186.327320
 20
206.376400
 30
0.0
 11
186.857490
 21
206.376400
 31
0.0
  0
LINE
  5
122
100
AcDbEntity
  8
Layer_1
 62
3
100
AcDbLine
 10
186.857490
 20
206.376400
 30
0.0
 11
248.068130
 21
206.376400
 31
0.0
  0
LINE
  5
123
100
AcDbEntity
  8
Layer_1
 62
3
100
AcDbLine
 10
248.068130
 20
206.376400
 30
0.0
 11
248.607330
 21
206.376400
 31
0.0
  0
LINE
  5
124
100
AcDbEntity
  8
Layer_1
 62
3
100
AcDbLine
 10
248.607330
 20
206.376400
 30
0.0
 11
288.537330
 21
206.376400
 31
0.0
  0
SPLINE
  5
125
100
AcDbEntity
  8
Layer_1
 62
3
100
AcDbSpline
 70
8
 71
3
 72
8
 73
4
 74
0
 40
0
 40
0
 40
0
 40
0
 40
1
 40
1
 40
1
 40
1
 10
288.537330
 20
206.376400
 30
0.0
 10
288.677685
 20
206.376391
 30
0.0
 10
288.812295
 20
206.432143
 30
0.0
 10
288.911541
 20
206.531389
 30
0.0
  0
SPLINE
  5
126
100
AcDbEntity
  8
Layer_1
 62
3
100
AcDbSpline
 70
8
 71
3
 72
8
 73
4
 74
0
 40
0
 40
0
 40
0
 40
0
 40
1
 40
1
 40
1
 40
1
 10
288.911541
 20
206.531389
 30
0.0
 10
289.010787
 20
206.630635
 30
0.0
 10
289.066539
 20
206.765245
 30
0.0
 10
289.066530
 20
206.905600
 30
0.0
  0
LINE
  5
127
100
AcDbEntity
  8
Layer_1
 62
3
100
AcDbLine
 10
289.066530
 20
206.905600
 30
0.0
 11
289.066530
 21
283.105600
 31
0.0
  0
SPLINE
  5
128
100
AcDbEntity
  8
Layer_1
 62
3
100
AcDbSpline
 70
8
 71
3
 72
8
 73
4
 74
0
 40
0
 40
0
 40
0
 40
0
 40
1
 40
1
 40
1
 40
1
 10
289.066530
 20
283.105600
 30
0.0
 10
289.066539
 20
283.245955
 30
0.0
 10
289.010787
 20
283.380565
 30
0.0
 10
288.911541
 20
283.479811
 30
0.0
  0
SPLINE
  5
129
100
AcDbEntity
  8
Layer_1
 62
3
100
AcDbSpline
 70
8
 71
3
 72
8
 73
4
 74
0
 40
0
 40
0
 40
0
 40
0
 40
1
 40
1
 40
1
 40
1
 10
288.911541
 20
283.479811
 30
0.0
 10
288.812295
 20
283.579057
 30
0.0
 10
288.677685
 20
283.634809
 30
0.0
 10
288.537330
 20
283.634800
 30
0.0
  0
LINE
  5
12a
100
AcDbEntity
  8
Layer_1
 62
3
100
AcDbLine
 10
288.537330
 20
283.634800
 30
0.0
 11
249.130330
 21
283.634800
 31
0.0
  0
LINE
  5
12b
100
AcDbEntity
  8
Layer_1
 62
3
100
AcDbLine
 10
249.130330
 20
283.634800
 30
0.0
 11
248.601130
 21
283.634800
 31
0.0
  0
LINE
  5
12c
100
AcDbEntity
  8
Layer_1
 62
3
100
AcDbLine
 10
248.601130
 20
283.634800
 30
0.0
 11
187.394770
 21
283.634800
 31
0.0
  0
LINE
  5
12d
100
AcDbEntity
  8
Layer_1
 62
3
100
AcDbLine
 10
187.394770
 20
283.634800
 30
0.0
 11
186.861600
 21
283.634800
 31
0.0
  0
LINE
  5
12e
100
AcDbEntity
  8
Layer_1
 62
3
100
AcDbLine
 10
186.861600
 20
283.634800
 30
0.0
 11
84.698070
 21
283.634800
 31
0.0
  0
LINE
  5
12f
100
AcDbEntity
  8
Layer_1
 62
3
100
AcDbLine
 10
84.698070
 20
283.634800
 30
0.0
 11
84.168170
 21
283.634800
 31
0.0
  0
LINE
  5
130
100
AcDbEntity
  8
Layer_1
 62
3
100
AcDbLine
 10
84.168170
 20
283.634800
 30
0.0
 11
45.653440
 21
283.634800
 31
0.0
  0
SPLINE
  5
131
100
AcDbEntity
  8
Layer_1
 62
3
100
AcDbSpline
 70
8
 71
3
 72
8
 73
4
 74
0
 40
0
 40
0
 40
0
 40
0
 40
1
 40
1
 40
1
 40
1
 10
45.653440
 20
283.634800
 30
0.0
 10
45.361166
 20
283.634801
 30
0.0
 10
45.124225
 20
283.397874
 30
0.0
 10
45.124210
 20
283.105600
 30
0.0
  0
LINE
  5
132
100
AcDbEntity
  8
Layer_1
 62
3
100
AcDbLine
 10
45.124210
 20
283.105600
 30
0.0
 11
45.115210
 21
206.905600
 31
0.0
  0
SPLINE
  5
133
100
AcDbEntity
  8
Layer_1
 62
3
100
AcDbSpline
 70
8
 71
3
 72
8
 73
4
 74
0
 40
0
 40
0
 40
0
 40
0
 40
1
 40
1
 40
1
 40
1
 10
45.115210
 20
206.905600
 30
0.0
 10
45.115185
 20
206.765255
 30
0.0
 10
45.170919
 20
206.630650
 30
0.0
 10
45.270150
 20
206.531403
 30
0.0
  0
SPLINE
  5
134
100
AcDbEntity
  8
Layer_1
 62
3
100
AcDbSpline
 70
8
 71
3
 72
8
 73
4
 74
0
 40
0
 40
0
 40
0
 40
0
 40
1
 40
1
 40
1
 40
1
 10
45.270150
 20
206.531403
 30
0.0
 10
45.369380
 20
206.432156
 30
0.0
 10
45.503975
 20
206.376399
 30
0.0
 10
45.644320
 20
206.376400
 30
0.0
  0
LINE
  5
135
100
AcDbEntity
  8
Layer_1
 62
3
100
AcDbLine
 10
45.644320
 20
206.376400
 30
0.0
 11
45.644540
 21
206.376400
 31
0.0
  0
SPLINE
  5
136
100
AcDbEntity
  8
Layer_1
 62
3
100
AcDbSpline
 70
8
 71
3
 72
8
 73
4
 74
0
 40
0
 40
0
 40
0
 40
0
 40
1
 40
1
 40
1
 40
1
 10
207.741380
 20
201.766600
 30
0.0
 10
208.125619
 20
201.766600
 30
0.0
 10
208.472024
 20
201.535140
 30
0.0
 10
208.619066
 20
201.180149
 30
0.0
  0
SPLINE
  5
137
100
AcDbEntity
  8
Layer_1
 62
3
100
AcDbSpline
 70
8
 71
3
 72
8
 73
4
 74
0
 40
0
 40
0
 40
0
 40
0
 40
1
 40
1
 40
1
 40
1
 10
208.619066
 20
201.180149
 30
0.0
 10
208.766107
 20
200.825159
 30
0.0
 10
208.684830
 20
200.416547
 30
0.0
 10
208.413131
 20
200.144849
 30
0.0
  0
SPLINE
  5
138
100
AcDbEntity
  8
Layer_1
 62
3
100
AcDbSpline
 70
8
 71
3
 72
8
 73
4
 74
0
 40
0
 40
0
 40
0
 40
0
 40
1
 40
1
 40
1
 40
1
 10
208.413131
 20
200.144849
 30
0.0
 10
208.141433
 20
199.873150
 30
0.0
 10
207.732821
 20
199.791873
 30
0.0
 10
207.377831
 20
199.938914
 30
0.0
  0
SPLINE
  5
139
100
AcDbEntity
  8
Layer_1
 62
3
100
AcDbSpline
 70
8
 71
3
 72
8
 73
4
 74
0
 40
0
 40
0
 40
0
 40
0
 40
1
 40
1
 40
1
 40
1
 10
207.377831
 20
199.938914
 30
0.0
 10
207.022840
 20
200.085956
 30
0.0
 10
206.791380
 20
200.432361
 30
0.0
 10
206.791380
 20
200.816600
 30
0.0
  0
SPLINE
  5
13a
100
AcDbEntity
  8
Layer_1
 62
3
100
AcDbSpline
 70
8
 71
3
 72
8
 73
4
 74
0
 40
0
 40
0
 40
0
 40
0
 40
1
 40
1
 40
1
 40
1
 10
206.791380
 20
200.816600
 30
0.0
 10
206.791380
 20
201.068556
 30
0.0
 10
206.891469
 20
201.310192
 30
0.0
 10
207.069629
 20
201.488351
 30
0.0
  0
SPLINE
  5
13b
100
AcDbEntity
  8
Layer_1
 62
3
100
AcDbSpline
 70
8
 71
3
 72
8
 73
4
 74
0
 40
0
 40
0
 40
0
 40
0
 40
1
 40
1
 40
1
 40
1
 10
207.069629
 20
201.488351
 30
0.0
 10
207.247788
 20
201.666511
 30
0.0
 10
207.489424
 20
201.766600
 30
0.0
 10
207.741380
 20
201.766600
 30
0.0
  0
LINE
  5
13c
100
AcDbEntity
  8
Layer_1
 62
3
100
AcDbLine
 10
207.741380
 20
201.766600
 30
0.0
 11
207.741380
 21
201.766600
 31
0.0
  0
SPLINE
  5
13d
100
AcDbEntity
  8
Layer_1
 62
3
100
AcDbSpline
 70
8
 71
3
 72
8
 73
4
 74
0
 40
0
 40
0
 40
0
 40
0
 40
1
 40
1
 40
1
 40
1
 10
293.035300
 20
201.769700
 30
0.0
 10
293.419539
 20
201.769700
 30
0.0
 10
293.765944
 20
201.538240
 30
0.0
 10
293.912986
 20
201.183249
 30
0.0
  0
SPLINE
  5
13e
100
AcDbEntity
  8
Layer_1
 62
3
100
AcDbSpline
 70
8
 71
3
 72
8
 73
4
 74
0
 40
0
 40
0
 40
0
 40
0
 40
1
 40
1
 40
1
 40
1
 10
293.912986
 20
201.183249
 30
0.0
 10
294.060027
 20
200.828259
 30
0.0
 10
293.978750
 20
200.419647
 30
0.0
 10
293.707051
 20
200.147949
 30
0.0
  0
SPLINE
  5
13f
100
AcDbEntity
  8
Layer_1
 62
3
100
AcDbSpline
 70
8
 71
3
 72
8
 73
4
 74
0
 40
0
 40
0
 40
0
 40
0
 40
1
 40
1
 40
1
 40
1
 10
293.707051
 20
200.147949
 30
0.0
 10
293.435353
 20
199.876250
 30
0.0
 10
293.026741
 20
199.794973
 30
0.0
 10
292.671751
 20
199.942014
 30
0.0
  0
SPLINE
  5
140
100
AcDbEntity
  8
Layer_1
 62
3
100
AcDbSpline
 70
8
 71
3
 72
8
 73
4
 74
0
 40
0
 40
0
 40
0
 40
0
 40
1
 40
1
 40
1
 40
1
 10
292.671751
 20
199.942014
 30
0.0
 10
292.316760
 20
200.089056
 30
0.0
 10
292.085300
 20
200.435461
 30
0.0
 10
292.085300
 20
200.819700
 30
0.0
  0
SPLINE
  5
141
100
AcDbEntity
  8
Layer_1
 62
3
100
AcDbSpline
 70
8
 71
3
 72
8
 73
4
 74
0
 40
0
 40
0
 40
0
 40
0
 40
1
 40
1
 40
1
 40
1
 10
292.085300
 20
200.819700
 30
0.0
 10
292.085300
 20
201.071656
 30
0.0
 10
292.185389
 20
201.313292
 30
0.0
 10
292.363549
 20
201.491451
 30
0.0
  0
SPLINE
  5
142
100
AcDbEntity
  8
Layer_1
 62
3
100
AcDbSpline
 70
8
 71
3
 72
8
 73
4
 74
0
 40
0
 40
0
 40
0
 40
0
 40
1
 40
1
 40
1
 40
1
 10
292.363549
 20
201.491451
 30
0.0
 10
292.541708
 20
201.669611
 30
0.0
 10
292.783344
 20
201.769700
 30
0.0
 10
293.035300
 20
201.769700
 30
0.0
  0
LINE
  5
143
100
AcDbEntity
  8
Layer_1
 62
3
100
AcDbLine
 10
293.035300
 20
201.769700
 30
0.0
 11
293.035300
 21
201.769700
 31
0.0
  0
SPLINE
  5
144
100
AcDbEntity
  8
Layer_1
 62
3
100
AcDbSpline
 70
8
 71
3
 72
8
 73
4
 74
0
 40
0
 40
0
 40
0
 40
0
 40
1
 40
1
 40
1
 40
1
 10
293.035300
 20
290.141900
 30
0.0
 10
293.419539
 20
290.141900
 30
0.0
 10
293.765944
 20
289.910440
 30
0.0
 10
293.912986
 20
289.555449
 30
0.0
  0
SPLINE
  5
145
100
AcDbEntity
  8
Layer_1
 62
3
100
AcDbSpline
 70
8
 71
3
 72
8
 73
4
 74
0
 40
0
 40
0
 40
0
 40
0
 40
1
 40
1
 40
1
 40
1
 10
293.912986
 20
289.555449
 30
0.0
 10
294.060027
 20
289.200459
 30
0.0
 10
293.978750
 20
288.791847
 30
0.0
 10
293.707051
 20
288.520149
 30
0.0
  0
SPLINE
  5
146
100
AcDbEntity
  8
Layer_1
 62
3
100
AcDbSpline
 70
8
 71
3
 72
8
 73
4
 74
0
 40
0
 40
0
 40
0
 40
0
 40
1
 40
1
 40
1
 40
1
 10
293.707051
 20
288.520149
 30
0.0
 10
293.435353
 20
288.248450
 30
0.0
 10
293.026741
 20
288.167173
 30
0.0
 10
292.671751
 20
288.314214
 30
0.0
  0
SPLINE
  5
147
100
AcDbEntity
  8
Layer_1
 62
3
100
AcDbSpline
 70
8
 71
3
 72
8
 73
4
 74
0
 40
0
 40
0
 40
0
 40
0
 40
1
 40
1
 40
1
 40
1
 10
292.671751
 20
288.314214
 30
0.0
 10
292.316760
 20
288.461256
 30
0.0
 10
292.085300
 20
288.807661
 30
0.0
 10
292.085300
 20
289.191900
 30
0.0
  0
SPLINE
  5
148
100
AcDbEntity
  8
Layer_1
 62
3
100
AcDbSpline
 70
8
 71
3
 72
8
 73
4
 74
0
 40
0
 40
0
 40
0
 40
0
 40
1
 40
1
 40
1
 40
1
 10
292.085300
 20
289.191900
 30
0.0
 10
292.085300
 20
289.443856
 30
0.0
 10
292.185389
 20
289.685492
 30
0.0
 10
292.363549
 20
289.863651
 30
0.0
  0
SPLINE
  5
149
100
AcDbEntity
  8
Layer_1
 62
3
100
AcDbSpline
 70
8
 71
3
 72
8
 73
4
 74
0
 40
0
 40
0
 40
0
 40
0
 40
1
 40
1
 40
1
 40
1
 10
292.363549
 20
289.863651
 30
0.0
 10
292.541708
 20
290.041811
 30
0.0
 10
292.783344
 20
290.141900
 30
0.0
 10
293.035300
 20
290.141900
 30
0.0
  0
LINE
  5
14a
100
AcDbEntity
  8
Layer_1
 62
3
100
AcDbLine
 10
293.035300
 20
290.141900
 30
0.0
 11
293.035300
 21
290.141900
 31
0.0
  0
SPLINE
  5
14b
100
AcDbEntity
  8
Layer_1
 62
3
100
AcDbSpline
 70
8
 71
3
 72
8
 73
4
 74
0
 40
0
 40
0
 40
0
 40
0
 40
1
 40
1
 40
1
 40
1
 10
207.742170
 20
290.141900
 30
0.0
 10
208.126409
 20
290.141900
 30
0.0
 10
208.472814
 20
289.910440
 30
0.0
 10
208.619856
 20
289.555449
 30
0.0
  0
SPLINE
  5
14c
100
AcDbEntity
  8
Layer_1
 62
3
100
AcDbSpline
 70
8
 71
3
 72
8
 73
4
 74
0
 40
0
 40
0
 40
0
 40
0
 40
1
 40
1
 40
1
 40
1
 10
208.619856
 20
289.555449
 30
0.0
 10
208.766897
 20
289.200459
 30
0.0
 10
208.685620
 20
288.791847
 30
0.0
 10
208.413921
 20
288.520149
 30
0.0
  0
SPLINE
  5
14d
100
AcDbEntity
  8
Layer_1
 62
3
100
AcDbSpline
 70
8
 71
3
 72
8
 73
4
 74
0
 40
0
 40
0
 40
0
 40
0
 40
1
 40
1
 40
1
 40
1
 10
208.413921
 20
288.520149
 30
0.0
 10
208.142223
 20
288.248450
 30
0.0
 10
207.733611
 20
288.167173
 30
0.0
 10
207.378621
 20
288.314214
 30
0.0
  0
SPLINE
  5
14e
100
AcDbEntity
  8
Layer_1
 62
3
100
AcDbSpline
 70
8
 71
3
 72
8
 73
4
 74
0
 40
0
 40
0
 40
0
 40
0
 40
1
 40
1
 40
1
 40
1
 10
207.378621
 20
288.314214
 30
0.0
 10
207.023630
 20
288.461256
 30
0.0
 10
206.792170
 20
288.807661
 30
0.0
 10
206.792170
 20
289.191900
 30
0.0
  0
SPLINE
  5
14f
100
AcDbEntity
  8
Layer_1
 62
3
100
AcDbSpline
 70
8
 71
3
 72
8
 73
4
 74
0
 40
0
 40
0
 40
0
 40
0
 40
1
 40
1
 40
1
 40
1
 10
206.792170
 20
289.191900
 30
0.0
 10
206.792170
 20
289.443856
 30
0.0
 10
206.892259
 20
289.685492
 30
0.0
 10
207.070419
 20
289.863651
 30
0.0
  0
SPLINE
  5
150
100
AcDbEntity
  8
Layer_1
 62
3
100
AcDbSpline
 70
8
 71
3
 72
8
 73
4
 74
0
 40
0
 40
0
 40
0
 40
0
 40
1
 40
1
 40
1
 40
1
 10
207.070419
 20
289.863651
 30
0.0
 10
207.248578
 20
290.041811
 30
0.0
 10
207.490214
 20
290.141900
 30
0.0
 10
207.742170
 20
290.141900
 30
0.0
  0
LINE
  5
151
100
AcDbEntity
  8
Layer_1
 62
3
100
AcDbLine
 10
207.742170
 20
290.141900
 30
0.0
 11
207.742170
 21
290.141900
 31
0.0
  0
SPLINE
  5
152
100
AcDbEntity
  8
Layer_1
 62
3
100
AcDbSpline
 70
8
 71
3
 72
8
 73
4
 74
0
 40
0
 40
0
 40
0
 40
0
 40
1
 40
1
 40
1
 40
1
 10
7.286360
 20
201.769700
 30
0.0
 10
7.670599
 20
201.769700
 30
0.0
 10
8.017004
 20
201.538240
 30
0.0
 10
8.164046
 20
201.183249
 30
0.0
  0
SPLINE
  5
153
100
AcDbEntity
  8
Layer_1
 62
3
100
AcDbSpline
 70
8
 71
3
 72
8
 73
4
 74
0
 40
0
 40
0
 40
0
 40
0
 40
1
 40
1
 40
1
 40
1
 10
8.164046
 20
201.183249
 30
0.0
 10
8.311087
 20
200.828259
 30
0.0
 10
8.229810
 20
200.419647
 30
0.0
 10
7.958111
 20
200.147949
 30
0.0
  0
SPLINE
  5
154
100
AcDbEntity
  8
Layer_1
 62
3
100
AcDbSpline
 70
8
 71
3
 72
8
 73
4
 74
0
 40
0
 40
0
 40
0
 40
0
 40
1
 40
1
 40
1
 40
1
 10
7.958111
 20
200.147949
 30
0.0
 10
7.686413
 20
199.876250
 30
0.0
 10
7.277801
 20
199.794973
 30
0.0
 10
6.922811
 20
199.942014
 30
0.0
  0
SPLINE
  5
155
100
AcDbEntity
  8
Layer_1
 62
3
100
AcDbSpline
 70
8
 71
3
 72
8
 73
4
 74
0
 40
0
 40
0
 40
0
 40
0
 40
1
 40
1
 40
1
 40
1
 10
6.922811
 20
199.942014
 30
0.0
 10
6.567820
 20
200.089056
 30
0.0
 10
6.336360
 20
200.435461
 30
0.0
 10
6.336360
 20
200.819700
 30
0.0
  0
SPLINE
  5
156
100
AcDbEntity
  8
Layer_1
 62
3
100
AcDbSpline
 70
8
 71
3
 72
8
 73
4
 74
0
 40
0
 40
0
 40
0
 40
0
 40
1
 40
1
 40
1
 40
1
 10
6.336360
 20
200.819700
 30
0.0
 10
6.336360
 20
201.071656
 30
0.0
 10
6.436449
 20
201.313292
 30
0.0
 10
6.614609
 20
201.491451
 30
0.0
  0
SPLINE
  5
157
100
AcDbEntity
  8
Layer_1
 62
3
100
AcDbSpline
 70
8
 71
3
 72
8
 73
4
 74
0
 40
0
 40
0
 40
0
 40
0
 40
1
 40
1
 40
1
 40
1
 10
6.614609
 20
201.491451
 30
0.0
 10
6.792768
 20
201.669611
 30
0.0
 10
7.034404
 20
201.769700
 30
0.0
 10
7.286360
 20
201.769700
 30
0.0
  0
LINE
  5
158
100
AcDbEntity
  8
Layer_1
 62
3
100
AcDbLine
 10
7.286360
 20
201.769700
 30
0.0
 11
7.286360
 21
201.769700
 31
0.0
  0
SPLINE
  5
159
100
AcDbEntity
  8
Layer_1
 62
3
100
AcDbSpline
 70
8
 71
3
 72
8
 73
4
 74
0
 40
0
 40
0
 40
0
 40
0
 40
1
 40
1
 40
1
 40
1
 10
126.437910
 20
201.769700
 30
0.0
 10
126.822149
 20
201.769700
 30
0.0
 10
127.168554
 20
201.538240
 30
0.0
 10
127.315596
 20
201.183249
 30
0.0
  0
SPLINE
  5
15a
100
AcDbEntity
  8
Layer_1
 62
3
100
AcDbSpline
 70
8
 71
3
 72
8
 73
4
 74
0
 40
0
 40
0
 40
0
 40
0
 40
1
 40
1
 40
1
 40
1
 10
127.315596
 20
201.183249
 30
0.0
 10
127.462637
 20
200.828259
 30
0.0
 10
127.381360
 20
200.419647
 30
0.0
 10
127.109661
 20
200.147949
 30
0.0
  0
SPLINE
  5
15b
100
AcDbEntity
  8
Layer_1
 62
3
100
AcDbSpline
 70
8
 71
3
 72
8
 73
4
 74
0
 40
0
 40
0
 40
0
 40
0
 40
1
 40
1
 40
1
 40
1
 10
127.109661
 20
200.147949
 30
0.0
 10
126.837963
 20
199.876250
 30
0.0
 10
126.429351
 20
199.794973
 30
0.0
 10
126.074361
 20
199.942014
 30
0.0
  0
SPLINE
  5
15c
100
AcDbEntity
  8
Layer_1
 62
3
100
AcDbSpline
 70
8
 71
3
 72
8
 73
4
 74
0
 40
0
 40
0
 40
0
 40
0
 40
1
 40
1
 40
1
 40
1
 10
126.074361
 20
199.942014
 30
0.0
 10
125.719370
 20
200.089056
 30
0.0
 10
125.487910
 20
200.435461
 30
0.0
 10
125.487910
 20
200.819700
 30
0.0
  0
SPLINE
  5
15d
100
AcDbEntity
  8
Layer_1
 62
3
100
AcDbSpline
 70
8
 71
3
 72
8
 73
4
 74
0
 40
0
 40
0
 40
0
 40
0
 40
1
 40
1
 40
1
 40
1
 10
125.487910
 20
200.819700
 30
0.0
 10
125.487910
 20
201.071656
 30
0.0
 10
125.587999
 20
201.313292
 30
0.0
 10
125.766159
 20
201.491451
 30
0.0
  0
SPLINE
  5
15e
100
AcDbEntity
  8
Layer_1
 62
3
100
AcDbSpline
 70
8
 71
3
 72
8
 73
4
 74
0
 40
0
 40
0
 40
0
 40
0
 40
1
 40
1
 40
1
 40
1
 10
125.766159
 20
201.491451
 30
0.0
 10
125.944318
 20
201.669611
 30
0.0
 10
126.185954
 20
201.769700
 30
0.0
 10
126.437910
 20
201.769700
 30
0.0
  0
LINE
  5
15f
100
AcDbEntity
  8
Layer_1
 62
3
100
AcDbLine
 10
126.437910
 20
201.769700
 30
0.0
 11
126.437910
 21
201.769700
 31
0.0
  0
SPLINE
  5
160
100
AcDbEntity
  8
Layer_1
 62
3
100
AcDbSpline
 70
8
 71
3
 72
8
 73
4
 74
0
 40
0
 40
0
 40
0
 40
0
 40
1
 40
1
 40
1
 40
1
 10
126.437300
 20
290.141900
 30
0.0
 10
126.821539
 20
290.141900
 30
0.0
 10
127.167944
 20
289.910440
 30
0.0
 10
127.314986
 20
289.555449
 30
0.0
  0
SPLINE
  5
161
100
AcDbEntity
  8
Layer_1
 62
3
100
AcDbSpline
 70
8
 71
3
 72
8
 73
4
 74
0
 40
0
 40
0
 40
0
 40
0
 40
1
 40
1
 40
1
 40
1
 10
127.314986
 20
289.555449
 30
0.0
 10
127.462027
 20
289.200459
 30
0.0
 10
127.380750
 20
288.791847
 30
0.0
 10
127.109051
 20
288.520149
 30
0.0
  0
SPLINE
  5
162
100
AcDbEntity
  8
Layer_1
 62
3
100
AcDbSpline
 70
8
 71
3
 72
8
 73
4
 74
0
 40
0
 40
0
 40
0
 40
0
 40
1
 40
1
 40
1
 40
1
 10
127.109051
 20
288.520149
 30
0.0
 10
126.837353
 20
288.248450
 30
0.0
 10
126.428741
 20
288.167173
 30
0.0
 10
126.073751
 20
288.314214
 30
0.0
  0
SPLINE
  5
163
100
AcDbEntity
  8
Layer_1
 62
3
100
AcDbSpline
 70
8
 71
3
 72
8
 73
4
 74
0
 40
0
 40
0
 40
0
 40
0
 40
1
 40
1
 40
1
 40
1
 10
126.073751
 20
288.314214
 30
0.0
 10
125.718760
 20
288.461256
 30
0.0
 10
125.487300
 20
288.807661
 30
0.0
 10
125.487300
 20
289.191900
 30
0.0
  0
SPLINE
  5
164
100
AcDbEntity
  8
Layer_1
 62
3
100
AcDbSpline
 70
8
 71
3
 72
8
 73
4
 74
0
 40
0
 40
0
 40
0
 40
0
 40
1
 40
1
 40
1
 40
1
 10
125.487300
 20
289.191900
 30
0.0
 10
125.487300
 20
289.716571
 30
0.0
 10
125.912629
 20
290.141900
 30
0.0
 10
126.437300
 20
290.141900
 30
0.0
  0
LINE
  5
165
100
AcDbEntity
  8
Layer_1
 62
3
100
AcDbLine
 10
126.437300
 20
290.141900
 30
0.0
 11
126.437300
 21
290.141900
 31
0.0
  0
SPLINE
  5
166
100
AcDbEntity
  8
Layer_1
 62
3
100
AcDbSpline
 70
8
 71
3
 72
8
 73
4
 74
0
 40
0
 40
0
 40
0
 40
0
 40
1
 40
1
 40
1
 40
1
 10
7.286366
 20
290.141856
 30
0.0
 10
7.670605
 20
290.141856
 30
0.0
 10
8.017009
 20
289.910396
 30
0.0
 10
8.164051
 20
289.555405
 30
0.0
  0
SPLINE
  5
167
100
AcDbEntity
  8
Layer_1
 62
3
100
AcDbSpline
 70
8
 71
3
 72
8
 73
4
 74
0
 40
0
 40
0
 40
0
 40
0
 40
1
 40
1
 40
1
 40
1
 10
8.164051
 20
289.555405
 30
0.0
 10
8.311093
 20
289.200414
 30
0.0
 10
8.229815
 20
288.791802
 30
0.0
 10
7.958117
 20
288.520104
 30
0.0
  0
SPLINE
  5
168
100
AcDbEntity
  8
Layer_1
 62
3
100
AcDbSpline
 70
8
 71
3
 72
8
 73
4
 74
0
 40
0
 40
0
 40
0
 40
0
 40
1
 40
1
 40
1
 40
1
 10
7.958117
 20
288.520104
 30
0.0
 10
7.686419
 20
288.248406
 30
0.0
 10
7.277807
 20
288.167128
 30
0.0
 10
6.922816
 20
288.314170
 30
0.0
  0
SPLINE
  5
169
100
AcDbEntity
  8
Layer_1
 62
3
100
AcDbSpline
 70
8
 71
3
 72
8
 73
4
 74
0
 40
0
 40
0
 40
0
 40
0
 40
1
 40
1
 40
1
 40
1
 10
6.922816
 20
288.314170
 30
0.0
 10
6.567826
 20
288.461212
 30
0.0
 10
6.336366
 20
288.807616
 30
0.0
 10
6.336366
 20
289.191856
 30
0.0
  0
SPLINE
  5
16a
100
AcDbEntity
  8
Layer_1
 62
3
100
AcDbSpline
 70
8
 71
3
 72
8
 73
4
 74
0
 40
0
 40
0
 40
0
 40
0
 40
1
 40
1
 40
1
 40
1
 10
6.336366
 20
289.191856
 30
0.0
 10
6.336366
 20
289.443811
 30
0.0
 10
6.436455
 20
289.685447
 30
0.0
 10
6.614614
 20
289.863607
 30
0.0
  0
SPLINE
  5
16b
100
AcDbEntity
  8
Layer_1
 62
3
100
AcDbSpline
 70
8
 71
3
 72
8
 73
4
 74
0
 40
0
 40
0
 40
0
 40
0
 40
1
 40
1
 40
1
 40
1
 10
6.614614
 20
289.863607
 30
0.0
 10
6.792774
 20
290.041767
 30
0.0
 10
7.034410
 20
290.141856
 30
0.0
 10
7.286366
 20
290.141856
 30
0.0
  0
LINE
  5
16c
100
AcDbEntity
  8
Layer_1
 62
3
100
AcDbLine
 10
7.286366
 20
290.141856
 30
0.0
 11
7.286366
 21
290.141856
 31
0.0
  0
SPLINE
  5
16d
100
AcDbEntity
  8
Layer_1
 62
3
100
AcDbSpline
 70
8
 71
3
 72
8
 73
4
 74
0
 40
0
 40
0
 40
0
 40
0
 40
1
 40
1
 40
1
 40
1
 10
23.717564
 20
224.429062
 30
0.0
 10
20.481866
 20
224.429062
 30
0.0
 10
17.564776
 20
222.479925
 30
0.0
 10
16.326528
 20
219.490529
 30
0.0
  0
SPLINE
  5
16e
100
AcDbEntity
  8
Layer_1
 62
3
100
AcDbSpline
 70
8
 71
3
 72
8
 73
4
 74
0
 40
0
 40
0
 40
0
 40
0
 40
1
 40
1
 40
1
 40
1
 10
16.326528
 20
219.490529
 30
0.0
 10
15.088280
 20
216.501134
 30
0.0
 10
15.772726
 20
213.060192
 30
0.0
 10
18.060710
 20
210.772208
 30
0.0
  0
SPLINE
  5
16f
100
AcDbEntity
  8
Layer_1
 62
3
100
AcDbSpline
 70
8
 71
3
 72
8
 73
4
 74
0
 40
0
 40
0
 40
0
 40
0
 40
1
 40
1
 40
1
 40
1
 10
18.060710
 20
210.772208
 30
0.0
 10
20.348694
 20
208.484224
 30
0.0
 10
23.789636
 20
207.799778
 30
0.0
 10
26.779031
 20
209.038026
 30
0.0
  0
SPLINE
  5
170
100
AcDbEntity
  8
Layer_1
 62
3
100
AcDbSpline
 70
8
 71
3
 72
8
 73
4
 74
0
 40
0
 40
0
 40
0
 40
0
 40
1
 40
1
 40
1
 40
1
 10
26.779031
 20
209.038026
 30
0.0
 10
29.768427
 20
210.276274
 30
0.0
 10
31.717564
 20
213.193364
 30
0.0
 10
31.717564
 20
216.429062
 30
0.0
  0
SPLINE
  5
171
100
AcDbEntity
  8
Layer_1
 62
3
100
AcDbSpline
 70
8
 71
3
 72
8
 73
4
 74
0
 40
0
 40
0
 40
0
 40
0
 40
1
 40
1
 40
1
 40
1
 10
31.717564
 20
216.429062
 30
0.0
 10
31.717564
 20
218.550794
 30
0.0
 10
30.874709
 20
220.585625
 30
0.0
 10
29.374418
 20
222.085916
 30
0.0
  0
SPLINE
  5
172
100
AcDbEntity
  8
Layer_1
 62
3
100
AcDbSpline
 70
8
 71
3
 72
8
 73
4
 74
0
 40
0
 40
0
 40
0
 40
0
 40
1
 40
1
 40
1
 40
1
 10
29.374418
 20
222.085916
 30
0.0
 10
27.874127
 20
223.586207
 30
0.0
 10
25.839296
 20
224.429062
 30
0.0
 10
23.717564
 20
224.429062
 30
0.0
  0
LINE
  5
173
100
AcDbEntity
  8
Layer_1
 62
3
100
AcDbLine
 10
23.717564
 20
224.429062
 30
0.0
 11
23.717564
 21
224.429062
 31
0.0
  0
SPLINE
  5
174
100
AcDbEntity
  8
Layer_1
 62
3
100
AcDbSpline
 70
8
 71
3
 72
8
 73
4
 74
0
 40
0
 40
0
 40
0
 40
0
 40
1
 40
1
 40
1
 40
1
 10
40.143162
 20
290.142364
 30
0.0
 10
40.527401
 20
290.142364
 30
0.0
 10
40.873806
 20
289.910904
 30
0.0
 10
41.020848
 20
289.555913
 30
0.0
  0
SPLINE
  5
175
100
AcDbEntity
  8
Layer_1
 62
3
100
AcDbSpline
 70
8
 71
3
 72
8
 73
4
 74
0
 40
0
 40
0
 40
0
 40
0
 40
1
 40
1
 40
1
 40
1
 10
41.020848
 20
289.555913
 30
0.0
 10
41.167889
 20
289.200922
 30
0.0
 10
41.086612
 20
288.792310
 30
0.0
 10
40.814913
 20
288.520612
 30
0.0
  0
SPLINE
  5
176
100
AcDbEntity
  8
Layer_1
 62
3
100
AcDbSpline
 70
8
 71
3
 72
8
 73
4
 74
0
 40
0
 40
0
 40
0
 40
0
 40
1
 40
1
 40
1
 40
1
 10
40.814913
 20
288.520612
 30
0.0
 10
40.543215
 20
288.248914
 30
0.0
 10
40.134603
 20
288.167636
 30
0.0
 10
39.779613
 20
288.314678
 30
0.0
  0
SPLINE
  5
177
100
AcDbEntity
  8
Layer_1
 62
3
100
AcDbSpline
 70
8
 71
3
 72
8
 73
4
 74
0
 40
0
 40
0
 40
0
 40
0
 40
1
 40
1
 40
1
 40
1
 10
39.779613
 20
288.314678
 30
0.0
 10
39.424622
 20
288.461720
 30
0.0
 10
39.193162
 20
288.808125
 30
0.0
 10
39.193162
 20
289.192364
 30
0.0
  0
SPLINE
  5
178
100
AcDbEntity
  8
Layer_1
 62
3
100
AcDbSpline
 70
8
 71
3
 72
8
 73
4
 74
0
 40
0
 40
0
 40
0
 40
0
 40
1
 40
1
 40
1
 40
1
 10
39.193162
 20
289.192364
 30
0.0
 10
39.193162
 20
289.444319
 30
0.0
 10
39.293251
 20
289.685956
 30
0.0
 10
39.471411
 20
289.864115
 30
0.0
  0
SPLINE
  5
179
100
AcDbEntity
  8
Layer_1
 62
3
100
AcDbSpline
 70
8
 71
3
 72
8
 73
4
 74
0
 40
0
 40
0
 40
0
 40
0
 40
1
 40
1
 40
1
 40
1
 10
39.471411
 20
289.864115
 30
0.0
 10
39.649570
 20
290.042275
 30
0.0
 10
39.891206
 20
290.142364
 30
0.0
 10
40.143162
 20
290.142364
 30
0.0
  0
LINE
  5
17a
100
AcDbEntity
  8
Layer_1
 62
3
100
AcDbLine
 10
40.143162
 20
290.142364
 30
0.0
 11
40.143162
 21
290.142364
 31
0.0
  0
SPLINE
  5
17b
100
AcDbEntity
  8
Layer_1
 62
3
100
AcDbSpline
 70
8
 71
3
 72
8
 73
4
 74
0
 40
0
 40
0
 40
0
 40
0
 40
1
 40
1
 40
1
 40
1
 10
40.143162
 20
201.770175
 30
0.0
 10
40.527401
 20
201.770175
 30
0.0
 10
40.873806
 20
201.538715
 30
0.0
 10
41.020848
 20
201.183724
 30
0.0
  0
SPLINE
  5
17c
100
AcDbEntity
  8
Layer_1
 62
3
100
AcDbSpline
 70
8
 71
3
 72
8
 73
4
 74
0
 40
0
 40
0
 40
0
 40
0
 40
1
 40
1
 40
1
 40
1
 10
41.020848
 20
201.183724
 30
0.0
 10
41.167889
 20
200.828734
 30
0.0
 10
41.086612
 20
200.420122
 30
0.0
 10
40.814913
 20
200.148424
 30
0.0
  0
SPLINE
  5
17d
100
AcDbEntity
  8
Layer_1
 62
3
100
AcDbSpline
 70
8
 71
3
 72
8
 73
4
 74
0
 40
0
 40
0
 40
0
 40
0
 40
1
 40
1
 40
1
 40
1
 10
40.814913
 20
200.148424
 30
0.0
 10
40.543215
 20
199.876725
 30
0.0
 10
40.134603
 20
199.795448
 30
0.0
 10
39.779613
 20
199.942489
 30
0.0
  0
SPLINE
  5
17e
100
AcDbEntity
  8
Layer_1
 62
3
100
AcDbSpline
 70
8
 71
3
 72
8
 73
4
 74
0
 40
0
 40
0
 40
0
 40
0
 40
1
 40
1
 40
1
 40
1
 10
39.779613
 20
199.942489
 30
0.0
 10
39.424622
 20
200.089531
 30
0.0
 10
39.193162
 20
200.435936
 30
0.0
 10
39.193162
 20
200.820175
 30
0.0
  0
SPLINE
  5
17f
100
AcDbEntity
  8
Layer_1
 62
3
100
AcDbSpline
 70
8
 71
3
 72
8
 73
4
 74
0
 40
0
 40
0
 40
0
 40
0
 40
1
 40
1
 40
1
 40
1
 10
39.193162
 20
200.820175
 30
0.0
 10
39.193162
 20
201.072131
 30
0.0
 10
39.293251
 20
201.313767
 30
0.0
 10
39.471411
 20
201.491926
 30
0.0
  0
SPLINE
  5
180
100
AcDbEntity
  8
Layer_1
 62
3
100
AcDbSpline
 70
8
 71
3
 72
8
 73
4
 74
0
 40
0
 40
0
 40
0
 40
0
 40
1
 40
1
 40
1
 40
1
 10
39.471411
 20
201.491926
 30
0.0
 10
39.649570
 20
201.670086
 30
0.0
 10
39.891206
 20
201.770175
 30
0.0
 10
40.143162
 20
201.770175
 30
0.0
  0
LINE
  5
181
100
AcDbEntity
  8
Layer_1
 62
3
100
AcDbLine
 10
40.143162
 20
201.770175
 30
0.0
 11
40.143162
 21
201.770175
 31
0.0
  0
ENDSEC
  0
SECTION
  2
OBJECTS
  0
DICTIONARY
  5
C
330
0
100
AcDbDictionary
  3
ACAD_GROUP
350
D
  3
ACAD_MLINESTYLE
350
17
  0
DICTIONARY
  5
D
330
C
100
AcDbDictionary
  0
DICTIONARY
  5
1A
330
C
100
AcDbDictionary
  0
DICTIONARY
  5
17
330
C
100
AcDbDictionary
  3
STANDARD
350
18
  0
DICTIONARY
  5
19
330
C
100
AcDbDictionary
  0
ENDSEC
  0
EOF
