  0
SECTION
  2
HEADER
  9
$ACADVER
  1
AC1014
  9
$HANDSEED
  5
FFFF
  9
$INSUNITS
 70
     0
  9
$MEASUREMENT
 70
     1
  0
ENDSEC
  0
SECTION
  2
TABLES
  0
TABLE
  2
VPORT
  5
8
330
0
100
AcDbSymbolTable
 70
     4
  0
VPORT
  5
2E
330
8
100
AcDbSymbolTableRecord
100
AcDbViewportTableRecord
  2
*ACTIVE
 70
     0
 10
0.0
 20
0.0
 11
1.0
 21
1.0
 12
210.0
 22
148.5
 13
0.0
 23
0.0
 14
10.0
 24
10.0
 15
10.0
 25
10.0
 16
0.0
 26
0.0
 36
1.0
 17
0.0
 27
0.0
 37
0.0
 40
341.0
 41
1.24
 42
50.0
 43
0.0
 44
0.0
 50
0.0
 51
0.0
 71
     0
 72
   100
 73
     1
 74
     3
 75
     0
 76
     0
 77
     0
 78
     0
  0
ENDTAB
  0
TABLE
  2
LTYPE
  5
5
330
0
100
AcDbSymbolTable
 70
     1
  0
LTYPE
  5
14
330
5
100
AcDbSymbolTableRecord
100
AcDbLinetypeTableRecord
  2
BYBLOCK
 70
     0
  3

 72
    65
 73
     0
 40
0.0
  0
LTYPE
  5
15
330
5
100
AcDbSymbolTableRecord
100
AcDbLinetypeTableRecord
  2
BYLAYER
 70
     0
  3

 72
    65
 73
     0
 40
0.0
  0
LTYPE
  5
16
330
5
100
AcDbSymbolTableRecord
100
AcDbLinetypeTableRecord
  2
CONTINUOUS
 70
     0
  3
Solid line
 72
    65
 73
     0
 40
0.0
  0
ENDTAB
  0
TABLE
  2
LAYER
  5
2
100
AcDbSymbolTable
 70
2
  0
LAYER
  5
50
100
AcDbSymbolTableRecord
100
AcDbLayerTableRecord
  2
0
 70
0
  6
CONTINUOUS
  0
LAYER
  5
51
100
AcDbSymbolTableRecord
100
AcDbLayerTableRecord
  2
Layer_1
 70
0
  6
CONTINUOUS
  0
ENDTAB
  0
TABLE
  2
STYLE
  5
3
330
0
100
AcDbSymbolTable
 70
     1
  0
STYLE
  5
11
330
3
100
AcDbSymbolTableRecord
100
AcDbTextStyleTableRecord
  2
STANDARD
 70
     0
 40
0.0
 41
1.0
 50
0.0
 71
     0
 42
2.5
  3
txt
  4

  0
ENDTAB
  0
TABLE
  2
VIEW
  5
6
330
0
100
AcDbSymbolTable
 70
     0
  0
ENDTAB
  0
TABLE
  2
UCS
  5
7
330
0
100
AcDbSymbolTable
 70
     0
  0
ENDTAB
  0
TABLE
  2
APPID
  5
9
330
0
100
AcDbSymbolTable
 70
     2
  0
APPID
  5
12
330
9
100
AcDbSymbolTableRecord
100
AcDbRegAppTableRecord
  2
ACAD
 70
     0
  0
ENDTAB
  0
TABLE
  2
DIMSTYLE
  5
A
330
0
100
AcDbSymbolTable
 70
     1
  0
DIMSTYLE
105
27
330
A
100
AcDbSymbolTableRecord
100
AcDbDimStyleTableRecord
  2
ISO-25
 70
     0
  3

  4

  5

  6

  7

 40
1.0
 41
2.5
 42
0.625
 43
3.75
 44
1.25
 45
0.0
 46
0.0
 47
0.0
 48
0.0
140
2.5
141
2.5
142
0.0
143
0.03937007874016
144
1.0
145
0.0
146
1.0
147
0.625
 71
     0
 72
     0
 73
     0
 74
     0
 75
     0
 76
     0
 77
     1
 78
     8
170
     0
171
     3
172
     1
173
     0
174
     0
175
     0
176
     0
177
     0
178
     0
270
     2
271
     2
272
     2
273
     2
274
     3
340
11
275
     0
280
     0
281
     0
282
     0
283
     0
284
     8
285
     0
286
     0
287
     3
288
     0
  0
ENDTAB
  0
TABLE
  2
BLOCK_RECORD
  5
1
330
0
100
AcDbSymbolTable
 70
     1
  0
BLOCK_RECORD
  5
1F
330
1
100
AcDbSymbolTableRecord
100
AcDbBlockTableRecord
  2
*MODEL_SPACE
  0
BLOCK_RECORD
  5
1B
330
1
100
AcDbSymbolTableRecord
100
AcDbBlockTableRecord
  2
*PAPER_SPACE
  0
ENDTAB
  0
ENDSEC
  0
SECTION
  2
BLOCKS
  0
BLOCK
  5
20
330
1F
100
AcDbEntity
  8
0
100
AcDbBlockBegin
  2
*MODEL_SPACE
 70
     0
 10
0.0
 20
0.0
 30
0.0
  3
*MODEL_SPACE
  1

  0
ENDBLK
  5
21
330
1F
100
AcDbEntity
  8
0
100
AcDbBlockEnd
  0
BLOCK
  5
1C
330
1B
100
AcDbEntity
 67
     1
  8
0
100
AcDbBlockBegin
  2
*PAPER_SPACE
  1

  0
ENDBLK
  5
1D
330
1B
100
AcDbEntity
 67
     1
  8
0
100
AcDbBlockEnd
  0
ENDSEC
  0
SECTION
  2
ENTITIES
  0
SPLINE
  5
100
100
AcDbEntity
  8
Layer_1
 62
1
100
AcDbSpline
 70
8
 71
3
 72
8
 73
4
 74
0
 40
0
 40
0
 40
0
 40
0
 40
1
 40
1
 40
1
 40
1
 10
22.659229
 20
224.429062
 30
0.0
 10
19.423531
 20
224.429062
 30
0.0
 10
16.506441
 20
222.479925
 30
0.0
 10
15.268193
 20
219.490529
 30
0.0
  0
SPLINE
  5
101
100
AcDbEntity
  8
Layer_1
 62
1
100
AcDbSpline
 70
8
 71
3
 72
8
 73
4
 74
0
 40
0
 40
0
 40
0
 40
0
 40
1
 40
1
 40
1
 40
1
 10
15.268193
 20
219.490529
 30
0.0
 10
14.029945
 20
216.501134
 30
0.0
 10
14.714391
 20
213.060192
 30
0.0
 10
17.002375
 20
210.772208
 30
0.0
  0
SPLINE
  5
102
100
AcDbEntity
  8
Layer_1
 62
1
100
AcDbSpline
 70
8
 71
3
 72
8
 73
4
 74
0
 40
0
 40
0
 40
0
 40
0
 40
1
 40
1
 40
1
 40
1
 10
17.002375
 20
210.772208
 30
0.0
 10
19.290359
 20
208.484224
 30
0.0
 10
22.731301
 20
207.799778
 30
0.0
 10
25.720696
 20
209.038026
 30
0.0
  0
SPLINE
  5
103
100
AcDbEntity
  8
Layer_1
 62
1
100
AcDbSpline
 70
8
 71
3
 72
8
 73
4
 74
0
 40
0
 40
0
 40
0
 40
0
 40
1
 40
1
 40
1
 40
1
 10
25.720696
 20
209.038026
 30
0.0
 10
28.710092
 20
210.276274
 30
0.0
 10
30.659229
 20
213.193364
 30
0.0
 10
30.659229
 20
216.429062
 30
0.0
  0
SPLINE
  5
104
100
AcDbEntity
  8
Layer_1
 62
1
100
AcDbSpline
 70
8
 71
3
 72
8
 73
4
 74
0
 40
0
 40
0
 40
0
 40
0
 40
1
 40
1
 40
1
 40
1
 10
30.659229
 20
216.429062
 30
0.0
 10
30.659229
 20
218.550794
 30
0.0
 10
29.816374
 20
220.585625
 30
0.0
 10
28.316083
 20
222.085916
 30
0.0
  0
SPLINE
  5
105
100
AcDbEntity
  8
Layer_1
 62
1
100
AcDbSpline
 70
8
 71
3
 72
8
 73
4
 74
0
 40
0
 40
0
 40
0
 40
0
 40
1
 40
1
 40
1
 40
1
 10
28.316083
 20
222.085916
 30
0.0
 10
26.815792
 20
223.586207
 30
0.0
 10
24.780961
 20
224.429062
 30
0.0
 10
22.659229
 20
224.429062
 30
0.0
  0
LINE
  5
106
100
AcDbEntity
  8
Layer_1
 62
1
100
AcDbLine
 10
22.659229
 20
224.429062
 30
0.0
 11
22.659229
 21
224.429062
 31
0.0
  0
LINE
  5
107
100
AcDbEntity
  8
Layer_1
 62
1
100
AcDbLine
 10
13.375200
 20
204.267400
 30
0.0
 11
31.942250
 21
204.267400
 31
0.0
  0
SPLINE
  5
108
100
AcDbEntity
  8
Layer_1
 62
1
100
AcDbSpline
 70
8
 71
3
 72
8
 73
4
 74
0
 40
0
 40
0
 40
0
 40
0
 40
1
 40
1
 40
1
 40
1
 10
31.942250
 20
204.267400
 30
0.0
 10
33.345694
 20
204.267399
 30
0.0
 10
34.691656
 20
204.824917
 30
0.0
 10
35.684037
 20
205.817304
 30
0.0
  0
SPLINE
  5
109
100
AcDbEntity
  8
Layer_1
 62
1
100
AcDbSpline
 70
8
 71
3
 72
8
 73
4
 74
0
 40
0
 40
0
 40
0
 40
0
 40
1
 40
1
 40
1
 40
1
 10
35.684037
 20
205.817304
 30
0.0
 10
36.676419
 20
206.809691
 30
0.0
 10
37.233929
 20
208.155656
 30
0.0
 10
37.233920
 20
209.559100
 30
0.0
  0
LINE
  5
10a
100
AcDbEntity
  8
Layer_1
 62
1
100
AcDbLine
 10
37.233920
 20
209.559100
 30
0.0
 11
37.233920
 21
280.457800
 31
0.0
  0
SPLINE
  5
10b
100
AcDbEntity
  8
Layer_1
 62
1
100
AcDbSpline
 70
8
 71
3
 72
8
 73
4
 74
0
 40
0
 40
0
 40
0
 40
0
 40
1
 40
1
 40
1
 40
1
 10
37.233920
 20
280.457800
 30
0.0
 10
37.233929
 20
281.861244
 30
0.0
 10
36.676419
 20
283.207209
 30
0.0
 10
35.684037
 20
284.199596
 30
0.0
  0
SPLINE
  5
10c
100
AcDbEntity
  8
Layer_1
 62
1
100
AcDbSpline
 70
8
 71
3
 72
8
 73
4
 74
0
 40
0
 40
0
 40
0
 40
0
 40
1
 40
1
 40
1
 40
1
 10
35.684037
 20
284.199596
 30
0.0
 10
34.691656
 20
285.191983
 30
0.0
 10
33.345694
 20
285.749501
 30
0.0
 10
31.942250
 20
285.749500
 30
0.0
  0
LINE
  5
10d
100
AcDbEntity
  8
Layer_1
 62
1
100
AcDbLine
 10
31.942250
 20
285.749500
 30
0.0
 11
13.381060
 21
285.749500
 31
0.0
  0
SPLINE
  5
10e
100
AcDbEntity
  8
Layer_1
 62
1
100
AcDbSpline
 70
8
 71
3
 72
8
 73
4
 74
0
 40
0
 40
0
 40
0
 40
0
 40
1
 40
1
 40
1
 40
1
 10
13.381060
 20
285.749500
 30
0.0
 10
10.458478
 20
285.749501
 30
0.0
 10
8.089202
 20
283.380382
 30
0.0
 10
8.089010
 20
280.457800
 30
0.0
  0
LINE
  5
10f
100
AcDbEntity
  8
Layer_1
 62
1
100
AcDbLine
 10
8.089010
 20
280.457800
 30
0.0
 11
8.084010
 21
209.559100
 31
0.0
  0
SPLINE
  5
110
100
AcDbEntity
  8
Layer_1
 62
1
100
AcDbSpline
 70
8
 71
3
 72
8
 73
4
 74
0
 40
0
 40
0
 40
0
 40
0
 40
1
 40
1
 40
1
 40
1
 10
8.084010
 20
209.559100
 30
0.0
 10
8.083900
 20
208.155691
 30
0.0
 10
8.641325
 20
206.809725
 30
0.0
 10
9.633647
 20
205.817327
 30
0.0
  0
SPLINE
  5
111
100
AcDbEntity
  8
Layer_1
 62
1
100
AcDbSpline
 70
8
 71
3
 72
8
 73
4
 74
0
 40
0
 40
0
 40
0
 40
0
 40
1
 40
1
 40
1
 40
1
 10
9.633647
 20
205.817327
 30
0.0
 10
10.625968
 20
204.824929
 30
0.0
 10
11.971891
 20
204.267399
 30
0.0
 10
13.375300
 20
204.267400
 30
0.0
  0
LINE
  5
112
100
AcDbEntity
  8
Layer_1
 62
1
100
AcDbLine
 10
13.375300
 20
204.267400
 30
0.0
 11
13.375200
 21
204.267400
 31
0.0
  0
SPLINE
  5
113
100
AcDbEntity
  8
Layer_1
 62
1
100
AcDbSpline
 70
8
 71
3
 72
8
 73
4
 74
0
 40
0
 40
0
 40
0
 40
0
 40
1
 40
1
 40
1
 40
1
 10
13.771596
 20
281.039336
 30
0.0
 10
13.387357
 20
281.039336
 30
0.0
 10
13.040952
 20
280.807876
 30
0.0
 10
12.893910
 20
280.452885
 30
0.0
  0
SPLINE
  5
114
100
AcDbEntity
  8
Layer_1
 62
1
100
AcDbSpline
 70
8
 71
3
 72
8
 73
4
 74
0
 40
0
 40
0
 40
0
 40
0
 40
1
 40
1
 40
1
 40
1
 10
12.893910
 20
280.452885
 30
0.0
 10
12.746869
 20
280.097895
 30
0.0
 10
12.828146
 20
279.689283
 30
0.0
 10
13.099845
 20
279.417585
 30
0.0
  0
SPLINE
  5
115
100
AcDbEntity
  8
Layer_1
 62
1
100
AcDbSpline
 70
8
 71
3
 72
8
 73
4
 74
0
 40
0
 40
0
 40
0
 40
0
 40
1
 40
1
 40
1
 40
1
 10
13.099845
 20
279.417585
 30
0.0
 10
13.371543
 20
279.145886
 30
0.0
 10
13.780155
 20
279.064609
 30
0.0
 10
14.135145
 20
279.211650
 30
0.0
  0
SPLINE
  5
116
100
AcDbEntity
  8
Layer_1
 62
1
100
AcDbSpline
 70
8
 71
3
 72
8
 73
4
 74
0
 40
0
 40
0
 40
0
 40
0
 40
1
 40
1
 40
1
 40
1
 10
14.135145
 20
279.211650
 30
0.0
 10
14.490136
 20
279.358692
 30
0.0
 10
14.721596
 20
279.705097
 30
0.0
 10
14.721596
 20
280.089336
 30
0.0
  0
SPLINE
  5
117
100
AcDbEntity
  8
Layer_1
 62
1
100
AcDbSpline
 70
8
 71
3
 72
8
 73
4
 74
0
 40
0
 40
0
 40
0
 40
0
 40
1
 40
1
 40
1
 40
1
 10
14.721596
 20
280.089336
 30
0.0
 10
14.721596
 20
280.341292
 30
0.0
 10
14.621507
 20
280.582928
 30
0.0
 10
14.443347
 20
280.761087
 30
0.0
  0
SPLINE
  5
118
100
AcDbEntity
  8
Layer_1
 62
1
100
AcDbSpline
 70
8
 71
3
 72
8
 73
4
 74
0
 40
0
 40
0
 40
0
 40
0
 40
1
 40
1
 40
1
 40
1
 10
14.443347
 20
280.761087
 30
0.0
 10
14.265188
 20
280.939247
 30
0.0
 10
14.023552
 20
281.039336
 30
0.0
 10
13.771596
 20
281.039336
 30
0.0
  0
LINE
  5
119
100
AcDbEntity
  8
Layer_1
 62
1
100
AcDbLine
 10
13.771596
 20
281.039336
 30
0.0
 11
13.771596
 21
281.039336
 31
0.0
  0
SPLINE
  5
11a
100
AcDbEntity
  8
Layer_1
 62
1
100
AcDbSpline
 70
8
 71
3
 72
8
 73
4
 74
0
 40
0
 40
0
 40
0
 40
0
 40
1
 40
1
 40
1
 40
1
 10
31.549000
 20
281.039336
 30
0.0
 10
31.164761
 20
281.039336
 30
0.0
 10
30.818356
 20
280.807876
 30
0.0
 10
30.671314
 20
280.452885
 30
0.0
  0
SPLINE
  5
11b
100
AcDbEntity
  8
Layer_1
 62
1
100
AcDbSpline
 70
8
 71
3
 72
8
 73
4
 74
0
 40
0
 40
0
 40
0
 40
0
 40
1
 40
1
 40
1
 40
1
 10
30.671314
 20
280.452885
 30
0.0
 10
30.524273
 20
280.097895
 30
0.0
 10
30.605550
 20
279.689283
 30
0.0
 10
30.877249
 20
279.417585
 30
0.0
  0
SPLINE
  5
11c
100
AcDbEntity
  8
Layer_1
 62
1
100
AcDbSpline
 70
8
 71
3
 72
8
 73
4
 74
0
 40
0
 40
0
 40
0
 40
0
 40
1
 40
1
 40
1
 40
1
 10
30.877249
 20
279.417585
 30
0.0
 10
31.148947
 20
279.145886
 30
0.0
 10
31.557559
 20
279.064609
 30
0.0
 10
31.912549
 20
279.211650
 30
0.0
  0
SPLINE
  5
11d
100
AcDbEntity
  8
Layer_1
 62
1
100
AcDbSpline
 70
8
 71
3
 72
8
 73
4
 74
0
 40
0
 40
0
 40
0
 40
0
 40
1
 40
1
 40
1
 40
1
 10
31.912549
 20
279.211650
 30
0.0
 10
32.267540
 20
279.358692
 30
0.0
 10
32.499000
 20
279.705097
 30
0.0
 10
32.499000
 20
280.089336
 30
0.0
  0
SPLINE
  5
11e
100
AcDbEntity
  8
Layer_1
 62
1
100
AcDbSpline
 70
8
 71
3
 72
8
 73
4
 74
0
 40
0
 40
0
 40
0
 40
0
 40
1
 40
1
 40
1
 40
1
 10
32.499000
 20
280.089336
 30
0.0
 10
32.499000
 20
280.341292
 30
0.0
 10
32.398911
 20
280.582928
 30
0.0
 10
32.220751
 20
280.761087
 30
0.0
  0
SPLINE
  5
11f
100
AcDbEntity
  8
Layer_1
 62
1
100
AcDbSpline
 70
8
 71
3
 72
8
 73
4
 74
0
 40
0
 40
0
 40
0
 40
0
 40
1
 40
1
 40
1
 40
1
 10
32.220751
 20
280.761087
 30
0.0
 10
32.042592
 20
280.939247
 30
0.0
 10
31.800956
 20
281.039336
 30
0.0
 10
31.549000
 20
281.039336
 30
0.0
  0
LINE
  5
120
100
AcDbEntity
  8
Layer_1
 62
1
100
AcDbLine
 10
31.549000
 20
281.039336
 30
0.0
 11
31.549000
 21
281.039336
 31
0.0
  0
SPLINE
  5
121
100
AcDbEntity
  8
Layer_1
 62
1
100
AcDbSpline
 70
8
 71
3
 72
8
 73
4
 74
0
 40
0
 40
0
 40
0
 40
0
 40
1
 40
1
 40
1
 40
1
 10
13.771596
 20
235.324249
 30
0.0
 10
13.387357
 20
235.324249
 30
0.0
 10
13.040952
 20
235.092789
 30
0.0
 10
12.893910
 20
234.737798
 30
0.0
  0
SPLINE
  5
122
100
AcDbEntity
  8
Layer_1
 62
1
100
AcDbSpline
 70
8
 71
3
 72
8
 73
4
 74
0
 40
0
 40
0
 40
0
 40
0
 40
1
 40
1
 40
1
 40
1
 10
12.893910
 20
234.737798
 30
0.0
 10
12.746869
 20
234.382808
 30
0.0
 10
12.828146
 20
233.974196
 30
0.0
 10
13.099845
 20
233.702498
 30
0.0
  0
SPLINE
  5
123
100
AcDbEntity
  8
Layer_1
 62
1
100
AcDbSpline
 70
8
 71
3
 72
8
 73
4
 74
0
 40
0
 40
0
 40
0
 40
0
 40
1
 40
1
 40
1
 40
1
 10
13.099845
 20
233.702498
 30
0.0
 10
13.371543
 20
233.430799
 30
0.0
 10
13.780155
 20
233.349522
 30
0.0
 10
14.135145
 20
233.496563
 30
0.0
  0
SPLINE
  5
124
100
AcDbEntity
  8
Layer_1
 62
1
100
AcDbSpline
 70
8
 71
3
 72
8
 73
4
 74
0
 40
0
 40
0
 40
0
 40
0
 40
1
 40
1
 40
1
 40
1
 10
14.135145
 20
233.496563
 30
0.0
 10
14.490136
 20
233.643605
 30
0.0
 10
14.721596
 20
233.990010
 30
0.0
 10
14.721596
 20
234.374249
 30
0.0
  0
SPLINE
  5
125
100
AcDbEntity
  8
Layer_1
 62
1
100
AcDbSpline
 70
8
 71
3
 72
8
 73
4
 74
0
 40
0
 40
0
 40
0
 40
0
 40
1
 40
1
 40
1
 40
1
 10
14.721596
 20
234.374249
 30
0.0
 10
14.721596
 20
234.626205
 30
0.0
 10
14.621507
 20
234.867841
 30
0.0
 10
14.443347
 20
235.046000
 30
0.0
  0
SPLINE
  5
126
100
AcDbEntity
  8
Layer_1
 62
1
100
AcDbSpline
 70
8
 71
3
 72
8
 73
4
 74
0
 40
0
 40
0
 40
0
 40
0
 40
1
 40
1
 40
1
 40
1
 10
14.443347
 20
235.046000
 30
0.0
 10
14.265188
 20
235.224160
 30
0.0
 10
14.023552
 20
235.324249
 30
0.0
 10
13.771596
 20
235.324249
 30
0.0
  0
LINE
  5
127
100
AcDbEntity
  8
Layer_1
 62
1
100
AcDbLine
 10
13.771596
 20
235.324249
 30
0.0
 11
13.771596
 21
235.324249
 31
0.0
  0
SPLINE
  5
128
100
AcDbEntity
  8
Layer_1
 62
1
100
AcDbSpline
 70
8
 71
3
 72
8
 73
4
 74
0
 40
0
 40
0
 40
0
 40
0
 40
1
 40
1
 40
1
 40
1
 10
31.549000
 20
235.324249
 30
0.0
 10
31.164761
 20
235.324249
 30
0.0
 10
30.818356
 20
235.092789
 30
0.0
 10
30.671314
 20
234.737798
 30
0.0
  0
SPLINE
  5
129
100
AcDbEntity
  8
Layer_1
 62
1
100
AcDbSpline
 70
8
 71
3
 72
8
 73
4
 74
0
 40
0
 40
0
 40
0
 40
0
 40
1
 40
1
 40
1
 40
1
 10
30.671314
 20
234.737798
 30
0.0
 10
30.524273
 20
234.382808
 30
0.0
 10
30.605550
 20
233.974196
 30
0.0
 10
30.877249
 20
233.702498
 30
0.0
  0
SPLINE
  5
12a
100
AcDbEntity
  8
Layer_1
 62
1
100
AcDbSpline
 70
8
 71
3
 72
8
 73
4
 74
0
 40
0
 40
0
 40
0
 40
0
 40
1
 40
1
 40
1
 40
1
 10
30.877249
 20
233.702498
 30
0.0
 10
31.148947
 20
233.430799
 30
0.0
 10
31.557559
 20
233.349522
 30
0.0
 10
31.912549
 20
233.496563
 30
0.0
  0
SPLINE
  5
12b
100
AcDbEntity
  8
Layer_1
 62
1
100
AcDbSpline
 70
8
 71
3
 72
8
 73
4
 74
0
 40
0
 40
0
 40
0
 40
0
 40
1
 40
1
 40
1
 40
1
 10
31.912549
 20
233.496563
 30
0.0
 10
32.267540
 20
233.643605
 30
0.0
 10
32.499000
 20
233.990010
 30
0.0
 10
32.499000
 20
234.374249
 30
0.0
  0
SPLINE
  5
12c
100
AcDbEntity
  8
Layer_1
 62
1
100
AcDbSpline
 70
8
 71
3
 72
8
 73
4
 74
0
 40
0
 40
0
 40
0
 40
0
 40
1
 40
1
 40
1
 40
1
 10
32.499000
 20
234.374249
 30
0.0
 10
32.499000
 20
234.626205
 30
0.0
 10
32.398911
 20
234.867841
 30
0.0
 10
32.220751
 20
235.046000
 30
0.0
  0
SPLINE
  5
12d
100
AcDbEntity
  8
Layer_1
 62
1
100
AcDbSpline
 70
8
 71
3
 72
8
 73
4
 74
0
 40
0
 40
0
 40
0
 40
0
 40
1
 40
1
 40
1
 40
1
 10
32.220751
 20
235.046000
 30
0.0
 10
32.042592
 20
235.224160
 30
0.0
 10
31.800956
 20
235.324249
 30
0.0
 10
31.549000
 20
235.324249
 30
0.0
  0
LINE
  5
12e
100
AcDbEntity
  8
Layer_1
 62
1
100
AcDbLine
 10
31.549000
 20
235.324249
 30
0.0
 11
31.549000
 21
235.324249
 31
0.0
  0
ENDSEC
  0
SECTION
  2
OBJECTS
  0
DICTIONARY
  5
C
330
0
100
AcDbDictionary
  3
ACAD_GROUP
350
D
  3
ACAD_MLINESTYLE
350
17
  0
DICTIONARY
  5
D
330
C
100
AcDbDictionary
  0
DICTIONARY
  5
1A
330
C
100
AcDbDictionary
  0
DICTIONARY
  5
17
330
C
100
AcDbDictionary
  3
STANDARD
350
18
  0
DICTIONARY
  5
19
330
C
100
AcDbDictionary
  0
ENDSEC
  0
EOF
