  0
SECTION
  2
HEADER
  9
$ACADVER
  1
AC1014
  9
$HANDSEED
  5
FFFF
  9
$INSUNITS
 70
     0
  9
$MEASUREMENT
 70
     1
  0
ENDSEC
  0
SECTION
  2
TABLES
  0
TABLE
  2
VPORT
  5
8
330
0
100
AcDbSymbolTable
 70
     4
  0
VPORT
  5
2E
330
8
100
AcDbSymbolTableRecord
100
AcDbViewportTableRecord
  2
*ACTIVE
 70
     0
 10
0.0
 20
0.0
 11
1.0
 21
1.0
 12
210.0
 22
148.5
 13
0.0
 23
0.0
 14
10.0
 24
10.0
 15
10.0
 25
10.0
 16
0.0
 26
0.0
 36
1.0
 17
0.0
 27
0.0
 37
0.0
 40
341.0
 41
1.24
 42
50.0
 43
0.0
 44
0.0
 50
0.0
 51
0.0
 71
     0
 72
   100
 73
     1
 74
     3
 75
     0
 76
     0
 77
     0
 78
     0
  0
ENDTAB
  0
TABLE
  2
LTYPE
  5
5
330
0
100
AcDbSymbolTable
 70
     1
  0
LTYPE
  5
14
330
5
100
AcDbSymbolTableRecord
100
AcDbLinetypeTableRecord
  2
BYBLOCK
 70
     0
  3

 72
    65
 73
     0
 40
0.0
  0
LTYPE
  5
15
330
5
100
AcDbSymbolTableRecord
100
AcDbLinetypeTableRecord
  2
BYLAYER
 70
     0
  3

 72
    65
 73
     0
 40
0.0
  0
LTYPE
  5
16
330
5
100
AcDbSymbolTableRecord
100
AcDbLinetypeTableRecord
  2
CONTINUOUS
 70
     0
  3
Solid line
 72
    65
 73
     0
 40
0.0
  0
ENDTAB
  0
TABLE
  2
LAYER
  5
2
100
AcDbSymbolTable
 70
2
  0
LAYER
  5
50
100
AcDbSymbolTableRecord
100
AcDbLayerTableRecord
  2
0
 70
0
  6
CONTINUOUS
  0
LAYER
  5
51
100
AcDbSymbolTableRecord
100
AcDbLayerTableRecord
  2
Layer_1
 70
0
  6
CONTINUOUS
  0
ENDTAB
  0
TABLE
  2
STYLE
  5
3
330
0
100
AcDbSymbolTable
 70
     1
  0
STYLE
  5
11
330
3
100
AcDbSymbolTableRecord
100
AcDbTextStyleTableRecord
  2
STANDARD
 70
     0
 40
0.0
 41
1.0
 50
0.0
 71
     0
 42
2.5
  3
txt
  4

  0
ENDTAB
  0
TABLE
  2
VIEW
  5
6
330
0
100
AcDbSymbolTable
 70
     0
  0
ENDTAB
  0
TABLE
  2
UCS
  5
7
330
0
100
AcDbSymbolTable
 70
     0
  0
ENDTAB
  0
TABLE
  2
APPID
  5
9
330
0
100
AcDbSymbolTable
 70
     2
  0
APPID
  5
12
330
9
100
AcDbSymbolTableRecord
100
AcDbRegAppTableRecord
  2
ACAD
 70
     0
  0
ENDTAB
  0
TABLE
  2
DIMSTYLE
  5
A
330
0
100
AcDbSymbolTable
 70
     1
  0
DIMSTYLE
105
27
330
A
100
AcDbSymbolTableRecord
100
AcDbDimStyleTableRecord
  2
ISO-25
 70
     0
  3

  4

  5

  6

  7

 40
1.0
 41
2.5
 42
0.625
 43
3.75
 44
1.25
 45
0.0
 46
0.0
 47
0.0
 48
0.0
140
2.5
141
2.5
142
0.0
143
0.03937007874016
144
1.0
145
0.0
146
1.0
147
0.625
 71
     0
 72
     0
 73
     0
 74
     0
 75
     0
 76
     0
 77
     1
 78
     8
170
     0
171
     3
172
     1
173
     0
174
     0
175
     0
176
     0
177
     0
178
     0
270
     2
271
     2
272
     2
273
     2
274
     3
340
11
275
     0
280
     0
281
     0
282
     0
283
     0
284
     8
285
     0
286
     0
287
     3
288
     0
  0
ENDTAB
  0
TABLE
  2
BLOCK_RECORD
  5
1
330
0
100
AcDbSymbolTable
 70
     1
  0
BLOCK_RECORD
  5
1F
330
1
100
AcDbSymbolTableRecord
100
AcDbBlockTableRecord
  2
*MODEL_SPACE
  0
BLOCK_RECORD
  5
1B
330
1
100
AcDbSymbolTableRecord
100
AcDbBlockTableRecord
  2
*PAPER_SPACE
  0
ENDTAB
  0
ENDSEC
  0
SECTION
  2
BLOCKS
  0
BLOCK
  5
20
330
1F
100
AcDbEntity
  8
0
100
AcDbBlockBegin
  2
*MODEL_SPACE
 70
     0
 10
0.0
 20
0.0
 30
0.0
  3
*MODEL_SPACE
  1

  0
ENDBLK
  5
21
330
1F
100
AcDbEntity
  8
0
100
AcDbBlockEnd
  0
BLOCK
  5
1C
330
1B
100
AcDbEntity
 67
     1
  8
0
100
AcDbBlockBegin
  2
*PAPER_SPACE
  1

  0
ENDBLK
  5
1D
330
1B
100
AcDbEntity
 67
     1
  8
0
100
AcDbBlockEnd
  0
ENDSEC
  0
SECTION
  2
ENTITIES
  0
SPLINE
  5
100
100
AcDbEntity
  8
Layer_1
 62
3
100
AcDbSpline
 70
8
 71
3
 72
8
 73
4
 74
0
 40
0
 40
0
 40
0
 40
0
 40
1
 40
1
 40
1
 40
1
 10
205.625380
 20
202.381600
 30
0.0
 10
206.258363
 20
202.381600
 30
0.0
 10
206.829019
 20
202.000300
 30
0.0
 10
207.071252
 20
201.415500
 30
0.0
  0
SPLINE
  5
101
100
AcDbEntity
  8
Layer_1
 62
3
100
AcDbSpline
 70
8
 71
3
 72
8
 73
4
 74
0
 40
0
 40
0
 40
0
 40
0
 40
1
 40
1
 40
1
 40
1
 10
207.071252
 20
201.415500
 30
0.0
 10
207.313484
 20
200.830699
 30
0.0
 10
207.179589
 20
200.157565
 30
0.0
 10
206.732002
 20
199.709978
 30
0.0
  0
SPLINE
  5
102
100
AcDbEntity
  8
Layer_1
 62
3
100
AcDbSpline
 70
8
 71
3
 72
8
 73
4
 74
0
 40
0
 40
0
 40
0
 40
0
 40
1
 40
1
 40
1
 40
1
 10
206.732002
 20
199.709978
 30
0.0
 10
206.284415
 20
199.262391
 30
0.0
 10
205.611281
 20
199.128496
 30
0.0
 10
205.026480
 20
199.370728
 30
0.0
  0
SPLINE
  5
103
100
AcDbEntity
  8
Layer_1
 62
3
100
AcDbSpline
 70
8
 71
3
 72
8
 73
4
 74
0
 40
0
 40
0
 40
0
 40
0
 40
1
 40
1
 40
1
 40
1
 10
205.026480
 20
199.370728
 30
0.0
 10
204.441680
 20
199.612961
 30
0.0
 10
204.060380
 20
200.183617
 30
0.0
 10
204.060380
 20
200.816600
 30
0.0
  0
SPLINE
  5
104
100
AcDbEntity
  8
Layer_1
 62
3
100
AcDbSpline
 70
8
 71
3
 72
8
 73
4
 74
0
 40
0
 40
0
 40
0
 40
0
 40
1
 40
1
 40
1
 40
1
 10
204.060380
 20
200.816600
 30
0.0
 10
204.060380
 20
201.231664
 30
0.0
 10
204.225263
 20
201.629728
 30
0.0
 10
204.518758
 20
201.923222
 30
0.0
  0
SPLINE
  5
105
100
AcDbEntity
  8
Layer_1
 62
3
100
AcDbSpline
 70
8
 71
3
 72
8
 73
4
 74
0
 40
0
 40
0
 40
0
 40
0
 40
1
 40
1
 40
1
 40
1
 10
204.518758
 20
201.923222
 30
0.0
 10
204.812252
 20
202.216717
 30
0.0
 10
205.210316
 20
202.381600
 30
0.0
 10
205.625380
 20
202.381600
 30
0.0
  0
LINE
  5
106
100
AcDbEntity
  8
Layer_1
 62
3
100
AcDbLine
 10
205.625380
 20
202.381600
 30
0.0
 11
205.625380
 21
202.381600
 31
0.0
  0
SPLINE
  5
107
100
AcDbEntity
  8
Layer_1
 62
3
100
AcDbSpline
 70
8
 71
3
 72
8
 73
4
 74
0
 40
0
 40
0
 40
0
 40
0
 40
1
 40
1
 40
1
 40
1
 10
290.919300
 20
202.384700
 30
0.0
 10
291.552283
 20
202.384700
 30
0.0
 10
292.122939
 20
202.003400
 30
0.0
 10
292.365172
 20
201.418600
 30
0.0
  0
SPLINE
  5
108
100
AcDbEntity
  8
Layer_1
 62
3
100
AcDbSpline
 70
8
 71
3
 72
8
 73
4
 74
0
 40
0
 40
0
 40
0
 40
0
 40
1
 40
1
 40
1
 40
1
 10
292.365172
 20
201.418600
 30
0.0
 10
292.607404
 20
200.833799
 30
0.0
 10
292.473509
 20
200.160665
 30
0.0
 10
292.025922
 20
199.713078
 30
0.0
  0
SPLINE
  5
109
100
AcDbEntity
  8
Layer_1
 62
3
100
AcDbSpline
 70
8
 71
3
 72
8
 73
4
 74
0
 40
0
 40
0
 40
0
 40
0
 40
1
 40
1
 40
1
 40
1
 10
292.025922
 20
199.713078
 30
0.0
 10
291.578335
 20
199.265491
 30
0.0
 10
290.905201
 20
199.131596
 30
0.0
 10
290.320400
 20
199.373828
 30
0.0
  0
SPLINE
  5
10a
100
AcDbEntity
  8
Layer_1
 62
3
100
AcDbSpline
 70
8
 71
3
 72
8
 73
4
 74
0
 40
0
 40
0
 40
0
 40
0
 40
1
 40
1
 40
1
 40
1
 10
290.320400
 20
199.373828
 30
0.0
 10
289.735600
 20
199.616061
 30
0.0
 10
289.354300
 20
200.186717
 30
0.0
 10
289.354300
 20
200.819700
 30
0.0
  0
SPLINE
  5
10b
100
AcDbEntity
  8
Layer_1
 62
3
100
AcDbSpline
 70
8
 71
3
 72
8
 73
4
 74
0
 40
0
 40
0
 40
0
 40
0
 40
1
 40
1
 40
1
 40
1
 10
289.354300
 20
200.819700
 30
0.0
 10
289.354300
 20
201.234764
 30
0.0
 10
289.519183
 20
201.632828
 30
0.0
 10
289.812678
 20
201.926322
 30
0.0
  0
SPLINE
  5
10c
100
AcDbEntity
  8
Layer_1
 62
3
100
AcDbSpline
 70
8
 71
3
 72
8
 73
4
 74
0
 40
0
 40
0
 40
0
 40
0
 40
1
 40
1
 40
1
 40
1
 10
289.812678
 20
201.926322
 30
0.0
 10
290.106172
 20
202.219817
 30
0.0
 10
290.504236
 20
202.384700
 30
0.0
 10
290.919300
 20
202.384700
 30
0.0
  0
LINE
  5
10d
100
AcDbEntity
  8
Layer_1
 62
3
100
AcDbLine
 10
290.919300
 20
202.384700
 30
0.0
 11
290.919300
 21
202.384700
 31
0.0
  0
SPLINE
  5
10e
100
AcDbEntity
  8
Layer_1
 62
3
100
AcDbSpline
 70
8
 71
3
 72
8
 73
4
 74
0
 40
0
 40
0
 40
0
 40
0
 40
1
 40
1
 40
1
 40
1
 10
290.919300
 20
290.756900
 30
0.0
 10
291.552283
 20
290.756900
 30
0.0
 10
292.122939
 20
290.375600
 30
0.0
 10
292.365172
 20
289.790800
 30
0.0
  0
SPLINE
  5
10f
100
AcDbEntity
  8
Layer_1
 62
3
100
AcDbSpline
 70
8
 71
3
 72
8
 73
4
 74
0
 40
0
 40
0
 40
0
 40
0
 40
1
 40
1
 40
1
 40
1
 10
292.365172
 20
289.790800
 30
0.0
 10
292.607404
 20
289.205999
 30
0.0
 10
292.473509
 20
288.532865
 30
0.0
 10
292.025922
 20
288.085278
 30
0.0
  0
SPLINE
  5
110
100
AcDbEntity
  8
Layer_1
 62
3
100
AcDbSpline
 70
8
 71
3
 72
8
 73
4
 74
0
 40
0
 40
0
 40
0
 40
0
 40
1
 40
1
 40
1
 40
1
 10
292.025922
 20
288.085278
 30
0.0
 10
291.578335
 20
287.637691
 30
0.0
 10
290.905201
 20
287.503796
 30
0.0
 10
290.320400
 20
287.746028
 30
0.0
  0
SPLINE
  5
111
100
AcDbEntity
  8
Layer_1
 62
3
100
AcDbSpline
 70
8
 71
3
 72
8
 73
4
 74
0
 40
0
 40
0
 40
0
 40
0
 40
1
 40
1
 40
1
 40
1
 10
290.320400
 20
287.746028
 30
0.0
 10
289.735600
 20
287.988261
 30
0.0
 10
289.354300
 20
288.558917
 30
0.0
 10
289.354300
 20
289.191900
 30
0.0
  0
SPLINE
  5
112
100
AcDbEntity
  8
Layer_1
 62
3
100
AcDbSpline
 70
8
 71
3
 72
8
 73
4
 74
0
 40
0
 40
0
 40
0
 40
0
 40
1
 40
1
 40
1
 40
1
 10
289.354300
 20
289.191900
 30
0.0
 10
289.354300
 20
289.606964
 30
0.0
 10
289.519183
 20
290.005028
 30
0.0
 10
289.812678
 20
290.298522
 30
0.0
  0
SPLINE
  5
113
100
AcDbEntity
  8
Layer_1
 62
3
100
AcDbSpline
 70
8
 71
3
 72
8
 73
4
 74
0
 40
0
 40
0
 40
0
 40
0
 40
1
 40
1
 40
1
 40
1
 10
289.812678
 20
290.298522
 30
0.0
 10
290.106172
 20
290.592017
 30
0.0
 10
290.504236
 20
290.756900
 30
0.0
 10
290.919300
 20
290.756900
 30
0.0
  0
LINE
  5
114
100
AcDbEntity
  8
Layer_1
 62
3
100
AcDbLine
 10
290.919300
 20
290.756900
 30
0.0
 11
290.919300
 21
290.756900
 31
0.0
  0
SPLINE
  5
115
100
AcDbEntity
  8
Layer_1
 62
3
100
AcDbSpline
 70
8
 71
3
 72
8
 73
4
 74
0
 40
0
 40
0
 40
0
 40
0
 40
1
 40
1
 40
1
 40
1
 10
205.626170
 20
290.756900
 30
0.0
 10
206.259153
 20
290.756900
 30
0.0
 10
206.829809
 20
290.375600
 30
0.0
 10
207.072042
 20
289.790800
 30
0.0
  0
SPLINE
  5
116
100
AcDbEntity
  8
Layer_1
 62
3
100
AcDbSpline
 70
8
 71
3
 72
8
 73
4
 74
0
 40
0
 40
0
 40
0
 40
0
 40
1
 40
1
 40
1
 40
1
 10
207.072042
 20
289.790800
 30
0.0
 10
207.314274
 20
289.205999
 30
0.0
 10
207.180379
 20
288.532865
 30
0.0
 10
206.732792
 20
288.085278
 30
0.0
  0
SPLINE
  5
117
100
AcDbEntity
  8
Layer_1
 62
3
100
AcDbSpline
 70
8
 71
3
 72
8
 73
4
 74
0
 40
0
 40
0
 40
0
 40
0
 40
1
 40
1
 40
1
 40
1
 10
206.732792
 20
288.085278
 30
0.0
 10
206.285205
 20
287.637691
 30
0.0
 10
205.612071
 20
287.503796
 30
0.0
 10
205.027270
 20
287.746028
 30
0.0
  0
SPLINE
  5
118
100
AcDbEntity
  8
Layer_1
 62
3
100
AcDbSpline
 70
8
 71
3
 72
8
 73
4
 74
0
 40
0
 40
0
 40
0
 40
0
 40
1
 40
1
 40
1
 40
1
 10
205.027270
 20
287.746028
 30
0.0
 10
204.442470
 20
287.988261
 30
0.0
 10
204.061170
 20
288.558917
 30
0.0
 10
204.061170
 20
289.191900
 30
0.0
  0
SPLINE
  5
119
100
AcDbEntity
  8
Layer_1
 62
3
100
AcDbSpline
 70
8
 71
3
 72
8
 73
4
 74
0
 40
0
 40
0
 40
0
 40
0
 40
1
 40
1
 40
1
 40
1
 10
204.061170
 20
289.191900
 30
0.0
 10
204.061170
 20
289.606964
 30
0.0
 10
204.226053
 20
290.005028
 30
0.0
 10
204.519548
 20
290.298522
 30
0.0
  0
SPLINE
  5
11a
100
AcDbEntity
  8
Layer_1
 62
3
100
AcDbSpline
 70
8
 71
3
 72
8
 73
4
 74
0
 40
0
 40
0
 40
0
 40
0
 40
1
 40
1
 40
1
 40
1
 10
204.519548
 20
290.298522
 30
0.0
 10
204.813042
 20
290.592017
 30
0.0
 10
205.211106
 20
290.756900
 30
0.0
 10
205.626170
 20
290.756900
 30
0.0
  0
LINE
  5
11b
100
AcDbEntity
  8
Layer_1
 62
3
100
AcDbLine
 10
205.626170
 20
290.756900
 30
0.0
 11
205.626170
 21
290.756900
 31
0.0
  0
SPLINE
  5
11c
100
AcDbEntity
  8
Layer_1
 62
3
100
AcDbSpline
 70
8
 71
3
 72
8
 73
4
 74
0
 40
0
 40
0
 40
0
 40
0
 40
1
 40
1
 40
1
 40
1
 10
6.228710
 20
202.384700
 30
0.0
 10
6.861693
 20
202.384700
 30
0.0
 10
7.432349
 20
202.003400
 30
0.0
 10
7.674582
 20
201.418600
 30
0.0
  0
SPLINE
  5
11d
100
AcDbEntity
  8
Layer_1
 62
3
100
AcDbSpline
 70
8
 71
3
 72
8
 73
4
 74
0
 40
0
 40
0
 40
0
 40
0
 40
1
 40
1
 40
1
 40
1
 10
7.674582
 20
201.418600
 30
0.0
 10
7.916814
 20
200.833799
 30
0.0
 10
7.782919
 20
200.160665
 30
0.0
 10
7.335332
 20
199.713078
 30
0.0
  0
SPLINE
  5
11e
100
AcDbEntity
  8
Layer_1
 62
3
100
AcDbSpline
 70
8
 71
3
 72
8
 73
4
 74
0
 40
0
 40
0
 40
0
 40
0
 40
1
 40
1
 40
1
 40
1
 10
7.335332
 20
199.713078
 30
0.0
 10
6.887745
 20
199.265491
 30
0.0
 10
6.214611
 20
199.131596
 30
0.0
 10
5.629810
 20
199.373828
 30
0.0
  0
SPLINE
  5
11f
100
AcDbEntity
  8
Layer_1
 62
3
100
AcDbSpline
 70
8
 71
3
 72
8
 73
4
 74
0
 40
0
 40
0
 40
0
 40
0
 40
1
 40
1
 40
1
 40
1
 10
5.629810
 20
199.373828
 30
0.0
 10
5.045010
 20
199.616061
 30
0.0
 10
4.663710
 20
200.186717
 30
0.0
 10
4.663710
 20
200.819700
 30
0.0
  0
SPLINE
  5
120
100
AcDbEntity
  8
Layer_1
 62
3
100
AcDbSpline
 70
8
 71
3
 72
8
 73
4
 74
0
 40
0
 40
0
 40
0
 40
0
 40
1
 40
1
 40
1
 40
1
 10
4.663710
 20
200.819700
 30
0.0
 10
4.663710
 20
201.234764
 30
0.0
 10
4.828593
 20
201.632828
 30
0.0
 10
5.122088
 20
201.926322
 30
0.0
  0
SPLINE
  5
121
100
AcDbEntity
  8
Layer_1
 62
3
100
AcDbSpline
 70
8
 71
3
 72
8
 73
4
 74
0
 40
0
 40
0
 40
0
 40
0
 40
1
 40
1
 40
1
 40
1
 10
5.122088
 20
201.926322
 30
0.0
 10
5.415582
 20
202.219817
 30
0.0
 10
5.813646
 20
202.384700
 30
0.0
 10
6.228710
 20
202.384700
 30
0.0
  0
LINE
  5
122
100
AcDbEntity
  8
Layer_1
 62
3
100
AcDbLine
 10
6.228710
 20
202.384700
 30
0.0
 11
6.228710
 21
202.384700
 31
0.0
  0
SPLINE
  5
123
100
AcDbEntity
  8
Layer_1
 62
3
100
AcDbSpline
 70
8
 71
3
 72
8
 73
4
 74
0
 40
0
 40
0
 40
0
 40
0
 40
1
 40
1
 40
1
 40
1
 10
6.228710
 20
290.756900
 30
0.0
 10
6.861693
 20
290.756900
 30
0.0
 10
7.432349
 20
290.375600
 30
0.0
 10
7.674582
 20
289.790800
 30
0.0
  0
SPLINE
  5
124
100
AcDbEntity
  8
Layer_1
 62
3
100
AcDbSpline
 70
8
 71
3
 72
8
 73
4
 74
0
 40
0
 40
0
 40
0
 40
0
 40
1
 40
1
 40
1
 40
1
 10
7.674582
 20
289.790800
 30
0.0
 10
7.916814
 20
289.205999
 30
0.0
 10
7.782919
 20
288.532865
 30
0.0
 10
7.335332
 20
288.085278
 30
0.0
  0
SPLINE
  5
125
100
AcDbEntity
  8
Layer_1
 62
3
100
AcDbSpline
 70
8
 71
3
 72
8
 73
4
 74
0
 40
0
 40
0
 40
0
 40
0
 40
1
 40
1
 40
1
 40
1
 10
7.335332
 20
288.085278
 30
0.0
 10
6.887745
 20
287.637691
 30
0.0
 10
6.214611
 20
287.503796
 30
0.0
 10
5.629810
 20
287.746028
 30
0.0
  0
SPLINE
  5
126
100
AcDbEntity
  8
Layer_1
 62
3
100
AcDbSpline
 70
8
 71
3
 72
8
 73
4
 74
0
 40
0
 40
0
 40
0
 40
0
 40
1
 40
1
 40
1
 40
1
 10
5.629810
 20
287.746028
 30
0.0
 10
5.045010
 20
287.988261
 30
0.0
 10
4.663710
 20
288.558917
 30
0.0
 10
4.663710
 20
289.191900
 30
0.0
  0
SPLINE
  5
127
100
AcDbEntity
  8
Layer_1
 62
3
100
AcDbSpline
 70
8
 71
3
 72
8
 73
4
 74
0
 40
0
 40
0
 40
0
 40
0
 40
1
 40
1
 40
1
 40
1
 10
4.663710
 20
289.191900
 30
0.0
 10
4.663710
 20
289.606964
 30
0.0
 10
4.828593
 20
290.005028
 30
0.0
 10
5.122088
 20
290.298522
 30
0.0
  0
SPLINE
  5
128
100
AcDbEntity
  8
Layer_1
 62
3
100
AcDbSpline
 70
8
 71
3
 72
8
 73
4
 74
0
 40
0
 40
0
 40
0
 40
0
 40
1
 40
1
 40
1
 40
1
 10
5.122088
 20
290.298522
 30
0.0
 10
5.415582
 20
290.592017
 30
0.0
 10
5.813646
 20
290.756900
 30
0.0
 10
6.228710
 20
290.756900
 30
0.0
  0
LINE
  5
129
100
AcDbEntity
  8
Layer_1
 62
3
100
AcDbLine
 10
6.228710
 20
290.756900
 30
0.0
 11
6.228710
 21
290.756900
 31
0.0
  0
SPLINE
  5
12a
100
AcDbEntity
  8
Layer_1
 62
3
100
AcDbSpline
 70
8
 71
3
 72
8
 73
4
 74
0
 40
0
 40
0
 40
0
 40
0
 40
1
 40
1
 40
1
 40
1
 10
124.321910
 20
202.384700
 30
0.0
 10
124.954893
 20
202.384700
 30
0.0
 10
125.525549
 20
202.003400
 30
0.0
 10
125.767782
 20
201.418600
 30
0.0
  0
SPLINE
  5
12b
100
AcDbEntity
  8
Layer_1
 62
3
100
AcDbSpline
 70
8
 71
3
 72
8
 73
4
 74
0
 40
0
 40
0
 40
0
 40
0
 40
1
 40
1
 40
1
 40
1
 10
125.767782
 20
201.418600
 30
0.0
 10
126.010014
 20
200.833799
 30
0.0
 10
125.876119
 20
200.160665
 30
0.0
 10
125.428532
 20
199.713078
 30
0.0
  0
SPLINE
  5
12c
100
AcDbEntity
  8
Layer_1
 62
3
100
AcDbSpline
 70
8
 71
3
 72
8
 73
4
 74
0
 40
0
 40
0
 40
0
 40
0
 40
1
 40
1
 40
1
 40
1
 10
125.428532
 20
199.713078
 30
0.0
 10
124.980945
 20
199.265491
 30
0.0
 10
124.307811
 20
199.131596
 30
0.0
 10
123.723010
 20
199.373828
 30
0.0
  0
SPLINE
  5
12d
100
AcDbEntity
  8
Layer_1
 62
3
100
AcDbSpline
 70
8
 71
3
 72
8
 73
4
 74
0
 40
0
 40
0
 40
0
 40
0
 40
1
 40
1
 40
1
 40
1
 10
123.723010
 20
199.373828
 30
0.0
 10
123.138210
 20
199.616061
 30
0.0
 10
122.756910
 20
200.186717
 30
0.0
 10
122.756910
 20
200.819700
 30
0.0
  0
SPLINE
  5
12e
100
AcDbEntity
  8
Layer_1
 62
3
100
AcDbSpline
 70
8
 71
3
 72
8
 73
4
 74
0
 40
0
 40
0
 40
0
 40
0
 40
1
 40
1
 40
1
 40
1
 10
122.756910
 20
200.819700
 30
0.0
 10
122.756910
 20
201.234764
 30
0.0
 10
122.921793
 20
201.632828
 30
0.0
 10
123.215288
 20
201.926322
 30
0.0
  0
SPLINE
  5
12f
100
AcDbEntity
  8
Layer_1
 62
3
100
AcDbSpline
 70
8
 71
3
 72
8
 73
4
 74
0
 40
0
 40
0
 40
0
 40
0
 40
1
 40
1
 40
1
 40
1
 10
123.215288
 20
201.926322
 30
0.0
 10
123.508782
 20
202.219817
 30
0.0
 10
123.906846
 20
202.384700
 30
0.0
 10
124.321910
 20
202.384700
 30
0.0
  0
LINE
  5
130
100
AcDbEntity
  8
Layer_1
 62
3
100
AcDbLine
 10
124.321910
 20
202.384700
 30
0.0
 11
124.321910
 21
202.384700
 31
0.0
  0
SPLINE
  5
131
100
AcDbEntity
  8
Layer_1
 62
3
100
AcDbSpline
 70
8
 71
3
 72
8
 73
4
 74
0
 40
0
 40
0
 40
0
 40
0
 40
1
 40
1
 40
1
 40
1
 10
124.321300
 20
290.756900
 30
0.0
 10
124.954283
 20
290.756900
 30
0.0
 10
125.524939
 20
290.375600
 30
0.0
 10
125.767172
 20
289.790800
 30
0.0
  0
SPLINE
  5
132
100
AcDbEntity
  8
Layer_1
 62
3
100
AcDbSpline
 70
8
 71
3
 72
8
 73
4
 74
0
 40
0
 40
0
 40
0
 40
0
 40
1
 40
1
 40
1
 40
1
 10
125.767172
 20
289.790800
 30
0.0
 10
126.009404
 20
289.205999
 30
0.0
 10
125.875509
 20
288.532865
 30
0.0
 10
125.427922
 20
288.085278
 30
0.0
  0
SPLINE
  5
133
100
AcDbEntity
  8
Layer_1
 62
3
100
AcDbSpline
 70
8
 71
3
 72
8
 73
4
 74
0
 40
0
 40
0
 40
0
 40
0
 40
1
 40
1
 40
1
 40
1
 10
125.427922
 20
288.085278
 30
0.0
 10
124.980335
 20
287.637691
 30
0.0
 10
124.307201
 20
287.503796
 30
0.0
 10
123.722400
 20
287.746028
 30
0.0
  0
SPLINE
  5
134
100
AcDbEntity
  8
Layer_1
 62
3
100
AcDbSpline
 70
8
 71
3
 72
8
 73
4
 74
0
 40
0
 40
0
 40
0
 40
0
 40
1
 40
1
 40
1
 40
1
 10
123.722400
 20
287.746028
 30
0.0
 10
123.137600
 20
287.988261
 30
0.0
 10
122.756300
 20
288.558917
 30
0.0
 10
122.756300
 20
289.191900
 30
0.0
  0
SPLINE
  5
135
100
AcDbEntity
  8
Layer_1
 62
3
100
AcDbSpline
 70
8
 71
3
 72
8
 73
4
 74
0
 40
0
 40
0
 40
0
 40
0
 40
1
 40
1
 40
1
 40
1
 10
122.756300
 20
289.191900
 30
0.0
 10
122.756300
 20
289.606964
 30
0.0
 10
122.921183
 20
290.005028
 30
0.0
 10
123.214678
 20
290.298522
 30
0.0
  0
SPLINE
  5
136
100
AcDbEntity
  8
Layer_1
 62
3
100
AcDbSpline
 70
8
 71
3
 72
8
 73
4
 74
0
 40
0
 40
0
 40
0
 40
0
 40
1
 40
1
 40
1
 40
1
 10
123.214678
 20
290.298522
 30
0.0
 10
123.508172
 20
290.592017
 30
0.0
 10
123.906236
 20
290.756900
 30
0.0
 10
124.321300
 20
290.756900
 30
0.0
  0
LINE
  5
137
100
AcDbEntity
  8
Layer_1
 62
3
100
AcDbLine
 10
124.321300
 20
290.756900
 30
0.0
 11
124.321300
 21
290.756900
 31
0.0
  0
SPLINE
  5
138
100
AcDbEntity
  8
Layer_1
 62
3
100
AcDbSpline
 70
8
 71
3
 72
8
 73
4
 74
0
 40
0
 40
0
 40
0
 40
0
 40
1
 40
1
 40
1
 40
1
 10
39.085228
 20
290.757364
 30
0.0
 10
39.718211
 20
290.757364
 30
0.0
 10
40.288867
 20
290.376064
 30
0.0
 10
40.531100
 20
289.791263
 30
0.0
  0
SPLINE
  5
139
100
AcDbEntity
  8
Layer_1
 62
3
100
AcDbSpline
 70
8
 71
3
 72
8
 73
4
 74
0
 40
0
 40
0
 40
0
 40
0
 40
1
 40
1
 40
1
 40
1
 10
40.531100
 20
289.791263
 30
0.0
 10
40.773332
 20
289.206463
 30
0.0
 10
40.639437
 20
288.533328
 30
0.0
 10
40.191850
 20
288.085742
 30
0.0
  0
SPLINE
  5
13a
100
AcDbEntity
  8
Layer_1
 62
3
100
AcDbSpline
 70
8
 71
3
 72
8
 73
4
 74
0
 40
0
 40
0
 40
0
 40
0
 40
1
 40
1
 40
1
 40
1
 10
40.191850
 20
288.085742
 30
0.0
 10
39.744263
 20
287.638155
 30
0.0
 10
39.071129
 20
287.504260
 30
0.0
 10
38.486328
 20
287.746492
 30
0.0
  0
SPLINE
  5
13b
100
AcDbEntity
  8
Layer_1
 62
3
100
AcDbSpline
 70
8
 71
3
 72
8
 73
4
 74
0
 40
0
 40
0
 40
0
 40
0
 40
1
 40
1
 40
1
 40
1
 10
38.486328
 20
287.746492
 30
0.0
 10
37.901528
 20
287.988724
 30
0.0
 10
37.520228
 20
288.559380
 30
0.0
 10
37.520228
 20
289.192364
 30
0.0
  0
SPLINE
  5
13c
100
AcDbEntity
  8
Layer_1
 62
3
100
AcDbSpline
 70
8
 71
3
 72
8
 73
4
 74
0
 40
0
 40
0
 40
0
 40
0
 40
1
 40
1
 40
1
 40
1
 10
37.520228
 20
289.192364
 30
0.0
 10
37.520228
 20
289.607428
 30
0.0
 10
37.685111
 20
290.005491
 30
0.0
 10
37.978606
 20
290.298986
 30
0.0
  0
SPLINE
  5
13d
100
AcDbEntity
  8
Layer_1
 62
3
100
AcDbSpline
 70
8
 71
3
 72
8
 73
4
 74
0
 40
0
 40
0
 40
0
 40
0
 40
1
 40
1
 40
1
 40
1
 10
37.978606
 20
290.298986
 30
0.0
 10
38.272100
 20
290.592480
 30
0.0
 10
38.670164
 20
290.757364
 30
0.0
 10
39.085228
 20
290.757364
 30
0.0
  0
LINE
  5
13e
100
AcDbEntity
  8
Layer_1
 62
3
100
AcDbLine
 10
39.085228
 20
290.757364
 30
0.0
 11
39.085228
 21
290.757364
 31
0.0
  0
SPLINE
  5
13f
100
AcDbEntity
  8
Layer_1
 62
3
100
AcDbSpline
 70
8
 71
3
 72
8
 73
4
 74
0
 40
0
 40
0
 40
0
 40
0
 40
1
 40
1
 40
1
 40
1
 10
39.085228
 20
202.385175
 30
0.0
 10
39.718211
 20
202.385175
 30
0.0
 10
40.288867
 20
202.003875
 30
0.0
 10
40.531100
 20
201.419075
 30
0.0
  0
SPLINE
  5
140
100
AcDbEntity
  8
Layer_1
 62
3
100
AcDbSpline
 70
8
 71
3
 72
8
 73
4
 74
0
 40
0
 40
0
 40
0
 40
0
 40
1
 40
1
 40
1
 40
1
 10
40.531100
 20
201.419075
 30
0.0
 10
40.773332
 20
200.834274
 30
0.0
 10
40.639437
 20
200.161140
 30
0.0
 10
40.191850
 20
199.713553
 30
0.0
  0
SPLINE
  5
141
100
AcDbEntity
  8
Layer_1
 62
3
100
AcDbSpline
 70
8
 71
3
 72
8
 73
4
 74
0
 40
0
 40
0
 40
0
 40
0
 40
1
 40
1
 40
1
 40
1
 10
40.191850
 20
199.713553
 30
0.0
 10
39.744263
 20
199.265966
 30
0.0
 10
39.071129
 20
199.132071
 30
0.0
 10
38.486328
 20
199.374303
 30
0.0
  0
SPLINE
  5
142
100
AcDbEntity
  8
Layer_1
 62
3
100
AcDbSpline
 70
8
 71
3
 72
8
 73
4
 74
0
 40
0
 40
0
 40
0
 40
0
 40
1
 40
1
 40
1
 40
1
 10
38.486328
 20
199.374303
 30
0.0
 10
37.901528
 20
199.616536
 30
0.0
 10
37.520228
 20
200.187192
 30
0.0
 10
37.520228
 20
200.820175
 30
0.0
  0
SPLINE
  5
143
100
AcDbEntity
  8
Layer_1
 62
3
100
AcDbSpline
 70
8
 71
3
 72
8
 73
4
 74
0
 40
0
 40
0
 40
0
 40
0
 40
1
 40
1
 40
1
 40
1
 10
37.520228
 20
200.820175
 30
0.0
 10
37.520228
 20
201.235239
 30
0.0
 10
37.685111
 20
201.633303
 30
0.0
 10
37.978606
 20
201.926797
 30
0.0
  0
SPLINE
  5
144
100
AcDbEntity
  8
Layer_1
 62
3
100
AcDbSpline
 70
8
 71
3
 72
8
 73
4
 74
0
 40
0
 40
0
 40
0
 40
0
 40
1
 40
1
 40
1
 40
1
 10
37.978606
 20
201.926797
 30
0.0
 10
38.272100
 20
202.220292
 30
0.0
 10
38.670164
 20
202.385175
 30
0.0
 10
39.085228
 20
202.385175
 30
0.0
  0
LINE
  5
145
100
AcDbEntity
  8
Layer_1
 62
3
100
AcDbLine
 10
39.085228
 20
202.385175
 30
0.0
 11
39.085228
 21
202.385175
 31
0.0
  0
LINE
  5
146
100
AcDbEntity
  8
Layer_1
 62
3
100
AcDbLine
 10
82.589060
 20
206.376400
 30
0.0
 11
143.168330
 21
206.376400
 31
0.0
  0
LINE
  5
147
100
AcDbEntity
  8
Layer_1
 62
3
100
AcDbLine
 10
143.168330
 20
206.376400
 30
0.0
 11
184.219040
 21
206.376400
 31
0.0
  0
LINE
  5
148
100
AcDbEntity
  8
Layer_1
 62
3
100
AcDbLine
 10
184.219040
 20
206.376400
 30
0.0
 11
245.958850
 21
206.376400
 31
0.0
  0
LINE
  5
149
100
AcDbEntity
  8
Layer_1
 62
3
100
AcDbLine
 10
245.958850
 20
206.376400
 30
0.0
 11
286.428050
 21
206.376400
 31
0.0
  0
SPLINE
  5
14a
100
AcDbEntity
  8
Layer_1
 62
3
100
AcDbSpline
 70
8
 71
3
 72
8
 73
4
 74
0
 40
0
 40
0
 40
0
 40
0
 40
1
 40
1
 40
1
 40
1
 10
286.428050
 20
206.376400
 30
0.0
 10
286.568405
 20
206.376391
 30
0.0
 10
286.703015
 20
206.432143
 30
0.0
 10
286.802261
 20
206.531389
 30
0.0
  0
SPLINE
  5
14b
100
AcDbEntity
  8
Layer_1
 62
3
100
AcDbSpline
 70
8
 71
3
 72
8
 73
4
 74
0
 40
0
 40
0
 40
0
 40
0
 40
1
 40
1
 40
1
 40
1
 10
286.802261
 20
206.531389
 30
0.0
 10
286.901507
 20
206.630635
 30
0.0
 10
286.957259
 20
206.765245
 30
0.0
 10
286.957250
 20
206.905600
 30
0.0
  0
LINE
  5
14c
100
AcDbEntity
  8
Layer_1
 62
3
100
AcDbLine
 10
286.957250
 20
206.905600
 30
0.0
 11
286.957250
 21
283.105600
 31
0.0
  0
SPLINE
  5
14d
100
AcDbEntity
  8
Layer_1
 62
3
100
AcDbSpline
 70
8
 71
3
 72
8
 73
4
 74
0
 40
0
 40
0
 40
0
 40
0
 40
1
 40
1
 40
1
 40
1
 10
286.957250
 20
283.105600
 30
0.0
 10
286.957259
 20
283.245955
 30
0.0
 10
286.901507
 20
283.380565
 30
0.0
 10
286.802261
 20
283.479811
 30
0.0
  0
SPLINE
  5
14e
100
AcDbEntity
  8
Layer_1
 62
3
100
AcDbSpline
 70
8
 71
3
 72
8
 73
4
 74
0
 40
0
 40
0
 40
0
 40
0
 40
1
 40
1
 40
1
 40
1
 10
286.802261
 20
283.479811
 30
0.0
 10
286.703015
 20
283.579057
 30
0.0
 10
286.568405
 20
283.634809
 30
0.0
 10
286.428050
 20
283.634800
 30
0.0
  0
LINE
  5
14f
100
AcDbEntity
  8
Layer_1
 62
3
100
AcDbLine
 10
286.428050
 20
283.634800
 30
0.0
 11
247.021050
 21
283.634800
 31
0.0
  0
LINE
  5
150
100
AcDbEntity
  8
Layer_1
 62
3
100
AcDbLine
 10
247.021050
 20
283.634800
 30
0.0
 11
185.285490
 21
283.634800
 31
0.0
  0
LINE
  5
151
100
AcDbEntity
  8
Layer_1
 62
3
100
AcDbLine
 10
185.285490
 20
283.634800
 30
0.0
 11
144.233890
 21
283.634800
 31
0.0
  0
LINE
  5
152
100
AcDbEntity
  8
Layer_1
 62
3
100
AcDbLine
 10
144.233890
 20
283.634800
 30
0.0
 11
82.588790
 21
283.634800
 31
0.0
  0
SPLINE
  5
153
100
AcDbEntity
  8
Layer_1
 62
3
100
AcDbSpline
 70
8
 71
3
 72
8
 73
4
 74
0
 40
0
 40
0
 40
0
 40
0
 40
1
 40
1
 40
1
 40
1
 10
82.588790
 20
283.634800
 30
0.0
 10
82.236010
 20
283.634795
 30
0.0
 10
81.883230
 20
283.634795
 30
0.0
 10
81.530450
 20
283.634800
 30
0.0
  0
LINE
  5
154
100
AcDbEntity
  8
Layer_1
 62
3
100
AcDbLine
 10
81.530450
 20
283.634800
 30
0.0
 11
43.543840
 21
283.635800
 31
0.0
  0
SPLINE
  5
155
100
AcDbEntity
  8
Layer_1
 62
3
100
AcDbSpline
 70
8
 71
3
 72
8
 73
4
 74
0
 40
0
 40
0
 40
0
 40
0
 40
1
 40
1
 40
1
 40
1
 10
43.543840
 20
283.635800
 30
0.0
 10
43.191060
 20
283.635805
 30
0.0
 10
42.838280
 20
283.635805
 30
0.0
 10
42.485500
 20
283.635800
 30
0.0
  0
LINE
  5
156
100
AcDbEntity
  8
Layer_1
 62
3
100
AcDbLine
 10
42.485500
 20
283.635800
 30
0.0
 11
10.735490
 21
283.635800
 31
0.0
  0
SPLINE
  5
157
100
AcDbEntity
  8
Layer_1
 62
3
100
AcDbSpline
 70
8
 71
3
 72
8
 73
4
 74
0
 40
0
 40
0
 40
0
 40
0
 40
1
 40
1
 40
1
 40
1
 10
10.735490
 20
283.635800
 30
0.0
 10
10.443218
 20
283.635799
 30
0.0
 10
10.206282
 20
283.398872
 30
0.0
 10
10.206270
 20
283.106600
 30
0.0
  0
LINE
  5
158
100
AcDbEntity
  8
Layer_1
 62
3
100
AcDbLine
 10
10.206270
 20
283.106600
 30
0.0
 11
10.198270
 21
206.907700
 31
0.0
  0
SPLINE
  5
159
100
AcDbEntity
  8
Layer_1
 62
3
100
AcDbSpline
 70
8
 71
3
 72
8
 73
4
 74
0
 40
0
 40
0
 40
0
 40
0
 40
1
 40
1
 40
1
 40
1
 10
10.198270
 20
206.907700
 30
0.0
 10
10.198247
 20
206.767354
 30
0.0
 10
10.253983
 20
206.632749
 30
0.0
 10
10.353215
 20
206.533502
 30
0.0
  0
SPLINE
  5
15a
100
AcDbEntity
  8
Layer_1
 62
3
100
AcDbSpline
 70
8
 71
3
 72
8
 73
4
 74
0
 40
0
 40
0
 40
0
 40
0
 40
1
 40
1
 40
1
 40
1
 10
10.353215
 20
206.533502
 30
0.0
 10
10.452447
 20
206.434255
 30
0.0
 10
10.587044
 20
206.378498
 30
0.0
 10
10.727390
 20
206.378500
 30
0.0
  0
LINE
  5
15b
100
AcDbEntity
  8
Layer_1
 62
3
100
AcDbLine
 10
10.727390
 20
206.378500
 30
0.0
 11
42.477350
 21
206.378500
 31
0.0
  0
SPLINE
  5
15c
100
AcDbEntity
  8
Layer_1
 62
3
100
AcDbSpline
 70
8
 71
3
 72
8
 73
4
 74
0
 40
0
 40
0
 40
0
 40
0
 40
1
 40
1
 40
1
 40
1
 10
42.477350
 20
206.378500
 30
0.0
 10
42.830130
 20
206.378509
 30
0.0
 10
43.182910
 20
206.378509
 30
0.0
 10
43.535690
 20
206.378500
 30
0.0
  0
LINE
  5
15d
100
AcDbEntity
  8
Layer_1
 62
3
100
AcDbLine
 10
43.535690
 20
206.378500
 30
0.0
 11
81.530620
 21
206.378500
 31
0.0
  0
SPLINE
  5
15e
100
AcDbEntity
  8
Layer_1
 62
3
100
AcDbSpline
 70
8
 71
3
 72
8
 73
4
 74
0
 40
0
 40
0
 40
0
 40
0
 40
1
 40
1
 40
1
 40
1
 10
81.530620
 20
206.378500
 30
0.0
 10
81.883400
 20
206.378491
 30
0.0
 10
82.236180
 20
206.378491
 30
0.0
 10
82.588960
 20
206.378500
 30
0.0
  0
LINE
  5
15f
100
AcDbEntity
  8
Layer_1
 62
3
100
AcDbLine
 10
82.588960
 20
206.378500
 30
0.0
 11
82.589060
 21
206.376400
 31
0.0
  0
LINE
  5
160
100
AcDbEntity
  8
Layer_1
 62
3
100
AcDbLine
 10
247.099210
 20
193.144000
 30
0.0
 11
294.377050
 21
193.144000
 31
0.0
  0
SPLINE
  5
161
100
AcDbEntity
  8
Layer_1
 62
3
100
AcDbSpline
 70
8
 71
3
 72
8
 73
4
 74
0
 40
0
 40
0
 40
0
 40
0
 40
1
 40
1
 40
1
 40
1
 10
294.377050
 20
193.144000
 30
0.0
 10
295.078745
 20
193.144001
 30
0.0
 10
295.751697
 20
193.422760
 30
0.0
 10
296.247855
 20
193.918948
 30
0.0
  0
SPLINE
  5
162
100
AcDbEntity
  8
Layer_1
 62
3
100
AcDbSpline
 70
8
 71
3
 72
8
 73
4
 74
0
 40
0
 40
0
 40
0
 40
0
 40
1
 40
1
 40
1
 40
1
 10
296.247855
 20
193.918948
 30
0.0
 10
296.744013
 20
194.415136
 30
0.0
 10
297.022731
 20
195.088105
 30
0.0
 10
297.022690
 20
195.789800
 30
0.0
  0
LINE
  5
163
100
AcDbEntity
  8
Layer_1
 62
3
100
AcDbLine
 10
297.022690
 20
195.789800
 30
0.0
 11
297.022130
 21
203.734400
 31
0.0
  0
SPLINE
  5
164
100
AcDbEntity
  8
Layer_1
 62
3
100
AcDbSpline
 70
8
 71
3
 72
8
 73
4
 74
0
 40
0
 40
0
 40
0
 40
0
 40
1
 40
1
 40
1
 40
1
 10
297.022130
 20
203.734400
 30
0.0
 10
297.022065
 20
204.435669
 30
0.0
 10
296.743101
 20
205.108120
 30
0.0
 10
296.246739
 20
205.603502
 30
0.0
  0
SPLINE
  5
165
100
AcDbEntity
  8
Layer_1
 62
3
100
AcDbSpline
 70
8
 71
3
 72
8
 73
4
 74
0
 40
0
 40
0
 40
0
 40
0
 40
1
 40
1
 40
1
 40
1
 10
296.246739
 20
205.603502
 30
0.0
 10
295.750378
 20
206.098884
 30
0.0
 10
295.077377
 20
206.376520
 30
0.0
 10
294.376110
 20
206.375200
 30
0.0
  0
LINE
  5
166
100
AcDbEntity
  8
Layer_1
 62
3
100
AcDbLine
 10
294.376110
 20
206.375200
 30
0.0
 11
294.349510
 21
206.375200
 31
0.0
  0
SPLINE
  5
167
100
AcDbEntity
  8
Layer_1
 62
3
100
AcDbSpline
 70
8
 71
3
 72
8
 73
4
 74
0
 40
0
 40
0
 40
0
 40
0
 40
1
 40
1
 40
1
 40
1
 10
294.349510
 20
206.375200
 30
0.0
 10
293.648164
 20
206.373881
 30
0.0
 10
292.975075
 20
206.651489
 30
0.0
 10
292.478577
 20
207.146846
 30
0.0
  0
SPLINE
  5
168
100
AcDbEntity
  8
Layer_1
 62
3
100
AcDbSpline
 70
8
 71
3
 72
8
 73
4
 74
0
 40
0
 40
0
 40
0
 40
0
 40
1
 40
1
 40
1
 40
1
 10
292.478577
 20
207.146846
 30
0.0
 10
291.982079
 20
207.642204
 30
0.0
 10
291.702924
 20
208.314652
 30
0.0
 10
291.702630
 20
209.016000
 30
0.0
  0
LINE
  5
169
100
AcDbEntity
  8
Layer_1
 62
3
100
AcDbLine
 10
291.702630
 20
209.016000
 30
0.0
 11
291.681030
 21
263.428100
 31
0.0
  0
SPLINE
  5
16a
100
AcDbEntity
  8
Layer_1
 62
3
100
AcDbSpline
 70
8
 71
3
 72
8
 73
4
 74
0
 40
0
 40
0
 40
0
 40
0
 40
1
 40
1
 40
1
 40
1
 10
291.681030
 20
263.428100
 30
0.0
 10
291.680355
 20
265.191969
 30
0.0
 10
291.682688
 20
266.955839
 30
0.0
 10
291.688030
 20
268.719700
 30
0.0
  0
LINE
  5
16b
100
AcDbEntity
  8
Layer_1
 62
3
100
AcDbLine
 10
291.688030
 20
268.719700
 30
0.0
 11
291.695030
 21
270.926200
 31
0.0
  0
SPLINE
  5
16c
100
AcDbEntity
  8
Layer_1
 62
3
100
AcDbSpline
 70
8
 71
3
 72
8
 73
4
 74
0
 40
0
 40
0
 40
0
 40
0
 40
1
 40
1
 40
1
 40
1
 10
291.695030
 20
270.926200
 30
0.0
 10
291.699450
 20
272.388724
 30
0.0
 10
292.886300
 20
273.571996
 30
0.0
 10
294.348830
 20
273.572000
 30
0.0
  0
LINE
  5
16d
100
AcDbEntity
  8
Layer_1
 62
3
100
AcDbLine
 10
294.348830
 20
273.572000
 30
0.0
 11
294.369730
 21
273.572000
 31
0.0
  0
SPLINE
  5
16e
100
AcDbEntity
  8
Layer_1
 62
3
100
AcDbSpline
 70
8
 71
3
 72
8
 73
4
 74
0
 40
0
 40
0
 40
0
 40
0
 40
1
 40
1
 40
1
 40
1
 10
294.369730
 20
273.572000
 30
0.0
 10
295.071421
 20
273.572002
 30
0.0
 10
295.744369
 20
273.850762
 30
0.0
 10
296.240521
 20
274.346951
 30
0.0
  0
SPLINE
  5
16f
100
AcDbEntity
  8
Layer_1
 62
3
100
AcDbSpline
 70
8
 71
3
 72
8
 73
4
 74
0
 40
0
 40
0
 40
0
 40
0
 40
1
 40
1
 40
1
 40
1
 10
296.240521
 20
274.346951
 30
0.0
 10
296.736672
 20
274.843140
 30
0.0
 10
297.015381
 20
275.516109
 30
0.0
 10
297.015330
 20
276.217800
 30
0.0
  0
LINE
  5
170
100
AcDbEntity
  8
Layer_1
 62
3
100
AcDbLine
 10
297.015330
 20
276.217800
 30
0.0
 11
297.013330
 21
294.218400
 31
0.0
  0
SPLINE
  5
171
100
AcDbEntity
  8
Layer_1
 62
3
100
AcDbSpline
 70
8
 71
3
 72
8
 73
4
 74
0
 40
0
 40
0
 40
0
 40
0
 40
1
 40
1
 40
1
 40
1
 10
297.013330
 20
294.218400
 30
0.0
 10
297.013186
 20
295.679677
 30
0.0
 10
295.828547
 20
296.864200
 30
0.0
 10
294.367270
 20
296.864200
 30
0.0
  0
LINE
  5
172
100
AcDbEntity
  8
Layer_1
 62
3
100
AcDbLine
 10
294.367270
 20
296.864200
 30
0.0
 11
242.488940
 21
296.864200
 31
0.0
  0
LINE
  5
173
100
AcDbEntity
  8
Layer_1
 62
3
100
AcDbLine
 10
242.488940
 20
296.864200
 30
0.0
 11
57.319370
 21
296.864200
 31
0.0
  0
LINE
  5
174
100
AcDbEntity
  8
Layer_1
 62
3
100
AcDbLine
 10
57.319370
 20
296.864200
 30
0.0
 11
2.795190
 21
296.864200
 31
0.0
  0
SPLINE
  5
175
100
AcDbEntity
  8
Layer_1
 62
3
100
AcDbSpline
 70
8
 71
3
 72
8
 73
4
 74
0
 40
0
 40
0
 40
0
 40
0
 40
1
 40
1
 40
1
 40
1
 10
2.795190
 20
296.864200
 30
0.0
 10
1.333963
 20
296.864182
 30
0.0
 10
0.149408
 20
295.679627
 30
0.0
 10
0.149390
 20
294.218400
 30
0.0
  0
LINE
  5
176
100
AcDbEntity
  8
Layer_1
 62
3
100
AcDbLine
 10
0.149390
 20
294.218400
 30
0.0
 11
0.149390
 21
276.217800
 31
0.0
  0
SPLINE
  5
177
100
AcDbEntity
  8
Layer_1
 62
3
100
AcDbSpline
 70
8
 71
3
 72
8
 73
4
 74
0
 40
0
 40
0
 40
0
 40
0
 40
1
 40
1
 40
1
 40
1
 10
0.149390
 20
276.217800
 30
0.0
 10
0.149408
 20
274.756573
 30
0.0
 10
1.333963
 20
273.572018
 30
0.0
 10
2.795190
 20
273.572000
 30
0.0
  0
LINE
  5
178
100
AcDbEntity
  8
Layer_1
 62
3
100
AcDbLine
 10
2.795190
 20
273.572000
 30
0.0
 11
2.817190
 21
273.572000
 31
0.0
  0
SPLINE
  5
179
100
AcDbEntity
  8
Layer_1
 62
3
100
AcDbSpline
 70
8
 71
3
 72
8
 73
4
 74
0
 40
0
 40
0
 40
0
 40
0
 40
1
 40
1
 40
1
 40
1
 10
2.817190
 20
273.572000
 30
0.0
 10
4.278390
 20
273.572000
 30
0.0
 10
5.462990
 20
272.387400
 30
0.0
 10
5.462990
 20
270.926200
 30
0.0
  0
SPLINE
  5
17a
100
AcDbEntity
  8
Layer_1
 62
3
100
AcDbSpline
 70
8
 71
3
 72
8
 73
4
 74
0
 40
0
 40
0
 40
0
 40
0
 40
1
 40
1
 40
1
 40
1
 10
5.462990
 20
270.926200
 30
0.0
 10
5.462990
 20
197.325000
 30
0.0
 10
5.462990
 20
277.681200
 30
0.0
 10
5.463690
 20
209.020100
 30
0.0
  0
SPLINE
  5
17b
100
AcDbEntity
  8
Layer_1
 62
3
100
AcDbSpline
 70
8
 71
3
 72
8
 73
4
 74
0
 40
0
 40
0
 40
0
 40
0
 40
1
 40
1
 40
1
 40
1
 10
5.463690
 20
209.020100
 30
0.0
 10
5.463690
 20
207.558900
 30
0.0
 10
4.279090
 20
206.374400
 30
0.0
 10
2.817890
 20
206.374400
 30
0.0
  0
LINE
  5
17c
100
AcDbEntity
  8
Layer_1
 62
3
100
AcDbLine
 10
2.817890
 20
206.374400
 30
0.0
 11
2.788890
 21
206.374400
 31
0.0
  0
SPLINE
  5
17d
100
AcDbEntity
  8
Layer_1
 62
3
100
AcDbSpline
 70
8
 71
3
 72
8
 73
4
 74
0
 40
0
 40
0
 40
0
 40
0
 40
1
 40
1
 40
1
 40
1
 10
2.788890
 20
206.374400
 30
0.0
 10
1.327630
 20
206.374382
 30
0.0
 10
0.143019
 20
205.189860
 30
0.0
 10
0.142890
 20
203.728600
 30
0.0
  0
LINE
  5
17e
100
AcDbEntity
  8
Layer_1
 62
3
100
AcDbLine
 10
0.142890
 20
203.728600
 30
0.0
 11
0.142290
 21
195.786000
 31
0.0
  0
SPLINE
  5
17f
100
AcDbEntity
  8
Layer_1
 62
3
100
AcDbSpline
 70
8
 71
3
 72
8
 73
4
 74
0
 40
0
 40
0
 40
0
 40
0
 40
1
 40
1
 40
1
 40
1
 10
0.142290
 20
195.786000
 30
0.0
 10
0.142246
 20
195.084311
 30
0.0
 10
0.420957
 20
194.411346
 30
0.0
 10
0.917107
 20
193.915159
 30
0.0
  0
SPLINE
  5
180
100
AcDbEntity
  8
Layer_1
 62
3
100
AcDbSpline
 70
8
 71
3
 72
8
 73
4
 74
0
 40
0
 40
0
 40
0
 40
0
 40
1
 40
1
 40
1
 40
1
 10
0.917107
 20
193.915159
 30
0.0
 10
1.413257
 20
193.418971
 30
0.0
 10
2.086201
 20
193.140209
 30
0.0
 10
2.787890
 20
193.140200
 30
0.0
  0
LINE
  5
181
100
AcDbEntity
  8
Layer_1
 62
3
100
AcDbLine
 10
2.787890
 20
193.140200
 30
0.0
 11
50.065790
 21
193.140200
 31
0.0
  0
SPLINE
  5
182
100
AcDbEntity
  8
Layer_1
 62
3
100
AcDbSpline
 70
8
 71
3
 72
8
 73
4
 74
0
 40
0
 40
0
 40
0
 40
0
 40
1
 40
1
 40
1
 40
1
 10
50.065790
 20
193.140200
 30
0.0
 10
51.829673
 20
193.140216
 30
0.0
 10
53.593557
 20
193.140249
 30
0.0
 10
55.357440
 20
193.140300
 30
0.0
  0
LINE
  5
183
100
AcDbEntity
  8
Layer_1
 62
3
100
AcDbLine
 10
55.357440
 20
193.140300
 30
0.0
 11
241.807940
 21
193.140300
 31
0.0
  0
SPLINE
  5
184
100
AcDbEntity
  8
Layer_1
 62
3
100
AcDbSpline
 70
8
 71
3
 72
8
 73
4
 74
0
 40
0
 40
0
 40
0
 40
0
 40
1
 40
1
 40
1
 40
1
 10
241.807940
 20
193.140300
 30
0.0
 10
243.571827
 20
193.140351
 30
0.0
 10
245.335713
 20
193.140384
 30
0.0
 10
247.099600
 20
193.140400
 30
0.0
  0
LINE
  5
185
100
AcDbEntity
  8
Layer_1
 62
3
100
AcDbLine
 10
247.099600
 20
193.140400
 30
0.0
 11
247.099210
 21
193.144000
 31
0.0
  0
ENDSEC
  0
SECTION
  2
OBJECTS
  0
DICTIONARY
  5
C
330
0
100
AcDbDictionary
  3
ACAD_GROUP
350
D
  3
ACAD_MLINESTYLE
350
17
  0
DICTIONARY
  5
D
330
C
100
AcDbDictionary
  0
DICTIONARY
  5
1A
330
C
100
AcDbDictionary
  0
DICTIONARY
  5
17
330
C
100
AcDbDictionary
  3
STANDARD
350
18
  0
DICTIONARY
  5
19
330
C
100
AcDbDictionary
  0
ENDSEC
  0
EOF
