  0
SECTION
  2
HEADER
  9
$ACADVER
  1
AC1014
  9
$HANDSEED
  5
FFFF
  9
$INSUNITS
 70
     0
  9
$MEASUREMENT
 70
     1
  0
ENDSEC
  0
SECTION
  2
TABLES
  0
TABLE
  2
VPORT
  5
8
330
0
100
AcDbSymbolTable
 70
     4
  0
VPORT
  5
2E
330
8
100
AcDbSymbolTableRecord
100
AcDbViewportTableRecord
  2
*ACTIVE
 70
     0
 10
0.0
 20
0.0
 11
1.0
 21
1.0
 12
210.0
 22
148.5
 13
0.0
 23
0.0
 14
10.0
 24
10.0
 15
10.0
 25
10.0
 16
0.0
 26
0.0
 36
1.0
 17
0.0
 27
0.0
 37
0.0
 40
341.0
 41
1.24
 42
50.0
 43
0.0
 44
0.0
 50
0.0
 51
0.0
 71
     0
 72
   100
 73
     1
 74
     3
 75
     0
 76
     0
 77
     0
 78
     0
  0
ENDTAB
  0
TABLE
  2
LTYPE
  5
5
330
0
100
AcDbSymbolTable
 70
     1
  0
LTYPE
  5
14
330
5
100
AcDbSymbolTableRecord
100
AcDbLinetypeTableRecord
  2
BYBLOCK
 70
     0
  3

 72
    65
 73
     0
 40
0.0
  0
LTYPE
  5
15
330
5
100
AcDbSymbolTableRecord
100
AcDbLinetypeTableRecord
  2
BYLAYER
 70
     0
  3

 72
    65
 73
     0
 40
0.0
  0
LTYPE
  5
16
330
5
100
AcDbSymbolTableRecord
100
AcDbLinetypeTableRecord
  2
CONTINUOUS
 70
     0
  3
Solid line
 72
    65
 73
     0
 40
0.0
  0
ENDTAB
  0
TABLE
  2
LAYER
  5
2
100
AcDbSymbolTable
 70
2
  0
LAYER
  5
50
100
AcDbSymbolTableRecord
100
AcDbLayerTableRecord
  2
0
 70
0
  6
CONTINUOUS
  0
LAYER
  5
51
100
AcDbSymbolTableRecord
100
AcDbLayerTableRecord
  2
Layer_1
 70
0
  6
CONTINUOUS
  0
ENDTAB
  0
TABLE
  2
STYLE
  5
3
330
0
100
AcDbSymbolTable
 70
     1
  0
STYLE
  5
11
330
3
100
AcDbSymbolTableRecord
100
AcDbTextStyleTableRecord
  2
STANDARD
 70
     0
 40
0.0
 41
1.0
 50
0.0
 71
     0
 42
2.5
  3
txt
  4

  0
ENDTAB
  0
TABLE
  2
VIEW
  5
6
330
0
100
AcDbSymbolTable
 70
     0
  0
ENDTAB
  0
TABLE
  2
UCS
  5
7
330
0
100
AcDbSymbolTable
 70
     0
  0
ENDTAB
  0
TABLE
  2
APPID
  5
9
330
0
100
AcDbSymbolTable
 70
     2
  0
APPID
  5
12
330
9
100
AcDbSymbolTableRecord
100
AcDbRegAppTableRecord
  2
ACAD
 70
     0
  0
ENDTAB
  0
TABLE
  2
DIMSTYLE
  5
A
330
0
100
AcDbSymbolTable
 70
     1
  0
DIMSTYLE
105
27
330
A
100
AcDbSymbolTableRecord
100
AcDbDimStyleTableRecord
  2
ISO-25
 70
     0
  3

  4

  5

  6

  7

 40
1.0
 41
2.5
 42
0.625
 43
3.75
 44
1.25
 45
0.0
 46
0.0
 47
0.0
 48
0.0
140
2.5
141
2.5
142
0.0
143
0.03937007874016
144
1.0
145
0.0
146
1.0
147
0.625
 71
     0
 72
     0
 73
     0
 74
     0
 75
     0
 76
     0
 77
     1
 78
     8
170
     0
171
     3
172
     1
173
     0
174
     0
175
     0
176
     0
177
     0
178
     0
270
     2
271
     2
272
     2
273
     2
274
     3
340
11
275
     0
280
     0
281
     0
282
     0
283
     0
284
     8
285
     0
286
     0
287
     3
288
     0
  0
ENDTAB
  0
TABLE
  2
BLOCK_RECORD
  5
1
330
0
100
AcDbSymbolTable
 70
     1
  0
BLOCK_RECORD
  5
1F
330
1
100
AcDbSymbolTableRecord
100
AcDbBlockTableRecord
  2
*MODEL_SPACE
  0
BLOCK_RECORD
  5
1B
330
1
100
AcDbSymbolTableRecord
100
AcDbBlockTableRecord
  2
*PAPER_SPACE
  0
ENDTAB
  0
ENDSEC
  0
SECTION
  2
BLOCKS
  0
BLOCK
  5
20
330
1F
100
AcDbEntity
  8
0
100
AcDbBlockBegin
  2
*MODEL_SPACE
 70
     0
 10
0.0
 20
0.0
 30
0.0
  3
*MODEL_SPACE
  1

  0
ENDBLK
  5
21
330
1F
100
AcDbEntity
  8
0
100
AcDbBlockEnd
  0
BLOCK
  5
1C
330
1B
100
AcDbEntity
 67
     1
  8
0
100
AcDbBlockBegin
  2
*PAPER_SPACE
  1

  0
ENDBLK
  5
1D
330
1B
100
AcDbEntity
 67
     1
  8
0
100
AcDbBlockEnd
  0
ENDSEC
  0
SECTION
  2
ENTITIES
  0
SPLINE
  5
100
100
AcDbEntity
  8
Layer_1
 62
3
100
AcDbSpline
 70
8
 71
3
 72
8
 73
4
 74
0
 40
0
 40
0
 40
0
 40
0
 40
1
 40
1
 40
1
 40
1
 10
205.624380
 20
202.381600
 30
0.0
 10
206.257363
 20
202.381600
 30
0.0
 10
206.828019
 20
202.000300
 30
0.0
 10
207.070252
 20
201.415500
 30
0.0
  0
SPLINE
  5
101
100
AcDbEntity
  8
Layer_1
 62
3
100
AcDbSpline
 70
8
 71
3
 72
8
 73
4
 74
0
 40
0
 40
0
 40
0
 40
0
 40
1
 40
1
 40
1
 40
1
 10
207.070252
 20
201.415500
 30
0.0
 10
207.312484
 20
200.830699
 30
0.0
 10
207.178589
 20
200.157565
 30
0.0
 10
206.731002
 20
199.709978
 30
0.0
  0
SPLINE
  5
102
100
AcDbEntity
  8
Layer_1
 62
3
100
AcDbSpline
 70
8
 71
3
 72
8
 73
4
 74
0
 40
0
 40
0
 40
0
 40
0
 40
1
 40
1
 40
1
 40
1
 10
206.731002
 20
199.709978
 30
0.0
 10
206.283415
 20
199.262391
 30
0.0
 10
205.610281
 20
199.128496
 30
0.0
 10
205.025480
 20
199.370728
 30
0.0
  0
SPLINE
  5
103
100
AcDbEntity
  8
Layer_1
 62
3
100
AcDbSpline
 70
8
 71
3
 72
8
 73
4
 74
0
 40
0
 40
0
 40
0
 40
0
 40
1
 40
1
 40
1
 40
1
 10
205.025480
 20
199.370728
 30
0.0
 10
204.440680
 20
199.612961
 30
0.0
 10
204.059380
 20
200.183617
 30
0.0
 10
204.059380
 20
200.816600
 30
0.0
  0
SPLINE
  5
104
100
AcDbEntity
  8
Layer_1
 62
3
100
AcDbSpline
 70
8
 71
3
 72
8
 73
4
 74
0
 40
0
 40
0
 40
0
 40
0
 40
1
 40
1
 40
1
 40
1
 10
204.059380
 20
200.816600
 30
0.0
 10
204.059380
 20
201.231664
 30
0.0
 10
204.224263
 20
201.629728
 30
0.0
 10
204.517758
 20
201.923222
 30
0.0
  0
SPLINE
  5
105
100
AcDbEntity
  8
Layer_1
 62
3
100
AcDbSpline
 70
8
 71
3
 72
8
 73
4
 74
0
 40
0
 40
0
 40
0
 40
0
 40
1
 40
1
 40
1
 40
1
 10
204.517758
 20
201.923222
 30
0.0
 10
204.811252
 20
202.216717
 30
0.0
 10
205.209316
 20
202.381600
 30
0.0
 10
205.624380
 20
202.381600
 30
0.0
  0
LINE
  5
106
100
AcDbEntity
  8
Layer_1
 62
3
100
AcDbLine
 10
205.624380
 20
202.381600
 30
0.0
 11
205.624380
 21
202.381600
 31
0.0
  0
SPLINE
  5
107
100
AcDbEntity
  8
Layer_1
 62
3
100
AcDbSpline
 70
8
 71
3
 72
8
 73
4
 74
0
 40
0
 40
0
 40
0
 40
0
 40
1
 40
1
 40
1
 40
1
 10
290.918300
 20
202.384700
 30
0.0
 10
291.551283
 20
202.384700
 30
0.0
 10
292.121939
 20
202.003400
 30
0.0
 10
292.364172
 20
201.418600
 30
0.0
  0
SPLINE
  5
108
100
AcDbEntity
  8
Layer_1
 62
3
100
AcDbSpline
 70
8
 71
3
 72
8
 73
4
 74
0
 40
0
 40
0
 40
0
 40
0
 40
1
 40
1
 40
1
 40
1
 10
292.364172
 20
201.418600
 30
0.0
 10
292.606404
 20
200.833799
 30
0.0
 10
292.472509
 20
200.160665
 30
0.0
 10
292.024922
 20
199.713078
 30
0.0
  0
SPLINE
  5
109
100
AcDbEntity
  8
Layer_1
 62
3
100
AcDbSpline
 70
8
 71
3
 72
8
 73
4
 74
0
 40
0
 40
0
 40
0
 40
0
 40
1
 40
1
 40
1
 40
1
 10
292.024922
 20
199.713078
 30
0.0
 10
291.577335
 20
199.265491
 30
0.0
 10
290.904201
 20
199.131596
 30
0.0
 10
290.319400
 20
199.373828
 30
0.0
  0
SPLINE
  5
10a
100
AcDbEntity
  8
Layer_1
 62
3
100
AcDbSpline
 70
8
 71
3
 72
8
 73
4
 74
0
 40
0
 40
0
 40
0
 40
0
 40
1
 40
1
 40
1
 40
1
 10
290.319400
 20
199.373828
 30
0.0
 10
289.734600
 20
199.616061
 30
0.0
 10
289.353300
 20
200.186717
 30
0.0
 10
289.353300
 20
200.819700
 30
0.0
  0
SPLINE
  5
10b
100
AcDbEntity
  8
Layer_1
 62
3
100
AcDbSpline
 70
8
 71
3
 72
8
 73
4
 74
0
 40
0
 40
0
 40
0
 40
0
 40
1
 40
1
 40
1
 40
1
 10
289.353300
 20
200.819700
 30
0.0
 10
289.353300
 20
201.234764
 30
0.0
 10
289.518183
 20
201.632828
 30
0.0
 10
289.811678
 20
201.926322
 30
0.0
  0
SPLINE
  5
10c
100
AcDbEntity
  8
Layer_1
 62
3
100
AcDbSpline
 70
8
 71
3
 72
8
 73
4
 74
0
 40
0
 40
0
 40
0
 40
0
 40
1
 40
1
 40
1
 40
1
 10
289.811678
 20
201.926322
 30
0.0
 10
290.105172
 20
202.219817
 30
0.0
 10
290.503236
 20
202.384700
 30
0.0
 10
290.918300
 20
202.384700
 30
0.0
  0
LINE
  5
10d
100
AcDbEntity
  8
Layer_1
 62
3
100
AcDbLine
 10
290.918300
 20
202.384700
 30
0.0
 11
290.918300
 21
202.384700
 31
0.0
  0
SPLINE
  5
10e
100
AcDbEntity
  8
Layer_1
 62
3
100
AcDbSpline
 70
8
 71
3
 72
8
 73
4
 74
0
 40
0
 40
0
 40
0
 40
0
 40
1
 40
1
 40
1
 40
1
 10
290.918300
 20
290.756900
 30
0.0
 10
291.551283
 20
290.756900
 30
0.0
 10
292.121939
 20
290.375600
 30
0.0
 10
292.364172
 20
289.790800
 30
0.0
  0
SPLINE
  5
10f
100
AcDbEntity
  8
Layer_1
 62
3
100
AcDbSpline
 70
8
 71
3
 72
8
 73
4
 74
0
 40
0
 40
0
 40
0
 40
0
 40
1
 40
1
 40
1
 40
1
 10
292.364172
 20
289.790800
 30
0.0
 10
292.606404
 20
289.205999
 30
0.0
 10
292.472509
 20
288.532865
 30
0.0
 10
292.024922
 20
288.085278
 30
0.0
  0
SPLINE
  5
110
100
AcDbEntity
  8
Layer_1
 62
3
100
AcDbSpline
 70
8
 71
3
 72
8
 73
4
 74
0
 40
0
 40
0
 40
0
 40
0
 40
1
 40
1
 40
1
 40
1
 10
292.024922
 20
288.085278
 30
0.0
 10
291.577335
 20
287.637691
 30
0.0
 10
290.904201
 20
287.503796
 30
0.0
 10
290.319400
 20
287.746028
 30
0.0
  0
SPLINE
  5
111
100
AcDbEntity
  8
Layer_1
 62
3
100
AcDbSpline
 70
8
 71
3
 72
8
 73
4
 74
0
 40
0
 40
0
 40
0
 40
0
 40
1
 40
1
 40
1
 40
1
 10
290.319400
 20
287.746028
 30
0.0
 10
289.734600
 20
287.988261
 30
0.0
 10
289.353300
 20
288.558917
 30
0.0
 10
289.353300
 20
289.191900
 30
0.0
  0
SPLINE
  5
112
100
AcDbEntity
  8
Layer_1
 62
3
100
AcDbSpline
 70
8
 71
3
 72
8
 73
4
 74
0
 40
0
 40
0
 40
0
 40
0
 40
1
 40
1
 40
1
 40
1
 10
289.353300
 20
289.191900
 30
0.0
 10
289.353300
 20
289.606964
 30
0.0
 10
289.518183
 20
290.005028
 30
0.0
 10
289.811678
 20
290.298522
 30
0.0
  0
SPLINE
  5
113
100
AcDbEntity
  8
Layer_1
 62
3
100
AcDbSpline
 70
8
 71
3
 72
8
 73
4
 74
0
 40
0
 40
0
 40
0
 40
0
 40
1
 40
1
 40
1
 40
1
 10
289.811678
 20
290.298522
 30
0.0
 10
290.105172
 20
290.592017
 30
0.0
 10
290.503236
 20
290.756900
 30
0.0
 10
290.918300
 20
290.756900
 30
0.0
  0
LINE
  5
114
100
AcDbEntity
  8
Layer_1
 62
3
100
AcDbLine
 10
290.918300
 20
290.756900
 30
0.0
 11
290.918300
 21
290.756900
 31
0.0
  0
SPLINE
  5
115
100
AcDbEntity
  8
Layer_1
 62
3
100
AcDbSpline
 70
8
 71
3
 72
8
 73
4
 74
0
 40
0
 40
0
 40
0
 40
0
 40
1
 40
1
 40
1
 40
1
 10
205.625170
 20
290.756900
 30
0.0
 10
206.258153
 20
290.756900
 30
0.0
 10
206.828809
 20
290.375600
 30
0.0
 10
207.071042
 20
289.790800
 30
0.0
  0
SPLINE
  5
116
100
AcDbEntity
  8
Layer_1
 62
3
100
AcDbSpline
 70
8
 71
3
 72
8
 73
4
 74
0
 40
0
 40
0
 40
0
 40
0
 40
1
 40
1
 40
1
 40
1
 10
207.071042
 20
289.790800
 30
0.0
 10
207.313274
 20
289.205999
 30
0.0
 10
207.179379
 20
288.532865
 30
0.0
 10
206.731792
 20
288.085278
 30
0.0
  0
SPLINE
  5
117
100
AcDbEntity
  8
Layer_1
 62
3
100
AcDbSpline
 70
8
 71
3
 72
8
 73
4
 74
0
 40
0
 40
0
 40
0
 40
0
 40
1
 40
1
 40
1
 40
1
 10
206.731792
 20
288.085278
 30
0.0
 10
206.284205
 20
287.637691
 30
0.0
 10
205.611071
 20
287.503796
 30
0.0
 10
205.026270
 20
287.746028
 30
0.0
  0
SPLINE
  5
118
100
AcDbEntity
  8
Layer_1
 62
3
100
AcDbSpline
 70
8
 71
3
 72
8
 73
4
 74
0
 40
0
 40
0
 40
0
 40
0
 40
1
 40
1
 40
1
 40
1
 10
205.026270
 20
287.746028
 30
0.0
 10
204.441470
 20
287.988261
 30
0.0
 10
204.060170
 20
288.558917
 30
0.0
 10
204.060170
 20
289.191900
 30
0.0
  0
SPLINE
  5
119
100
AcDbEntity
  8
Layer_1
 62
3
100
AcDbSpline
 70
8
 71
3
 72
8
 73
4
 74
0
 40
0
 40
0
 40
0
 40
0
 40
1
 40
1
 40
1
 40
1
 10
204.060170
 20
289.191900
 30
0.0
 10
204.060170
 20
289.606964
 30
0.0
 10
204.225053
 20
290.005028
 30
0.0
 10
204.518548
 20
290.298522
 30
0.0
  0
SPLINE
  5
11a
100
AcDbEntity
  8
Layer_1
 62
3
100
AcDbSpline
 70
8
 71
3
 72
8
 73
4
 74
0
 40
0
 40
0
 40
0
 40
0
 40
1
 40
1
 40
1
 40
1
 10
204.518548
 20
290.298522
 30
0.0
 10
204.812042
 20
290.592017
 30
0.0
 10
205.210106
 20
290.756900
 30
0.0
 10
205.625170
 20
290.756900
 30
0.0
  0
LINE
  5
11b
100
AcDbEntity
  8
Layer_1
 62
3
100
AcDbLine
 10
205.625170
 20
290.756900
 30
0.0
 11
205.625170
 21
290.756900
 31
0.0
  0
SPLINE
  5
11c
100
AcDbEntity
  8
Layer_1
 62
3
100
AcDbSpline
 70
8
 71
3
 72
8
 73
4
 74
0
 40
0
 40
0
 40
0
 40
0
 40
1
 40
1
 40
1
 40
1
 10
6.227710
 20
202.384700
 30
0.0
 10
6.860693
 20
202.384700
 30
0.0
 10
7.431349
 20
202.003400
 30
0.0
 10
7.673582
 20
201.418600
 30
0.0
  0
SPLINE
  5
11d
100
AcDbEntity
  8
Layer_1
 62
3
100
AcDbSpline
 70
8
 71
3
 72
8
 73
4
 74
0
 40
0
 40
0
 40
0
 40
0
 40
1
 40
1
 40
1
 40
1
 10
7.673582
 20
201.418600
 30
0.0
 10
7.915814
 20
200.833799
 30
0.0
 10
7.781919
 20
200.160665
 30
0.0
 10
7.334332
 20
199.713078
 30
0.0
  0
SPLINE
  5
11e
100
AcDbEntity
  8
Layer_1
 62
3
100
AcDbSpline
 70
8
 71
3
 72
8
 73
4
 74
0
 40
0
 40
0
 40
0
 40
0
 40
1
 40
1
 40
1
 40
1
 10
7.334332
 20
199.713078
 30
0.0
 10
6.886745
 20
199.265491
 30
0.0
 10
6.213611
 20
199.131596
 30
0.0
 10
5.628810
 20
199.373828
 30
0.0
  0
SPLINE
  5
11f
100
AcDbEntity
  8
Layer_1
 62
3
100
AcDbSpline
 70
8
 71
3
 72
8
 73
4
 74
0
 40
0
 40
0
 40
0
 40
0
 40
1
 40
1
 40
1
 40
1
 10
5.628810
 20
199.373828
 30
0.0
 10
5.044010
 20
199.616061
 30
0.0
 10
4.662710
 20
200.186717
 30
0.0
 10
4.662710
 20
200.819700
 30
0.0
  0
SPLINE
  5
120
100
AcDbEntity
  8
Layer_1
 62
3
100
AcDbSpline
 70
8
 71
3
 72
8
 73
4
 74
0
 40
0
 40
0
 40
0
 40
0
 40
1
 40
1
 40
1
 40
1
 10
4.662710
 20
200.819700
 30
0.0
 10
4.662710
 20
201.234764
 30
0.0
 10
4.827593
 20
201.632828
 30
0.0
 10
5.121088
 20
201.926322
 30
0.0
  0
SPLINE
  5
121
100
AcDbEntity
  8
Layer_1
 62
3
100
AcDbSpline
 70
8
 71
3
 72
8
 73
4
 74
0
 40
0
 40
0
 40
0
 40
0
 40
1
 40
1
 40
1
 40
1
 10
5.121088
 20
201.926322
 30
0.0
 10
5.414582
 20
202.219817
 30
0.0
 10
5.812646
 20
202.384700
 30
0.0
 10
6.227710
 20
202.384700
 30
0.0
  0
LINE
  5
122
100
AcDbEntity
  8
Layer_1
 62
3
100
AcDbLine
 10
6.227710
 20
202.384700
 30
0.0
 11
6.227710
 21
202.384700
 31
0.0
  0
SPLINE
  5
123
100
AcDbEntity
  8
Layer_1
 62
3
100
AcDbSpline
 70
8
 71
3
 72
8
 73
4
 74
0
 40
0
 40
0
 40
0
 40
0
 40
1
 40
1
 40
1
 40
1
 10
6.227710
 20
290.756900
 30
0.0
 10
6.860693
 20
290.756900
 30
0.0
 10
7.431349
 20
290.375600
 30
0.0
 10
7.673582
 20
289.790800
 30
0.0
  0
SPLINE
  5
124
100
AcDbEntity
  8
Layer_1
 62
3
100
AcDbSpline
 70
8
 71
3
 72
8
 73
4
 74
0
 40
0
 40
0
 40
0
 40
0
 40
1
 40
1
 40
1
 40
1
 10
7.673582
 20
289.790800
 30
0.0
 10
7.915814
 20
289.205999
 30
0.0
 10
7.781919
 20
288.532865
 30
0.0
 10
7.334332
 20
288.085278
 30
0.0
  0
SPLINE
  5
125
100
AcDbEntity
  8
Layer_1
 62
3
100
AcDbSpline
 70
8
 71
3
 72
8
 73
4
 74
0
 40
0
 40
0
 40
0
 40
0
 40
1
 40
1
 40
1
 40
1
 10
7.334332
 20
288.085278
 30
0.0
 10
6.886745
 20
287.637691
 30
0.0
 10
6.213611
 20
287.503796
 30
0.0
 10
5.628810
 20
287.746028
 30
0.0
  0
SPLINE
  5
126
100
AcDbEntity
  8
Layer_1
 62
3
100
AcDbSpline
 70
8
 71
3
 72
8
 73
4
 74
0
 40
0
 40
0
 40
0
 40
0
 40
1
 40
1
 40
1
 40
1
 10
5.628810
 20
287.746028
 30
0.0
 10
5.044010
 20
287.988261
 30
0.0
 10
4.662710
 20
288.558917
 30
0.0
 10
4.662710
 20
289.191900
 30
0.0
  0
SPLINE
  5
127
100
AcDbEntity
  8
Layer_1
 62
3
100
AcDbSpline
 70
8
 71
3
 72
8
 73
4
 74
0
 40
0
 40
0
 40
0
 40
0
 40
1
 40
1
 40
1
 40
1
 10
4.662710
 20
289.191900
 30
0.0
 10
4.662710
 20
289.606964
 30
0.0
 10
4.827593
 20
290.005028
 30
0.0
 10
5.121088
 20
290.298522
 30
0.0
  0
SPLINE
  5
128
100
AcDbEntity
  8
Layer_1
 62
3
100
AcDbSpline
 70
8
 71
3
 72
8
 73
4
 74
0
 40
0
 40
0
 40
0
 40
0
 40
1
 40
1
 40
1
 40
1
 10
5.121088
 20
290.298522
 30
0.0
 10
5.414582
 20
290.592017
 30
0.0
 10
5.812646
 20
290.756900
 30
0.0
 10
6.227710
 20
290.756900
 30
0.0
  0
LINE
  5
129
100
AcDbEntity
  8
Layer_1
 62
3
100
AcDbLine
 10
6.227710
 20
290.756900
 30
0.0
 11
6.227710
 21
290.756900
 31
0.0
  0
SPLINE
  5
12a
100
AcDbEntity
  8
Layer_1
 62
3
100
AcDbSpline
 70
8
 71
3
 72
8
 73
4
 74
0
 40
0
 40
0
 40
0
 40
0
 40
1
 40
1
 40
1
 40
1
 10
124.320910
 20
202.384700
 30
0.0
 10
124.953893
 20
202.384700
 30
0.0
 10
125.524549
 20
202.003400
 30
0.0
 10
125.766782
 20
201.418600
 30
0.0
  0
SPLINE
  5
12b
100
AcDbEntity
  8
Layer_1
 62
3
100
AcDbSpline
 70
8
 71
3
 72
8
 73
4
 74
0
 40
0
 40
0
 40
0
 40
0
 40
1
 40
1
 40
1
 40
1
 10
125.766782
 20
201.418600
 30
0.0
 10
126.009014
 20
200.833799
 30
0.0
 10
125.875119
 20
200.160665
 30
0.0
 10
125.427532
 20
199.713078
 30
0.0
  0
SPLINE
  5
12c
100
AcDbEntity
  8
Layer_1
 62
3
100
AcDbSpline
 70
8
 71
3
 72
8
 73
4
 74
0
 40
0
 40
0
 40
0
 40
0
 40
1
 40
1
 40
1
 40
1
 10
125.427532
 20
199.713078
 30
0.0
 10
124.979945
 20
199.265491
 30
0.0
 10
124.306811
 20
199.131596
 30
0.0
 10
123.722010
 20
199.373828
 30
0.0
  0
SPLINE
  5
12d
100
AcDbEntity
  8
Layer_1
 62
3
100
AcDbSpline
 70
8
 71
3
 72
8
 73
4
 74
0
 40
0
 40
0
 40
0
 40
0
 40
1
 40
1
 40
1
 40
1
 10
123.722010
 20
199.373828
 30
0.0
 10
123.137210
 20
199.616061
 30
0.0
 10
122.755910
 20
200.186717
 30
0.0
 10
122.755910
 20
200.819700
 30
0.0
  0
SPLINE
  5
12e
100
AcDbEntity
  8
Layer_1
 62
3
100
AcDbSpline
 70
8
 71
3
 72
8
 73
4
 74
0
 40
0
 40
0
 40
0
 40
0
 40
1
 40
1
 40
1
 40
1
 10
122.755910
 20
200.819700
 30
0.0
 10
122.755910
 20
201.234764
 30
0.0
 10
122.920793
 20
201.632828
 30
0.0
 10
123.214288
 20
201.926322
 30
0.0
  0
SPLINE
  5
12f
100
AcDbEntity
  8
Layer_1
 62
3
100
AcDbSpline
 70
8
 71
3
 72
8
 73
4
 74
0
 40
0
 40
0
 40
0
 40
0
 40
1
 40
1
 40
1
 40
1
 10
123.214288
 20
201.926322
 30
0.0
 10
123.507782
 20
202.219817
 30
0.0
 10
123.905846
 20
202.384700
 30
0.0
 10
124.320910
 20
202.384700
 30
0.0
  0
LINE
  5
130
100
AcDbEntity
  8
Layer_1
 62
3
100
AcDbLine
 10
124.320910
 20
202.384700
 30
0.0
 11
124.320910
 21
202.384700
 31
0.0
  0
SPLINE
  5
131
100
AcDbEntity
  8
Layer_1
 62
3
100
AcDbSpline
 70
8
 71
3
 72
8
 73
4
 74
0
 40
0
 40
0
 40
0
 40
0
 40
1
 40
1
 40
1
 40
1
 10
124.320300
 20
290.756900
 30
0.0
 10
124.953283
 20
290.756900
 30
0.0
 10
125.523939
 20
290.375600
 30
0.0
 10
125.766172
 20
289.790800
 30
0.0
  0
SPLINE
  5
132
100
AcDbEntity
  8
Layer_1
 62
3
100
AcDbSpline
 70
8
 71
3
 72
8
 73
4
 74
0
 40
0
 40
0
 40
0
 40
0
 40
1
 40
1
 40
1
 40
1
 10
125.766172
 20
289.790800
 30
0.0
 10
126.008404
 20
289.205999
 30
0.0
 10
125.874509
 20
288.532865
 30
0.0
 10
125.426922
 20
288.085278
 30
0.0
  0
SPLINE
  5
133
100
AcDbEntity
  8
Layer_1
 62
3
100
AcDbSpline
 70
8
 71
3
 72
8
 73
4
 74
0
 40
0
 40
0
 40
0
 40
0
 40
1
 40
1
 40
1
 40
1
 10
125.426922
 20
288.085278
 30
0.0
 10
124.979335
 20
287.637691
 30
0.0
 10
124.306201
 20
287.503796
 30
0.0
 10
123.721400
 20
287.746028
 30
0.0
  0
SPLINE
  5
134
100
AcDbEntity
  8
Layer_1
 62
3
100
AcDbSpline
 70
8
 71
3
 72
8
 73
4
 74
0
 40
0
 40
0
 40
0
 40
0
 40
1
 40
1
 40
1
 40
1
 10
123.721400
 20
287.746028
 30
0.0
 10
123.136600
 20
287.988261
 30
0.0
 10
122.755300
 20
288.558917
 30
0.0
 10
122.755300
 20
289.191900
 30
0.0
  0
SPLINE
  5
135
100
AcDbEntity
  8
Layer_1
 62
3
100
AcDbSpline
 70
8
 71
3
 72
8
 73
4
 74
0
 40
0
 40
0
 40
0
 40
0
 40
1
 40
1
 40
1
 40
1
 10
122.755300
 20
289.191900
 30
0.0
 10
122.755300
 20
289.606964
 30
0.0
 10
122.920183
 20
290.005028
 30
0.0
 10
123.213678
 20
290.298522
 30
0.0
  0
SPLINE
  5
136
100
AcDbEntity
  8
Layer_1
 62
3
100
AcDbSpline
 70
8
 71
3
 72
8
 73
4
 74
0
 40
0
 40
0
 40
0
 40
0
 40
1
 40
1
 40
1
 40
1
 10
123.213678
 20
290.298522
 30
0.0
 10
123.507172
 20
290.592017
 30
0.0
 10
123.905236
 20
290.756900
 30
0.0
 10
124.320300
 20
290.756900
 30
0.0
  0
LINE
  5
137
100
AcDbEntity
  8
Layer_1
 62
3
100
AcDbLine
 10
124.320300
 20
290.756900
 30
0.0
 11
124.320300
 21
290.756900
 31
0.0
  0
SPLINE
  5
138
100
AcDbEntity
  8
Layer_1
 62
3
100
AcDbSpline
 70
8
 71
3
 72
8
 73
4
 74
0
 40
0
 40
0
 40
0
 40
0
 40
1
 40
1
 40
1
 40
1
 10
39.084827
 20
290.757364
 30
0.0
 10
39.717810
 20
290.757364
 30
0.0
 10
40.288466
 20
290.376064
 30
0.0
 10
40.530699
 20
289.791263
 30
0.0
  0
SPLINE
  5
139
100
AcDbEntity
  8
Layer_1
 62
3
100
AcDbSpline
 70
8
 71
3
 72
8
 73
4
 74
0
 40
0
 40
0
 40
0
 40
0
 40
1
 40
1
 40
1
 40
1
 10
40.530699
 20
289.791263
 30
0.0
 10
40.772931
 20
289.206463
 30
0.0
 10
40.639036
 20
288.533328
 30
0.0
 10
40.191449
 20
288.085742
 30
0.0
  0
SPLINE
  5
13a
100
AcDbEntity
  8
Layer_1
 62
3
100
AcDbSpline
 70
8
 71
3
 72
8
 73
4
 74
0
 40
0
 40
0
 40
0
 40
0
 40
1
 40
1
 40
1
 40
1
 10
40.191449
 20
288.085742
 30
0.0
 10
39.743862
 20
287.638155
 30
0.0
 10
39.070728
 20
287.504260
 30
0.0
 10
38.485927
 20
287.746492
 30
0.0
  0
SPLINE
  5
13b
100
AcDbEntity
  8
Layer_1
 62
3
100
AcDbSpline
 70
8
 71
3
 72
8
 73
4
 74
0
 40
0
 40
0
 40
0
 40
0
 40
1
 40
1
 40
1
 40
1
 10
38.485927
 20
287.746492
 30
0.0
 10
37.901127
 20
287.988724
 30
0.0
 10
37.519827
 20
288.559380
 30
0.0
 10
37.519827
 20
289.192364
 30
0.0
  0
SPLINE
  5
13c
100
AcDbEntity
  8
Layer_1
 62
3
100
AcDbSpline
 70
8
 71
3
 72
8
 73
4
 74
0
 40
0
 40
0
 40
0
 40
0
 40
1
 40
1
 40
1
 40
1
 10
37.519827
 20
289.192364
 30
0.0
 10
37.519827
 20
289.607428
 30
0.0
 10
37.684710
 20
290.005491
 30
0.0
 10
37.978205
 20
290.298986
 30
0.0
  0
SPLINE
  5
13d
100
AcDbEntity
  8
Layer_1
 62
3
100
AcDbSpline
 70
8
 71
3
 72
8
 73
4
 74
0
 40
0
 40
0
 40
0
 40
0
 40
1
 40
1
 40
1
 40
1
 10
37.978205
 20
290.298986
 30
0.0
 10
38.271699
 20
290.592480
 30
0.0
 10
38.669763
 20
290.757364
 30
0.0
 10
39.084827
 20
290.757364
 30
0.0
  0
LINE
  5
13e
100
AcDbEntity
  8
Layer_1
 62
3
100
AcDbLine
 10
39.084827
 20
290.757364
 30
0.0
 11
39.084827
 21
290.757364
 31
0.0
  0
SPLINE
  5
13f
100
AcDbEntity
  8
Layer_1
 62
3
100
AcDbSpline
 70
8
 71
3
 72
8
 73
4
 74
0
 40
0
 40
0
 40
0
 40
0
 40
1
 40
1
 40
1
 40
1
 10
39.084827
 20
202.385175
 30
0.0
 10
39.717810
 20
202.385175
 30
0.0
 10
40.288466
 20
202.003875
 30
0.0
 10
40.530699
 20
201.419075
 30
0.0
  0
SPLINE
  5
140
100
AcDbEntity
  8
Layer_1
 62
3
100
AcDbSpline
 70
8
 71
3
 72
8
 73
4
 74
0
 40
0
 40
0
 40
0
 40
0
 40
1
 40
1
 40
1
 40
1
 10
40.530699
 20
201.419075
 30
0.0
 10
40.772931
 20
200.834274
 30
0.0
 10
40.639036
 20
200.161140
 30
0.0
 10
40.191449
 20
199.713553
 30
0.0
  0
SPLINE
  5
141
100
AcDbEntity
  8
Layer_1
 62
3
100
AcDbSpline
 70
8
 71
3
 72
8
 73
4
 74
0
 40
0
 40
0
 40
0
 40
0
 40
1
 40
1
 40
1
 40
1
 10
40.191449
 20
199.713553
 30
0.0
 10
39.743862
 20
199.265966
 30
0.0
 10
39.070728
 20
199.132071
 30
0.0
 10
38.485927
 20
199.374303
 30
0.0
  0
SPLINE
  5
142
100
AcDbEntity
  8
Layer_1
 62
3
100
AcDbSpline
 70
8
 71
3
 72
8
 73
4
 74
0
 40
0
 40
0
 40
0
 40
0
 40
1
 40
1
 40
1
 40
1
 10
38.485927
 20
199.374303
 30
0.0
 10
37.901127
 20
199.616536
 30
0.0
 10
37.519827
 20
200.187192
 30
0.0
 10
37.519827
 20
200.820175
 30
0.0
  0
SPLINE
  5
143
100
AcDbEntity
  8
Layer_1
 62
3
100
AcDbSpline
 70
8
 71
3
 72
8
 73
4
 74
0
 40
0
 40
0
 40
0
 40
0
 40
1
 40
1
 40
1
 40
1
 10
37.519827
 20
200.820175
 30
0.0
 10
37.519827
 20
201.235239
 30
0.0
 10
37.684710
 20
201.633303
 30
0.0
 10
37.978205
 20
201.926797
 30
0.0
  0
SPLINE
  5
144
100
AcDbEntity
  8
Layer_1
 62
3
100
AcDbSpline
 70
8
 71
3
 72
8
 73
4
 74
0
 40
0
 40
0
 40
0
 40
0
 40
1
 40
1
 40
1
 40
1
 10
37.978205
 20
201.926797
 30
0.0
 10
38.271699
 20
202.220292
 30
0.0
 10
38.669763
 20
202.385175
 30
0.0
 10
39.084827
 20
202.385175
 30
0.0
  0
LINE
  5
145
100
AcDbEntity
  8
Layer_1
 62
3
100
AcDbLine
 10
39.084827
 20
202.385175
 30
0.0
 11
39.084827
 21
202.385175
 31
0.0
  0
LINE
  5
146
100
AcDbEntity
  8
Layer_1
 62
3
100
AcDbLine
 10
82.588660
 20
206.376400
 30
0.0
 11
143.167930
 21
206.376400
 31
0.0
  0
LINE
  5
147
100
AcDbEntity
  8
Layer_1
 62
3
100
AcDbLine
 10
143.167930
 20
206.376400
 30
0.0
 11
184.218640
 21
206.376400
 31
0.0
  0
LINE
  5
148
100
AcDbEntity
  8
Layer_1
 62
3
100
AcDbLine
 10
184.218640
 20
206.376400
 30
0.0
 11
245.958450
 21
206.376400
 31
0.0
  0
LINE
  5
149
100
AcDbEntity
  8
Layer_1
 62
3
100
AcDbLine
 10
245.958450
 20
206.376400
 30
0.0
 11
286.427650
 21
206.376400
 31
0.0
  0
SPLINE
  5
14a
100
AcDbEntity
  8
Layer_1
 62
3
100
AcDbSpline
 70
8
 71
3
 72
8
 73
4
 74
0
 40
0
 40
0
 40
0
 40
0
 40
1
 40
1
 40
1
 40
1
 10
286.427650
 20
206.376400
 30
0.0
 10
286.568005
 20
206.376391
 30
0.0
 10
286.702615
 20
206.432143
 30
0.0
 10
286.801861
 20
206.531389
 30
0.0
  0
SPLINE
  5
14b
100
AcDbEntity
  8
Layer_1
 62
3
100
AcDbSpline
 70
8
 71
3
 72
8
 73
4
 74
0
 40
0
 40
0
 40
0
 40
0
 40
1
 40
1
 40
1
 40
1
 10
286.801861
 20
206.531389
 30
0.0
 10
286.901107
 20
206.630635
 30
0.0
 10
286.956859
 20
206.765245
 30
0.0
 10
286.956850
 20
206.905600
 30
0.0
  0
LINE
  5
14c
100
AcDbEntity
  8
Layer_1
 62
3
100
AcDbLine
 10
286.956850
 20
206.905600
 30
0.0
 11
286.956850
 21
283.105600
 31
0.0
  0
SPLINE
  5
14d
100
AcDbEntity
  8
Layer_1
 62
3
100
AcDbSpline
 70
8
 71
3
 72
8
 73
4
 74
0
 40
0
 40
0
 40
0
 40
0
 40
1
 40
1
 40
1
 40
1
 10
286.956850
 20
283.105600
 30
0.0
 10
286.956859
 20
283.245955
 30
0.0
 10
286.901107
 20
283.380565
 30
0.0
 10
286.801861
 20
283.479811
 30
0.0
  0
SPLINE
  5
14e
100
AcDbEntity
  8
Layer_1
 62
3
100
AcDbSpline
 70
8
 71
3
 72
8
 73
4
 74
0
 40
0
 40
0
 40
0
 40
0
 40
1
 40
1
 40
1
 40
1
 10
286.801861
 20
283.479811
 30
0.0
 10
286.702615
 20
283.579057
 30
0.0
 10
286.568005
 20
283.634809
 30
0.0
 10
286.427650
 20
283.634800
 30
0.0
  0
LINE
  5
14f
100
AcDbEntity
  8
Layer_1
 62
3
100
AcDbLine
 10
286.427650
 20
283.634800
 30
0.0
 11
247.020650
 21
283.634800
 31
0.0
  0
LINE
  5
150
100
AcDbEntity
  8
Layer_1
 62
3
100
AcDbLine
 10
247.020650
 20
283.634800
 30
0.0
 11
185.285090
 21
283.634800
 31
0.0
  0
LINE
  5
151
100
AcDbEntity
  8
Layer_1
 62
3
100
AcDbLine
 10
185.285090
 20
283.634800
 30
0.0
 11
144.233490
 21
283.634800
 31
0.0
  0
LINE
  5
152
100
AcDbEntity
  8
Layer_1
 62
3
100
AcDbLine
 10
144.233490
 20
283.634800
 30
0.0
 11
82.588390
 21
283.634800
 31
0.0
  0
SPLINE
  5
153
100
AcDbEntity
  8
Layer_1
 62
3
100
AcDbSpline
 70
8
 71
3
 72
8
 73
4
 74
0
 40
0
 40
0
 40
0
 40
0
 40
1
 40
1
 40
1
 40
1
 10
82.588390
 20
283.634800
 30
0.0
 10
82.235610
 20
283.634795
 30
0.0
 10
81.882830
 20
283.634795
 30
0.0
 10
81.530050
 20
283.634800
 30
0.0
  0
LINE
  5
154
100
AcDbEntity
  8
Layer_1
 62
3
100
AcDbLine
 10
81.530050
 20
283.634800
 30
0.0
 11
43.543440
 21
283.635800
 31
0.0
  0
SPLINE
  5
155
100
AcDbEntity
  8
Layer_1
 62
3
100
AcDbSpline
 70
8
 71
3
 72
8
 73
4
 74
0
 40
0
 40
0
 40
0
 40
0
 40
1
 40
1
 40
1
 40
1
 10
43.543440
 20
283.635800
 30
0.0
 10
43.190660
 20
283.635805
 30
0.0
 10
42.837880
 20
283.635805
 30
0.0
 10
42.485100
 20
283.635800
 30
0.0
  0
LINE
  5
156
100
AcDbEntity
  8
Layer_1
 62
3
100
AcDbLine
 10
42.485100
 20
283.635800
 30
0.0
 11
10.735090
 21
283.635800
 31
0.0
  0
SPLINE
  5
157
100
AcDbEntity
  8
Layer_1
 62
3
100
AcDbSpline
 70
8
 71
3
 72
8
 73
4
 74
0
 40
0
 40
0
 40
0
 40
0
 40
1
 40
1
 40
1
 40
1
 10
10.735090
 20
283.635800
 30
0.0
 10
10.442818
 20
283.635799
 30
0.0
 10
10.205882
 20
283.398872
 30
0.0
 10
10.205870
 20
283.106600
 30
0.0
  0
LINE
  5
158
100
AcDbEntity
  8
Layer_1
 62
3
100
AcDbLine
 10
10.205870
 20
283.106600
 30
0.0
 11
10.197870
 21
206.907700
 31
0.0
  0
SPLINE
  5
159
100
AcDbEntity
  8
Layer_1
 62
3
100
AcDbSpline
 70
8
 71
3
 72
8
 73
4
 74
0
 40
0
 40
0
 40
0
 40
0
 40
1
 40
1
 40
1
 40
1
 10
10.197870
 20
206.907700
 30
0.0
 10
10.197847
 20
206.767354
 30
0.0
 10
10.253583
 20
206.632749
 30
0.0
 10
10.352815
 20
206.533502
 30
0.0
  0
SPLINE
  5
15a
100
AcDbEntity
  8
Layer_1
 62
3
100
AcDbSpline
 70
8
 71
3
 72
8
 73
4
 74
0
 40
0
 40
0
 40
0
 40
0
 40
1
 40
1
 40
1
 40
1
 10
10.352815
 20
206.533502
 30
0.0
 10
10.452047
 20
206.434255
 30
0.0
 10
10.586644
 20
206.378498
 30
0.0
 10
10.726990
 20
206.378500
 30
0.0
  0
LINE
  5
15b
100
AcDbEntity
  8
Layer_1
 62
3
100
AcDbLine
 10
10.726990
 20
206.378500
 30
0.0
 11
42.476950
 21
206.378500
 31
0.0
  0
SPLINE
  5
15c
100
AcDbEntity
  8
Layer_1
 62
3
100
AcDbSpline
 70
8
 71
3
 72
8
 73
4
 74
0
 40
0
 40
0
 40
0
 40
0
 40
1
 40
1
 40
1
 40
1
 10
42.476950
 20
206.378500
 30
0.0
 10
42.829730
 20
206.378509
 30
0.0
 10
43.182510
 20
206.378509
 30
0.0
 10
43.535290
 20
206.378500
 30
0.0
  0
LINE
  5
15d
100
AcDbEntity
  8
Layer_1
 62
3
100
AcDbLine
 10
43.535290
 20
206.378500
 30
0.0
 11
81.530220
 21
206.378500
 31
0.0
  0
SPLINE
  5
15e
100
AcDbEntity
  8
Layer_1
 62
3
100
AcDbSpline
 70
8
 71
3
 72
8
 73
4
 74
0
 40
0
 40
0
 40
0
 40
0
 40
1
 40
1
 40
1
 40
1
 10
81.530220
 20
206.378500
 30
0.0
 10
81.883000
 20
206.378491
 30
0.0
 10
82.235780
 20
206.378491
 30
0.0
 10
82.588560
 20
206.378500
 30
0.0
  0
LINE
  5
15f
100
AcDbEntity
  8
Layer_1
 62
3
100
AcDbLine
 10
82.588560
 20
206.378500
 30
0.0
 11
82.588660
 21
206.376400
 31
0.0
  0
LINE
  5
160
100
AcDbEntity
  8
Layer_1
 62
3
100
AcDbLine
 10
247.098810
 20
193.144000
 30
0.0
 11
294.376650
 21
193.144000
 31
0.0
  0
SPLINE
  5
161
100
AcDbEntity
  8
Layer_1
 62
3
100
AcDbSpline
 70
8
 71
3
 72
8
 73
4
 74
0
 40
0
 40
0
 40
0
 40
0
 40
1
 40
1
 40
1
 40
1
 10
294.376650
 20
193.144000
 30
0.0
 10
295.078348
 20
193.144002
 30
0.0
 10
295.751305
 20
193.422759
 30
0.0
 10
296.247469
 20
193.918946
 30
0.0
  0
SPLINE
  5
162
100
AcDbEntity
  8
Layer_1
 62
3
100
AcDbSpline
 70
8
 71
3
 72
8
 73
4
 74
0
 40
0
 40
0
 40
0
 40
0
 40
1
 40
1
 40
1
 40
1
 10
296.247469
 20
193.918946
 30
0.0
 10
296.743633
 20
194.415133
 30
0.0
 10
297.022360
 20
195.088102
 30
0.0
 10
297.022330
 20
195.789800
 30
0.0
  0
LINE
  5
163
100
AcDbEntity
  8
Layer_1
 62
3
100
AcDbLine
 10
297.022330
 20
195.789800
 30
0.0
 11
297.021690
 21
207.364200
 31
0.0
  0
SPLINE
  5
164
100
AcDbEntity
  8
Layer_1
 62
3
100
AcDbSpline
 70
8
 71
3
 72
8
 73
4
 74
0
 40
0
 40
0
 40
0
 40
0
 40
1
 40
1
 40
1
 40
1
 10
297.021690
 20
207.364200
 30
0.0
 10
297.021578
 20
209.078352
 30
0.0
 10
296.446362
 20
210.742904
 30
0.0
 10
295.388120
 20
212.091400
 30
0.0
  0
LINE
  5
165
100
AcDbEntity
  8
Layer_1
 62
3
100
AcDbLine
 10
295.388120
 20
212.091400
 30
0.0
 11
293.619260
 21
214.345500
 31
0.0
  0
SPLINE
  5
166
100
AcDbEntity
  8
Layer_1
 62
3
100
AcDbSpline
 70
8
 71
3
 72
8
 73
4
 74
0
 40
0
 40
0
 40
0
 40
0
 40
1
 40
1
 40
1
 40
1
 10
293.619260
 20
214.345500
 30
0.0
 10
292.560981
 20
215.694047
 30
0.0
 10
291.985413
 20
217.358485
 30
0.0
 10
291.984580
 20
219.072700
 30
0.0
  0
LINE
  5
167
100
AcDbEntity
  8
Layer_1
 62
3
100
AcDbLine
 10
291.984580
 20
219.072700
 30
0.0
 11
291.963380
 21
263.430600
 31
0.0
  0
SPLINE
  5
168
100
AcDbEntity
  8
Layer_1
 62
3
100
AcDbSpline
 70
8
 71
3
 72
8
 73
4
 74
0
 40
0
 40
0
 40
0
 40
0
 40
1
 40
1
 40
1
 40
1
 10
291.963380
 20
263.430600
 30
0.0
 10
291.962634
 20
265.194469
 30
0.0
 10
291.964967
 20
266.958339
 30
0.0
 10
291.970380
 20
268.722200
 30
0.0
  0
LINE
  5
169
100
AcDbEntity
  8
Layer_1
 62
3
100
AcDbLine
 10
291.970380
 20
268.722200
 30
0.0
 11
291.977380
 21
270.928700
 31
0.0
  0
SPLINE
  5
16a
100
AcDbEntity
  8
Layer_1
 62
3
100
AcDbSpline
 70
8
 71
3
 72
8
 73
4
 74
0
 40
0
 40
0
 40
0
 40
0
 40
1
 40
1
 40
1
 40
1
 10
291.977380
 20
270.928700
 30
0.0
 10
291.981800
 20
272.391224
 30
0.0
 10
293.168650
 20
273.574496
 30
0.0
 10
294.631180
 20
273.574500
 30
0.0
  0
SPLINE
  5
16b
100
AcDbEntity
  8
Layer_1
 62
3
100
AcDbSpline
 70
8
 71
3
 72
8
 73
4
 74
0
 40
0
 40
0
 40
0
 40
0
 40
1
 40
1
 40
1
 40
1
 10
294.631180
 20
273.574500
 30
0.0
 10
295.298170
 20
273.609205
 30
0.0
 10
295.924051
 20
273.907462
 30
0.0
 10
296.371126
 20
274.403651
 30
0.0
  0
SPLINE
  5
16c
100
AcDbEntity
  8
Layer_1
 62
3
100
AcDbSpline
 70
8
 71
3
 72
8
 73
4
 74
0
 40
0
 40
0
 40
0
 40
0
 40
1
 40
1
 40
1
 40
1
 10
296.371126
 20
274.403651
 30
0.0
 10
296.818201
 20
274.899840
 30
0.0
 10
297.049843
 20
275.553313
 30
0.0
 10
297.015090
 20
276.220300
 30
0.0
  0
LINE
  5
16d
100
AcDbEntity
  8
Layer_1
 62
3
100
AcDbLine
 10
297.015090
 20
276.220300
 30
0.0
 11
297.013090
 21
294.220900
 31
0.0
  0
SPLINE
  5
16e
100
AcDbEntity
  8
Layer_1
 62
3
100
AcDbSpline
 70
8
 71
3
 72
8
 73
4
 74
0
 40
0
 40
0
 40
0
 40
0
 40
1
 40
1
 40
1
 40
1
 10
297.013090
 20
294.220900
 30
0.0
 10
297.012946
 20
295.682177
 30
0.0
 10
295.828307
 20
296.866700
 30
0.0
 10
294.367030
 20
296.866700
 30
0.0
  0
LINE
  5
16f
100
AcDbEntity
  8
Layer_1
 62
3
100
AcDbLine
 10
294.367030
 20
296.866700
 30
0.0
 11
242.488700
 21
296.866700
 31
0.0
  0
LINE
  5
170
100
AcDbEntity
  8
Layer_1
 62
3
100
AcDbLine
 10
242.488700
 20
296.866700
 30
0.0
 11
57.319130
 21
296.866700
 31
0.0
  0
LINE
  5
171
100
AcDbEntity
  8
Layer_1
 62
3
100
AcDbLine
 10
57.319130
 20
296.866700
 30
0.0
 11
2.794950
 21
296.866700
 31
0.0
  0
SPLINE
  5
172
100
AcDbEntity
  8
Layer_1
 62
3
100
AcDbSpline
 70
8
 71
3
 72
8
 73
4
 74
0
 40
0
 40
0
 40
0
 40
0
 40
1
 40
1
 40
1
 40
1
 10
2.794950
 20
296.866700
 30
0.0
 10
1.333723
 20
296.866682
 30
0.0
 10
0.149168
 20
295.682127
 30
0.0
 10
0.149150
 20
294.220900
 30
0.0
  0
LINE
  5
173
100
AcDbEntity
  8
Layer_1
 62
3
100
AcDbLine
 10
0.149150
 20
294.220900
 30
0.0
 11
0.149150
 21
276.220300
 31
0.0
  0
SPLINE
  5
174
100
AcDbEntity
  8
Layer_1
 62
3
100
AcDbSpline
 70
8
 71
3
 72
8
 73
4
 74
0
 40
0
 40
0
 40
0
 40
0
 40
1
 40
1
 40
1
 40
1
 10
0.149150
 20
276.220300
 30
0.0
 10
0.149168
 20
274.759073
 30
0.0
 10
1.333723
 20
273.574518
 30
0.0
 10
2.794950
 20
273.574500
 30
0.0
  0
SPLINE
  5
175
100
AcDbEntity
  8
Layer_1
 62
3
100
AcDbSpline
 70
8
 71
3
 72
8
 73
4
 74
0
 40
0
 40
0
 40
0
 40
0
 40
1
 40
1
 40
1
 40
1
 10
2.794950
 20
273.574500
 30
0.0
 10
4.185191
 20
273.502409
 30
0.0
 10
5.255074
 20
272.319155
 30
0.0
 10
5.187250
 20
270.928700
 30
0.0
  0
LINE
  5
176
100
AcDbEntity
  8
Layer_1
 62
3
100
AcDbLine
 10
5.187250
 20
270.928700
 30
0.0
 11
5.197250
 21
268.722200
 31
0.0
  0
SPLINE
  5
177
100
AcDbEntity
  8
Layer_1
 62
3
100
AcDbSpline
 70
8
 71
3
 72
8
 73
4
 74
0
 40
0
 40
0
 40
0
 40
0
 40
1
 40
1
 40
1
 40
1
 10
5.197250
 20
268.722200
 30
0.0
 10
5.203715
 20
266.958341
 30
0.0
 10
5.207048
 20
265.194471
 30
0.0
 10
5.207250
 20
263.430600
 30
0.0
  0
LINE
  5
178
100
AcDbEntity
  8
Layer_1
 62
3
100
AcDbLine
 10
5.207250
 20
263.430600
 30
0.0
 11
5.186250
 21
219.072700
 31
0.0
  0
SPLINE
  5
179
100
AcDbEntity
  8
Layer_1
 62
3
100
AcDbSpline
 70
8
 71
3
 72
8
 73
4
 74
0
 40
0
 40
0
 40
0
 40
0
 40
1
 40
1
 40
1
 40
1
 10
5.186250
 20
219.072700
 30
0.0
 10
5.185405
 20
217.358483
 30
0.0
 10
4.609831
 20
215.694047
 30
0.0
 10
3.551550
 20
214.345500
 30
0.0
  0
LINE
  5
17a
100
AcDbEntity
  8
Layer_1
 62
3
100
AcDbLine
 10
3.551550
 20
214.345500
 30
0.0
 11
1.782650
 21
212.091400
 31
0.0
  0
SPLINE
  5
17b
100
AcDbEntity
  8
Layer_1
 62
3
100
AcDbSpline
 70
8
 71
3
 72
8
 73
4
 74
0
 40
0
 40
0
 40
0
 40
0
 40
1
 40
1
 40
1
 40
1
 10
1.782650
 20
212.091400
 30
0.0
 10
0.724401
 20
210.742906
 30
0.0
 10
0.149174
 20
209.078355
 30
0.0
 10
0.149050
 20
207.364200
 30
0.0
  0
LINE
  5
17c
100
AcDbEntity
  8
Layer_1
 62
3
100
AcDbLine
 10
0.149050
 20
207.364200
 30
0.0
 11
0.148450
 21
195.789800
 31
0.0
  0
SPLINE
  5
17d
100
AcDbEntity
  8
Layer_1
 62
3
100
AcDbSpline
 70
8
 71
3
 72
8
 73
4
 74
0
 40
0
 40
0
 40
0
 40
0
 40
1
 40
1
 40
1
 40
1
 10
0.148450
 20
195.789800
 30
0.0
 10
0.148417
 20
195.088115
 30
0.0
 10
0.427132
 20
194.415156
 30
0.0
 10
0.923280
 20
193.918971
 30
0.0
  0
SPLINE
  5
17e
100
AcDbEntity
  8
Layer_1
 62
3
100
AcDbSpline
 70
8
 71
3
 72
8
 73
4
 74
0
 40
0
 40
0
 40
0
 40
0
 40
1
 40
1
 40
1
 40
1
 10
0.923280
 20
193.918971
 30
0.0
 10
1.419428
 20
193.422786
 30
0.0
 10
2.092365
 20
193.144020
 30
0.0
 10
2.794050
 20
193.144000
 30
0.0
  0
LINE
  5
17f
100
AcDbEntity
  8
Layer_1
 62
3
100
AcDbLine
 10
2.794050
 20
193.144000
 30
0.0
 11
50.071950
 21
193.144000
 31
0.0
  0
LINE
  5
180
100
AcDbEntity
  8
Layer_1
 62
3
100
AcDbLine
 10
50.071950
 20
193.144000
 30
0.0
 11
241.814100
 21
193.144000
 31
0.0
  0
LINE
  5
181
100
AcDbEntity
  8
Layer_1
 62
3
100
AcDbLine
 10
241.814100
 20
193.144000
 30
0.0
 11
247.098810
 21
193.144000
 31
0.0
  0
ENDSEC
  0
SECTION
  2
OBJECTS
  0
DICTIONARY
  5
C
330
0
100
AcDbDictionary
  3
ACAD_GROUP
350
D
  3
ACAD_MLINESTYLE
350
17
  0
DICTIONARY
  5
D
330
C
100
AcDbDictionary
  0
DICTIONARY
  5
1A
330
C
100
AcDbDictionary
  0
DICTIONARY
  5
17
330
C
100
AcDbDictionary
  3
STANDARD
350
18
  0
DICTIONARY
  5
19
330
C
100
AcDbDictionary
  0
ENDSEC
  0
EOF
