  0
SECTION
  2
HEADER
  9
$ACADVER
  1
AC1014
  9
$HANDSEED
  5
FFFF
  9
$INSUNITS
 70
     0
  9
$MEASUREMENT
 70
     1
  0
ENDSEC
  0
SECTION
  2
TABLES
  0
TABLE
  2
VPORT
  5
8
330
0
100
AcDbSymbolTable
 70
     4
  0
VPORT
  5
2E
330
8
100
AcDbSymbolTableRecord
100
AcDbViewportTableRecord
  2
*ACTIVE
 70
     0
 10
0.0
 20
0.0
 11
1.0
 21
1.0
 12
210.0
 22
148.5
 13
0.0
 23
0.0
 14
10.0
 24
10.0
 15
10.0
 25
10.0
 16
0.0
 26
0.0
 36
1.0
 17
0.0
 27
0.0
 37
0.0
 40
341.0
 41
1.24
 42
50.0
 43
0.0
 44
0.0
 50
0.0
 51
0.0
 71
     0
 72
   100
 73
     1
 74
     3
 75
     0
 76
     0
 77
     0
 78
     0
  0
ENDTAB
  0
TABLE
  2
LTYPE
  5
5
330
0
100
AcDbSymbolTable
 70
     1
  0
LTYPE
  5
14
330
5
100
AcDbSymbolTableRecord
100
AcDbLinetypeTableRecord
  2
BYBLOCK
 70
     0
  3

 72
    65
 73
     0
 40
0.0
  0
LTYPE
  5
15
330
5
100
AcDbSymbolTableRecord
100
AcDbLinetypeTableRecord
  2
BYLAYER
 70
     0
  3

 72
    65
 73
     0
 40
0.0
  0
LTYPE
  5
16
330
5
100
AcDbSymbolTableRecord
100
AcDbLinetypeTableRecord
  2
CONTINUOUS
 70
     0
  3
Solid line
 72
    65
 73
     0
 40
0.0
  0
ENDTAB
  0
TABLE
  2
LAYER
  5
2
100
AcDbSymbolTable
 70
2
  0
LAYER
  5
50
100
AcDbSymbolTableRecord
100
AcDbLayerTableRecord
  2
0
 70
0
  6
CONTINUOUS
  0
LAYER
  5
51
100
AcDbSymbolTableRecord
100
AcDbLayerTableRecord
  2
Layer_1
 70
0
  6
CONTINUOUS
  0
ENDTAB
  0
TABLE
  2
STYLE
  5
3
330
0
100
AcDbSymbolTable
 70
     1
  0
STYLE
  5
11
330
3
100
AcDbSymbolTableRecord
100
AcDbTextStyleTableRecord
  2
STANDARD
 70
     0
 40
0.0
 41
1.0
 50
0.0
 71
     0
 42
2.5
  3
txt
  4

  0
ENDTAB
  0
TABLE
  2
VIEW
  5
6
330
0
100
AcDbSymbolTable
 70
     0
  0
ENDTAB
  0
TABLE
  2
UCS
  5
7
330
0
100
AcDbSymbolTable
 70
     0
  0
ENDTAB
  0
TABLE
  2
APPID
  5
9
330
0
100
AcDbSymbolTable
 70
     2
  0
APPID
  5
12
330
9
100
AcDbSymbolTableRecord
100
AcDbRegAppTableRecord
  2
ACAD
 70
     0
  0
ENDTAB
  0
TABLE
  2
DIMSTYLE
  5
A
330
0
100
AcDbSymbolTable
 70
     1
  0
DIMSTYLE
105
27
330
A
100
AcDbSymbolTableRecord
100
AcDbDimStyleTableRecord
  2
ISO-25
 70
     0
  3

  4

  5

  6

  7

 40
1.0
 41
2.5
 42
0.625
 43
3.75
 44
1.25
 45
0.0
 46
0.0
 47
0.0
 48
0.0
140
2.5
141
2.5
142
0.0
143
0.03937007874016
144
1.0
145
0.0
146
1.0
147
0.625
 71
     0
 72
     0
 73
     0
 74
     0
 75
     0
 76
     0
 77
     1
 78
     8
170
     0
171
     3
172
     1
173
     0
174
     0
175
     0
176
     0
177
     0
178
     0
270
     2
271
     2
272
     2
273
     2
274
     3
340
11
275
     0
280
     0
281
     0
282
     0
283
     0
284
     8
285
     0
286
     0
287
     3
288
     0
  0
ENDTAB
  0
TABLE
  2
BLOCK_RECORD
  5
1
330
0
100
AcDbSymbolTable
 70
     1
  0
BLOCK_RECORD
  5
1F
330
1
100
AcDbSymbolTableRecord
100
AcDbBlockTableRecord
  2
*MODEL_SPACE
  0
BLOCK_RECORD
  5
1B
330
1
100
AcDbSymbolTableRecord
100
AcDbBlockTableRecord
  2
*PAPER_SPACE
  0
ENDTAB
  0
ENDSEC
  0
SECTION
  2
BLOCKS
  0
BLOCK
  5
20
330
1F
100
AcDbEntity
  8
0
100
AcDbBlockBegin
  2
*MODEL_SPACE
 70
     0
 10
0.0
 20
0.0
 30
0.0
  3
*MODEL_SPACE
  1

  0
ENDBLK
  5
21
330
1F
100
AcDbEntity
  8
0
100
AcDbBlockEnd
  0
BLOCK
  5
1C
330
1B
100
AcDbEntity
 67
     1
  8
0
100
AcDbBlockBegin
  2
*PAPER_SPACE
  1

  0
ENDBLK
  5
1D
330
1B
100
AcDbEntity
 67
     1
  8
0
100
AcDbBlockEnd
  0
ENDSEC
  0
SECTION
  2
ENTITIES
  0
LINE
  5
100
100
AcDbEntity
  8
Layer_1
 62
5
100
AcDbLine
 10
2.778110
 20
273.577300
 30
0.0
 11
296.476230
 21
273.577300
 31
0.0
  0
SPLINE
  5
101
100
AcDbEntity
  8
Layer_1
 62
5
100
AcDbSpline
 70
8
 71
3
 72
8
 73
4
 74
0
 40
0
 40
0
 40
0
 40
0
 40
1
 40
1
 40
1
 40
1
 10
296.476230
 20
273.577300
 30
0.0
 10
297.937457
 20
273.577318
 30
0.0
 10
299.122012
 20
274.761873
 30
0.0
 10
299.122030
 20
276.223100
 30
0.0
  0
LINE
  5
102
100
AcDbEntity
  8
Layer_1
 62
5
100
AcDbLine
 10
299.122030
 20
276.223100
 30
0.0
 11
299.122030
 21
294.220900
 31
0.0
  0
SPLINE
  5
103
100
AcDbEntity
  8
Layer_1
 62
5
100
AcDbSpline
 70
8
 71
3
 72
8
 73
4
 74
0
 40
0
 40
0
 40
0
 40
0
 40
1
 40
1
 40
1
 40
1
 10
299.122030
 20
294.220900
 30
0.0
 10
299.122012
 20
295.682127
 30
0.0
 10
297.937457
 20
296.866682
 30
0.0
 10
296.476230
 20
296.866700
 30
0.0
  0
LINE
  5
104
100
AcDbEntity
  8
Layer_1
 62
5
100
AcDbLine
 10
296.476230
 20
296.866700
 30
0.0
 11
2.787880
 21
296.866700
 31
0.0
  0
SPLINE
  5
105
100
AcDbEntity
  8
Layer_1
 62
5
100
AcDbSpline
 70
8
 71
3
 72
8
 73
4
 74
0
 40
0
 40
0
 40
0
 40
0
 40
1
 40
1
 40
1
 40
1
 10
2.787880
 20
296.866700
 30
0.0
 10
1.326461
 20
296.866698
 30
0.0
 10
0.141571
 20
295.682319
 30
0.0
 10
0.140940
 20
294.220900
 30
0.0
  0
LINE
  5
106
100
AcDbEntity
  8
Layer_1
 62
5
100
AcDbLine
 10
0.140940
 20
294.220900
 30
0.0
 11
0.132940
 21
276.223100
 31
0.0
  0
SPLINE
  5
107
100
AcDbEntity
  8
Layer_1
 62
5
100
AcDbSpline
 70
8
 71
3
 72
8
 73
4
 74
0
 40
0
 40
0
 40
0
 40
0
 40
1
 40
1
 40
1
 40
1
 10
0.132940
 20
276.223100
 30
0.0
 10
0.132654
 20
275.521490
 30
0.0
 10
0.411168
 20
274.848518
 30
0.0
 10
0.907180
 20
274.352303
 30
0.0
  0
SPLINE
  5
108
100
AcDbEntity
  8
Layer_1
 62
5
100
AcDbSpline
 70
8
 71
3
 72
8
 73
4
 74
0
 40
0
 40
0
 40
0
 40
0
 40
1
 40
1
 40
1
 40
1
 10
0.907180
 20
274.352303
 30
0.0
 10
1.403192
 20
273.856089
 30
0.0
 10
2.076050
 20
273.577301
 30
0.0
 10
2.777660
 20
273.577300
 30
0.0
  0
LINE
  5
109
100
AcDbEntity
  8
Layer_1
 62
5
100
AcDbLine
 10
2.777660
 20
273.577300
 30
0.0
 11
2.778110
 21
273.577300
 31
0.0
  0
SPLINE
  5
10a
100
AcDbEntity
  8
Layer_1
 62
5
100
AcDbSpline
 70
8
 71
3
 72
8
 73
4
 74
0
 40
0
 40
0
 40
0
 40
0
 40
1
 40
1
 40
1
 40
1
 10
293.035220
 20
290.142364
 30
0.0
 10
293.419459
 20
290.142364
 30
0.0
 10
293.765864
 20
289.910904
 30
0.0
 10
293.912906
 20
289.555913
 30
0.0
  0
SPLINE
  5
10b
100
AcDbEntity
  8
Layer_1
 62
5
100
AcDbSpline
 70
8
 71
3
 72
8
 73
4
 74
0
 40
0
 40
0
 40
0
 40
0
 40
1
 40
1
 40
1
 40
1
 10
293.912906
 20
289.555913
 30
0.0
 10
294.059947
 20
289.200922
 30
0.0
 10
293.978670
 20
288.792310
 30
0.0
 10
293.706971
 20
288.520612
 30
0.0
  0
SPLINE
  5
10c
100
AcDbEntity
  8
Layer_1
 62
5
100
AcDbSpline
 70
8
 71
3
 72
8
 73
4
 74
0
 40
0
 40
0
 40
0
 40
0
 40
1
 40
1
 40
1
 40
1
 10
293.706971
 20
288.520612
 30
0.0
 10
293.435273
 20
288.248914
 30
0.0
 10
293.026661
 20
288.167636
 30
0.0
 10
292.671671
 20
288.314678
 30
0.0
  0
SPLINE
  5
10d
100
AcDbEntity
  8
Layer_1
 62
5
100
AcDbSpline
 70
8
 71
3
 72
8
 73
4
 74
0
 40
0
 40
0
 40
0
 40
0
 40
1
 40
1
 40
1
 40
1
 10
292.671671
 20
288.314678
 30
0.0
 10
292.316680
 20
288.461720
 30
0.0
 10
292.085220
 20
288.808125
 30
0.0
 10
292.085220
 20
289.192364
 30
0.0
  0
SPLINE
  5
10e
100
AcDbEntity
  8
Layer_1
 62
5
100
AcDbSpline
 70
8
 71
3
 72
8
 73
4
 74
0
 40
0
 40
0
 40
0
 40
0
 40
1
 40
1
 40
1
 40
1
 10
292.085220
 20
289.192364
 30
0.0
 10
292.085220
 20
289.444319
 30
0.0
 10
292.185309
 20
289.685956
 30
0.0
 10
292.363469
 20
289.864115
 30
0.0
  0
SPLINE
  5
10f
100
AcDbEntity
  8
Layer_1
 62
5
100
AcDbSpline
 70
8
 71
3
 72
8
 73
4
 74
0
 40
0
 40
0
 40
0
 40
0
 40
1
 40
1
 40
1
 40
1
 10
292.363469
 20
289.864115
 30
0.0
 10
292.541628
 20
290.042275
 30
0.0
 10
292.783264
 20
290.142364
 30
0.0
 10
293.035220
 20
290.142364
 30
0.0
  0
LINE
  5
110
100
AcDbEntity
  8
Layer_1
 62
5
100
AcDbLine
 10
293.035220
 20
290.142364
 30
0.0
 11
293.035220
 21
290.142364
 31
0.0
  0
SPLINE
  5
111
100
AcDbEntity
  8
Layer_1
 62
5
100
AcDbSpline
 70
8
 71
3
 72
8
 73
4
 74
0
 40
0
 40
0
 40
0
 40
0
 40
1
 40
1
 40
1
 40
1
 10
207.742050
 20
290.142364
 30
0.0
 10
208.126289
 20
290.142364
 30
0.0
 10
208.472694
 20
289.910904
 30
0.0
 10
208.619736
 20
289.555913
 30
0.0
  0
SPLINE
  5
112
100
AcDbEntity
  8
Layer_1
 62
5
100
AcDbSpline
 70
8
 71
3
 72
8
 73
4
 74
0
 40
0
 40
0
 40
0
 40
0
 40
1
 40
1
 40
1
 40
1
 10
208.619736
 20
289.555913
 30
0.0
 10
208.766777
 20
289.200922
 30
0.0
 10
208.685500
 20
288.792310
 30
0.0
 10
208.413801
 20
288.520612
 30
0.0
  0
SPLINE
  5
113
100
AcDbEntity
  8
Layer_1
 62
5
100
AcDbSpline
 70
8
 71
3
 72
8
 73
4
 74
0
 40
0
 40
0
 40
0
 40
0
 40
1
 40
1
 40
1
 40
1
 10
208.413801
 20
288.520612
 30
0.0
 10
208.142103
 20
288.248914
 30
0.0
 10
207.733491
 20
288.167636
 30
0.0
 10
207.378501
 20
288.314678
 30
0.0
  0
SPLINE
  5
114
100
AcDbEntity
  8
Layer_1
 62
5
100
AcDbSpline
 70
8
 71
3
 72
8
 73
4
 74
0
 40
0
 40
0
 40
0
 40
0
 40
1
 40
1
 40
1
 40
1
 10
207.378501
 20
288.314678
 30
0.0
 10
207.023510
 20
288.461720
 30
0.0
 10
206.792050
 20
288.808125
 30
0.0
 10
206.792050
 20
289.192364
 30
0.0
  0
SPLINE
  5
115
100
AcDbEntity
  8
Layer_1
 62
5
100
AcDbSpline
 70
8
 71
3
 72
8
 73
4
 74
0
 40
0
 40
0
 40
0
 40
0
 40
1
 40
1
 40
1
 40
1
 10
206.792050
 20
289.192364
 30
0.0
 10
206.792050
 20
289.717034
 30
0.0
 10
207.217379
 20
290.142364
 30
0.0
 10
207.742050
 20
290.142364
 30
0.0
  0
LINE
  5
116
100
AcDbEntity
  8
Layer_1
 62
5
100
AcDbLine
 10
207.742050
 20
290.142364
 30
0.0
 11
207.742050
 21
290.142364
 31
0.0
  0
SPLINE
  5
117
100
AcDbEntity
  8
Layer_1
 62
5
100
AcDbSpline
 70
8
 71
3
 72
8
 73
4
 74
0
 40
0
 40
0
 40
0
 40
0
 40
1
 40
1
 40
1
 40
1
 10
7.286288
 20
290.142364
 30
0.0
 10
7.670527
 20
290.142364
 30
0.0
 10
8.016932
 20
289.910904
 30
0.0
 10
8.163974
 20
289.555913
 30
0.0
  0
SPLINE
  5
118
100
AcDbEntity
  8
Layer_1
 62
5
100
AcDbSpline
 70
8
 71
3
 72
8
 73
4
 74
0
 40
0
 40
0
 40
0
 40
0
 40
1
 40
1
 40
1
 40
1
 10
8.163974
 20
289.555913
 30
0.0
 10
8.311016
 20
289.200922
 30
0.0
 10
8.229738
 20
288.792310
 30
0.0
 10
7.958040
 20
288.520612
 30
0.0
  0
SPLINE
  5
119
100
AcDbEntity
  8
Layer_1
 62
5
100
AcDbSpline
 70
8
 71
3
 72
8
 73
4
 74
0
 40
0
 40
0
 40
0
 40
0
 40
1
 40
1
 40
1
 40
1
 10
7.958040
 20
288.520612
 30
0.0
 10
7.686342
 20
288.248914
 30
0.0
 10
7.277730
 20
288.167636
 30
0.0
 10
6.922739
 20
288.314678
 30
0.0
  0
SPLINE
  5
11a
100
AcDbEntity
  8
Layer_1
 62
5
100
AcDbSpline
 70
8
 71
3
 72
8
 73
4
 74
0
 40
0
 40
0
 40
0
 40
0
 40
1
 40
1
 40
1
 40
1
 10
6.922739
 20
288.314678
 30
0.0
 10
6.567748
 20
288.461720
 30
0.0
 10
6.336288
 20
288.808125
 30
0.0
 10
6.336288
 20
289.192364
 30
0.0
  0
SPLINE
  5
11b
100
AcDbEntity
  8
Layer_1
 62
5
100
AcDbSpline
 70
8
 71
3
 72
8
 73
4
 74
0
 40
0
 40
0
 40
0
 40
0
 40
1
 40
1
 40
1
 40
1
 10
6.336288
 20
289.192364
 30
0.0
 10
6.336288
 20
289.717034
 30
0.0
 10
6.761618
 20
290.142364
 30
0.0
 10
7.286288
 20
290.142364
 30
0.0
  0
LINE
  5
11c
100
AcDbEntity
  8
Layer_1
 62
5
100
AcDbLine
 10
7.286288
 20
290.142364
 30
0.0
 11
7.286288
 21
290.142364
 31
0.0
  0
SPLINE
  5
11d
100
AcDbEntity
  8
Layer_1
 62
5
100
AcDbSpline
 70
8
 71
3
 72
8
 73
4
 74
0
 40
0
 40
0
 40
0
 40
0
 40
1
 40
1
 40
1
 40
1
 10
126.437220
 20
290.142364
 30
0.0
 10
126.821459
 20
290.142364
 30
0.0
 10
127.167864
 20
289.910904
 30
0.0
 10
127.314906
 20
289.555913
 30
0.0
  0
SPLINE
  5
11e
100
AcDbEntity
  8
Layer_1
 62
5
100
AcDbSpline
 70
8
 71
3
 72
8
 73
4
 74
0
 40
0
 40
0
 40
0
 40
0
 40
1
 40
1
 40
1
 40
1
 10
127.314906
 20
289.555913
 30
0.0
 10
127.461947
 20
289.200922
 30
0.0
 10
127.380670
 20
288.792310
 30
0.0
 10
127.108971
 20
288.520612
 30
0.0
  0
SPLINE
  5
11f
100
AcDbEntity
  8
Layer_1
 62
5
100
AcDbSpline
 70
8
 71
3
 72
8
 73
4
 74
0
 40
0
 40
0
 40
0
 40
0
 40
1
 40
1
 40
1
 40
1
 10
127.108971
 20
288.520612
 30
0.0
 10
126.837273
 20
288.248914
 30
0.0
 10
126.428661
 20
288.167636
 30
0.0
 10
126.073671
 20
288.314678
 30
0.0
  0
SPLINE
  5
120
100
AcDbEntity
  8
Layer_1
 62
5
100
AcDbSpline
 70
8
 71
3
 72
8
 73
4
 74
0
 40
0
 40
0
 40
0
 40
0
 40
1
 40
1
 40
1
 40
1
 10
126.073671
 20
288.314678
 30
0.0
 10
125.718680
 20
288.461720
 30
0.0
 10
125.487220
 20
288.808125
 30
0.0
 10
125.487220
 20
289.192364
 30
0.0
  0
SPLINE
  5
121
100
AcDbEntity
  8
Layer_1
 62
5
100
AcDbSpline
 70
8
 71
3
 72
8
 73
4
 74
0
 40
0
 40
0
 40
0
 40
0
 40
1
 40
1
 40
1
 40
1
 10
125.487220
 20
289.192364
 30
0.0
 10
125.487220
 20
289.444319
 30
0.0
 10
125.587309
 20
289.685956
 30
0.0
 10
125.765469
 20
289.864115
 30
0.0
  0
SPLINE
  5
122
100
AcDbEntity
  8
Layer_1
 62
5
100
AcDbSpline
 70
8
 71
3
 72
8
 73
4
 74
0
 40
0
 40
0
 40
0
 40
0
 40
1
 40
1
 40
1
 40
1
 10
125.765469
 20
289.864115
 30
0.0
 10
125.943628
 20
290.042275
 30
0.0
 10
126.185264
 20
290.142364
 30
0.0
 10
126.437220
 20
290.142364
 30
0.0
  0
LINE
  5
123
100
AcDbEntity
  8
Layer_1
 62
5
100
AcDbLine
 10
126.437220
 20
290.142364
 30
0.0
 11
126.437220
 21
290.142364
 31
0.0
  0
SPLINE
  5
124
100
AcDbEntity
  8
Layer_1
 62
5
100
AcDbSpline
 70
8
 71
3
 72
8
 73
4
 74
0
 40
0
 40
0
 40
0
 40
0
 40
1
 40
1
 40
1
 40
1
 10
40.143162
 20
290.142364
 30
0.0
 10
40.527401
 20
290.142364
 30
0.0
 10
40.873806
 20
289.910904
 30
0.0
 10
41.020848
 20
289.555913
 30
0.0
  0
SPLINE
  5
125
100
AcDbEntity
  8
Layer_1
 62
5
100
AcDbSpline
 70
8
 71
3
 72
8
 73
4
 74
0
 40
0
 40
0
 40
0
 40
0
 40
1
 40
1
 40
1
 40
1
 10
41.020848
 20
289.555913
 30
0.0
 10
41.167889
 20
289.200922
 30
0.0
 10
41.086612
 20
288.792310
 30
0.0
 10
40.814913
 20
288.520612
 30
0.0
  0
SPLINE
  5
126
100
AcDbEntity
  8
Layer_1
 62
5
100
AcDbSpline
 70
8
 71
3
 72
8
 73
4
 74
0
 40
0
 40
0
 40
0
 40
0
 40
1
 40
1
 40
1
 40
1
 10
40.814913
 20
288.520612
 30
0.0
 10
40.543215
 20
288.248914
 30
0.0
 10
40.134603
 20
288.167636
 30
0.0
 10
39.779613
 20
288.314678
 30
0.0
  0
SPLINE
  5
127
100
AcDbEntity
  8
Layer_1
 62
5
100
AcDbSpline
 70
8
 71
3
 72
8
 73
4
 74
0
 40
0
 40
0
 40
0
 40
0
 40
1
 40
1
 40
1
 40
1
 10
39.779613
 20
288.314678
 30
0.0
 10
39.424622
 20
288.461720
 30
0.0
 10
39.193162
 20
288.808125
 30
0.0
 10
39.193162
 20
289.192364
 30
0.0
  0
SPLINE
  5
128
100
AcDbEntity
  8
Layer_1
 62
5
100
AcDbSpline
 70
8
 71
3
 72
8
 73
4
 74
0
 40
0
 40
0
 40
0
 40
0
 40
1
 40
1
 40
1
 40
1
 10
39.193162
 20
289.192364
 30
0.0
 10
39.193162
 20
289.444319
 30
0.0
 10
39.293251
 20
289.685956
 30
0.0
 10
39.471411
 20
289.864115
 30
0.0
  0
SPLINE
  5
129
100
AcDbEntity
  8
Layer_1
 62
5
100
AcDbSpline
 70
8
 71
3
 72
8
 73
4
 74
0
 40
0
 40
0
 40
0
 40
0
 40
1
 40
1
 40
1
 40
1
 10
39.471411
 20
289.864115
 30
0.0
 10
39.649570
 20
290.042275
 30
0.0
 10
39.891206
 20
290.142364
 30
0.0
 10
40.143162
 20
290.142364
 30
0.0
  0
LINE
  5
12a
100
AcDbEntity
  8
Layer_1
 62
5
100
AcDbLine
 10
40.143162
 20
290.142364
 30
0.0
 11
40.143162
 21
290.142364
 31
0.0
  0
SPLINE
  5
12b
100
AcDbEntity
  8
Layer_1
 62
5
100
AcDbSpline
 70
8
 71
3
 72
8
 73
4
 74
0
 40
0
 40
0
 40
0
 40
0
 40
1
 40
1
 40
1
 40
1
 10
14.829928
 20
281.039336
 30
0.0
 10
14.445689
 20
281.039336
 30
0.0
 10
14.099284
 20
280.807876
 30
0.0
 10
13.952242
 20
280.452885
 30
0.0
  0
SPLINE
  5
12c
100
AcDbEntity
  8
Layer_1
 62
5
100
AcDbSpline
 70
8
 71
3
 72
8
 73
4
 74
0
 40
0
 40
0
 40
0
 40
0
 40
1
 40
1
 40
1
 40
1
 10
13.952242
 20
280.452885
 30
0.0
 10
13.805201
 20
280.097895
 30
0.0
 10
13.886478
 20
279.689283
 30
0.0
 10
14.158177
 20
279.417585
 30
0.0
  0
SPLINE
  5
12d
100
AcDbEntity
  8
Layer_1
 62
5
100
AcDbSpline
 70
8
 71
3
 72
8
 73
4
 74
0
 40
0
 40
0
 40
0
 40
0
 40
1
 40
1
 40
1
 40
1
 10
14.158177
 20
279.417585
 30
0.0
 10
14.429875
 20
279.145886
 30
0.0
 10
14.838487
 20
279.064609
 30
0.0
 10
15.193477
 20
279.211650
 30
0.0
  0
SPLINE
  5
12e
100
AcDbEntity
  8
Layer_1
 62
5
100
AcDbSpline
 70
8
 71
3
 72
8
 73
4
 74
0
 40
0
 40
0
 40
0
 40
0
 40
1
 40
1
 40
1
 40
1
 10
15.193477
 20
279.211650
 30
0.0
 10
15.548468
 20
279.358692
 30
0.0
 10
15.779928
 20
279.705097
 30
0.0
 10
15.779928
 20
280.089336
 30
0.0
  0
SPLINE
  5
12f
100
AcDbEntity
  8
Layer_1
 62
5
100
AcDbSpline
 70
8
 71
3
 72
8
 73
4
 74
0
 40
0
 40
0
 40
0
 40
0
 40
1
 40
1
 40
1
 40
1
 10
15.779928
 20
280.089336
 30
0.0
 10
15.779928
 20
280.614007
 30
0.0
 10
15.354599
 20
281.039336
 30
0.0
 10
14.829928
 20
281.039336
 30
0.0
  0
LINE
  5
130
100
AcDbEntity
  8
Layer_1
 62
5
100
AcDbLine
 10
14.829928
 20
281.039336
 30
0.0
 11
14.829928
 21
281.039336
 31
0.0
  0
SPLINE
  5
131
100
AcDbEntity
  8
Layer_1
 62
5
100
AcDbSpline
 70
8
 71
3
 72
8
 73
4
 74
0
 40
0
 40
0
 40
0
 40
0
 40
1
 40
1
 40
1
 40
1
 10
32.607334
 20
281.039336
 30
0.0
 10
32.223095
 20
281.039336
 30
0.0
 10
31.876690
 20
280.807876
 30
0.0
 10
31.729648
 20
280.452885
 30
0.0
  0
SPLINE
  5
132
100
AcDbEntity
  8
Layer_1
 62
5
100
AcDbSpline
 70
8
 71
3
 72
8
 73
4
 74
0
 40
0
 40
0
 40
0
 40
0
 40
1
 40
1
 40
1
 40
1
 10
31.729648
 20
280.452885
 30
0.0
 10
31.582607
 20
280.097895
 30
0.0
 10
31.663884
 20
279.689283
 30
0.0
 10
31.935583
 20
279.417585
 30
0.0
  0
SPLINE
  5
133
100
AcDbEntity
  8
Layer_1
 62
5
100
AcDbSpline
 70
8
 71
3
 72
8
 73
4
 74
0
 40
0
 40
0
 40
0
 40
0
 40
1
 40
1
 40
1
 40
1
 10
31.935583
 20
279.417585
 30
0.0
 10
32.207281
 20
279.145886
 30
0.0
 10
32.615893
 20
279.064609
 30
0.0
 10
32.970883
 20
279.211650
 30
0.0
  0
SPLINE
  5
134
100
AcDbEntity
  8
Layer_1
 62
5
100
AcDbSpline
 70
8
 71
3
 72
8
 73
4
 74
0
 40
0
 40
0
 40
0
 40
0
 40
1
 40
1
 40
1
 40
1
 10
32.970883
 20
279.211650
 30
0.0
 10
33.325874
 20
279.358692
 30
0.0
 10
33.557334
 20
279.705097
 30
0.0
 10
33.557334
 20
280.089336
 30
0.0
  0
SPLINE
  5
135
100
AcDbEntity
  8
Layer_1
 62
5
100
AcDbSpline
 70
8
 71
3
 72
8
 73
4
 74
0
 40
0
 40
0
 40
0
 40
0
 40
1
 40
1
 40
1
 40
1
 10
33.557334
 20
280.089336
 30
0.0
 10
33.557334
 20
280.341292
 30
0.0
 10
33.457245
 20
280.582928
 30
0.0
 10
33.279085
 20
280.761087
 30
0.0
  0
SPLINE
  5
136
100
AcDbEntity
  8
Layer_1
 62
5
100
AcDbSpline
 70
8
 71
3
 72
8
 73
4
 74
0
 40
0
 40
0
 40
0
 40
0
 40
1
 40
1
 40
1
 40
1
 10
33.279085
 20
280.761087
 30
0.0
 10
33.100926
 20
280.939247
 30
0.0
 10
32.859290
 20
281.039336
 30
0.0
 10
32.607334
 20
281.039336
 30
0.0
  0
LINE
  5
137
100
AcDbEntity
  8
Layer_1
 62
5
100
AcDbLine
 10
32.607334
 20
281.039336
 30
0.0
 11
32.607334
 21
281.039336
 31
0.0
  0
ENDSEC
  0
SECTION
  2
OBJECTS
  0
DICTIONARY
  5
C
330
0
100
AcDbDictionary
  3
ACAD_GROUP
350
D
  3
ACAD_MLINESTYLE
350
17
  0
DICTIONARY
  5
D
330
C
100
AcDbDictionary
  0
DICTIONARY
  5
1A
330
C
100
AcDbDictionary
  0
DICTIONARY
  5
17
330
C
100
AcDbDictionary
  3
STANDARD
350
18
  0
DICTIONARY
  5
19
330
C
100
AcDbDictionary
  0
ENDSEC
  0
EOF
